<svg width="26" height="26" viewBox="0 0 26 26" fill="none" xmlns="http://www.w3.org/2000/svg">
<g clip-path="url(#clip0_18_2269)">
<path d="M13 0C5.85968 0 0 5.85968 0 13C0 15.3566 0.635361 17.6507 1.84023 19.6577L0 26L6.3423 24.1598C8.34935 25.3646 10.6434 26 13 26C20.1403 26 26 20.1403 26 13C26 5.85968 20.1403 0 13 0ZM21.1278 18.4929L20.523 19.0977C19.6672 19.9535 17.6992 19.8856 16.4347 19.6414C12.2299 18.8293 7.32777 14.0777 6.38237 9.96284C5.91423 7.92445 6.1727 6.15227 6.84872 5.47604L7.45354 4.87123C7.78738 4.53758 8.32971 4.53798 8.66316 4.87123L11.0828 7.29108C11.2443 7.45255 11.3327 7.66658 11.3327 7.89569C11.3327 8.1248 11.2443 8.33904 11.0828 8.49991L10.4782 9.10532C9.81169 9.77341 9.81169 10.8587 10.4782 11.5252L14.4738 15.4682C15.1423 16.1367 16.2242 16.1375 16.8937 15.4682L17.4985 14.8636C17.8107 14.5496 18.3939 14.5486 18.7087 14.8636L21.1278 17.2827C21.4563 17.6098 21.4688 18.1517 21.1278 18.4929Z" fill="#5896C8"/>
</g>
<defs>
<clipPath id="clip0_18_2269">
<rect width="26" height="26" fill="white"/>
</clipPath>
</defs>
</svg>
