<svg width="30" height="30" viewBox="0 0 30 30" fill="none" xmlns="http://www.w3.org/2000/svg">
<g id="cart" clip-path="url(#clip0_153_100)">
<path id="Vector" d="M25.3639 16H9.00391L7.00391 6H27.0039C27.1502 6.00054 27.2945 6.03315 27.4268 6.09554C27.5591 6.15793 27.6761 6.24858 27.7695 6.36109C27.863 6.47361 27.9306 6.60525 27.9676 6.74674C28.0047 6.88824 28.0102 7.03613 27.9839 7.18L26.3439 15.18C26.3057 15.4113 26.1857 15.6212 26.0059 15.7717C25.8261 15.9221 25.5983 16.0031 25.3639 16Z" stroke="white" stroke-width="2.5" stroke-linecap="round" stroke-linejoin="round"/>
<path id="Vector_2" d="M7.00391 6L6.16391 2.8C6.1178 2.57413 5.99507 2.37112 5.81649 2.22534C5.6379 2.07956 5.41444 1.99995 5.18391 2H2.00391" stroke="white" stroke-width="2.5" stroke-linecap="round" stroke-linejoin="round"/>
<path id="Vector_3" d="M9.00391 16L9.84391 20.2C9.89001 20.4259 10.0127 20.6289 10.1913 20.7747C10.3699 20.9204 10.5934 21 10.8239 21H23.0039" stroke="white" stroke-width="2.5" stroke-linecap="round" stroke-linejoin="round"/>
<path id="Vector_4" d="M22.0039 28C21.7387 28 21.4843 27.8946 21.2968 27.7071C21.1093 27.5196 21.0039 27.2652 21.0039 27C21.0039 26.7348 21.1093 26.4804 21.2968 26.2929C21.4843 26.1054 21.7387 26 22.0039 26C22.2691 26 22.5235 26.1054 22.711 26.2929C22.8986 26.4804 23.0039 26.7348 23.0039 27C23.0039 27.2652 22.8986 27.5196 22.711 27.7071C22.5235 27.8946 22.2691 28 22.0039 28Z" fill="white" stroke="white" stroke-width="2.5" stroke-linecap="round" stroke-linejoin="round"/>
<path id="Vector_5" d="M12.0039 28C11.7387 28 11.4843 27.8946 11.2968 27.7071C11.1093 27.5196 11.0039 27.2652 11.0039 27C11.0039 26.7348 11.1093 26.4804 11.2968 26.2929C11.4843 26.1054 11.7387 26 12.0039 26C12.2691 26 12.5235 26.1054 12.711 26.2929C12.8986 26.4804 13.0039 26.7348 13.0039 27C13.0039 27.2652 12.8986 27.5196 12.711 27.7071C12.5235 27.8946 12.2691 28 12.0039 28Z" fill="white" stroke="white" stroke-width="2.5" stroke-linecap="round" stroke-linejoin="round"/>
</g>
<defs>
<clipPath id="clip0_153_100">
<rect width="30" height="30" fill="white"/>
</clipPath>
</defs>
</svg>
