<svg width="16" height="20" viewBox="0 0 16 20" fill="none" xmlns="http://www.w3.org/2000/svg">
<g id="trash" clip-path="url(#clip0_131_13)">
<path id="Vector" fill-rule="evenodd" clip-rule="evenodd" d="M1.86617 6.15404C2.29362 6.16439 2.6317 6.51707 2.62128 6.94178L1.84732 6.92305L1.07335 6.90431C1.08377 6.4796 1.43873 6.1437 1.86617 6.15404ZM1.84732 6.92305C1.07335 6.90431 1.07335 6.90431 1.07335 6.90431L1.07232 6.94804L1.06953 7.07235C1.06718 7.18041 1.06393 7.33722 1.06031 7.53281C1.05309 7.92392 1.04443 8.47047 1.03865 9.09247C1.02713 10.333 1.02695 11.8865 1.07368 13.1062C1.12481 14.4402 1.26244 16.1669 1.376 17.4527C1.50426 18.9048 2.73174 20 4.18695 20H11.813C13.2682 20 14.4957 18.9048 14.624 17.4527C14.7375 16.1669 14.8752 14.4402 14.9263 13.1062C14.973 11.8865 14.9728 10.333 14.9613 9.09247C14.9555 8.47047 14.9469 7.92392 14.9397 7.53281C14.936 7.33722 14.9328 7.18041 14.9304 7.07235L14.9277 6.94804L14.9266 6.90512C14.9162 6.48041 14.5612 6.1437 14.1338 6.15404C13.7063 6.16439 13.3683 6.51707 13.3787 6.94178L13.8719 6.92984C13.3787 6.94178 13.3787 6.94178 13.3787 6.94178L13.3797 6.98351L13.3824 7.10562C13.3847 7.21217 13.388 7.36729 13.3915 7.56103C13.3987 7.94859 13.4073 8.49027 13.413 9.10667C13.4245 10.3427 13.4243 11.8661 13.379 13.0477C13.3295 14.3412 13.1948 16.0358 13.0815 17.3182C13.0245 17.9641 12.4774 18.4615 11.813 18.4615H4.18695C3.52255 18.4615 2.97551 17.9641 2.91846 17.3182C2.80519 16.0358 2.67052 14.3412 2.62095 13.0477C2.57567 11.8661 2.57549 10.3427 2.58697 9.10667C2.5927 8.49027 2.60129 7.94859 2.60844 7.56103C2.61202 7.36729 2.61524 7.21217 2.61756 7.10562L2.62029 6.98351L2.62128 6.94178L1.84732 6.92305Z" fill="#DD3403"/>
<path id="Vector_2" fill-rule="evenodd" clip-rule="evenodd" d="M0 3.84613C0 3.4213 0.34662 3.0769 0.77419 3.0769H15.2258C15.6534 3.0769 16 3.4213 16 3.84613C16 4.27097 15.6534 4.61537 15.2258 4.61537H0.77419C0.34662 4.61537 0 4.27097 0 3.84613Z" fill="#DD3403"/>
<path id="Vector_3" fill-rule="evenodd" clip-rule="evenodd" d="M4.25661 1.49321C4.74996 0.57411 5.71298 0 6.76136 0H9.23876C10.2872 0 11.2502 0.57411 11.7436 1.49321L12.8122 3.48416C13.0135 3.85902 12.8707 4.32497 12.4935 4.52489C12.1162 4.72481 11.6472 4.583 11.446 4.20815L10.3773 2.21719C10.1531 1.79942 9.71526 1.53846 9.23876 1.53846H6.76136C6.28486 1.53846 5.84708 1.79942 5.62283 2.21719L4.55414 4.20815C4.35293 4.583 3.88397 4.72481 3.5067 4.52489C3.12943 4.32497 2.9867 3.85902 3.18792 3.48416L4.25661 1.49321Z" fill="#DD3403"/>
</g>
<defs>
<clipPath id="clip0_131_13">
<rect width="16" height="20" fill="white"/>
</clipPath>
</defs>
</svg>
