<svg width="36" height="36" viewBox="0 0 36 36" fill="none" xmlns="http://www.w3.org/2000/svg">
<circle cx="18" cy="18" r="18" fill="#247FB2"/>
<g clip-path="url(#clip0_222_41)">
<path d="M24.9998 16.7606C25.0244 13.9795 22.5634 11.43 19.5138 11.0774C19.4532 11.0705 19.3871 11.06 19.3172 11.0488C19.1662 11.0247 19.0101 11 18.8525 11C18.2275 11 18.0604 11.4226 18.0164 11.6746C17.9737 11.9196 18.0145 12.1254 18.1375 12.2865C18.3445 12.5574 18.7087 12.6055 19.0012 12.644C19.0869 12.6554 19.1678 12.666 19.2356 12.6806C21.9755 13.2699 22.8981 14.1963 23.349 16.8111C23.36 16.8749 23.3649 16.9537 23.3702 17.0372C23.3899 17.3497 23.4309 18 24.1572 18C24.2177 18 24.2828 17.995 24.3504 17.9851C25.0268 17.8861 25.0056 17.2917 24.9954 17.0061C24.9926 16.9257 24.9898 16.8496 24.9969 16.799C24.9988 16.7862 24.9998 16.7734 24.9998 16.7606Z" fill="white"/>
<path d="M18.8945 10.416C18.9674 10.4211 19.0364 10.4259 19.0939 10.4344C23.1374 11.0337 24.9969 12.8799 25.5122 16.8071C25.521 16.8738 25.5223 16.9552 25.5238 17.0414C25.5289 17.3483 25.5395 17.9866 26.2508 17.9998L26.2729 18C26.496 18 26.6734 17.9352 26.8003 17.8072C27.0217 17.584 27.0063 17.2524 26.9938 16.9859C26.9908 16.9206 26.9879 16.859 26.9886 16.8051C27.04 12.7886 23.4324 9.14652 19.2684 9.01108C19.2511 9.01053 19.2346 9.01141 19.218 9.01367C19.2098 9.01483 19.1947 9.01626 19.1687 9.01626C19.1272 9.01626 19.0761 9.01279 19.0219 9.00926C18.9564 9.00496 18.8822 9 18.8069 9C18.1438 9 18.0177 9.45422 18.0016 9.72499C17.9644 10.3508 18.5926 10.3948 18.8945 10.416Z" fill="white"/>
<path d="M24.8826 22.0942C24.7986 22.0304 24.7118 21.9644 24.6304 21.8993C24.199 21.5542 23.7401 21.2361 23.2962 20.9285C23.2041 20.8647 23.1119 20.8008 23.0202 20.7368C22.4516 20.3399 21.9404 20.147 21.4574 20.147C20.807 20.147 20.2398 20.5042 19.7718 21.2086C19.5644 21.521 19.3128 21.6728 19.0027 21.6728C18.8194 21.6728 18.6111 21.6208 18.3836 21.5182C16.5483 20.6909 15.2378 19.4226 14.4884 17.7484C14.1262 16.9393 14.2436 16.4103 14.8812 15.9798C15.2432 15.7356 15.9171 15.2809 15.8694 14.4102C15.8153 13.4214 13.6203 10.4462 12.6955 10.1083C12.304 9.96514 11.8926 9.96381 11.4705 10.1049C10.4074 10.4602 9.64444 11.0841 9.26401 11.909C8.89637 12.7061 8.91298 13.6421 9.31202 14.6157C10.4656 17.4307 12.0875 19.885 14.1329 21.9104C16.1349 23.893 18.5955 25.517 21.4464 26.7371C21.7033 26.847 21.9729 26.907 22.1697 26.9507C22.2368 26.9657 22.2947 26.9785 22.3369 26.99C22.3601 26.9963 22.384 26.9997 22.408 26.9999L22.4305 27C23.7714 27 25.3815 25.7821 25.8759 24.3937C26.3091 23.1779 25.5182 22.577 24.8826 22.0942Z" fill="white"/>
<path d="M19.766 14.0004C19.5764 14.0051 19.1818 14.0146 19.0434 14.405C18.9786 14.5875 18.9864 14.746 19.0665 14.8759C19.184 15.0667 19.4092 15.1251 19.614 15.1572C20.3569 15.273 20.7384 15.6722 20.8147 16.4132C20.8501 16.7587 21.0896 17 21.3971 17C21.4198 17 21.443 16.9987 21.4662 16.996C21.8359 16.9532 22.0152 16.6892 21.999 16.2114C22.0049 15.7127 21.7363 15.1466 21.2795 14.6957C20.8211 14.2433 20.2686 13.9886 19.766 14.0004Z" fill="white"/>
</g>
<defs>
<clipPath id="clip0_222_41">
<rect width="18" height="18" fill="white" transform="translate(9 9)"/>
</clipPath>
</defs>
</svg>
