<svg width="36" height="36" viewBox="0 0 36 36" fill="none" xmlns="http://www.w3.org/2000/svg">
<circle cx="18" cy="18" r="18" fill="#247FB2"/>
<g clip-path="url(#clip0_222_33)">
<path fill-rule="evenodd" clip-rule="evenodd" d="M24.2129 19.9943C24.8763 20.6238 25.5765 21.2161 26.1715 21.9091C26.4344 22.217 26.6832 22.5348 26.8736 22.8922C27.1433 23.4003 26.899 23.9593 26.4303 23.9897L23.5166 23.9884C22.7652 24.049 22.1657 23.755 21.6616 23.2556C21.2582 22.8563 20.8846 22.4312 20.4967 22.0184C20.3377 21.8497 20.1713 21.6909 19.9724 21.5654C19.5747 21.3145 19.2294 21.3913 19.0021 21.7945C18.7706 22.2046 18.7181 22.6587 18.6954 23.1157C18.6642 23.7825 18.4568 23.9578 17.7676 23.9883C16.2947 24.0558 14.8969 23.8393 13.5984 23.1171C12.4536 22.4805 11.5658 21.5818 10.7931 20.5644C9.28861 18.5833 8.13649 16.4063 7.10101 14.1684C6.86793 13.6642 7.03838 13.3935 7.6108 13.384C8.56132 13.366 9.51171 13.3673 10.4633 13.3827C10.8497 13.3882 11.1054 13.6035 11.2546 13.9582C11.7688 15.1872 12.3981 16.3564 13.1879 17.4402C13.3983 17.7287 13.6128 18.0173 13.9182 18.2203C14.2561 18.4452 14.5133 18.3707 14.6723 18.0049C14.7732 17.7729 14.8173 17.5231 14.8401 17.2746C14.9154 16.4199 14.9253 15.5667 14.7932 14.715C14.7121 14.1835 14.4041 13.8394 13.8583 13.7388C13.5798 13.6875 13.6213 13.5868 13.7562 13.4323C13.9903 13.1659 14.2106 13 14.6497 13H17.9426C18.461 13.0994 18.5761 13.3258 18.6471 13.8327L18.6499 17.3876C18.6442 17.5839 18.7508 18.1662 19.1145 18.2961C19.4056 18.3886 19.5975 18.1623 19.7721 17.9829C20.5605 17.1696 21.1232 16.2085 21.6259 15.2133C21.849 14.7757 22.0408 14.3213 22.2267 13.8672C22.3644 13.5303 22.5806 13.3645 22.9711 13.3718L26.1403 13.3746C26.2343 13.3746 26.3294 13.3759 26.4204 13.391C26.9544 13.4795 27.1007 13.7028 26.9358 14.2096C26.6759 15.0048 26.1703 15.6674 25.6759 16.3331C25.1473 17.0439 24.5821 17.7303 24.058 18.4453C23.5764 19.0982 23.6147 19.4272 24.2129 19.9943Z" fill="white"/>
</g>
<defs>
<clipPath id="clip0_222_33">
<rect width="20" height="11" fill="white" transform="translate(7 13)"/>
</clipPath>
</defs>
</svg>
