<svg width="36" height="36" viewBox="0 0 36 36" fill="none" xmlns="http://www.w3.org/2000/svg">
<circle cx="18" cy="18" r="18" fill="#247FB2"/>
<path d="M18.0025 8H17.9975C12.4838 8 8 12.485 8 18C8 20.1875 8.705 22.215 9.90375 23.8612L8.6575 27.5763L12.5013 26.3475C14.0825 27.395 15.9688 28 18.0025 28C23.5162 28 28 23.5138 28 18C28 12.4863 23.5162 8 18.0025 8ZM23.8212 22.1213C23.58 22.8025 22.6225 23.3675 21.8587 23.5325C21.3363 23.6437 20.6537 23.7325 18.3562 22.78C15.4175 21.5625 13.525 18.5763 13.3775 18.3825C13.2362 18.1887 12.19 16.8013 12.19 15.3663C12.19 13.9313 12.9188 13.2325 13.2125 12.9325C13.4538 12.6863 13.8525 12.5738 14.235 12.5738C14.3587 12.5738 14.47 12.58 14.57 12.585C14.8637 12.5975 15.0113 12.615 15.205 13.0788C15.4462 13.66 16.0337 15.095 16.1038 15.2425C16.175 15.39 16.2463 15.59 16.1462 15.7838C16.0525 15.9838 15.97 16.0725 15.8225 16.2425C15.675 16.4125 15.535 16.5425 15.3875 16.725C15.2525 16.8837 15.1 17.0538 15.27 17.3475C15.44 17.635 16.0275 18.5937 16.8925 19.3637C18.0087 20.3575 18.9137 20.675 19.2375 20.81C19.4787 20.91 19.7662 20.8863 19.9425 20.6988C20.1663 20.4575 20.4425 20.0575 20.7238 19.6638C20.9237 19.3813 21.1763 19.3462 21.4412 19.4462C21.7113 19.54 23.14 20.2462 23.4338 20.3925C23.7275 20.54 23.9212 20.61 23.9925 20.7338C24.0625 20.8575 24.0625 21.4388 23.8212 22.1213Z" fill="white"/>
</svg>
