<svg width="397" height="453" viewBox="0 0 397 453" fill="none" xmlns="http://www.w3.org/2000/svg">
<path d="M154.132 218.564H134.586V236.964H154.132V218.564Z" fill="white" stroke="#FF5C00" stroke-width="2" stroke-linecap="round" stroke-linejoin="round"/>
<path d="M154.132 237.104H134.586V255.504H154.132V237.104Z" fill="white" stroke="#FF5C00" stroke-width="2" stroke-linecap="round" stroke-linejoin="round"/>
<path d="M154.132 255.785H134.586V274.184H154.132V255.785Z" fill="white" stroke="#FF5C00" stroke-width="2" stroke-linecap="round" stroke-linejoin="round"/>
<path d="M154.132 274.325H134.586V292.725H154.132V274.325Z" fill="white" stroke="#FF5C00" stroke-width="2" stroke-linecap="round" stroke-linejoin="round"/>
<path d="M154.132 293.005H134.586V311.405H154.132V293.005Z" fill="white" stroke="#FF5C00" stroke-width="2" stroke-linecap="round" stroke-linejoin="round"/>
<path d="M154.132 311.686H134.586V330.086H154.132V311.686Z" fill="white" stroke="#FF5C00" stroke-width="2" stroke-linecap="round" stroke-linejoin="round"/>
<path d="M154.132 330.226H134.586V348.625H154.132V330.226Z" fill="white" stroke="#FF5C00" stroke-width="2" stroke-linecap="round" stroke-linejoin="round"/>
<path d="M154.132 348.906H134.586V367.306H154.132V348.906Z" fill="white" stroke="#FF5C00" stroke-width="2" stroke-linecap="round" stroke-linejoin="round"/>
<path d="M154.132 367.587H134.586V385.986H154.132V367.587Z" fill="white" stroke="#FF5C00" stroke-width="2" stroke-linecap="round" stroke-linejoin="round"/>
<path d="M154.132 200.867H134.586V219.266H154.132V200.867Z" fill="white" stroke="#FF5C00" stroke-width="2" stroke-linecap="round" stroke-linejoin="round"/>
<path d="M154.132 182.187H134.586V200.586H154.132V182.187Z" fill="white" stroke="#FF5C00" stroke-width="2" stroke-linecap="round" stroke-linejoin="round"/>
<path d="M154.132 163.506H134.586V181.906H154.132V163.506Z" fill="white" stroke="#FF5C00" stroke-width="2" stroke-linecap="round" stroke-linejoin="round"/>
<path d="M154.132 144.966H134.586V163.366H154.132V144.966Z" fill="white" stroke="#FF5C00" stroke-width="2" stroke-linecap="round" stroke-linejoin="round"/>
<path d="M154.132 126.286H134.586V144.685H154.132V126.286Z" fill="white" stroke="#FF5C00" stroke-width="2" stroke-linecap="round" stroke-linejoin="round"/>
<path d="M154.132 107.605H134.586V126.005H154.132V107.605Z" fill="white" stroke="#FF5C00" stroke-width="2" stroke-linecap="round" stroke-linejoin="round"/>
<path d="M154.132 89.0654H134.586V107.465H154.132V89.0654Z" fill="white" stroke="#FF5C00" stroke-width="2" stroke-linecap="round" stroke-linejoin="round"/>
<path d="M154.132 70.3848H134.586V88.7843H154.132V70.3848Z" fill="white" stroke="#FF5C00" stroke-width="2" stroke-linecap="round" stroke-linejoin="round"/>
<path d="M154.132 51.8447H134.586V70.2443H154.132V51.8447Z" fill="white" stroke="#FF5C00" stroke-width="2" stroke-linecap="round" stroke-linejoin="round"/>
<path d="M173.683 218.564H154.137V236.964H173.683V218.564Z" fill="white" stroke="#FF5C00" stroke-width="2" stroke-linecap="round" stroke-linejoin="round"/>
<path d="M173.683 237.104H154.137V255.504H173.683V237.104Z" fill="white" stroke="#FF5C00" stroke-width="2" stroke-linecap="round" stroke-linejoin="round"/>
<path d="M173.683 255.785H154.137V274.184H173.683V255.785Z" fill="white" stroke="#FF5C00" stroke-width="2" stroke-linecap="round" stroke-linejoin="round"/>
<path d="M173.683 274.325H154.137V292.725H173.683V274.325Z" fill="white" stroke="#FF5C00" stroke-width="2" stroke-linecap="round" stroke-linejoin="round"/>
<path d="M173.683 293.005H154.137V311.405H173.683V293.005Z" fill="white" stroke="#FF5C00" stroke-width="2" stroke-linecap="round" stroke-linejoin="round"/>
<path d="M173.683 311.686H154.137V330.086H173.683V311.686Z" fill="white" stroke="#FF5C00" stroke-width="2" stroke-linecap="round" stroke-linejoin="round"/>
<path d="M173.683 330.226H154.137V348.625H173.683V330.226Z" fill="white" stroke="#FF5C00" stroke-width="2" stroke-linecap="round" stroke-linejoin="round"/>
<path d="M173.683 348.906H154.137V367.306H173.683V348.906Z" fill="white" stroke="#FF5C00" stroke-width="2" stroke-linecap="round" stroke-linejoin="round"/>
<path d="M173.683 367.587H154.137V385.986H173.683V367.587Z" fill="white" stroke="#FF5C00" stroke-width="2" stroke-linecap="round" stroke-linejoin="round"/>
<path d="M173.683 200.867H154.137V219.266H173.683V200.867Z" fill="white" stroke="#FF5C00" stroke-width="2" stroke-linecap="round" stroke-linejoin="round"/>
<path d="M173.683 182.187H154.137V200.586H173.683V182.187Z" fill="white" stroke="#FF5C00" stroke-width="2" stroke-linecap="round" stroke-linejoin="round"/>
<path d="M173.683 163.506H154.137V181.906H173.683V163.506Z" fill="white" stroke="#FF5C00" stroke-width="2" stroke-linecap="round" stroke-linejoin="round"/>
<path d="M173.683 144.966H154.137V163.366H173.683V144.966Z" fill="white" stroke="#FF5C00" stroke-width="2" stroke-linecap="round" stroke-linejoin="round"/>
<path d="M173.683 126.286H154.137V144.685H173.683V126.286Z" fill="white" stroke="#FF5C00" stroke-width="2" stroke-linecap="round" stroke-linejoin="round"/>
<path d="M173.683 107.605H154.137V126.005H173.683V107.605Z" fill="white" stroke="#FF5C00" stroke-width="2" stroke-linecap="round" stroke-linejoin="round"/>
<path d="M173.683 89.0654H154.137V107.465H173.683V89.0654Z" fill="white" stroke="#FF5C00" stroke-width="2" stroke-linecap="round" stroke-linejoin="round"/>
<path d="M173.683 70.3848H154.137V88.7843H173.683V70.3848Z" fill="white" stroke="#FF5C00" stroke-width="2" stroke-linecap="round" stroke-linejoin="round"/>
<path d="M173.683 51.8447H154.137V70.2443H173.683V51.8447Z" fill="white" stroke="#FF5C00" stroke-width="2" stroke-linecap="round" stroke-linejoin="round"/>
<path d="M134.589 51.002H115.043V386.689H134.589V51.002Z" fill="white" stroke="#FF5C00" stroke-width="2" stroke-linecap="round" stroke-linejoin="round"/>
<path d="M134.589 218.564H115.043V236.964H134.589V218.564Z" fill="white" stroke="#FF5C00" stroke-width="2" stroke-linecap="round" stroke-linejoin="round"/>
<path d="M134.589 237.104H115.043V255.504H134.589V237.104Z" fill="white" stroke="#FF5C00" stroke-width="2" stroke-linecap="round" stroke-linejoin="round"/>
<path d="M134.589 255.785H115.043V274.184H134.589V255.785Z" fill="white" stroke="#FF5C00" stroke-width="2" stroke-linecap="round" stroke-linejoin="round"/>
<path d="M134.589 274.325H115.043V292.725H134.589V274.325Z" fill="white" stroke="#FF5C00" stroke-width="2" stroke-linecap="round" stroke-linejoin="round"/>
<path d="M134.589 293.005H115.043V311.405H134.589V293.005Z" fill="white" stroke="#FF5C00" stroke-width="2" stroke-linecap="round" stroke-linejoin="round"/>
<path d="M134.589 311.686H115.043V330.086H134.589V311.686Z" fill="white" stroke="#FF5C00" stroke-width="2" stroke-linecap="round" stroke-linejoin="round"/>
<path d="M134.589 330.226H115.043V348.625H134.589V330.226Z" fill="white" stroke="#FF5C00" stroke-width="2" stroke-linecap="round" stroke-linejoin="round"/>
<path d="M134.589 348.906H115.043V367.306H134.589V348.906Z" fill="white" stroke="#FF5C00" stroke-width="2" stroke-linecap="round" stroke-linejoin="round"/>
<path d="M134.589 367.587H115.043V385.986H134.589V367.587Z" fill="white" stroke="#FF5C00" stroke-width="2" stroke-linecap="round" stroke-linejoin="round"/>
<path d="M134.589 200.867H115.043V219.266H134.589V200.867Z" fill="white" stroke="#FF5C00" stroke-width="2" stroke-linecap="round" stroke-linejoin="round"/>
<path d="M134.589 182.187H115.043V200.586H134.589V182.187Z" fill="white" stroke="#FF5C00" stroke-width="2" stroke-linecap="round" stroke-linejoin="round"/>
<path d="M134.589 163.506H115.043V181.906H134.589V163.506Z" fill="white" stroke="#FF5C00" stroke-width="2" stroke-linecap="round" stroke-linejoin="round"/>
<path d="M134.589 144.966H115.043V163.366H134.589V144.966Z" fill="white" stroke="#FF5C00" stroke-width="2" stroke-linecap="round" stroke-linejoin="round"/>
<path d="M134.589 126.286H115.043V144.685H134.589V126.286Z" fill="white" stroke="#FF5C00" stroke-width="2" stroke-linecap="round" stroke-linejoin="round"/>
<path d="M134.589 107.605H115.043V126.005H134.589V107.605Z" fill="white" stroke="#FF5C00" stroke-width="2" stroke-linecap="round" stroke-linejoin="round"/>
<path d="M134.589 89.0654H115.043V107.465H134.589V89.0654Z" fill="white" stroke="#FF5C00" stroke-width="2" stroke-linecap="round" stroke-linejoin="round"/>
<path d="M134.589 70.3848H115.043V88.7843H134.589V70.3848Z" fill="white" stroke="#FF5C00" stroke-width="2" stroke-linecap="round" stroke-linejoin="round"/>
<path d="M134.589 51.8447H115.043V70.2443H134.589V51.8447Z" fill="white" stroke="#FF5C00" stroke-width="2" stroke-linecap="round" stroke-linejoin="round"/>
<path d="M281.675 218.564H262.129V236.964H281.675V218.564Z" fill="white" stroke="#FF5C00" stroke-width="2" stroke-linecap="round" stroke-linejoin="round"/>
<path d="M281.675 237.104H262.129V255.504H281.675V237.104Z" fill="white" stroke="#FF5C00" stroke-width="2" stroke-linecap="round" stroke-linejoin="round"/>
<path d="M281.675 255.784H262.129V274.184H281.675V255.784Z" fill="white" stroke="#FF5C00" stroke-width="2" stroke-linecap="round" stroke-linejoin="round"/>
<path d="M281.675 274.324H262.129V292.724H281.675V274.324Z" fill="white" stroke="#FF5C00" stroke-width="2" stroke-linecap="round" stroke-linejoin="round"/>
<path d="M281.675 293.005H262.129V311.404H281.675V293.005Z" fill="white" stroke="#FF5C00" stroke-width="2" stroke-linecap="round" stroke-linejoin="round"/>
<path d="M281.675 311.686H262.129V330.085H281.675V311.686Z" fill="white" stroke="#FF5C00" stroke-width="2" stroke-linecap="round" stroke-linejoin="round"/>
<path d="M281.675 330.226H262.129V348.625H281.675V330.226Z" fill="white" stroke="#FF5C00" stroke-width="2" stroke-linecap="round" stroke-linejoin="round"/>
<path d="M281.675 348.906H262.129V367.306H281.675V348.906Z" fill="white" stroke="#FF5C00" stroke-width="2" stroke-linecap="round" stroke-linejoin="round"/>
<path d="M281.675 367.586H262.129V385.986H281.675V367.586Z" fill="white" stroke="#FF5C00" stroke-width="2" stroke-linecap="round" stroke-linejoin="round"/>
<path d="M281.675 200.867H262.129V219.266H281.675V200.867Z" fill="white" stroke="#FF5C00" stroke-width="2" stroke-linecap="round" stroke-linejoin="round"/>
<path d="M281.675 182.186H262.129V200.586H281.675V182.186Z" fill="white" stroke="#FF5C00" stroke-width="2" stroke-linecap="round" stroke-linejoin="round"/>
<path d="M281.675 163.506H262.129V181.905H281.675V163.506Z" fill="white" stroke="#FF5C00" stroke-width="2" stroke-linecap="round" stroke-linejoin="round"/>
<path d="M281.675 144.966H262.129V163.365H281.675V144.966Z" fill="white" stroke="#FF5C00" stroke-width="2" stroke-linecap="round" stroke-linejoin="round"/>
<path d="M281.675 126.285H262.129V144.685H281.675V126.285Z" fill="white" stroke="#FF5C00" stroke-width="2" stroke-linecap="round" stroke-linejoin="round"/>
<path d="M281.675 107.605H262.129V126.004H281.675V107.605Z" fill="white" stroke="#FF5C00" stroke-width="2" stroke-linecap="round" stroke-linejoin="round"/>
<path d="M281.675 89.0649H262.129V107.465H281.675V89.0649Z" fill="white" stroke="#FF5C00" stroke-width="2" stroke-linecap="round" stroke-linejoin="round"/>
<path d="M281.675 70.3843H262.129V88.7838H281.675V70.3843Z" fill="white" stroke="#FF5C00" stroke-width="2" stroke-linecap="round" stroke-linejoin="round"/>
<path d="M281.675 52.5466H262.129V70.2439H281.675V52.5466Z" fill="white" stroke="#FF5C00" stroke-width="2" stroke-linecap="round" stroke-linejoin="round"/>
<path d="M301.226 218.564H281.68V236.964H301.226V218.564Z" fill="white" stroke="#FF5C00" stroke-width="2" stroke-linecap="round" stroke-linejoin="round"/>
<path d="M301.226 237.104H281.68V255.504H301.226V237.104Z" fill="white" stroke="#FF5C00" stroke-width="2" stroke-linecap="round" stroke-linejoin="round"/>
<path d="M301.226 255.784H281.68V274.184H301.226V255.784Z" fill="white" stroke="#FF5C00" stroke-width="2" stroke-linecap="round" stroke-linejoin="round"/>
<path d="M301.226 274.324H281.68V292.724H301.226V274.324Z" fill="white" stroke="#FF5C00" stroke-width="2" stroke-linecap="round" stroke-linejoin="round"/>
<path d="M301.226 293.005H281.68V311.404H301.226V293.005Z" fill="white" stroke="#FF5C00" stroke-width="2" stroke-linecap="round" stroke-linejoin="round"/>
<path d="M301.226 311.686H281.68V330.085H301.226V311.686Z" fill="white" stroke="#FF5C00" stroke-width="2" stroke-linecap="round" stroke-linejoin="round"/>
<path d="M301.226 330.226H281.68V348.625H301.226V330.226Z" fill="white" stroke="#FF5C00" stroke-width="2" stroke-linecap="round" stroke-linejoin="round"/>
<path d="M301.226 348.906H281.68V367.306H301.226V348.906Z" fill="white" stroke="#FF5C00" stroke-width="2" stroke-linecap="round" stroke-linejoin="round"/>
<path d="M301.226 367.586H281.68V385.986H301.226V367.586Z" fill="white" stroke="#FF5C00" stroke-width="2" stroke-linecap="round" stroke-linejoin="round"/>
<path d="M301.226 200.867H281.68V219.266H301.226V200.867Z" fill="white" stroke="#FF5C00" stroke-width="2" stroke-linecap="round" stroke-linejoin="round"/>
<path d="M301.226 182.186H281.68V200.586H301.226V182.186Z" fill="white" stroke="#FF5C00" stroke-width="2" stroke-linecap="round" stroke-linejoin="round"/>
<path d="M301.226 163.506H281.68V181.905H301.226V163.506Z" fill="white" stroke="#FF5C00" stroke-width="2" stroke-linecap="round" stroke-linejoin="round"/>
<path d="M301.226 144.966H281.68V163.365H301.226V144.966Z" fill="white" stroke="#FF5C00" stroke-width="2" stroke-linecap="round" stroke-linejoin="round"/>
<path d="M301.226 126.285H281.68V144.685H301.226V126.285Z" fill="white" stroke="#FF5C00" stroke-width="2" stroke-linecap="round" stroke-linejoin="round"/>
<path d="M301.226 107.605H281.68V126.004H301.226V107.605Z" fill="white" stroke="#FF5C00" stroke-width="2" stroke-linecap="round" stroke-linejoin="round"/>
<path d="M301.226 89.0649H281.68V107.465H301.226V89.0649Z" fill="white" stroke="#FF5C00" stroke-width="2" stroke-linecap="round" stroke-linejoin="round"/>
<path d="M301.226 70.3843H281.68V88.7838H301.226V70.3843Z" fill="white" stroke="#FF5C00" stroke-width="2" stroke-linecap="round" stroke-linejoin="round"/>
<path d="M301.226 52.5466H281.68V70.2439H301.226V52.5466Z" fill="white" stroke="#FF5C00" stroke-width="2" stroke-linecap="round" stroke-linejoin="round"/>
<path d="M262.132 52.5466H242.586V386.688H262.132V52.5466Z" fill="white" stroke="#FF5C00" stroke-width="2" stroke-linecap="round" stroke-linejoin="round"/>
<path d="M262.132 218.564H242.586V236.964H262.132V218.564Z" fill="white" stroke="#FF5C00" stroke-width="2" stroke-linecap="round" stroke-linejoin="round"/>
<path d="M262.132 237.104H242.586V255.504H262.132V237.104Z" fill="white" stroke="#FF5C00" stroke-width="2" stroke-linecap="round" stroke-linejoin="round"/>
<path d="M262.132 255.784H242.586V274.184H262.132V255.784Z" fill="white" stroke="#FF5C00" stroke-width="2" stroke-linecap="round" stroke-linejoin="round"/>
<path d="M262.132 274.324H242.586V292.724H262.132V274.324Z" fill="white" stroke="#FF5C00" stroke-width="2" stroke-linecap="round" stroke-linejoin="round"/>
<path d="M262.132 293.005H242.586V311.404H262.132V293.005Z" fill="white" stroke="#FF5C00" stroke-width="2" stroke-linecap="round" stroke-linejoin="round"/>
<path d="M262.132 311.686H242.586V330.085H262.132V311.686Z" fill="white" stroke="#FF5C00" stroke-width="2" stroke-linecap="round" stroke-linejoin="round"/>
<path d="M262.132 330.226H242.586V348.625H262.132V330.226Z" fill="white" stroke="#FF5C00" stroke-width="2" stroke-linecap="round" stroke-linejoin="round"/>
<path d="M262.132 348.906H242.586V367.306H262.132V348.906Z" fill="white" stroke="#FF5C00" stroke-width="2" stroke-linecap="round" stroke-linejoin="round"/>
<path d="M262.132 367.586H242.586V385.986H262.132V367.586Z" fill="white" stroke="#FF5C00" stroke-width="2" stroke-linecap="round" stroke-linejoin="round"/>
<path d="M262.132 200.867H242.586V219.266H262.132V200.867Z" fill="white" stroke="#FF5C00" stroke-width="2" stroke-linecap="round" stroke-linejoin="round"/>
<path d="M262.132 182.186H242.586V200.586H262.132V182.186Z" fill="white" stroke="#FF5C00" stroke-width="2" stroke-linecap="round" stroke-linejoin="round"/>
<path d="M262.132 163.506H242.586V181.905H262.132V163.506Z" fill="white" stroke="#FF5C00" stroke-width="2" stroke-linecap="round" stroke-linejoin="round"/>
<path d="M262.132 144.966H242.586V163.365H262.132V144.966Z" fill="white" stroke="#FF5C00" stroke-width="2" stroke-linecap="round" stroke-linejoin="round"/>
<path d="M262.132 126.285H242.586V144.685H262.132V126.285Z" fill="white" stroke="#FF5C00" stroke-width="2" stroke-linecap="round" stroke-linejoin="round"/>
<path d="M262.132 107.605H242.586V126.004H262.132V107.605Z" fill="white" stroke="#FF5C00" stroke-width="2" stroke-linecap="round" stroke-linejoin="round"/>
<path d="M262.132 89.0649H242.586V107.465H262.132V89.0649Z" fill="white" stroke="#FF5C00" stroke-width="2" stroke-linecap="round" stroke-linejoin="round"/>
<path d="M262.132 70.3843H242.586V88.7838H262.132V70.3843Z" fill="white" stroke="#FF5C00" stroke-width="2" stroke-linecap="round" stroke-linejoin="round"/>
<path d="M262.132 52.5466H242.586V70.2439H262.132V52.5466Z" fill="white" stroke="#FF5C00" stroke-width="2" stroke-linecap="round" stroke-linejoin="round"/>
<path d="M297.705 28.8101H237.801V45.5242H297.705V28.8101Z" fill="white" stroke="#FF5C00" stroke-width="2" stroke-linecap="round" stroke-linejoin="round"/>
<path d="M297.705 28.8101H242.582V45.5242H297.705V28.8101Z" fill="white" stroke="#FF5C00" stroke-width="2" stroke-linecap="round" stroke-linejoin="round"/>
<path d="M304.876 17.8543V21.0848C304.876 25.5794 301.22 29.0907 296.72 29.0907H239.629C235.129 29.0907 231.473 25.2984 231.473 20.8039V17.7139H304.876V17.8543Z" fill="white" stroke="#FF5C00" stroke-width="2" stroke-linecap="round" stroke-linejoin="round"/>
<path d="M14.0776 385.705H1V451.719H14.0776H396V385.705H14.0776Z" fill="white" stroke="#FF5C00" stroke-width="2" stroke-linecap="round" stroke-linejoin="round"/>
<path d="M135.152 411.549H36.4375V451.719H135.152V411.549Z" fill="white" stroke="#FF5C00" stroke-width="2" stroke-linecap="round" stroke-linejoin="round"/>
<path d="M135.152 411.549H36.4375V426.999H135.152V411.549Z" fill="white" stroke="#FF5C00" stroke-width="2" stroke-linecap="round" stroke-linejoin="round"/>
<path d="M256.93 411.549H158.215V451.719H256.93V411.549Z" fill="white" stroke="#FF5C00" stroke-width="2" stroke-linecap="round" stroke-linejoin="round"/>
<path d="M378.703 411.549H279.988V451.719H378.703V411.549Z" fill="white" stroke="#FF5C00" stroke-width="2" stroke-linecap="round" stroke-linejoin="round"/>
<path d="M349.877 51.4231H301.223V385.565H349.877V51.4231Z" fill="white" stroke="#FF5C00" stroke-width="2" stroke-linecap="round" stroke-linejoin="round"/>
<path d="M235.691 45.6646H341.999C345.937 45.6646 349.312 48.4736 350.015 52.2659H227.676C228.379 48.4736 231.613 45.6646 235.691 45.6646Z" fill="white" stroke="#FF5C00" stroke-width="2" stroke-linecap="round" stroke-linejoin="round"/>
<path d="M234.427 1H165.382L156.242 14.905V51.8446H173.538V385.705H242.582V14.6241L234.427 1Z" fill="white" stroke="#FF5C00" stroke-width="2" stroke-linecap="round" stroke-linejoin="round"/>
<path d="M79.3236 51.4231H64.5586H64.2773V385.705H64.5586H79.3236H115.041V51.4231H79.3236Z" fill="white" stroke="#FF5C00" stroke-width="2" stroke-linecap="round" stroke-linejoin="round"/>
<path d="M217.835 14.4837L210.663 1H191.117L198.289 14.6241V33.0237V51.4232H217.835V33.0237V14.4837Z" fill="white" stroke="#FF5C00" stroke-width="2" stroke-linecap="round" stroke-linejoin="round"/>
<path d="M63.9995 51.4232C63.1557 48.4736 61.6089 45.6646 57.6716 45.6646C53.8749 45.6646 52.1874 48.4736 51.3437 51.4232L50.9219 385.565H63.9995V51.4232Z" fill="white" stroke="#FF5C00" stroke-width="2" stroke-linecap="round" stroke-linejoin="round"/>
<path d="M57.8086 45.8052C61.7459 45.8052 63.2928 48.6143 64.1365 51.5639V52.2661H173.538C172.835 48.4739 169.601 45.6648 165.523 45.6648H59.2148C58.7929 45.6648 58.2305 45.6648 57.8086 45.8052Z" fill="white" stroke="#FF5C00" stroke-width="2" stroke-linecap="round" stroke-linejoin="round"/>
<path d="M159.619 28.8101H99.7148V45.5242H159.619V28.8101Z" fill="white" stroke="#FF5C00" stroke-width="2" stroke-linecap="round" stroke-linejoin="round"/>
<path d="M77.214 28.8101H57.1055V45.5242H77.214V28.8101Z" fill="white" stroke="#FF5C00" stroke-width="2" stroke-linecap="round" stroke-linejoin="round"/>
<path d="M83.9674 17.8543V21.0848C83.9674 25.5794 80.3113 29.0907 75.8115 29.0907H58.0935C53.5937 29.0907 49.9375 25.2984 49.9375 20.8039V17.7139H83.9674V17.8543Z" fill="white" stroke="#FF5C00" stroke-width="2" stroke-linecap="round" stroke-linejoin="round"/>
<path d="M341.722 28.8101H321.613V45.5242H341.722V28.8101Z" fill="white" stroke="#FF5C00" stroke-width="2" stroke-linecap="round" stroke-linejoin="round"/>
<path d="M348.467 17.8543V21.0848C348.467 25.5794 344.811 29.0907 340.311 29.0907H322.593C318.094 29.0907 314.438 25.2984 314.438 20.8039V17.7139H348.467V17.8543Z" fill="white" stroke="#FF5C00" stroke-width="2" stroke-linecap="round" stroke-linejoin="round"/>
<path d="M166.79 17.8543V21.0848C166.79 25.5794 163.134 29.0907 158.634 29.0907H101.543C97.0428 29.0907 93.3867 25.2984 93.3867 20.8039V17.7139H166.79V17.8543Z" fill="white" stroke="#FF5C00" stroke-width="2" stroke-linecap="round" stroke-linejoin="round"/>
<path d="M198.289 14.624H217.835" stroke="#FF5C00" stroke-width="2" stroke-linecap="round" stroke-linejoin="round"/>
<path d="M173.535 52.266V14.6241L165.379 1" stroke="#FF5C00" stroke-width="2" stroke-linecap="round" stroke-linejoin="round"/>
<path d="M217.835 63.6431H198.289V101.144H217.835V63.6431Z" fill="white" stroke="#FF5C00" stroke-width="2" stroke-linecap="round" stroke-linejoin="round"/>
<path d="M212.351 70.2444L204.477 77.8289" stroke="#FF5C00" stroke-width="2" stroke-linecap="round" stroke-linejoin="round"/>
<path d="M213.339 75.5818L203.355 85.5541" stroke="#FF5C00" stroke-width="2" stroke-linecap="round" stroke-linejoin="round"/>
<path d="M217.835 108.026H198.289V145.528H217.835V108.026Z" fill="white" stroke="#FF5C00" stroke-width="2" stroke-linecap="round" stroke-linejoin="round"/>
<path d="M212.351 114.628L204.477 122.212" stroke="#FF5C00" stroke-width="2" stroke-linecap="round" stroke-linejoin="round"/>
<path d="M213.339 120.106L203.355 130.078" stroke="#FF5C00" stroke-width="2" stroke-linecap="round" stroke-linejoin="round"/>
<path d="M217.835 152.41H198.289V189.912H217.835V152.41Z" fill="white" stroke="#FF5C00" stroke-width="2" stroke-linecap="round" stroke-linejoin="round"/>
<path d="M212.351 159.152L204.477 166.596" stroke="#FF5C00" stroke-width="2" stroke-linecap="round" stroke-linejoin="round"/>
<path d="M213.339 164.489L203.355 174.461" stroke="#FF5C00" stroke-width="2" stroke-linecap="round" stroke-linejoin="round"/>
<path d="M217.835 196.934H198.289V234.436H217.835V196.934Z" fill="white" stroke="#FF5C00" stroke-width="2" stroke-linecap="round" stroke-linejoin="round"/>
<path d="M212.351 203.536L204.477 211.12" stroke="#FF5C00" stroke-width="2" stroke-linecap="round" stroke-linejoin="round"/>
<path d="M213.339 208.873L203.355 218.845" stroke="#FF5C00" stroke-width="2" stroke-linecap="round" stroke-linejoin="round"/>
<path d="M217.835 241.318H198.289V278.82H217.835V241.318Z" fill="white" stroke="#FF5C00" stroke-width="2" stroke-linecap="round" stroke-linejoin="round"/>
<path d="M212.351 247.919L204.477 255.504" stroke="#FF5C00" stroke-width="2" stroke-linecap="round" stroke-linejoin="round"/>
<path d="M213.339 253.397L203.355 263.37" stroke="#FF5C00" stroke-width="2" stroke-linecap="round" stroke-linejoin="round"/>
<path d="M217.835 285.701H198.289V323.203H217.835V285.701Z" fill="white" stroke="#FF5C00" stroke-width="2" stroke-linecap="round" stroke-linejoin="round"/>
<path d="M212.351 292.303L204.477 299.887" stroke="#FF5C00" stroke-width="2" stroke-linecap="round" stroke-linejoin="round"/>
<path d="M213.339 297.781L203.355 307.753" stroke="#FF5C00" stroke-width="2" stroke-linecap="round" stroke-linejoin="round"/>
<path d="M217.835 330.226H198.289V367.727H217.835V330.226Z" fill="white" stroke="#FF5C00" stroke-width="2" stroke-linecap="round" stroke-linejoin="round"/>
<path d="M212.351 336.827L204.477 344.271" stroke="#FF5C00" stroke-width="2" stroke-linecap="round" stroke-linejoin="round"/>
<path d="M213.339 342.164L203.355 352.137" stroke="#FF5C00" stroke-width="2" stroke-linecap="round" stroke-linejoin="round"/>
<path d="M212.351 70.2441L204.477 77.8287" stroke="#FF5C00" stroke-width="2" stroke-linecap="round" stroke-linejoin="round"/>
<path d="M213.336 75.5815L203.352 85.5538" stroke="#FF5C00" stroke-width="2" stroke-linecap="round" stroke-linejoin="round"/>
<path d="M212.351 23.6133L204.477 31.0574" stroke="#FF5C00" stroke-width="2" stroke-linecap="round" stroke-linejoin="round"/>
<path d="M213.336 28.9504L203.352 38.9227" stroke="#FF5C00" stroke-width="2" stroke-linecap="round" stroke-linejoin="round"/>
<path d="M256.93 411.549H158.215V426.999H256.93V411.549Z" fill="white" stroke="#FF5C00" stroke-width="2" stroke-linecap="round" stroke-linejoin="round"/>
<path d="M378.703 411.549H279.988V426.999H378.703V411.549Z" fill="white" stroke="#FF5C00" stroke-width="2" stroke-linecap="round" stroke-linejoin="round"/>
<path d="M89.5893 91.4528C97.1225 91.4528 103.229 85.3531 103.229 77.8287C103.229 70.3043 97.1225 64.2046 89.5893 64.2046C82.0561 64.2046 75.9492 70.3043 75.9492 77.8287C75.9492 85.3531 82.0561 91.4528 89.5893 91.4528Z" fill="white" stroke="#FF5C00" stroke-width="2" stroke-linecap="round" stroke-linejoin="round"/>
<path d="M325.55 91.4528C333.083 91.4528 339.19 85.3531 339.19 77.8287C339.19 70.3043 333.083 64.2046 325.55 64.2046C318.017 64.2046 311.91 70.3043 311.91 77.8287C311.91 85.3531 318.017 91.4528 325.55 91.4528Z" fill="white" stroke="#FF5C00" stroke-width="2" stroke-linecap="round" stroke-linejoin="round"/>
<path d="M18.9993 385.705H1V452H18.9993V385.705Z" fill="white" stroke="#FF5C00" stroke-width="2" stroke-linecap="round" stroke-linejoin="round"/>
</svg>
