<svg width="344" height="146" viewBox="0 0 344 146" fill="none" xmlns="http://www.w3.org/2000/svg">
<path d="M307.275 143.079V119.914H245.453V98.0139L290.123 2.91919H316.771L272.1 98.0139H307.275V61.5139H330.918V98.0139H343.999V119.914H330.918V143.079H307.275Z" fill="#111111"/>
<path d="M171.983 146C162.099 146 153.378 143.891 145.82 139.673C138.262 135.391 132.351 129.453 128.087 121.861C123.889 114.269 121.789 105.509 121.789 95.5813V50.4187C121.789 40.4907 123.889 31.7307 128.087 24.1387C132.351 16.5467 138.262 10.6418 145.82 6.424C153.378 2.14133 162.099 0 171.983 0C181.866 0 190.555 2.14133 198.048 6.424C205.607 10.6418 211.517 16.5467 215.781 24.1387C220.044 31.7307 222.176 40.4907 222.176 50.4187V95.5813C222.176 105.509 220.044 114.269 215.781 121.861C211.517 129.453 205.607 135.391 198.048 139.673C190.555 143.891 181.866 146 171.983 146ZM171.983 123.711C176.892 123.711 181.35 122.543 185.355 120.207C189.36 117.806 192.525 114.626 194.851 110.668C197.176 106.645 198.339 102.168 198.339 97.236V48.6667C198.339 43.6702 197.176 39.1929 194.851 35.2347C192.525 31.2115 189.36 28.032 185.355 25.696C181.35 23.2951 176.892 22.0947 171.983 22.0947C167.073 22.0947 162.616 23.2951 158.611 25.696C154.605 28.032 151.44 31.2115 149.115 35.2347C146.789 39.1929 145.626 43.6702 145.626 48.6667V97.236C145.626 102.168 146.789 106.645 149.115 110.668C151.44 114.626 154.605 117.806 158.611 120.207C162.616 122.543 167.073 123.711 171.983 123.711Z" fill="#111111"/>
<path d="M61.8214 143.079V119.914H0V98.0139L44.6704 2.91919H71.3175L26.6472 98.0139H61.8214V61.5139H85.4648V98.0139H98.5461V119.914H85.4648V143.079H61.8214Z" fill="#111111"/>
</svg>
