<svg width="196" height="69" viewBox="0 0 196 69" fill="none" xmlns="http://www.w3.org/2000/svg">
<g id="Group 3798">
<g id="Group 3793">
<g id="&#208;&#179;&#209;&#128;&#209;&#131;&#208;&#191;&#208;&#191;">
<path d="M82.4551 56.9078V46.1987H90.0847V47.3248H83.874V56.9078H82.4551Z" fill="white"/>
<path d="M92.3365 60.8824V46.1987H93.7554V48.2081C94.0966 47.5309 94.6083 46.9936 95.2907 46.5962C95.9885 46.1987 96.7949 46 97.7098 46C98.7178 46 99.594 46.2282 100.338 46.6845C101.098 47.1408 101.68 47.7812 102.083 48.6055C102.502 49.4299 102.711 50.4088 102.711 51.5422C102.711 52.6757 102.502 53.662 102.083 54.501C101.68 55.3254 101.098 55.9657 100.338 56.4221C99.594 56.8637 98.7178 57.0845 97.7098 57.0845C96.7949 57.0845 95.9885 56.8931 95.2907 56.5104C94.6083 56.1277 94.0966 55.5977 93.7554 54.9206V60.8824H92.3365ZM97.5005 55.9584C98.648 55.9584 99.563 55.5756 100.245 54.8102C100.928 54.03 101.269 52.9407 101.269 51.5422C101.269 50.1438 100.928 49.0618 100.245 48.2964C99.563 47.5309 98.648 47.1482 97.5005 47.1482C96.3529 47.1482 95.438 47.5309 94.7557 48.2964C94.0733 49.0618 93.7322 50.1438 93.7322 51.5422C93.7322 52.9407 94.0733 54.03 94.7557 54.8102C95.438 55.5756 96.3529 55.9584 97.5005 55.9584Z" fill="white"/>
<path d="M107.204 60.8824L109.065 56.8637L104.273 46.1987H105.855L109.832 55.4284L113.856 46.1987H115.392L108.739 60.8824H107.204Z" fill="white"/>
<path d="M117.778 56.9078V46.1987H127.222V56.9078H125.803V47.3028H119.197V56.9078H117.778Z" fill="white"/>
<path d="M131.135 56.9078V46.1987H140.579V56.9078H139.16V47.3028H132.554V56.9078H131.135Z" fill="white"/>
</g>
<path id="Vector" d="M24.965 41.0178C28.4763 41.0178 31.3226 38.0995 31.3226 34.4994C31.3226 30.8993 28.4763 27.981 24.965 27.981C21.4538 27.981 18.6074 30.8993 18.6074 34.4994C18.6074 38.0995 21.4538 41.0178 24.965 41.0178Z" fill="#FF5C00"/>
<path id="Vector_2" fill-rule="evenodd" clip-rule="evenodd" d="M11.1916 66.2572C15.377 68.0859 19.8835 69.0191 24.434 68.9997C33.2912 68.8843 41.7471 65.1983 47.9704 58.7409C54.1941 52.2835 57.6836 43.5746 57.6836 34.5C57.6836 25.4253 54.1941 16.716 47.9704 10.2586C41.7471 3.80125 33.2912 0.115629 24.434 0.000204414C19.8571 -0.0160122 15.3262 0.932814 11.1227 2.78723C6.91924 4.64197 3.13321 7.36288 0 10.7808L3.96125 14.6317C7.84094 10.4415 12.8576 7.53807 18.3632 6.29639C23.8692 5.0547 29.6119 5.53165 34.8505 7.66557C40.0895 9.79948 44.5839 13.4924 47.7543 18.2684C50.9247 23.0443 52.6254 28.6836 52.6372 34.4593C52.6493 40.2349 50.9715 45.8818 47.821 50.6711C44.6701 55.4607 40.1909 59.1731 34.9609 61.3296C29.7309 63.486 23.9902 63.9878 18.4795 62.77C12.9686 61.5521 7.94018 58.6703 4.04312 54.4966L0.0927314 58.3645C3.22905 61.7426 7.00577 64.4282 11.1916 66.2572ZM98.7038 10.0386L101.419 7.3829C100.292 6.03882 98.9485 5.00192 97.3879 4.27313C95.8364 3.54402 94.2203 3.17961 92.5397 3.17961C90.5636 3.17961 88.7165 3.67184 86.999 4.6566C85.2905 5.64105 83.9746 6.94283 83.0511 8.56163C82.1368 10.1804 81.6797 12.0313 81.6797 14.1141C81.6797 17.3329 82.6864 19.9743 84.6994 22.0383C86.7217 24.0927 89.3169 25.1197 92.4842 25.1197C94.202 25.1197 95.7303 24.831 97.0691 24.2536C98.4082 23.6666 99.8305 22.6205 101.336 21.1152L98.7038 18.3034C97.5864 19.4395 96.5614 20.2252 95.6286 20.6608C94.696 21.0869 93.6664 21.2996 92.5397 21.2996C91.2192 21.2996 90.0187 20.9921 88.9382 20.3765C87.8577 19.7613 87.0219 18.9142 86.4308 17.8347C85.84 16.7555 85.5445 15.5201 85.5445 14.1284C85.5445 12.1309 86.2094 10.4504 87.5392 9.08723C88.878 7.72376 90.522 7.04235 92.4702 7.04235C94.7791 7.04235 96.8567 8.0411 98.7038 10.0386ZM69.0467 3.7049H65.1267V24.5945H69.0467V15.3211L75.3354 24.5945H79.9343L72.1219 13.0209L79.2418 3.7049H74.5737L69.0467 10.8905V3.7049ZM104.812 3.7049H119.482V24.5945H115.562V7.42552H108.746V24.5945H104.812V3.7049ZM135.273 3.7049H124.15V24.5945H135.273V20.6891H128.001V15.1936H135.273V11.3735H128.001V7.59593H135.273V3.7049ZM138.888 3.7049H143.002C145.228 3.7049 146.83 3.91794 147.809 4.34403C148.797 4.76057 149.573 5.44232 150.136 6.38892C150.708 7.3263 150.995 8.45287 150.995 9.76864C150.995 11.2266 150.621 12.4384 149.873 13.404C149.134 14.3697 148.127 15.0419 146.853 15.4206C146.105 15.6384 144.743 15.7472 142.767 15.7472V24.5945H138.888V3.7049ZM142.767 11.8704H144C144.969 11.8704 145.643 11.7995 146.022 11.6574C146.401 11.5156 146.696 11.2835 146.908 10.9617C147.13 10.6304 147.241 10.2326 147.241 9.76864C147.241 8.96417 146.936 8.37721 146.327 8.00772C145.883 7.73331 145.062 7.59593 143.861 7.59593H142.767V11.8704ZM164.057 3.7049H152.796V7.62456H156.411V24.5945H160.345V7.62456H164.057V3.7049Z" fill="url(#paint0_linear_233_21)"/>
<path id="Vector_3" d="M170.148 31.0024L27.7441 31.8406L27.8235 36.3298L170.228 35.4919L170.148 31.0024Z" fill="white"/>
<path id="Vector_4" d="M170.796 33.19L179.878 24.172L179.873 24.1663L173.454 24.2839L164.367 33.3077L173.754 41.9727L180.184 41.8551L170.796 33.19Z" fill="white"/>
<path id="Vector_5" d="M30.9292 34.1379L40.0107 25.1256V25.1199L33.5926 25.2432L24.5 34.2613L33.8872 42.9264L40.3165 42.8087L30.9292 34.1379Z" fill="white"/>
<path id="Vector_6" d="M178.553 33.1843L187.632 24.172L187.627 24.1663L181.211 24.2839L172.121 33.3023L181.505 41.9727L187.938 41.8551L178.553 33.1843Z" fill="white"/>
<path id="Vector_7" d="M186.611 32.8712L195.695 23.8531L195.689 23.8474L189.273 23.9651L180.184 32.9888L189.568 41.6539L196 41.5362L186.611 32.8712Z" fill="white"/>
</g>
</g>
<defs>
<linearGradient id="paint0_linear_233_21" x1="82.0286" y1="-0.00011356" x2="82.0286" y2="69" gradientUnits="userSpaceOnUse">
<stop stop-color="#FF5C00"/>
<stop offset="1" stop-color="#FF5C00"/>
</linearGradient>
</defs>
</svg>
