<svg width="145" height="51" viewBox="0 0 145 51" fill="none" xmlns="http://www.w3.org/2000/svg">
<g id="Group 3793">
<g id="&#208;&#179;&#209;&#128;&#209;&#131;&#208;&#191;&#208;&#191;">
<path d="M61 42.0623V34.1469H66.6444V34.9792H62.0497V42.0623H61Z" fill="#111111"/>
<path d="M68.3102 45V34.1469H69.3599V35.632C69.6123 35.1316 69.9909 34.7344 70.4957 34.4407C71.012 34.1469 71.6085 34 72.2854 34C73.0311 34 73.6793 34.1686 74.2299 34.5059C74.7921 34.8432 75.2223 35.3165 75.5206 35.9258C75.8303 36.5351 75.9852 37.2587 75.9852 38.0964C75.9852 38.9342 75.8303 39.6632 75.5206 40.2834C75.2223 40.8927 74.7921 41.366 74.2299 41.7033C73.6793 42.0297 73.0311 42.1929 72.2854 42.1929C71.6085 42.1929 71.012 42.0514 70.4957 41.7685C69.9909 41.4857 69.6123 41.094 69.3599 40.5935V45H68.3102ZM72.1305 41.3605C72.9795 41.3605 73.6563 41.0776 74.1611 40.5119C74.6659 39.9352 74.9183 39.1301 74.9183 38.0964C74.9183 37.0628 74.6659 36.2631 74.1611 35.6973C73.6563 35.1316 72.9795 34.8487 72.1305 34.8487C71.2816 34.8487 70.6047 35.1316 70.0999 35.6973C69.5951 36.2631 69.3427 37.0628 69.3427 38.0964C69.3427 39.1301 69.5951 39.9352 70.0999 40.5119C70.6047 41.0776 71.2816 41.3605 72.1305 41.3605Z" fill="#111111"/>
<path d="M79.309 45L80.6857 42.0297L77.1407 34.1469H78.3109L81.2535 40.9688L84.2306 34.1469H85.3663L80.4447 45H79.309Z" fill="#111111"/>
<path d="M87.132 42.0623V34.1469H94.1186V42.0623H93.0689V34.9629H88.1817V42.0623H87.132Z" fill="#111111"/>
<path d="M97.0134 42.0623V34.1469H104V42.0623H102.95V34.9629H98.0631V42.0623H97.0134Z" fill="#111111"/>
</g>
<path id="Vector" d="M18.4689 30.3176C21.0666 30.3176 23.1723 28.1606 23.1723 25.4996C23.1723 22.8387 21.0666 20.6816 18.4689 20.6816C15.8713 20.6816 13.7656 22.8387 13.7656 25.4996C13.7656 28.1606 15.8713 30.3176 18.4689 30.3176Z" fill="#FF5C00"/>
<path id="Vector_2" fill-rule="evenodd" clip-rule="evenodd" d="M8.27945 48.9727C11.3758 50.3243 14.7097 51.0141 18.0761 50.9998C24.6287 50.9145 30.8843 48.1901 35.4883 43.4172C40.0925 38.6444 42.674 32.2073 42.674 25.5C42.674 18.7926 40.0925 12.3553 35.4883 7.58248C30.8843 2.80962 24.6287 0.0854646 18.0761 0.000151088C14.6902 -0.0118351 11.3382 0.689471 8.22852 2.06013C5.11882 3.43102 2.31793 5.44213 0 7.96839L2.93052 10.8148C5.80069 7.71761 9.51195 5.57162 13.585 4.65385C17.6583 3.73608 21.9067 4.08861 25.7822 5.66585C29.658 7.2431 32.9829 9.97267 35.3284 13.5027C37.6738 17.0328 38.932 21.2009 38.9407 25.4699C38.9497 29.7388 37.7085 33.9126 35.3777 37.4525C33.0467 40.9927 29.733 43.7366 25.8639 45.3305C21.9948 46.9245 17.7478 47.2953 13.6711 46.3952C9.59409 45.4951 5.8741 43.365 2.99108 40.2801L0.0686022 43.1389C2.38883 45.6358 5.18283 47.6208 8.27945 48.9727ZM73.0205 7.41984L75.029 5.45692C74.1955 4.46348 73.2016 3.69707 72.0471 3.1584C70.8992 2.61949 69.7037 2.35015 68.4604 2.35015C66.9985 2.35015 65.632 2.71397 64.3614 3.44184C63.0975 4.16947 62.124 5.13166 61.4407 6.32816C60.7644 7.52467 60.4262 8.89273 60.4262 10.4321C60.4262 12.8113 61.1709 14.7636 62.6602 16.2892C64.1563 17.8076 66.0762 18.5668 68.4193 18.5668C69.6901 18.5668 70.8208 18.3534 71.8112 17.9266C72.8019 17.4927 73.8541 16.7195 74.9675 15.6069L73.0205 13.5286C72.1939 14.3683 71.4357 14.949 70.7455 15.271C70.0556 15.586 69.2939 15.7432 68.4604 15.7432C67.4835 15.7432 66.5954 15.5159 65.796 15.0609C64.9967 14.6062 64.3784 13.98 63.9411 13.1821C63.504 12.3845 63.2854 11.4714 63.2854 10.4427C63.2854 8.96629 63.7773 7.72419 64.7611 6.71665C65.7515 5.70887 66.9677 5.20522 68.409 5.20522C70.1171 5.20522 71.6541 5.94342 73.0205 7.41984ZM51.0804 2.7384H48.1804V18.1785H51.0804V11.3243L55.7328 18.1785H59.135L53.3554 9.62413L58.6227 2.7384H55.1693L51.0804 8.04947V2.7384ZM77.5396 2.7384H88.3919V18.1785H85.4919V5.48842H80.45V18.1785H77.5396V2.7384ZM100.074 2.7384H91.8453V18.1785H100.074V15.2919H94.6942V11.23H100.074V8.40647H94.6942V5.61439H100.074V2.7384ZM102.749 2.7384H105.792C107.439 2.7384 108.624 2.89587 109.348 3.2108C110.079 3.51868 110.653 4.02258 111.07 4.72225C111.493 5.41509 111.705 6.24778 111.705 7.2203C111.705 8.29788 111.429 9.19357 110.875 9.90734C110.329 10.6211 109.584 11.1179 108.641 11.3979C108.088 11.5588 107.08 11.6392 105.618 11.6392V18.1785H102.749V2.7384ZM105.618 8.7738H106.53C107.247 8.7738 107.746 8.7214 108.026 8.61634C108.306 8.51152 108.525 8.33996 108.682 8.10211C108.846 7.85722 108.928 7.5632 108.928 7.2203C108.928 6.62569 108.703 6.19185 108.252 5.91875C107.924 5.71593 107.316 5.61439 106.428 5.61439H105.618V8.7738ZM121.369 2.7384H113.037V5.63554H115.712V18.1785H118.622V5.63554H121.369V2.7384Z" fill="url(#paint0_linear_228_1724)"/>
<path id="Vector_3" d="M125.875 22.9148L20.5254 23.5343L20.5841 26.8524L125.934 26.2331L125.875 22.9148Z" fill="#111111"/>
<path id="Vector_4" d="M126.354 24.5318L133.072 17.8663L133.068 17.8621L128.32 17.949L121.598 24.6188L128.542 31.0234L133.299 30.9364L126.354 24.5318Z" fill="#111111"/>
<path id="Vector_5" d="M22.8813 25.2324L29.5997 18.5711V18.5669L24.8517 18.6581L18.125 25.3236L25.0696 31.7282L29.8259 31.6413L22.8813 25.2324Z" fill="#111111"/>
<path id="Vector_6" d="M132.093 24.5276L138.809 17.8663L138.805 17.8621L134.058 17.949L127.334 24.6148L134.276 31.0234L139.035 30.9364L132.093 24.5276Z" fill="#111111"/>
<path id="Vector_7" d="M138.054 24.296L144.774 17.6305L144.77 17.6262L140.023 17.7132L133.299 24.3829L140.241 30.7875L145 30.7006L138.054 24.296Z" fill="#111111"/>
</g>
<defs>
<linearGradient id="paint0_linear_228_1724" x1="60.6843" y1="-8.39358e-05" x2="60.6843" y2="51" gradientUnits="userSpaceOnUse">
<stop stop-color="#FF5C00"/>
<stop offset="1" stop-color="#FF5C00"/>
</linearGradient>
</defs>
</svg>
