<svg width="100" height="100" viewBox="0 0 100 100" fill="none" xmlns="http://www.w3.org/2000/svg">
<rect opacity="0.1" x="1" y="1" width="98" height="98" rx="1" stroke="#2F80ED" stroke-width="2"/>
<path d="M42.4517 58.698C44.5154 60.2128 47.3829 56.6702 49.9429 56.6828C52.5028 56.6955 55.3354 60.266 57.4138 58.7715C59.4922 57.277 57.0092 53.4551 57.8122 51.0243C58.6152 48.5936 62.8864 47.003 62.1073 44.5645C61.3282 42.126 56.926 43.3064 54.8624 41.7916C52.7987 40.2767 52.6059 35.7231 50.0459 35.7105C47.486 35.6977 47.2484 40.2494 45.17 41.7439C43.0915 43.2384 38.7012 42.0147 37.8981 44.4455C37.0951 46.8762 41.3505 48.5087 42.1295 50.9472C42.9086 53.3857 40.3881 57.1831 42.4517 58.698ZM44.7093 64.9127C47.5381 63.9397 49.0413 64.1568 49.653 65.9351C50.2647 67.7133 48.4674 69.9436 45.6386 70.9167C42.8098 71.8897 40.1954 71.7449 39.7902 70.567C39.385 69.389 41.8805 65.8858 44.7093 64.9127ZM36.9025 61.8435C39.5723 61.764 40.7964 62.3477 40.8463 64.026C40.8963 65.7042 38.7726 67.1292 36.1028 67.2087C33.433 67.2882 31.2425 66.4715 31.2094 65.3598C31.1763 64.248 34.2328 61.923 36.9025 61.8435ZM32.887 55.7638C35.1828 56.3201 36.0905 57.1041 35.7408 58.5473C35.3911 59.9905 33.2465 60.7096 30.9507 60.1533C28.6548 59.5971 26.9772 58.3884 27.2089 57.4324C27.4405 56.4763 30.5911 55.2076 32.887 55.7638Z" fill="#2F80ED"/>
<path d="M32.6064 48.7546C34.5928 50.033 35.1931 51.0714 34.3895 52.3201C33.5859 53.5688 31.3241 53.5447 29.3376 52.2663C27.3512 50.9879 26.1627 49.2959 26.6951 48.4687C27.2275 47.6415 30.6199 47.4762 32.6064 48.7546ZM32.8777 42.1811C34.2087 43.7043 34.4561 44.701 33.4986 45.5377C32.5412 46.3743 30.686 45.8177 29.3551 44.2946C28.0242 42.7714 27.448 41.0973 28.0822 40.5431C28.7165 39.9889 31.5468 40.6579 32.8777 42.1811L32.8777 42.1811ZM35.413 36.1326C36.0263 38.0601 35.8559 39.0729 34.6442 39.4585C33.4326 39.844 31.9531 38.594 31.3398 36.6665C30.7265 34.739 30.8654 32.974 31.668 32.7186C32.4707 32.4632 34.7996 34.2051 35.413 36.1326L35.413 36.1326ZM39.6238 33.0616C39.2725 34.574 38.7629 35.1755 37.8121 34.9547C36.8614 34.7339 36.3754 33.3289 36.7266 31.8164C37.0779 30.304 37.8618 29.1938 38.4916 29.3401C39.1214 29.4863 39.975 31.5492 39.6238 33.0616L39.6238 33.0616ZM44.9742 32.2765C43.7403 33.2191 42.9644 33.3583 42.3719 32.5827C41.7793 31.8071 42.2993 30.4142 43.5331 29.4717C44.767 28.5291 46.0783 28.1722 46.4708 28.686C46.8633 29.1998 46.2081 31.3339 44.9742 32.2765L44.9742 32.2765Z" fill="#A8D0FF"/>
<path d="M55.3163 64.9123C52.4875 63.9392 50.9842 64.1564 50.3725 65.9346C49.7608 67.7128 51.5582 69.9432 54.387 70.9162C57.2158 71.8893 59.8301 71.7445 60.2353 70.5665C60.6405 69.3886 58.145 65.8854 55.3163 64.9123ZM63.123 61.8431C60.4532 61.7635 59.2292 62.3473 59.1792 64.0256C59.1292 65.7038 61.253 67.1288 63.9227 67.2083C66.5925 67.2878 68.783 66.4711 68.8161 65.3594C68.8492 64.2476 65.7928 61.9226 63.123 61.8431ZM67.1386 55.7634C64.8427 56.3197 63.9351 57.1037 64.2848 58.5469C64.6344 59.9901 66.779 60.7091 69.0749 60.1529C71.3707 59.5966 73.0483 58.388 72.8167 57.432C72.585 56.4759 69.4344 55.2072 67.1386 55.7634Z" fill="#2F80ED"/>
<path d="M67.4191 48.7546C65.4327 50.033 64.8324 51.0714 65.636 52.3201C66.4396 53.5688 68.7014 53.5447 70.6879 52.2663C72.6743 50.9879 73.8627 49.2959 73.3304 48.4687C72.798 47.6415 69.4056 47.4762 67.4191 48.7546ZM67.1477 42.1811C65.8168 43.7043 65.5694 44.701 66.5268 45.5377C67.4843 46.3743 69.3394 45.8177 70.6704 44.2946C72.0013 42.7714 72.5775 41.0973 71.9432 40.5431C71.309 39.9889 68.4787 40.6579 67.1477 42.1811V42.1811ZM64.6125 36.1326C63.9992 38.0601 64.1696 39.0729 65.3813 39.4585C66.5929 39.844 68.0723 38.594 68.6857 36.6665C69.299 34.739 69.1601 32.974 68.3574 32.7186C67.5548 32.4632 65.2259 34.2051 64.6125 36.1326L64.6125 36.1326ZM60.4017 33.0616C60.753 34.574 61.2626 35.1755 62.2134 34.9547C63.1641 34.7339 63.6501 33.3289 63.2989 31.8164C62.9476 30.304 62.1637 29.1938 61.5339 29.3401C60.9041 29.4863 60.0505 31.5492 60.4017 33.0616L60.4017 33.0616ZM55.0513 32.2765C56.2852 33.2191 57.0611 33.3583 57.6536 32.5827C58.2461 31.8071 57.7262 30.4142 56.4924 29.4717C55.2585 28.5291 53.9472 28.1722 53.5547 28.686C53.1622 29.1998 53.8174 31.3339 55.0513 32.2765L55.0513 32.2765Z" fill="#A8D0FF"/>
</svg>
