<svg width="100" height="100" viewBox="0 0 100 100" fill="none" xmlns="http://www.w3.org/2000/svg">
<rect opacity="0.1" x="1" y="1" width="98" height="98" rx="1" stroke="#2F80ED" stroke-width="2"/>
<path d="M28.5895 53.9473C27.7776 53.9473 27.3355 53.6104 27.1066 53.3275C26.8816 53.0499 26.6487 52.5578 26.8105 51.7946L30.4 35.0762L28.1447 35.2038H28.1276C27.4487 35.2038 26.9539 34.9841 26.6447 34.6012C26.3566 34.2433 26.2526 33.7841 26.3539 33.3104C26.5526 32.3881 27.5158 31.6196 28.5487 31.5617L33.8224 31.2631C33.9237 31.2565 34.0184 31.2525 34.1066 31.2525C34.3 31.2525 34.8118 31.2525 35.1381 31.6565C35.4697 32.067 35.3566 32.5894 35.3197 32.7604L31.2092 51.9131C30.9631 53.0762 30 53.8723 28.7539 53.942L28.5895 53.9473Z" fill="#2F80ED"/>
<path d="M47.2171 33.2291L47.0368 33.2343C44.4842 33.3804 42.3592 36.2659 41.3526 40.9528C40.725 43.8843 40.8526 46.083 41.7118 47.1462C42.1026 47.6304 42.6553 47.8751 43.3553 47.8751L43.5395 47.8699C46.0921 47.7264 48.2158 44.8422 49.2211 40.1554C49.8513 37.2225 49.725 35.0225 48.8658 33.9607C48.475 33.4751 47.9197 33.2291 47.2171 33.2291ZM42.725 51.3159C40.8316 51.3159 39.2579 50.6067 38.1737 49.2646C36.6434 47.3725 36.2434 44.4607 37.0184 40.8488C38.3763 34.5172 42.5553 30.0764 47.4158 29.8028C49.5079 29.6843 51.2395 30.3975 52.4066 31.8409C53.9368 33.7343 54.3368 36.6449 53.5618 40.258C52.2039 46.587 48.0237 51.0264 43.1618 51.3028C43.0145 51.312 42.8684 51.3159 42.725 51.3159Z" fill="#2F80ED"/>
<path d="M66.9565 31.0712L66.7776 31.0764C64.225 31.2225 62.1 34.108 61.0934 38.7935C60.4644 41.7251 60.5921 43.9264 61.4513 44.9883C61.8421 45.4725 62.3973 45.7185 63.0973 45.7185L63.2815 45.7133C65.8329 45.5699 67.9579 42.6856 68.9631 37.9975C69.5947 35.0672 69.4671 32.8672 68.6092 31.8041C68.2158 31.3172 67.6605 31.0712 66.9565 31.0712ZM62.4684 49.1606C60.5736 49.1606 58.9987 48.4501 57.9131 47.1067C56.3829 45.2133 55.9829 42.3027 56.7579 38.6909C58.1171 32.358 62.296 27.9185 67.1565 27.6449C69.2658 27.5264 70.9776 28.2409 72.1434 29.683C73.6736 31.5777 74.0736 34.4883 73.2986 38.1001C71.9421 44.4277 67.7644 48.8672 62.9013 49.1475C62.7552 49.158 62.6105 49.1606 62.4684 49.1606Z" fill="#2F80ED"/>
<path d="M40.7895 72.3696C39.7237 72.3696 38.721 71.717 38.325 70.6604C37.8145 69.2999 38.5039 67.7841 39.8645 67.2723C40.3092 67.1065 50.9171 63.1828 66.8855 61.8512C68.3355 61.7249 69.6066 62.8065 69.7276 64.2552C69.8474 65.7038 68.771 66.9749 67.3237 67.0959C52.0737 68.367 41.8145 72.163 41.7131 72.2012C41.4092 72.3144 41.096 72.3696 40.7895 72.3696Z" fill="#2F80ED"/>
<path d="M28.95 64.4736C27.8921 64.4736 26.8947 63.8315 26.4921 62.7855C25.971 61.4289 26.6473 59.9065 28.0039 59.3868C28.7171 59.1118 45.7868 52.6421 70.9144 51.3197C72.3789 51.2289 73.6052 52.3578 73.6815 53.8092C73.7579 55.2605 72.6434 56.4986 71.1921 56.5749C46.9513 57.8513 30.0592 64.2342 29.8908 64.2986C29.5816 64.4171 29.2631 64.4736 28.95 64.4736Z" fill="#2F80ED"/>
</svg>
