<svg width="100" height="100" viewBox="0 0 100 100" fill="none" xmlns="http://www.w3.org/2000/svg">
<rect opacity="0.1" x="1" y="1" width="98" height="98" rx="1" stroke="#2F80ED" stroke-width="2"/>
<path d="M50 30.4688C47.3732 30.4688 44.8054 31.2477 42.6213 32.707C40.4372 34.1664 38.735 36.2407 37.7297 38.6675C36.7245 41.0943 36.4615 43.7647 36.974 46.341C37.4864 48.9174 38.7513 51.2838 40.6087 53.1413C42.4662 54.9987 44.8327 56.2636 47.409 56.7761C49.9853 57.2885 52.6557 57.0255 55.0825 56.0203C57.5094 55.0151 59.5836 53.3128 61.043 51.1287C62.5023 48.9446 63.2813 46.3768 63.2813 43.75C63.2773 40.2288 61.8768 36.8529 59.3869 34.3631C56.8971 31.8732 53.5212 30.4727 50 30.4688ZM50.7813 42.9601V39.0758C52.3263 39.0605 53.8356 39.0006 55.2876 38.8971C55.5756 40.1586 55.7491 41.4436 55.8061 42.7364C54.1978 42.8667 52.5106 42.9424 50.7813 42.9601ZM55.8199 44.3023C55.7882 45.664 55.6283 47.0198 55.3422 48.3516C53.8678 48.461 52.3366 48.5253 50.7813 48.5415V44.5225C52.5114 44.5051 54.2027 44.4306 55.8199 44.3023V44.3023ZM50.7813 37.5134V34.9487C51.7588 34.9072 52.729 34.7598 53.6747 34.5089C54.161 35.4204 54.5629 36.3746 54.8752 37.3594C53.5529 37.4475 52.183 37.4993 50.7813 37.5134ZM50 32.0313C51.3676 32.0341 52.7239 32.278 54.0068 32.7518C52.7199 33.2034 51.3638 33.4261 50 33.4099C48.6362 33.4261 47.2801 33.2034 45.9932 32.7518C47.2761 32.278 48.6324 32.0341 50 32.0313ZM46.0231 34.4143C47.0622 34.7236 48.1356 34.9031 49.2188 34.9487V37.5134C47.6945 37.498 46.207 37.4386 44.7787 37.3359C45.1006 36.325 45.5172 35.3468 46.0231 34.4143ZM43.8419 42.7079C43.9005 41.4166 44.0755 40.1333 44.3647 38.8734C45.9219 38.9926 47.5508 39.0594 49.2188 39.0758V42.96C47.3632 42.9411 45.5544 42.8561 43.8419 42.7079ZM49.2188 44.5225V48.5415C47.5372 48.5239 45.8825 48.451 44.2992 48.3248C44.0147 46.9922 43.8564 45.6358 43.8263 44.2734C45.5494 44.4195 47.3621 44.5038 49.2188 44.5225ZM44.176 33.5953C44.2997 33.6742 44.4342 33.7473 44.5702 33.8201C44.0024 34.9004 43.5415 36.0336 43.1942 37.2036C42.2723 37.1137 41.3796 37.0062 40.5271 36.8793C41.4995 35.5408 42.7428 34.4219 44.176 33.5953ZM39.6269 38.3154C40.6337 38.4804 41.6908 38.6201 42.7981 38.7346C42.5208 39.9908 42.349 41.268 42.2845 42.5529C40.9073 42.3972 39.6161 42.1984 38.4326 41.9608C38.626 40.6879 39.0296 39.456 39.6269 38.3154ZM38.2813 43.75C38.2813 43.6747 38.2911 43.6019 38.2926 43.5269C39.5156 43.7663 40.8468 43.9649 42.2594 44.1208C42.278 45.4815 42.4151 46.838 42.6691 48.175C41.3525 48.0351 40.1094 47.8562 38.9603 47.6436C38.5137 46.3939 38.284 45.0771 38.2813 43.75ZM44.176 53.9047C42.3009 52.8277 40.758 51.2559 39.7159 49.3612C40.7663 49.5291 41.8841 49.6685 43.0463 49.7815C43.4091 51.1331 43.9202 52.4405 44.5702 53.6798C44.4342 53.7527 44.2997 53.8259 44.176 53.9047V53.9047ZM49.2188 50.104V52.5513C48.1356 52.5969 47.0622 52.7763 46.0231 53.0856C45.4799 52.078 45.0398 51.0181 44.7096 49.9221C46.1714 50.027 47.6845 50.0882 49.2188 50.104ZM50 55.4688C48.6325 55.4658 47.2761 55.2219 45.9932 54.7482C47.2802 54.2966 48.6362 54.0739 50 54.0901C51.3638 54.0739 52.7198 54.2966 54.0068 54.7482C52.7239 55.2219 51.3676 55.4658 50 55.4688ZM53.6747 52.9911C52.729 52.7402 51.7588 52.5928 50.7813 52.5513V50.104C52.1889 50.0895 53.5807 50.0387 54.9299 49.949C54.6105 51.0011 54.1902 52.0199 53.6747 52.9911ZM55.824 53.9047C55.609 53.7673 55.3858 53.6432 55.1556 53.5332C55.7623 52.3479 56.2432 51.1025 56.5906 49.8171C57.8843 49.6988 59.1242 49.5466 60.2841 49.3613C59.242 51.256 57.6991 52.8277 55.824 53.9047ZM61.7188 43.75C61.716 45.0771 61.4864 46.3939 61.0397 47.6436C59.787 47.8754 58.4188 48.065 56.9704 48.2101C57.2266 46.8744 57.3658 45.5188 57.3866 44.1588C58.9306 43.9977 60.3828 43.7861 61.7075 43.5269C61.7089 43.6019 61.7188 43.6747 61.7188 43.75ZM61.5674 41.9608C60.2841 42.2184 58.8717 42.4294 57.3638 42.5905C57.3015 41.3041 57.1317 40.0252 56.8562 38.7672C58.0871 38.6491 59.2625 38.4974 60.3731 38.3154C60.9704 39.456 61.374 40.6879 61.5674 41.9608ZM56.4618 37.2342C56.1292 36.1067 55.6919 35.0128 55.1556 33.9668C55.3858 33.8568 55.609 33.7327 55.824 33.5953C57.2572 34.4219 58.5005 35.5408 59.4729 36.8793C58.5156 37.0217 57.5054 37.1384 56.4618 37.2342V37.2342Z" fill="#2F80ED"/>
<path d="M71.0938 34.375V32.7015C71.8302 32.5114 72.472 32.0592 72.8989 31.4297C73.3258 30.8002 73.5084 30.0366 73.4126 29.282C73.3168 28.5275 72.949 27.8338 72.3783 27.331C71.8076 26.8282 71.0731 26.5508 70.3125 26.5508C69.5519 26.5508 68.8174 26.8282 68.2467 27.331C67.676 27.8338 67.3083 28.5275 67.2124 29.282C67.1166 30.0366 67.2992 30.8002 67.7261 31.4297C68.153 32.0592 68.7948 32.5114 69.5313 32.7015V33.5937H63.8545C62.4216 31.6337 60.5891 30.0001 58.4781 28.801C56.367 27.6019 54.0254 26.8645 51.6082 26.6376C49.1909 26.4107 46.753 26.6994 44.4556 27.4848C42.1583 28.2701 40.0538 29.5341 38.2813 31.1932V29.6875C38.2813 29.5849 38.2611 29.4833 38.2218 29.3885C38.1826 29.2937 38.125 29.2076 38.0525 29.135C37.9799 29.0624 37.8938 29.0049 37.799 28.9657C37.7042 28.9264 37.6026 28.9062 37.5 28.9062H32.7016C32.5114 28.1698 32.0592 27.528 31.4297 27.1011C30.8002 26.6742 30.0366 26.4916 29.282 26.5874C28.5275 26.6832 27.8338 27.051 27.331 27.6217C26.8282 28.1924 26.5508 28.9269 26.5508 29.6875C26.5508 30.4481 26.8282 31.1826 27.331 31.7533C27.8338 32.324 28.5275 32.6917 29.282 32.7876C30.0366 32.8834 30.8002 32.7008 31.4297 32.2739C32.0592 31.847 32.5114 31.2052 32.7016 30.4687H36.7188V32.8125H36.7517C34.2022 35.8868 32.8087 39.7561 32.8125 43.75C32.931 48.1984 34.2841 52.5263 36.7206 56.25H30.4688V54.5766C31.2052 54.3864 31.847 53.9342 32.2739 53.3047C32.7008 52.6752 32.8834 51.9116 32.7876 51.157C32.6918 50.4025 32.324 49.7088 31.7533 49.206C31.1826 48.7032 30.4481 48.4258 29.6875 48.4258C28.9269 48.4258 28.1924 48.7032 27.6217 49.206C27.051 49.7088 26.6832 50.4025 26.5874 51.157C26.4916 51.9116 26.6742 52.6752 27.1011 53.3047C27.528 53.9342 28.1698 54.3864 28.9063 54.5766V57.0312C28.9062 57.1338 28.9264 57.2354 28.9657 57.3302C29.0049 57.425 29.0625 57.5112 29.135 57.5837C29.2076 57.6563 29.2937 57.7138 29.3885 57.7531C29.4833 57.7923 29.5849 57.8125 29.6875 57.8125H37.811C38.1099 58.2077 38.4159 58.5961 38.7367 58.9683C39.2568 59.5754 39.7116 60.2354 40.0939 60.9375H35.9375C35.8349 60.9375 35.7333 60.9576 35.6385 60.9969C35.5437 61.0362 35.4576 61.0937 35.385 61.1663C35.3125 61.2388 35.2549 61.3249 35.2157 61.4197C35.1764 61.5145 35.1562 61.6161 35.1563 61.7187V67.1875H33.4828C33.2927 66.451 32.8404 65.8092 32.2109 65.3823C31.5814 64.9554 30.8178 64.7728 30.0633 64.8686C29.3087 64.9645 28.6151 65.3322 28.1123 65.9029C27.6094 66.4736 27.332 67.2081 27.332 67.9687C27.332 68.7293 27.6094 69.4638 28.1123 70.0345C28.6151 70.6053 29.3087 70.973 30.0633 71.0688C30.8178 71.1647 31.5814 70.982 32.2109 70.5551C32.8404 70.1283 33.2927 69.4864 33.4828 68.75H35.9375C36.0401 68.75 36.1417 68.7298 36.2365 68.6906C36.3313 68.6513 36.4174 68.5938 36.49 68.5212C36.5625 68.4487 36.6201 68.3625 36.6593 68.2677C36.6986 68.1729 36.7188 68.0713 36.7188 67.9687V62.5H40.8003C41.1952 63.5852 41.4002 64.7303 41.4063 65.8851V66.2346C41.094 66.5117 40.8622 66.8679 40.7352 67.2656C40.6081 67.6633 40.5906 68.0879 40.6844 68.4947C40.7782 68.9016 40.9799 69.2756 41.2682 69.5776C41.5565 69.8795 41.9209 70.0982 42.323 70.2107C42.2358 70.4455 42.1899 70.6937 42.1875 70.9442V71.2433C42.1882 71.8251 42.4197 72.3828 42.8311 72.7942C43.2425 73.2055 43.8003 73.4369 44.3821 73.4375H55.6179C56.1997 73.4369 56.7575 73.2055 57.1689 72.7942C57.5803 72.3828 57.8118 71.8251 57.8125 71.2433V70.9442C57.8101 70.6937 57.7642 70.4455 57.677 70.2107C58.0791 70.0982 58.4435 69.8795 58.7318 69.5776C59.0201 69.2756 59.2218 68.9016 59.3156 68.4947C59.4094 68.0879 59.3919 67.6633 59.2648 67.2656C59.1378 66.8679 58.906 66.5117 58.5938 66.2346V65.8851C58.6273 63.3344 59.5745 60.8802 61.2633 58.9683C61.3685 58.8463 61.4685 58.7184 61.5714 58.5937H64.0625V66.4062C64.0625 66.5088 64.0827 66.6104 64.1219 66.7052C64.1612 66.8 64.2187 66.8862 64.2913 66.9587C64.3638 67.0313 64.45 67.0888 64.5448 67.1281C64.6395 67.1673 64.7412 67.1875 64.8438 67.1875H67.2984C67.4886 67.9239 67.9408 68.5658 68.5703 68.9926C69.1998 69.4195 69.9634 69.6022 70.718 69.5063C71.4725 69.4105 72.1662 69.0428 72.669 68.472C73.1718 67.9013 73.4492 67.1668 73.4492 66.4062C73.4492 65.6456 73.1718 64.9111 72.669 64.3404C72.1662 63.7697 71.4725 63.402 70.718 63.3061C69.9634 63.2103 69.1998 63.3929 68.5703 63.8198C67.9408 64.2467 67.4886 64.8885 67.2984 65.625H65.625V57.8125C65.625 57.7099 65.6048 57.6083 65.5656 57.5135C65.5263 57.4187 65.4688 57.3326 65.3962 57.26C65.3237 57.1874 65.2376 57.1299 65.1428 57.0907C65.048 57.0514 64.9464 57.0312 64.8438 57.0312H62.7564C64.7181 54.2102 66.0883 51.0211 66.7841 47.6562H69.5313V49.3297C68.7948 49.5198 68.153 49.972 67.7261 50.6016C67.2992 51.2311 67.1166 51.9947 67.2124 52.7492C67.3083 53.5037 67.676 54.1974 68.2467 54.7002C68.8174 55.203 69.5519 55.4804 70.3125 55.4804C71.0731 55.4804 71.8076 55.203 72.3783 54.7002C72.949 54.1974 73.3168 53.5037 73.4126 52.7492C73.5084 51.9947 73.3258 51.2311 72.8989 50.6016C72.472 49.972 71.8302 49.5198 71.0938 49.3297V46.875C71.0938 46.7724 71.0736 46.6708 71.0343 46.576C70.9951 46.4812 70.9375 46.3951 70.865 46.3225C70.7924 46.2499 70.7063 46.1924 70.6115 46.1532C70.5167 46.1139 70.4151 46.0937 70.3125 46.0937H67.0328C67.1325 45.3164 67.1841 44.5337 67.1875 43.75C67.1899 40.7314 66.392 37.7661 64.8752 35.1562H70.3125C70.4151 35.1563 70.5167 35.1361 70.6115 35.0968C70.7063 35.0576 70.7924 35 70.865 34.9275C70.9375 34.8549 70.9951 34.7688 71.0343 34.674C71.0736 34.5792 71.0938 34.4776 71.0938 34.375ZM29.6875 31.25C29.3785 31.25 29.0764 31.1583 28.8194 30.9867C28.5625 30.815 28.3622 30.5709 28.2439 30.2854C28.1257 29.9999 28.0947 29.6858 28.155 29.3827C28.2153 29.0796 28.3641 28.8012 28.5826 28.5826C28.8012 28.3641 29.0796 28.2153 29.3827 28.155C29.6858 28.0947 29.9999 28.1257 30.2854 28.2439C30.571 28.3622 30.815 28.5625 30.9867 28.8194C31.1584 29.0764 31.25 29.3785 31.25 29.6875C31.2495 30.1017 31.0848 30.4989 30.7918 30.7918C30.4989 31.0847 30.1018 31.2495 29.6875 31.25ZM28.125 51.5625C28.125 51.2535 28.2166 50.9514 28.3883 50.6944C28.56 50.4375 28.804 50.2372 29.0896 50.1189C29.3751 50.0007 29.6892 49.9697 29.9923 50.03C30.2954 50.0903 30.5738 50.2391 30.7924 50.4576C31.0109 50.6762 31.1597 50.9546 31.22 51.2577C31.2803 51.5608 31.2493 51.8749 31.1311 52.1604C31.0128 52.4459 30.8125 52.69 30.5556 52.8617C30.2986 53.0333 29.9965 53.125 29.6875 53.125C29.2732 53.1245 28.8761 52.9597 28.5832 52.6668C28.2902 52.3739 28.1255 51.9767 28.125 51.5625ZM30.4688 69.5312C30.1597 69.5312 29.8576 69.4396 29.6007 69.2679C29.3437 69.0962 29.1435 68.8522 29.0252 68.5667C28.9069 68.2812 28.876 67.967 28.9363 67.6639C28.9966 67.3608 29.1454 67.0824 29.3639 66.8639C29.5824 66.6454 29.8608 66.4966 30.1639 66.4363C30.467 66.376 30.7812 66.4069 31.0667 66.5252C31.3522 66.6434 31.5962 66.8437 31.7679 67.1007C31.9396 67.3576 32.0313 67.6597 32.0313 67.9687C32.0308 68.383 31.866 68.7801 31.5731 69.0731C31.2802 69.366 30.883 69.5308 30.4688 69.5312ZM70.3125 64.8437C70.6215 64.8437 70.9236 64.9354 71.1806 65.1071C71.4375 65.2788 71.6378 65.5228 71.7561 65.8083C71.8743 66.0938 71.9053 66.408 71.845 66.7111C71.7847 67.0142 71.6359 67.2926 71.4174 67.5111C71.1988 67.7296 70.9204 67.8784 70.6173 67.9387C70.3142 67.999 70.0001 67.9681 69.7146 67.8498C69.4291 67.7315 69.185 67.5313 69.0133 67.2743C68.8416 67.0174 68.75 66.7153 68.75 66.4062C68.7505 65.992 68.9153 65.5948 69.2082 65.3019C69.5011 65.009 69.8983 64.8442 70.3125 64.8437ZM71.875 52.3437C71.875 52.6528 71.7834 52.9549 71.6117 53.2118C71.44 53.4688 71.196 53.669 70.9104 53.7873C70.6249 53.9056 70.3108 53.9365 70.0077 53.8762C69.7046 53.8159 69.4262 53.6671 69.2076 53.4486C68.9891 53.2301 68.8403 52.9517 68.78 52.6486C68.7197 52.3455 68.7507 52.0313 68.8689 51.7458C68.9872 51.4603 69.1875 51.2163 69.4444 51.0446C69.7014 50.8729 70.0035 50.7812 70.3125 50.7812C70.7268 50.7817 71.1239 50.9465 71.4168 51.2394C71.7098 51.5323 71.8745 51.9295 71.875 52.3437ZM56.25 71.2433C56.2498 71.4108 56.1832 71.5715 56.0647 71.6899C55.9462 71.8084 55.7855 71.8749 55.6179 71.875H44.3821C44.2145 71.8749 44.0539 71.8084 43.9353 71.6899C43.8168 71.5715 43.7502 71.4108 43.75 71.2433V70.9442C43.7502 70.7766 43.8168 70.616 43.9353 70.4976C44.0539 70.3791 44.2145 70.3125 44.3821 70.3125H55.6179C55.7855 70.3125 55.9462 70.3791 56.0647 70.4976C56.1832 70.616 56.2498 70.7766 56.25 70.9442V71.2433ZM57.0313 68.75H42.9688C42.7616 68.75 42.5628 68.6677 42.4163 68.5212C42.2698 68.3747 42.1875 68.1759 42.1875 67.9687C42.1875 67.7615 42.2698 67.5628 42.4163 67.4163C42.5628 67.2698 42.7616 67.1875 42.9688 67.1875H57.0313C57.2385 67.1875 57.4372 67.2698 57.5837 67.4163C57.7302 67.5628 57.8125 67.7615 57.8125 67.9687C57.8125 68.1759 57.7302 68.3747 57.5837 68.5212C57.4372 68.6677 57.2385 68.75 57.0313 68.75ZM65.625 43.75C65.4548 48.9774 63.4977 53.9885 60.08 57.9475C58.2074 60.0774 57.131 62.7906 57.0343 65.625H42.9657C42.869 62.7906 41.7926 60.0774 39.9201 57.9475C36.5023 53.9885 34.5452 48.9774 34.375 43.75C34.375 39.606 36.0212 35.6317 38.9515 32.7014C41.8817 29.7712 45.856 28.125 50 28.125C54.144 28.125 58.1183 29.7712 61.0485 32.7014C63.9788 35.6317 65.625 39.606 65.625 43.75ZM68.75 29.6875C68.75 29.3785 68.8416 29.0764 69.0133 28.8194C69.185 28.5625 69.4291 28.3622 69.7146 28.2439C70.0001 28.1257 70.3142 28.0947 70.6173 28.155C70.9204 28.2153 71.1988 28.3641 71.4174 28.5826C71.6359 28.8012 71.7847 29.0796 71.845 29.3827C71.9053 29.6858 71.8743 29.9999 71.7561 30.2854C71.6378 30.5709 71.4375 30.815 71.1806 30.9867C70.9236 31.1583 70.6215 31.25 70.3125 31.25C69.8983 31.2495 69.5011 31.0847 69.2082 30.7918C68.9153 30.4989 68.7505 30.1017 68.75 29.6875Z" fill="#2F80ED"/>
<path d="M52.3438 60.9375H50.7812V62.5H52.3438V60.9375Z" fill="#2F80ED"/>
<path d="M50.7812 59.375H49.2188V60.9375H50.7812V59.375Z" fill="#2F80ED"/>
<path d="M49.2188 60.9375H47.6562V62.5H49.2188V60.9375Z" fill="#2F80ED"/>
<path d="M53.9062 62.5H52.3438V64.0625H53.9062V62.5Z" fill="#2F80ED"/>
<path d="M47.6562 62.5H46.0938V64.0625H47.6562V62.5Z" fill="#2F80ED"/>
</svg>
