<svg width="100" height="100" viewBox="0 0 100 100" fill="none" xmlns="http://www.w3.org/2000/svg">
<rect opacity="0.1" x="1" y="1" width="98" height="98" rx="1" stroke="#2F80ED" stroke-width="2"/>
<g clip-path="url(#clip0_1411_2682)">
<path d="M58.9868 43.75C60.841 43.7499 62.6535 43.1999 64.1951 42.1697C65.7367 41.1395 66.9382 39.6753 67.6477 37.9622C68.3572 36.2491 68.5427 34.3641 68.1809 32.5456C67.8191 30.7271 66.9262 29.0567 65.615 27.7456C64.3039 26.4346 62.6334 25.5418 60.8149 25.1801C58.9963 24.8184 57.1113 25.0041 55.3983 25.7137C53.6853 26.4233 52.2212 27.6249 51.1911 29.1666C50.161 30.7083 49.6111 32.5208 49.6111 34.375C49.614 36.8606 50.6028 39.2436 52.3605 41.0012C54.1181 42.7587 56.5012 43.7473 58.9868 43.75ZM58.9868 26.5625C60.532 26.5626 62.0424 27.0209 63.3271 27.8794C64.6117 28.7379 65.613 29.9581 66.2042 31.3857C66.7955 32.8132 66.9501 34.3841 66.6486 35.8995C66.3471 37.4149 65.603 38.8069 64.5103 39.8995C63.4177 40.992 62.0257 41.736 60.5102 42.0374C58.9947 42.3388 57.4239 42.1841 55.9964 41.5928C54.5689 41.0014 53.3488 40.0001 52.4904 38.7153C51.6319 37.4306 51.1738 35.9201 51.1738 34.375C51.1762 32.3036 52.0001 30.3178 53.4649 28.8532C54.9296 27.3886 56.9155 26.5648 58.9868 26.5625Z" fill="#2F80ED"/>
<path d="M59.7681 37.2397H58.2055C57.7286 37.2397 57.4242 36.9826 57.4242 36.8056C57.4242 36.5984 57.3419 36.3996 57.1954 36.2531C57.0488 36.1066 56.8501 36.0243 56.6429 36.0243C56.4357 36.0243 56.237 36.1066 56.0904 36.2531C55.9439 36.3996 55.8616 36.5984 55.8616 36.8056C55.8616 37.9065 56.913 38.8022 58.2055 38.8022V39.8438C58.2055 40.051 58.2878 40.2498 58.4343 40.3963C58.5809 40.5428 58.7796 40.6251 58.9868 40.6251C59.194 40.6251 59.3928 40.5428 59.5393 40.3963C59.6858 40.2498 59.7681 40.051 59.7681 39.8438V38.8022C61.0606 38.8022 62.112 37.9065 62.112 36.8056V35.5902C62.112 34.4893 61.0606 33.5938 59.7681 33.5938H58.2055C57.7286 33.5938 57.4242 33.3367 57.4242 33.1597V31.9445C57.4242 31.7675 57.7286 31.5104 58.2055 31.5104H59.7681C60.245 31.5104 60.5494 31.7675 60.5494 31.9445C60.5494 32.1517 60.6317 32.3505 60.7783 32.497C60.9248 32.6435 61.1235 32.7258 61.3307 32.7258C61.5379 32.7258 61.7367 32.6435 61.8832 32.497C62.0297 32.3505 62.112 32.1517 62.112 31.9445C62.112 30.8436 61.0606 29.9479 59.7681 29.9479V28.9063C59.7681 28.6991 59.6858 28.5004 59.5393 28.3538C59.3928 28.2073 59.194 28.125 58.9868 28.125C58.7796 28.125 58.5809 28.2073 58.4343 28.3538C58.2878 28.5004 58.2055 28.6991 58.2055 28.9063V29.9479C56.913 29.9479 55.8616 30.8436 55.8616 31.9445V33.1597C55.8616 34.2606 56.913 35.1563 58.2055 35.1563H59.7681C60.2377 35.1563 60.5494 35.4174 60.5494 35.5902V36.8056C60.5494 36.9826 60.245 37.2397 59.7681 37.2397ZM52.6997 64.1196C52.5989 64.1386 52.5028 64.1774 52.417 64.2336C52.3311 64.2897 52.2572 64.3623 52.1994 64.447C52.1415 64.5318 52.101 64.6271 52.08 64.7276C52.0591 64.828 52.0581 64.9316 52.0771 65.0324C52.1181 65.2346 52.2364 65.4129 52.4069 65.5291C52.5773 65.6454 52.7864 65.6906 52.9897 65.655C53.8721 65.4881 54.6217 64.4478 54.8304 64.1329C55.1367 63.6706 55.799 62.5081 55.3328 61.698C55.2345 61.5271 55.0752 61.3996 54.8868 61.3413C54.6984 61.2829 54.4949 61.298 54.3172 61.3834C54.1394 61.4689 54.0005 61.6184 53.9284 61.8019C53.8563 61.9855 53.8563 62.1895 53.9284 62.3731C54.0908 62.7879 53.1096 64.042 52.6997 64.1196ZM48.8438 52.8731C48.8932 52.4733 48.8556 52.0676 48.7335 51.6837C48.6115 51.2998 48.4079 50.9468 48.1367 50.6489C47.4688 49.9581 46.4561 49.721 45.402 49.6545L48.8438 52.8731ZM53.1973 53.7518C53.6444 53.7653 54.068 53.9553 54.3753 54.2803C54.7422 54.7868 55.2985 54.718 55.8435 54.5586L57.757 52.5957C57.0614 52.5812 56.3699 52.7046 55.7223 52.9587C55.6178 52.9936 55.4915 53.0356 55.3851 53.0675C54.8064 52.5446 54.0634 52.24 53.2842 52.2061C52.9916 52.1907 52.6995 52.2434 52.4308 52.3601C52.1621 52.4768 51.9241 52.6542 51.7356 52.8784C51.5471 53.1027 51.4132 53.3676 51.3444 53.6524C51.2757 53.9371 51.2739 54.234 51.3393 54.5195C51.3989 54.7385 51.4842 54.9497 51.5934 55.1488C51.6224 55.2081 51.6609 55.2855 51.6953 55.3601C51.6339 55.3666 51.5722 55.3689 51.5106 55.3669L52.7875 56.561C52.9688 56.4333 53.1172 56.2643 53.2204 56.068C53.3034 55.8645 53.3406 55.6453 53.3293 55.4258C53.3181 55.2063 53.2586 54.992 53.1553 54.798C53.0318 54.5005 52.5715 53.817 53.1973 53.7518ZM35.3458 56.3847L39.4189 52.2146C39.3079 52.236 39.1966 52.261 39.0849 52.2894C38.1405 52.5531 37.2892 53.0768 36.628 53.8009C35.9669 54.525 35.5226 55.4203 35.3458 56.3847ZM42.8819 60.7161C41.8488 59.7817 40.2336 60.0045 39.8749 60.068C39.4307 60.0753 38.9918 59.9704 38.5988 59.7631C38.5071 59.7221 37.5695 60.8199 37.4403 60.9474C38.2035 61.3834 39.0653 61.6176 39.9442 61.6279C40.5512 61.5911 41.3311 61.417 41.8355 61.8768C41.9576 62.0203 42.0446 62.1903 42.0898 62.3733C42.1349 62.5563 42.1369 62.7472 42.0957 62.9311C42.0713 63.4071 42.1909 63.8793 42.4387 64.2864C42.8915 65.1723 42.6649 66.2216 42.8663 67.1666C43.0344 68.1222 43.4665 69.0118 44.1137 69.7346C44.9836 70.6408 46.2649 70.3751 47.1829 69.7053C47.9906 69.1532 48.7083 68.4798 49.3107 67.7088C49.8722 66.9007 50.1835 65.9451 50.2059 64.9613C50.2227 64.4682 50.3034 63.9793 50.4459 63.507C50.6729 62.9831 50.98 62.4978 51.3561 62.0682C51.4194 61.9869 51.4836 61.903 51.5476 61.8196L50.4006 60.7469C50.3118 60.8651 50.2194 60.9844 50.1235 61.1073C49.6417 61.6642 49.254 62.2959 48.9756 62.9777C48.6305 63.9354 48.7443 64.948 48.513 65.9235C48.2571 67.0025 47.1043 67.829 46.2624 68.4428C45.9339 68.6822 45.4906 68.912 45.2411 68.653C44.7976 68.1384 44.5047 67.5115 44.3946 66.8412C44.2049 65.9535 44.3698 65.0367 44.0867 64.1588C43.9871 63.8502 43.618 63.4145 43.6506 63.0839C43.7754 61.8146 43.3016 61.0957 42.8819 60.7161Z" fill="#2F80ED"/>
<path d="M27.9584 63.9481C27.0371 61.8958 26.5614 59.6714 26.5626 57.4218C26.5641 56.7526 26.6074 56.0842 26.6922 55.4204C27.2746 55.4702 28.5225 55.6569 28.5842 56.3442C28.5193 57.1399 28.53 57.9399 28.6162 58.7335C28.7562 59.9559 29.6035 60.6821 30.3509 61.3226C30.3835 61.3505 30.4125 61.3761 30.4439 61.4033L31.5379 60.2832C31.4811 60.2341 31.424 60.1842 31.368 60.1362C30.7621 59.617 30.2387 59.1688 30.1689 58.5563C30.0924 57.8454 30.0846 57.1287 30.1456 56.4163C30.1481 56.3872 30.1489 56.3579 30.1479 56.3287C30.1046 54.9588 28.9243 54.0622 26.9635 53.8747C27.0843 53.3425 27.2325 52.8168 27.4076 52.2998C27.5407 52.3422 27.6789 52.3665 27.8185 52.3721C27.8384 52.3727 27.8578 52.3731 27.8777 52.3731C28.8638 52.3731 29.7416 51.4789 30.3994 50.694C31.5405 49.3324 33.6955 49.3976 34.3387 47.5313C34.5276 46.8719 34.5455 46.1754 34.3906 45.5072C34.3765 45.4233 34.3631 45.3149 34.3478 45.1934C34.3067 44.7394 34.2173 44.2911 34.0813 43.8559C35.9981 42.6494 38.1508 41.8667 40.3949 41.5603C40.405 41.869 40.5098 42.5535 40.2339 42.7812C39.7865 43.1506 39.1927 43.2604 38.6763 43.4963C38.122 43.7437 37.6172 44.0894 37.1862 44.5167C36.554 45.1635 36.6101 45.7218 36.7685 46.0762C36.8301 46.2139 36.9303 46.3309 37.057 46.413C37.1836 46.4951 37.3314 46.5387 37.4823 46.5387C37.6561 46.5392 37.825 46.4809 37.9615 46.3732C38.098 46.2655 38.194 46.1148 38.2339 45.9456C38.4343 44.9727 39.747 44.6855 40.5222 44.3619C41.6911 43.874 42.0163 42.594 41.9534 41.4221C42.1614 41.4141 42.3695 41.4062 42.5794 41.4062C43.8197 41.4063 45.0557 41.5507 46.2625 41.8365C46.0155 42.1613 45.8445 42.5374 45.7622 42.9371C45.6799 43.3368 45.6884 43.7499 45.787 44.1459C45.7928 44.1688 45.7992 44.1915 45.8069 44.2138C45.8899 44.4577 45.9206 44.7164 45.8969 44.973C45.8881 44.9737 45.8782 44.9743 45.8664 44.9745C45.1778 44.9203 42.1739 44.8011 41.9309 46.7668C41.9246 46.8056 41.9204 46.8447 41.9183 46.8839C41.9329 47.2209 41.8529 47.5552 41.6875 47.849C41.6083 47.901 41.5259 47.9478 41.4406 47.989C41.1105 48.1282 40.8251 48.3556 40.6158 48.6463C40.4484 48.9174 39.9387 49.7423 40.3686 50.4806C40.4613 50.6344 40.5861 50.7664 40.7344 50.8677L41.9143 49.6597C41.8899 49.6571 41.863 49.655 41.8408 49.6519C41.8611 49.6116 41.8866 49.5647 41.919 49.5105C41.9725 49.4737 42.0839 49.4156 42.1613 49.3755C42.4197 49.2599 42.6534 49.0955 42.8495 48.8914C43.2561 48.3292 43.4764 47.6537 43.4794 46.9599C43.5122 46.6955 44.6284 46.4416 45.7691 46.5343C45.7871 46.5358 45.805 46.5366 45.8233 46.537C46.0773 46.5496 46.3307 46.5007 46.5618 46.3945C46.793 46.2883 46.995 46.1279 47.1509 45.9268C47.6999 45.1708 47.3977 44.0554 47.2989 43.7496C47.2538 43.4761 47.2914 43.1953 47.4069 42.9432C47.5224 42.6912 47.7105 42.4794 47.9472 42.335C50.2633 43.165 52.3583 44.515 54.0711 46.2813C55.7838 48.0476 57.0688 50.1831 57.8271 52.5237L59.0464 51.2728C58.2146 49.0417 56.9382 47.0029 55.2946 45.28C53.651 43.5572 51.6745 42.1862 49.485 41.2504C47.2955 40.3146 44.9387 39.8333 42.5576 39.8359C40.1765 39.8386 37.8207 40.3249 35.6333 41.2656C33.4459 42.2062 31.4724 43.5815 29.8325 45.3079C28.1927 47.0344 26.9208 49.076 26.0939 51.3089C25.267 53.5418 24.9024 55.9195 25.0223 58.2976C25.1421 60.6757 25.7439 63.0046 26.7912 65.1431L27.9584 63.9481ZM32.7153 44.818C32.8288 45.4716 33.0849 46.3716 32.8612 47.0224C32.7261 47.4153 32.4041 47.7083 31.7846 48.0026C30.8428 48.451 29.8858 48.8736 29.2015 49.6906C28.8856 50.1321 28.4805 50.5021 28.0122 50.7767C29.0827 48.4441 30.6952 46.4011 32.7153 44.818ZM58.5565 58.4911C58.3166 62.1609 56.8185 65.6358 54.3148 68.3297C51.8111 71.0235 48.4551 72.7716 44.8126 73.2792C44.7655 73.1296 44.7031 72.9853 44.6265 72.8485C44.2143 72.1812 43.6681 71.6066 43.0226 71.1611C42.3771 70.7155 41.6462 70.4086 40.876 70.2598C38.3047 69.8001 35.8654 71.2654 35.2648 71.6615C33.9288 70.9711 32.6961 70.097 31.6027 69.0646C31.7098 68.9924 31.8089 68.9091 31.8983 68.8159C32.609 68.0658 32.5293 66.9206 32.4186 66.3045C32.4081 66.2392 32.4026 66.1731 32.4023 66.1069L29.4664 69.1126C31.8352 71.7736 34.9569 73.6515 38.4175 74.4974C41.8781 75.3434 45.5141 75.1173 48.8433 73.8492C52.1725 72.5811 55.0375 70.3309 57.0584 67.3971C59.0793 64.4632 60.1606 60.9843 60.1588 57.4218C60.1588 57.2341 60.1505 57.0483 60.1446 56.862L58.5565 58.4911ZM42.5794 73.4375C40.6929 73.4376 38.8213 73.1023 37.0522 72.4471C38.1411 71.8736 39.3795 71.647 40.601 71.7979C41.6155 71.9988 42.5145 72.5809 43.1129 73.4245C42.9354 73.4303 42.7583 73.4375 42.5794 73.4375Z" fill="#2F80ED"/>
<path d="M74.9752 38.879C74.9241 38.6801 74.7974 38.5089 74.6221 38.4018C74.4468 38.2948 74.2366 38.2603 74.0363 38.3056C74.0309 38.307 74.0255 38.3063 74.0201 38.3077L69.3323 39.5637C69.2331 39.5902 69.1402 39.636 69.0587 39.6984C68.9773 39.7609 68.909 39.8388 68.8576 39.9276C68.8063 40.0165 68.7729 40.1146 68.7595 40.2163C68.7461 40.3181 68.7529 40.4215 68.7795 40.5206C68.806 40.6197 68.8519 40.7127 68.9143 40.7941C68.9768 40.8755 69.0548 40.9438 69.1436 40.9951C69.2325 41.0463 69.3307 41.0796 69.4324 41.0929C69.5342 41.1063 69.6376 41.0995 69.7367 41.0728L71.6782 40.5528L53.4158 59.2874L44.1897 50.6599C44.0405 50.5205 43.8426 50.445 43.6384 50.4497C43.4342 50.4543 43.2399 50.5387 43.0971 50.6847L25.2224 68.9852C25.0777 69.1334 24.9977 69.333 25.0002 69.5402C25.0026 69.7474 25.0872 69.9451 25.2354 70.0899C25.3851 70.2318 25.5842 70.3099 25.7905 70.3075C25.9967 70.305 26.1939 70.2223 26.3402 70.0769L43.6808 52.3233L52.9073 60.9514C53.0567 61.0911 53.2548 61.1666 53.4592 61.1619C53.6636 61.1571 53.858 61.0725 54.0007 60.926L72.6932 41.7504L72.2114 43.5476C72.1583 43.7476 72.1867 43.9605 72.2903 44.1396C72.394 44.3186 72.5644 44.4493 72.7643 44.5028C72.9641 44.5564 73.1771 44.5285 73.3564 44.4252C73.5357 44.3219 73.6667 44.1517 73.7206 43.952L74.9769 39.2645C74.979 39.2568 74.9781 39.249 74.9799 39.2414C75.0082 39.1221 75.0066 38.9976 74.9752 38.879Z" fill="#2F80ED"/>
</g>
<defs>
<clipPath id="clip0_1411_2682">
<rect width="50" height="50" fill="white" transform="translate(25 25)"/>
</clipPath>
</defs>
</svg>
