<svg width="100" height="100" viewBox="0 0 100 100" fill="none" xmlns="http://www.w3.org/2000/svg">
<rect opacity="0.1" x="1" y="1" width="98" height="98" rx="1" stroke="#2F80ED" stroke-width="2"/>
<path fill-rule="evenodd" clip-rule="evenodd" d="M49.2188 32.8115C49.2188 34.9873 50.2282 36.5571 51.6174 37.5997C53.0067 38.6422 54.7389 39.2591 56.4026 39.8916C58.0663 40.5239 59.6578 41.1714 60.7727 42.095C61.8876 43.0187 62.5793 44.1468 62.5793 46.0928H64.1418C64.1418 43.742 63.1606 42.0411 61.7706 40.8895C60.3806 39.7381 58.6341 39.067 56.958 38.4298C55.2819 37.7928 53.673 37.1887 52.5574 36.3516C51.4417 35.5142 50.7812 34.542 50.7812 32.8115H49.2188Z" fill="#666666"/>
<path fill-rule="evenodd" clip-rule="evenodd" d="M49.2584 32.8115C49.2584 34.542 48.598 35.5142 47.4823 36.3516C46.3666 37.1887 44.7578 37.7928 43.0817 38.4298C41.4055 39.067 39.659 39.7381 38.269 40.8895C36.8791 42.0411 35.8978 43.742 35.8978 46.0928H37.4603C37.4603 44.1468 38.1521 43.0187 39.267 42.095C40.3819 41.1714 41.9734 40.5239 43.6371 39.8916C45.3008 39.2591 47.03 38.6422 48.4192 37.5997C49.8084 36.5571 50.8209 34.9873 50.8209 32.8115H49.2584ZM35.9375 52.3428C35.9375 54.2453 36.4936 55.6746 37.3169 56.7587C38.1402 57.8427 39.1851 58.5887 40.155 59.316C41.1249 60.0435 42.02 60.7496 42.6666 61.6873C43.3133 62.6249 43.75 63.8012 43.75 65.624H45.3125C45.3125 63.5407 44.7727 61.9856 43.9545 60.7992C43.1363 59.6128 42.0782 58.8052 41.095 58.0679C40.1117 57.3304 39.2035 56.6604 38.562 55.8157C37.9205 54.971 37.5 53.9559 37.5 52.3428H35.9375Z" fill="#666666"/>
<path fill-rule="evenodd" clip-rule="evenodd" d="M35.9375 52.3428C35.9375 53.9559 35.517 54.971 34.8755 55.8157C34.234 56.6604 33.3258 57.3304 32.3425 58.0679C31.3593 58.8052 30.3012 59.6128 29.483 60.7992C28.6648 61.9856 28.125 63.5407 28.125 65.624H29.6875C29.6875 63.8012 30.1242 62.6249 30.7709 61.6873C31.4175 60.7496 32.3126 60.0435 33.2825 59.316C34.2524 58.5887 35.2973 57.8427 36.1206 56.7587C36.9439 55.6746 37.5 54.2453 37.5 52.3428H35.9375Z" fill="#666666"/>
<path d="M71.0938 65.624C68.9456 65.624 67.1875 67.3821 67.1875 69.5303C67.1875 71.6784 68.9456 73.4365 71.0938 73.4365C73.2419 73.4365 75 71.6784 75 69.5303C75 67.3821 73.2419 65.624 71.0938 65.624ZM71.0938 67.1865C72.3974 67.1865 73.4375 68.2267 73.4375 69.5303C73.4375 70.834 72.3974 71.874 71.0938 71.874C69.7901 71.874 68.75 70.834 68.75 69.5303C68.75 68.2267 69.7901 67.1865 71.0938 67.1865Z" fill="#2F80ED"/>
<path d="M71.875 69.5317C71.875 69.7389 71.7927 69.9376 71.6462 70.0841C71.4997 70.2306 71.301 70.313 71.0938 70.313C70.8865 70.313 70.6878 70.2306 70.5413 70.0841C70.3948 69.9376 70.3125 69.7389 70.3125 69.5317C70.3125 69.3245 70.3948 69.1259 70.5413 68.9794C70.6878 68.8329 70.8865 68.7505 71.0938 68.7505C71.301 68.7505 71.4997 68.8329 71.6462 68.9794C71.7927 69.1259 71.875 69.3245 71.875 69.5317Z" fill="#666666"/>
<path d="M55.4688 65.624C53.3206 65.624 51.5625 67.3821 51.5625 69.5303C51.5625 71.6784 53.3206 73.4365 55.4688 73.4365C57.6169 73.4365 59.375 71.6784 59.375 69.5303C59.375 67.3821 57.6169 65.624 55.4688 65.624ZM55.4688 67.1865C56.7724 67.1865 57.8125 68.2267 57.8125 69.5303C57.8125 70.834 56.7724 71.874 55.4688 71.874C54.1651 71.874 53.125 70.834 53.125 69.5303C53.125 68.2267 54.1651 67.1865 55.4688 67.1865Z" fill="#2F80ED"/>
<path d="M56.25 69.5317C56.25 69.7389 56.1677 69.9376 56.0212 70.0841C55.8747 70.2306 55.676 70.313 55.4688 70.313C55.2615 70.313 55.0628 70.2306 54.9163 70.0841C54.7698 69.9376 54.6875 69.7389 54.6875 69.5317C54.6875 69.3245 54.7698 69.1259 54.9163 68.9794C55.0628 68.8329 55.2615 68.7505 55.4688 68.7505C55.676 68.7505 55.8747 68.8329 56.0212 68.9794C56.1677 69.1259 56.25 69.3245 56.25 69.5317Z" fill="#666666"/>
<path d="M28.9062 65.624C26.7581 65.624 25 67.3821 25 69.5303C25 71.6784 26.7581 73.4365 28.9062 73.4365C31.0544 73.4365 32.8125 71.6784 32.8125 69.5303C32.8125 67.3821 31.0544 65.624 28.9062 65.624ZM28.9062 67.1865C30.2099 67.1865 31.25 68.2267 31.25 69.5303C31.25 70.834 30.2099 71.874 28.9062 71.874C27.6026 71.874 26.5625 70.834 26.5625 69.5303C26.5625 68.2267 27.6026 67.1865 28.9062 67.1865Z" fill="#2F80ED"/>
<path d="M29.6875 69.5317C29.6875 69.7389 29.6052 69.9376 29.4587 70.0841C29.3122 70.2306 29.1135 70.313 28.9062 70.313C28.699 70.313 28.5003 70.2306 28.3538 70.0841C28.2073 69.9376 28.125 69.7389 28.125 69.5317C28.125 69.3245 28.2073 69.1259 28.3538 68.9794C28.5003 68.8329 28.699 68.7505 28.9062 68.7505C29.1135 68.7505 29.3122 68.8329 29.4587 68.9794C29.6052 69.1259 29.6875 69.3245 29.6875 69.5317Z" fill="#666666"/>
<path d="M44.5312 65.624C42.3831 65.624 40.625 67.3821 40.625 69.5303C40.625 71.6784 42.3831 73.4365 44.5312 73.4365C46.6794 73.4365 48.4375 71.6784 48.4375 69.5303C48.4375 67.3821 46.6794 65.624 44.5312 65.624ZM44.5312 67.1865C45.8349 67.1865 46.875 68.2267 46.875 69.5303C46.875 70.834 45.8349 71.874 44.5312 71.874C43.2276 71.874 42.1875 70.834 42.1875 69.5303C42.1875 68.2267 43.2276 67.1865 44.5312 67.1865Z" fill="#2F80ED"/>
<path d="M45.3125 69.5317C45.3125 69.7389 45.2302 69.9376 45.0837 70.0841C44.9372 70.2306 44.7385 70.313 44.5312 70.313C44.324 70.313 44.1253 70.2306 43.9788 70.0841C43.8323 69.9376 43.75 69.7389 43.75 69.5317C43.75 69.3245 43.8323 69.1259 43.9788 68.9794C44.1253 68.8329 44.324 68.7505 44.5312 68.7505C44.7385 68.7505 44.9372 68.8329 45.0837 68.9794C45.2302 69.1259 45.3125 69.3245 45.3125 69.5317Z" fill="#666666"/>
<path d="M36.7188 45.3115C34.5706 45.3115 32.8125 47.0696 32.8125 49.2178C32.8125 51.3659 34.5706 53.124 36.7188 53.124C38.8669 53.124 40.625 51.3659 40.625 49.2178C40.625 47.0696 38.8669 45.3115 36.7188 45.3115ZM36.7188 46.874C38.0224 46.874 39.0625 47.9142 39.0625 49.2178C39.0625 50.5215 38.0224 51.5615 36.7188 51.5615C35.4151 51.5615 34.375 50.5215 34.375 49.2178C34.375 47.9142 35.4151 46.874 36.7188 46.874Z" fill="#2F80ED"/>
<path d="M37.5 49.2192C37.5 49.4264 37.4177 49.6251 37.2712 49.7716C37.1247 49.9181 36.926 50.0005 36.7188 50.0005C36.5115 50.0005 36.3128 49.9181 36.1663 49.7716C36.0198 49.6251 35.9375 49.4264 35.9375 49.2192C35.9375 49.012 36.0198 48.8134 36.1663 48.6669C36.3128 48.5204 36.5115 48.438 36.7188 48.438C36.926 48.438 37.1247 48.5204 37.2712 48.6669C37.4177 48.8134 37.5 49.012 37.5 49.2192Z" fill="#666666"/>
<path fill-rule="evenodd" clip-rule="evenodd" d="M62.5 52.3428C62.5 54.2453 63.0561 55.6746 63.8794 56.7587C64.7027 57.8427 65.7476 58.5887 66.7175 59.316C67.6874 60.0435 68.5825 60.7496 69.2291 61.6873C69.8758 62.6249 70.3125 63.8012 70.3125 65.624H71.875C71.875 63.5407 71.3352 61.9856 70.517 60.7992C69.6988 59.6128 68.6407 58.8052 67.6575 58.0679C66.6742 57.3304 65.766 56.6604 65.1245 55.8157C64.483 54.971 64.0625 53.9559 64.0625 52.3428H62.5Z" fill="#666666"/>
<path fill-rule="evenodd" clip-rule="evenodd" d="M62.5 52.3428C62.5 53.9559 62.0795 54.971 61.438 55.8157C60.7965 56.6604 59.8883 57.3304 58.905 58.0679C57.9218 58.8052 56.8637 59.6128 56.0455 60.7992C55.2273 61.9856 54.6875 63.5407 54.6875 65.624H56.25C56.25 63.8012 56.6867 62.6249 57.3334 61.6873C57.98 60.7496 58.8751 60.0435 59.845 59.316C60.8149 58.5887 61.8598 57.8427 62.6831 56.7587C63.5064 55.6746 64.0625 54.2453 64.0625 52.3428H62.5Z" fill="#666666"/>
<path d="M63.2812 45.3115C61.1331 45.3115 59.375 47.0696 59.375 49.2178C59.375 51.3659 61.1331 53.124 63.2812 53.124C65.4294 53.124 67.1875 51.3659 67.1875 49.2178C67.1875 47.0696 65.4294 45.3115 63.2812 45.3115ZM63.2812 46.874C64.5849 46.874 65.625 47.9142 65.625 49.2178C65.625 50.5215 64.5849 51.5615 63.2812 51.5615C61.9776 51.5615 60.9375 50.5215 60.9375 49.2178C60.9375 47.9142 61.9776 46.874 63.2812 46.874Z" fill="#2F80ED"/>
<path d="M64.0625 49.2192C64.0625 49.4264 63.9802 49.6251 63.8337 49.7716C63.6872 49.9181 63.4885 50.0005 63.2812 50.0005C63.074 50.0005 62.8753 49.9181 62.7288 49.7716C62.5823 49.6251 62.5 49.4264 62.5 49.2192C62.5 49.012 62.5823 48.8134 62.7288 48.6669C62.8753 48.5204 63.074 48.438 63.2812 48.438C63.4885 48.438 63.6872 48.5204 63.8337 48.6669C63.9802 48.8134 64.0625 49.012 64.0625 49.2192Z" fill="#666666"/>
<path d="M50 26.5615C47.8519 26.5615 46.0938 28.3196 46.0938 30.4678C46.0938 32.6159 47.8519 34.374 50 34.374C52.1481 34.374 53.9062 32.6159 53.9062 30.4678C53.9062 28.3196 52.1481 26.5615 50 26.5615ZM50 28.124C51.3037 28.124 52.3438 29.1642 52.3438 30.4678C52.3438 31.7715 51.3037 32.8115 50 32.8115C48.6963 32.8115 47.6562 31.7715 47.6562 30.4678C47.6562 29.1642 48.6963 28.124 50 28.124Z" fill="#2F80ED"/>
<path d="M50.7812 30.4692C50.7812 30.6764 50.6989 30.8751 50.5524 31.0216C50.4059 31.1681 50.2072 31.2505 50 31.2505C49.7928 31.2505 49.5941 31.1681 49.4476 31.0216C49.3011 30.8751 49.2188 30.6764 49.2188 30.4692C49.2188 30.262 49.3011 30.0634 49.4476 29.9169C49.5941 29.7704 49.7928 29.688 50 29.688C50.2072 29.688 50.4059 29.7704 50.5524 29.9169C50.6989 30.0634 50.7812 30.262 50.7812 30.4692Z" fill="#666666"/>
</svg>
