<svg width="100" height="100" viewBox="0 0 100 100" fill="none" xmlns="http://www.w3.org/2000/svg">
<rect opacity="0.1" x="1" y="1" width="98" height="98" rx="1" stroke="#2F80ED" stroke-width="2"/>
<path d="M42.7083 43.7502C42.7083 66.146 42.927 65.3022 42.1458 66.6668C41.7805 67.2996 41.2551 67.8252 40.6225 68.1909C39.9899 68.5565 39.2723 68.7494 38.5416 68.7502H30.2083C29.1032 68.7502 28.0434 68.3112 27.262 67.5298C26.4806 66.7484 26.0416 65.6886 26.0416 64.5835V43.7502C26.0416 42.6451 26.4806 41.5853 27.262 40.8039C28.0434 40.0225 29.1032 39.5835 30.2083 39.5835H38.5416C39.6467 39.5835 40.7065 40.0225 41.4879 40.8039C42.2693 41.5853 42.7083 42.6451 42.7083 43.7502Z" fill="#2F80ED"/>
<path d="M38.5417 39.5833C29.3333 39.5833 29.8125 39.5312 29.1667 39.7187V53.6875C29.1667 57.1298 30.5341 60.4311 32.9682 62.8651C35.4022 65.2992 38.7035 66.6666 42.1458 66.6666C42.9271 65.3125 42.7083 66.1458 42.7083 43.75C42.7083 42.6449 42.2694 41.5851 41.4879 40.8037C40.7065 40.0223 39.6467 39.5833 38.5417 39.5833ZM37.3125 47.7291C37.1588 48.071 36.9158 48.3651 36.6089 48.5804C36.3021 48.7957 35.9429 48.9242 35.5691 48.9524C35.1954 48.9806 34.8209 48.9075 34.4853 48.7407C34.1496 48.5739 33.8651 48.3196 33.6619 48.0047C33.4586 47.6897 33.3441 47.3258 33.3304 46.9513C33.3167 46.5767 33.4042 46.2053 33.5839 45.8764C33.7636 45.5474 34.0286 45.273 34.3512 45.0821C34.6738 44.8912 35.0419 44.7909 35.4167 44.7916C35.7642 44.7924 36.1059 44.88 36.4109 45.0465C36.7159 45.2131 36.9743 45.4533 37.1628 45.7453C37.3512 46.0372 37.4636 46.3717 37.4898 46.7182C37.5159 47.0647 37.455 47.4122 37.3125 47.7291Z" fill="#2F80ED"/>
<path d="M38.5417 45.8334C38.5424 46.2082 38.4421 46.5763 38.2512 46.8989C38.0603 47.2214 37.7859 47.4865 37.4569 47.6662C37.128 47.8458 36.7566 47.9334 36.382 47.9197C36.0075 47.9059 35.6435 47.7914 35.3286 47.5882C35.0137 47.3849 34.7594 47.1005 34.5926 46.7648C34.4258 46.4291 34.3527 46.0547 34.3809 45.6809C34.4091 45.3072 34.5376 44.9479 34.7529 44.6411C34.9682 44.3343 35.2623 44.0912 35.6042 43.9376C35.9211 43.7951 36.2686 43.7342 36.6151 43.7603C36.9616 43.7865 37.2961 43.8989 37.588 44.0873C37.88 44.2757 38.1202 44.5342 38.2868 44.8392C38.4533 45.1441 38.5409 45.4859 38.5417 45.8334Z" fill="#DAD7E5"/>
<path d="M38.3542 46.6875C37.9693 46.8585 37.5417 46.909 37.1276 46.8321C36.7136 46.7552 36.3325 46.5547 36.0347 46.2569C35.7369 45.9591 35.5364 45.5781 35.4595 45.164C35.3827 44.7499 35.4331 44.3223 35.6042 43.9375C35.989 43.7664 36.4166 43.7159 36.8307 43.7928C37.2448 43.8697 37.6258 44.0702 37.9236 44.368C38.2214 44.6658 38.422 45.0469 38.4988 45.4609C38.5757 45.875 38.5253 46.3026 38.3542 46.6875Z" fill="#EDEBF2"/>
<path d="M73.0417 54.2916C72.4562 54.8778 71.6619 55.2075 70.8333 55.2083C71.6621 55.2083 72.457 55.5375 73.043 56.1236C73.6291 56.7096 73.9583 57.5045 73.9583 58.3333C73.9583 59.1621 73.6291 59.9569 73.043 60.543C72.457 61.129 71.6621 61.4583 70.8333 61.4583C71.451 61.4588 72.0546 61.6424 72.568 61.9858C73.0814 62.3292 73.4816 62.8171 73.7179 63.3878C73.9542 63.9584 74.016 64.5863 73.8957 65.1922C73.7753 65.798 73.4781 66.3546 73.0417 66.7916C71.7917 68.0416 72.2604 67.7083 55.2083 67.7083L42.7083 64.5833V45.8333C45.3921 44.7103 47.7935 43.0062 49.7396 40.8437C50.9687 39.3958 52.9479 34.7708 53.5417 32.3854L53.8542 31.1458C54.7187 27.7083 60.4167 29.2291 60.4167 33.3333C60.4167 35.7812 59.1354 40.3958 58.3333 42.7083C71.625 42.7083 71.8021 42.3854 73.0417 43.6249C73.4781 44.062 73.7753 44.6185 73.8957 45.2244C74.016 45.8302 73.9542 46.4581 73.7179 47.0288C73.4816 47.5995 73.0814 48.0873 72.568 48.4307C72.0546 48.7742 71.451 48.9577 70.8333 48.9583C71.451 48.9588 72.0546 49.1424 72.568 49.4858C73.0814 49.8292 73.4816 50.3171 73.7179 50.8878C73.9542 51.4584 74.016 52.0863 73.8957 52.6922C73.7753 53.298 73.4781 53.8546 73.0417 54.2916Z" fill="#1169B0"/>
<path d="M52.8646 38.7604C54.4062 36.9479 56.1771 32.2292 56.9167 29.3021C56.5945 29.2211 56.2595 29.2046 55.9309 29.2536C55.6023 29.3025 55.2867 29.4159 55.0021 29.5873C54.7175 29.7586 54.4696 29.9845 54.2726 30.252C54.0756 30.5194 53.9334 30.8232 53.8542 31.1458C53.0864 34.6026 51.6919 37.8895 49.7396 40.8438C49.1207 41.5443 48.4448 42.1924 47.7187 42.7813C49.6677 41.7704 51.4124 40.4071 52.8646 38.7604ZM56.6354 65.1979C53.552 64.4271 50.8144 62.6484 48.8573 60.144C46.9003 57.6397 45.836 54.5533 45.8333 51.375V44.1563C44.8254 44.776 43.7819 45.336 42.7083 45.8333V64.5833L55.2083 67.7083H70.8333C71.4781 67.7065 72.1065 67.5053 72.6324 67.1324C73.1583 66.7594 73.5559 66.2329 73.7708 65.625C59.1979 65.625 58.8958 65.7604 56.6354 65.1979Z" fill="#1169B0"/>
</svg>
