<svg width="148" height="54" viewBox="0 0 148 54" fill="none" xmlns="http://www.w3.org/2000/svg">
<g id="Group">
<path id="Vector" fill-rule="evenodd" clip-rule="evenodd" d="M102.791 25.4594C102.422 23.6125 102.237 21.7656 102.053 21.7656C101.776 21.7656 100.298 25.7364 100.021 27.0292C99.8363 27.768 97.8971 31.5541 98.5435 32.3852C99.2822 32.8469 100.39 32.4775 101.314 32.5699C102.607 32.6622 102.791 32.5699 103.992 32.2928C104.361 32.1081 103.899 30.723 103.622 29.0608C103.438 27.9527 103.068 26.5675 102.791 25.4594Z" fill="white"/>
<path id="Vector_2" fill-rule="evenodd" clip-rule="evenodd" d="M141.575 8.8374C139.266 6.80583 137.142 5.51302 134.372 3.94317C123.568 -2.15152 111.84 0.711142 100.113 0.43411C93.0945 0.249423 81.4591 -0.304645 74.9951 0.711137C70.5626 1.44989 66.5918 1.72692 62.0669 1.81927C52.6479 2.37333 36.9494 6.62114 32.2399 8.09864C25.7758 10.1302 19.4965 12.0694 13.9558 14.8397C9.0616 17.2407 3.798 22.689 2.04347 27.8602C0.28894 32.2927 -0.542154 32.2004 0.381284 38.018C1.6741 46.4213 15.5257 51.9619 23.7443 52.3313C32.2399 52.793 40.3661 51.6849 48.2154 52.3313C55.2335 52.8854 65.299 53.2548 72.5018 52.9777C80.8127 52.3313 86.9074 53.3471 97.3423 52.793C107.408 52.239 109.347 51.0385 118.397 49.0069C125.138 47.5294 138.805 41.0654 142.221 35.7094C147.208 27.4908 150.717 16.9636 141.575 8.8374ZM32.1476 39.1262C31.0394 40.0496 28.0844 40.1419 26.6993 40.3266C25.2218 40.419 25.0371 40.3266 23.7443 40.2343C20.6046 40.1419 18.4807 39.7726 17.4649 36.8176C16.7261 34.4166 16.7261 33.7702 16.5414 31.1846C16.5414 30.4458 16.5414 28.4143 16.7261 27.7679C16.9108 26.6597 17.1879 25.2746 17.3725 24.2588C17.4649 23.7048 18.1113 22.3196 18.296 21.7655C19.4965 18.9952 21.805 16.9637 24.76 16.5943C25.6835 16.3172 28.3615 16.3172 30.0236 16.5943C30.3007 16.6866 31.1318 16.9636 31.3165 17.1483C31.9629 17.9794 31.3165 19.5493 30.0236 19.0876C28.3615 18.5335 25.9605 18.6258 24.2983 19.0876C22.5438 19.6416 21.8974 20.3804 20.8816 21.8579C19.8658 23.243 19.4041 26.6598 19.1271 27.4908C18.9424 28.599 18.7577 29.5224 18.7577 30.5382C18.7577 32.2927 19.2194 35.3401 19.5888 36.1712C19.9582 36.8176 20.2352 37.2793 21.251 37.6487C22.2668 38.018 26.0529 38.2027 27.0686 38.018C28.1768 37.9257 28.9155 37.6487 30.0236 37.2793C30.9471 37.0023 31.7782 37.3716 32.1476 38.1104C32.3322 38.4798 32.3322 38.9415 32.1476 39.1262ZM46.1838 39.1262C45.7221 39.4955 44.5216 39.1262 43.5058 39.1262C42.0283 39.0338 40.6432 39.2185 39.1657 39.3108C38.704 39.4032 38.3346 39.3108 37.8729 39.4032C36.303 39.5879 35.0102 38.2951 36.9494 37.464C37.4111 37.2793 38.2422 37.5563 38.981 37.464C39.9044 37.2793 39.4427 34.3243 39.4427 33.3085C39.5351 31.9233 39.6274 18.9029 39.258 18.9029C38.6116 18.8105 38.0576 18.9029 37.4111 18.9029C36.7647 18.9029 36.303 19.1799 35.749 19.1799C34.8255 19.0876 33.6251 18.5335 33.8097 17.5177C33.9944 16.5943 35.6566 17.2407 36.9494 17.2407C38.8886 17.1483 40.5508 17.056 42.3054 16.6866C43.5982 16.4096 44.0599 15.7632 45.4451 16.4096C45.9991 16.6866 46.1838 17.333 46.0915 17.7947C45.7221 18.7182 42.3054 17.9794 41.659 18.8105C41.4743 18.9029 41.5666 21.3961 41.5666 24.5358C41.5666 27.2138 41.659 30.2612 41.5666 32.3851C41.5666 33.2162 41.4743 36.5405 41.5666 37.0946C41.8437 38.1104 45.3527 36.6329 46.4608 38.018C46.8302 38.4798 46.5532 38.9415 46.1838 39.1262ZM62.1593 17.8871C60.9588 18.4411 57.8191 17.5177 57.2651 18.0718C56.8033 18.3488 56.8957 21.6732 56.711 23.0583C56.434 25.0899 56.6187 26.3827 56.6187 28.3219C56.6187 30.1688 56.2493 33.7702 56.1569 36.2635C55.9723 37.1869 56.2493 38.1104 56.1569 38.9415C55.9723 39.7726 54.5871 40.1419 53.756 39.4955C52.8326 38.6644 53.5713 37.741 53.756 36.9099C54.1254 35.063 54.033 32.7544 54.2177 30.8152C54.4024 28.599 54.2177 26.3827 54.4024 24.2588C54.4948 23.0583 54.9565 19.0876 54.6794 18.1641C54.4948 17.7024 51.4474 18.4412 50.3393 18.6258C49.3235 18.8105 48.0307 18.3488 47.846 17.4254C47.846 17.2407 47.7537 17.056 47.7537 16.8713C48.2154 15.8555 49.0465 16.6866 52.0938 16.3172C53.2943 16.2249 55.2335 15.7632 56.3416 15.9479C57.4498 16.1326 57.5421 16.0402 58.6502 16.0402C59.666 16.0402 59.943 15.8555 60.8665 15.6708C61.7899 15.5785 63.7291 16.6866 62.1593 17.8871ZM75.2721 18.7182C74.8104 19.8263 74.441 20.9344 74.164 22.3196C73.7946 24.1665 73.0559 26.0133 72.5941 27.6755C72.3171 28.6913 71.763 29.7071 71.3937 30.7229C70.9319 31.831 70.6549 32.8468 70.1932 33.9549C69.7315 34.9707 68.808 37.0946 68.6234 38.018C68.4387 38.7568 68.254 39.4955 67.5152 39.8649C66.6841 40.2343 64.4679 39.6802 66.3148 37.0946C67.1459 35.9865 68.9927 31.6463 69.0851 30.7229C68.0693 29.4301 68.0693 28.9683 67.4229 27.5832C66.9612 26.5674 66.4995 25.3669 65.9454 23.8894C65.4837 22.5043 65.2066 21.6732 64.8373 20.288C64.4679 18.7182 63.6368 17.2407 63.9138 16.4096C64.2832 15.4862 65.299 15.5785 65.853 16.0402C66.3148 16.3172 66.4995 17.6101 66.6841 18.9029C66.8688 20.011 66.9612 20.8421 67.2382 21.5808C67.7923 23.6124 68.4387 25.1822 69.0851 26.9368C69.3621 27.5832 69.7315 28.876 70.1009 28.5066C70.6549 27.5832 71.486 24.0741 72.0401 22.0426C72.7788 19.9186 73.2405 16.6866 74.2563 16.0402C75.0874 15.7632 76.0109 15.9479 76.1955 16.6866C76.2879 17.5177 75.6415 17.9794 75.2721 18.7182ZM92.6327 17.5177C91.0629 18.9029 85.984 15.2091 84.9682 22.8737C84.7835 24.0741 84.7835 24.9052 84.8759 26.0133C85.1529 28.4143 89.9548 25.8286 91.5246 29.153C92.3557 30.8152 92.171 33.1238 91.7093 34.6937C91.4323 35.7094 91.3399 36.2635 90.9706 37.1869C89.8624 40.5113 86.4457 40.419 84.1371 40.6037C82.5673 40.6037 78.9659 41.1577 79.2429 38.9415C79.4276 37.9257 80.4434 38.3874 81.3668 38.5721C83.029 38.8491 84.8759 38.6644 86.1687 38.3874C86.9074 38.2027 87.9232 38.2951 88.4773 37.3716C89.4007 35.8941 89.3084 35.6171 89.6777 33.3085C89.8624 31.831 90.1395 29.8918 88.3849 29.5224C86.8151 29.153 85.5223 29.5224 83.9524 28.7837C81.1821 27.5832 82.5673 22.7813 83.029 20.3804C83.1213 18.9029 84.8759 16.2249 86.4457 16.0402C87.3691 15.9479 88.1079 15.6708 89.0313 15.7632C89.4931 15.7632 92.0787 15.4862 92.6327 16.8713C92.9098 16.9637 92.9098 17.2407 92.6327 17.5177ZM107.315 40.3266C106.3 40.7883 105.284 40.419 105.099 39.4032C104.914 38.6644 105.191 38.2951 105.099 37.464C105.099 37.2793 104.73 34.8783 104.453 34.6013C104.176 34.2319 103.16 34.2319 102.236 34.3243C101.313 34.4166 100.297 34.1396 99.4662 34.2319C98.2657 34.2319 97.527 34.2319 97.3423 34.509C97.1576 34.6937 96.7882 35.8941 96.5112 36.7252C96.2342 37.5563 96.0495 38.018 95.8648 38.5721C95.6801 39.4032 95.8648 40.0496 95.0337 40.5113C94.4796 40.8807 93.3715 40.6037 93.0945 40.0496C92.5404 39.1262 93.7409 38.2951 94.4796 36.3558C94.9413 34.9707 95.4031 33.7702 95.8648 32.3851C96.3265 31.1846 96.9729 29.5224 97.3423 28.2296C97.804 26.8444 98.3581 25.5516 98.8198 24.2588C99.0968 23.5201 99.2815 22.966 99.6509 22.3196L101.036 18.1641C101.313 17.2407 100.944 16.5943 101.59 16.0402C102.237 16.0402 103.068 16.3172 103.437 16.779C103.622 17.5177 103.437 17.7947 103.437 18.4412C103.529 21.9502 105.192 26.9368 105.376 28.4143C105.561 29.3377 105.93 31.0922 106.3 32.9391C106.669 34.6013 107.038 36.3558 107.315 37.5563C107.685 38.3874 108.054 39.6802 107.315 40.3266ZM114.98 34.786C114.334 36.7252 113.779 37.464 113.225 39.4032C113.133 39.9573 112.948 40.3266 112.394 40.5113C108.978 40.1419 111.379 38.2027 112.302 35.3401C112.764 34.0473 114.795 30.5382 114.426 29.0607C114.057 27.6755 110.917 23.3354 110.086 20.6574C109.809 19.9186 109.07 17.6101 109.532 16.6866C109.993 15.5785 111.748 15.9479 111.933 17.056C111.933 17.9794 112.025 18.8105 112.21 19.734C112.579 21.6732 113.41 23.0583 114.149 24.3512C114.518 24.9976 115.072 26.0133 115.719 26.4751C115.903 26.5674 115.903 26.6597 116.088 26.4751C116.55 25.8287 116.734 24.6282 117.104 23.7971C117.566 22.689 118.581 19.5493 119.505 17.333C119.782 16.5943 120.336 16.2249 120.613 16.1326C121.259 16.2249 121.629 16.5019 121.998 16.9636C121.998 17.7947 121.721 17.7947 121.352 18.4412C120.521 19.9187 120.059 21.3038 119.505 22.7813C118.766 24.8129 118.12 26.2904 117.381 28.7837C116.827 30.6305 115.626 33.4008 114.98 34.786ZM133.264 18.5335C132.802 18.6258 132.156 18.4411 131.509 18.3488C130.032 18.2565 128.277 18.1641 127.354 18.9029C126.8 19.3646 126.338 20.1033 125.969 20.8421C125.415 21.8579 125.322 22.1349 125.23 23.243C124.861 25.3669 124.214 26.8444 127.077 27.1215C128.277 27.2138 128.647 27.1215 129.663 27.7679C131.232 28.9683 130.678 31.2769 130.309 33.0315C130.032 33.8626 129.94 34.6937 129.755 35.5248C129.109 37.8334 129.109 38.7568 127.446 39.5879C126.708 39.9573 125.045 40.3266 124.491 40.3266C123.291 40.3266 121.906 40.419 120.613 40.6037C118.951 40.7884 117.658 40.7884 117.843 39.2185C118.12 38.3874 119.228 38.2951 120.059 38.4798C120.89 38.6644 121.629 38.5721 122.552 38.5721C124.584 38.3874 127.169 38.8491 127.631 35.5248C127.816 34.1396 128.37 33.4932 128.554 31.1846C128.647 30.0765 128.647 29.6148 127.631 29.3377C126.8 29.0607 126.338 29.153 125.599 28.9683C125.045 28.876 124.214 28.599 123.753 28.2296C122.367 27.2138 122.922 24.4435 123.106 23.0583C123.383 21.4885 124.214 18.8105 125.322 17.7024C126.061 16.9636 126.246 16.5019 128.093 16.4096C129.201 16.3172 130.309 16.5019 131.417 16.5019C132.525 16.5019 133.633 16.5019 133.726 17.6101C133.818 18.0718 133.449 18.5335 133.264 18.5335Z" fill="white"/>
</g>
</svg>
