<svg width="181" height="66" viewBox="0 0 181 66" fill="none" xmlns="http://www.w3.org/2000/svg">
<path fill-rule="evenodd" clip-rule="evenodd" d="M126.177 31.2519C125.724 28.9848 125.497 26.7178 125.27 26.7178C124.93 26.7178 123.117 31.592 122.777 33.1789C122.55 34.0857 120.17 38.7332 120.963 39.7534C121.87 40.3202 123.23 39.8668 124.364 39.9801C125.951 40.0935 126.177 39.9801 127.651 39.6401C128.104 39.4133 127.538 37.7131 127.197 35.6727C126.971 34.3125 126.517 32.6121 126.177 31.2519Z" fill="black"/>
<path fill-rule="evenodd" clip-rule="evenodd" d="M173.785 10.848C170.951 8.35425 168.344 6.7673 164.944 4.8403C151.681 -2.64102 137.285 0.872936 122.89 0.532876C114.275 0.30617 99.9922 -0.373955 92.0575 0.872931C86.6165 1.77976 81.7423 2.11982 76.188 2.23318C64.626 2.91329 45.3559 8.12754 39.5749 9.94119C31.6402 12.435 23.9322 14.8154 17.131 18.216C11.1232 21.1632 4.6621 27.851 2.50839 34.1988C0.354678 39.6397 -0.665501 39.5264 0.468032 46.6676C2.05498 56.9828 19.058 63.784 29.1464 64.2374C39.5749 64.8042 49.55 63.4439 59.185 64.2374C67.7999 64.9175 80.1554 65.3709 88.9969 65.0309C99.1987 64.2374 106.68 65.4843 119.489 64.8042C131.844 64.1241 134.225 62.6505 145.334 60.1567C153.608 58.343 170.385 50.4083 174.579 43.8338C180.7 33.7454 185.007 20.8231 173.785 10.848ZM39.4616 48.0279C38.1013 49.1614 34.474 49.2748 32.7737 49.5015C30.9601 49.6148 30.7334 49.5015 29.1464 49.3881C25.2924 49.2748 22.6853 48.8214 21.4384 45.1941C20.5316 42.2469 20.5316 41.4534 20.3049 38.2795C20.3049 37.3727 20.3049 34.8789 20.5316 34.0854C20.7583 32.7252 21.0983 31.0249 21.325 29.778C21.4384 29.0979 22.2319 27.3976 22.4586 26.7175C23.9322 23.3169 26.766 20.8231 30.3933 20.3697C31.5268 20.0296 34.8141 20.0296 36.8544 20.3697C37.1945 20.4831 38.2147 20.8231 38.4414 21.0498C39.2348 22.07 38.4414 23.997 36.8544 23.4302C34.8141 22.7501 31.8669 22.8635 29.8265 23.4302C27.6728 24.1104 26.8793 25.0172 25.6325 26.8308C24.3856 28.5311 23.8188 32.7252 23.4787 33.7454C23.252 35.1056 23.0253 36.2391 23.0253 37.486C23.0253 39.6397 23.5921 43.3804 24.0455 44.4006C24.4989 45.1941 24.839 45.7608 26.0859 46.2142C27.3328 46.6677 31.9802 46.8944 33.2271 46.6676C34.5874 46.5543 35.4942 46.2142 36.8544 45.7608C37.988 45.4208 39.0081 45.8742 39.4616 46.781C39.6883 47.2344 39.6883 47.8012 39.4616 48.0279ZM56.6913 48.0279C56.1245 48.4813 54.6509 48.0279 53.404 48.0279C51.5904 47.9145 49.8901 48.1412 48.0764 48.2546C47.5096 48.3679 47.0562 48.2546 46.4895 48.3679C44.5625 48.5947 42.9755 47.0077 45.3559 45.9875C45.9227 45.7608 46.9429 46.1009 47.8497 45.9875C48.9832 45.7608 48.4165 42.1335 48.4165 40.8866C48.5298 39.1863 48.6432 23.2035 48.1898 23.2035C47.3963 23.0902 46.7162 23.2035 45.9227 23.2035C45.1292 23.2035 44.5625 23.5436 43.8823 23.5436C42.7488 23.4302 41.2752 22.7501 41.5019 21.5032C41.7286 20.3697 43.769 21.1632 45.3559 21.1632C47.7363 21.0498 49.7767 20.9365 51.9304 20.483C53.5174 20.143 54.0841 19.3495 55.7844 20.143C56.4645 20.4831 56.6912 21.2765 56.5779 21.8433C56.1245 22.9768 51.9304 22.07 51.1369 23.0902C50.9102 23.2035 51.0236 26.2641 51.0236 30.1181C51.0236 33.4053 51.1369 37.146 51.0236 39.7531C51.0236 40.7733 50.9102 44.854 51.0236 45.5341C51.3636 46.781 55.6711 44.9674 57.0313 46.6676C57.4847 47.2344 57.1447 47.8012 56.6913 48.0279ZM76.3014 21.9566C74.8278 22.6368 70.9738 21.5032 70.2936 22.1833C69.7269 22.5234 69.8402 26.6041 69.6135 28.3044C69.2735 30.7982 69.5002 32.3851 69.5002 34.7656C69.5002 37.0326 69.0468 41.4534 68.9334 44.5139C68.7067 45.6475 69.0468 46.781 68.9334 47.8012C68.7067 48.8214 67.0064 49.2748 65.9862 48.4813C64.8527 47.4611 65.7595 46.3276 65.9862 45.3074C66.4396 43.0403 66.3263 40.2065 66.553 37.8261C66.7797 35.1056 66.553 32.3851 66.7797 29.778C66.893 28.3044 67.4598 23.4302 67.1198 22.2967C66.893 21.7299 63.1524 22.6368 61.7921 22.8635C60.5453 23.0902 58.9583 22.5234 58.7316 21.3899C58.7316 21.1632 58.6183 20.9365 58.6183 20.7098C59.185 19.4629 60.2052 20.483 63.9459 20.0296C65.4194 19.9163 67.7999 19.3495 69.1601 19.5762C70.5203 19.8029 70.6337 19.6896 71.9939 19.6896C73.2408 19.6896 73.5809 19.4629 74.7144 19.2362C75.848 19.1228 78.2284 20.483 76.3014 21.9566ZM92.3975 22.9768C91.8308 24.3371 91.3773 25.6973 91.0373 27.3976C90.5839 29.6647 89.6771 31.9317 89.1103 33.9721C88.7702 35.219 88.0901 36.4659 87.6367 37.7127C87.0699 39.073 86.7299 40.3199 86.1631 41.6801C85.5963 42.927 84.4628 45.5341 84.2361 46.6676C84.0094 47.5745 83.7827 48.4813 82.8759 48.9347C81.8557 49.3881 79.1352 48.708 81.4023 45.5341C82.4224 44.1739 84.6895 38.8463 84.8029 37.7127C83.556 36.1258 83.556 35.559 82.7625 33.8587C82.1957 32.6118 81.629 31.1383 80.9489 29.3246C80.3821 27.6243 80.042 26.6041 79.5886 24.9038C79.1352 22.9768 78.115 21.1632 78.4551 20.143C78.9085 19.0095 80.1554 19.1228 80.8355 19.6896C81.4023 20.0296 81.629 21.6166 81.8557 23.2035C82.0824 24.5638 82.1957 25.5839 82.5358 26.4908C83.2159 28.9845 84.0094 30.9115 84.8029 33.0653C85.1429 33.8587 85.5963 35.4457 86.0498 34.9923C86.7299 33.8587 87.7501 29.5513 88.4302 27.0575C89.337 24.4504 89.9038 20.483 91.1507 19.6896C92.1708 19.3495 93.3044 19.5762 93.5311 20.483C93.6444 21.5032 92.8509 22.07 92.3975 22.9768ZM113.708 21.5032C111.781 23.2035 105.547 18.6694 104.3 28.0777C104.073 29.5513 104.073 30.5715 104.186 31.9317C104.526 34.8789 110.421 31.705 112.348 35.7857C113.368 37.8261 113.141 40.6599 112.574 42.5869C112.234 43.8338 112.121 44.5139 111.668 45.6475C110.307 49.7282 106.113 49.6148 103.279 49.8415C101.352 49.8415 96.9317 50.5217 97.2717 47.8012C97.4984 46.5543 98.7453 47.1211 99.8788 47.3478C101.919 47.6878 104.186 47.4611 105.773 47.1211C106.68 46.8943 107.927 47.0077 108.607 45.8742C109.741 44.0605 109.627 43.7205 110.081 40.8866C110.307 39.073 110.647 36.6926 108.494 36.2392C106.567 35.7857 104.98 36.2392 103.053 35.3323C99.6521 33.8587 101.352 27.9644 101.919 25.0172C102.033 23.2035 104.186 19.9163 106.113 19.6896C107.247 19.5762 108.154 19.2362 109.287 19.3495C109.854 19.3495 113.028 19.0095 113.708 20.7098C114.048 20.8231 114.048 21.1632 113.708 21.5032ZM131.731 49.5015C130.484 50.0682 129.237 49.6148 129.011 48.3679C128.784 47.4611 129.124 47.0077 129.011 45.9875C129.011 45.7608 128.557 42.8136 128.217 42.4736C127.877 42.0202 126.63 42.0202 125.497 42.1335C124.363 42.2469 123.116 41.9068 122.096 42.0202C120.622 42.0202 119.716 42.0202 119.489 42.3602C119.262 42.5869 118.809 44.0605 118.469 45.0807C118.129 46.1009 117.902 46.6677 117.675 47.3478C117.449 48.368 117.675 49.1614 116.655 49.7282C115.975 50.1816 114.615 49.8415 114.275 49.1614C113.595 48.0279 115.068 47.0077 115.975 44.6273C116.542 42.927 117.109 41.4534 117.675 39.7531C118.242 38.2795 119.036 36.2391 119.489 34.6522C120.056 32.9519 120.736 31.365 121.303 29.778C121.643 28.8712 121.869 28.1911 122.323 27.3976L124.023 22.2967C124.363 21.1632 123.91 20.3697 124.703 19.6896C125.497 19.6896 126.517 20.0296 126.97 20.5964C127.197 21.5032 126.97 21.8433 126.97 22.6368C127.084 26.9442 129.124 33.0653 129.351 34.8789C129.577 36.0125 130.031 38.1662 130.484 40.4332C130.938 42.4736 131.391 44.6273 131.731 46.1009C132.185 47.1211 132.638 48.708 131.731 49.5015ZM141.139 42.7003C140.346 45.0807 139.666 45.9875 138.986 48.3679C138.872 49.0481 138.646 49.5015 137.966 49.7282C133.771 49.2748 136.719 46.8944 137.852 43.3804C138.419 41.7935 140.913 37.486 140.459 35.6724C140.006 33.9721 136.152 28.6445 135.132 25.3572C134.792 24.4504 133.885 21.6166 134.452 20.483C135.018 19.1228 137.172 19.5762 137.399 20.9365C137.399 22.07 137.512 23.0902 137.739 24.2237C138.192 26.6041 139.212 28.3044 140.119 29.8914C140.573 30.6848 141.253 31.9317 142.046 32.4985C142.273 32.6118 142.273 32.7252 142.5 32.4985C143.066 31.705 143.293 30.2314 143.747 29.2113C144.313 27.851 145.56 23.997 146.694 21.2765C147.034 20.3697 147.714 19.9163 148.054 19.8029C148.847 19.9163 149.301 20.2563 149.754 20.8231C149.754 21.8433 149.414 21.8433 148.961 22.6368C147.941 24.4504 147.374 26.1507 146.694 27.9644C145.787 30.4581 144.993 32.2718 144.087 35.3323C143.406 37.5994 141.933 41 141.139 42.7003ZM163.583 22.7501C163.017 22.8635 162.223 22.6368 161.43 22.5234C159.616 22.41 157.462 22.2967 156.329 23.2035C155.649 23.7703 155.082 24.6771 154.628 25.5839C153.948 26.8308 153.835 27.1709 153.722 28.5311C153.268 31.1383 152.475 32.9519 155.989 33.292C157.462 33.4053 157.916 33.292 159.163 34.0854C161.09 35.559 160.409 38.3929 159.956 40.5466C159.616 41.5668 159.503 42.5869 159.276 43.6071C158.482 46.4409 158.482 47.5745 156.442 48.5947C155.535 49.0481 153.495 49.5015 152.815 49.5015C151.341 49.5015 149.641 49.6148 148.054 49.8415C146.014 50.0683 144.427 50.0683 144.653 48.1412C144.993 47.1211 146.354 47.0077 147.374 47.2344C148.394 47.4611 149.301 47.3478 150.434 47.3478C152.928 47.1211 156.102 47.6878 156.669 43.6071C156.896 41.9068 157.576 41.1133 157.802 38.2795C157.916 36.9193 157.916 36.3525 156.669 36.0125C155.649 35.6724 155.082 35.7857 154.175 35.559C153.495 35.4457 152.475 35.1056 151.908 34.6522C150.208 33.4053 150.888 30.0047 151.115 28.3044C151.455 26.3774 152.475 23.0902 153.835 21.7299C154.742 20.8231 154.969 20.2563 157.236 20.143C158.596 20.0296 159.956 20.2563 161.316 20.2563C162.677 20.2563 164.037 20.2563 164.15 21.6166C164.264 22.1833 163.81 22.7501 163.583 22.7501Z" fill="black"/>
</svg>
