<svg width="14" height="13" viewBox="0 0 14 13" fill="none" xmlns="http://www.w3.org/2000/svg">
<path fill-rule="evenodd" clip-rule="evenodd" d="M4.85861 10.4699C5.50548 10.4699 6.03125 10.9441 6.03125 11.5276C6.03125 12.111 5.50548 12.5838 4.85861 12.5838C4.21174 12.5838 3.6875 12.111 3.6875 11.5276C3.6875 10.9441 4.21174 10.4699 4.85861 10.4699Z" fill="#665F5F"/>
<path fill-rule="evenodd" clip-rule="evenodd" d="M11.0113 10.4699C11.6581 10.4699 12.1839 10.9441 12.1839 11.5276C12.1839 12.111 11.6581 12.5838 11.0113 12.5838C10.3644 12.5838 9.83862 12.111 9.83862 11.5276C9.83862 10.9441 10.3644 10.4699 11.0113 10.4699Z" fill="#665F5F"/>
<path d="M0.718628 1.30972L2.01863 1.51266L3.558 7.98004C3.60675 8.5071 4.09488 8.91184 4.68113 8.91184H10.5636C11.1236 8.91184 11.5986 8.54092 11.6793 8.04036L13.0625 3.7054C13.1356 3.24936 12.7437 2.84124 12.2331 2.84124L3.16488 3.47942" stroke="#665F5F" stroke-width="1.2" stroke-linecap="round" stroke-linejoin="round"/>
</svg>
