<svg width="83" height="86" viewBox="0 0 83 86" fill="none" xmlns="http://www.w3.org/2000/svg">
<path fill-rule="evenodd" clip-rule="evenodd" d="M47.8816 25.956C55.6558 24.5017 63.0004 15.7445 70.1209 19.1871C76.9619 22.4946 75.2109 33.0218 77.4893 40.2708C79.4471 46.4998 83.2988 52.2909 82.5646 58.7789C81.821 65.3504 78.2245 71.3708 73.4521 75.9492C68.9142 80.3025 62.8182 82.4372 56.6466 83.643C50.885 84.7687 45.2922 82.7453 39.4236 82.5975C30.9986 82.3852 20.6175 88.5388 14.6527 82.5852C8.84687 76.7901 15.8655 66.663 15.2631 58.4821C14.7195 51.0993 8.12378 43.7726 11.3026 37.0872C14.4866 30.3907 23.3218 28.7731 30.4155 26.6145C36.1045 24.8833 42.0364 27.0494 47.8816 25.956Z" fill="#FFD1D7"/>
<path d="M20.9651 14.9201C21.6287 14.9201 22.2649 14.6565 22.7342 14.1873C23.2034 13.7181 23.467 13.0817 23.467 12.4181V3.40456C23.467 2.741 23.2034 2.10461 22.7342 1.63539C22.2649 1.16618 21.6287 0.902588 20.9651 0.902588C20.3015 0.902588 19.665 1.16618 19.1958 1.63539C18.7266 2.10461 18.463 2.741 18.463 3.40456V12.4181C18.463 13.0817 18.7266 13.7181 19.1958 14.1873C19.665 14.6565 20.3015 14.9201 20.9651 14.9201ZM19.9707 3.40456C19.9707 3.14084 20.0754 2.88792 20.2618 2.70144C20.4483 2.51496 20.7014 2.41019 20.9651 2.41019C21.2288 2.41019 21.4817 2.51496 21.6681 2.70144C21.8546 2.88792 21.9595 3.14084 21.9595 3.40456V12.4181C21.9595 12.6833 21.8551 12.9379 21.6691 13.127C21.4831 13.316 21.2303 13.4243 20.9651 13.4285C20.6999 13.4243 20.4469 13.316 20.2609 13.127C20.0748 12.9379 19.9707 12.6833 19.9707 12.4181V3.40456Z" fill="#665F5F"/>
<path d="M18.463 38.7528C18.463 39.0814 18.5278 39.4067 18.6535 39.7103C18.7792 40.0139 18.9635 40.2897 19.1958 40.522C19.4281 40.7543 19.704 40.9386 20.0075 41.0644C20.3111 41.1901 20.6365 41.2548 20.9651 41.2548C21.2937 41.2548 21.6189 41.1901 21.9225 41.0644C22.226 40.9386 22.5018 40.7543 22.7342 40.522C22.9665 40.2897 23.1507 40.0139 23.2765 39.7103C23.4022 39.4067 23.467 39.0814 23.467 38.7528V29.7393C23.467 29.4107 23.4022 29.0854 23.2765 28.7818C23.1507 28.4783 22.9665 28.2025 22.7342 27.9701C22.5018 27.7378 22.226 27.5535 21.9225 27.4278C21.6189 27.302 21.2937 27.2373 20.9651 27.2373C20.6365 27.2373 20.3111 27.302 20.0075 27.4278C19.704 27.5535 19.4281 27.7378 19.1958 27.9701C18.9635 28.2025 18.7792 28.4783 18.6535 28.7818C18.5278 29.0854 18.463 29.4107 18.463 29.7393V38.7528ZM19.9707 29.7393C19.9707 29.4756 20.0754 29.2226 20.2618 29.0362C20.4483 28.8497 20.7014 28.7449 20.9651 28.7449C21.2288 28.7449 21.4817 28.8497 21.6681 29.0362C21.8546 29.2226 21.9595 29.4756 21.9595 29.7393V38.7528C21.9595 39.0181 21.8551 39.2726 21.6691 39.4617C21.4831 39.6507 21.2303 39.759 20.9651 39.7632C20.8331 39.7633 20.7025 39.737 20.5808 39.686C20.4591 39.6351 20.3487 39.5604 20.2562 39.4664C20.1636 39.3723 20.0906 39.2608 20.0416 39.1383C19.9926 39.0158 19.9686 38.8848 19.9707 38.7528V29.7393Z" fill="#665F5F"/>
<path d="M33.4588 6.08303C33.1303 6.08166 32.8049 6.14626 32.5019 6.27298C32.1988 6.39971 31.9244 6.58601 31.6946 6.8208L25.2793 13.2361C25.0445 13.4659 24.8583 13.7404 24.7315 14.0434C24.6048 14.3465 24.5402 14.6719 24.5416 15.0004C24.5404 15.4951 24.6858 15.9791 24.9596 16.3912C25.2334 16.8033 25.6234 17.125 26.0801 17.3155C26.5367 17.5061 27.0394 17.5569 27.5249 17.4617C28.0104 17.3665 28.4568 17.1295 28.8077 16.7806L35.223 10.3653C35.5719 10.0145 35.8089 9.56803 35.9041 9.08251C35.9993 8.59698 35.9486 8.09414 35.7581 7.63753C35.5675 7.18091 35.2459 6.79103 34.8338 6.5172C34.4217 6.24336 33.9375 6.09787 33.4428 6.09908L33.4588 6.08303ZM26.3861 15.706C26.2895 15.6157 26.2126 15.5064 26.1601 15.3849C26.1077 15.2635 26.0808 15.1326 26.0812 15.0004C26.0859 14.7342 26.1955 14.4806 26.3861 14.2947L32.8014 7.87934C32.9873 7.68876 33.2408 7.57925 33.507 7.57461C33.6392 7.57418 33.7701 7.60103 33.8915 7.65346C34.0129 7.70589 34.1222 7.78278 34.2126 7.87934C34.3097 7.96942 34.3873 8.0786 34.4403 8.20003C34.4933 8.32146 34.5207 8.45253 34.5207 8.58503C34.5207 8.71753 34.4933 8.84858 34.4403 8.97001C34.3873 9.09144 34.3097 9.20061 34.2126 9.29069L27.7972 15.706C27.6023 15.8839 27.3456 15.9785 27.0819 15.9695C26.8181 15.9605 26.5684 15.8487 26.3861 15.6579V15.706Z" fill="#665F5F"/>
<path d="M17.3404 27.2697C17.3436 26.941 17.2799 26.615 17.153 26.3117C17.0262 26.0084 16.8388 25.7341 16.6025 25.5055C16.3714 25.2728 16.0967 25.088 15.7939 24.962C15.4912 24.8359 15.1663 24.771 14.8383 24.771C14.5104 24.771 14.1857 24.8359 13.8829 24.962C13.5801 25.088 13.3052 25.2728 13.0742 25.5055L6.65883 31.9208C6.4261 32.1536 6.24149 32.4299 6.11554 32.734C5.98958 33.0381 5.92465 33.364 5.92465 33.6931C5.92465 34.0222 5.98958 34.3481 6.11554 34.6522C6.24149 34.9563 6.4261 35.2326 6.65883 35.4653C6.89156 35.6981 7.16782 35.8827 7.4719 36.0086C7.77599 36.1346 8.1019 36.1994 8.43103 36.1994C8.76017 36.1994 9.08608 36.1346 9.39016 36.0086C9.69424 35.8827 9.9705 35.6981 10.2032 35.4653L16.6186 29.05C16.8509 28.816 17.0344 28.538 17.1583 28.2324C17.2822 27.9268 17.3442 27.5995 17.3404 27.2697ZM15.5441 27.9754L9.12879 34.3908C8.93375 34.5688 8.67908 34.6675 8.41498 34.6675C8.15088 34.6675 7.8964 34.5688 7.70136 34.3908C7.51844 34.1946 7.41538 33.9372 7.41258 33.669C7.41722 33.4029 7.52683 33.1492 7.71741 32.9634L14.1327 26.548C14.3215 26.3638 14.5746 26.2608 14.8383 26.2608C15.102 26.2608 15.3554 26.3638 15.5441 26.548C15.7283 26.7368 15.8313 26.99 15.8313 27.2537C15.8313 27.5174 15.7283 27.7706 15.5441 27.9594V27.9754Z" fill="#665F5F"/>
<path d="M27.1237 21.0789C27.1237 21.7425 27.3873 22.3789 27.8566 22.8481C28.3258 23.3173 28.9621 23.5809 29.6256 23.5809H38.7194C39.383 23.5809 40.0193 23.3173 40.4885 22.8481C40.9577 22.3789 41.2215 21.7425 41.2215 21.0789C41.2215 20.4154 40.9577 19.779 40.4885 19.3098C40.0193 18.8406 39.383 18.577 38.7194 18.577H29.7059C29.3706 18.5662 29.0367 18.623 28.7239 18.7439C28.411 18.8648 28.1256 19.0474 27.8847 19.2808C27.6439 19.5142 27.4522 19.7937 27.3215 20.1026C27.1908 20.4115 27.1236 20.7435 27.1237 21.0789ZM39.6335 21.0789C39.6336 21.3442 39.5294 21.5988 39.3434 21.7878C39.1573 21.9769 38.9043 22.0852 38.6392 22.0894H29.6256C29.3816 22.0584 29.1573 21.9395 28.9946 21.755C28.832 21.5705 28.7423 21.3329 28.7423 21.087C28.7423 20.841 28.832 20.6035 28.9946 20.4189C29.1573 20.2344 29.3816 20.1155 29.6256 20.0846H38.7194C38.969 20.1048 39.2017 20.2184 39.3712 20.4027C39.5407 20.5871 39.6343 20.8285 39.6335 21.0789Z" fill="#665F5F"/>
<path d="M3.29083 23.5809H12.3044C12.9679 23.5809 13.6042 23.3173 14.0734 22.848C14.5426 22.3788 14.8062 21.7424 14.8062 21.0789C14.8062 20.4153 14.5426 19.7789 14.0734 19.3097C13.6042 18.8405 12.9679 18.5769 12.3044 18.5769H3.29083C2.62726 18.5769 1.99078 18.8405 1.52156 19.3097C1.05235 19.7789 0.788757 20.4153 0.788757 21.0789C0.788757 21.7424 1.05235 22.3788 1.52156 22.848C1.99078 23.3173 2.62726 23.5809 3.29083 23.5809ZM3.29083 20.0845H12.3044C12.5484 20.1154 12.7727 20.2343 12.9354 20.4189C13.098 20.6034 13.1877 20.8409 13.1877 21.0869C13.1877 21.3329 13.098 21.5704 12.9354 21.7549C12.7727 21.9395 12.5484 22.0584 12.3044 22.0893H3.29083C3.14855 22.1073 3.00406 22.0949 2.86697 22.0527C2.72988 22.0106 2.60336 21.9398 2.49577 21.845C2.38817 21.7501 2.30185 21.6335 2.24282 21.5028C2.18379 21.3721 2.15335 21.2303 2.15335 21.0869C2.15335 20.9435 2.18379 20.8017 2.24282 20.671C2.30185 20.5403 2.38817 20.4237 2.49577 20.3288C2.60336 20.234 2.72988 20.1632 2.86697 20.1211C3.00406 20.0789 3.14855 20.0665 3.29083 20.0845Z" fill="#665F5F"/>
<path d="M13.0581 16.7323C13.288 16.9765 13.5646 17.1721 13.8716 17.3073C14.1785 17.4424 14.5096 17.5145 14.845 17.5192C15.1804 17.5239 15.5133 17.4611 15.8239 17.3346C16.1345 17.2081 16.4166 17.0203 16.6532 16.7826C16.8898 16.5449 17.0763 16.2621 17.2014 15.9509C17.3265 15.6397 17.3877 15.3065 17.3815 14.9711C17.3753 14.6358 17.3018 14.3051 17.1652 13.9987C17.0286 13.6924 16.8317 13.4166 16.5864 13.1878L10.1711 6.77251C9.93868 6.53926 9.66255 6.35418 9.35843 6.2279C9.05431 6.10162 8.72821 6.03662 8.39892 6.03662C8.06962 6.03662 7.74352 6.10162 7.4394 6.2279C7.13528 6.35418 6.85915 6.53926 6.62671 6.77251C6.16438 7.24334 5.90546 7.87686 5.90546 8.53674C5.90546 9.19661 6.16438 9.8301 6.62671 10.3009L13.0581 16.7323ZM7.74932 7.87916C7.8394 7.78199 7.94857 7.70448 8.07 7.65147C8.19144 7.59846 8.32261 7.5711 8.4551 7.5711C8.5876 7.5711 8.71858 7.59846 8.84001 7.65147C8.96144 7.70448 9.07062 7.78199 9.1607 7.87916L15.576 14.2945C15.6682 14.3873 15.7413 14.4975 15.7908 14.6186C15.8403 14.7397 15.8655 14.8693 15.8648 15.0002C15.8683 15.1314 15.8444 15.2619 15.7947 15.3834C15.745 15.5049 15.6705 15.6147 15.576 15.7058C15.3873 15.89 15.1341 15.9931 14.8704 15.9931C14.6067 15.9931 14.3534 15.89 14.1646 15.7058L7.74932 9.29052C7.56743 9.10018 7.46441 8.84809 7.46074 8.58485C7.46125 8.45274 7.48844 8.32211 7.54081 8.20083C7.59318 8.07954 7.66956 7.97012 7.76537 7.87916H7.74932Z" fill="#665F5F"/>
<path d="M56.8108 38.8332C56.7946 38.6581 56.7306 38.4907 56.626 38.3494C56.5213 38.208 56.3801 38.098 56.2174 38.0313L26.8993 25.345C26.7372 25.2716 26.5585 25.243 26.3816 25.2622C26.2047 25.2813 26.0362 25.3476 25.8937 25.4541C25.7512 25.5606 25.6398 25.7034 25.5713 25.8675C25.5027 26.0317 25.4795 26.2113 25.5039 26.3875L29.5296 58.0792C29.5491 58.2533 29.6143 58.4191 29.7185 58.56C29.8227 58.7008 29.9622 58.8116 30.123 58.8811C30.2861 58.9451 30.4627 58.9668 30.6365 58.9444C30.8103 58.922 30.9757 58.8561 31.1173 58.7528L38.4628 53.2356L46.1452 63.4681C46.2363 63.595 46.357 63.6978 46.4967 63.7677C46.6364 63.8375 46.791 63.8723 46.9472 63.8691C47.165 63.8672 47.3773 63.8002 47.5566 63.6766L56.5702 56.8924C56.6744 56.8135 56.762 56.7148 56.828 56.6019C56.8941 56.4891 56.9373 56.3643 56.9551 56.2348C56.9759 56.1052 56.9696 55.9727 56.9365 55.8457C56.9033 55.7187 56.8441 55.6 56.7626 55.4971L49.0802 45.2646L56.4259 39.7474C56.5657 39.6432 56.675 39.5034 56.7426 39.3427C56.8103 39.182 56.8339 39.0061 56.8108 38.8332ZM47.0754 44.2542C46.9712 44.3331 46.8836 44.4318 46.8176 44.5446C46.7515 44.6575 46.7083 44.7822 46.6905 44.9117C46.6683 45.0439 46.674 45.1792 46.7071 45.309C46.7403 45.4388 46.8002 45.5602 46.8829 45.6656L54.5654 55.898L47.1557 61.4633L39.4572 51.2309C39.3634 51.1068 39.2423 51.0061 39.1032 50.9365C38.9641 50.867 38.8108 50.8305 38.6553 50.8299C38.4393 50.8284 38.2295 50.9021 38.0619 51.0384L31.2937 56.1225L27.7172 27.8791L53.8437 39.1861L47.0754 44.2542Z" fill="#665F5F"/>
</svg>
