<svg width="84" height="84" viewBox="0 0 84 84" fill="none" xmlns="http://www.w3.org/2000/svg">
<path fill-rule="evenodd" clip-rule="evenodd" d="M48.098 20.7287C58.8868 19.4873 67.1457 2.84862 76.9319 7.80712C86.1229 12.464 83.484 27.5386 82.7435 38.283C82.07 48.0543 78.8202 56.9814 73.0161 64.6201C66.3179 73.4356 58.7908 84.2013 48.098 83.8799C37.4877 83.561 31.9104 71.2553 24.5578 63.1637C17.4607 55.3531 6.58531 49.1121 6.66597 38.283C6.74645 27.4781 15.4365 17.8115 24.9256 13.7911C32.672 10.509 39.8013 21.6833 48.098 20.7287Z" fill="#FFD1D7"/>
<path d="M36.5525 0.108327H33.2745C24.488 0.545201 16.2057 4.3432 10.1415 10.7164C4.07722 17.0897 0.69519 25.5503 0.69519 34.3476C0.69519 43.145 4.07722 51.6056 10.1415 57.9789C16.2057 64.3521 24.488 68.1501 33.2745 68.587H36.5525C45.3811 68.2069 53.7219 64.4324 59.8346 58.0509C65.9473 51.6693 69.3597 43.1739 69.3597 34.3371C69.3597 25.5003 65.9473 17.0048 59.8346 10.6233C53.7219 4.2418 45.3811 0.467228 36.5525 0.0871582V0.108327ZM59.1602 13.8337C56.7137 15.6755 54.059 17.2229 51.2507 18.444C48.8447 12.5942 45.1339 7.37159 40.4015 3.17482C47.7163 4.40277 54.361 8.17838 59.1602 13.8337ZM36.4256 3.25943C41.9023 7.44226 46.1715 13.0031 48.7974 19.3745C44.8225 20.7911 40.6446 21.5553 36.4256 21.6375V3.25943ZM36.4256 24.3021C40.9574 24.2202 45.4447 23.3914 49.7068 21.8489C51.0018 25.7952 51.6726 29.9195 51.6948 34.0728H36.4256V24.3021ZM36.4256 36.7374H51.6101C51.3659 40.8014 50.4957 44.8034 49.0301 48.6017C44.933 47.254 40.6538 46.5408 36.341 46.4869L36.4256 36.7374ZM29.3408 3.19599C24.7743 7.2464 21.1629 12.2591 18.7666 17.873C16.1535 16.6244 13.6855 15.0925 11.407 13.3049C16.1043 8.05877 22.4136 4.52464 29.3408 3.25943V3.19599ZM9.77849 15.3564C12.258 17.3321 14.9628 19.0074 17.8361 20.3474C16.303 24.7692 15.5098 29.4138 15.4886 34.0939H3.47628C3.49762 27.3506 5.70936 20.7969 9.77849 15.4198V15.3564ZM10.7725 54.481C6.58498 49.4667 4.0643 43.272 3.5609 36.7586H15.5732C15.8287 41.3086 16.8215 45.7869 18.5128 50.0187C15.7742 51.2381 13.1784 52.7559 10.7725 54.5445V54.481ZM12.5701 56.4478C14.7574 54.8686 17.1035 53.5219 19.5702 52.4296C21.9355 57.3559 25.2568 61.7627 29.3408 65.3936C22.9752 64.2135 17.123 61.114 12.5701 56.5113V56.4478ZM33.7186 65.6051C28.7348 61.8828 24.711 57.0251 21.9812 51.4356C25.7518 50.0618 29.7096 49.2702 33.7186 49.0881V65.6051ZM33.7186 46.4446C29.3402 46.6315 25.0171 47.4947 20.9026 49.0036C19.3365 45.0891 18.4151 40.9467 18.1744 36.7374H33.7186V46.4446ZM33.7186 34.0728H18.0899C18.0976 29.756 18.812 25.4696 20.2047 21.3837C24.5109 23.0837 29.0718 24.0487 33.6975 24.2387L33.7186 34.0728ZM33.7186 21.6163C29.4189 21.4169 25.1817 20.5095 21.1775 18.9305C23.8683 12.5961 28.1969 7.09234 33.7186 2.98449V21.6163ZM36.3621 65.3302V49.1305C40.2945 49.2081 44.1933 49.871 47.9303 51.0973C45.2886 56.7109 41.3442 61.6123 36.4256 65.3936L36.3621 65.3302ZM40.3592 65.4782C44.6187 61.7099 48.0531 57.1019 50.447 51.9432C53.1069 53.015 55.6334 54.3918 57.9759 56.046C53.2987 61.0172 47.1429 64.3472 40.4227 65.5416L40.3592 65.4782ZM59.7312 54.0369C57.162 52.2091 54.3865 50.69 51.4622 49.5111C53.0376 45.4159 53.9582 41.098 54.1903 36.7163H66.5833C66.1355 43.0653 63.7679 49.1281 59.7947 54.1004L59.7312 54.0369ZM66.6679 34.0728H54.3383C54.3372 29.5896 53.6233 25.1351 52.2235 20.8761C55.2871 19.5554 58.1777 17.8651 60.8309 15.8427C64.6609 21.1662 66.7246 27.557 66.7314 34.115L66.6679 34.0728Z" fill="#665F5F"/>
</svg>
