<svg width="79" height="86" viewBox="0 0 79 86" fill="none" xmlns="http://www.w3.org/2000/svg">
<path fill-rule="evenodd" clip-rule="evenodd" d="M46.4628 12.6453C57.218 11.6164 68.2698 17.3334 74.6043 26.1214C80.3355 34.0724 78.2328 44.7112 76.5451 54.3789C75.2116 62.0176 71.9131 68.9778 66.2099 74.2073C60.7842 79.1824 53.6803 80.5805 46.4628 81.9627C36.5584 83.8595 26.0424 88.7822 17.4082 83.5532C7.49485 77.5495 -0.361618 65.9325 0.916348 54.3789C2.14858 43.2388 14.9716 38.5926 23.2171 31.0374C30.7925 24.0962 36.2538 13.6219 46.4628 12.6453Z" fill="#FFD1D7"/>
<path d="M44.0847 28.5383L28.3354 44.1377L20.9063 36.7811" stroke="#665F5F" stroke-width="2" stroke-linecap="round" stroke-linejoin="round"/>
<path d="M32.7438 63.3858C47.9759 63.3858 60.3239 51.1554 60.3239 36.0684C60.3239 20.9814 47.9759 8.75098 32.7438 8.75098C17.5118 8.75098 5.16382 20.9814 5.16382 36.0684C5.16382 51.1554 17.5118 63.3858 32.7438 63.3858Z" stroke="#665F5F" stroke-width="2" stroke-linecap="round" stroke-linejoin="round"/>
<path d="M32.9598 57.0551C44.7013 57.0551 54.2197 47.6273 54.2197 35.9976C54.2197 24.3679 44.7013 14.9402 32.9598 14.9402C21.2183 14.9402 11.7 24.3679 11.7 35.9976C11.7 47.6273 21.2183 57.0551 32.9598 57.0551Z" stroke="#665F5F" stroke-width="2" stroke-linecap="round" stroke-linejoin="round"/>
<path d="M59.2201 18.0464L63.5214 13.2453L49.3385 1.38574L45.1647 6.29466L59.2201 18.0464ZM6.07718 18.0464L1.77588 13.2453L15.9571 1.38574L20.1325 6.29466L6.07718 18.0464Z" stroke="#665F5F" stroke-width="2" stroke-linecap="round" stroke-linejoin="round"/>
</svg>
