<svg width="18" height="21" viewBox="0 0 18 21" fill="none" xmlns="http://www.w3.org/2000/svg">
<g id="Group 379">
<path id="Vector" d="M13.1699 19.8874H4.57128C4.39027 19.8823 4.21188 19.8352 4.0463 19.7487C3.88072 19.6622 3.73119 19.538 3.60626 19.3832C3.48133 19.2284 3.38344 19.0461 3.31819 18.8466C3.25294 18.6472 3.22161 18.4345 3.22599 18.2207V7.23733H4.16675V18.2207C4.16226 18.2886 4.16918 18.3568 4.1871 18.4216C4.20503 18.4863 4.23361 18.5462 4.27121 18.5978C4.3088 18.6494 4.35466 18.6918 4.40616 18.7224C4.45766 18.753 4.51377 18.7713 4.57128 18.7762H13.1699C13.2274 18.7713 13.2835 18.753 13.335 18.7224C13.3865 18.6918 13.4323 18.6494 13.4699 18.5978C13.5075 18.5462 13.5361 18.4863 13.554 18.4216C13.572 18.3568 13.5789 18.2886 13.5744 18.2207V7.23733H14.5151V18.2207C14.5195 18.4345 14.4882 18.6472 14.4229 18.8466C14.3577 19.0461 14.2598 19.2284 14.1349 19.3832C14.0099 19.538 13.8604 19.6622 13.6948 19.7487C13.5292 19.8352 13.3509 19.8823 13.1699 19.8874Z" fill="#665F5F"/>
<path id="Vector_2" d="M14.882 5.99842H2.75554C2.63078 5.99842 2.51114 5.93989 2.42293 5.8357C2.33471 5.73152 2.28516 5.59021 2.28516 5.44287C2.28516 5.29552 2.33471 5.15422 2.42293 5.05003C2.51114 4.94584 2.63078 4.88731 2.75554 4.88731H14.882C15.0067 4.88731 15.1264 4.94584 15.2146 5.05003C15.3028 5.15422 15.3524 5.29552 15.3524 5.44287C15.3524 5.59021 15.3028 5.73152 15.2146 5.8357C15.1264 5.93989 15.0067 5.99842 14.882 5.99842Z" fill="#665F5F"/>
<path id="Vector_3" d="M10.2817 8.22066H11.2225V16.554H10.2817V8.22066Z" fill="#665F5F"/>
<path id="Vector_4" d="M6.51855 8.22066H7.45932V16.554H6.51855V8.22066Z" fill="#665F5F"/>
<path id="Vector_5" d="M11.2224 4.25398H10.3286V3.22064H7.41228V4.25398H6.51856V3.22064C6.51825 2.93533 6.61089 2.66082 6.77726 2.45397C6.94364 2.24712 7.17102 2.12379 7.41228 2.10953H10.3286C10.5699 2.12379 10.7973 2.24712 10.9637 2.45397C11.13 2.66082 11.2227 2.93533 11.2224 3.22064V4.25398Z" fill="#665F5F"/>
</g>
</svg>
