<svg width="40" height="52" viewBox="0 0 40 52" fill="none" xmlns="http://www.w3.org/2000/svg">
<path fill-rule="evenodd" clip-rule="evenodd" d="M21.5074 19.3931C27.0545 18.7548 31.3008 10.2001 36.3323 12.7495C41.0579 15.1438 39.7011 22.8944 39.3204 28.4186C38.9741 33.4425 37.3032 38.0324 34.319 41.9598C30.8752 46.4923 27.0051 52.0275 21.5074 51.8622C16.0521 51.6983 13.1846 45.3713 9.40427 41.211C5.75527 37.1952 0.163715 33.9864 0.205185 28.4186C0.246564 22.8633 4.71453 17.8932 9.59334 15.8261C13.5762 14.1386 17.2417 19.8839 21.5074 19.3931Z" fill="#FFD1D7"/>
<path d="M33.49 16.3615C33.7531 15.3787 33.8856 14.3703 33.8846 13.3583C33.9419 11.6536 33.6251 9.95564 32.9531 8.36527C32.2811 6.7749 31.2675 5.32447 29.9725 4.10004C28.6775 2.87562 27.1275 1.90211 25.4144 1.23732C23.7013 0.57253 21.86 0.22998 19.9997 0.22998C18.1395 0.22998 16.2983 0.57253 14.5852 1.23732C12.8721 1.90211 11.322 2.87562 10.027 4.10004C8.73202 5.32447 7.71849 6.7749 7.04646 8.36527C6.37444 9.95564 6.05762 11.6536 6.11485 13.3583C6.11391 14.3703 6.24641 15.3787 6.50948 16.3615C6.76514 18.0693 7.27415 19.7371 8.02232 21.3186C9.3378 23.9479 15.1259 32.6198 17.77 36.5758C14.205 36.9858 12.5081 38.397 12.5081 39.7237C12.5081 41.2916 14.8365 42.9922 19.9537 42.9922C25.0709 42.9922 27.4125 41.2916 27.4125 39.7237C27.4125 38.397 25.755 36.9858 22.1506 36.5758C24.7815 32.6198 30.5302 23.9479 31.8983 21.3186C32.6736 19.7407 33.2091 18.0728 33.49 16.3615ZM25.3077 39.7237C25.163 40.0976 23.3608 41.0263 20.0458 41.0263C16.7308 41.0263 14.8497 40.0734 14.7839 39.7357C14.876 39.4101 16.3361 38.602 19.1118 38.4452L19.1776 38.5538C19.2768 38.6931 19.4124 38.8076 19.572 38.8868C19.7317 38.9661 19.9103 39.0075 20.0918 39.0075C20.2734 39.0075 20.4521 38.9661 20.6117 38.8868C20.7713 38.8076 20.9069 38.6931 21.0061 38.5538V38.4452C23.716 38.602 25.1762 39.4342 25.3077 39.7237ZM31.3984 15.9273C31.3984 15.9273 31.3984 15.9273 31.3984 16.0118C31.1707 17.5449 30.7286 19.0448 30.0829 20.4743C28.7675 23.1278 22.4137 32.5957 20.0327 36.1537C17.6648 32.5957 11.3768 23.1278 9.99554 20.4743C9.34375 19.0467 8.9014 17.5461 8.68006 16.0118C8.68006 16.0118 8.68006 16.0118 8.68006 15.9394C8.45552 15.0944 8.3407 14.228 8.33802 13.3583C8.32891 11.8297 8.67481 10.3168 9.35273 8.92025C10.0306 7.52367 11.0251 6.27535 12.2698 5.25837C13.5146 4.24138 14.9812 3.47901 16.5722 3.02189C18.1632 2.56476 19.8421 2.42338 21.4972 2.60714C23.1524 2.7909 24.746 3.2956 26.172 4.08768C27.598 4.87976 28.8238 5.94106 29.7678 7.20106C30.7118 8.46105 31.3526 9.8909 31.6473 11.3955C31.9421 12.9 31.8841 14.4449 31.4774 15.9273H31.3984Z" fill="#665F5F"/>
<path d="M19.9931 6.19434C18.5179 6.19434 17.0758 6.59541 15.8492 7.34685C14.6226 8.09828 13.6667 9.16632 13.1022 10.4159C12.5376 11.6655 12.3899 13.0405 12.6777 14.3671C12.9655 15.6937 13.6759 16.9122 14.719 17.8686C15.7621 18.825 17.0911 19.4763 18.538 19.7401C19.9849 20.004 21.4846 19.8685 22.8475 19.3509C24.2104 18.8334 25.3753 17.9568 26.1949 16.8322C27.0145 15.7076 27.4519 14.3855 27.4519 13.0329C27.4519 11.2192 26.6661 9.4798 25.2673 8.19731C23.8685 6.91483 21.9713 6.19434 19.9931 6.19434ZM19.9931 17.8935C18.9524 17.8935 17.9351 17.6106 17.0698 17.0805C16.2045 16.5503 15.53 15.7968 15.1318 14.9153C14.7335 14.0338 14.6293 13.0637 14.8323 12.1279C15.0354 11.192 15.5365 10.3325 16.2724 9.65775C17.0083 8.98305 17.9459 8.52355 18.9666 8.3374C19.9873 8.15125 21.0453 8.24676 22.0068 8.61191C22.9683 8.97706 23.7901 9.59545 24.3683 10.3888C24.9465 11.1822 25.255 12.1149 25.255 13.0691C25.255 14.3486 24.7006 15.5757 23.7138 16.4805C22.727 17.3852 21.3887 17.8935 19.9931 17.8935Z" fill="#665F5F"/>
</svg>
