<svg width="26" height="26" viewBox="0 0 26 26" fill="none" xmlns="http://www.w3.org/2000/svg">
<path d="M13.0927 9.24054C10.8198 9.24054 8.96492 11.0954 8.96492 13.3683C8.96492 15.6413 10.8198 17.4961 13.0927 17.4961C15.3656 17.4961 17.2205 15.6413 17.2205 13.3683C17.2205 11.0954 15.3656 9.24054 13.0927 9.24054ZM25.473 13.3683C25.473 11.659 25.4885 9.96515 25.3925 8.25892C25.2965 6.27708 24.8444 4.5182 23.3952 3.06899C21.9428 1.61667 20.1871 1.16766 18.2052 1.07167C16.4959 0.975672 14.802 0.991155 13.0958 0.991155C11.3865 0.991155 9.69263 0.975672 7.98639 1.07167C6.00456 1.16766 4.24568 1.61977 2.79646 3.06899C1.34415 4.5213 0.895141 6.27708 0.799145 8.25892C0.70315 9.96825 0.718633 11.6621 0.718633 13.3683C0.718633 15.0746 0.70315 16.7715 0.799145 18.4778C0.895141 20.4596 1.34725 22.2185 2.79646 23.6677C4.24878 25.12 6.00456 25.569 7.98639 25.665C9.69573 25.761 11.3896 25.7455 13.0958 25.7455C14.8051 25.7455 16.499 25.761 18.2052 25.665C20.1871 25.569 21.9459 25.1169 23.3952 23.6677C24.8475 22.2154 25.2965 20.4596 25.3925 18.4778C25.4916 16.7715 25.473 15.0777 25.473 13.3683ZM13.0927 19.7195C9.57805 19.7195 6.74155 16.883 6.74155 13.3683C6.74155 9.85367 9.57805 7.01717 13.0927 7.01717C16.6074 7.01717 19.4439 9.85367 19.4439 13.3683C19.4439 16.883 16.6074 19.7195 13.0927 19.7195ZM19.704 8.24034C18.8834 8.24034 18.2207 7.57766 18.2207 6.75706C18.2207 5.93645 18.8834 5.27378 19.704 5.27378C20.5246 5.27378 21.1873 5.93645 21.1873 6.75706C21.1875 6.95191 21.1493 7.1449 21.0749 7.32497C21.0004 7.50504 20.8912 7.66865 20.7534 7.80644C20.6156 7.94422 20.452 8.05347 20.2719 8.12793C20.0918 8.20238 19.8988 8.24058 19.704 8.24034Z" fill="#665F5F"/>
</svg>
