<svg width="25" height="26" viewBox="0 0 25 26" fill="none" xmlns="http://www.w3.org/2000/svg">
<path d="M20.1812 0.990234C21.4599 0.990234 22.5532 1.44421 23.4611 2.35217C24.3691 3.26012 24.8231 4.35343 24.8231 5.63208V21.1049C24.8231 22.3836 24.3691 23.4769 23.4611 24.3848C22.5532 25.2928 21.4599 25.7468 20.1812 25.7468H8.496C9.40932 24.4359 9.98955 23.3076 10.2367 22.3621C10.3334 21.9967 10.6181 20.8739 11.0909 18.9935C11.3166 19.4126 11.7114 19.7725 12.2756 20.0734C12.8397 20.3743 13.4441 20.5247 14.0888 20.5247C16.0336 20.5247 17.6212 19.7322 18.8515 18.1473C20.0818 16.5625 20.697 14.5558 20.697 12.1274C20.697 11.2249 20.5089 10.3518 20.1329 9.50835C19.7568 8.66487 19.2383 7.91809 18.5775 7.26801C17.9167 6.61794 17.0974 6.09681 16.1196 5.70461C15.1418 5.31242 14.0834 5.11632 12.9444 5.11632C11.827 5.11632 10.782 5.26944 9.80958 5.57567C8.83715 5.8819 8.01516 6.2929 7.34359 6.80866C6.67203 7.32442 6.09448 7.91271 5.61096 8.57353C5.12743 9.23435 4.77016 9.92203 4.53914 10.6366C4.30813 11.3511 4.19262 12.063 4.19262 12.7721C4.19262 13.8681 4.40483 14.8352 4.82926 15.6733C5.25369 16.5114 5.87958 17.1024 6.70695 17.4462C6.84664 17.5 6.97289 17.5 7.08571 17.4462C7.19854 17.3925 7.27644 17.2904 7.31942 17.14C7.42687 16.6672 7.50745 16.3395 7.56118 16.1568C7.62565 15.9097 7.56655 15.684 7.38389 15.4799C6.84664 14.8137 6.57801 14.0078 6.57801 13.0623C6.57801 11.4505 7.13407 10.0725 8.24617 8.92812C9.35828 7.78377 10.8115 7.2116 12.606 7.2116C14.207 7.2116 15.4561 7.64677 16.3533 8.51712C17.2505 9.38747 17.6991 10.5157 17.6991 11.9018C17.6991 13.707 17.3365 15.2435 16.6112 16.5114C15.8859 17.7793 14.9538 18.4133 13.8148 18.4133C13.1701 18.4133 12.6489 18.1796 12.2514 17.7122C11.8538 17.2448 11.7302 16.6887 11.8807 16.044C11.9666 15.6787 12.109 15.1817 12.3078 14.5531C12.5066 13.9246 12.6651 13.3766 12.7833 12.9091C12.9015 12.4417 12.9606 12.0415 12.9606 11.7084C12.9606 11.1819 12.8182 10.744 12.5334 10.3948C12.2487 10.0456 11.8431 9.87099 11.3166 9.87099C10.6611 9.87099 10.1051 10.1745 9.6484 10.7816C9.19174 11.3887 8.9634 12.1382 8.9634 13.03C8.9634 13.8037 9.09235 14.4537 9.35023 14.9803L7.77071 21.6529C7.51283 22.7274 7.47522 24.092 7.65789 25.7468H4.70838C3.42972 25.7468 2.33641 25.2928 1.42846 24.3848C0.520505 23.4769 0.0665283 22.3836 0.0665283 21.1049V5.63208C0.0665283 4.35343 0.520505 3.26012 1.42846 2.35217C2.33641 1.44421 3.42972 0.990234 4.70838 0.990234H20.1812Z" fill="#665F5F"/>
</svg>
