<svg width="26" height="26" viewBox="0 0 26 26" fill="none" xmlns="http://www.w3.org/2000/svg">
<path d="M4.88953 0.989258C2.38544 0.989258 0.369141 3.00555 0.369141 5.50965V21.2254C0.369141 23.7295 2.38544 25.7458 4.88953 25.7458H13.4073V16.0675H10.8481V12.5831H13.4073V9.60609C13.4073 7.26722 14.9194 5.11974 18.4027 5.11974C19.8131 5.11974 20.856 5.25513 20.856 5.25513L20.7739 8.50908C20.7739 8.50908 19.7103 8.49903 18.5497 8.49903C17.2936 8.49903 17.0922 9.07778 17.0922 10.0386V12.5831H20.8737L20.709 16.0676H17.0922V25.7458H20.6053C23.1094 25.7458 25.1257 23.7295 25.1257 21.2254V5.50968C25.1257 3.00558 23.1094 0.989283 20.6053 0.989283H4.88951L4.88953 0.989258Z" fill="#665F5F"/>
</svg>
