<svg width="30" height="30" viewBox="0 0 30 30" fill="none" xmlns="http://www.w3.org/2000/svg">
<path d="M9.5998 1.7998C5.2993 1.7998 1.7998 5.2993 1.7998 9.5998V20.3998C1.7998 24.7003 5.2993 28.1998 9.5998 28.1998H20.3998C24.7003 28.1998 28.1998 24.7003 28.1998 20.3998V9.5998C28.1998 5.2993 24.7003 1.7998 20.3998 1.7998H9.5998ZM9.5998 2.9998H20.3998C24.0517 2.9998 26.9998 5.94791 26.9998 9.5998V20.3998C26.9998 24.0517 24.0517 26.9998 20.3998 26.9998H9.5998C5.94791 26.9998 2.9998 24.0517 2.9998 20.3998V9.5998C2.9998 5.94791 5.94791 2.9998 9.5998 2.9998ZM22.1998 6.5998C21.8815 6.5998 21.5763 6.72623 21.3513 6.95128C21.1262 7.17632 20.9998 7.48154 20.9998 7.7998C20.9998 8.11806 21.1262 8.42329 21.3513 8.64833C21.5763 8.87338 21.8815 8.9998 22.1998 8.9998C22.5181 8.9998 22.8233 8.87338 23.0483 8.64833C23.2734 8.42329 23.3998 8.11806 23.3998 7.7998C23.3998 7.48154 23.2734 7.17632 23.0483 6.95128C22.8233 6.72623 22.5181 6.5998 22.1998 6.5998ZM14.9998 8.39981C11.3618 8.39981 8.39981 11.3618 8.39981 14.9998C8.39981 18.6378 11.3618 21.5998 14.9998 21.5998C18.6378 21.5998 21.5998 18.6378 21.5998 14.9998C21.5998 11.3618 18.6378 8.39981 14.9998 8.39981ZM14.9998 9.5998C17.9893 9.5998 20.3998 12.0104 20.3998 14.9998C20.3998 17.9893 17.9893 20.3998 14.9998 20.3998C12.0104 20.3998 9.5998 17.9893 9.5998 14.9998C9.5998 12.0104 12.0104 9.5998 14.9998 9.5998Z" fill="black"/>
</svg>
