<svg width="112" height="112" viewBox="0 0 112 112" fill="none" xmlns="http://www.w3.org/2000/svg">
<g filter="url(#filter0_d_305_2)">
<circle cx="56" cy="56" r="36" fill="white"/>
</g>
<path d="M68 69.5V66.5C68 64.9087 67.3679 63.3826 66.2426 62.2574C65.1174 61.1321 63.5913 60.5 62 60.5H50C48.4087 60.5 46.8826 61.1321 45.7574 62.2574C44.6321 63.3826 44 64.9087 44 66.5V69.5" stroke="#FF321F" stroke-width="1.8" stroke-linecap="round" stroke-linejoin="round"/>
<path d="M56 54.5C59.3137 54.5 62 51.8137 62 48.5C62 45.1863 59.3137 42.5 56 42.5C52.6863 42.5 50 45.1863 50 48.5C50 51.8137 52.6863 54.5 56 54.5Z" stroke="#FF321F" stroke-width="1.8" stroke-linecap="round" stroke-linejoin="round"/>
<defs>
<filter id="filter0_d_305_2" x="0" y="0" width="112" height="112" filterUnits="userSpaceOnUse" color-interpolation-filters="sRGB">
<feFlood flood-opacity="0" result="BackgroundImageFix"/>
<feColorMatrix in="SourceAlpha" type="matrix" values="0 0 0 0 0 0 0 0 0 0 0 0 0 0 0 0 0 0 127 0" result="hardAlpha"/>
<feOffset/>
<feGaussianBlur stdDeviation="10"/>
<feComposite in2="hardAlpha" operator="out"/>
<feColorMatrix type="matrix" values="0 0 0 0 0.929412 0 0 0 0 0.109804 0 0 0 0 0.141176 0 0 0 0.2 0"/>
<feBlend mode="normal" in2="BackgroundImageFix" result="effect1_dropShadow_305_2"/>
<feBlend mode="normal" in="SourceGraphic" in2="effect1_dropShadow_305_2" result="shape"/>
</filter>
</defs>
</svg>
