<svg width="150" height="60" viewBox="0 0 150 60" fill="none" xmlns="http://www.w3.org/2000/svg">
<path d="M11.6127 50.9403H4.4502L15.4752 39.5803H23.3877L33.9252 50.9403H25.9752L24.3627 48.9003H13.3002L11.6127 50.9403ZM22.4502 46.4203L19.0377 42.2803L15.4377 46.4203H22.4502Z" fill="#FF6600"/>
<path d="M35.55 39.5801H42.4125V50.9401H35.55V39.5801Z" fill="#FF6600"/>
<path d="M45.8999 39.5801H52.7624V41.9001H45.8999V39.5801ZM45.8999 43.0201H52.7624V50.9401H45.8999V43.0201Z" fill="#FF6600"/>
<path d="M56.5092 39.571H63.3717V44.151C64.1967 43.711 65.0967 43.371 66.1092 43.151C67.1217 42.931 68.2092 42.811 69.4092 42.811C71.7342 42.811 73.6092 43.211 75.0342 44.011C76.4592 44.811 77.1717 45.871 77.1717 47.171C77.1717 48.371 76.4592 49.331 75.0717 50.051C73.6842 50.771 71.8092 51.131 69.4842 51.131C68.2092 51.131 67.0467 51.011 65.9967 50.751C64.9467 50.511 64.0842 50.131 63.3342 49.651C63.3342 49.911 63.3342 50.151 63.2592 50.371C63.2217 50.591 63.1467 50.771 63.0717 50.931H56.2092C56.2842 50.791 56.3592 50.591 56.3967 50.371C56.4342 50.151 56.4717 49.891 56.4717 49.611V39.571H56.5092ZM70.2717 47.011C70.2717 46.311 69.9717 45.771 69.3342 45.351C68.7342 44.951 67.8717 44.751 66.8217 44.751C65.6967 44.751 64.8342 44.951 64.1967 45.331C63.5967 45.711 63.2967 46.291 63.2967 47.031C63.2967 47.731 63.5967 48.271 64.1967 48.651C64.7967 49.031 65.6592 49.231 66.7467 49.231C67.8342 49.231 68.6592 49.031 69.2967 48.631C69.9342 48.231 70.2717 47.691 70.2717 47.011Z" fill="#FF6600"/>
<path d="M92.8463 49.6671C92.2088 50.1271 91.3463 50.4671 90.2963 50.6871C89.2463 50.9071 88.0088 51.0271 86.5088 51.0271C84.4088 51.0271 82.7588 50.8271 81.6338 50.4271C80.5088 50.0271 79.9463 49.4671 79.9463 48.7271C79.9463 47.7271 80.9213 47.0071 82.8713 46.5671C84.8213 46.1271 88.1213 45.8871 92.7338 45.8671C92.7338 45.8471 92.7338 45.8271 92.7338 45.7871C92.7338 45.7471 92.7338 45.7071 92.7338 45.6871C92.7338 45.2871 92.5088 44.9871 92.0588 44.7871C91.6088 44.5871 90.9338 44.4871 89.9963 44.4871C89.1713 44.4871 88.5338 44.5671 88.0838 44.7071C87.6338 44.8471 87.3713 45.0671 87.2963 45.3671H80.9588C80.9963 44.4871 81.7838 43.8271 83.2838 43.4071C84.8213 42.9871 87.1463 42.7671 90.2963 42.7671C93.2963 42.7671 95.5463 43.0071 97.0463 43.5271C98.5088 44.0271 99.2588 44.7871 99.2588 45.8071V49.8471C99.2588 50.0871 99.2963 50.3071 99.3338 50.4471C99.3713 50.6071 99.4463 50.7471 99.5588 50.8671H93.1838C93.0713 50.6871 92.9588 50.4871 92.9213 50.2871C92.8838 50.0871 92.8463 49.8871 92.8463 49.6671ZM92.6963 47.4071C90.4838 47.4071 88.9463 47.4871 88.1588 47.6471C87.3713 47.8071 86.9588 48.0671 86.9588 48.4471C86.9588 48.7071 87.1463 48.9071 87.5588 49.0671C87.9338 49.2071 88.4963 49.2871 89.2088 49.2871C90.3713 49.2871 91.2338 49.1471 91.8338 48.8471C92.4338 48.5671 92.6963 48.1271 92.6963 47.5271V47.4071Z" fill="#FF6600"/>
<path d="M102.4 39.571H109.262V44.151C110.087 43.711 110.987 43.371 112 43.151C113.012 42.931 114.1 42.811 115.3 42.811C117.625 42.811 119.5 43.211 120.925 44.011C122.35 44.811 123.062 45.871 123.062 47.171C123.062 48.371 122.35 49.331 120.962 50.051C119.575 50.771 117.7 51.131 115.375 51.131C114.1 51.131 112.937 51.011 111.887 50.751C110.837 50.511 109.975 50.131 109.225 49.651C109.225 49.911 109.187 50.151 109.15 50.371C109.112 50.591 109.037 50.771 108.962 50.931H102.1C102.175 50.791 102.25 50.591 102.287 50.371C102.325 50.151 102.362 49.891 102.362 49.611V39.571H102.4ZM116.162 47.011C116.162 46.311 115.862 45.771 115.225 45.351C114.625 44.951 113.762 44.751 112.712 44.751C111.587 44.751 110.725 44.951 110.125 45.331C109.525 45.711 109.225 46.291 109.225 47.031C109.225 47.731 109.525 48.271 110.125 48.651C110.725 49.031 111.587 49.231 112.675 49.231C113.725 49.231 114.587 49.031 115.225 48.631C115.862 48.231 116.162 47.691 116.162 47.011Z" fill="#FF6600"/>
<path d="M138.737 49.6671C138.1 50.1271 137.237 50.4671 136.187 50.6871C135.137 50.9071 133.9 51.0271 132.4 51.0271C130.3 51.0271 128.65 50.8271 127.525 50.4271C126.4 50.0271 125.837 49.4671 125.837 48.7271C125.837 47.7271 126.812 47.0071 128.762 46.5671C130.712 46.1271 134.012 45.8871 138.625 45.8671C138.625 45.8471 138.625 45.8271 138.625 45.7871C138.625 45.7471 138.625 45.7071 138.625 45.6871C138.625 45.2871 138.4 44.9871 137.95 44.7871C137.5 44.5871 136.825 44.4871 135.887 44.4871C135.062 44.4871 134.425 44.5671 133.975 44.7071C133.525 44.8471 133.262 45.0671 133.187 45.3671H126.85C126.887 44.4871 127.675 43.8271 129.175 43.4071C130.712 42.9871 133.037 42.7671 136.187 42.7671C139.187 42.7671 141.437 43.0071 142.937 43.5271C144.4 44.0271 145.15 44.7871 145.15 45.8071V49.8471C145.15 50.0871 145.187 50.3071 145.225 50.4471C145.262 50.6071 145.337 50.7471 145.45 50.8671H139.075C138.962 50.6871 138.85 50.4871 138.812 50.2871C138.775 50.0871 138.737 49.8871 138.737 49.6671ZM138.587 47.4071C136.375 47.4071 134.875 47.4871 134.05 47.6471C133.262 47.8071 132.85 48.0671 132.85 48.4471C132.85 48.7071 133.037 48.9071 133.45 49.0671C133.825 49.2071 134.387 49.2871 135.1 49.2871C136.262 49.2871 137.125 49.1471 137.725 48.8471C138.325 48.5671 138.587 48.1271 138.587 47.5271V47.4071Z" fill="#FF6600"/>
<path d="M45.1903 30.822C44.8153 30.802 44.2153 30.622 43.8028 30.442C39.7903 28.342 44.9278 25.922 50.9278 24.522V20.522C52.3153 21.002 53.1028 21.022 53.1403 21.082L57.7153 18.662L56.1778 16.582C69.5653 14.122 74.9278 13.182 85.8028 12.202L83.8528 11.222L87.0403 10.262C94.3528 11.542 101.253 11.882 100.053 15.162C100.353 12.942 95.1778 12.102 87.3028 10.922L85.7653 11.422L88.6903 12.702C75.6778 13.902 67.6528 15.262 58.1278 17.022L59.4403 18.822L54.6403 21.362C55.4278 21.482 63.7903 22.962 72.4528 19.742C72.4528 19.742 72.6403 19.682 72.6403 19.642C72.3778 19.422 71.7778 19.162 71.0653 18.822C73.6153 18.922 75.2653 20.102 74.9653 21.342H73.7653C73.8403 20.942 73.6903 20.502 73.4278 20.222C66.7153 22.842 58.9153 23.222 52.2778 21.982V25.082C49.0528 25.682 43.3153 27.582 43.3528 29.422C43.5778 30.282 44.4028 30.602 45.1903 30.822Z" fill="black"/>
<path d="M72.645 29.7973C65.445 31.7373 58.545 33.2973 47.9325 33.5173C34.095 33.3573 31.9575 28.4573 38.4825 23.3373C44.67 18.1773 54.495 13.4973 70.095 10.5773C74.6325 9.7173 81.27 8.7573 87.6825 8.6973C96.9075 8.6573 105.87 10.1773 105.27 14.8973C104.933 18.5173 95.145 23.5973 90.0075 27.2573C87.795 28.8573 87.42 29.8973 91.2075 29.7973C104.895 29.3173 117.27 26.7973 128.783 24.1773C120.983 26.9973 80.745 37.6173 80.595 30.3773C80.6325 29.4573 81.42 28.4773 82.7325 27.4373C84.0075 26.3973 85.77 25.3173 87.6075 24.2173C90.345 22.5573 97.17 18.5573 99.4575 16.1573C103.32 11.6773 94.695 11.4573 87.2325 10.0573L84.045 11.0173L85.995 11.9973C75.12 12.9573 69.7575 13.9173 56.37 16.3773L57.9075 18.4573L53.37 20.8573C53.2575 20.7973 52.5825 20.7773 51.1575 20.2973V24.2973C45.195 25.6973 40.02 28.1173 44.0325 30.2173C44.445 30.3973 45.045 30.5773 45.42 30.5973C52.77 32.7973 72.6825 29.7973 72.645 29.7973Z" fill="#FF6600"/>
<path d="M115.672 32.396H116.61C116.797 32.396 116.947 32.376 117.06 32.356C117.172 32.336 117.247 32.296 117.322 32.256C117.397 32.196 117.397 32.156 117.397 32.096C117.397 32.016 117.322 31.936 117.21 31.896C117.097 31.836 116.91 31.816 116.685 31.816H115.672V32.396ZM115.26 33.396V31.616H116.76C117.06 31.616 117.285 31.636 117.435 31.656C117.585 31.696 117.697 31.736 117.81 31.836C117.922 31.916 117.96 31.996 117.96 32.096C117.96 32.216 117.885 32.336 117.735 32.416C117.585 32.496 117.36 32.556 117.022 32.576C117.135 32.596 117.247 32.636 117.285 32.656C117.397 32.716 117.547 32.796 117.66 32.896L118.26 33.376H117.697L117.247 33.016C117.135 32.896 117.022 32.816 116.91 32.756C116.835 32.696 116.76 32.656 116.685 32.636C116.61 32.616 116.572 32.596 116.497 32.596C116.46 32.596 116.385 32.596 116.235 32.596H115.672V33.396H115.26Z" fill="#FF6600"/>
<path d="M116.593 34.2203C118.355 34.2203 119.78 33.4603 119.78 32.5203C119.78 31.5803 118.355 30.8203 116.593 30.8203C114.83 30.8203 113.405 31.5803 113.405 32.5203C113.405 33.4603 114.83 34.2203 116.593 34.2203ZM113.893 32.5203C113.893 31.7203 115.093 31.0803 116.593 31.0803C118.093 31.0803 119.293 31.7203 119.293 32.5203C119.293 33.3003 118.093 33.9603 116.593 33.9603C115.093 33.9603 113.893 33.3203 113.893 32.5203Z" fill="#FF6600"/>
</svg>
