<svg width="52" height="52" viewBox="0 0 52 52" fill="none" xmlns="http://www.w3.org/2000/svg">
<g id="fi_2680927">
<g id="Group">
<g id="Group_2">
<path id="Vector" d="M46.7237 40.2552C47.1443 40.2552 47.4854 39.9142 47.4854 39.4935V7.43041C47.4854 7.00974 47.1443 6.6687 46.7237 6.6687H44.2024V4.04473C44.2024 3.62405 43.8613 3.28301 43.4407 3.28301H40.9194V0.761719C40.9194 0.341047 40.5783 0 40.1576 0H5.27539C4.85472 0 4.51367 0.341047 4.51367 0.761719V44.5696C4.51367 44.9903 4.85472 45.3313 5.27539 45.3313H7.79668V47.8526C7.79668 48.2733 8.13773 48.6143 8.5584 48.6143H11.0797V51.2383C11.0797 51.659 11.4207 52 11.8414 52H46.7236C47.1442 52 47.4853 51.659 47.4853 51.2383V43.048C47.4853 42.6273 47.1442 42.2863 46.7236 42.2863C46.3029 42.2863 45.9618 42.6273 45.9618 43.048V50.4766H12.6032V48.6144H43.4407C43.8613 48.6144 44.2024 48.2734 44.2024 47.8527V34.8879C44.2024 34.4673 43.8613 34.1262 43.4407 34.1262C43.02 34.1262 42.6789 34.4673 42.6789 34.8879V47.0909H9.32012V45.3313H40.1575C40.5782 45.3313 40.9193 44.9903 40.9193 44.5696V28.5002C40.9193 28.0795 40.5782 27.7384 40.1575 27.7384C39.7369 27.7384 39.3958 28.0795 39.3958 28.5002V43.808H6.03711V1.52344H39.3958V24.9364C39.3958 25.3571 39.7369 25.6982 40.1575 25.6982C40.5782 25.6982 40.9193 25.3571 40.9193 24.9364V4.80645H42.6788V31.3308C42.6788 31.7515 43.0199 32.0925 43.4405 32.0925C43.8612 32.0925 44.2023 31.7515 44.2023 31.3308V8.19213H45.9618V39.4936C45.9619 39.9142 46.303 40.2552 46.7237 40.2552Z" fill="#FF5C00"/>
<path id="Vector_2" d="M20.1951 18.8184V4.66028C20.1951 4.23961 19.854 3.89856 19.4334 3.89856H9.17383C8.75316 3.89856 8.41211 4.23961 8.41211 4.66028V18.8183C8.41211 19.239 8.75316 19.58 9.17383 19.58H19.4334C19.854 19.5801 20.1951 19.2391 20.1951 18.8184ZM18.6716 18.0567H9.93555V5.422H18.6715V18.0567H18.6716Z" fill="#FF5C00"/>
<path id="Vector_3" d="M37.0208 4.66028C37.0208 4.23961 36.6798 3.89856 36.2591 3.89856H23.127C22.7063 3.89856 22.3652 4.23961 22.3652 4.66028V8.14854C22.3652 8.56922 22.7063 8.91026 23.127 8.91026H36.2591C36.6798 8.91026 37.0208 8.56922 37.0208 8.14854V4.66028ZM35.4974 7.38683H23.8887V5.422H35.4974V7.38683Z" fill="#FF5C00"/>
<path id="Vector_4" d="M36.2591 11.0803H23.127C22.7063 11.0803 22.3652 11.4214 22.3652 11.842C22.3652 12.2627 22.7063 12.6038 23.127 12.6038H36.2591C36.6798 12.6038 37.0208 12.2627 37.0208 11.842C37.0208 11.4214 36.6798 11.0803 36.2591 11.0803Z" fill="#FF5C00"/>
<path id="Vector_5" d="M36.2591 14.3633H23.127C22.7063 14.3633 22.3652 14.7043 22.3652 15.125C22.3652 15.5457 22.7063 15.8867 23.127 15.8867H36.2591C36.6798 15.8867 37.0208 15.5457 37.0208 15.125C37.0208 14.7043 36.6798 14.3633 36.2591 14.3633Z" fill="#FF5C00"/>
<path id="Vector_6" d="M36.2591 18.0566H23.127C22.7063 18.0566 22.3652 18.3977 22.3652 18.8184C22.3652 19.239 22.7063 19.5801 23.127 19.5801H36.2591C36.6798 19.5801 37.0208 19.239 37.0208 18.8184C37.0208 18.3977 36.6798 18.0566 36.2591 18.0566Z" fill="#FF5C00"/>
<path id="Vector_7" d="M36.2585 21.75H16.9707C16.55 21.75 16.209 22.091 16.209 22.5117C16.209 22.9324 16.55 23.2734 16.9707 23.2734H36.2585C36.6792 23.2734 37.0203 22.9324 37.0203 22.5117C37.0203 22.091 36.6792 21.75 36.2585 21.75Z" fill="#FF5C00"/>
<path id="Vector_8" d="M13.2777 21.75H9.17383C8.75316 21.75 8.41211 22.091 8.41211 22.5117C8.41211 22.9324 8.75316 23.2734 9.17383 23.2734H13.2776C13.6982 23.2734 14.0393 22.9324 14.0393 22.5117C14.0393 22.091 13.6983 21.75 13.2777 21.75Z" fill="#FF5C00"/>
<path id="Vector_9" d="M36.2585 25.4435H16.9707C16.55 25.4435 16.209 25.7845 16.209 26.2052C16.209 26.6259 16.55 26.9669 16.9707 26.9669H36.2585C36.6792 26.9669 37.0203 26.6259 37.0203 26.2052C37.0203 25.7845 36.6792 25.4435 36.2585 25.4435Z" fill="#FF5C00"/>
<path id="Vector_10" d="M13.2777 25.4435H9.17383C8.75316 25.4435 8.41211 25.7845 8.41211 26.2052C8.41211 26.6259 8.75316 26.9669 9.17383 26.9669H13.2776C13.6982 26.9669 14.0393 26.6259 14.0393 26.2052C14.0393 25.7845 13.6983 25.4435 13.2777 25.4435Z" fill="#FF5C00"/>
<path id="Vector_11" d="M36.2585 29.1368H16.9707C16.55 29.1368 16.209 29.4779 16.209 29.8986C16.209 30.3192 16.55 30.6603 16.9707 30.6603H36.2585C36.6792 30.6603 37.0203 30.3192 37.0203 29.8986C37.0203 29.4779 36.6792 29.1368 36.2585 29.1368Z" fill="#FF5C00"/>
<path id="Vector_12" d="M13.2777 29.1368H9.17383C8.75316 29.1368 8.41211 29.4779 8.41211 29.8986C8.41211 30.3192 8.75316 30.6603 9.17383 30.6603H13.2776C13.6982 30.6603 14.0393 30.3192 14.0393 29.8986C14.0393 29.4779 13.6983 29.1368 13.2777 29.1368Z" fill="#FF5C00"/>
<path id="Vector_13" d="M36.2585 32.8303H16.9707C16.55 32.8303 16.209 33.1714 16.209 33.592C16.209 34.0127 16.55 34.3538 16.9707 34.3538H36.2585C36.6792 34.3538 37.0203 34.0127 37.0203 33.592C37.0203 33.1714 36.6792 32.8303 36.2585 32.8303Z" fill="#FF5C00"/>
<path id="Vector_14" d="M13.2777 32.8303H9.17383C8.75316 32.8303 8.41211 33.1714 8.41211 33.592C8.41211 34.0127 8.75316 34.3538 9.17383 34.3538H13.2776C13.6982 34.3538 14.0393 34.0127 14.0393 33.592C14.0393 33.1714 13.6983 32.8303 13.2777 32.8303Z" fill="#FF5C00"/>
<path id="Vector_15" d="M36.2585 36.5237H16.9707C16.55 36.5237 16.209 36.8647 16.209 37.2854C16.209 37.7061 16.55 38.0471 16.9707 38.0471H36.2585C36.6792 38.0471 37.0203 37.7061 37.0203 37.2854C37.0203 36.8647 36.6792 36.5237 36.2585 36.5237Z" fill="#FF5C00"/>
<path id="Vector_16" d="M13.2777 36.5237H9.17383C8.75316 36.5237 8.41211 36.8647 8.41211 37.2854C8.41211 37.7061 8.75316 38.0471 9.17383 38.0471H13.2776C13.6982 38.0471 14.0393 37.7061 14.0393 37.2854C14.0393 36.8647 13.6983 36.5237 13.2777 36.5237Z" fill="#FF5C00"/>
</g>
</g>
</g>
</svg>
