<svg width="52" height="52" viewBox="0 0 52 52" fill="none" xmlns="http://www.w3.org/2000/svg">
<g id="fi_5140023">
<g id="Group">
<path id="Vector" d="M27.2978 36.9774C27.4551 36.9848 27.6118 36.9886 27.7683 36.9886C30.0164 36.9886 32.19 36.2192 33.9338 34.7968C34.3026 34.4962 34.3576 33.9534 34.0568 33.5847C33.7562 33.216 33.2134 33.1608 32.8447 33.4616C29.6371 36.0777 25.0073 35.8401 22.0757 32.9085C18.938 29.7708 18.938 24.6653 22.0757 21.5276C25.2134 18.39 30.319 18.3899 33.4566 21.5276C35.8024 23.8733 36.4678 27.4828 35.1124 30.5094C34.9179 30.9437 35.1123 31.4535 35.5465 31.6479C35.9806 31.8422 36.4905 31.6481 36.6849 31.2137C38.3305 27.5391 37.5228 23.1569 34.6751 20.309C30.8655 16.4996 24.6668 16.4995 20.8572 20.309C17.0476 24.1186 17.0476 30.3174 20.8572 34.127C22.5795 35.849 24.8668 36.8614 27.2978 36.9774Z" fill="#FF5C00"/>
<path id="Vector_2" d="M43.145 1.26466C42.4404 0.539914 41.2753 0.00241238 40.0935 0H19.9682C18.18 0 16.7251 1.45478 16.7251 3.24293V5.58983H14.3782C12.5901 5.58983 11.1352 7.04472 11.1352 8.83287V11.2725C11.1352 11.7484 11.5209 12.134 11.9967 12.134C12.4725 12.134 12.8583 11.7484 12.8583 11.2725V8.83287C12.8583 7.99474 13.5402 7.31296 14.3782 7.31296H35.0717V11.7808C35.0717 13.5078 36.4768 14.913 38.2039 14.913H42.6718V45.5748C42.6718 46.4284 41.9772 47.1229 41.1236 47.1229H14.4064C14.0435 47.1229 13.7004 46.9965 13.429 46.7754L16.7283 43.476C17.9581 42.2463 18.1364 40.3582 17.265 38.9364L18.9298 37.2716C21.3737 39.4252 24.4786 40.6025 27.765 40.6025C31.3401 40.6025 34.7011 39.2103 37.2292 36.6823C42.4477 31.4636 42.4477 22.9723 37.2292 17.7537C34.7011 15.2258 31.34 13.8335 27.765 13.8335C24.1898 13.8335 20.8287 15.2258 18.3007 17.7537C15.7728 20.2818 14.3805 23.6429 14.3805 27.2181C14.3805 30.5044 15.5577 33.6094 17.7113 36.0532L16.0465 37.718C15.0814 37.1265 13.9016 37.019 12.8583 37.3958V15.3836C12.8583 14.9077 12.4725 14.5221 11.9967 14.5221C11.5209 14.5221 11.1352 14.9077 11.1352 15.3836V38.6262L4.0623 45.6991C2.70287 47.0011 2.59006 49.5022 4.0623 50.9205C4.78211 51.6403 5.72753 52 6.67295 52C7.61838 52 8.5638 51.6401 9.28361 50.9205L12.2072 47.9969C12.7995 48.535 13.5783 48.8459 14.4062 48.8459H41.1235C42.9272 48.8459 44.3948 47.3785 44.3948 45.5747V43.2559H46.7135C48.5172 43.2559 49.9847 41.7885 49.9847 39.9847V9.89133C49.9766 8.86596 49.587 7.70721 48.7213 6.84082L43.145 1.26466ZM19.5192 18.9721C21.7926 16.6987 24.7788 15.5619 27.765 15.5619C30.7513 15.5619 33.7374 16.6987 36.0107 18.9721C40.5575 23.5188 40.5575 30.917 36.0107 35.4637C31.4642 40.0104 24.066 40.0106 19.5191 35.4637C14.9725 30.9171 14.9725 23.5188 19.5192 18.9721ZM8.06524 49.702C7.29753 50.4699 6.04838 50.4699 5.28078 49.702C4.62783 49.0569 4.44839 47.7478 5.28078 46.9177L12.6056 39.5928C13.276 38.8381 14.5962 38.5899 15.5098 39.4729C16.2776 40.2407 16.2776 41.4898 15.5098 42.2574L8.06524 49.702ZM42.3848 2.94138L47.0432 7.59992H43.7939C43.0168 7.59992 42.3847 6.96776 42.3847 6.19074V2.94138H42.3848ZM38.2039 13.1897C37.4269 13.1897 36.7949 12.5577 36.7949 11.7807V8.53132L41.4533 13.1897H38.2039ZM46.7135 41.5329H44.3948V15.4812C44.3867 14.4562 43.9966 13.2966 43.1313 12.4308L37.555 6.85449C36.8503 6.12963 35.6853 5.59224 34.5035 5.58983H18.4482V3.24293C18.4482 2.40491 19.1301 1.72313 19.9682 1.72313H40.6617V6.19086C40.6617 7.91801 42.0667 9.32316 43.794 9.32316H48.2617V39.985C48.2616 40.8385 47.5672 41.5329 46.7135 41.5329Z" fill="#FF5C00"/>
</g>
</g>
</svg>
