<svg width="52" height="52" viewBox="0 0 52 52" fill="none" xmlns="http://www.w3.org/2000/svg">
<g id="fi_2666523">
<g id="Group">
<g id="Group_2">
<path id="Vector" d="M34.0185 13.9957H9.11653C8.69403 13.9957 8.35156 14.3382 8.35156 14.7607C8.35156 15.1832 8.69403 15.5257 9.11653 15.5257H34.0186C34.4411 15.5257 34.7836 15.1832 34.7836 14.7607C34.7836 14.3382 34.441 13.9957 34.0185 13.9957Z" fill="#FF5C00"/>
<path id="Vector_2" d="M9.11653 10.2193H21.5675C21.99 10.2193 22.3325 9.8768 22.3325 9.4543C22.3325 9.0318 21.99 8.68933 21.5675 8.68933H9.11653C8.69403 8.68933 8.35156 9.0318 8.35156 9.4543C8.35156 9.8769 8.69403 10.2193 9.11653 10.2193Z" fill="#FF5C00"/>
<path id="Vector_3" d="M34.0185 18.6973H9.11653C8.69403 18.6973 8.35156 19.0397 8.35156 19.4622C8.35156 19.8847 8.69403 20.2272 9.11653 20.2272H34.0186C34.4411 20.2272 34.7836 19.8847 34.7836 19.4622C34.7835 19.0397 34.441 18.6973 34.0185 18.6973Z" fill="#FF5C00"/>
<path id="Vector_4" d="M14.7894 46.685H6.8201C5.51208 46.685 4.4478 45.6209 4.4478 44.3128V3.90213C4.4478 2.59411 5.51208 1.52984 6.8201 1.52984H29.7789C29.8531 1.52984 29.9261 1.53664 29.9983 1.54639V6.31719C29.9983 8.46889 31.7488 10.2193 33.9004 10.2193H38.6711C38.681 10.2916 38.6877 10.3647 38.6877 10.4388V23.4653C38.6877 23.8878 39.0301 24.2303 39.4526 24.2303C39.8751 24.2303 40.2176 23.8878 40.2176 23.4653V10.4389C40.2176 9.59979 39.8908 8.81085 39.2975 8.21742L32.0002 0.920156C31.4069 0.326828 30.618 0 29.7789 0H6.8201C4.6684 0 2.91797 1.75053 2.91797 3.90213V44.3128C2.91797 46.4644 4.6685 48.2149 6.8201 48.2149H14.7894C15.2119 48.2149 15.5544 47.8724 15.5544 47.4499C15.5544 47.0274 15.2119 46.685 14.7894 46.685ZM37.6059 8.68948H33.9005C32.5925 8.68948 31.5282 7.62521 31.5282 6.31719V2.61178L37.6059 8.68948Z" fill="#FF5C00"/>
<path id="Vector_5" d="M48.8466 37.449L42.365 26.5087C41.8927 25.711 40.8647 25.4473 40.0666 25.9201L38.49 26.8542C37.2663 27.5791 36.749 29.0462 37.1692 30.3463C36.638 30.5388 36.0557 30.5357 35.5194 30.3284C34.2747 29.9368 33.3283 29.149 31.7654 29.5443C29.1115 30.22 29.1922 30.1861 28.9521 30.2684C27.3982 29.3837 26.4641 29.1205 24.8145 29.7586L23.3441 30.327C22.6633 30.5901 21.9132 30.5277 21.2841 30.155L20.8828 29.9184C21.0787 28.7452 20.5584 27.507 19.4566 26.8544C19.4566 26.8544 19.4566 26.8544 19.4565 26.8543L17.88 25.9203C17.0842 25.449 16.0531 25.7128 15.5817 26.5087L9.09997 37.4491C8.6276 38.2466 8.89044 39.2749 9.68832 39.7474L11.2648 40.6814C11.7418 40.9641 12.2661 41.0984 12.784 41.0984C13.3616 41.0984 13.9311 40.9311 14.418 40.6158L14.7465 40.8097L14.0529 41.7759C13.2262 42.9274 13.4889 44.5286 14.6406 45.3553C15.1732 45.7376 15.8423 45.9122 16.5342 45.8035C16.644 46.4453 16.9956 47.0459 17.565 47.4548C18.0997 47.8387 18.7658 48.0135 19.4589 47.9043C19.569 48.5456 19.9204 49.1457 20.4895 49.5543C21.2543 50.1033 22.2051 50.1667 22.9974 49.8283C23.1707 50.2787 23.4721 50.6853 23.8924 50.9872C24.9901 51.775 26.5022 51.5695 27.3551 50.5488L29.1985 51.6408C30.4175 52.3632 31.9904 51.9618 32.7132 50.7413C32.8981 50.4293 33.0128 50.0893 33.0547 49.7398L33.0589 49.7423C34.2761 50.4632 35.8525 50.0596 36.5736 48.8427C36.7825 48.4901 36.8969 48.1078 36.9247 47.7246C37.9976 47.9943 39.1669 47.5437 39.759 46.5443C39.9533 46.2165 40.066 45.8623 40.103 45.5059C41.2529 45.9572 42.5969 45.5211 43.2463 44.425C43.5956 43.8354 43.6944 43.1452 43.5245 42.4813C43.4273 42.1015 43.2485 41.7567 43.0032 41.4655L44.0192 40.8718C44.8787 41.2247 45.8596 41.1682 46.6816 40.6813L48.2579 39.7473C49.0558 39.2751 49.3193 38.247 48.8466 37.449ZM12.0446 39.3653L10.4681 38.4312C10.398 38.3897 10.3748 38.2989 10.4162 38.2288L16.8979 27.2882C16.9397 27.2178 17.0308 27.1949 17.1005 27.2364L18.6768 28.1702C19.3773 28.5853 19.5965 29.4837 19.189 30.1714L14.0458 38.853C13.6352 39.546 12.7376 39.7757 12.0446 39.3653ZM15.5327 44.1125C15.0682 43.779 14.962 43.1328 15.2957 42.6681L16.3153 41.2478C16.6401 40.7954 17.2873 40.6716 17.7597 41.0107C18.2233 41.3435 18.3297 41.9914 17.9969 42.455L16.9773 43.8752C16.6444 44.3391 15.9962 44.4451 15.5327 44.1125ZM18.4572 46.2121C17.9936 45.8792 17.8873 45.2311 18.2201 44.7676L19.2397 43.3474C19.2397 43.3474 19.2397 43.3474 19.2397 43.3473C19.2397 43.3473 19.2397 43.3472 19.2398 43.3472L20.365 41.7799C20.5263 41.5554 20.7652 41.4069 21.038 41.3622C21.0947 41.3528 21.1515 41.3483 21.2078 41.3483C21.4225 41.3483 21.6315 41.4151 21.8094 41.5428C22.0339 41.704 22.1823 41.9429 22.227 42.2157C22.2718 42.4886 22.2077 42.7625 22.0464 42.9871L19.9015 45.9749C19.5682 46.4395 18.922 46.5458 18.4572 46.2121ZM21.3817 48.3115C20.9183 47.9788 20.8119 47.3312 21.1441 46.8677C21.1442 46.8675 21.1444 46.8673 21.1445 46.8671L23.2894 43.8794C23.622 43.4159 24.2704 43.3094 24.7338 43.6422C25.1974 43.975 25.3038 44.623 24.9709 45.0866L24.018 46.4141C24.018 46.4141 24.018 46.4141 24.0179 46.4142L22.826 48.0744C22.4932 48.538 21.8455 48.6445 21.3817 48.3115ZM24.7847 49.7443C24.3213 49.4116 24.2148 48.7644 24.5468 48.3007L25.2607 47.3064C25.5934 46.8427 26.2417 46.7367 26.7051 47.0693C27.1686 47.402 27.2751 48.0501 26.9423 48.5137L26.229 49.5071C25.8963 49.9708 25.2481 50.0773 24.7847 49.7443ZM41.9304 43.6453C41.6393 44.1366 41.0031 44.2995 40.5117 44.0085C39.6797 43.5156 34.3128 40.336 33.7406 39.997C33.377 39.7817 32.9078 39.9016 32.6925 40.2651C32.4772 40.6286 32.5972 41.0978 32.9607 41.3131L38.0797 44.3459L38.0798 44.346C38.5713 44.6371 38.7352 45.2713 38.443 45.7647C38.1518 46.2562 37.5153 46.4188 37.0242 46.128C35.1308 45.0064 33.5935 44.0955 31.9024 43.0936C31.5387 42.8783 31.0697 42.9983 30.8543 43.3617C30.639 43.7252 30.759 44.1945 31.1225 44.4098L34.8943 46.6444L34.8951 46.6449C35.3869 46.9369 35.5492 47.5708 35.2576 48.0632C34.9664 48.5546 34.3301 48.7174 33.8387 48.4264L31.8144 47.2272C31.8142 47.2271 31.8139 47.227 31.8137 47.2268C31.8135 47.2267 31.8133 47.2266 31.8131 47.2265L30.3359 46.3512C29.9723 46.1358 29.5032 46.2558 29.2879 46.6194C29.0725 46.9829 29.1925 47.4521 29.556 47.6674L31.0335 48.5428C31.0337 48.5429 31.0339 48.5431 31.0341 48.5432C31.5256 48.8342 31.6895 49.4684 31.3973 49.9618C31.1061 50.4533 30.4698 50.6161 29.9784 50.325L28.2548 49.304C28.9936 48.1638 28.7126 46.6274 27.5973 45.8269C27.2698 45.5919 26.9051 45.4455 26.5321 45.3826C26.9277 44.3247 26.5866 43.0895 25.6259 42.3999C25.0572 41.9914 24.3762 41.8503 23.7335 41.951C23.6191 41.2823 23.2534 40.6964 22.7016 40.3005C21.6639 39.5557 20.2536 39.6988 19.3825 40.5801C19.2054 40.2692 18.9611 39.9903 18.6519 39.7684C17.7896 39.1494 16.6699 39.1437 15.8162 39.665L15.4657 39.4581L20.2767 31.3373L20.5057 31.4723C21.5173 32.0716 22.7517 32.1965 23.8957 31.7541L25.3661 31.1856C26.2076 30.8604 26.6716 30.8392 27.5039 31.2319C26.9593 31.8438 26.6361 32.647 26.6361 33.5127V36.9044C26.6361 37.8053 27.3684 38.5386 28.2686 38.5393H28.2708C29.1737 38.5393 30.0228 38.1877 30.6615 37.5494C31.0338 37.1773 31.3086 36.7337 31.4734 36.2494C32.4611 36.8343 40.6213 41.6666 41.5674 42.2271C41.8053 42.3681 41.9741 42.5932 42.0427 42.8611C42.1112 43.1288 42.0713 43.4074 41.9304 43.6453ZM47.4785 38.4312L45.902 39.3653C45.2089 39.7756 44.3113 39.5457 43.901 38.8531L41.4903 34.784C41.2749 34.4205 40.8054 34.3005 40.4423 34.5157C40.0788 34.731 39.9587 35.2002 40.1739 35.5637L42.5846 39.6329C42.63 39.7095 42.6793 39.7823 42.7303 39.8533L42.06 40.2448C41.9246 40.325 41.7943 40.4134 41.6696 40.5094L31.2775 34.3552C30.7683 34.0539 30.1228 34.4212 30.1228 35.0133C30.1148 35.059 30.2018 35.8453 29.5799 36.467C29.2302 36.8165 28.7652 37.009 28.2707 37.009C28.2703 37.009 28.2699 37.009 28.2695 37.009C28.2123 37.009 28.1658 36.9619 28.1658 36.904V33.5123C28.1658 32.6263 28.7754 31.8788 29.5997 31.6701L32.1404 31.0271C33.0623 30.7941 33.5834 31.2864 34.9638 31.7536C35.922 32.1243 36.9639 32.1014 37.8888 31.7064L38.3505 32.4858C38.5659 32.8495 39.0351 32.9694 39.3985 32.7542C39.762 32.5388 39.882 32.0696 39.6668 31.7061L38.7574 30.1712C38.346 29.4767 38.5752 28.5818 39.2696 28.1701L40.8461 27.2363C40.9149 27.1953 41.006 27.2163 41.0487 27.2882L47.5302 38.2286C47.572 38.2992 47.549 38.3895 47.4785 38.4312Z" fill="#FF5C00"/>
</g>
</g>
</g>
</svg>
