<svg width="52" height="52" viewBox="0 0 52 52" fill="none" xmlns="http://www.w3.org/2000/svg">
<g id="fi_5360720" clip-path="url(#clip0_228_480)">
<g id="Group">
<g id="Group_2">
<path id="Vector" d="M2.91602 40.7763C3.33669 40.7763 3.67773 40.4354 3.67773 40.0146V2.81328C3.67773 2.10204 4.25684 1.52344 4.96859 1.52344H38.6193C39.3305 1.52344 39.9091 2.10204 39.9091 2.81328V6.37102C39.9091 6.79179 40.2502 7.13274 40.6709 7.13274C41.0915 7.13274 41.4326 6.79179 41.4326 6.37102V2.81328C41.4326 1.26202 40.1706 0 38.6193 0H4.96859C3.41682 0 2.1543 1.26202 2.1543 2.81328V40.0146C2.1543 40.4354 2.49534 40.7763 2.91602 40.7763Z" fill="#FF5C00"/>
<path id="Vector_2" d="M33.2845 8.91013C34.157 8.91013 34.867 8.20031 34.867 7.32769V4.8654C34.867 3.99278 34.157 3.28296 33.2845 3.28296H10.3033C9.43063 3.28296 8.7207 3.99278 8.7207 4.8654V7.32769C8.7207 8.20031 9.43063 8.91013 10.3033 8.91013H33.2845ZM10.2442 7.32769V4.8654C10.2442 4.8329 10.2708 4.8064 10.3034 4.8064H33.2845C33.317 4.8064 33.3435 4.8329 33.3435 4.8654V7.32769C33.3435 7.36019 33.317 7.38669 33.2845 7.38669H10.3033C10.2708 7.38669 10.2442 7.36029 10.2442 7.32769Z" fill="#FF5C00"/>
<path id="Vector_3" d="M22.8196 29.5472H13.3809C12.9602 29.5472 12.6191 29.8882 12.6191 30.309C12.6191 30.7297 12.9602 31.0707 13.3809 31.0707H22.8196C23.2402 31.0707 23.5813 30.7297 23.5813 30.309C23.5813 29.8882 23.2402 29.5472 22.8196 29.5472Z" fill="#FF5C00"/>
<path id="Vector_4" d="M22.8196 13H13.3809C12.9602 13 12.6191 13.3409 12.6191 13.7617C12.6191 14.1825 12.9602 14.5234 13.3809 14.5234H22.8196C23.2402 14.5234 23.5813 14.1825 23.5813 13.7617C23.5813 13.3409 23.2402 13 22.8196 13Z" fill="#FF5C00"/>
<path id="Vector_5" d="M34.3821 21H24.9434C24.5227 21 24.1816 21.3409 24.1816 21.7617C24.1816 22.1825 24.5227 22.5234 24.9434 22.5234H34.3821C34.8027 22.5234 35.1438 22.1825 35.1438 21.7617C35.1438 21.3409 34.8027 21 34.3821 21Z" fill="#FF5C00"/>
<path id="Vector_6" d="M10.3019 31.0707C10.7225 31.0707 11.0636 30.7297 11.0636 30.309C11.0636 29.8882 10.7225 29.5472 10.3019 29.5472H8.25C7.82933 29.5472 7.48828 29.8882 7.48828 30.309C7.48828 30.7297 7.82933 31.0707 8.25 31.0707H10.3019Z" fill="#FF5C00"/>
<path id="Vector_7" d="M10.3019 14.5234C10.7225 14.5234 11.0636 14.1825 11.0636 13.7617C11.0636 13.3409 10.7225 13 10.3019 13H8.25C7.82933 13 7.48828 13.3409 7.48828 13.7617C7.48828 14.1825 7.82933 14.5234 8.25 14.5234H10.3019Z" fill="#FF5C00"/>
<path id="Vector_8" d="M21.8644 22.5234C22.285 22.5234 22.6261 22.1825 22.6261 21.7617C22.6261 21.3409 22.285 21 21.8644 21H19.8125C19.3918 21 19.0508 21.3409 19.0508 21.7617C19.0508 22.1825 19.3918 22.5234 19.8125 22.5234H21.8644Z" fill="#FF5C00"/>
<path id="Vector_9" d="M5.4375 33.592C5.4375 34.0128 5.77855 34.3538 6.19922 34.3538H16.8691C17.2897 34.3538 17.6308 34.0128 17.6308 33.592C17.6308 33.1713 17.2897 32.8303 16.8691 32.8303H6.19922C5.77845 32.8303 5.4375 33.1713 5.4375 33.592Z" fill="#FF5C00"/>
<path id="Vector_10" d="M5.4375 17.0448C5.4375 17.4656 5.77855 17.8065 6.19922 17.8065H16.8691C17.2897 17.8065 17.6308 17.4656 17.6308 17.0448C17.6308 16.624 17.2897 16.2831 16.8691 16.2831H6.19922C5.77845 16.2831 5.4375 16.624 5.4375 17.0448Z" fill="#FF5C00"/>
<path id="Vector_11" d="M17 25.0448C17 25.4656 17.341 25.8065 17.7617 25.8065H28.4316C28.8522 25.8065 29.1933 25.4656 29.1933 25.0448C29.1933 24.624 28.8522 24.2831 28.4316 24.2831H17.7617C17.3409 24.2831 17 24.624 17 25.0448Z" fill="#FF5C00"/>
<path id="Vector_12" d="M22.8198 32.8303H20.1523C19.7317 32.8303 19.3906 33.1713 19.3906 33.592C19.3906 34.0128 19.7317 34.3538 20.1523 34.3538H22.8198C23.2405 34.3538 23.5815 34.0128 23.5815 33.592C23.5815 33.1713 23.2405 32.8303 22.8198 32.8303Z" fill="#FF5C00"/>
<path id="Vector_13" d="M22.8198 16.2831H20.1523C19.7317 16.2831 19.3906 16.624 19.3906 17.0448C19.3906 17.4656 19.7317 17.8065 20.1523 17.8065H22.8198C23.2405 17.8065 23.5815 17.4656 23.5815 17.0448C23.5815 16.624 23.2405 16.2831 22.8198 16.2831Z" fill="#FF5C00"/>
<path id="Vector_14" d="M34.3823 24.2831H31.7148C31.2942 24.2831 30.9531 24.624 30.9531 25.0448C30.9531 25.4656 31.2942 25.8065 31.7148 25.8065H34.3823C34.803 25.8065 35.144 25.4656 35.144 25.0448C35.144 24.624 34.803 24.2831 34.3823 24.2831Z" fill="#FF5C00"/>
<path id="Vector_15" d="M22.8183 36.1133H12.1484C11.7278 36.1133 11.3867 36.4542 11.3867 36.875C11.3867 37.2958 11.7278 37.6367 12.1484 37.6367H22.8183C23.239 37.6367 23.58 37.2958 23.58 36.875C23.58 36.4542 23.239 36.1133 22.8183 36.1133Z" fill="#FF5C00"/>
<path id="Vector_16" d="M6.19922 37.6367H8.86666C9.28733 37.6367 9.62838 37.2958 9.62838 36.875C9.62838 36.4542 9.28733 36.1133 8.86666 36.1133H6.19922C5.77855 36.1133 5.4375 36.4542 5.4375 36.875C5.4375 37.2958 5.77845 37.6367 6.19922 37.6367Z" fill="#FF5C00"/>
<path id="Vector_17" d="M6.19922 40.9197H16.8691C17.2897 40.9197 17.6308 40.5787 17.6308 40.158C17.6308 39.7372 17.2897 39.3962 16.8691 39.3962H6.19922C5.77855 39.3962 5.4375 39.7372 5.4375 40.158C5.4375 40.5787 5.77845 40.9197 6.19922 40.9197Z" fill="#FF5C00"/>
<path id="Vector_18" d="M22.8198 39.3962H20.1523C19.7317 39.3962 19.3906 39.7372 19.3906 40.158C19.3906 40.5787 19.7317 40.9197 20.1523 40.9197H22.8198C23.2405 40.9197 23.5815 40.5787 23.5815 40.158C23.5815 39.7372 23.2405 39.3962 22.8198 39.3962Z" fill="#FF5C00"/>
<path id="Vector_19" d="M41.4326 29.9045V9.92566C41.4326 9.50489 41.0915 9.16394 40.6709 9.16394C40.2502 9.16394 39.9091 9.50489 39.9091 9.92566V29.622C39.4857 29.5733 39.0555 29.5474 38.6193 29.5474C32.4289 29.5474 27.3926 34.5833 27.3926 40.7731C27.3926 44.9087 29.6405 48.5284 32.9783 50.4764H4.96859C4.25684 50.4764 3.67773 49.8978 3.67773 49.1866V43.5692C3.67773 43.1484 3.33669 42.8074 2.91602 42.8074C2.49534 42.8074 2.1543 43.1484 2.1543 43.5692V49.1866C2.1543 50.7378 3.41682 51.9999 4.96859 51.9999H38.6193C41.1035 51.9999 43.4591 51.2014 45.4311 49.6907C45.7651 49.4349 45.8284 48.9567 45.5727 48.6228C45.3167 48.2888 44.8386 48.2255 44.5047 48.4812C42.8008 49.7866 40.7656 50.4765 38.6193 50.4765C33.2689 50.4765 28.916 46.1236 28.916 40.7732C28.916 35.4233 33.2689 31.071 38.6193 31.071C43.9697 31.071 48.3226 35.4233 48.3226 40.7732C48.3226 42.6652 47.7751 44.4997 46.7392 46.0784C46.5085 46.4301 46.6065 46.9022 46.9582 47.1331C47.3098 47.3637 47.7821 47.2659 48.0129 46.9141C49.2122 45.0866 49.846 42.9631 49.846 40.7732C49.846 35.5544 46.2659 31.1562 41.4326 29.9045Z" fill="#FF5C00"/>
<path id="Vector_20" d="M40.4209 36.2288L37.2329 39.417L36.8175 39.0015C35.7514 37.9357 34.0171 37.9356 32.9511 39.0016C32.4348 39.5179 32.1504 40.2045 32.1504 40.9347C32.1504 41.665 32.4348 42.3515 32.9511 42.8679L35.474 45.3909C35.9438 45.8606 36.5684 46.1193 37.2328 46.1193C37.8971 46.1193 38.5217 45.8606 38.9914 45.3909L44.2871 40.0951C44.8035 39.5788 45.0878 38.8922 45.0878 38.162C45.0878 37.4317 44.8035 36.7452 44.2871 36.2289C43.7708 35.7125 43.0842 35.4281 42.3539 35.4281C41.6238 35.4281 40.9373 35.7125 40.4209 36.2288ZM43.5645 38.162C43.5645 38.4853 43.4386 38.7893 43.2099 39.0179L37.9143 44.3136C37.5386 44.6895 36.9272 44.6896 36.5513 44.3136L34.0284 41.7906C33.7998 41.562 33.6738 41.2581 33.6738 40.9347C33.6738 40.6113 33.7998 40.3074 34.0284 40.0788C34.2644 39.8427 34.5743 39.7248 34.8844 39.7248C35.1943 39.7248 35.5043 39.8428 35.7403 40.0786L36.6943 41.0327C36.8371 41.1756 37.0309 41.2559 37.2329 41.2559C37.4349 41.2559 37.6287 41.1756 37.7715 41.0328L41.4981 37.3062C41.7267 37.0776 42.0307 36.9516 42.3541 36.9516C42.6774 36.9516 42.9813 37.0775 43.21 37.3062C43.4387 37.5347 43.5645 37.8386 43.5645 38.162Z" fill="#FF5C00"/>
</g>
</g>
</g>
<defs>
<clipPath id="clip0_228_480">
<rect width="52" height="52" fill="white"/>
</clipPath>
</defs>
</svg>
