<svg width="45" height="41" viewBox="0 0 45 41" fill="none" xmlns="http://www.w3.org/2000/svg">
<path id="Vector" fill-rule="evenodd" clip-rule="evenodd" d="M13.3722 3.37478e-05C16.7481 2.62768 17.2137 5.80853 25.1296 4.42556C25.5953 4.28726 28.7383 2.76599 30.9501 1.65961C30.8337 1.79791 30.7173 1.7979 30.4845 1.9362C32.1142 4.14896 33.1619 3.73406 35.7229 5.53193C37.7019 6.9149 38.5168 7.88298 40.1465 9.81914C47.1311 18.5319 46.0834 31.5318 40.1465 36.9254C35.8393 40.7978 25.7117 41.7658 20.3568 40.3829C15.1184 38.585 3.24457 35.6808 0.916367 25.1702C-0.480552 19.2234 -0.364143 12.8617 1.84764 7.60639C3.7102 2.76598 11.6261 1.5213 13.3722 3.37478e-05Z" fill="#FFA0EB"/>
</svg>
