<?xml version="1.0" encoding="UTF-8"?>
<svg xmlns="http://www.w3.org/2000/svg" xmlns:xlink="http://www.w3.org/1999/xlink" width="17px" height="19px" viewBox="0 0 17 19" version="1.1">
<g id="surface1">
<path style=" stroke:none;fill-rule:evenodd;fill:rgb(0%,0%,0%);fill-opacity:1;" d="M 16.246094 9.5625 C 15.253906 10.125 11.464844 14.777344 10.957031 15.542969 C 9.628906 17.417969 10.777344 17.71875 10.050781 18.324219 C 8.648438 19.496094 7.867188 16.792969 6.445312 14.8125 C 5.144531 13.304688 3.851562 11.519531 2.597656 10.089844 C 2.378906 9.851562 0.765625 8.527344 0.238281 8.242188 C 0.195312 8.203125 0.289062 7.933594 0.292969 7.855469 C 0.472656 7.78125 3.011719 7.339844 3.011719 7.339844 C 3.191406 7.304688 3.371094 7.269531 3.550781 7.15625 C 4.359375 6.75 5.046875 5.714844 5.59375 5.105469 C 6.003906 4.609375 6.09375 4.648438 6.457031 4.230469 L 9.746094 0.265625 L 10.898438 0.253906 C 11.59375 1.085938 11.175781 1.855469 11.730469 2.878906 C 12.113281 3.550781 12.316406 4.527344 12.792969 5.046875 L 14.3125 6.597656 C 15.753906 7.644531 15.578125 7.523438 16.503906 7.859375 C 16.753906 8.566406 16.769531 7.863281 16.246094 9.5625 Z M 16.246094 9.5625 "/>
<path style="fill:none;stroke-width:1.5;stroke-linecap:round;stroke-linejoin:round;stroke:rgb(100%,100%,100%);stroke-opacity:1;stroke-miterlimit:4;" d="M 14.424403 8.663035 L 14.424403 17.999794 " transform="matrix(0.62963,0,0,0.655172,0,0)"/>
<path style="fill:none;stroke-width:1.5;stroke-linecap:round;stroke-linejoin:round;stroke:rgb(100%,100%,100%);stroke-opacity:1;stroke-miterlimit:4;" d="M 16.788143 15.996505 L 14.455423 17.999794 L 12.122702 15.996505 " transform="matrix(0.62963,0,0,0.655172,0,0)"/>
</g>
</svg>
