<svg width="27" height="29" viewBox="0 0 27 29" fill="none" xmlns="http://www.w3.org/2000/svg">
<path fill-rule="evenodd" clip-rule="evenodd" d="M25.7999 14.5979C24.2281 15.4522 18.2077 22.5571 17.4046 23.7261C15.2923 26.5868 17.1159 27.0448 15.9657 27.9682C13.7372 29.7574 12.4926 25.6311 10.2346 22.6096C8.17171 20.3052 6.11841 17.5853 4.12323 15.4012C3.77894 15.0369 1.21555 13.0178 0.37908 12.5827C0.309948 12.5218 0.460608 12.1096 0.463363 11.9909C0.748156 11.8787 4.7851 11.2004 4.7851 11.2004C5.06852 11.1476 5.35193 11.0948 5.63811 10.9233C6.92243 10.2999 8.01727 8.72202 8.88542 7.79205C9.53791 7.03523 9.67755 7.09785 10.2568 6.45809L15.4767 0.403474L17.3113 0.386672C18.4106 1.65921 17.7484 2.83149 18.6292 4.39588C19.2404 5.41956 19.5585 6.91151 20.3162 7.70106L22.7303 10.073C25.0213 11.6701 24.7434 11.4855 26.2131 11.9947C26.6114 13.0728 26.6362 12.0045 25.7999 14.5979Z" fill="black"/>
<path d="M14.4238 8.66431V17.9976" stroke="white" stroke-width="1.5" stroke-linecap="round" stroke-linejoin="round"/>
<path d="M16.7868 15.9983L14.4535 17.9983L12.1201 15.9983" stroke="white" stroke-width="1.5" stroke-linecap="round" stroke-linejoin="round"/>
</svg>
