<svg width="188" height="66" viewBox="0 0 188 66" fill="none" xmlns="http://www.w3.org/2000/svg">
<path id="Vector" fill-rule="evenodd" clip-rule="evenodd" d="M95.7011 1.1312C90.0001 2.01203 84.9528 2.40608 79.167 2.53357C67.1599 3.21737 47.1156 8.39803 41.112 10.1945C32.8086 12.6747 24.8684 15.0738 17.8118 18.4464C11.5782 21.3787 4.79994 28.0544 2.5849 34.3825C0.345659 39.7833 -0.695288 39.679 0.50301 46.8415C2.20968 57.0638 19.8695 63.8439 30.3515 64.3654C41.1483 64.8985 51.6062 63.5541 61.592 64.3306C70.5974 65.0376 83.4398 65.478 92.5904 65.1419C103.194 64.3422 111.025 65.6287 124.303 64.9101C137.182 64.2147 139.615 62.7196 151.222 60.2742C159.852 58.4662 177.294 50.6082 181.615 44.002C187.97 33.9305 192.424 20.9614 180.696 11.0753C177.742 8.58348 175.067 7.03043 171.472 5.08334C157.613 -2.39211 142.665 1.14279 127.765 0.783508C118.82 0.574891 103.896 -0.13209 95.7011 1.1312Z" fill="#8CD2FF"/>
</svg>
