<svg width="13" height="14" viewBox="0 0 13 14" fill="none" xmlns="http://www.w3.org/2000/svg">
<path id="Vector" fill-rule="evenodd" clip-rule="evenodd" d="M11.8032 6.65212C11.0845 7.06462 8.37283 10.4196 8.01345 10.9696C7.066 12.3171 7.91544 12.5096 7.39271 12.9496C6.37992 13.8021 5.75918 11.9046 4.68105 10.5296C3.70093 9.48462 2.72081 8.24712 1.77336 7.25712C1.61001 7.09212 0.401195 6.18462 0.00914783 5.99212C-0.0235228 5.96462 0.0418179 5.77212 0.0418179 5.71712C0.1725 5.66212 2.03473 5.30462 2.03473 5.30462C2.16541 5.27712 2.29609 5.24962 2.42677 5.16712C3.01484 4.86462 3.5049 4.12212 3.89695 3.68212C4.19099 3.32462 4.25633 3.35211 4.51769 3.04961L6.86998 0.18961L7.71941 0.162109C8.24214 0.73961 7.94811 1.28961 8.37283 2.00461C8.66686 2.47211 8.83021 3.15961 9.18959 3.51712L10.3331 4.58962C11.4112 5.30462 11.2805 5.22212 11.9666 5.44212C12.1626 5.93712 12.1626 5.44212 11.8032 6.65212Z" fill="black"/>
</svg>
