<svg width="175" height="26" viewBox="0 0 175 26" fill="none" xmlns="http://www.w3.org/2000/svg">
<g clip-path="url(#clip0_37_393)">
<path fill-rule="evenodd" clip-rule="evenodd" d="M21.9086 11.0333C21.8445 11.5186 22.6773 12.2196 22.2289 13.1363C22.1008 13.3519 21.268 14.0529 21.268 14.3225H19.7305C17.1681 14.5382 13.1323 19.9304 11.659 21.9794C10.5699 23.4892 11.0184 24.2981 10.1856 25.5922C10.0574 25.8618 8.32782 25.9157 8.1997 25.7L2.04993 17.6118C1.2812 16.3176 0.768722 15.5088 0 14.7539C0.896843 13.0823 3.13895 11.5186 4.74045 7.58231C5.06075 6.77349 5.18888 6.5578 5.6373 5.8029C6.34196 4.77838 6.02166 4.94015 6.40602 3.91563C6.98256 2.40582 6.9185 3.75387 7.68722 2.3519L8.77625 0.410718C11.5949 0.302875 11.0824 0.949936 12.1074 2.89112L17.04 9.0382C18.065 10.1166 18.3853 11.1412 20.4993 11.3029C20.4352 11.3029 21.9086 11.0333 21.9086 11.0333Z" fill="black"/>
<path fill-rule="evenodd" clip-rule="evenodd" d="M71.4398 9.57895C70.3507 9.90248 68.9414 10.3878 67.5961 10.3878C67.5961 10.4417 67.6602 10.4956 67.7243 10.6035C68.3008 11.2505 70.671 13.0839 70.9913 13.4074C71.0554 13.4613 71.3757 13.3535 71.4398 13.3535C71.4398 13.4074 71.7601 13.6231 71.8882 13.7848L70.671 15.5103C69.9664 16.9662 69.518 18.5839 68.3008 19.5545C67.3399 20.3094 66.6993 21.0104 65.8665 21.4957C65.354 21.7653 63.4322 22.7359 62.8557 22.8976C60.3573 23.7065 56.9622 22.6819 55.4888 21.4417C52.0936 18.476 52.1576 16.8045 52.542 13.3535C52.542 13.2456 52.6061 13.1917 52.6061 13.0839C53.5029 9.68679 55.4247 4.34854 60.037 3.37795C62.2151 2.89265 67.1477 2.83873 68.557 3.91717C70.7351 5.64266 70.9273 8.50052 71.4398 9.57895Z" fill="black"/>
<path fill-rule="evenodd" clip-rule="evenodd" d="M125.032 13.0966C123.623 13.9055 118.306 20.4839 117.601 21.5624C115.743 24.2045 117.409 24.582 116.384 25.4447C114.398 27.1163 113.181 23.3957 111.067 20.6996C109.145 18.6506 107.223 16.2241 105.365 14.2829C105.045 13.9594 102.675 12.18 101.906 11.8025C101.842 11.7486 101.97 11.3711 101.97 11.2633C102.226 11.1555 105.878 10.4545 105.878 10.4545C106.134 10.4005 106.39 10.3466 106.647 10.1849C107.8 9.59172 108.761 8.13583 109.529 7.27308C110.106 6.5721 110.234 6.62602 110.746 6.03288L115.359 0.425016L117.024 0.371094C118.049 1.50345 117.473 2.58189 118.306 3.98385C118.882 4.90052 119.202 6.24857 119.907 6.94955L122.149 9.0525C124.263 10.4545 124.007 10.2927 125.352 10.7241C125.737 11.6947 125.737 10.7241 125.032 13.0966Z" fill="black"/>
<path fill-rule="evenodd" clip-rule="evenodd" d="M174.591 8.88819C173.374 10.4519 171.901 10.6676 172.541 14.3343C172.606 14.55 173.31 16.0059 173.823 17.0304C173.759 16.9765 173.759 16.9225 173.695 16.8147C172.67 17.5696 172.862 18.0549 172.029 19.2412C171.388 20.1578 170.94 20.5353 170.043 21.2902C166.007 24.5255 159.986 24.0402 157.487 21.2902C155.694 19.2951 155.245 14.6039 155.886 12.1235C156.719 9.69702 158.064 4.19699 162.932 3.11856C165.687 2.4715 168.634 2.52542 171.068 3.54993C173.31 4.41268 173.887 8.07936 174.591 8.88819Z" fill="black"/>
</g>
<defs>
<clipPath id="clip0_37_393">
<rect width="174.591" height="25.4903" fill="white" transform="translate(0 0.371094)"/>
</clipPath>
</defs>
</svg>
