<svg width="226" height="66" viewBox="0 0 226 66" fill="none" xmlns="http://www.w3.org/2000/svg">
<path id="Vector" fill-rule="evenodd" clip-rule="evenodd" d="M115.045 0.946389C108.192 1.82722 102.124 2.22127 95.1689 2.34876C80.7347 3.03256 56.639 8.21322 49.4219 10.0096C39.4402 12.4899 29.895 14.889 21.412 18.2616C13.9185 21.1938 5.77014 27.8696 3.10738 34.1976C0.415526 39.5985 -0.835825 39.4942 0.604682 46.6567C2.65631 56.879 23.8856 63.659 36.4864 64.1806C49.4655 64.7137 62.0372 63.3693 74.0415 64.1458C84.8671 64.8528 100.305 65.2932 111.305 64.9571C124.052 64.1574 133.466 65.4439 149.428 64.7253C164.91 64.0299 167.834 62.5348 181.788 60.0894C192.163 58.2814 213.13 50.4234 218.325 43.8172C225.964 33.7456 231.319 20.7766 217.219 10.8905C213.669 8.39866 210.453 6.84562 206.132 4.89852C189.471 -2.57693 171.501 0.957979 153.589 0.598694C142.837 0.390076 124.896 -0.316904 115.045 0.946389Z" fill="#FFFF6E"/>
</svg>
