<svg width="200" height="362" viewBox="0 0 200 362" fill="none" xmlns="http://www.w3.org/2000/svg">
<path fill-rule="evenodd" clip-rule="evenodd" d="M166.924 20.0274C166.671 17.62 168.187 14.6968 164.018 9.10826C161.912 6.27099 156.774 5.11033 153.405 5.49723C148.604 6.09907 147.888 7.77564 144.014 10.0111C141.066 11.7306 139.382 15.6855 136.939 17.878L136.434 16.4164C135.97 13.4931 134.96 8.80746 132.559 7.0879C129.106 4.63753 124.052 4.07867 120.052 4.93845C114.872 6.05617 114.493 7.30268 111.292 11.4296C108.428 15.1267 108.218 19.1247 106.702 23.3376C104.554 23.0367 105.438 22.6929 102.28 19.3398C100.09 17.0184 98.2792 14.31 97.6475 11.3438C97.2684 9.45225 97.2263 9.96804 96.5104 8.46342C95.4155 6.14202 97.1 2.91797 93.6888 2.78901C91.7937 2.74602 90.7409 5.28228 89.3933 6.7869C87.3297 9.06531 77.7279 19.6835 76.7172 20.0274C73.6008 18.1359 78.7386 3.94954 59.1981 6.27094C54.0603 6.87279 49.091 13.5791 47.2801 18.1359C46.6063 19.8555 46.1009 23.1227 45.1323 24.6273C41.9317 24.5843 38.2679 16.8893 36.7939 13.8801C33.9724 8.11955 34.941 12.1604 32.2036 4.1215C31.614 2.44493 29.0451 0.252573 26.771 5.06734C25.7603 7.21678 24.9602 6.87283 24.4127 8.03353C23.781 9.36619 24.0337 9.88202 22.9387 11.6446C22.0965 13.0202 21.7174 13.7081 21.0436 15.1697C17.4219 23.0797 13.8002 26.5619 13 28.3244C15.7374 32.5803 13.6317 28.1095 16.0322 34.1279L22.0122 46.5947C22.9808 48.5722 23.1493 52.4412 26.5604 50.8506C27.866 50.2487 27.9923 46.2937 29.6347 44.1443C30.8981 42.4677 32.3721 40.2324 33.7197 38.6848L40.7526 31.7635C42.4371 30.2159 41.8896 30.0439 44.3743 30.4308C45.6377 33.483 47.1117 37.9108 48.9646 40.4472C51.2388 43.5424 56.1239 45.563 60.0404 44.4453C64.5465 43.1556 65.9784 41.0922 69.2632 38.8997C71.3267 37.5241 73.9799 31.1617 74.8221 28.5394C77.012 29.3561 77.7701 32.2794 78.865 34.1279C81.5181 38.6418 83.2026 40.0603 85.6452 45.9068C86.5717 48.0993 86.9928 51.2804 90.2355 50.3777C92.0043 49.002 90.6988 46.8096 92.636 43.7144C93.8994 41.6509 95.2891 39.9745 96.8894 38.04C99.0372 35.3746 103.291 28.6252 105.691 27.5505C107.376 30.3877 102.743 41.7799 117.23 44.6602C119.841 45.1761 126.032 43.2416 127.8 41.4791C130.412 38.8567 132.264 36.3633 134.033 32.8382C135.212 33.956 138.455 47.5404 149.952 43.9293C155.511 42.1668 154.753 42.4247 159.006 39.0286C162.417 36.3633 162.207 31.6344 165.239 30.7746C167.134 30.9896 172.019 42.1237 173.367 46.8955C173.535 47.4544 173.788 47.7554 173.999 48.4862C174.799 50.9795 176.146 53.301 179.052 51.1516C180.063 48.6152 178.968 48.2282 181.158 45.6489C184.358 41.8658 190.086 32.1073 194.803 29.27C196.403 28.3243 198.045 26.1749 196.15 24.6273C193.455 22.3919 190.802 22.435 189.875 15.9006C189.623 14.0091 189.412 11.6446 189.075 9.96804C188.401 6.6149 189.454 5.11041 189.075 3.00395C188.78 1.2414 186.254 -0.564175 184.695 0.166638C184.064 0.46756 182.59 3.99265 181.874 5.11037C180.147 7.77568 177.073 11.3008 174.841 13.2783C173.577 14.396 172.061 15.5137 170.798 16.7174C169.535 17.8351 168.271 20.1564 166.924 20.0274Z" fill="white"/>
<path fill-rule="evenodd" clip-rule="evenodd" d="M0.968129 213.977C2.55493 213.135 9.71845 208.354 9.71845 208.354C12.2266 207.203 15.0494 203.75 18.5019 201.302C25.6731 196.192 28.1757 189.654 30.8706 186.089C39.0865 186.609 35.1297 188.276 38.3659 200.774C39.2006 204.201 39.1649 205.739 42.2365 208.449C46.4599 212.175 49.8895 210.715 48.5076 213.981C47.9575 215.178 43.8472 217.831 42.1069 219.659L36.2053 226.338C27.9929 236.921 29.5282 232.669 27.5146 240.648C24.7606 241.133 25.2802 241.255 22.1628 240.523C17.1633 230.843 19.8305 234.093 13.0011 224.48C11.6085 222.579 2.36829 215.549 0.960478 214.307C0.699412 214.301 0.968129 213.977 0.968129 213.977Z" fill="white"/>
<path fill-rule="evenodd" clip-rule="evenodd" d="M152.681 299.965C152.321 304.27 151.602 308.174 150.751 312.413C150.162 315.382 147.871 320.221 145.842 322.057C143.028 324.593 133.211 326.862 129.284 326.962C127.157 327.029 125.717 325.46 123.786 327.696C123.524 329.598 123.525 330.9 123.066 333.035C122.739 334.57 121.594 336.372 122.15 337.807C123.852 339.609 125.75 337.874 127.55 337.307C129.186 336.773 131.607 335.939 133.178 335.538C136.418 334.704 143.257 334.237 145.875 336.539C149.311 339.509 148.918 343.814 148.853 347.985L147.707 361.601C149.54 362.769 151.765 361.033 153.892 360.733C154.088 360.7 160.633 361.5 158.67 357.997C158.146 357.062 158.113 358.03 157.884 356.628C157.59 354.893 159.161 345.883 159.553 344.181C160.764 338.975 168.782 335.605 173.167 333.936C174.41 333.469 179.024 333.136 180.464 333.169C181.806 335.738 182.067 338.875 185.831 339.109C189.234 339.309 191.983 338.742 194.404 336.372C195.484 335.338 195.615 334.237 196.728 333.002C199.215 330.266 199.313 327.329 199.771 324.659C199.902 323.925 200 320.522 200 319.621C199.607 318.152 195.124 313.647 190.346 315.916C188.808 316.617 187.107 316.183 184.423 319.921C183.213 321.589 184.293 321.656 181.936 322.557C179.94 323.291 175.359 323.558 173.167 323.558C169.141 323.558 169.24 322.724 165.967 321.222C162.662 319.721 162.76 318.386 162.04 315.182C161.255 311.612 162.335 305.572 163.644 302.201C164.167 300.866 165.084 299.698 164.593 298.263C162.891 297.429 160.666 298.831 158.801 298.964C153.794 299.198 157.426 298.597 152.681 299.965Z" fill="white"/>
</svg>
