<svg width="79" height="139" viewBox="0 0 79 139" fill="none" xmlns="http://www.w3.org/2000/svg">
<path fill-rule="evenodd" clip-rule="evenodd" d="M-41.1735 70.3885C-37.2085 68.283 -19.3088 56.3373 -19.3088 56.3373C-13.0416 53.4611 -5.98819 44.8346 2.63867 38.7169C20.5575 25.9475 26.8108 9.61105 33.5444 0.70245C54.0737 2.00301 44.1868 6.16863 52.2732 37.3967C54.3588 45.9606 54.2696 49.8042 61.9447 56.575C72.4979 65.8848 81.0674 62.238 77.6145 70.3986C76.2398 73.3884 65.9693 80.0173 61.6208 84.5862L46.8745 101.275C26.3539 127.719 30.1902 117.095 25.1588 137.03C18.2774 138.244 19.5757 138.549 11.786 136.72C-0.706252 112.532 5.95843 120.653 -11.1065 96.6329C-14.586 91.8823 -37.6748 74.3155 -41.1926 71.2122C-41.8449 71.197 -41.1735 70.3885 -41.1735 70.3885Z" fill="white"/>
</svg>
