<svg width="377" height="407" viewBox="0 0 377 407" fill="none" xmlns="http://www.w3.org/2000/svg">
<path fill-rule="evenodd" clip-rule="evenodd" d="M367.114 210.011C344.688 222.199 258.792 323.569 247.333 340.248C217.196 381.063 243.214 387.598 226.804 400.773C195.009 426.299 177.251 367.427 145.035 324.318C115.602 291.439 86.3067 252.634 57.8402 221.472C52.9282 216.275 16.3548 187.467 4.42036 181.259C-2.22208 178.935 -0.342064 172.985 5.62288 172.815C9.68618 171.214 67.2836 161.537 67.2836 161.537C71.3273 160.784 75.3709 160.03 79.4539 157.583C97.7781 148.689 113.399 126.176 125.785 112.908C135.095 102.109 137.087 103.003 145.351 93.8751L219.827 7.49048C228.707 -1.56816 234.298 -2.55287 246.003 7.25076C261.686 25.4069 252.239 42.1324 264.806 64.4524C273.526 79.0579 278.065 100.344 288.875 111.609L323.318 145.451C356.005 168.238 352.04 165.604 373.009 172.869C378.691 188.251 379.045 173.009 367.114 210.011Z" fill="#8FD0FC"/>
</svg>
