<svg width="45" height="45" viewBox="0 0 45 45" fill="none" xmlns="http://www.w3.org/2000/svg">
<g clip-path="url(#clip0_66_865)">
<path fill-rule="evenodd" clip-rule="evenodd" d="M42.6554 28.0865C40.9615 31.2155 39.8487 34.7101 37.0009 36.7563C34.7532 38.347 33.2447 39.8374 31.3052 40.8486C30.1132 41.4076 25.645 43.4162 24.311 43.7372C18.5252 45.3632 10.7697 42.9536 7.44427 40.1774C-0.213258 33.5456 0.0184359 29.9132 1.07649 22.4276C1.08193 22.193 1.23196 22.0791 1.23741 21.8446C3.47119 14.5036 8.15988 2.99505 18.815 1.13011C23.8479 0.190801 35.1932 0.336775 38.3795 2.75767C43.844 7.05404 46.6335 23.0025 42.6554 28.0865Z" fill="url(#paint0_linear_66_865)"/>
<path d="M24.0286 12.001C24.7583 11.9982 25.488 12.0055 26.2176 12.023L26.4116 12.03C26.6356 12.038 26.8566 12.048 27.1236 12.06C28.1876 12.11 28.9136 12.278 29.5506 12.525C30.2106 12.779 30.7666 13.123 31.3226 13.679C31.831 14.1786 32.2244 14.7829 32.4756 15.45C32.7226 16.087 32.8906 16.814 32.9406 17.878C32.9526 18.144 32.9626 18.366 32.9706 18.59L32.9766 18.784C32.9943 19.5132 33.002 20.2426 32.9996 20.972L33.0006 21.718V23.028C33.003 23.7577 32.9954 24.4875 32.9776 25.217L32.9716 25.411C32.9636 25.635 32.9536 25.856 32.9416 26.123C32.8916 27.187 32.7216 27.913 32.4756 28.55C32.2252 29.2177 31.8317 29.8226 31.3226 30.322C30.8225 30.8303 30.2179 31.2237 29.5506 31.475C28.9136 31.722 28.1876 31.89 27.1236 31.94C26.8566 31.952 26.6356 31.962 26.4116 31.97L26.2176 31.976C25.4881 31.9938 24.7583 32.0014 24.0286 31.999L23.2826 32H21.9736C21.2438 32.0025 20.5141 31.9948 19.7846 31.977L19.5906 31.971C19.3532 31.9624 19.1158 31.9524 18.8786 31.941C17.8146 31.891 17.0886 31.721 16.4506 31.475C15.7833 31.2243 15.1788 30.8308 14.6796 30.322C14.1706 29.8223 13.7768 29.2175 13.5256 28.55C13.2786 27.913 13.1106 27.187 13.0606 26.123C13.0494 25.8857 13.0394 25.6484 13.0306 25.411L13.0256 25.217C13.0071 24.4875 12.9988 23.7577 13.0006 23.028V20.972C12.9978 20.2426 13.0051 19.5132 13.0226 18.784L13.0296 18.59C13.0376 18.366 13.0476 18.144 13.0596 17.878C13.1096 16.813 13.2776 16.088 13.5246 15.45C13.7759 14.7826 14.1705 14.1784 14.6806 13.68C15.1795 13.1707 15.7835 12.7766 16.4506 12.525C17.0886 12.278 17.8136 12.11 18.8786 12.06L19.5906 12.03L19.7846 12.025C20.5138 12.0066 21.2432 11.9982 21.9726 12L24.0286 12.001ZM23.0006 17.001C22.3381 16.9916 21.6803 17.114 21.0656 17.3611C20.4508 17.6081 19.8912 17.9749 19.4194 18.44C18.9476 18.9052 18.573 19.4595 18.3173 20.0707C18.0616 20.682 17.9299 21.3379 17.9299 22.0005C17.9299 22.663 18.0616 23.319 18.3173 23.9302C18.573 24.5414 18.9476 25.0958 19.4194 25.5609C19.8912 26.0261 20.4508 26.3929 21.0656 26.6399C21.6803 26.887 22.3381 27.0094 23.0006 27C24.3267 27 25.5984 26.4732 26.5361 25.5355C27.4738 24.5978 28.0006 23.3261 28.0006 22C28.0006 20.6739 27.4738 19.4021 26.5361 18.4645C25.5984 17.5268 24.3267 17.001 23.0006 17.001ZM23.0006 19.001C23.3991 18.9936 23.7951 19.0658 24.1654 19.2132C24.5357 19.3606 24.8729 19.5803 25.1574 19.8595C25.4418 20.1387 25.6678 20.4718 25.822 20.8393C25.9763 21.2068 26.0558 21.6014 26.0558 22C26.0559 22.3986 25.9766 22.7931 25.8224 23.1607C25.6683 23.5283 25.4424 23.8614 25.1581 24.1407C24.8737 24.42 24.5366 24.6399 24.1663 24.7874C23.796 24.9349 23.4001 25.0072 23.0016 25C22.2059 25 21.4429 24.6839 20.8803 24.1213C20.3176 23.5587 20.0016 22.7956 20.0016 22C20.0016 21.2043 20.3176 20.4413 20.8803 19.8787C21.4429 19.3161 22.2059 19 23.0016 19L23.0006 19.001ZM28.2506 15.501C27.928 15.5139 27.6229 15.6511 27.3992 15.884C27.1755 16.1168 27.0506 16.4271 27.0506 16.75C27.0506 17.0729 27.1755 17.3832 27.3992 17.616C27.6229 17.8488 27.928 17.9861 28.2506 17.999C28.5821 17.999 28.9 17.8673 29.1345 17.6329C29.3689 17.3984 29.5006 17.0805 29.5006 16.749C29.5006 16.4175 29.3689 16.0995 29.1345 15.8651C28.9 15.6307 28.5821 15.499 28.2506 15.499V15.501Z" fill="white"/>
</g>
<defs>
<linearGradient id="paint0_linear_66_865" x1="14.0037" y1="-4.74262" x2="53.6464" y2="28.4795" gradientUnits="userSpaceOnUse">
<stop stop-color="#EAFF80"/>
<stop offset="1" stop-color="#FF4A7A"/>
</linearGradient>
<clipPath id="clip0_66_865">
<rect width="45" height="45" fill="white"/>
</clipPath>
</defs>
</svg>
