<svg width="258" height="68" viewBox="0 0 258 68" fill="none" xmlns="http://www.w3.org/2000/svg">
<path fill-rule="evenodd" clip-rule="evenodd" d="M131.335 0.914723C123.511 1.8362 116.584 2.24844 108.644 2.38182C92.1662 3.09718 64.6586 8.51694 56.4197 10.3963C45.0246 12.991 34.1279 15.5008 24.4438 19.0291C15.8892 22.0967 6.58715 29.0805 3.54737 35.7006C0.474362 41.3508 -0.954172 41.2417 0.690301 48.7348C3.03243 59.4288 27.2677 66.5218 41.6526 67.0674C56.4695 67.6252 70.8213 66.2187 84.5252 67.031C96.8837 67.7707 114.508 68.2314 127.066 67.8798C141.617 67.0432 152.364 68.389 170.586 67.6373C188.26 66.9098 191.599 65.3457 207.528 62.7874C219.372 60.8959 243.308 52.6753 249.238 45.7642C257.959 35.2278 264.072 21.6602 247.976 11.3178C243.923 8.71095 240.252 7.08622 235.318 5.04926C216.299 -2.77121 195.785 0.926848 175.337 0.55098C163.061 0.332734 142.58 -0.406876 131.335 0.914723Z" fill="#EDEDED"/>
</svg>
