<svg width="45" height="46" viewBox="0 0 45 46" fill="none" xmlns="http://www.w3.org/2000/svg">
<g id="telegram (1) 4" clip-path="url(#clip0_37_363)">
<path id="Vector" fill-rule="evenodd" clip-rule="evenodd" d="M42.6563 28.1585C40.9625 31.2876 39.8497 34.7821 37.0018 36.8283C34.7541 38.419 33.2457 39.9095 31.3062 40.9206C30.1141 41.4796 25.6459 43.4882 24.312 43.8093C18.5262 45.4352 10.7707 43.0256 7.44525 40.2494C-0.212282 33.6176 0.0194125 29.9852 1.07747 22.4996C1.08291 22.265 1.23294 22.1512 1.23838 21.9166C3.47217 14.5756 8.16086 3.06708 18.8159 1.20213C23.8489 0.262822 35.1942 0.408796 38.3805 2.82969C43.845 7.12606 46.6345 23.0745 42.6563 28.1585Z" fill="#D791BF"/>
<g id="Group 1000001419">
<g id="Group">
<g id="Group_2">
<path id="Vector_2" d="M35.1061 14.9597L27.4443 22.5722L35.1061 30.1846C35.2446 29.8951 35.3287 29.5751 35.3287 29.2334V15.911C35.3287 15.5692 35.2446 15.2492 35.1061 14.9597Z" fill="white"/>
</g>
</g>
<g id="Group_3">
<g id="Group_4">
<path id="Vector_3" d="M33.1086 13.6902H12.2862C11.9444 13.6902 11.6245 13.7742 11.335 13.9127L21.1275 23.656C21.9934 24.5218 23.4014 24.5218 24.2673 23.656L34.0599 13.9127C33.7704 13.7742 33.4504 13.6902 33.1086 13.6902Z" fill="white"/>
</g>
</g>
<g id="Group_5">
<g id="Group_6">
<path id="Vector_4" d="M10.288 14.9597C10.1495 15.2492 10.0654 15.5692 10.0654 15.911V29.2334C10.0654 29.5751 10.1495 29.8952 10.288 30.1846L17.9498 22.5722L10.288 14.9597Z" fill="white"/>
</g>
</g>
<g id="Group_7">
<g id="Group_8">
<path id="Vector_5" d="M26.3981 23.6179L25.3139 24.7021C23.8712 26.1448 21.5236 26.1448 20.0809 24.7021L18.9968 23.6179L11.335 31.2304C11.6245 31.3689 11.9444 31.4529 12.2862 31.4529H33.1086C33.4504 31.4529 33.7704 31.3689 34.0599 31.2304L26.3981 23.6179Z" fill="white"/>
</g>
</g>
</g>
</g>
<defs>
<clipPath id="clip0_37_363">
<rect width="45" height="45" fill="white" transform="translate(0 0.0720215)"/>
</clipPath>
</defs>
</svg>
