<svg width="82" height="192" viewBox="0 0 82 192" fill="none" xmlns="http://www.w3.org/2000/svg">
<path fill-rule="evenodd" clip-rule="evenodd" d="M-99.0704 139.396C-104.47 134.896 -102.97 128.396 -96.2704 126.796C-89.1704 125.096 -85.8704 126.096 -78.7704 122.496C-65.9704 115.996 -69.6704 120.396 -48.7704 108.196C-31.1704 97.896 -36.4702 99.896 -25.3702 88.196C-21.3702 83.896 -9.97042 66.496 -8.57042 61.196C-18.4704 59.796 -24.6704 60.7961 -32.5704 53.9961C-40.0704 47.5961 -38.8703 37.7961 -37.9703 28.8961C-35.4703 3.7961 11.0297 -5.10394 24.8297 3.59605C26.9297 4.89606 30.2296 9.796 31.7296 12.296C35.3296 18.296 34.9297 19.096 34.3297 26.296C32.7297 43.896 20.5297 55.196 4.02968 60.296C-1.97032 85.896 12.0296 101.896 33.2296 112.296L53.7296 119.496C59.5296 120.696 73.5297 121.496 78.0297 122.996C81.6297 124.196 82.4297 128.696 81.0297 131.896C79.2297 136.096 75.7297 135.596 71.8297 136.696C52.7297 141.896 19.8297 164.996 1.02968 177.096C-4.47032 180.696 -8.17032 185.296 -14.4703 189.296C-25.6703 196.396 -23.9703 186.096 -26.1703 178.496C-27.0703 175.296 -33.1703 166.196 -33.9703 165.396C-35.6703 163.796 -35.6704 164.696 -37.7704 162.196C-42.2704 156.796 -46.7702 153.096 -53.3702 150.096C-64.5702 144.996 -54.1704 145.096 -73.0704 141.896C-77.3704 141.096 -80.0704 140.196 -84.7704 139.996C-89.2704 139.896 -95.1704 140.396 -99.0704 139.396Z" fill="#FFA0EB"/>
</svg>
