<svg width="172" height="423" viewBox="0 0 172 423" fill="none" xmlns="http://www.w3.org/2000/svg">
<path fill-rule="evenodd" clip-rule="evenodd" d="M194.579 0.523235C175.652 -1.40664 178.356 1.68116 178.356 15.1903L149.001 101.649L92.2219 200.845C81.0205 223.617 47.4165 284.987 55.1416 313.936C62.4804 340.954 59.7766 350.217 81.793 364.884C151.319 411.973 278.009 384.569 288.825 305.83C294.232 265.689 279.554 232.495 273.761 202.389L215.823 59.5775C206.166 36.419 209.643 15.1903 194.579 0.523235Z" fill="#F7EC6E"/>
<path fill-rule="evenodd" clip-rule="evenodd" d="M48.7755 326.071C48.2033 332.797 47.0588 338.898 45.7063 345.52C44.7699 350.16 41.1283 357.721 37.9029 360.588C33.429 364.551 17.8222 368.097 11.5795 368.253C8.19806 368.357 5.90904 365.907 2.83972 369.4C2.42354 372.372 2.42357 374.406 1.69525 377.743C1.17503 380.141 -0.64578 382.957 0.238601 385.199C2.94377 388.015 5.96107 385.303 8.8223 384.417C11.4234 383.583 15.2731 382.279 17.7701 381.653C22.9203 380.35 33.7931 379.62 37.9549 383.218C43.4172 387.858 42.793 394.585 42.6889 401.102L40.8682 422.376C43.7814 424.201 47.3189 421.489 50.7003 421.02C51.0125 420.968 61.417 422.219 58.2957 416.745C57.4633 415.285 57.4112 416.797 57.0471 414.607C56.5788 411.895 59.076 397.817 59.7002 395.158C61.6251 387.024 74.3706 381.758 81.3416 379.151C83.3185 378.421 90.6535 377.899 92.9425 377.951C95.0754 381.966 95.4917 386.868 101.474 387.233C106.885 387.545 111.254 386.659 115.104 382.957C116.821 381.341 117.029 379.62 118.798 377.691C122.751 373.415 122.907 368.827 123.636 364.655C123.844 363.508 124 358.19 124 356.782C123.376 354.488 116.249 347.449 108.653 350.994C106.208 352.089 103.503 351.412 99.2373 357.251C97.3125 359.858 99.0291 359.963 95.2835 361.371C92.1102 362.518 84.8271 362.935 81.3416 362.935C74.9429 362.935 75.0989 361.631 69.8967 359.285C64.6424 356.939 64.7985 354.853 63.654 349.847C62.4055 344.268 64.1222 334.831 66.203 329.564C67.0354 327.479 68.492 325.654 67.7116 323.412C65.0065 322.108 61.469 324.298 58.5037 324.507C50.5443 324.872 56.3188 323.933 48.7755 326.071Z" fill="black"/>
</svg>
