<svg width="97" height="94" viewBox="0 0 97 94" fill="none" xmlns="http://www.w3.org/2000/svg">
<circle cx="47.2146" cy="46.8628" r="46.5" fill="#5C565B" fill-opacity="0.6"/>
<path d="M37.4136 62.7992C36.8988 62.7982 36.3932 62.6633 35.9465 62.4077C34.9405 61.8376 34.3151 60.731 34.3151 59.5297V35.2178C34.3151 34.0131 34.9405 32.9098 35.9465 32.3397C36.4039 32.0769 36.9235 31.9417 37.451 31.9483C37.9785 31.955 38.4946 32.1032 38.9452 32.3775L59.7235 44.8151C60.1565 45.0866 60.5135 45.4637 60.761 45.9109C61.0084 46.3582 61.1382 46.8609 61.1382 47.372C61.1382 47.8832 61.0084 48.3859 60.761 48.8332C60.5135 49.2804 60.1565 49.6575 59.7235 49.929L38.9419 62.37C38.4807 62.6488 37.9525 62.7971 37.4136 62.7992Z" fill="white"/>
</svg>
