<svg width="28" height="29" viewBox="0 0 28 29" fill="none" xmlns="http://www.w3.org/2000/svg">
<circle cx="14" cy="14.5" r="14" fill="#6440FF"/>
<path d="M15.48 21.72C14.732 21.72 14.0573 21.6027 13.456 21.368C12.8693 21.1333 12.4 20.73 12.048 20.158C11.696 19.5713 11.52 18.7647 11.52 17.738V11.952H8.506V9.488H19.066V11.952H14.798V17.738C14.798 18.046 14.8567 18.3027 14.974 18.508C15.0913 18.7133 15.26 18.8673 15.48 18.97C15.7 19.058 15.9493 19.102 16.228 19.102C16.5947 19.102 16.9467 19.0653 17.284 18.992C17.6213 18.9187 17.9587 18.8307 18.296 18.728V21.17C17.9733 21.3167 17.5627 21.4413 17.064 21.544C16.58 21.6613 16.052 21.72 15.48 21.72Z" fill="white"/>
</svg>
