<svg width="220" height="77" viewBox="0 0 220 77" fill="none" xmlns="http://www.w3.org/2000/svg">
<path fill-rule="evenodd" clip-rule="evenodd" d="M111.991 1.0232C105.319 2.05395 99.4128 2.51508 92.6423 2.66427C78.5913 3.46446 55.1353 9.52693 48.1098 11.6291C38.3931 14.5315 29.1013 17.339 20.8435 21.2857C13.5489 24.717 5.61695 32.5291 3.02489 39.9342C0.404495 46.2544 -0.813635 46.1323 0.588629 54.514C2.58579 66.4762 23.2515 74.4103 35.5178 75.0207C48.1523 75.6445 60.3902 74.0713 72.0758 74.98C82.614 75.8073 97.6423 76.3227 108.35 75.9293C120.758 74.9935 129.923 76.499 145.461 75.6581C160.532 74.8443 163.379 73.0948 176.962 70.2331C187.061 68.1173 207.472 58.9218 212.529 51.1912C219.965 39.4053 225.177 24.2288 211.452 12.6599C207.996 9.74394 204.866 7.92655 200.659 5.64803C184.441 -3.09983 166.948 1.03676 149.512 0.616319C139.044 0.372192 121.58 -0.455126 111.991 1.0232Z" fill="black"/>
<path d="M37.908 42.6575C36.928 42.6575 36.0413 42.4428 35.248 42.0135C34.464 41.5748 33.848 40.9775 33.4 40.2215C32.952 39.4561 32.728 38.5975 32.728 37.6455C32.728 36.6935 32.952 35.8395 33.4 35.0835C33.848 34.3181 34.4687 33.7208 35.262 33.2915C36.0553 32.8528 36.942 32.6335 37.922 32.6335C38.6873 32.6335 39.3873 32.7641 40.022 33.0255C40.6567 33.2775 41.198 33.6555 41.646 34.1595L40.736 35.0415C39.9987 34.2668 39.0793 33.8795 37.978 33.8795C37.25 33.8795 36.592 34.0428 36.004 34.3695C35.416 34.6961 34.954 35.1488 34.618 35.7275C34.2913 36.2968 34.128 36.9361 34.128 37.6455C34.128 38.3548 34.2913 38.9988 34.618 39.5775C34.954 40.1468 35.416 40.5948 36.004 40.9215C36.592 41.2481 37.25 41.4115 37.978 41.4115C39.07 41.4115 39.9893 41.0195 40.736 40.2355L41.646 41.1175C41.198 41.6215 40.652 42.0041 40.008 42.2655C39.3733 42.5268 38.6733 42.6575 37.908 42.6575ZM49.3927 35.1255V42.5455H48.0487V36.3015H44.8567L44.7727 37.9535C44.726 38.9521 44.6374 39.7875 44.5067 40.4595C44.376 41.1221 44.1614 41.6541 43.8627 42.0555C43.564 42.4568 43.1487 42.6575 42.6167 42.6575C42.374 42.6575 42.0987 42.6155 41.7907 42.5315L41.8747 41.3975C41.996 41.4255 42.108 41.4395 42.2107 41.4395C42.584 41.4395 42.864 41.2761 43.0507 40.9495C43.2374 40.6228 43.3587 40.2355 43.4147 39.7875C43.4707 39.3395 43.522 38.7001 43.5687 37.8695L43.6947 35.1255H49.3927ZM58.6135 35.1255L55.0155 43.2875C54.6981 44.0435 54.3248 44.5755 53.8955 44.8835C53.4755 45.1915 52.9668 45.3455 52.3695 45.3455C52.0055 45.3455 51.6508 45.2848 51.3055 45.1635C50.9695 45.0515 50.6895 44.8835 50.4655 44.6595L51.0395 43.6515C51.4221 44.0155 51.8655 44.1975 52.3695 44.1975C52.6961 44.1975 52.9668 44.1088 53.1815 43.9315C53.4055 43.7635 53.6061 43.4695 53.7835 43.0495L54.0215 42.5315L50.7455 35.1255H52.1455L54.7355 41.0615L57.2975 35.1255H58.6135ZM70.5595 35.1255V42.5455H59.9895V35.1255H61.3335V41.3695H64.6095V35.1255H65.9535V41.3695H69.2155V35.1255H70.5595ZM75.8152 35.0555C76.8419 35.0555 77.6259 35.3075 78.1672 35.8115C78.7179 36.3155 78.9932 37.0668 78.9932 38.0655V42.5455H77.7192V41.5655C77.4952 41.9108 77.1732 42.1768 76.7532 42.3635C76.3425 42.5408 75.8525 42.6295 75.2832 42.6295C74.4525 42.6295 73.7852 42.4288 73.2812 42.0275C72.7865 41.6261 72.5392 41.0988 72.5392 40.4455C72.5392 39.7921 72.7772 39.2695 73.2532 38.8775C73.7292 38.4761 74.4852 38.2755 75.5212 38.2755H77.6492V38.0095C77.6492 37.4308 77.4812 36.9875 77.1452 36.6795C76.8092 36.3715 76.3145 36.2175 75.6612 36.2175C75.2225 36.2175 74.7932 36.2921 74.3732 36.4415C73.9532 36.5815 73.5985 36.7728 73.3092 37.0155L72.7492 36.0075C73.1319 35.6995 73.5892 35.4661 74.1212 35.3075C74.6532 35.1395 75.2179 35.0555 75.8152 35.0555ZM75.5072 41.5935C76.0205 41.5935 76.4639 41.4815 76.8372 41.2575C77.2105 41.0241 77.4812 40.6975 77.6492 40.2775V39.2415H75.5772C74.4385 39.2415 73.8692 39.6241 73.8692 40.3895C73.8692 40.7628 74.0139 41.0568 74.3032 41.2715C74.5925 41.4861 74.9939 41.5935 75.5072 41.5935ZM86.9433 36.3015H84.2273V42.5455H82.8833V36.3015H80.1673V35.1255H86.9433V36.3015ZM91.7476 37.6455C92.6903 37.6548 93.409 37.8695 93.9036 38.2895C94.3983 38.7095 94.6456 39.3021 94.6456 40.0675C94.6456 40.8701 94.375 41.4908 93.8336 41.9295C93.3016 42.3588 92.5363 42.5688 91.5376 42.5595L88.3176 42.5455V35.1255H89.6616V37.6315L91.7476 37.6455ZM91.4256 41.5375C92.0323 41.5468 92.4896 41.4255 92.7976 41.1735C93.115 40.9215 93.2736 40.5481 93.2736 40.0535C93.2736 39.5681 93.1196 39.2135 92.8116 38.9895C92.513 38.7655 92.051 38.6488 91.4256 38.6395L89.6616 38.6115V41.5235L91.4256 41.5375ZM100.13 35.1255H101.474V38.2755H105.702V35.1255H107.046V42.5455H105.702V39.4375H101.474V42.5455H100.13V35.1255ZM112.305 35.0555C113.332 35.0555 114.116 35.3075 114.657 35.8115C115.208 36.3155 115.483 37.0668 115.483 38.0655V42.5455H114.209V41.5655C113.985 41.9108 113.663 42.1768 113.243 42.3635C112.833 42.5408 112.343 42.6295 111.773 42.6295C110.943 42.6295 110.275 42.4288 109.771 42.0275C109.277 41.6261 109.029 41.0988 109.029 40.4455C109.029 39.7921 109.267 39.2695 109.743 38.8775C110.219 38.4761 110.975 38.2755 112.011 38.2755H114.139V38.0095C114.139 37.4308 113.971 36.9875 113.635 36.6795C113.299 36.3715 112.805 36.2175 112.151 36.2175C111.713 36.2175 111.283 36.2921 110.863 36.4415C110.443 36.5815 110.089 36.7728 109.799 37.0155L109.239 36.0075C109.622 35.6995 110.079 35.4661 110.611 35.3075C111.143 35.1395 111.708 35.0555 112.305 35.0555ZM111.997 41.5935C112.511 41.5935 112.954 41.4815 113.327 41.2575C113.701 41.0241 113.971 40.6975 114.139 40.2775V39.2415H112.067C110.929 39.2415 110.359 39.6241 110.359 40.3895C110.359 40.7628 110.504 41.0568 110.793 41.2715C111.083 41.4861 111.484 41.5935 111.997 41.5935Z" fill="white"/>
<g clip-path="url(#clip0_34_2170)">
<path fill-rule="evenodd" clip-rule="evenodd" d="M183.453 38.9766C181.056 38.9766 179.082 40.9506 179.082 43.3758C179.082 45.8011 181.056 47.7751 183.481 47.7751C185.963 47.7751 187.937 45.8011 187.937 43.3758C187.937 40.9506 185.963 38.9766 183.538 38.9766M183.538 40.6686C185.061 40.6686 186.245 41.8812 186.245 43.3758C186.245 44.8704 185.061 46.0831 183.566 46.0831C182.099 46.0831 180.887 44.8704 180.887 43.3758C180.887 41.8812 182.099 40.6686 183.594 40.6686" fill="#CA2449"/>
<path fill-rule="evenodd" clip-rule="evenodd" d="M195.408 47.8033V26.8505H187.879V22.0564H208.465V26.8505H200.936V47.8033H195.408ZM227.049 30.3191C227.049 28.1759 225.357 26.8505 223.214 26.8505H217.433V33.8442H223.214C225.385 33.8442 227.049 32.4905 227.049 30.2909M226.485 47.7751L221.409 38.6382H217.461V47.8033H211.934V22H224.004C229.362 22 232.689 25.5532 232.689 30.3191C232.689 34.8312 229.785 37.3128 227.049 37.9896L232.802 47.8033H226.457M247.466 27.4991L243.405 38.6382H251.414L247.466 27.4709V27.4991ZM254.601 47.8033L252.965 43.4323H241.967L240.275 47.8033H234.071L244.026 22H250.85L260.833 47.8033H254.629H254.601ZM266.502 47.8033L256.575 22H262.779L269.942 41.7967L277.077 22.0564H283.281L273.411 47.8033H266.502ZM285.678 47.8033V22H303.952V26.8505H291.177V32.2649H303.67V37.059H291.177V42.9811H303.952V47.7751H285.706" fill="#255066"/>
<mask id="mask0_34_2170" style="mask-type:luminance" maskUnits="userSpaceOnUse" x="131" y="22" width="194" height="26">
<path d="M227.727 22H131V47.8033H324.455V22H227.727Z" fill="#CA2449"/>
</mask>
<g mask="url(#mask0_34_2170)">
<path fill-rule="evenodd" clip-rule="evenodd" d="M138.896 44.5603L141.998 45.2935L141.603 47.7751H131.395L131 45.2935L134.102 44.5603V34.8312L131.395 34.7748L131 32.2367L136.725 30.4037H138.896V44.5603ZM138.896 24.7072C138.896 26.2019 137.712 27.4145 136.217 27.4145C134.722 27.4145 133.538 26.2301 133.538 24.7072C133.538 23.2408 134.722 22 136.217 22C137.712 22 138.896 23.269 138.896 24.7354V24.7072Z" fill="#CA2449"/>
</g>
<path fill-rule="evenodd" clip-rule="evenodd" d="M158.579 44.6448L158.156 47.7468H144.479L144.141 45.4062L152.826 33.6748H147.75L146.989 36.7769L144.535 36.3821V33.6466L144.902 30.6292H157.79L158.156 33.2518L150.091 44.5602H155.364L156.069 41.4581L158.523 41.8811V44.5602M168.788 44.5602L171.833 45.2934L171.467 47.775H161.23L160.835 45.2934L163.937 44.5602V34.831L161.23 34.7746L160.835 32.2366L166.56 30.4036H168.816V44.5602H168.788ZM168.788 24.7071C168.788 26.2017 167.547 27.4143 166.052 27.4143C164.558 27.4143 163.373 26.2017 163.373 24.7071C163.373 23.2407 164.558 22.0281 166.052 22.0281C167.547 22.0281 168.76 23.2971 168.76 24.7635L168.788 24.7071Z" fill="#CA2449"/>
</g>
<defs>
<clipPath id="clip0_34_2170">
<rect width="57" height="31.0909" fill="white" transform="translate(131 22)"/>
</clipPath>
</defs>
</svg>
