<svg width="42" height="41" viewBox="0 0 42 41" fill="none" xmlns="http://www.w3.org/2000/svg">
<path fill-rule="evenodd" clip-rule="evenodd" d="M40.0315 20.6488C37.5927 21.8469 28.2647 31.8354 27.0211 33.4795C23.7495 37.5024 26.5838 38.1537 24.8002 39.4507C21.3446 41.9635 19.3973 36.1466 15.8798 31.8826C12.6675 28.6294 9.46888 24.791 6.36229 21.7076C5.82627 21.1932 1.83759 18.3403 0.536786 17.7245C0.429194 17.6384 0.66184 17.0583 0.665721 16.8911C1.10773 16.734 7.37631 15.7921 7.37631 15.7921C7.81639 15.7187 8.25646 15.6452 8.70041 15.4046C10.6933 14.5307 12.3887 12.3116 13.7342 11.0044C14.7452 9.94046 14.9623 10.0291 15.8599 9.12985L23.9481 0.618179L26.7978 0.600674C28.5096 2.39701 27.485 4.04619 28.8585 6.25292C29.8113 7.69705 30.3104 9.79984 31.4901 10.9146L35.248 14.2641C38.8122 16.5217 38.3799 16.2607 40.6645 16.9829C41.2868 18.503 41.3217 16.9982 40.0315 20.6488Z" fill="#8FCEF2"/>
<path d="M22.2505 25.25C25.5642 25.25 28.2505 22.5637 28.2505 19.25C28.2505 15.9363 25.5642 13.25 22.2505 13.25C18.9368 13.25 16.2505 15.9363 16.2505 19.25C16.2505 22.5637 18.9368 25.25 22.2505 25.25Z" stroke="white" stroke-width="0.972098" stroke-linecap="round" stroke-linejoin="round"/>
<path d="M29.7513 26.7498L26.4888 23.4873" stroke="white" stroke-width="0.972098" stroke-linecap="round" stroke-linejoin="round"/>
</svg>
