<svg width="45" height="46" viewBox="0 0 45 46" fill="none" xmlns="http://www.w3.org/2000/svg">
<g id="telegram (1) 2" clip-path="url(#clip0_37_356)">
<path id="Vector" fill-rule="evenodd" clip-rule="evenodd" d="M42.4654 13.6841C44.6635 19.2969 46.0075 24.4882 40.7696 30.7995C40.6283 30.6861 40.6283 30.5728 40.487 30.3461C38.226 31.9329 38.6499 32.953 36.8128 35.4467C35.3997 37.3736 34.4105 38.167 32.4321 39.7538C23.5293 46.5546 10.2457 45.5345 4.73443 39.7538C0.777617 35.56 -0.211585 25.6989 1.20156 20.4849C3.03865 15.3843 6.00626 3.823 16.7462 1.55607C22.8227 0.195914 29.3232 0.309259 34.6931 2.46284C39.6391 4.27639 40.911 11.9839 42.4654 13.6841Z" fill="#23B6EB"/>
<g id="Artboard">
<path id="Path-3" fill-rule="evenodd" clip-rule="evenodd" d="M10.9381 21.8832C16.6567 19.3917 20.47 17.7491 22.3779 16.9556C27.8255 14.6897 28.9575 14.2961 29.6953 14.2831C29.8576 14.2803 30.2204 14.3205 30.4554 14.5112C30.804 14.7941 30.806 15.4082 30.7673 15.8146C30.4721 18.9164 29.1947 26.4436 28.5449 29.9177C28.2699 31.3877 27.7284 31.8806 27.2043 31.9288C26.0652 32.0337 25.2002 31.176 24.0968 30.4528C22.3704 29.321 21.395 28.6165 19.7191 27.5122C17.7824 26.2359 19.0379 25.5345 20.1416 24.3881C20.4305 24.0881 25.4496 19.5228 25.5467 19.1086C25.5589 19.0568 25.5702 18.8637 25.4555 18.7618C25.3408 18.6599 25.1715 18.6947 25.0494 18.7224C24.8762 18.7617 22.1181 20.5847 16.7751 24.1914C15.9922 24.729 15.2831 24.9909 14.6478 24.9772C13.9474 24.9621 12.6002 24.5812 11.5986 24.2556C10.3701 23.8563 9.39374 23.6451 9.4788 22.967C9.52309 22.6136 10.0095 22.2524 10.9381 21.8832Z" fill="white"/>
</g>
</g>
<defs>
<clipPath id="clip0_37_356">
<rect width="45" height="45" fill="white" transform="translate(0 0.0720215)"/>
</clipPath>
</defs>
</svg>
