<svg width="45" height="46" viewBox="0 0 45 46" fill="none" xmlns="http://www.w3.org/2000/svg">
<g id="telegram (1) 3" clip-path="url(#clip0_37_360)">
<path id="Vector" fill-rule="evenodd" clip-rule="evenodd" d="M43.0334 26.8404C44.208 21.0918 44.1737 19.5673 44.0897 15.8362C43.8257 12.6266 44.2218 11.4804 42.2412 8.61468C39.3363 4.37348 36.2994 -1.01399 24.5478 1.16393C20.1904 1.96632 16.7574 4.48811 13.0602 6.89528C9.89125 9.07319 8.30676 12.6266 5.13779 15.8362C2.62902 19.1604 -0.40792 19.6189 0.912485 27.4135C1.04453 27.872 2.49697 30.9669 3.5533 33.1449C5.40186 36.6983 7.11839 39.9078 10.8155 41.9711C19.9263 47.1293 29.5653 42.4296 36.0353 36.9275C39.3363 34.1765 41.1849 27.6428 43.0334 26.8404Z" fill="#2787F5"/>
<path id="Vector_2" fill-rule="evenodd" clip-rule="evenodd" d="M13.7188 14.8748H10.9982C10.2209 14.8748 10.0654 15.2416 10.0654 15.6459C10.0654 16.3682 10.9878 19.9503 14.3601 24.6881C16.6083 27.9236 19.7757 29.6774 22.658 29.6774C24.3874 29.6774 24.6013 29.2879 24.6013 28.6169V26.1715C24.6013 25.3924 24.7652 25.2369 25.3127 25.2369C25.7163 25.2369 26.4081 25.4391 28.0221 26.9991C29.8668 28.848 30.1709 29.6774 31.2085 29.6774H33.9291C34.7065 29.6774 35.0951 29.2879 34.8709 28.5191C34.6255 27.7529 33.7448 26.6413 32.5761 25.3236C31.942 24.5725 30.9908 23.7637 30.7026 23.3592C30.2991 22.8392 30.4144 22.608 30.7026 22.1459C30.7026 22.1459 34.0173 17.4659 34.3632 15.8772C34.536 15.2993 34.3632 14.8748 33.5404 14.8748H30.8198C30.1281 14.8748 29.8091 15.2416 29.6361 15.6459C29.6361 15.6459 28.2526 19.0259 26.2927 21.2215C25.6586 21.857 25.3703 22.0592 25.0244 22.0592C24.8515 22.0592 24.6012 21.857 24.6012 21.2793V15.8772C24.6012 15.1838 24.4005 14.8748 23.8239 14.8748H19.5486C19.1164 14.8748 18.8564 15.1965 18.8564 15.5015C18.8564 16.1587 19.8364 16.3103 19.9373 18.1592V22.1748C19.9373 23.0551 19.7786 23.2148 19.4328 23.2148C18.5105 23.2148 16.2669 19.8197 14.9364 15.9348C14.6757 15.1798 14.4142 14.8748 13.7188 14.8748Z" fill="white"/>
</g>
<defs>
<clipPath id="clip0_37_360">
<rect width="45" height="45" fill="white" transform="translate(0 0.0720215)"/>
</clipPath>
</defs>
</svg>
