<svg width="17" height="17" viewBox="0 0 17 17" fill="none" xmlns="http://www.w3.org/2000/svg">
<path d="M15.9998 12L13.9998 10C13.2543 9.25874 11.298 9.0364 10.9998 10C10.7762 10.6672 10.6708 11.1483 9.99982 11C8.50871 10.6294 6.3726 8.55663 5.99982 7C5.77616 6.33284 6.32882 6.22235 6.99982 6C7.96904 5.7035 7.74538 3.74125 6.99982 3L4.99982 0.999998C4.40338 0.48112 3.52171 0.48112 2.99982 0.999998L1.99982 3C0.583269 4.48251 1.49572 8.51611 4.99982 12C8.50393 15.4839 12.5087 16.4825 13.9998 15L15.9998 14C16.5217 13.407 16.5217 12.5189 15.9998 12Z" stroke="black"/>
</svg>
