<svg width="181" height="55" viewBox="0 0 181 55" fill="none" xmlns="http://www.w3.org/2000/svg">
<g id="&#208;&#156;&#208;&#190;&#209;&#129;&#208;&#186;&#208;&#178;&#208;&#176; &#208;&#187;&#208;&#190;&#208;&#179;&#208;&#190; &#208;&#179;&#208;&#190;&#209;&#128; 1" clip-path="url(#clip0_1462_1079)">
<g id="&#208;&#161;&#208;&#187;&#208;&#190;&#208;&#185;_x0020_1">
<g id="_1423051693264">
<g id="Group">
<path id="Vector" fill-rule="evenodd" clip-rule="evenodd" d="M26.2681 54.4392C24.1326 53.3549 21.9969 52.2705 19.8613 51.1863C20.1092 47.6142 21.3249 44.7008 25.8256 44.0229C29.7087 44.4075 31.6059 47.075 32.2324 51.204C30.2442 52.2825 28.2563 53.3609 26.2681 54.4392Z" fill="#1169B0"/>
<path id="Vector_2" d="M25.8616 42.0324C27.7969 42.0324 29.3657 40.4051 29.3657 38.3976C29.3657 36.3901 27.7969 34.7627 25.8616 34.7627C23.9262 34.7627 22.3574 36.3901 22.3574 38.3976C22.3574 40.4051 23.9262 42.0324 25.8616 42.0324Z" fill="#1169B0"/>
<path id="Vector_3" d="M16.7372 30.356C17.8333 30.356 18.8754 30.7897 19.6504 31.5681C20.4253 32.3464 20.8571 33.3929 20.8571 34.4938C20.8571 35.5948 20.4255 36.6414 19.6504 37.4197C18.8754 38.198 17.8333 38.6316 16.7372 38.6316C15.641 38.6316 14.5989 38.198 13.8239 37.4197C13.049 36.6414 12.6172 35.5948 12.6172 34.4938C12.6172 33.3929 13.049 32.3463 13.8239 31.568C14.5989 30.7897 15.641 30.356 16.7372 30.356ZM18.8848 32.3365C18.3132 31.7625 17.5456 31.443 16.7372 31.443L18.8848 32.3366L18.885 32.3367C18.8849 32.3366 18.8849 32.3366 18.8848 32.3365Z" fill="#1169B0" stroke="#1169B0" stroke-width="0.000102491"/>
<path id="Vector_4" d="M11.3317 46.275L26.4169 53.9725C26.6827 54.108 26.7898 54.4337 26.6557 54.701C26.5214 54.9687 26.1956 55.0767 25.9294 54.9411L10.5792 47.1086L10.5792 47.1086L10.5792 47.1086C10.3991 47.0261 10.2797 46.8524 10.2654 46.6536C10.1559 45.147 10.6381 43.6537 11.4827 42.4164C12.185 41.3875 13.1509 40.5151 14.2642 39.9577C15.3908 39.3939 16.6552 39.1643 17.9007 39.3951C19.2478 39.645 20.3867 40.3886 21.3036 41.3925C21.5049 41.6129 21.4909 41.9568 21.2716 42.1592C21.0522 42.3619 20.7092 42.3479 20.5076 42.1271C19.7532 41.3012 18.8166 40.6682 17.7056 40.4622C16.6937 40.2746 15.6609 40.4727 14.7467 40.9304C13.7975 41.4055 12.9737 42.152 12.375 43.029C11.7266 43.9787 11.3205 45.1169 11.3316 46.275L11.3317 46.275Z" fill="#1169B0" stroke="#1169B0" stroke-width="0.000102491"/>
<path id="Vector_5" d="M40.972 46.275V46.2804L40.9721 46.275C40.9831 45.1169 40.577 43.9788 39.9286 43.029C39.3302 42.152 38.5064 41.4055 37.5571 40.9305C36.6426 40.4727 35.6099 40.2746 34.598 40.4622C33.487 40.6682 32.5504 41.3012 31.796 42.1271C31.5944 42.348 31.2515 42.3618 31.0321 42.1593C30.8128 41.9568 30.7988 41.6129 31.0001 41.3925C31.9171 40.3887 33.0561 39.6451 34.403 39.3951C35.6482 39.1643 36.9128 39.3938 38.0394 39.9578C39.1528 40.5151 40.1186 41.3875 40.8211 42.4164C41.6656 43.6537 42.1478 45.1468 42.0384 46.6536C42.0239 46.8524 41.9045 47.0261 41.728 47.1069L26.3742 54.9411C26.108 55.0769 25.7821 54.9687 25.6478 54.7011C25.5135 54.4337 25.6207 54.1079 25.8865 53.9725L40.9719 46.275H40.9719H40.972Z" fill="#1169B0" stroke="#1169B0" stroke-width="0.000102491"/>
<path id="Vector_6" d="M35.1239 30.356C36.22 30.356 37.2622 30.7897 38.0372 31.568C38.8121 32.3463 39.2439 33.3929 39.2439 34.4938C39.2439 35.5948 38.8121 36.6414 38.0372 37.4197C37.2622 38.198 36.22 38.6316 35.1239 38.6316C34.0278 38.6316 32.9855 38.198 32.2106 37.4197C31.4356 36.6414 31.0038 35.5948 31.0038 34.4938C31.0038 33.3929 31.4356 32.3463 32.2106 31.568C32.9855 30.7897 34.0278 30.356 35.1239 30.356ZM37.2716 32.3365C36.7001 31.7624 35.9322 31.443 35.1239 31.443C34.3154 31.443 33.5476 31.7625 32.9761 32.3365C32.4044 32.9107 32.0864 33.6818 32.0864 34.4936C32.0864 35.3057 32.4046 36.0768 32.9761 36.6508C33.5478 37.225 34.3155 37.5442 35.1239 37.5442C35.9324 37.5442 36.7001 37.2248 37.2716 36.6508C37.8433 36.0767 38.1613 35.3056 38.1613 34.4936C38.1613 33.6816 37.8432 32.9105 37.2716 32.3365Z" fill="#1169B0" stroke="#1169B0" stroke-width="0.000102491"/>
<path id="Vector_7" fill-rule="evenodd" clip-rule="evenodd" d="M25.9012 34.2456C26.9975 34.2456 28.0394 34.6794 28.8144 35.4577C29.5894 36.2361 30.0213 37.2827 30.0213 38.3836C30.0213 39.4844 29.5895 40.5312 28.8146 41.3095C28.0396 42.0878 26.9975 42.5215 25.9012 42.5215C24.8051 42.5215 23.7628 42.0878 22.9879 41.3095C22.2129 40.5312 21.7811 39.4844 21.7811 38.3836C21.7811 37.2827 22.2129 36.2359 22.988 35.4576C23.763 34.6793 24.8051 34.2456 25.9012 34.2456ZM28.049 36.2265C27.4773 35.6522 26.7097 35.3328 25.9012 35.3328C25.0927 35.3328 24.325 35.6524 23.7535 36.2264C23.1818 36.8004 22.8638 37.5716 22.8638 38.3834C22.8638 39.1954 23.1818 39.9666 23.7533 40.5404C24.325 41.1146 25.0929 41.434 25.9012 41.434C26.7098 41.434 27.4776 41.1144 28.0491 40.5404C28.6208 39.9664 28.9386 39.1952 28.9386 38.3834C28.9386 37.5714 28.6205 36.8005 28.049 36.2264V36.2265Z" fill="#1169B0"/>
<path id="Vector_8" d="M20.3237 50.8636H20.3236L20.3237 50.8636L26.1728 53.8483L26.1727 53.8483L26.1728 53.8483L31.7096 51.004L31.7096 51.0041L31.7096 51.004C31.3859 48.6818 30.3396 46.3102 28.1871 45.1688C27.431 44.7679 26.5786 44.5566 25.7229 44.5766C24.8737 44.5963 24.0505 44.8397 23.3213 45.2763C21.3681 46.4463 20.5004 48.6759 20.3237 50.8634V50.8636ZM25.9291 54.9412L19.5174 51.6698C19.3206 51.5694 19.2037 51.3603 19.2227 51.1436L19.2227 51.1436C19.3573 48.471 20.3878 45.7705 22.7673 44.3452C23.6579 43.812 24.6638 43.5166 25.7004 43.4923C26.7387 43.4682 27.7736 43.7223 28.6911 44.2087C31.2927 45.5881 32.5239 48.4386 32.8299 51.2556C32.8556 51.492 32.7264 51.7166 32.515 51.8079L26.4185 54.9397C26.2647 55.0186 26.0828 55.0197 25.9291 54.9412Z" fill="#1169B0" stroke="#1169B0" stroke-width="0.000102491"/>
<path id="Vector_9" fill-rule="evenodd" clip-rule="evenodd" d="M7.92377 46.0946V35.7577V33.9098C7.92377 33.7723 7.97538 33.6404 8.0682 33.5401L12.1352 27.4397L12.1495 27.4261C12.2511 27.3266 12.3861 27.2707 12.5282 27.2701L17.3539 27.249V20.3881C17.3539 20.0895 17.596 19.8471 17.893 19.8457L21.5205 19.8304L24.5804 8.58794L23.7558 9.19211C23.6133 9.31109 23.4198 9.34883 23.2428 9.29108C22.9589 9.19847 22.8032 8.89169 22.8958 8.60658L23.7982 5.83582L21.4455 4.12608C21.3068 4.02301 21.2243 3.86113 21.2243 3.68727C21.2243 3.38792 21.4663 3.14449 21.7647 3.14494L24.6675 3.1504L25.559 0.376915C25.642 0.118331 25.9038 -0.0373345 26.1657 0.00844057C26.4274 -0.037183 26.6892 0.118483 26.7722 0.376915L27.6637 3.1504L30.5665 3.14494C30.8648 3.14449 31.1069 3.38792 31.1069 3.68727C31.1069 3.86158 31.0239 4.02452 30.8835 4.12653L28.533 5.83567L29.4353 8.60658C29.5281 8.89169 29.3722 9.19862 29.0884 9.29108C28.9112 9.34883 28.7179 9.31124 28.5754 9.19211L27.7508 8.58794L30.8106 19.8304L34.4381 19.8457C34.7353 19.8471 34.9759 20.0896 34.9759 20.3881L34.9772 27.249L39.803 27.2701C39.9458 27.2707 40.0818 27.3275 40.1827 27.4289L40.1957 27.442L44.2628 33.5402C44.3558 33.6406 44.4073 33.7723 44.4073 33.9099V37.3934C44.4073 40.2823 44.4073 43.1713 44.4073 46.0603C44.4073 46.3389 44.4038 46.4733 44.4038 46.6269C44.4038 46.9657 44.2079 47.171 43.8661 47.171C43.5671 47.171 43.3247 46.9275 43.3247 46.6273V34.1136L39.5507 28.3534L34.4351 28.332C34.1368 28.3308 33.8945 28.0884 33.8945 27.7883V20.9284L30.4033 20.9133C30.1495 20.9196 29.9246 20.7465 29.8662 20.5034L26.3336 7.39036C26.2974 7.2359 26.3294 7.07327 26.4225 6.94488C26.5979 6.70312 26.9358 6.64947 27.1765 6.8259L27.887 7.3464L27.3881 5.8143C27.3056 5.58679 27.3837 5.33002 27.579 5.188L28.8937 4.23278L27.293 4.23582C27.0507 4.24688 26.8306 4.09152 26.7562 3.85976L26.1655 2.02224L25.5748 3.85976C25.5003 4.09152 25.2804 4.24688 25.0421 4.23582L23.4373 4.23278L24.752 5.188C24.9474 5.33002 25.0256 5.58679 24.945 5.80824L24.4441 7.3464L25.1547 6.8259C25.3952 6.64947 25.7333 6.70312 25.9086 6.94488C26.0019 7.07357 26.0341 7.23636 25.9956 7.39627L22.4665 20.4984C22.4067 20.7465 22.1818 20.9196 21.9336 20.9133L18.4368 20.9284V27.7883C18.4368 28.0884 18.1946 28.3308 17.8962 28.332L12.7806 28.3534L9.00661 34.1136V46.6273C9.00661 46.832 8.89463 47.0175 8.71896 47.1072C8.6352 47.1574 8.54238 47.1823 8.44474 47.1823C8.04284 47.1823 7.92392 46.8392 7.92392 46.6295V46.095L7.92377 46.0946Z" fill="#1169B0"/>
<path id="Vector_10" d="M8.45947 46.6602H0.51947" stroke="#1169B0" stroke-width="0.705649" stroke-miterlimit="22.9256" stroke-linecap="round" stroke-linejoin="round"/>
<path id="Vector_11" d="M51.8989 46.6602H43.9589" stroke="#1169B0" stroke-width="0.705649" stroke-miterlimit="22.9256" stroke-linecap="round" stroke-linejoin="round"/>
</g>
<path id="Vector_12" d="M68.2276 23.8597L70.2489 26.4415C70.3515 26.5738 70.3367 26.6399 70.205 26.6399H69.0076C68.8684 26.6399 68.7512 26.5738 68.6561 26.4415L66.9533 24.257H66.1184V26.4415C66.1184 26.5738 66.0524 26.6399 65.9207 26.6399H64.932C64.8003 26.6399 64.7343 26.5738 64.7343 26.4415V21.2781C64.7343 21.1458 64.8003 21.0794 64.932 21.0794H65.9207C66.0524 21.0794 66.1184 21.1458 66.1184 21.2781V23.4626H66.9533L68.6561 21.2781C68.7512 21.1458 68.8684 21.0794 69.0076 21.0794H70.205C70.3367 21.0794 70.3515 21.1458 70.2489 21.2781L68.2276 23.8599V23.8597ZM75.5 21.0793C76.2472 21.0793 76.6207 21.4545 76.6207 22.2048V25.5146C76.6207 26.2649 76.2472 26.6399 75.5 26.6399H72.2045C71.4575 26.6399 71.0839 26.2649 71.0839 25.5146V24.985C71.0839 24.6173 71.1757 24.3322 71.3588 24.1301C71.5418 23.9278 71.8236 23.7973 72.2045 23.7383L75.2363 23.2307V22.2709C75.2363 22.0063 75.1046 21.8738 74.8409 21.8738H71.8089C71.6772 21.8738 71.6112 21.8076 71.6112 21.6752V21.278C71.6112 21.1456 71.6772 21.0793 71.8089 21.0793H75.5ZM75.2363 25.4485V24.0363L72.8637 24.4334C72.6001 24.4777 72.4682 24.6394 72.4682 24.9189V25.4485C72.4682 25.7131 72.5999 25.8456 72.8637 25.8456H74.8411C75.1046 25.8456 75.2365 25.7133 75.2365 25.4485H75.2363ZM85.4529 25.8456C85.5847 25.8456 85.6506 25.9119 85.6506 26.0442V28.0301C85.6506 28.1624 85.5847 28.2287 85.4529 28.2287H84.4643C84.3325 28.2287 84.2666 28.1624 84.2666 28.0301V26.6399H78.7739V28.0301C78.7739 28.1624 78.7081 28.2287 78.5763 28.2287H77.5875C77.4557 28.2287 77.3899 28.1624 77.3899 28.0301V26.0442C77.3899 25.9119 77.4557 25.8456 77.5875 25.8456H78.7081L80.7405 21.2781C80.7918 21.1458 80.8869 21.0794 81.026 21.0794H82.0147C82.1392 21.0794 82.2344 21.1458 82.3004 21.2781L84.3328 25.8456H85.4532H85.4529ZM80.0813 25.8456H82.9593L81.5203 22.6129L80.0814 25.8456H80.0813ZM90.8797 21.0793C91.627 21.0793 92.0004 21.4545 92.0004 22.2048V25.5146C92.0004 26.2649 91.627 26.6399 90.8797 26.6399H87.9138V28.5595C87.9138 28.6919 87.8479 28.7581 87.7161 28.7581H86.7275C86.5957 28.7581 86.5297 28.6919 86.5297 28.5595V21.278C86.5297 21.1456 86.5957 21.0793 86.7275 21.0793H90.8798H90.8797ZM90.6162 25.4485V22.2709C90.6162 22.0063 90.4844 21.8738 90.2206 21.8738H87.9138V25.8455H90.2206C90.4843 25.8455 90.6162 25.7131 90.6162 25.4484V25.4485ZM97.7347 21.0793C98.4819 21.0793 98.8553 21.4545 98.8553 22.2048V25.5146C98.8553 26.2649 98.4819 26.6399 97.7347 26.6399H94.4391C93.6922 26.6399 93.3187 26.2649 93.3187 25.5146V22.2048C93.3187 21.4545 93.6922 21.0793 94.4391 21.0793H97.7347ZM97.4711 25.4485V22.2709C97.4711 22.0063 97.3393 21.8738 97.0757 21.8738H95.0983C94.8347 21.8738 94.7028 22.0061 94.7028 22.2709V25.4485C94.7028 25.7131 94.8345 25.8456 95.0983 25.8456H97.0757C97.3392 25.8456 97.4711 25.7133 97.4711 25.4485ZM105.754 22.9992C105.754 23.4994 105.513 23.7864 105.029 23.8599C105.513 23.9334 105.754 24.2203 105.754 24.7205V25.5147C105.754 26.265 105.381 26.64 104.634 26.64H100.481C100.349 26.64 100.284 26.5739 100.284 26.4416V21.2783C100.284 21.1459 100.349 21.0796 100.481 21.0796H104.634C105.381 21.0796 105.754 21.4549 105.754 22.2051V22.9994V22.9992ZM104.37 25.4485V24.6541C104.37 24.3895 104.238 24.257 103.974 24.257H101.668V25.8456H103.974C104.238 25.8456 104.37 25.7133 104.37 25.4485ZM104.37 23.0655V22.2711C104.37 22.0064 104.238 21.874 103.974 21.874H101.668V23.4626H103.974C104.238 23.4626 104.37 23.3303 104.37 23.0655ZM111.434 21.0793C112.181 21.0793 112.554 21.4545 112.554 22.2048V25.5146C112.554 26.2649 112.181 26.6399 111.434 26.6399H108.138C107.391 26.6399 107.017 26.2649 107.017 25.5146V22.2048C107.017 21.4545 107.391 21.0793 108.138 21.0793H111.434ZM111.17 25.4485V22.2709C111.17 22.0063 111.038 21.8738 110.774 21.8738H108.797C108.533 21.8738 108.402 22.0061 108.402 22.2709V25.4485C108.402 25.7131 108.533 25.8456 108.797 25.8456H110.774C111.038 25.8456 111.17 25.7133 111.17 25.4485ZM118.288 21.0793C119.036 21.0793 119.409 21.4545 119.409 22.2048V24.0583C119.409 24.1906 119.343 24.2568 119.211 24.2568H115.257V25.4484C115.257 25.713 115.388 25.8455 115.652 25.8455H118.684C118.816 25.8455 118.882 25.9117 118.882 26.044V26.4413C118.882 26.5736 118.816 26.6397 118.684 26.6397H114.993C114.246 26.6397 113.873 26.2647 113.873 25.5144V22.2047C113.873 21.4544 114.246 21.0791 114.993 21.0791H118.289L118.288 21.0793ZM118.025 23.4624V22.2709C118.025 22.0063 117.893 21.8738 117.629 21.8738H115.652C115.388 21.8738 115.256 22.0061 115.256 22.2709V23.4624H118.025H118.025ZM130.632 21.0793C131.379 21.0793 131.753 21.4547 131.753 22.2048V25.5146C131.753 26.2647 131.379 26.6399 130.632 26.6399H127.336C126.59 26.6399 126.216 26.2649 126.216 25.5146V24.985C126.216 24.6173 126.308 24.3322 126.491 24.1301C126.674 23.9279 126.956 23.802 127.336 23.7383L130.368 23.2307V22.2709C130.368 22.0063 130.236 21.8738 129.973 21.8738H126.941C126.809 21.8738 126.743 21.8076 126.743 21.6752V21.278C126.743 21.1456 126.809 21.0793 126.941 21.0793H130.632ZM130.368 25.4485V24.0363L127.996 24.4334C127.732 24.4774 127.6 24.6396 127.6 24.9189V25.4485C127.6 25.7131 127.732 25.8456 127.996 25.8456H129.973C130.237 25.8456 130.369 25.7133 130.369 25.4485H130.368ZM137.465 21.0793C137.597 21.0793 137.663 21.1458 137.663 21.278V21.6752C137.663 21.8074 137.597 21.8738 137.465 21.8738H134.565V26.4413C134.565 26.5735 134.499 26.6397 134.367 26.6397H133.379C133.247 26.6397 133.181 26.5736 133.181 26.4413V21.278C133.181 21.1456 133.247 21.0793 133.379 21.0793H137.465ZM142.848 21.0793C143.595 21.0793 143.969 21.4547 143.969 22.2048V24.0583C143.969 24.1904 143.902 24.2568 143.771 24.2568H139.816V25.4484C139.816 25.713 139.948 25.8455 140.212 25.8455H143.243C143.375 25.8455 143.441 25.9119 143.441 26.044V26.4413C143.441 26.5735 143.375 26.6397 143.243 26.6397H139.552C138.806 26.6397 138.432 26.2647 138.432 25.5144V22.2047C138.432 21.4544 138.805 21.0791 139.552 21.0791H142.848L142.848 21.0793ZM142.584 23.4624V22.2709C142.584 22.0063 142.452 21.8738 142.189 21.8738H140.211C139.948 21.8738 139.816 22.0063 139.816 22.2709V23.4624H142.584H142.584ZM150.384 21.0793C150.516 21.0793 150.582 21.1458 150.582 21.278V26.4413C150.582 26.5735 150.516 26.6397 150.384 26.6397H149.395C149.264 26.6397 149.198 26.5736 149.198 26.4413V24.2568H146.561V26.4413C146.561 26.5735 146.495 26.6397 146.363 26.6397H145.375C145.243 26.6397 145.177 26.5736 145.177 26.4413V21.278C145.177 21.1456 145.243 21.0793 145.375 21.0793H146.363C146.495 21.0793 146.561 21.1458 146.561 21.278V23.4624H149.198V21.278C149.198 21.1456 149.264 21.0793 149.395 21.0793H150.384ZM156.536 21.0793C156.668 21.0793 156.734 21.1458 156.734 21.278V21.6752C156.734 21.8074 156.667 21.8738 156.536 21.8738H154.789V26.4413C154.789 26.5735 154.723 26.6397 154.592 26.6397H153.603C153.471 26.6397 153.405 26.5736 153.405 26.4413V21.8738H151.658C151.527 21.8738 151.461 21.8076 151.461 21.6752V21.278C151.461 21.1456 151.527 21.0793 151.658 21.0793H156.536ZM162.051 25.8456C162.182 25.8456 162.248 25.912 162.248 26.0442V26.4415C162.248 26.5736 162.182 26.6399 162.051 26.6399H158.623C157.876 26.6399 157.503 26.2649 157.503 25.5146V22.2048C157.503 21.4545 157.876 21.0793 158.623 21.0793H161.919C162.051 21.0793 162.117 21.1458 162.117 21.278V21.6752C162.117 21.8074 162.05 21.8738 161.919 21.8738H159.282C159.019 21.8738 158.887 22.0063 158.887 22.2709V25.4485C158.887 25.7131 159.019 25.8456 159.282 25.8456H162.051ZM167.653 21.0793C167.785 21.0793 167.851 21.1458 167.851 21.278V21.6752C167.851 21.8074 167.785 21.8738 167.653 21.8738H165.907V26.4413C165.907 26.5735 165.84 26.6397 165.709 26.6397H164.72C164.589 26.6397 164.522 26.5736 164.522 26.4413V21.8738H162.776C162.644 21.8738 162.578 21.8076 162.578 21.6752V21.278C162.578 21.1456 162.644 21.0793 162.776 21.0793H167.653ZM174.201 22.9991C174.201 23.4988 173.959 23.7862 173.476 23.8597C173.959 23.9332 174.201 24.2203 174.201 24.7203V25.5146C174.201 26.2647 173.827 26.6399 173.08 26.6399H168.928C168.796 26.6399 168.73 26.5738 168.73 26.4415V21.2781C168.73 21.1458 168.796 21.0794 168.928 21.0794H173.08C173.827 21.0794 174.201 21.4549 174.201 22.205V22.9992V22.9991ZM172.816 25.4484V24.654C172.816 24.3893 172.684 24.2568 172.421 24.2568H170.114V25.8455H172.421C172.684 25.8455 172.816 25.7131 172.816 25.4484ZM172.816 23.0653V22.2709C172.816 22.0063 172.684 21.8738 172.421 21.8738H170.114V23.4624H172.421C172.684 23.4624 172.816 23.3301 172.816 23.0653ZM179.88 21.0791C180.627 21.0791 181 21.4545 181 22.2047V25.5144C181 26.2646 180.627 26.6397 179.88 26.6397H176.584C175.837 26.6397 175.464 26.2647 175.464 25.5144V22.2047C175.464 21.4544 175.837 21.0791 176.584 21.0791H179.88ZM179.616 25.4484V22.2708C179.616 22.0061 179.484 21.8736 179.221 21.8736H177.243C176.98 21.8736 176.848 22.0061 176.848 22.2708V25.4484C176.848 25.713 176.98 25.8455 177.243 25.8455H179.221C179.484 25.8455 179.616 25.7131 179.616 25.4484Z" fill="#1169B0"/>
<path id="Vector_13" d="M91.4782 32.2664C91.7362 32.2664 91.8653 32.3962 91.8653 32.6554V46.914C91.8653 47.1732 91.7362 47.3029 91.4782 47.3029H89.5422C89.2841 47.3029 89.1551 47.1732 89.1551 46.914V35.2044L84.8744 42.1179C84.8027 42.233 84.7236 42.2907 84.6375 42.2907C84.5516 42.2907 84.4727 42.233 84.401 42.1179L80.1203 35.2044V46.914C80.1203 47.1732 79.9913 47.3029 79.7332 47.3029H77.7972C77.5391 47.3029 77.4101 47.1732 77.4101 46.914V32.6554C77.4101 32.3962 77.5391 32.2664 77.7972 32.2664H79.7332C79.9913 32.2664 80.1994 32.3962 80.3571 32.6554L84.6375 39.5686L88.9183 32.6554C89.076 32.3962 89.2841 32.2664 89.5422 32.2664H91.4782ZM105.546 32.2664C107.353 32.2664 108.257 33.1739 108.257 34.9887V44.581C108.257 46.3956 107.353 47.3031 105.546 47.3031H97.8023C95.9953 47.3031 95.0918 46.3956 95.0918 44.581V34.9887C95.0918 33.1739 95.9953 32.2664 97.8023 32.2664H105.546ZM105.546 44.4511V35.1181C105.546 34.2538 105.116 33.8219 104.256 33.8219H99.0929C98.2324 33.8219 97.8023 34.2538 97.8023 35.1181V44.4511C97.8023 45.3154 98.2324 45.7473 99.0929 45.7473H104.256C105.116 45.7473 105.546 45.3154 105.546 44.4511ZM122.497 45.7473C122.755 45.7473 122.884 45.8769 122.884 46.1361V46.9138C122.884 47.173 122.755 47.3028 122.497 47.3028H113.979C112.172 47.3028 111.268 46.3953 111.268 44.5807V34.9884C111.268 33.1736 112.172 32.2661 113.979 32.2661H122.239C122.497 32.2661 122.626 32.3959 122.626 32.6551V33.4328C122.626 33.692 122.497 33.8216 122.239 33.8216H115.269C114.409 33.8216 113.979 34.2535 113.979 35.1178V44.4508C113.979 45.315 114.409 45.747 115.269 45.747H122.497V45.7473ZM133.252 39.7846L138.63 46.9138C138.831 47.173 138.802 47.3028 138.544 47.3028H136.242C135.97 47.3028 135.74 47.173 135.554 46.9138L130.757 40.5623H127.961V46.9138C127.961 47.173 127.832 47.3028 127.573 47.3028H125.638C125.379 47.3028 125.25 47.173 125.25 46.9138V32.6552C125.25 32.396 125.379 32.2663 125.638 32.2663H127.573C127.832 32.2663 127.961 32.396 127.961 32.6552V39.0067H130.757L135.554 32.6552C135.74 32.396 135.97 32.2663 136.242 32.2663H138.544C138.802 32.2663 138.831 32.396 138.63 32.6552L133.252 39.7844V39.7846ZM154.376 37.581C154.376 38.229 154.24 38.726 153.967 39.0716C153.695 39.4173 153.272 39.655 152.698 39.7846C153.272 39.9143 153.695 40.1519 153.967 40.4976C154.24 40.8433 154.376 41.3402 154.376 41.9883V44.5808C154.376 46.3955 153.473 47.3029 151.666 47.3029H141.727C141.469 47.3029 141.34 47.1732 141.34 46.914V32.6554C141.34 32.3962 141.469 32.2664 141.727 32.2664H151.666C153.473 32.2664 154.376 33.1739 154.376 34.9887V37.5812V37.581ZM151.666 44.4511V41.8586C151.666 40.9943 151.235 40.5623 150.375 40.5623H144.051V45.7473H150.375C151.235 45.7473 151.666 45.3154 151.666 44.4511ZM151.666 37.7106V35.1181C151.666 34.2538 151.235 33.8219 150.375 33.8219H144.051V39.0069H150.375C151.235 39.0069 151.666 38.5749 151.666 37.7106ZM171.391 46.9138C171.506 47.173 171.434 47.3028 171.176 47.3028H169.283C169.025 47.3028 168.845 47.173 168.745 46.9138L167.541 44.0623H160.334L159.151 46.9138C159.051 47.173 158.864 47.3028 158.592 47.3028H156.72C156.462 47.3028 156.384 47.173 156.484 46.9138L162.421 32.6552C162.521 32.396 162.708 32.2663 162.98 32.2663H164.916C165.16 32.2663 165.339 32.396 165.454 32.6552L171.391 46.9138H171.391ZM160.98 42.5067H166.895L163.948 35.3987L160.98 42.5067Z" fill="#1169B0"/>
<path id="Vector_14" d="M57.5488 14.8403V52.4485" stroke="#1668AE" stroke-width="0.352773" stroke-miterlimit="22.9256" stroke-linecap="round" stroke-linejoin="round"/>
</g>
</g>
</g>
<defs>
<clipPath id="clip0_1462_1079">
<rect width="181" height="55" fill="white"/>
</clipPath>
</defs>
</svg>
