<svg width="22" height="22" viewBox="0 0 22 22" fill="none" xmlns="http://www.w3.org/2000/svg">
<g clip-path="url(#clip0_18_2277)">
<path d="M19.2379 4.20213L12.7707 0.472408C11.6786 -0.157469 10.3216 -0.157469 9.22949 0.472408L2.76232 4.20213C1.66812 4.83317 0.988403 6.00991 0.988403 7.27319V14.7268C0.988403 15.9901 1.66812 17.1669 2.76232 17.7979L9.22949 21.5276C10.3214 22.1574 11.6784 22.1576 12.7707 21.5276L19.2379 17.7979C20.3321 17.1668 21.0118 15.9901 21.0118 14.7268V7.27319C21.0118 6.00991 20.3321 4.83317 19.2379 4.20213ZM19.2931 14.7268C19.2931 15.3775 18.9429 15.9836 18.3793 16.3087L11.9121 20.0384C11.3495 20.3628 10.6506 20.3628 10.088 20.0384L3.62092 16.3087C3.05726 15.9837 2.70715 15.3775 2.70715 14.7268V7.27319C2.70715 6.62247 3.05726 6.01635 3.62092 5.6913L10.0881 1.96157C10.6508 1.63712 11.3496 1.63716 11.9122 1.96157L18.3793 5.6913C18.9429 6.01631 19.2931 6.62247 19.2931 7.27319V14.7268Z" fill="#5896C8"/>
<path d="M19.2931 14.7268C19.2931 15.3775 18.9429 15.9836 18.3793 16.3087L11.9121 20.0384C11.3495 20.3628 10.6506 20.3628 10.088 20.0384L3.62092 16.3087C3.05726 15.9837 2.70715 15.3775 2.70715 14.7268V7.27319C2.70715 6.62247 3.05726 6.01635 3.62092 5.6913L10.0881 1.96157C10.6508 1.63712 11.3496 1.63716 11.9122 1.96157L18.3793 5.6913C18.9429 6.01631 19.2931 6.62247 19.2931 7.27319V14.7268Z" fill="#5896C8"/>
<path d="M10.9805 8C9.33353 8 8.00012 9.36366 8.00012 11C8.00012 12.5973 9.29427 14 10.9805 14C12.6667 14 14.0001 12.5974 14.0001 11C14.0001 9.36366 12.6274 8 10.9805 8Z" fill="white"/>
</g>
<defs>
<clipPath id="clip0_18_2277">
<rect width="22" height="22" fill="white"/>
</clipPath>
</defs>
</svg>
