<?xml version="1.0" encoding="UTF-8"?>
<svg xmlns="http://www.w3.org/2000/svg" xmlns:xlink="http://www.w3.org/1999/xlink" width="20px" height="20px" viewBox="0 0 20 20" version="1.1">
<defs>
<filter id="alpha" filterUnits="objectBoundingBox" x="0%" y="0%" width="100%" height="100%">
  <feColorMatrix type="matrix" in="SourceGraphic" values="0 0 0 0 1 0 0 0 0 1 0 0 0 0 1 0 0 0 1 0"/>
</filter>
<mask id="mask0">
  <g filter="url(#alpha)">
<rect x="0" y="0" width="20" height="20" style="fill:rgb(0%,0%,0%);fill-opacity:0.501961;stroke:none;"/>
  </g>
</mask>
<clipPath id="clip1">
  <rect x="0" y="0" width="20" height="20"/>
</clipPath>
<g id="surface5" clip-path="url(#clip1)">
<path style=" stroke:none;fill-rule:evenodd;fill:rgb(10.980392%,15.294118%,29.803922%);fill-opacity:1;" d="M 10 2.707031 C 10.34375 2.707031 10.625 2.988281 10.625 3.332031 L 10.625 11.042969 L 9.375 11.042969 L 9.375 3.332031 C 9.375 2.988281 9.65625 2.707031 10 2.707031 Z M 10 2.707031 "/>
</g>
</defs>
<g id="surface1">
<use xlink:href="#surface5" mask="url(#mask0)"/>
<path style=" stroke:none;fill-rule:nonzero;fill:rgb(10.980392%,15.294118%,29.803922%);fill-opacity:1;" d="M 5 11.042969 C 4.746094 11.042969 4.519531 11.195312 4.421875 11.425781 C 4.324219 11.660156 4.378906 11.929688 4.558594 12.109375 L 9.558594 17.109375 C 9.675781 17.226562 9.835938 17.292969 10 17.292969 C 10.164062 17.292969 10.324219 17.226562 10.441406 17.109375 L 15.441406 12.109375 C 15.621094 11.929688 15.675781 11.660156 15.578125 11.425781 C 15.480469 11.195312 15.253906 11.042969 15 11.042969 Z M 5 11.042969 "/>
</g>
</svg>
