<svg width="24" height="24" viewBox="0 0 24 24" fill="none" xmlns="http://www.w3.org/2000/svg">
<g id="phone-call" clip-path="url(#clip0_185_1053)">
<path id="Vector" d="M14.9998 5C15.9796 5.1908 17.2939 5.29545 17.9998 6C18.7057 6.70455 18.8086 8.02205 18.9998 9M14.9998 1C17.0355 1.22572 18.5506 2.55538 19.9998 4C21.449 5.44462 22.7711 6.96849 22.9998 9M21.9998 17V20C22.0009 20.2788 22.1117 20.7445 21.9998 21C21.8879 21.2555 21.2057 20.8115 20.9998 21C20.7939 21.1885 21.2645 21.9107 20.9998 22C20.7351 22.0893 20.278 22.0251 19.9998 22C16.9129 21.6652 13.605 20.6862 10.9998 19C8.57597 17.4628 6.54 15.4192 4.9998 13C3.30442 10.388 2.32908 7.09483 1.9998 4C1.97473 3.72312 1.91089 3.26346 1.9998 3C2.0887 2.73654 2.81201 3.20532 2.9998 3C3.18759 2.79468 2.74501 2.11233 2.9998 2C3.25459 1.88767 3.72126 2.00026 3.9998 2H6.9998C7.48664 1.99522 7.63066 1.68315 7.9998 2C8.36893 2.31685 8.93166 3.51885 8.9998 4C9.12682 4.96126 9.66017 6.0916 9.9998 7C10.1348 7.35837 10.0798 7.62557 9.9998 8C9.91979 8.37443 9.26951 8.72777 8.9998 9L7.9998 10C9.42786 12.5067 11.4883 14.5747 13.9998 16L14.9998 15C15.2725 14.7308 15.6246 14.0799 15.9998 14C16.3749 13.9201 16.6407 13.8653 16.9998 14C17.9099 14.339 19.0367 14.8732 19.9998 15C20.4871 15.0686 21.6817 15.6252 21.9998 16C22.3179 16.3748 22.012 16.509 21.9998 17Z" stroke="#404040" stroke-width="2" stroke-linecap="round" stroke-linejoin="round"/>
</g>
<defs>
<clipPath id="clip0_185_1053">
<rect width="24" height="24" fill="white"/>
</clipPath>
</defs>
</svg>
