<svg width="18" height="18" viewBox="0 0 18 18" fill="none" xmlns="http://www.w3.org/2000/svg">
<path d="M8.25 8.92521V12.7502C8.25 12.9491 8.32902 13.1399 8.46967 13.2805C8.61032 13.4212 8.80109 13.5002 9 13.5002C9.19891 13.5002 9.38968 13.4212 9.53033 13.2805C9.67098 13.1399 9.75 12.9491 9.75 12.7502V8.92521C10.6605 8.73935 11.4696 8.22202 12.0204 7.47352C12.5712 6.72502 12.8244 5.79867 12.731 4.87407C12.6376 3.94947 12.2042 3.09248 11.5149 2.46926C10.8255 1.84604 9.92931 1.50098 9 1.50098C8.07069 1.50098 7.17449 1.84604 6.48514 2.46926C5.79578 3.09248 5.36239 3.94947 5.26899 4.87407C5.17559 5.79867 5.42882 6.72502 5.9796 7.47352C6.53038 8.22202 7.33947 8.73935 8.25 8.92521ZM9 3.00021C9.44501 3.00021 9.88002 3.13217 10.25 3.3794C10.62 3.62664 10.9084 3.97804 11.0787 4.38917C11.249 4.80031 11.2936 5.25271 11.2068 5.68916C11.12 6.12562 10.9057 6.52653 10.591 6.8412C10.2763 7.15587 9.87541 7.37016 9.43895 7.45698C9.0025 7.5438 8.5501 7.49924 8.13896 7.32894C7.72783 7.15864 7.37643 6.87025 7.12919 6.50024C6.88196 6.13023 6.75 5.69522 6.75 5.25021C6.75 4.65347 6.98705 4.08118 7.40901 3.65922C7.83097 3.23726 8.40326 3.00021 9 3.00021ZM12.1575 10.8152C12.059 10.7945 11.9574 10.7934 11.8585 10.812C11.7596 10.8306 11.6653 10.8685 11.581 10.9235C11.4968 10.9785 11.4242 11.0496 11.3674 11.1327C11.3106 11.2158 11.2707 11.3092 11.25 11.4077C11.2293 11.5062 11.2282 11.6078 11.2468 11.7067C11.2654 11.8056 11.3033 11.8999 11.3583 11.9842C11.4133 12.0684 11.4844 12.141 11.5675 12.1978C11.6506 12.2546 11.744 12.2945 11.8425 12.3152C13.545 12.6527 14.25 13.2602 14.25 13.5002C14.25 13.9352 12.4125 15.0002 9 15.0002C5.5875 15.0002 3.75 13.9352 3.75 13.5002C3.75 13.2602 4.455 12.6527 6.1575 12.2852C6.25599 12.2645 6.34944 12.2246 6.43252 12.1678C6.5156 12.111 6.58668 12.0384 6.6417 11.9542C6.69672 11.8699 6.7346 11.7756 6.75318 11.6767C6.77176 11.5778 6.77068 11.4762 6.75 11.3777C6.72932 11.2792 6.68944 11.1858 6.63264 11.1027C6.57584 11.0196 6.50323 10.9485 6.41896 10.8935C6.33469 10.8385 6.24041 10.8006 6.1415 10.782C6.04259 10.7634 5.94099 10.7645 5.8425 10.7852C3.5625 11.3102 2.25 12.2927 2.25 13.5002C2.25 15.4727 5.6475 16.5002 9 16.5002C12.3525 16.5002 15.75 15.4727 15.75 13.5002C15.75 12.2927 14.4375 11.3102 12.1575 10.8152Z" fill="#1169B0"/>
</svg>
