<svg width="22" height="22" viewBox="0 0 22 22" fill="none" xmlns="http://www.w3.org/2000/svg">
<g id="Envelope">
<g id="Group">
<path id="Vector" d="M9.50042 12.7788C9.07046 12.5956 8.47842 12.1199 8.13436 11.8033L0.686027 4.94969C0.341963 4.63317 0.0461397 3.97298 0.275982 3.56542C0.462642 3.23404 0.813475 2.92725 1.47196 2.92725H20.5328C20.5328 2.92725 21.3665 2.94545 21.7571 3.61242C21.9936 4.01569 21.6737 4.67931 21.3267 4.99287L13.153 12.3764C13.153 12.3764 11.5758 13.6625 9.50042 12.7788ZM1.51716 19.0722C1.51716 19.0722 0 18.9376 0 17.6054V6.7212C0 6.25397 0.269602 6.141 0.602617 6.46942L3.82524 9.64979C4.15833 9.97822 4.27979 10.5931 4.09694 11.0235L1.77992 16.476C1.59707 16.9064 1.68219 16.9563 1.96992 16.5881L5.20694 12.4454C5.49475 12.0768 6.02368 12.0154 6.38805 12.3078L7.82189 13.4585C8.18665 13.7509 8.82653 14.1492 9.26926 14.2982C10.32 14.6502 12.1842 15.0536 13.3688 14.0328L15.4547 12.2896C15.8135 11.99 16.3328 12.0488 16.6151 12.4217L20.04 16.9448C20.3223 17.3177 20.407 17.2695 20.2292 16.8369L17.8622 11.0772C17.6845 10.6446 17.8098 10.0276 18.1419 9.69842L21.3985 6.47152C21.7307 6.14271 21.9998 6.25483 21.9998 6.72206V17.7007C21.9998 17.7007 21.9097 19.0731 20.398 19.0731H1.51716V19.0722Z" fill="#5896C8"/>
</g>
</g>
</svg>
