<svg width="24" height="24" viewBox="0 0 24 24" fill="none" xmlns="http://www.w3.org/2000/svg">
<g id="map" clip-path="url(#clip0_42_3859)">
<g id="Group">
<g id="Group_2">
<path id="Vector" d="M9.62509 9.76017C9.33203 9.28856 9.09723 8.78742 8.92188 8.26758V15.9006L11.3803 11.6863C10.6862 11.16 10.0904 10.5088 9.62509 9.76017Z" fill="#5896C8"/>
</g>
</g>
<g id="Group_3">
<g id="Group_4">
<path id="Vector_2" d="M15.6929 0.230957C12.5172 0.230957 9.93359 2.81461 9.93359 5.9903C9.93359 6.43449 9.98586 6.87075 10.0842 7.29249C10.0864 7.30205 10.0886 7.31166 10.0909 7.32118C10.1018 7.36711 10.1133 7.41286 10.1254 7.45842C10.1277 7.46742 10.1302 7.47643 10.1327 7.48538C10.1863 7.68436 10.2505 7.87964 10.3247 8.07061C10.328 8.079 10.3311 8.08744 10.3345 8.09588C10.351 8.13783 10.3681 8.17955 10.3856 8.22103C10.3908 8.23336 10.396 8.24564 10.4013 8.25793C10.4188 8.29861 10.4366 8.33916 10.455 8.37943C10.4597 8.38988 10.4647 8.40019 10.4695 8.4106C10.5307 8.54236 10.5967 8.67169 10.6675 8.79835C10.6726 8.80763 10.6776 8.81696 10.6828 8.82624C10.7028 8.86149 10.7234 8.89636 10.7441 8.93114C10.754 8.94764 10.7637 8.96419 10.7737 8.9806C10.7936 9.01336 10.8139 9.04589 10.8344 9.07824C10.8457 9.096 10.8572 9.11363 10.8687 9.13125C10.8893 9.16289 10.91 9.19449 10.9311 9.22575C10.9426 9.24258 10.9544 9.25927 10.966 9.27596C11.0096 9.33858 11.0542 9.40036 11.1001 9.46125C11.1096 9.47381 11.1188 9.48666 11.1284 9.49908C11.1488 9.52571 11.1699 9.55186 11.1908 9.57821C11.2076 9.59925 11.2242 9.62035 11.2413 9.64121C11.2617 9.6661 11.2824 9.69071 11.3032 9.71522C11.3218 9.73721 11.3405 9.75896 11.3594 9.78066C11.3798 9.804 11.4003 9.82725 11.421 9.85027C11.4419 9.87342 11.4632 9.89635 11.4845 9.91917C11.504 9.94022 11.5235 9.96141 11.5434 9.98217C11.5745 10.0146 11.6063 10.0465 11.6382 10.0783C11.6607 10.1007 11.6836 10.1229 11.7065 10.145C11.7361 10.1735 11.7658 10.2019 11.7961 10.2298C11.8149 10.2471 11.834 10.2641 11.853 10.2811C11.8798 10.3052 11.9068 10.3291 11.9341 10.3527C11.9538 10.3697 11.9736 10.3865 11.9935 10.4032C12.0218 10.427 12.0503 10.4504 12.0791 10.4737C12.098 10.4891 12.117 10.5045 12.1362 10.5196C12.1704 10.5465 12.205 10.5728 12.2398 10.599C12.2539 10.6096 12.2679 10.6206 12.2821 10.6311C12.3309 10.667 12.3802 10.7022 12.4302 10.7366C12.4446 10.7466 12.4593 10.7561 12.4738 10.7658C12.5108 10.7908 12.5479 10.8155 12.5855 10.8397C12.6045 10.8518 12.6236 10.8637 12.6427 10.8757C12.6771 10.8972 12.7117 10.9184 12.7466 10.9392C12.7662 10.9509 12.786 10.9626 12.8058 10.9741C12.8427 10.9956 12.8801 11.0165 12.9176 11.0372C12.9351 11.0468 12.9524 11.0566 12.9701 11.0661C13.0251 11.0956 13.0805 11.1246 13.1367 11.1525L14.1356 12.6925L15.0006 14.026L15.1121 14.198C15.2398 14.3948 15.4584 14.5135 15.6929 14.5135C15.9275 14.5135 16.1461 14.3948 16.2737 14.198L16.3852 14.026L16.4513 13.9241L17.2422 12.7048L18.2491 11.1525C18.3055 11.1246 18.3611 11.0955 18.4162 11.0659C18.4339 11.0564 18.4513 11.0465 18.469 11.0368C18.5064 11.0162 18.5436 10.9953 18.5805 10.9739C18.6006 10.9622 18.6206 10.9503 18.6406 10.9384C18.6751 10.9178 18.7093 10.8969 18.7433 10.8756C18.7629 10.8633 18.7826 10.851 18.8021 10.8385C18.8379 10.8155 18.8733 10.7918 18.9086 10.7681C18.9251 10.757 18.9417 10.7461 18.958 10.7349C19.0079 10.7004 19.0572 10.6654 19.1059 10.6296C19.1188 10.62 19.1314 10.6101 19.1442 10.6005C19.1803 10.5734 19.2163 10.546 19.2517 10.5181C19.2715 10.5025 19.2909 10.4866 19.3105 10.4707C19.3385 10.4481 19.3663 10.4252 19.3938 10.4021C19.4148 10.3845 19.4356 10.3667 19.4562 10.3488C19.4818 10.3266 19.5071 10.3042 19.5324 10.2816C19.5533 10.2628 19.5742 10.2441 19.5948 10.225C19.6197 10.2021 19.6442 10.1786 19.6686 10.1552C19.6884 10.1362 19.7085 10.1175 19.728 10.0983C19.7678 10.0591 19.807 10.0193 19.8456 9.97908C19.8679 9.95583 19.8896 9.93202 19.9114 9.90839C19.9302 9.88814 19.9491 9.86789 19.9676 9.84736C19.9905 9.82196 20.0129 9.79622 20.0353 9.77044C20.0518 9.75146 20.0682 9.73247 20.0844 9.7133C20.1075 9.68607 20.1303 9.65864 20.1528 9.63099C20.167 9.61355 20.181 9.59597 20.195 9.57835C20.2186 9.54863 20.2422 9.51891 20.2653 9.48877C20.2742 9.4771 20.2828 9.46519 20.2917 9.45347C20.3771 9.33985 20.4583 9.22318 20.5352 9.10364C20.5416 9.09352 20.5482 9.08358 20.5546 9.07341C20.5784 9.03596 20.6015 8.99813 20.6245 8.96011C20.6313 8.94886 20.638 8.93757 20.6447 8.92632C20.6679 8.88708 20.6908 8.84766 20.7131 8.80791C20.7172 8.8006 20.7212 8.79324 20.7252 8.78592C20.8277 8.60161 20.9201 8.41167 21.0021 8.21672C21.0028 8.21508 21.0035 8.21339 21.0042 8.21175C21.0244 8.16342 21.044 8.11482 21.0629 8.06597C21.0642 8.06269 21.0654 8.05936 21.0667 8.05608C21.184 7.75182 21.2758 7.43667 21.3403 7.11342C21.3403 7.11338 21.3404 7.11328 21.3404 7.11324C21.4134 6.74752 21.4521 6.37186 21.4521 5.9903C21.4523 2.81461 18.8687 0.230957 15.6929 0.230957ZM15.6929 9.11742C13.9687 9.11742 12.5658 7.7146 12.5658 5.9903C12.5658 4.266 13.9686 2.86313 15.6929 2.86313C17.4172 2.86313 18.8201 4.26596 18.8201 5.9903C18.8201 7.7146 17.4172 9.11742 15.6929 9.11742Z" fill="#5896C8"/>
</g>
</g>
<g id="Group_5">
<g id="Group_6">
<path id="Vector_3" d="M13.9487 14.9513L12.4834 12.6924H12.3964L8.92188 18.6488V23.6203L14.9988 22.132V15.7791C14.5732 15.629 14.2026 15.3427 13.9487 14.9513Z" fill="#5896C8"/>
</g>
</g>
<g id="Group_7">
<g id="Group_8">
<path id="Vector_4" d="M23.4735 7.63539L22.6875 7.44287C22.5175 8.2592 22.2051 9.0436 21.7595 9.76051C21.1265 10.7791 20.2526 11.6182 19.2167 12.2061L18.1641 13.8289L20.6367 16.8463H24.0012V8.30781C24.0012 7.98887 23.7833 7.71123 23.4735 7.63539Z" fill="#5896C8"/>
</g>
</g>
<g id="Group_9">
<g id="Group_10">
<path id="Vector_5" d="M20.3059 18.2305C20.0984 18.2305 19.9019 18.1375 19.7704 17.977L17.3677 15.0449C17.1175 15.3883 16.7735 15.641 16.3828 15.7787V22.0939L23.1412 23.749C23.1957 23.7624 23.2509 23.7689 23.3058 23.7689C23.4592 23.7689 23.6101 23.7179 23.7333 23.6213C23.9005 23.49 23.9982 23.2893 23.9982 23.0766V18.2305H20.3059Z" fill="#5896C8"/>
</g>
</g>
<g id="Group_11">
<g id="Group_12">
<path id="Vector_6" d="M0.856969 5.78893C0.650578 5.73835 0.432234 5.78542 0.264891 5.91667C0.0976875 6.04796 0 6.24878 0 6.46136V13.1537H3.6923C3.87792 13.1537 4.05577 13.2282 4.18589 13.3606L7.53844 16.7699V7.4252L0.856969 5.78893Z" fill="#5896C8"/>
</g>
</g>
<g id="Group_13">
<g id="Group_14">
<path id="Vector_7" d="M3.40214 14.5386H0V21.2309C0 21.5498 0.217828 21.8275 0.527625 21.9033L7.53844 23.6202V18.745L3.40214 14.5386Z" fill="#5896C8"/>
</g>
</g>
</g>
<defs>
<clipPath id="clip0_42_3859">
<rect width="24" height="24" fill="white"/>
</clipPath>
</defs>
</svg>
