<svg width="18" height="18" viewBox="0 0 18 18" fill="none" xmlns="http://www.w3.org/2000/svg">
<g clip-path="url(#clip0_1410_2206)">
<path d="M7.45265 10.5466C5.73458 8.8285 5.34665 7.11043 5.25914 6.42208C5.23468 6.23176 5.30018 6.04088 5.43634 5.90567L6.82669 4.51595C7.03121 4.31155 7.0675 3.99301 6.9142 3.74784L4.70051 0.310464C4.53092 0.0389898 4.18268 -0.0589881 3.89641 0.0842229L0.342652 1.75791C0.111153 1.8719 -0.0250112 2.11787 0.00127291 2.37457C0.18748 4.14353 0.958686 8.49208 5.23214 12.7658C9.50558 17.0396 13.8535 17.8105 15.6234 17.9967C15.8801 18.023 16.1261 17.8868 16.2401 17.6553L17.9138 14.1016C18.0564 13.8159 17.9591 13.4686 17.6888 13.2987L14.2514 11.0856C14.0064 10.9322 13.6878 10.9682 13.4833 11.1725L12.0935 12.5629C11.9583 12.699 11.7675 12.7645 11.5771 12.7401C10.8888 12.6526 9.17072 12.2646 7.45265 10.5466Z" fill="#1169B0"/>
<path d="M13.3446 0C10.7737 0 8.68945 1.80621 8.68945 4.03448C8.69365 4.85207 8.97235 5.64455 9.48083 6.28479L8.9998 8.68966L11.4404 7.71331C12.0475 7.94908 12.6933 8.06968 13.3446 8.06897C15.9155 8.06897 17.9998 6.26276 17.9998 4.03448C17.9998 1.80621 15.9155 0 13.3446 0ZM10.8619 4.65517C10.5191 4.65517 10.2412 4.37728 10.2412 4.03448C10.2412 3.69169 10.5191 3.41379 10.8619 3.41379C11.2047 3.41379 11.4826 3.69169 11.4826 4.03448C11.4826 4.37728 11.2047 4.65517 10.8619 4.65517ZM13.3446 4.65517C13.0018 4.65517 12.7239 4.37728 12.7239 4.03448C12.7239 3.69169 13.0018 3.41379 13.3446 3.41379C13.6874 3.41379 13.9653 3.69169 13.9653 4.03448C13.9653 4.37728 13.6874 4.65517 13.3446 4.65517ZM15.8274 4.65517C15.4846 4.65517 15.2067 4.37728 15.2067 4.03448C15.2067 3.69169 15.4846 3.41379 15.8274 3.41379C16.1702 3.41379 16.4481 3.69169 16.4481 4.03448C16.4481 4.37728 16.1702 4.65517 15.8274 4.65517Z" fill="#1169B0"/>
</g>
<defs>
<clipPath id="clip0_1410_2206">
<rect width="18" height="18" fill="white"/>
</clipPath>
</defs>
</svg>
