<svg width="30" height="30" viewBox="0 0 30 30" fill="none" xmlns="http://www.w3.org/2000/svg">
<g clip-path="url(#clip0_1410_1120)">
<path d="M23.4186 14.8891L16.1491 14.0807C16.0557 14.0709 15.982 13.9971 15.9721 13.9037L15.1635 6.63422L23.4186 14.8891ZM6.23289 9.82829C5.56143 9.67376 4.97125 9.27564 4.57657 8.7111C4.45569 8.49338 4.43989 8.23286 4.5333 8.00209C4.65257 7.67541 4.93988 7.43915 5.28328 7.38489H5.32678L5.43392 7.38741H5.97992C6.39795 7.38741 6.89679 7.3826 7.3352 7.37848C7.65662 7.37528 7.94118 7.37207 8.11357 7.37207C8.40958 7.37207 8.6495 7.13215 8.6495 6.83614C8.6495 6.54013 8.40958 6.30021 8.11357 6.30021H5.41194C5.36867 6.30021 5.32037 6.30021 5.27366 6.30616C4.8506 6.29953 4.42959 6.2455 4.0182 6.14545C3.34835 5.99184 2.75999 5.5935 2.36852 5.02872C2.24604 4.8117 2.22818 4.55094 2.32021 4.31926C2.45345 3.95022 2.80143 3.70229 3.19359 3.6968H8.11631C8.28939 3.69405 8.45033 3.60797 8.54877 3.4658C8.64927 3.32249 8.67537 3.13958 8.61905 2.97383C8.54533 2.75611 8.34136 2.6096 8.11151 2.6096H4.75765C4.57611 2.6096 4.39548 2.6128 4.21554 2.61532C3.98455 2.61853 3.75424 2.62288 3.5189 2.61967C2.94542 2.63798 2.37218 2.58029 1.81381 2.4482C1.14235 2.29619 0.55171 1.89899 0.157717 1.33422C0.0356966 1.11627 0.0192135 0.854833 0.112618 0.623153C0.248603 0.25297 0.598641 0.00526544 0.993091 0L8.85531 0.0107598C11.8495 0.0160253 14.3959 2.19683 14.862 5.15464C14.3149 5.01407 13.7341 5.16608 13.3261 5.55664L8.89171 9.99106C8.7658 9.99106 8.64034 9.99106 8.51672 9.99541C7.7514 10.0442 6.98287 9.98808 6.23289 9.82829ZM14.0528 6.34531L14.7022 12.1858L8.86172 11.5338L14.0528 6.34531ZM9.15475 12.6451L14.8238 13.2778L14.9064 14.0221C14.9692 14.6157 15.4383 15.0846 16.0316 15.1475L16.7791 15.2311L17.4066 20.9006L9.15475 12.6451ZM19.1506 20.5593L18.519 21.1906L17.8707 15.3499L23.708 15.9998L19.1506 20.5593ZM29.4249 29.9407C29.1943 30.0336 28.934 30.0167 28.7175 29.8946C28.1527 29.5009 27.755 28.9107 27.6023 28.2395C27.4698 27.6779 27.4125 27.1014 27.432 26.5248C27.4288 26.2954 27.432 26.066 27.4368 25.8357C27.4396 25.6557 27.4428 25.4744 27.4428 25.2924V21.9413C27.4361 21.7069 27.2834 21.5015 27.0607 21.4278C26.8972 21.3736 26.7177 21.401 26.5779 21.5018C26.4382 21.6025 26.3556 21.7641 26.3556 21.9365V26.8558C26.3512 27.2502 26.1017 27.6003 25.7301 27.7331C25.4987 27.824 25.2386 27.8061 25.0218 27.6843C24.4577 27.2924 24.0598 26.7045 23.9058 26.0351C23.8043 25.6237 23.7492 25.2025 23.7412 24.7789C23.7451 24.7318 23.7467 24.6837 23.7467 24.6409V21.9386C23.7467 21.6426 23.5067 21.4026 23.2107 21.4026C22.9147 21.4026 22.6748 21.6426 22.6748 21.9386C22.6748 22.1105 22.6748 22.3919 22.6691 22.7144C22.6691 22.8831 22.6652 23.0613 22.6636 23.24C22.6588 23.8071 22.6567 24.3792 22.6663 24.7034V24.7668C22.6121 25.1118 22.3747 25.4005 22.0464 25.52C21.8161 25.6125 21.5565 25.5962 21.3397 25.4756C20.7751 25.0811 20.377 24.4914 20.2225 23.8204C20.0636 23.0704 20.008 22.3023 20.0574 21.5372C20.0574 21.4113 20.0574 21.2866 20.0611 21.1623L24.4957 16.7272C24.8952 16.3254 25.0527 15.7423 24.9099 15.194C27.8617 15.6649 30.0357 18.2083 30.0416 21.1975L30.0521 29.0593C30.0466 29.4549 29.7966 29.8058 29.4249 29.9407Z" fill="#5896C8"/>
<path d="M13.2846 29.2969L17.0354 25.5461C17.2384 25.3359 17.2355 25.0017 17.0287 24.795C16.8222 24.5882 16.488 24.5855 16.2776 24.7885L12.5268 28.5394C12.3876 28.6738 12.3317 28.8729 12.3807 29.0604C12.4297 29.2477 12.576 29.394 12.7635 29.443C12.9508 29.4922 13.1499 29.4363 13.2846 29.2969Z" fill="#545454"/>
<path d="M1.80928 23.9386C2.01852 24.1479 2.35757 24.1479 2.56681 23.9386L6.31764 20.1878C6.5207 19.9776 6.51795 19.6434 6.31123 19.4367C6.1045 19.23 5.77026 19.2272 5.5601 19.4303L1.80928 23.1811C1.60003 23.3904 1.60003 23.7294 1.80928 23.9386Z" fill="#545454"/>
<path d="M11.6767 19.4304C11.4675 19.2211 11.1284 19.2211 10.9192 19.4304L5.02484 25.3245C4.88565 25.4591 4.82979 25.6582 4.87878 25.8455C4.92777 26.033 5.07406 26.1793 5.26156 26.2283C5.44882 26.2773 5.64799 26.2214 5.78261 26.0822L11.6767 20.1879C11.8859 19.9787 11.8859 19.6396 11.6767 19.4304Z" fill="#545454"/>
<path d="M10.9185 24.7885L7.16764 28.5394C7.02822 28.6738 6.97236 28.8729 7.02136 29.0604C7.07058 29.2477 7.21686 29.394 7.40413 29.443C7.5914 29.4922 7.7908 29.4363 7.92518 29.2969L11.676 25.5461C11.8791 25.3359 11.8763 25.0017 11.6696 24.795C11.4629 24.5882 11.1286 24.5855 10.9185 24.7885Z" fill="#545454"/>
<path d="M2.18807 18.7372C2.33001 18.7372 2.46645 18.6808 2.56673 18.5803L6.31755 14.8295C6.52061 14.6191 6.51787 14.2849 6.31114 14.0784C6.10441 13.8717 5.77017 13.8687 5.56001 14.0718L1.80919 17.8226C1.65603 17.9757 1.61025 18.2063 1.69312 18.4066C1.77599 18.6067 1.97127 18.7372 2.18807 18.7372Z" fill="#545454"/>
</g>
<defs>
<clipPath id="clip0_1410_1120">
<rect width="30" height="30" fill="white"/>
</clipPath>
</defs>
</svg>
