<svg width="344" height="72" viewBox="0 0 344 72" fill="none" xmlns="http://www.w3.org/2000/svg">
<g clip-path="url(#clip0_909_3)">
<path fill-rule="evenodd" clip-rule="evenodd" d="M22.2926 32.7826L40.5585 63.8075C41.2658 65.0338 42.6388 66.9141 43.0965 68.3856C43.5958 68.5083 43.3462 68.5491 43.8039 68.0995C44.3448 67.4864 43.8039 67.7316 44.636 67.1594C44.8024 66.1375 48.8384 59.8017 49.3377 58.9841L54.1642 50.9724C56.6607 45.3315 58.9491 47.8659 52.6663 37.6468L41.8483 19.13C39.9343 15.7373 31.9456 2.57519 31.0303 0.531389L30.4478 0C28.7418 2.16643 20.878 15.9417 18.4231 19.8249C15.9682 23.7081 17.799 24.5256 20.0458 28.6132C20.8364 30.1257 21.9598 31.3928 22.2926 32.7826Z" fill="#247FB2"/>
<path fill-rule="evenodd" clip-rule="evenodd" d="M53.5817 17.9446C52.3335 20.4381 50.1699 21.8279 51.8758 25.0571C54.2058 29.5126 59.7813 38.4644 62.6106 43.3695C63.8172 45.4542 76.4244 66.3828 76.8405 68.0996C77.1317 68.2222 77.2149 68.3448 77.631 68.5492L78.2967 67.2003C78.4632 66.955 78.5048 66.8733 78.6296 66.7915C79.2953 65.5244 80.2939 64.012 80.9596 62.9083C82.9152 59.5973 88.9483 50.1141 90.1966 47.6206C91.0703 45.863 90.6959 44.5958 89.7805 43.0017C86.8263 38.0556 67.6868 5.55918 67.5203 4.57815C66.3553 3.88326 65.7312 1.47157 64.691 0.36792L53.5817 17.9446Z" fill="#247FB2"/>
<path fill-rule="evenodd" clip-rule="evenodd" d="M12.6404 68.0178C12.6404 67.4455 15.5946 63.4805 16.1355 62.663C16.7596 61.7637 19.5473 58.0031 19.7554 57.3083C20.4211 56.2455 21.5029 54.8557 22.2518 53.8747C22.9592 52.9345 24.041 51.4221 24.4154 50.5228C25.414 47.9476 22.9176 45.0046 21.7109 42.9199C20.2131 40.2221 19.0064 38.2191 17.5918 35.8074C16.3019 33.6001 14.4712 30.9023 13.5142 28.5724C12.682 28.6541 12.266 29.8395 11.8083 30.5344C10.144 33.0688 0.657376 46.8031 0.282906 47.825C-0.590859 50.1958 1.07345 52.117 1.98883 53.6703C3.02902 55.428 3.986 57.1039 5.15102 58.9433C6.56569 61.1915 10.4352 67.936 11.4338 69.1623C12.0163 68.59 11.8915 68.5083 12.6404 68.0178Z" fill="#247FB2"/>
<path fill-rule="evenodd" clip-rule="evenodd" d="M54.1226 50.9724C55.7037 50.9724 56.5775 52.6892 57.8673 53.3433L71.8891 64.2572C73.5951 65.6061 74.8849 66.4645 76.7989 68.0586C76.3828 66.3418 63.7756 45.4542 62.569 43.3286C59.7397 38.4235 54.1642 29.4716 51.8342 25.0161C50.1283 21.7869 52.2919 20.3971 53.5401 17.9037C53.0408 18.1898 53.2488 18.0672 52.6663 18.2307C51.4597 16.8409 44.0951 11.1183 42.0147 9.3606L33.9844 2.73868C32.861 1.79853 32.2785 1.06276 30.9887 0.531372C31.8624 2.57518 39.8927 15.7373 41.8067 19.13L52.6247 37.6468C58.9491 47.825 56.6607 45.2907 54.1226 50.9724Z" fill="#C8E5F4"/>
<path fill-rule="evenodd" clip-rule="evenodd" d="M19.7546 57.3083C20.7947 56.9404 20.9196 57.3083 22.043 57.8805C22.7919 58.2484 23.2496 58.4528 24.0402 58.9024C25.5796 59.4338 27.4104 60.5784 28.7834 61.2732L43.0965 68.3448C42.6388 66.8733 41.2658 64.993 40.5585 63.7667L22.2926 32.7826C22.6671 33.8045 22.4591 32.987 22.0014 33.314C21.5021 32.5374 19.1304 31.5563 17.9238 30.9432C16.5924 30.2483 14.6784 29.022 13.5134 28.5724C14.4288 30.9023 16.3011 33.6001 17.5909 35.8075C19.0056 38.26 20.2122 40.2629 21.7101 42.9199C22.9167 45.0454 25.4132 47.9476 24.4146 50.5228C24.0402 51.4221 22.9584 52.9754 22.251 53.8747C21.5437 54.8557 20.4203 56.2455 19.7546 57.3083Z" fill="#C8E5F4"/>
<path fill-rule="evenodd" clip-rule="evenodd" d="M67.4371 4.49634C67.6035 5.47736 86.7431 37.933 89.6973 42.9198C90.6543 44.514 90.9871 45.822 90.1134 47.5388C88.8651 50.0323 82.832 59.5155 80.8764 62.8265C80.2107 63.971 79.2121 65.4834 78.5464 66.7097C78.588 68.3447 78.7544 68.0177 79.4202 69.1623C80.0027 70.1842 80.3771 70.5112 80.6684 71.574C81.3757 71.2878 92.0689 53.5885 93.4004 51.0133C94.4822 48.9286 94.3157 48.1111 93.1507 46.1082C90.0717 40.7125 68.8934 3.92407 68.0196 3.35181C67.4371 3.76057 67.4787 3.71969 67.4371 4.49634Z" fill="#2B3033"/>
<path fill-rule="evenodd" clip-rule="evenodd" d="M44.5944 67.1593C44.5112 68.1404 44.428 67.5272 45.0521 68.4674C46.1339 70.1842 46.3419 70.9608 47.3821 71.4104C47.507 70.5929 53.9562 60.3739 55.2876 58.1666C55.995 56.9812 57.7009 54.733 57.8673 53.3432C56.5775 52.6892 55.7037 50.9724 54.1226 50.9724L49.2961 58.9841C48.7968 59.8016 44.7608 66.1374 44.5944 67.1593Z" fill="#2B3033"/>
<path fill-rule="evenodd" clip-rule="evenodd" d="M19.7546 57.3083C19.5465 58.0031 16.8004 61.7229 16.1347 62.663C15.5522 63.4805 12.598 67.4455 12.6396 68.0178C12.6396 68.9171 14.3455 71.5331 15.0945 72.2689C16.4259 70.593 17.7574 68.6718 19.0472 66.7098C19.7546 65.6879 22.5839 61.4776 23.1248 61.0689C23.416 60.3331 23.3744 60.6192 23.6657 60.0469C24.165 59.1477 24.0402 60.0878 23.9986 58.9024C23.208 58.4528 22.7503 58.2484 22.0014 57.8805C20.9612 57.3083 20.7948 56.9812 19.7546 57.3083Z" fill="#2B3033"/>
</g>
<path d="M139.5 24.2V48H134.842V32.564L128.144 43.614H127.6L120.902 32.598V48H116.21V24.2H121.038L127.872 35.454L134.672 24.2H139.5ZM156.651 31H161.037V48H156.651V45.994C155.336 47.6487 153.489 48.476 151.109 48.476C148.842 48.476 146.893 47.6147 145.261 45.892C143.651 44.1467 142.847 42.016 142.847 39.5C142.847 36.984 143.651 34.8647 145.261 33.142C146.893 31.3967 148.842 30.524 151.109 30.524C153.489 30.524 155.336 31.3513 156.651 33.006V31ZM148.559 42.968C149.443 43.852 150.565 44.294 151.925 44.294C153.285 44.294 154.407 43.852 155.291 42.968C156.197 42.0613 156.651 40.9053 156.651 39.5C156.651 38.0947 156.197 36.95 155.291 36.066C154.407 35.1593 153.285 34.706 151.925 34.706C150.565 34.706 149.443 35.1593 148.559 36.066C147.675 36.95 147.233 38.0947 147.233 39.5C147.233 40.9053 147.675 42.0613 148.559 42.968ZM173.106 48.476C170.544 48.476 168.402 47.6147 166.68 45.892C164.98 44.1693 164.13 42.0387 164.13 39.5C164.13 36.9613 164.98 34.8307 166.68 33.108C168.402 31.3853 170.544 30.524 173.106 30.524C174.76 30.524 176.268 30.9207 177.628 31.714C178.988 32.5073 180.019 33.5727 180.722 34.91L176.948 37.12C176.608 36.4173 176.086 35.862 175.384 35.454C174.704 35.046 173.933 34.842 173.072 34.842C171.757 34.842 170.669 35.284 169.808 36.168C168.946 37.0293 168.516 38.14 168.516 39.5C168.516 40.8373 168.946 41.948 169.808 42.832C170.669 43.6933 171.757 44.124 173.072 44.124C173.956 44.124 174.738 43.9313 175.418 43.546C176.12 43.138 176.642 42.5827 176.982 41.88L180.79 44.056C180.042 45.3933 178.988 46.47 177.628 47.286C176.268 48.0793 174.76 48.476 173.106 48.476ZM196.406 31V35.216H191.102V48H186.716V35.216H181.344V31H196.406ZM201.79 41.302C202.379 43.4327 203.977 44.498 206.584 44.498C208.261 44.498 209.531 43.9313 210.392 42.798L213.928 44.838C212.251 47.2633 209.78 48.476 206.516 48.476C203.705 48.476 201.45 47.626 199.75 45.926C198.05 44.226 197.2 42.084 197.2 39.5C197.2 36.9387 198.039 34.808 199.716 33.108C201.393 31.3853 203.547 30.524 206.176 30.524C208.669 30.524 210.721 31.3853 212.33 33.108C213.962 34.8307 214.778 36.9613 214.778 39.5C214.778 40.0667 214.721 40.6673 214.608 41.302H201.79ZM201.722 37.902H210.392C210.143 36.746 209.621 35.8847 208.828 35.318C208.057 34.7513 207.173 34.468 206.176 34.468C204.997 34.468 204.023 34.774 203.252 35.386C202.481 35.9753 201.971 36.814 201.722 37.902ZM227.734 30.524C230.023 30.524 231.973 31.3967 233.582 33.142C235.214 34.8647 236.03 36.984 236.03 39.5C236.03 42.016 235.214 44.1467 233.582 45.892C231.973 47.6147 230.023 48.476 227.734 48.476C225.354 48.476 223.518 47.6487 222.226 45.994V54.8H217.84V31H222.226V33.006C223.518 31.3513 225.354 30.524 227.734 30.524ZM223.552 42.968C224.436 43.852 225.558 44.294 226.918 44.294C228.278 44.294 229.4 43.852 230.284 42.968C231.191 42.0613 231.644 40.9053 231.644 39.5C231.644 38.0947 231.191 36.95 230.284 36.066C229.4 35.1593 228.278 34.706 226.918 34.706C225.558 34.706 224.436 35.1593 223.552 36.066C222.668 36.95 222.226 38.0947 222.226 39.5C222.226 40.9053 222.668 42.0613 223.552 42.968Z" fill="#2B3033"/>
<path d="M265.949 48H260.611L255.987 40.248L251.363 48H246.059L253.335 35.794L246.433 24.2H251.737L255.987 31.34L260.237 24.2H265.541L258.639 35.76L265.949 48ZM281.664 45.892C279.918 47.6147 277.788 48.476 275.272 48.476C272.756 48.476 270.625 47.6147 268.88 45.892C267.157 44.1467 266.296 42.016 266.296 39.5C266.296 36.984 267.157 34.8647 268.88 33.142C270.625 31.3967 272.756 30.524 275.272 30.524C277.788 30.524 279.918 31.3967 281.664 33.142C283.409 34.8647 284.282 36.984 284.282 39.5C284.282 42.016 283.409 44.1467 281.664 45.892ZM271.974 42.866C272.858 43.75 273.957 44.192 275.272 44.192C276.586 44.192 277.686 43.75 278.57 42.866C279.454 41.982 279.896 40.86 279.896 39.5C279.896 38.14 279.454 37.018 278.57 36.134C277.686 35.25 276.586 34.808 275.272 34.808C273.957 34.808 272.858 35.25 271.974 36.134C271.112 37.018 270.682 38.14 270.682 39.5C270.682 40.86 271.112 41.982 271.974 42.866ZM301.522 31V48H297.136V35.216H292.444V40.894C292.444 46.1527 290.052 48.5213 285.27 48V43.886C286.176 44.1127 286.868 43.9653 287.344 43.444C287.82 42.9 288.058 41.9707 288.058 40.656V31H301.522ZM319.98 45.892C318.235 47.6147 316.104 48.476 313.588 48.476C311.072 48.476 308.942 47.6147 307.196 45.892C305.474 44.1467 304.612 42.016 304.612 39.5C304.612 36.984 305.474 34.8647 307.196 33.142C308.942 31.3967 311.072 30.524 313.588 30.524C316.104 30.524 318.235 31.3967 319.98 33.142C321.726 34.8647 322.598 36.984 322.598 39.5C322.598 42.016 321.726 44.1467 319.98 45.892ZM310.29 42.866C311.174 43.75 312.274 44.192 313.588 44.192C314.903 44.192 316.002 43.75 316.886 42.866C317.77 41.982 318.212 40.86 318.212 39.5C318.212 38.14 317.77 37.018 316.886 36.134C316.002 35.25 314.903 34.808 313.588 34.808C312.274 34.808 311.174 35.25 310.29 36.134C309.429 37.018 308.998 38.14 308.998 39.5C308.998 40.86 309.429 41.982 310.29 42.866ZM340.32 43.886H342.564V52.556H338.28V48H327.74V52.556H323.456V43.886H325.53C326.504 42.4353 326.992 40.4293 326.992 37.868V31H340.32V43.886ZM330.222 43.886H336.036V34.944H331.276V37.868C331.276 40.2707 330.924 42.2767 330.222 43.886Z" fill="#247FB2"/>
<defs>
<clipPath id="clip0_909_3">
<rect width="94" height="72" fill="white"/>
</clipPath>
</defs>
</svg>
