<svg width="26" height="26" viewBox="0 0 26 26" fill="none" xmlns="http://www.w3.org/2000/svg">
<g clip-path="url(#clip0_135_501)">
<path d="M19.5 2.6C20.5343 2.6 21.5263 3.01089 22.2577 3.74228C22.9891 4.47368 23.4 5.46566 23.4 6.5V19.5C23.4 20.5343 22.9891 21.5263 22.2577 22.2577C21.5263 22.9891 20.5343 23.4 19.5 23.4H6.5C5.46566 23.4 4.47368 22.9891 3.74228 22.2577C3.01089 21.5263 2.6 20.5343 2.6 19.5V6.5C2.6 5.46566 3.01089 4.47368 3.74228 3.74228C4.47368 3.01089 5.46566 2.6 6.5 2.6H19.5ZM19.5 0H6.5C4.77609 0 3.12279 0.684819 1.90381 1.90381C0.684819 3.12279 0 4.77609 0 6.5L0 19.5C0 21.2239 0.684819 22.8772 1.90381 24.0962C3.12279 25.3152 4.77609 26 6.5 26H19.5C21.2239 26 22.8772 25.3152 24.0962 24.0962C25.3152 22.8772 26 21.2239 26 19.5V6.5C26 4.77609 25.3152 3.12279 24.0962 1.90381C22.8772 0.684819 21.2239 0 19.5 0V0Z" fill="black"/>
<path d="M13.0387 8.74862C13.8767 8.75503 14.694 9.0097 15.3873 9.48045C16.0806 9.95121 16.6188 10.6169 16.9338 11.3935C17.2489 12.17 17.3267 13.0225 17.1575 13.8433C16.9882 14.664 16.5794 15.4162 15.9828 16.0047C15.3862 16.5932 14.6285 16.9916 13.8055 17.1496C12.9825 17.3076 12.1311 17.2181 11.359 16.8924C10.5868 16.5667 9.92855 16.0195 9.46735 15.3198C9.00614 14.6201 8.7627 13.7994 8.76778 12.9613C8.77116 12.4042 8.88436 11.8531 9.10091 11.3398C9.31745 10.8264 9.63309 10.3607 10.0298 9.96947C10.4264 9.5782 10.8964 9.26898 11.4127 9.05949C11.929 8.85 12.4815 8.74437 13.0387 8.74862ZM13.0387 6.50011C11.7498 6.49245 10.4878 6.86812 9.41294 7.5794C8.3381 8.29067 7.49898 9.30542 7.00221 10.4947C6.50544 11.684 6.37345 12.9941 6.62302 14.2586C6.87259 15.5231 7.49244 16.6848 8.40381 17.5962C9.31518 18.5076 10.4769 19.1274 11.7414 19.377C13.0059 19.6265 14.316 19.4946 15.5053 18.9978C16.6946 18.501 17.7093 17.6619 18.4206 16.5871C19.1319 15.5122 19.5075 14.2502 19.4999 12.9613C19.488 11.2514 18.8035 9.61481 17.5943 8.40566C16.3852 7.1965 14.7486 6.51196 13.0387 6.50011Z" fill="black"/>
<path d="M19.8252 7.80005C20.7227 7.80005 21.4502 7.07251 21.4502 6.17505C21.4502 5.27759 20.7227 4.55005 19.8252 4.55005C18.9277 4.55005 18.2002 5.27759 18.2002 6.17505C18.2002 7.07251 18.9277 7.80005 19.8252 7.80005Z" fill="black"/>
</g>
<defs>
<clipPath id="clip0_135_501">
<rect width="26" height="26" fill="white"/>
</clipPath>
</defs>
</svg>
