<svg width="26" height="26" viewBox="0 0 26 26" fill="none" xmlns="http://www.w3.org/2000/svg">
<g clip-path="url(#clip0_135_505)">
<path d="M19.5 2.6C21.645 2.6 23.4 4.355 23.4 6.5V19.5C23.4 21.645 21.645 23.4 19.5 23.4H6.5C4.355 23.4 2.6 21.645 2.6 19.5V6.5C2.6 4.355 4.355 2.6 6.5 2.6H19.5ZM19.5 0H6.5C2.925 0 0 2.925 0 6.5V19.5C0 23.075 2.925 26 6.5 26H19.5C23.075 26 26 23.075 26 19.5V6.5C26 2.925 23.075 0 19.5 0Z" fill="black"/>
<path d="M14.1474 10.5131C14.1474 11.1591 14.1474 11.8696 14.1474 12.5156C14.1474 12.7094 14.2109 12.9032 14.4013 12.9678C14.5918 13.0323 14.7823 12.9678 14.9093 12.8386C15.2268 12.5156 15.6078 12.128 15.8617 11.7404C16.6237 10.6423 17.2586 9.47955 17.7666 8.25222C17.8936 7.92924 18.0841 7.80005 18.4015 7.80005C19.0365 7.80005 19.6714 7.80005 20.3064 7.80005C20.3699 7.80005 20.4334 7.80005 20.4969 7.80005C20.8779 7.86465 21.0683 8.18763 20.9413 8.5752C20.6874 9.15657 20.4334 9.73794 20.1159 10.2547C19.6714 11.0299 19.1635 11.7404 18.719 12.451C18.592 12.6448 18.465 12.8386 18.4015 13.0323C18.2111 13.3553 18.2746 13.5491 18.465 13.8075C19.1 14.5181 19.7349 15.2286 20.4334 15.9392C20.8144 16.3914 21.1318 16.8435 21.3858 17.3603C21.5763 17.7479 21.3223 18.2 20.8779 18.2C20.1159 18.2 19.2905 18.2 18.5285 18.2C18.338 18.2 18.1476 18.1355 18.0841 17.9417C17.5126 17.0373 16.8142 16.3914 16.0522 15.6808C15.9252 15.5516 15.7347 15.4224 15.5443 15.2932C15.4173 15.2286 15.2903 15.164 15.1633 15.0994C14.7823 14.9702 14.5918 15.164 14.5918 15.5516C14.5918 16.0038 14.5918 16.5205 14.5918 16.9727C14.5918 17.6833 14.0839 18.2 13.3854 18.2C11.9885 18.2 10.7186 17.6833 9.63921 16.9081C8.75028 16.2622 8.05183 15.487 7.41688 14.5181C6.46445 13.1615 5.63902 11.7404 5.06756 10.1901C4.87708 9.60874 4.68659 9.09197 4.5596 8.51061C4.4961 8.18763 4.75009 7.86464 5.06756 7.86464C5.76601 7.86464 6.46445 7.86464 7.1629 7.86464C7.41688 7.86464 7.54387 8.05843 7.67086 8.25222C7.98834 9.09197 8.30581 9.93173 8.62329 10.7069C9.00426 11.6112 9.51222 12.451 10.2107 13.2261C10.4012 13.4199 10.5916 13.5491 10.7821 13.6783C10.9726 13.8075 11.0996 13.6783 11.1631 13.4845C11.2266 13.2907 11.2266 13.1615 11.2266 12.9678C11.2266 12.9032 11.2266 12.8386 11.2266 12.774C11.2266 11.9342 11.2266 11.0945 11.1631 10.2547C11.1631 9.73794 11.0361 9.22117 10.7186 8.83359C10.5916 8.6398 10.4646 8.51061 10.3377 8.31682C10.2742 8.25222 10.2742 8.05843 10.2742 7.99384C10.3377 7.92924 10.4646 7.86464 10.5916 7.86464C11.6076 7.86464 12.6235 7.86464 13.6394 7.86464C14.0204 7.86464 14.2109 8.12303 14.2109 8.44601C14.1474 9.15657 14.1474 9.86713 14.1474 10.5131Z" fill="black"/>
</g>
<defs>
<clipPath id="clip0_135_505">
<rect width="26" height="26" fill="white"/>
</clipPath>
</defs>
</svg>
