<svg width="82" height="57" viewBox="0 0 82 57" fill="none" xmlns="http://www.w3.org/2000/svg">
<path fill-rule="evenodd" clip-rule="evenodd" d="M52.2237 7.2073C58.6627 6.00282 64.7459 -1.25034 70.6434 1.60103C76.3095 4.34047 74.8592 13.0596 76.7463 19.0636C78.3678 24.2227 81.558 29.0192 80.9499 34.3928C80.334 39.8357 77.3552 44.8221 73.4025 48.6141C69.644 52.2197 64.595 53.9878 59.4833 54.9865C54.7113 55.9188 50.0791 54.243 45.2184 54.1205C38.2404 53.9448 29.6423 59.0415 24.702 54.1103C19.8933 49.3106 25.7064 40.9228 25.2075 34.147C24.7573 28.0322 19.2944 21.9639 21.9272 16.4267C24.5644 10.8804 31.8821 9.54061 37.7575 7.75272C42.4694 6.31885 47.3824 8.11292 52.2237 7.2073Z" fill="#FFD1D7"/>
<path d="M19.9519 45.6953C21.3466 45.6953 22.6843 45.1412 23.6705 44.155C24.6567 43.1688 25.2108 41.8311 25.2108 40.4364C25.2108 39.0417 24.6567 37.7041 23.6705 36.7178C22.6843 35.7316 21.3466 35.1776 19.9519 35.1776C18.5572 35.1776 17.2196 35.7316 16.2333 36.7178C15.2471 37.7041 14.6931 39.0417 14.6931 40.4364C14.6931 41.8311 15.2471 43.1688 16.2333 44.155C17.2196 45.1412 18.5572 45.6953 19.9519 45.6953V45.6953ZM46.2462 45.6953C47.6409 45.6953 48.9785 45.1412 49.9648 44.155C50.951 43.1688 51.5051 41.8311 51.5051 40.4364C51.5051 39.0417 50.951 37.7041 49.9648 36.7178C48.9785 35.7316 47.6409 35.1776 46.2462 35.1776C44.8515 35.1776 43.5139 35.7316 42.5276 36.7178C41.5414 37.7041 40.9873 39.0417 40.9873 40.4364C40.9873 41.8311 41.5414 43.1688 42.5276 44.155C43.5139 45.1412 44.8515 45.6953 46.2462 45.6953V45.6953Z" stroke="#665F5F" stroke-width="1.5" stroke-miterlimit="1.5" stroke-linecap="round" stroke-linejoin="round"/>
<path d="M25.3422 40.4365H38.3579V13.0904C38.3579 12.672 38.1917 12.2707 37.8958 11.9748C37.6 11.679 37.1987 11.5128 36.7802 11.5128H1.5459M13.7727 40.4365H8.38241C8.17523 40.4365 7.97008 40.3957 7.77867 40.3164C7.58726 40.2371 7.41334 40.1209 7.26684 39.9744C7.12034 39.8279 7.00413 39.654 6.92485 39.4626C6.84556 39.2711 6.80476 39.066 6.80476 38.8588V25.9746" stroke="#665F5F" stroke-width="1.5" stroke-linecap="round"/>
<path d="M4.17532 19.401H14.693" stroke="#665F5F" stroke-width="1.5" stroke-linecap="round" stroke-linejoin="round"/>
<path d="M38.3579 19.401H53.109C53.414 19.4011 53.7124 19.4895 53.9681 19.6557C54.2238 19.8218 54.4259 20.0585 54.5499 20.3371L59.2566 30.9284C59.3463 31.1295 59.3929 31.3472 59.3933 31.5674V38.8588C59.3933 39.066 59.3525 39.2711 59.2733 39.4625C59.194 39.6539 59.0778 39.8278 58.9313 39.9743C58.7848 40.1208 58.6108 40.2371 58.4194 40.3163C58.228 40.3956 58.0229 40.4364 57.8157 40.4364H52.8198M38.3579 40.4364H40.9873" stroke="#665F5F" stroke-width="1.5" stroke-linecap="round"/>
</svg>
