<svg width="74" height="56" viewBox="0 0 74 56" fill="none" xmlns="http://www.w3.org/2000/svg">
<path fill-rule="evenodd" clip-rule="evenodd" d="M42.7597 49.0849C36.3207 50.2894 30.2375 57.5426 24.34 54.6912C18.6739 51.9518 20.1242 43.2326 18.2371 37.2287C16.6156 32.0696 13.4254 27.273 14.0335 21.8994C14.6494 16.4565 17.6282 11.4701 21.5809 7.67811C25.3394 4.07249 30.3884 2.30442 35.5001 1.30573C40.2721 0.37341 44.9043 2.04926 49.765 2.1717C56.743 2.34748 65.3411 -2.74923 70.2814 2.18189C75.0901 6.98162 69.277 15.3694 69.7759 22.1452C70.2261 28.26 75.689 34.3283 73.0562 39.8655C70.419 45.4118 63.1013 46.7516 57.2259 48.5395C52.514 49.9734 47.601 48.1793 42.7597 49.0849Z" fill="#FFD1D7"/>
<path fill-rule="evenodd" clip-rule="evenodd" d="M23.5643 12.8805C18.6823 15.0947 14.5663 16.9722 14.4175 17.0526C14.2403 17.1483 14.1152 17.2951 14.0549 17.478C13.964 17.7539 14.0149 17.8508 18.0937 25.1828C20.3714 29.2771 22.3168 32.6846 22.4303 32.7786C22.8908 33.16 23.7189 32.828 23.7189 32.2619C23.7189 32.0906 22.5514 29.9286 19.805 25.0142C17.6525 21.1623 15.904 18.0013 15.9197 17.9897C16.0265 17.9106 32.2202 10.5874 32.2415 10.6085C32.2563 10.6232 32.4842 11.0272 32.7479 11.5065C33.6062 13.0666 33.9723 13.6113 34.2264 13.7062C34.7238 13.8921 35.3119 13.5565 35.3119 13.0868C35.3119 12.9596 34.8741 12.0798 34.2587 10.9705C33.2929 9.22931 33.1816 9.06277 32.9173 8.96313C32.7588 8.90342 32.5866 8.85455 32.5348 8.85455C32.483 8.85455 28.4462 10.6662 23.5643 12.8805ZM5.9092 12.3445C5.70128 12.3796 4.5376 12.8542 3.32335 13.3994C1.34757 14.2863 1.10134 14.4173 0.980793 14.6453C0.896365 14.8049 0.867215 14.9762 0.902834 15.104C0.979113 15.3783 1.34715 15.6733 1.61606 15.6757C1.73636 15.6767 2.81216 15.2426 4.00667 14.711C6.06721 13.794 6.20331 13.7449 6.6609 13.7545C7.22073 13.766 7.67361 13.9493 8.06425 14.3222C8.22983 14.4802 9.86512 17.3325 12.423 21.9247C18.6845 33.1658 19.0587 33.8177 19.31 33.9209C19.6641 34.0664 19.9333 34.0262 20.197 33.7884C20.3659 33.6361 20.4426 33.4914 20.4426 33.325C20.4426 33.1579 19.388 31.1843 17.0285 26.9357C15.1508 23.5546 13.398 20.4131 13.1334 19.9547C12.8688 19.4963 11.9857 17.9215 11.171 16.4552C9.57135 13.5759 9.32941 13.2432 8.49806 12.7803C7.72427 12.3495 6.80128 12.1941 5.9092 12.3445ZM35.606 14.8361C35.3722 14.9225 35.1767 15.1426 35.1102 15.3945C35.0628 15.5745 35.5929 16.5732 38.5176 21.8138C40.4225 25.2272 41.9643 28.0342 41.9438 28.0516C41.9234 28.069 39.0862 29.3659 35.6391 30.9337C32.1921 32.5014 29.3149 33.8435 29.2454 33.916C28.9528 34.2211 29.0479 34.8097 29.4188 34.9888C29.8419 35.1931 30.0515 35.1091 36.8661 32.0056C44.0532 28.7325 43.9402 28.7928 43.8397 28.2806C43.7618 27.8835 36.6696 15.2074 36.3941 14.9729C36.1472 14.7627 35.9144 14.7223 35.606 14.8361ZM26.2675 18.22C26.0852 18.301 25.9499 18.4493 25.8366 18.6918C25.4955 19.4224 24.3069 22.8637 24.3069 23.1209C24.3069 23.4489 24.6898 23.781 25.0681 23.781C25.5519 23.781 25.7602 23.4836 26.286 22.0423L26.7682 20.7203L28.6543 24.1259C29.6916 25.9991 30.6169 27.6065 30.7105 27.6981C31.0466 28.0272 31.7202 27.9595 31.9491 27.5736C32.1537 27.229 32.028 26.9489 30.1455 23.5537C29.1059 21.6788 28.2553 20.1358 28.2553 20.1249C28.2553 20.1139 28.8696 20.287 29.6204 20.5095C30.3713 20.7319 31.1269 20.9192 31.2996 20.9255C32.1149 20.9555 32.3411 19.9037 31.5869 19.5898C31.2783 19.4613 26.7207 18.0975 26.6086 18.1001C26.5671 18.101 26.4136 18.155 26.2675 18.22ZM36.3163 33.7913C33.3658 35.1297 30.8921 36.2843 30.8191 36.3571C30.2709 36.9035 30.7936 37.7199 31.5675 37.526C31.7182 37.4882 34.2293 36.3725 37.1478 35.0467C41.7847 32.9401 42.471 32.6064 42.5885 32.4014C42.854 31.9385 42.4491 31.3579 41.8607 31.3579C41.7616 31.3579 39.2666 32.4529 36.3163 33.7913ZM22.5168 33.9411C22.2484 33.9766 21.7155 34.1029 21.3326 34.2219C19.4545 34.8058 18.0095 35.9539 17.1653 37.5331C16.58 38.628 16.4563 39.1347 16.4623 40.4123C16.4666 41.3409 16.4957 41.558 16.6957 42.155C17.7249 45.2276 20.9153 47.1703 24.3581 46.8209C27.7848 46.4731 30.3692 44.148 30.7729 41.0495C31.0587 38.856 29.9452 36.5254 27.9851 35.2146C27.1654 34.6664 26.7566 34.4728 25.8611 34.2087C24.749 33.8808 23.6443 33.7925 22.5168 33.9411ZM25.021 35.4992C26.8734 35.914 28.3145 37.1643 28.9806 38.9348C29.2046 39.5301 29.2041 41.2193 28.9798 41.814C28.6474 42.6954 28.2485 43.2689 27.5042 43.9356C26.3962 44.928 25.1774 45.386 23.6445 45.386C21.0734 45.386 18.9253 43.9132 18.2136 41.6625C18.0063 41.0073 18.004 39.7659 18.2086 39.0864C18.9031 36.7797 21.3472 35.1825 23.9289 35.3484C24.2523 35.3693 24.7438 35.4371 25.021 35.4992ZM22.4259 37.1186C20.9622 37.5868 20.0291 38.6294 19.8666 39.9782C19.6599 41.6936 20.7774 43.1998 22.6141 43.6813C22.9546 43.7706 23.2892 43.7933 23.8665 43.766C24.5688 43.7329 24.7222 43.6977 25.2817 43.4416C26.9166 42.6931 27.7399 41.0759 27.286 39.5042C27.0094 38.5467 26.2016 37.6842 25.1759 37.2512C24.6883 37.0454 24.5048 37.011 23.768 36.9875C23.0698 36.9651 22.8338 36.9882 22.4259 37.1186ZM24.4749 38.562C24.939 38.7512 25.3553 39.1015 25.5934 39.5031C25.7311 39.7352 25.7732 39.9391 25.7734 40.3744C25.7738 40.9951 25.6735 41.2342 25.2164 41.7038C24.2379 42.709 22.3345 42.4747 21.6673 41.2671C21.2579 40.5263 21.4419 39.4761 22.075 38.9397C22.6877 38.4206 23.7271 38.2569 24.4749 38.562Z" fill="#665F5F"/>
</svg>
