<svg width="193" height="64" viewBox="0 0 193 64" fill="none" xmlns="http://www.w3.org/2000/svg">
<path d="M10.3151 58.1134C5.4405 45.1691 -1.38388 19.3265 10.3151 19.5103C14.9698 18.8261 21.4864 25.5888 10.3151 58.1134Z" fill="#665F5F"/>
<path d="M4.33611 19.4795L2.72148 18.1538C-0.888926 25.4083 0.00919751 32.1941 0.866551 37.7223C2.23491 46.5454 4.87018 54.141 8.43531 63.548L9.65455 60.6871C5.75298 51.9614 4.15412 44.5952 3.72061 42.2707C1.25987 31.0204 1.65357 25.6046 4.33611 19.4795Z" fill="#665F5F"/>
<path d="M10.6446 0.448062C6.22282 0.305017 5.14992 0.944183 4.18766 3.63827C2.99267 7.59847 5.19217 11.3633 9.74223 15.4624C12.9387 18.0194 13.9604 17.7548 15.9905 20.5375C17.711 22.896 18.3623 32.1007 16.5672 41.185C16.2243 42.9206 16.9347 43.2355 17.7089 41.6447C19.7575 37.4354 22.5547 30.9266 23.4455 26.5224C24.8158 17.6026 21.37 15.25 19.2815 13.487C16.0386 11.0567 15.2032 10.728 14.539 10.2415C13.7292 9.64859 13.2034 8.73144 12.9524 7.75972C12.2317 4.96918 13.4118 3.22452 14.1892 2.71533C15.3467 1.82537 21.3266 1.32758 25.2755 1.2527C22.2409 1.04409 15.0664 0.591108 10.6446 0.448062Z" fill="#665F5F"/>
<path d="M40.1646 37.9711C39.3006 37.9711 38.4952 37.8324 37.7486 37.5551C37.0126 37.2671 36.3726 36.8617 35.8286 36.3391C35.2846 35.8164 34.8579 35.2031 34.5486 34.4991C34.2499 33.7951 34.1006 33.0217 34.1006 32.1791C34.1006 31.3364 34.2499 30.5631 34.5486 29.8591C34.8579 29.1551 35.2846 28.5417 35.8286 28.0191C36.3832 27.4964 37.0286 27.0964 37.7646 26.8191C38.5006 26.5311 39.3059 26.3871 40.1806 26.3871C41.1512 26.3871 42.0259 26.5577 42.8046 26.8991C43.5939 27.2297 44.2552 27.7204 44.7886 28.3711L43.1246 29.9071C42.7406 29.4697 42.3139 29.1444 41.8446 28.9311C41.3752 28.7071 40.8632 28.5951 40.3086 28.5951C39.7859 28.5951 39.3059 28.6804 38.8686 28.8511C38.4312 29.0217 38.0526 29.2671 37.7326 29.5871C37.4126 29.9071 37.1619 30.2857 36.9806 30.7231C36.8099 31.1604 36.7246 31.6457 36.7246 32.1791C36.7246 32.7124 36.8099 33.1977 36.9806 33.6351C37.1619 34.0724 37.4126 34.4511 37.7326 34.7711C38.0526 35.0911 38.4312 35.3364 38.8686 35.5071C39.3059 35.6777 39.7859 35.7631 40.3086 35.7631C40.8632 35.7631 41.3752 35.6564 41.8446 35.4431C42.3139 35.2191 42.7406 34.8831 43.1246 34.4351L44.7886 35.9711C44.2552 36.6217 43.5939 37.1177 42.8046 37.4591C42.0259 37.8004 41.1459 37.9711 40.1646 37.9711ZM54.2189 26.5791H56.8109V37.7791H54.2189V26.5791ZM49.1309 37.7791H46.5389V26.5791H49.1309V37.7791ZM54.4109 33.1871H48.9389V30.9951H54.4109V33.1871ZM61.8448 31.0911H67.2368V33.1071H61.8448V31.0911ZM62.0368 35.6991H68.1328V37.7791H59.4608V26.5791H67.9248V28.6591H62.0368V35.6991ZM70.1952 37.7791V26.5791H75.0432C76.0459 26.5791 76.9099 26.7444 77.6352 27.0751C78.3605 27.3951 78.9205 27.8591 79.3152 28.4671C79.7099 29.0751 79.9072 29.8004 79.9072 30.6431C79.9072 31.4751 79.7099 32.1951 79.3152 32.8031C78.9205 33.4004 78.3605 33.8591 77.6352 34.1791C76.9099 34.4991 76.0459 34.6591 75.0432 34.6591H71.6352L72.7872 33.5231V37.7791H70.1952ZM77.3152 37.7791L74.5152 33.7151H77.2832L80.1152 37.7791H77.3152ZM72.7872 33.8111L71.6352 32.5951H74.8992C75.6992 32.5951 76.2965 32.4244 76.6912 32.0831C77.0859 31.7311 77.2832 31.2511 77.2832 30.6431C77.2832 30.0244 77.0859 29.5444 76.6912 29.2031C76.2965 28.8617 75.6992 28.6911 74.8992 28.6911H71.6352L72.7872 27.4591V33.8111ZM81.9608 37.7791V26.5791H86.8088C87.8115 26.5791 88.6755 26.7444 89.4008 27.0751C90.1261 27.3951 90.6861 27.8591 91.0808 28.4671C91.4755 29.0751 91.6728 29.8004 91.6728 30.6431C91.6728 31.4751 91.4755 32.1951 91.0808 32.8031C90.6861 33.4004 90.1261 33.8591 89.4008 34.1791C88.6755 34.4991 87.8115 34.6591 86.8088 34.6591H83.4008L84.5528 33.5231V37.7791H81.9608ZM89.0808 37.7791L86.2808 33.7151H89.0488L91.8808 37.7791H89.0808ZM84.5528 33.8111L83.4008 32.5951H86.6648C87.4648 32.5951 88.0621 32.4244 88.4568 32.0831C88.8515 31.7311 89.0488 31.2511 89.0488 30.6431C89.0488 30.0244 88.8515 29.5444 88.4568 29.2031C88.0621 28.8617 87.4648 28.6911 86.6648 28.6911H83.4008L84.5528 27.4591V33.8111ZM96.3542 37.7791V33.2031L96.9462 34.7711L92.0182 26.5791H94.7702L98.5462 32.8671H96.9622L100.754 26.5791H103.298L98.3702 34.7711L98.9462 33.2031V37.7791H96.3542ZM108.914 37.7791V26.5791H114.386C115.794 26.5791 116.85 26.8457 117.554 27.3791C118.269 27.9124 118.626 28.6164 118.626 29.4911C118.626 30.0777 118.482 30.5897 118.194 31.0271C117.906 31.4537 117.511 31.7844 117.01 32.0191C116.509 32.2537 115.933 32.3711 115.282 32.3711L115.586 31.7151C116.29 31.7151 116.914 31.8324 117.458 32.0671C118.002 32.2911 118.423 32.6271 118.722 33.0751C119.031 33.5231 119.186 34.0724 119.186 34.7231C119.186 35.6831 118.807 36.4351 118.05 36.9791C117.293 37.5124 116.178 37.7791 114.706 37.7791H108.914ZM111.49 35.8271H114.514C115.186 35.8271 115.693 35.7204 116.034 35.5071C116.386 35.2831 116.562 34.9311 116.562 34.4511C116.562 33.9817 116.386 33.6351 116.034 33.4111C115.693 33.1764 115.186 33.0591 114.514 33.0591H111.298V31.1711H114.066C114.695 31.1711 115.175 31.0644 115.506 30.8511C115.847 30.6271 116.018 30.2911 116.018 29.8431C116.018 29.4057 115.847 29.0804 115.506 28.8671C115.175 28.6431 114.695 28.5311 114.066 28.5311H111.49V35.8271ZM121.148 37.7791V26.5791H123.74V35.6671H129.356V37.7791H121.148ZM136.057 37.9711C135.172 37.9711 134.35 37.8271 133.593 37.5391C132.846 37.2511 132.196 36.8457 131.641 36.3231C131.097 35.8004 130.67 35.1871 130.361 34.4831C130.062 33.7791 129.913 33.0111 129.913 32.1791C129.913 31.3471 130.062 30.5791 130.361 29.8751C130.67 29.1711 131.102 28.5577 131.657 28.0351C132.212 27.5124 132.862 27.1071 133.609 26.8191C134.356 26.5311 135.166 26.3871 136.041 26.3871C136.926 26.3871 137.737 26.5311 138.473 26.8191C139.22 27.1071 139.865 27.5124 140.409 28.0351C140.964 28.5577 141.396 29.1711 141.705 29.8751C142.014 30.5684 142.169 31.3364 142.169 32.1791C142.169 33.0111 142.014 33.7844 141.705 34.4991C141.396 35.2031 140.964 35.8164 140.409 36.3391C139.865 36.8511 139.22 37.2511 138.473 37.5391C137.737 37.8271 136.932 37.9711 136.057 37.9711ZM136.041 35.7631C136.542 35.7631 137.001 35.6777 137.417 35.5071C137.844 35.3364 138.217 35.0911 138.537 34.7711C138.857 34.4511 139.102 34.0724 139.273 33.6351C139.454 33.1977 139.545 32.7124 139.545 32.1791C139.545 31.6457 139.454 31.1604 139.273 30.7231C139.102 30.2857 138.857 29.9071 138.537 29.5871C138.228 29.2671 137.86 29.0217 137.433 28.8511C137.006 28.6804 136.542 28.5951 136.041 28.5951C135.54 28.5951 135.076 28.6804 134.649 28.8511C134.233 29.0217 133.865 29.2671 133.545 29.5871C133.225 29.9071 132.974 30.2857 132.793 30.7231C132.622 31.1604 132.537 31.6457 132.537 32.1791C132.537 32.7017 132.622 33.1871 132.793 33.6351C132.974 34.0724 133.22 34.4511 133.529 34.7711C133.849 35.0911 134.222 35.3364 134.649 35.5071C135.076 35.6777 135.54 35.7631 136.041 35.7631ZM147.797 37.9711C146.901 37.9711 146.042 37.8537 145.221 37.6191C144.4 37.3737 143.738 37.0591 143.237 36.6751L144.117 34.7231C144.597 35.0644 145.162 35.3471 145.813 35.5711C146.474 35.7844 147.141 35.8911 147.813 35.8911C148.325 35.8911 148.736 35.8431 149.045 35.7471C149.365 35.6404 149.6 35.4964 149.749 35.3151C149.898 35.1337 149.973 34.9257 149.973 34.6911C149.973 34.3924 149.856 34.1577 149.621 33.9871C149.386 33.8057 149.077 33.6617 148.693 33.5551C148.309 33.4377 147.882 33.3311 147.413 33.2351C146.954 33.1284 146.49 33.0004 146.021 32.8511C145.562 32.7017 145.141 32.5097 144.757 32.2751C144.373 32.0404 144.058 31.7311 143.813 31.3471C143.578 30.9631 143.461 30.4724 143.461 29.8751C143.461 29.2351 143.632 28.6537 143.973 28.1311C144.325 27.5977 144.848 27.1764 145.541 26.8671C146.245 26.5471 147.125 26.3871 148.181 26.3871C148.885 26.3871 149.578 26.4724 150.261 26.6431C150.944 26.8031 151.546 27.0484 152.069 27.3791L151.269 29.3471C150.746 29.0484 150.224 28.8297 149.701 28.6911C149.178 28.5417 148.666 28.4671 148.165 28.4671C147.664 28.4671 147.253 28.5257 146.933 28.6431C146.613 28.7604 146.384 28.9151 146.245 29.1071C146.106 29.2884 146.037 29.5017 146.037 29.7471C146.037 30.0351 146.154 30.2697 146.389 30.4511C146.624 30.6217 146.933 30.7604 147.317 30.8671C147.701 30.9737 148.122 31.0804 148.581 31.1871C149.05 31.2937 149.514 31.4164 149.973 31.5551C150.442 31.6937 150.869 31.8804 151.253 32.1151C151.637 32.3497 151.946 32.6591 152.181 33.0431C152.426 33.4271 152.549 33.9124 152.549 34.4991C152.549 35.1284 152.373 35.7044 152.021 36.2271C151.669 36.7497 151.141 37.1711 150.437 37.4911C149.744 37.8111 148.864 37.9711 147.797 37.9711ZM158 37.9711C157.104 37.9711 156.246 37.8537 155.424 37.6191C154.603 37.3737 153.942 37.0591 153.44 36.6751L154.32 34.7231C154.8 35.0644 155.366 35.3471 156.016 35.5711C156.678 35.7844 157.344 35.8911 158.016 35.8911C158.528 35.8911 158.939 35.8431 159.248 35.7471C159.568 35.6404 159.803 35.4964 159.952 35.3151C160.102 35.1337 160.176 34.9257 160.176 34.6911C160.176 34.3924 160.059 34.1577 159.824 33.9871C159.59 33.8057 159.28 33.6617 158.896 33.5551C158.512 33.4377 158.086 33.3311 157.616 33.2351C157.158 33.1284 156.694 33.0004 156.224 32.8511C155.766 32.7017 155.344 32.5097 154.96 32.2751C154.576 32.0404 154.262 31.7311 154.016 31.3471C153.782 30.9631 153.664 30.4724 153.664 29.8751C153.664 29.2351 153.835 28.6537 154.176 28.1311C154.528 27.5977 155.051 27.1764 155.744 26.8671C156.448 26.5471 157.328 26.3871 158.384 26.3871C159.088 26.3871 159.782 26.4724 160.464 26.6431C161.147 26.8031 161.75 27.0484 162.272 27.3791L161.472 29.3471C160.95 29.0484 160.427 28.8297 159.904 28.6911C159.382 28.5417 158.87 28.4671 158.368 28.4671C157.867 28.4671 157.456 28.5257 157.136 28.6431C156.816 28.7604 156.587 28.9151 156.448 29.1071C156.31 29.2884 156.24 29.5017 156.24 29.7471C156.24 30.0351 156.358 30.2697 156.592 30.4511C156.827 30.6217 157.136 30.7604 157.52 30.8671C157.904 30.9737 158.326 31.0804 158.784 31.1871C159.254 31.2937 159.718 31.4164 160.176 31.5551C160.646 31.6937 161.072 31.8804 161.456 32.1151C161.84 32.3497 162.15 32.6591 162.384 33.0431C162.63 33.4271 162.752 33.9124 162.752 34.4991C162.752 35.1284 162.576 35.7044 162.224 36.2271C161.872 36.7497 161.344 37.1711 160.64 37.4911C159.947 37.8111 159.067 37.9711 158 37.9711ZM169.963 37.9711C169.078 37.9711 168.257 37.8271 167.499 37.5391C166.753 37.2511 166.102 36.8457 165.547 36.3231C165.003 35.8004 164.577 35.1871 164.267 34.4831C163.969 33.7791 163.819 33.0111 163.819 32.1791C163.819 31.3471 163.969 30.5791 164.267 29.8751C164.577 29.1711 165.009 28.5577 165.563 28.0351C166.118 27.5124 166.769 27.1071 167.515 26.8191C168.262 26.5311 169.073 26.3871 169.947 26.3871C170.833 26.3871 171.643 26.5311 172.379 26.8191C173.126 27.1071 173.771 27.5124 174.315 28.0351C174.87 28.5577 175.302 29.1711 175.611 29.8751C175.921 30.5684 176.075 31.3364 176.075 32.1791C176.075 33.0111 175.921 33.7844 175.611 34.4991C175.302 35.2031 174.87 35.8164 174.315 36.3391C173.771 36.8511 173.126 37.2511 172.379 37.5391C171.643 37.8271 170.838 37.9711 169.963 37.9711ZM169.947 35.7631C170.449 35.7631 170.907 35.6777 171.323 35.5071C171.75 35.3364 172.123 35.0911 172.443 34.7711C172.763 34.4511 173.009 34.0724 173.179 33.6351C173.361 33.1977 173.451 32.7124 173.451 32.1791C173.451 31.6457 173.361 31.1604 173.179 30.7231C173.009 30.2857 172.763 29.9071 172.443 29.5871C172.134 29.2671 171.766 29.0217 171.339 28.8511C170.913 28.6804 170.449 28.5951 169.947 28.5951C169.446 28.5951 168.982 28.6804 168.555 28.8511C168.139 29.0217 167.771 29.2671 167.451 29.5871C167.131 29.9071 166.881 30.2857 166.699 30.7231C166.529 31.1604 166.443 31.6457 166.443 32.1791C166.443 32.7017 166.529 33.1871 166.699 33.6351C166.881 34.0724 167.126 34.4511 167.435 34.7711C167.755 35.0911 168.129 35.3364 168.555 35.5071C168.982 35.6777 169.446 35.7631 169.947 35.7631ZM178.023 37.7791V26.5791H180.167L184.935 34.4831H183.799L188.487 26.5791H190.615L190.647 37.7791H188.215L188.199 30.3071H188.647L184.903 36.5951H183.735L179.911 30.3071H180.455V37.7791H178.023Z" fill="#665F5F"/>
</svg>
