<svg width="134" height="147" viewBox="0 0 134 147" fill="none" xmlns="http://www.w3.org/2000/svg">
<g id="Group 511">
<g id="Group 514">
<path id="Vector 96" d="M16.2123 117.149L14.395 114.02C34.8929 111.191 50.6748 113.945 56.0035 115.676L47.2933 119.909C28.795 115.885 18.865 116.392 16.2123 117.149Z" fill="url(#paint0_linear_378_29)"/>
<path id="Vector 97" d="M34.0372 128.549C31.1061 126.266 23.4898 123.549 20.048 122.476C20.5476 123.259 23.3926 126.389 24.7527 127.856L29.5407 132.461L34.0372 128.549Z" fill="url(#paint1_linear_378_29)"/>
<path id="Vector 98" d="M16.0439 116.996L17.9409 119.895L22.8791 120.112L27.7921 120.846L36.2023 122.721L40.1577 124.351L47.4021 120.112L45.362 119.542L39.7413 118.36L32.7883 117.463L26.7096 116.996L19.8814 116.729L16.0439 116.996Z" fill="url(#paint2_linear_378_29)"/>
<path id="Vector 99" d="M64.7137 112.062C40.5136 106.242 20.1741 109.073 13.0294 111.216L14.153 113.924C38.4913 111.622 52.2392 114.149 56.0709 115.7L64.7137 112.062Z" fill="url(#paint3_linear_378_29)"/>
<path id="Vector 100" d="M45.7651 141.609L41.4099 139.654L47.511 133.731L54.5653 127.516L64.8823 120.87L76.8746 115.086L86.5743 111.547L94.5619 109.539L102.605 108.081L110.648 107.47H117.152L125.563 108.081L124.857 110.051C94.0054 108.169 66.6438 132.306 55.7461 144.557L52.77 143.847L45.7651 141.609Z" fill="url(#paint4_linear_378_29)"/>
<path id="Vector 101" d="M125.628 108.292C82.8501 103.37 51.7378 127.261 41.5289 139.822C36.3726 137.686 32.2545 134.054 29.8275 132.304C65.5921 102.475 105.774 102.201 126.409 106.33L125.628 108.292Z" fill="url(#paint5_linear_378_29)"/>
<path id="Vector 120" d="M94.7951 66.5445L93.1887 61.4958L94.7951 58.2544L96.7744 59.8608L98.0079 63.3891L98.6103 67.8067L94.7951 66.5445Z" fill="url(#paint6_linear_378_29)"/>
<path id="Vector 102" d="M73.7375 145.551C66.7708 146.381 59.0744 145.205 56.0971 144.513C81.2989 114.7 112.286 109.067 124.629 109.977L124.196 111.276C102.666 112.929 81.5863 134.815 73.7375 145.551Z" fill="url(#paint7_linear_378_29)"/>
<path id="Vector 103" d="M93.1864 140.616C97.1192 133.282 108.736 117.677 122.715 113.934C119.28 120.513 108.36 135.061 93.1864 140.616Z" fill="url(#paint8_linear_378_29)"/>
<path id="Vector 104" d="M20.1894 122.623L17.8412 119.686C30.2605 120.554 37.9312 123.027 40.2141 124.155L34.2784 128.433C26.973 124.5 21.8418 122.921 20.1894 122.623Z" fill="url(#paint9_linear_378_29)"/>
<path id="Vector 105" d="M123.987 111.412C104.069 111.922 82.1614 134.392 73.6973 145.562C78.6331 145.84 88.8127 142.598 93.2855 140.943L93.7574 139.634L96.1956 135.477L101.386 129.048L104.415 125.583L109.605 120.964L115.898 116.845L121.757 114.035L122.779 113.765L123.987 111.412Z" fill="url(#paint10_linear_378_29)"/>
<path id="Vector 106" d="M18.3717 54.2265L17.027 53.1759L21.9906 46.6572L24.4749 48.351L26.4567 50.1074L29.3388 51.4658L33.157 52.8426L36.4429 54.1092L38.9211 54.6416L42.9963 54.8435L40.408 55.9265V56.3671L43.8774 58.2946L46.7777 60.0439L48.249 60.3811L50.6092 59.9213L52.0023 59.0477L53.4751 57.1933L54.9158 56.8561V57.3925L54.0729 58.9098L52.0023 60.8715L50.6092 61.4539L49.9655 62.021L50.2413 62.3428L52.4176 63.2317L55.5424 63.9449L58.7028 64.3287L61.3328 65.3347H63.3722L65.8049 64.7462L67.5706 63.5985L70.765 62.8333L73.2796 62.5189L76.0088 62.2046L82.4463 58.8452L82.9718 60.1114L77.4186 62.9546L77.2631 63.3767L80.284 66.0867L82.8412 65.7979L84.2157 65.1537L84.3961 63.6432L85.282 61.9995L86.6592 60.9333L88.2807 60.4446L90.1688 60.5779L91.4349 61.0665L93.0121 62.6881L93.9894 64.976L93.7895 67.4735L92.1235 69.774L89.3469 70.6181L87.1478 70.0897L85.6596 68.619L84.7933 67.0045H84.3961L82.8412 67.4735L82.1994 67.8468L82.0267 68.4113L82.4463 69.3492L82.8412 70.0897H82.4463L81.0394 69.0234L79.8841 67.8468L77.8674 65.936L76.0088 64.5883L73.7548 64.2324L69.4446 64.9442L62.8509 65.936L58.2509 66.2362L55.2367 66.331L55.08 66.51L56.1991 68.2703L58.2509 71.4197L59.1215 73.8159H59.8917L61.5691 72.8574C62.7467 69.7628 64.6728 68.5099 65.4887 68.2703L65.6598 69.0234L65.2319 71.4197L63.8256 74.0374L64.8364 74.758L66.8981 76.4494L67.7588 77.7204L66.6479 77.7904L64.6233 77.2402L63.3833 76.3899L62.2732 75.4806L61.1867 75.2326L59.9918 75.6808L59.6498 76.2404V77.7326L60.2716 78.7585L61.5773 80.3439L61.9192 81.432L61.2975 81.2766L58.7483 80.3439L58.5618 79.7222L58.2509 76.9243L56.9452 73.0695L55.3287 69.8674L53.7743 67.8468L52.0023 65.9504L49.3601 63.7765L46.0419 61.6375L42.4768 59.8275L37.0633 57.7769L33.6806 56.6083L30.8129 55.9764L28.0173 55.8697L24.4749 55.7416L22.5117 55.5069L21.2313 55.1014L18.3717 54.2265Z" fill="url(#paint11_linear_378_29)"/>
<path id="Vector 107" d="M68.1162 67.8501H66.4849L66.3838 69.4959L66.2105 71.1562L65.3588 73.5527L67.1923 75.3573L68.5349 77.4074H68.9824L70.1951 76.801L71.8987 75.4584L72.6927 73.9136L72.866 72.1812L72.2596 70.8819L71.4223 70.16L70.3539 69.8857H69.2712H68.1162L67.5387 69.5825L67.9863 69.1494L70.0796 68.2399L68.1162 67.8501Z" fill="url(#paint12_linear_378_29)"/>
<path id="Vector 109" d="M59.8736 55.6514L56.3251 56.2559V57.097V58.9633L57.2188 61.0398L59.1902 62.8797L61.3981 64.0362H63.0278L65.0254 63.7208L66.7339 62.6168L68.1796 60.7506L68.4424 60.0146V59.0947L65.998 57.097L63.6849 56.0982L59.8736 55.6514Z" fill="url(#paint13_linear_378_29)"/>
<path id="Vector 110" d="M57.8422 51.3638L57.3799 54.404L57.6573 54.6402L60.5126 54.404L60.8926 54.1369L60.451 52.8223L59.4855 51.7335L57.8422 51.3638Z" fill="url(#paint14_linear_378_29)"/>
<path id="Vector 108" d="M54.3736 45.7364L52.5561 43.7256L50.9707 44.2283L49.1532 45.5044L47.8384 47.8632V50.6088L48.9599 53.2383L50.9707 54.8624L53.0202 55.6745H55.8044L56.1137 54.1664L56.4617 51.1502L55.8044 48.4819L54.3736 45.7364Z" fill="url(#paint15_linear_378_29)"/>
<path id="Vector 112" d="M91.843 59.8512C88.97 58.0415 86.0839 59.5684 84.9999 60.5581L83.6709 58.6918L83.5295 57.0234L83.6709 55.7792L84.4061 54.3088L85.622 52.9515L87.0076 52.0749L88.5911 51.9053L90.118 52.2446L91.6167 53.3474L92.6064 55.0158L92.8044 57.3062L91.843 59.8512Z" fill="url(#paint16_linear_378_29)"/>
<path id="Vector 113" d="M95.0383 67.9385C93.8393 71.1734 90.2595 72.0387 88.6194 72.0669L89.2415 74.2443L91.1078 76.054L93.3699 76.874L95.6604 76.5064L97.2156 75.5167L97.9508 73.9049L98.177 72.0669L97.668 70.3703L96.4521 68.8151L95.0383 67.9385Z" fill="url(#paint17_linear_378_29)"/>
<path id="Vector 114" d="M93.9354 58.6919L93.0306 60.4734L93.483 61.2934L93.9354 60.4734L94.3879 59.5968L94.6424 59.2009L95.83 59.5968V60.4734L94.3879 61.9155V62.3679L94.6424 62.7921L96.5369 61.9155H97.1025L97.5832 62.7921L97.3004 63.4425L95.2079 63.7818L94.8686 64.008L95.0665 64.7149L95.5189 64.9129H96.8197L97.9791 65.2805V65.9591L97.7528 66.7226H96.8197L95.83 66.1288H95.2079V66.7226L96.8197 67.5426L97.9791 68.7586L99.1101 70.3986L100.241 68.7586L100.581 67.1185V65.5067L99.9584 64.008L98.2901 62.0852L98.488 60.841V59.5968L97.9791 58.2395L97.3004 57.0801L96.0845 56.147L94.8686 55.8359H94.0768L93.9354 58.6919Z" fill="url(#paint18_linear_378_29)"/>
<path id="Vector 119" d="M65.9394 56.4606L55.2907 45.6523L54.0662 42.085L56.888 40.8071L65.0342 41.3396L70.465 46.8236L71.9559 55.8749L65.9394 56.4606Z" fill="url(#paint19_linear_378_29)"/>
<path id="Vector 111" d="M55.5548 45.4665L56.7453 46.589L56.8895 44.1395L56.4136 42.8882L56.604 42.017L57.6509 41.622L58.3089 42.4732L58.1029 44.1395L58.3089 47.6135L59.1224 44.711V42.6831L59.4407 41.7517L60.6115 41.622L61.2226 42.2705L60.6115 43.7447L59.6468 47.6135V48.5109L61.2226 45.4931L62.0439 43.3444L62.2062 42.1793L62.9893 42.017L63.8297 42.3321L64.0685 43.182L61.6619 47.0975L61.1748 48.425L63.2421 45.8506L64.3179 44.1395L65.2093 43.1251L66.152 43.412L66.562 44.4565L65.6025 45.2926L63.0635 48.2119L62.6969 49.0617L65.7807 46.7728L66.9183 45.1966L67.9325 45.2926L68.5219 46.0601L68.3437 46.7728L67.1513 47.3073L63.0635 50.5194L67.3009 48.7003L68.0995 47.7907L69.3641 47.5688L69.8521 48.8112L69.4972 49.5211L68.2326 49.6542L63.1966 52.1389L66.3913 51.4512L68.2326 50.8522L69.4972 50.5194L70.2737 51.0075L70.1184 52.1389L69.3641 52.4939H67.3009L64.9714 52.982L64.1728 53.47H67.4784L69.4972 53.1816L70.1184 53.825L69.8521 55.023L69.0313 55.2005L67.4784 54.7124H66.1916H65.2599L65.393 55.2005L67.8111 56.7534L69.719 58.4395L72.4478 60.4805L74.6219 60.658L77.1066 59.9481L79.3695 58.0845L80.5009 55.9769L80.8115 53.1816L80.3235 51.0075L79.6801 49.6542L77.8831 47.3692L77.3507 46.4596L77.6613 45.8384L78.3712 44.1523L78.6374 41.8229L78.3712 39.9594L77.0401 37.4525L75.329 35.508L73.4139 34.2555L70.6006 33.3684H68.231L64.9429 34.7007L64.2116 33.8844L62.2728 32.5748L59.9598 31.5713L57.5787 31.2822L55.3847 31.7244L52.8336 33.034L51.1158 35.6021L50.6226 38.1533L51.3029 40.0921L53.2928 42.4732L55.5548 45.4665Z" fill="url(#paint20_linear_378_29)"/>
<path id="Vector 115" d="M84.5874 63.0945L84.2788 65.0562L84.9621 67.2602L86.0421 69.1557L87.6069 70.3458L89.6346 70.5883L91.6623 70.0152L93.2493 68.4724L93.8664 66.5769V64.8578L93.2493 63.0945L92.037 61.684L90.9571 60.8905L89.6346 60.604H87.8273L86.1963 61.2872L84.5874 63.0945Z" fill="url(#paint21_linear_378_29)"/>
<path id="Vector 116" d="M91.4146 50.1895L91.0325 47.4195V47.0056L93.3249 51.0173L96.8687 48.0928L96.6071 46.2807L96.028 44.1884L94.2532 43.4351L92.5906 41.6041L91.6565 39.8169L91.4136 37.1372L91.8807 35.296L92.7587 34.474V35.4329L93.0389 35.6322L94.6642 34.0443L96.1588 33.3531H97.6906L99.2599 34.7355L100.101 38.1916L99.2599 41.3862L97.5596 43.608L98.4024 46.0173H98.7236L103.038 41.6041L103.486 37.1372L103.23 35.4329L103.486 35.0714L104.967 38.8259L105.527 39.0008L111.695 31.166L104.422 42.6785L105.314 43.4351L106.041 43.193L109.506 41.6041V41.8614L107.69 44.2977L107.312 44.8405L108.512 46.6129V47.0056L105.488 45.3499L103.736 44.8405H102.527L100.298 47.0056L99.5973 48.2473L100.521 50.1895L99.247 50.4442H97.5596L96.1268 51.0173L93.3249 53.2461L91.6693 51.3994L91.4146 50.1895Z" fill="url(#paint22_linear_378_29)"/>
<path id="Vector 117" d="M99.5036 40.8175L97.5432 43.6121L95.979 44.2587L95.0822 43.8207L93.2678 42.5902L92.225 41.0261L91.3282 38.7736L91.5159 36.7715L92.0165 35.0822L92.6422 34.6651L92.955 35.7496L93.4555 35.3325L94.3732 34.2063L95.562 33.4763L97.3138 33.2261L98.9406 34.2063L99.7331 36.4587L100.025 38.7736L99.5036 40.8175Z" fill="url(#paint23_linear_378_29)"/>
<path id="Vector 118" d="M109.761 47.5028L108.653 44.9416L109.48 43.661L110.402 41.6152H111.401L112.198 42.0213L111.151 42.5366V42.8489L113.369 43.9109L113.603 44.6293L113.057 46.6126L110.995 47.6589L109.761 47.5028Z" fill="url(#paint24_linear_378_29)"/>
</g>
<g id="CHERRY BLOSSOM">
<path d="M4.88844 91.6156C5.17563 91.673 5.45134 91.7075 5.71555 91.719C5.97977 91.719 6.21527 91.7075 6.42204 91.6845C6.64031 91.6501 6.85283 91.6041 7.05961 91.5467C7.26639 91.4892 7.4387 91.4261 7.57655 91.3571C7.72589 91.2882 7.86949 91.2135 8.00734 91.1331C8.14519 91.0412 8.25432 90.9608 8.33474 90.8919C8.42664 90.823 8.5128 90.7483 8.59321 90.6679C8.67362 90.5875 8.72532 90.5358 8.74829 90.5128C8.78275 90.4783 8.81147 90.4439 8.83445 90.4094L9.23077 90.4266C9.024 90.6449 8.84019 90.8344 8.67937 90.9953C8.51854 91.1446 8.24284 91.3284 7.85226 91.5467C7.47316 91.7649 7.08258 91.9085 6.68052 91.9775C5.7615 92.1153 4.86547 91.9775 3.99241 91.5639C3.13083 91.1504 2.40137 90.5185 1.80401 89.6684C1.20665 88.8069 0.821816 87.8304 0.649501 86.7391C0.477187 85.6478 0.546113 84.6081 0.856279 83.6202C1.16645 82.6208 1.66616 81.7937 2.35542 81.1389C3.05616 80.4726 3.86604 80.0705 4.78505 79.9327C6.10613 79.7259 7.33531 80.0705 8.47259 80.9666C8.553 81.0355 8.62767 81.0987 8.6966 81.1561L9.33416 81.5697L8.78276 83.1722C8.86317 82.9309 8.87466 82.6438 8.81722 82.3106C8.75978 81.9775 8.66214 81.7305 8.52428 81.5697C8.5128 81.5582 8.48408 81.5352 8.43813 81.5007C8.40366 81.4548 8.35771 81.4088 8.30027 81.3629C8.25432 81.3169 8.2256 81.2825 8.21412 81.2595C7.73164 80.7885 7.18023 80.5071 6.5599 80.4151C5.59493 80.2658 4.68167 80.5875 3.82009 81.3801C2.97001 82.1728 2.37265 83.2354 2.02802 84.5679C1.99356 84.7058 1.96484 84.8436 1.94186 84.9815C1.91889 85.1079 1.89591 85.24 1.87294 85.3778C1.7236 86.3772 1.75806 87.3365 1.97632 88.2555C2.19459 89.163 2.56219 89.9154 3.07914 90.5128C3.59608 91.1101 4.19918 91.4778 4.88844 91.6156Z" fill="#665F5F"/>
<path d="M18.2506 91.2537C18.2621 91.4375 18.2794 91.5869 18.3023 91.7018C18.3368 91.8166 18.3885 91.8971 18.4574 91.943C18.5263 91.9775 18.5838 92.0004 18.6297 92.0119C18.6872 92.0234 18.7676 92.0292 18.871 92.0292H16.4069C16.5103 92.0292 16.5849 92.0234 16.6309 92.0119C16.6883 92.0004 16.7515 91.9717 16.8204 91.9258C16.8894 91.8798 16.941 91.7994 16.9755 91.6845C17.01 91.5697 17.0272 91.4203 17.0272 91.2365V85.4295H12.099V91.2537C12.099 91.3916 12.1105 91.5122 12.1335 91.6156C12.1564 91.719 12.1794 91.7994 12.2024 91.8568C12.2369 91.9028 12.2828 91.943 12.3402 91.9775C12.3977 92.0004 12.4494 92.0177 12.4953 92.0292C12.5413 92.0292 12.5987 92.0292 12.6676 92.0292H10.238C10.3414 92.0292 10.4161 92.0234 10.462 92.0119C10.5195 92.0004 10.5826 91.9717 10.6516 91.9258C10.7205 91.8798 10.7722 91.7994 10.8066 91.6845C10.8411 91.5697 10.8583 91.4203 10.8583 91.2365V80.7598C10.8583 80.5645 10.8411 80.4094 10.8066 80.2945C10.7722 80.1797 10.7205 80.0992 10.6516 80.0533C10.5826 80.0073 10.5195 79.9844 10.462 79.9844C10.4161 79.9729 10.3414 79.9671 10.238 79.9671H10.8583H12.099H12.7021C12.6217 79.9671 12.5585 79.9671 12.5126 79.9671C12.4781 79.9671 12.4264 79.9844 12.3575 80.0188C12.3 80.0418 12.2541 80.082 12.2196 80.1394C12.1852 80.1854 12.1564 80.2601 12.1335 80.3635C12.1105 80.4668 12.099 80.5932 12.099 80.7425V85.016H17.0272V80.7598C17.0272 80.5645 17.01 80.4094 16.9755 80.2945C16.941 80.1797 16.8894 80.0992 16.8204 80.0533C16.7515 80.0073 16.6883 79.9844 16.6309 79.9844C16.5849 79.9729 16.5103 79.9671 16.4069 79.9671H17.0272H18.2506H18.871C18.7676 79.9671 18.6872 79.9729 18.6297 79.9844C18.5838 79.9844 18.5263 80.0073 18.4574 80.0533C18.3885 80.0992 18.3368 80.1797 18.3023 80.2945C18.2794 80.4094 18.2621 80.5587 18.2506 80.7425V91.2537Z" fill="#665F5F"/>
<path d="M26.1505 91.6156C26.3572 91.6156 26.5927 91.4778 26.857 91.202C27.1327 90.9263 27.305 90.6506 27.3739 90.3749L26.9603 92.0292H19.9644C20.0678 92.0292 20.1424 92.0234 20.1884 92.0119C20.2458 92.0004 20.309 91.9717 20.3779 91.9258C20.4468 91.8798 20.4985 91.7994 20.533 91.6845C20.5675 91.5697 20.5847 91.4203 20.5847 91.2365V80.7598C20.5847 80.5645 20.5675 80.4094 20.533 80.2945C20.4985 80.1797 20.4468 80.0992 20.3779 80.0533C20.309 80.0073 20.2458 79.9844 20.1884 79.9844C20.1424 79.9729 20.0678 79.9671 19.9644 79.9671H22.4285C22.4285 79.9671 22.417 79.9671 22.394 79.9671C22.3825 79.9671 22.3768 79.9671 22.3768 79.9671H26.564L26.9603 81.6041C26.9144 81.4318 26.8167 81.248 26.6674 81.0527C26.5296 80.8574 26.3687 80.6966 26.1849 80.5702C26.0126 80.4439 25.8633 80.3807 25.7369 80.3807H21.8426C21.8311 80.4726 21.8254 80.5932 21.8254 80.7425V85.016H25.151C25.3463 85.016 25.4957 85.0045 25.5991 84.9815C25.7139 84.947 25.7943 84.8953 25.8403 84.8264C25.8862 84.746 25.915 84.6828 25.9265 84.6369C25.9379 84.5794 25.9437 84.499 25.9437 84.3956V86.0498C25.9437 85.9465 25.9379 85.8718 25.9265 85.8258C25.915 85.7684 25.8862 85.7052 25.8403 85.6363C25.7943 85.5559 25.7139 85.5042 25.5991 85.4812C25.4842 85.4467 25.3348 85.4295 25.151 85.4295H21.8254V91.2537C21.8254 91.4031 21.8311 91.5237 21.8426 91.6156H26.1505Z" fill="#665F5F"/>
<path d="M36.4096 91.6673C36.4211 91.6673 36.4384 91.6903 36.4613 91.7362C36.4958 91.7707 36.5188 91.7937 36.5303 91.8052C36.5418 91.8166 36.559 91.8396 36.582 91.8741C36.6164 91.9085 36.6451 91.9315 36.6681 91.943C36.6911 91.9545 36.7198 91.9717 36.7543 91.9947C36.8002 92.0062 36.8404 92.0177 36.8749 92.0292C36.9208 92.0292 36.9725 92.0292 37.03 92.0292H35.169H35.1518H34.5486C34.721 92.0292 34.8416 92.0062 34.9105 91.9602C35.0139 91.9028 35.0311 91.8281 34.9622 91.7362L30.6543 85.4295H30.2236V91.2365C30.2236 91.4318 30.2408 91.5869 30.2752 91.7018C30.3097 91.8166 30.3614 91.8971 30.4303 91.943C30.4993 91.9775 30.5567 92.0004 30.6026 92.0119C30.6601 92.0234 30.7405 92.0292 30.8439 92.0292H28.3798C28.4832 92.0292 28.5578 92.0234 28.6038 92.0119C28.6612 92.0004 28.7244 91.9775 28.7933 91.943C28.8623 91.8971 28.914 91.8166 28.9484 91.7018C28.9829 91.5869 29.0001 91.4318 29.0001 91.2365V80.7598C29.0001 80.5645 28.9829 80.4094 28.9484 80.2945C28.914 80.1797 28.8623 80.0992 28.7933 80.0533C28.7244 80.0073 28.6612 79.9844 28.6038 79.9844C28.5578 79.9729 28.4832 79.9671 28.3798 79.9671H30.2236H30.2408H30.8439C30.7864 79.9671 30.7405 79.9671 30.706 79.9671H31.4814C32.2626 79.9671 32.9691 80.0418 33.6009 80.1911C33.8192 80.2371 34.0374 80.3003 34.2557 80.3807C34.8186 80.576 35.2781 80.8344 35.6342 81.1561C36.0018 81.4663 36.2373 81.8052 36.3407 82.1728C36.4441 82.5289 36.4441 82.885 36.3407 83.2411C36.2373 83.5972 36.0018 83.9361 35.6342 84.2578C35.2781 84.5679 34.8186 84.8207 34.2557 85.016C34.0374 85.0964 33.8134 85.1595 33.5837 85.2055C33.5722 85.217 33.5607 85.2227 33.5492 85.2227C33.1127 85.3261 32.6417 85.3893 32.1362 85.4123L36.4096 91.6673ZM31.4814 85.016C31.6193 85.016 31.7457 85.016 31.8605 85.016C32.9174 84.9585 33.733 84.7058 34.3074 84.2578C34.8933 83.8097 35.1862 83.2928 35.1862 82.7069C35.1862 82.4657 35.1403 82.2359 35.0484 82.0177C34.9565 81.7879 34.8071 81.5754 34.6003 81.3801C34.3936 81.1848 34.1466 81.0125 33.8594 80.8632C33.5722 80.7138 33.2218 80.599 32.8083 80.5185C32.4062 80.4266 31.9639 80.3807 31.4814 80.3807H30.258C30.235 80.4841 30.2236 80.6104 30.2236 80.7598V85.016H31.4814Z" fill="#665F5F"/>
<path d="M45.8836 91.6673C45.8951 91.6673 45.9123 91.6903 45.9353 91.7362C45.9697 91.7707 45.9927 91.7937 46.0042 91.8052C46.0157 91.8166 46.0329 91.8396 46.0559 91.8741C46.0904 91.9085 46.1191 91.9315 46.1421 91.943C46.165 91.9545 46.1938 91.9717 46.2282 91.9947C46.2742 92.0062 46.3144 92.0177 46.3488 92.0292C46.3948 92.0292 46.4465 92.0292 46.5039 92.0292H44.6429H44.6257H44.0226C44.1949 92.0292 44.3155 92.0062 44.3845 91.9602C44.4878 91.9028 44.5051 91.8281 44.4361 91.7362L40.1283 85.4295H39.6975V91.2365C39.6975 91.4318 39.7147 91.5869 39.7492 91.7018C39.7836 91.8166 39.8353 91.8971 39.9043 91.943C39.9732 91.9775 40.0306 92.0004 40.0766 92.0119C40.134 92.0234 40.2144 92.0292 40.3178 92.0292H37.8537C37.9571 92.0292 38.0318 92.0234 38.0777 92.0119C38.1352 92.0004 38.1984 91.9775 38.2673 91.943C38.3362 91.8971 38.3879 91.8166 38.4224 91.7018C38.4568 91.5869 38.4741 91.4318 38.4741 91.2365V80.7598C38.4741 80.5645 38.4568 80.4094 38.4224 80.2945C38.3879 80.1797 38.3362 80.0992 38.2673 80.0533C38.1984 80.0073 38.1352 79.9844 38.0777 79.9844C38.0318 79.9729 37.9571 79.9671 37.8537 79.9671H39.6975H39.7147H40.3178C40.2604 79.9671 40.2144 79.9671 40.18 79.9671H40.9554C41.7365 79.9671 42.443 80.0418 43.0749 80.1911C43.2931 80.2371 43.5114 80.3003 43.7297 80.3807C44.2926 80.576 44.7521 80.8344 45.1082 81.1561C45.4758 81.4663 45.7113 81.8052 45.8147 82.1728C45.9181 82.5289 45.9181 82.885 45.8147 83.2411C45.7113 83.5972 45.4758 83.9361 45.1082 84.2578C44.7521 84.5679 44.2926 84.8207 43.7297 85.016C43.5114 85.0964 43.2874 85.1595 43.0576 85.2055C43.0461 85.217 43.0347 85.2227 43.0232 85.2227C42.5866 85.3261 42.1156 85.3893 41.6102 85.4123L45.8836 91.6673ZM40.9554 85.016C41.0932 85.016 41.2196 85.016 41.3345 85.016C42.3913 84.9585 43.207 84.7058 43.7813 84.2578C44.3672 83.8097 44.6602 83.2928 44.6602 82.7069C44.6602 82.4657 44.6142 82.2359 44.5223 82.0177C44.4304 81.7879 44.2811 81.5754 44.0743 81.3801C43.8675 81.1848 43.6205 81.0125 43.3333 80.8632C43.0461 80.7138 42.6958 80.599 42.2822 80.5185C41.8801 80.4266 41.4379 80.3807 40.9554 80.3807H39.732C39.709 80.4841 39.6975 80.6104 39.6975 80.7598V85.016H40.9554Z" fill="#665F5F"/>
<path d="M52.3681 79.9154H53.8501C53.6892 79.9154 53.5743 79.9327 53.5054 79.9671C53.4939 79.9671 53.4824 79.9729 53.471 79.9844C53.471 79.9844 53.4595 79.9901 53.4365 80.0016C53.4365 80.0131 53.4308 80.0188 53.4193 80.0188C53.4078 80.0303 53.3963 80.0475 53.3848 80.0705C53.3733 80.0705 53.3676 80.0763 53.3676 80.0878C53.3561 80.1107 53.3446 80.1337 53.3331 80.1567C53.3216 80.1682 53.3159 80.1739 53.3159 80.1739L50.7656 85.3261V91.2537C50.7656 91.4375 50.7771 91.5869 50.8001 91.7018C50.8345 91.8166 50.8862 91.8971 50.9552 91.943C51.0241 91.9775 51.0815 92.0004 51.1275 92.0119C51.1849 92.0234 51.2653 92.0292 51.3687 92.0292H50.7656H49.5939H48.9046C49.008 92.0292 49.0827 92.0234 49.1286 92.0119C49.1861 92.0004 49.2492 91.9775 49.3182 91.943C49.3871 91.8971 49.4388 91.8166 49.4733 91.7018C49.5077 91.5869 49.525 91.4318 49.525 91.2365V91.2537V85.4123L46.9747 80.6909L46.8196 80.3635C46.5554 80.0763 46.228 79.9269 45.8374 79.9154H48.5772C48.336 79.9154 48.1752 79.9671 48.0947 80.0705C48.0718 80.105 48.066 80.1452 48.0775 80.1911V80.2084L49.525 82.8792L50.5761 84.8436L50.7656 84.4645L52.8851 80.1394C52.8162 79.9901 52.6438 79.9154 52.3681 79.9154Z" fill="#665F5F"/>
<path d="M71.8694 85.4295C72.4898 85.6363 73.0182 85.9062 73.4547 86.2394C73.8913 86.5725 74.2072 86.9344 74.4025 87.325C74.6092 87.7041 74.7126 88.1061 74.7126 88.5312C74.7126 88.9562 74.6092 89.364 74.4025 89.7546C74.1957 90.1337 73.8683 90.4898 73.4203 90.823C72.9723 91.1561 72.4381 91.4261 71.8177 91.6328C71.5765 91.7018 71.3295 91.7649 71.0768 91.8224C70.4335 91.9602 69.7327 92.0292 68.9746 92.0292H68.1992C68.2336 92.0292 68.2796 92.0292 68.337 92.0292H67.7339H66.4932H65.8729C65.9763 92.0292 66.051 92.0234 66.0969 92.0119C66.1544 92.0004 66.2175 91.9717 66.2865 91.9258C66.3554 91.8798 66.4071 91.7994 66.4415 91.6845C66.476 91.5697 66.4932 91.4203 66.4932 91.2365V80.7598C66.4932 80.5645 66.476 80.4094 66.4415 80.2945C66.4071 80.1797 66.3554 80.0992 66.2865 80.0533C66.2175 80.0073 66.1544 79.9844 66.0969 79.9844C66.051 79.9729 65.9763 79.9671 65.8729 79.9671H67.7339H68.337C68.2796 79.9671 68.2336 79.9671 68.1992 79.9671H68.9746C69.7557 79.9671 70.4622 80.0418 71.094 80.1911C71.3123 80.2371 71.5306 80.3003 71.7488 80.3807C72.4496 80.6219 72.9895 80.9608 73.3686 81.3973C73.7477 81.8224 73.9372 82.2589 73.9372 82.7069C73.9372 83.1435 73.7477 83.58 73.3686 84.0165C72.9895 84.4416 72.4496 84.7747 71.7488 85.016C71.5306 85.0964 71.3066 85.1595 71.0768 85.2055C71.0653 85.217 71.0538 85.2227 71.0423 85.2227C71.0653 85.2227 71.0768 85.2227 71.0768 85.2227C71.3525 85.2802 71.6167 85.3491 71.8694 85.4295ZM67.7511 80.3807C67.7396 80.4841 67.7339 80.6104 67.7339 80.7598V85.016H68.9746C69.503 85.016 69.9912 84.9643 70.4392 84.8609C70.8873 84.7575 71.2549 84.6196 71.5421 84.4473C71.8292 84.2635 72.0705 84.0567 72.2658 83.827C72.4725 83.5857 72.5989 83.3388 72.6449 83.086C72.6908 82.8333 72.6908 82.5806 72.6449 82.3278C72.5989 82.0636 72.4725 81.8166 72.2658 81.5869C72.0705 81.3456 71.8292 81.1389 71.5421 80.9666C71.2549 80.7828 70.8873 80.6392 70.4392 80.5358C69.9912 80.4324 69.503 80.3807 68.9746 80.3807H67.7511ZM68.9746 91.6156C69.7098 91.6156 70.3703 91.5294 70.9562 91.3571C71.542 91.1733 72.013 90.9378 72.3692 90.6506C72.7368 90.3635 73.0182 90.0361 73.2135 89.6684C73.4203 89.2894 73.5237 88.9103 73.5237 88.5312C73.5237 88.1406 73.4203 87.7615 73.2135 87.3939C73.0182 87.0148 72.7368 86.6817 72.3692 86.3945C72.013 86.1073 71.542 85.8775 70.9562 85.7052C70.3703 85.5214 69.7098 85.4295 68.9746 85.4295H67.7339V91.2365C67.7339 91.3859 67.7396 91.5122 67.7511 91.6156H68.9746Z" fill="#665F5F"/>
<path d="M74.9937 92.2187H75.011C75.011 92.2187 75.0052 92.2187 74.9937 92.2187ZM85.2981 93.8557C85.7577 93.8902 86.2631 93.8327 86.8145 93.6834C87.3659 93.534 87.8197 93.3732 88.1758 93.2009C88.5434 93.0286 89.0316 92.7816 89.6405 92.4599C89.4682 92.5633 89.2671 92.6954 89.0374 92.8563C88.8191 93.0286 88.6123 93.1894 88.417 93.3388C88.2332 93.4881 88.0207 93.6489 87.7795 93.8212C87.5497 93.9935 87.3257 94.1429 87.1075 94.2693C86.9007 94.4071 86.6594 94.5335 86.3837 94.6483C86.108 94.7632 85.8323 94.8494 85.5566 94.9068C85.2924 94.9643 84.988 94.993 84.6434 94.993C84.3102 94.993 83.9656 94.9528 83.6095 94.8724C82.9317 94.723 82.0184 94.3382 80.8697 93.7178C79.7324 93.109 78.8536 92.7242 78.2332 92.5633C77.4636 92.368 76.3895 92.2532 75.011 92.2187C75.2637 92.0579 75.6887 91.9602 76.2861 91.9258C76.4125 91.8224 76.4756 91.5984 76.4756 91.2537V80.7598C76.4756 80.576 76.4584 80.4266 76.4239 80.3118C76.3895 80.1969 76.3378 80.1165 76.2689 80.0705C76.1999 80.0246 76.1367 79.9958 76.0793 79.9844C76.0334 79.9729 75.9587 79.9671 75.8553 79.9671H78.3194C78.216 79.9671 78.1356 79.9729 78.0782 79.9844C78.0322 79.9958 77.9748 80.0246 77.9059 80.0705C77.8369 80.105 77.7852 80.1797 77.7508 80.2945C77.7278 80.4094 77.7163 80.5587 77.7163 80.7425V91.271C77.7163 91.4088 77.722 91.5294 77.7335 91.6328C77.7335 91.7822 77.7508 91.8971 77.7852 91.9775C77.9805 92.0004 78.1528 92.0234 78.3022 92.0464C78.6813 92.0923 79.0891 92.1728 79.5256 92.2876C79.9736 92.4025 80.3585 92.5116 80.6801 92.615C81.0018 92.7184 81.3981 92.8505 81.8691 93.0114C82.3516 93.1837 82.7364 93.3158 83.0236 93.4077C83.8277 93.6489 84.5859 93.7983 85.2981 93.8557ZM87.0902 91.2882C86.2976 91.8281 85.436 92.0981 84.5055 92.0981C83.575 92.0981 82.7134 91.8281 81.9208 91.2882C81.1281 90.7368 80.5021 89.9958 80.0425 89.0653C79.583 88.1234 79.3533 87.101 79.3533 85.9981C79.3533 84.8953 79.583 83.8787 80.0425 82.9482C80.5021 82.0062 81.1281 81.2652 81.9208 80.7253C82.7134 80.1739 83.575 79.8982 84.5055 79.8982C85.436 79.8982 86.2976 80.1739 87.0902 80.7253C87.8829 81.2652 88.5032 82.0062 88.9512 82.9482C89.4107 83.8787 89.6405 84.8953 89.6405 85.9981C89.6405 87.101 89.4107 88.1234 88.9512 89.0653C88.5032 89.9958 87.8829 90.7368 87.0902 91.2882ZM84.9191 80.7942C84.2068 80.4956 83.5118 80.4496 82.834 80.6564C82.1563 80.8632 81.6049 81.3054 81.1798 81.9832C80.7548 82.6495 80.5078 83.4249 80.4389 84.3095C80.3699 85.194 80.4791 86.1475 80.7663 87.1699C81.0764 88.1348 81.5245 88.9792 82.1103 89.7029C82.6962 90.4151 83.351 90.9206 84.0747 91.2193C84.7984 91.518 85.4992 91.5639 86.1769 91.3571C86.8547 91.1389 87.4061 90.6966 87.8312 90.0303C88.2562 89.364 88.4975 88.5886 88.5549 87.7041C88.6238 86.808 88.5147 85.8545 88.2275 84.8436C87.9288 83.8672 87.4808 83.0228 86.8834 82.3106C86.2976 81.5869 85.6428 81.0814 84.9191 80.7942Z" fill="#665F5F"/>
<path d="M99.0481 82.4485C99.0481 82.5289 99.0423 82.6035 99.0308 82.6725C99.0308 82.6495 99.0308 82.615 99.0308 82.5691C99.0423 82.5116 99.0481 82.4714 99.0481 82.4485ZM98.9274 87.325C99.5133 88.0602 99.7143 88.8356 99.5305 89.6512C99.3582 90.4554 98.8585 91.0872 98.0314 91.5467C97.6293 91.7764 97.0779 91.9258 96.3772 91.9947C95.6879 92.0521 94.9872 92.0464 94.2749 91.9775C93.5742 91.8971 92.9194 91.7707 92.3105 91.5984L90.708 91.1331V89.2032C90.708 89.4904 90.7999 89.8063 90.9837 90.1509C91.1675 90.4841 91.3628 90.7138 91.5696 90.8402C91.6041 90.8517 91.7362 90.9149 91.9659 91.0297C92.1957 91.1331 92.345 91.1963 92.4139 91.2193C93.0458 91.3801 93.6948 91.4778 94.3611 91.5122C95.0389 91.5467 95.6764 91.518 96.2738 91.4261C96.8711 91.3227 97.3651 91.1101 97.7557 90.7885C98.1578 90.4668 98.3703 90.0533 98.3933 89.5478C98.4047 89.2032 98.3358 88.8758 98.1865 88.5656C98.0371 88.244 97.8476 87.974 97.6178 87.7558C97.3996 87.526 97.1066 87.2962 96.739 87.0665C96.3829 86.8367 96.0613 86.6529 95.7741 86.5151C95.4869 86.3658 95.1308 86.1934 94.7057 85.9981C94.2922 85.8029 93.9763 85.6478 93.758 85.5329C93.3444 85.3146 93.0285 85.1423 92.8103 85.016C92.6035 84.8896 92.345 84.6943 92.0348 84.4301C91.7247 84.1659 91.4892 83.8959 91.3284 83.6202C91.0067 83.0228 90.9607 82.4083 91.1905 81.7764C91.4203 81.1446 91.8338 80.6794 92.4312 80.3807C93.0515 80.0705 93.8671 79.9269 94.878 79.9499C96.2795 79.9958 97.6695 80.2658 99.0481 80.7598C99.0481 81.1389 99.0481 81.7018 99.0481 82.4485C99.0251 82.2647 98.9734 82.0866 98.893 81.9143C98.8126 81.7305 98.7034 81.5697 98.5656 81.4318C98.4392 81.2825 98.2956 81.1561 98.1348 81.0527C97.7212 80.777 97.1066 80.576 96.291 80.4496C96.0957 80.4266 95.9062 80.4037 95.7224 80.3807C95.5386 80.3577 95.2916 80.3347 94.9814 80.3118C94.6827 80.2888 94.407 80.283 94.1543 80.2945C93.9016 80.306 93.6374 80.3405 93.3617 80.3979C93.0975 80.4439 92.8734 80.5185 92.6896 80.6219C92.5173 80.7253 92.3795 80.8689 92.2761 81.0527C92.1842 81.2365 92.1555 81.4548 92.1899 81.7075C92.2244 81.9373 92.3278 82.1957 92.5001 82.4829C92.7758 82.9309 93.1262 83.3388 93.5512 83.7064C93.9877 84.074 94.4415 84.3899 94.9125 84.6541C95.3835 84.9068 95.8545 85.1595 96.3255 85.4123C96.7965 85.6535 97.2675 85.9407 97.7385 86.2738C98.2095 86.5955 98.6058 86.9459 98.9274 87.325Z" fill="#665F5F"/>
<path d="M109.077 82.4485C109.077 82.5289 109.072 82.6035 109.06 82.6725C109.06 82.6495 109.06 82.615 109.06 82.5691C109.072 82.5116 109.077 82.4714 109.077 82.4485ZM108.957 87.325C109.543 88.0602 109.744 88.8356 109.56 89.6512C109.387 90.4554 108.888 91.0872 108.061 91.5467C107.659 91.7764 107.107 91.9258 106.406 91.9947C105.717 92.0521 105.016 92.0464 104.304 91.9775C103.603 91.8971 102.949 91.7707 102.34 91.5984L100.737 91.1331V89.2032C100.737 89.4904 100.829 89.8063 101.013 90.1509C101.197 90.4841 101.392 90.7138 101.599 90.8402C101.633 90.8517 101.765 90.9149 101.995 91.0297C102.225 91.1331 102.374 91.1963 102.443 91.2193C103.075 91.3801 103.724 91.4778 104.39 91.5122C105.068 91.5467 105.706 91.518 106.303 91.4261C106.9 91.3227 107.394 91.1101 107.785 90.7885C108.187 90.4668 108.4 90.0533 108.423 89.5478C108.434 89.2032 108.365 88.8758 108.216 88.5656C108.066 88.244 107.877 87.974 107.647 87.7558C107.429 87.526 107.136 87.2962 106.768 87.0665C106.412 86.8367 106.091 86.6529 105.803 86.5151C105.516 86.3658 105.16 86.1934 104.735 85.9981C104.321 85.8029 104.006 85.6478 103.787 85.5329C103.374 85.3146 103.058 85.1423 102.84 85.016C102.633 84.8896 102.374 84.6943 102.064 84.4301C101.754 84.1659 101.518 83.8959 101.358 83.6202C101.036 83.0228 100.99 82.4083 101.22 81.7764C101.45 81.1446 101.863 80.6794 102.46 80.3807C103.081 80.0705 103.896 79.9269 104.907 79.9499C106.309 79.9958 107.699 80.2658 109.077 80.7598C109.077 81.1389 109.077 81.7018 109.077 82.4485C109.054 82.2647 109.003 82.0866 108.922 81.9143C108.842 81.7305 108.733 81.5697 108.595 81.4318C108.468 81.2825 108.325 81.1561 108.164 81.0527C107.75 80.777 107.136 80.576 106.32 80.4496C106.125 80.4266 105.935 80.4037 105.752 80.3807C105.568 80.3577 105.321 80.3347 105.011 80.3118C104.712 80.2888 104.436 80.283 104.184 80.2945C103.931 80.306 103.667 80.3405 103.391 80.3979C103.127 80.4439 102.903 80.5185 102.719 80.6219C102.547 80.7253 102.409 80.8689 102.305 81.0527C102.213 81.2365 102.185 81.4548 102.219 81.7075C102.254 81.9373 102.357 82.1957 102.529 82.4829C102.805 82.9309 103.155 83.3388 103.58 83.7064C104.017 84.074 104.471 84.3899 104.942 84.6541C105.413 84.9068 105.884 85.1595 106.355 85.4123C106.826 85.6535 107.297 85.9407 107.768 86.2738C108.239 86.5955 108.635 86.9459 108.957 87.325Z" fill="#665F5F"/>
<path d="M113.368 80.7081C114.161 80.1682 115.023 79.8982 115.953 79.8982C116.895 79.8982 117.757 80.1682 118.538 80.7081C119.331 81.248 119.957 81.989 120.416 82.9309C120.876 83.8614 121.105 84.8838 121.105 85.9981C121.105 87.101 120.876 88.1234 120.416 89.0653C119.957 89.9958 119.331 90.7311 118.538 91.271C117.757 91.8109 116.895 92.0809 115.953 92.0809C115.023 92.0809 114.161 91.8109 113.368 91.271C112.587 90.7311 111.967 89.9958 111.507 89.0653C111.048 88.1234 110.818 87.101 110.818 85.9981C110.818 84.8838 111.048 83.8614 111.507 82.9309C111.967 81.989 112.587 81.248 113.368 80.7081ZM117.642 91.3399C118.308 91.1331 118.854 90.6966 119.279 90.0303C119.715 89.3525 119.962 88.5714 120.02 87.6868C120.089 86.7908 119.98 85.8373 119.692 84.8264C119.233 83.3445 118.475 82.1957 117.418 81.3801C116.361 80.5645 115.321 80.3175 114.299 80.6392C113.621 80.8574 113.064 81.2997 112.628 81.966C112.202 82.6323 111.955 83.4134 111.887 84.3095C111.829 85.194 111.944 86.1417 112.231 87.1527C112.691 88.6346 113.449 89.7833 114.506 90.5989C115.563 91.4146 116.608 91.6616 117.642 91.3399Z" fill="#665F5F"/>
<path d="M132.822 91.2365C132.822 91.4318 132.834 91.5869 132.857 91.7018C132.891 91.8166 132.943 91.8971 133.012 91.943C133.092 91.9775 133.155 92.0004 133.201 92.0119C133.259 92.0234 133.339 92.0292 133.443 92.0292H130.961C131.042 92.0292 131.105 92.0292 131.151 92.0292C131.197 92.0177 131.248 92.0004 131.306 91.9775C131.375 91.9545 131.427 91.92 131.461 91.8741C131.495 91.8166 131.524 91.7362 131.547 91.6328C131.57 91.5294 131.582 91.3973 131.582 91.2365V81.3284L128.084 90.9436V90.9608L127.739 91.8741L127.687 92.0292H127.153L127.136 91.9775L127.05 91.7362L126.877 91.271L123.345 81.5524V91.2365C123.345 91.4203 123.356 91.5697 123.379 91.6845C123.414 91.7994 123.466 91.8798 123.535 91.9258C123.603 91.9717 123.661 92.0004 123.707 92.0119C123.764 92.0234 123.845 92.0292 123.948 92.0292H122.311C122.414 92.0292 122.489 92.0234 122.535 92.0119C122.593 92.0004 122.656 91.9717 122.725 91.9258C122.794 91.8798 122.845 91.7994 122.88 91.6845C122.914 91.5697 122.931 91.4203 122.931 91.2365V80.4151L122.88 80.2773C122.822 80.1739 122.69 80.0992 122.483 80.0533C122.288 79.9958 122.11 79.9671 121.949 79.9671H124.689C124.448 79.9671 124.287 80.0188 124.207 80.1222C124.172 80.1567 124.166 80.2026 124.189 80.2601L127.86 90.3577L131.53 80.2773C131.495 80.1739 131.444 80.0992 131.375 80.0533C131.306 80.0073 131.243 79.9844 131.185 79.9844C131.139 79.9729 131.065 79.9671 130.961 79.9671H133.443C133.339 79.9671 133.259 79.9729 133.201 79.9844C133.155 79.9844 133.092 80.0073 133.012 80.0533C132.943 80.0992 132.891 80.1797 132.857 80.2945C132.834 80.4094 132.822 80.5587 132.822 80.7425V91.2365Z" fill="#665F5F"/>
</g>
<path id="Ellipse 3" d="M109.523 74.8504H128.696C126.771 64.5833 122.189 55.2295 115.674 47.5017M49.1031 74.8504L8.22443 74.8714C13.4591 46.8889 38.4376 25.6851 68.4622 25.6851C77.6138 25.6851 86.2966 27.655 94.0945 31.1865C94.3037 31.2812 94.5123 31.3771 94.7203 31.4741M126.13 106.09C117.649 129.303 95.0312 145.907 68.4622 145.907C43.809 145.907 22.5578 131.611 12.8454 111.005" stroke="#665F5F" stroke-width="0.7" stroke-linecap="round" stroke-linejoin="round"/>
<g id="Florist in LOS angeles">
<path d="M7.42419 96.973H5.27026V98.6829H7.32478V99.1203H5.27026V101.175H4.80634V96.5356H7.42419V96.973Z" fill="#665F5F"/>
<path d="M11.067 100.737H13.1878V101.175H10.6031V96.5356H11.067V100.737Z" fill="#665F5F"/>
<path d="M19.7452 100.558C19.2813 101.022 18.7135 101.254 18.0419 101.254C17.3704 101.254 16.8026 101.022 16.3387 100.558C15.8748 100.09 15.6428 99.5224 15.6428 98.8552C15.6428 98.188 15.8748 97.6225 16.3387 97.1586C16.8026 96.6902 17.3704 96.4561 18.0419 96.4561C18.7135 96.4561 19.2813 96.6902 19.7452 97.1586C20.2091 97.6225 20.4411 98.188 20.4411 98.8552C20.4411 99.5224 20.2091 100.09 19.7452 100.558ZM16.6634 100.24C17.0346 100.616 17.4941 100.804 18.0419 100.804C18.5898 100.804 19.0493 100.616 19.4205 100.24C19.7916 99.8604 19.9772 99.3987 19.9772 98.8552C19.9772 98.3118 19.7916 97.8522 19.4205 97.4767C19.0493 97.0967 18.5898 96.9067 18.0419 96.9067C17.4941 96.9067 17.0346 97.0967 16.6634 97.4767C16.2923 97.8522 16.1067 98.3118 16.1067 98.8552C16.1067 99.3987 16.2923 99.8604 16.6634 100.24Z" fill="#665F5F"/>
<path d="M26.4702 101.175L25.3833 99.3191H24.0843V101.175H23.6204V96.5356H25.4761C25.8605 96.5356 26.1874 96.6726 26.4569 96.9465C26.7309 97.216 26.8678 97.543 26.8678 97.9274C26.8678 98.2411 26.7729 98.5216 26.5829 98.769C26.3973 99.0121 26.1587 99.1755 25.8671 99.2595L27.0004 101.175H26.4702ZM24.0843 96.973V98.8817H25.4761C25.7323 98.8817 25.951 98.7889 26.1322 98.6034C26.3133 98.4134 26.4039 98.188 26.4039 97.9274C26.4039 97.6623 26.3133 97.4369 26.1322 97.2514C25.951 97.0658 25.7323 96.973 25.4761 96.973H24.0843Z" fill="#665F5F"/>
<path d="M30.0514 96.5356H30.5153V101.175H30.0514V96.5356Z" fill="#665F5F"/>
<path d="M35.358 101.254C34.9339 101.254 34.5693 101.155 34.2645 100.956C33.964 100.753 33.7542 100.475 33.6349 100.121L34.0325 99.8891C34.1165 100.176 34.2711 100.402 34.4964 100.565C34.7218 100.724 35.0112 100.804 35.3646 100.804C35.7093 100.804 35.9766 100.729 36.1666 100.578C36.361 100.424 36.4582 100.22 36.4582 99.9686C36.4582 99.7256 36.3698 99.5423 36.1931 99.4185C36.0164 99.2948 35.7247 99.1667 35.3183 99.0341C34.8367 98.8751 34.5185 98.747 34.3639 98.6498C34.0104 98.4377 33.8337 98.1306 33.8337 97.7285C33.8337 97.3353 33.9707 97.026 34.2446 96.8007C34.5185 96.5709 34.8565 96.4561 35.2586 96.4561C35.6209 96.4561 35.9346 96.551 36.1997 96.741C36.4648 96.9266 36.6614 97.1652 36.7896 97.4568L36.3985 97.6755C36.1865 97.163 35.8065 96.9067 35.2586 96.9067C34.9714 96.9067 34.7395 96.9774 34.5627 97.1188C34.386 97.2602 34.2976 97.4568 34.2976 97.7086C34.2976 97.9384 34.3772 98.1107 34.5362 98.2256C34.6953 98.3405 34.9582 98.4576 35.3249 98.5769C35.4928 98.6343 35.6121 98.6763 35.6828 98.7028C35.7579 98.7249 35.8639 98.7646 36.0009 98.8221C36.1423 98.8751 36.2461 98.9237 36.3124 98.9679C36.3787 99.0076 36.4582 99.0651 36.551 99.1402C36.6482 99.2109 36.7167 99.2838 36.7564 99.3589C36.8006 99.4296 36.8382 99.518 36.8691 99.624C36.9044 99.7256 36.9221 99.8361 36.9221 99.9554C36.9221 100.349 36.7785 100.665 36.4913 100.903C36.2041 101.137 35.8264 101.254 35.358 101.254Z" fill="#665F5F"/>
<path d="M42.8523 96.5356V96.973H41.4273V101.175H40.9634V96.973H39.5385V96.5356H42.8523Z" fill="#665F5F"/>
<path d="M49.9439 96.5356H50.4079V101.175H49.9439V96.5356Z" fill="#665F5F"/>
<path d="M56.8396 96.5356H57.3036V101.175H56.9059L54.3212 97.3972V101.175H53.8573V96.5356H54.2549L56.8396 100.313V96.5356Z" fill="#665F5F"/>
<path d="M65.2545 100.737H67.3753V101.175H64.7905V96.5356H65.2545V100.737Z" fill="#665F5F"/>
<path d="M73.9327 100.558C73.4688 101.022 72.901 101.254 72.2294 101.254C71.5578 101.254 70.9901 101.022 70.5262 100.558C70.0622 100.09 69.8303 99.5224 69.8303 98.8552C69.8303 98.188 70.0622 97.6225 70.5262 97.1586C70.9901 96.6902 71.5578 96.4561 72.2294 96.4561C72.901 96.4561 73.4688 96.6902 73.9327 97.1586C74.3966 97.6225 74.6286 98.188 74.6286 98.8552C74.6286 99.5224 74.3966 100.09 73.9327 100.558ZM70.8509 100.24C71.2221 100.616 71.6816 100.804 72.2294 100.804C72.7773 100.804 73.2368 100.616 73.6079 100.24C73.9791 99.8604 74.1647 99.3987 74.1647 98.8552C74.1647 98.3118 73.9791 97.8522 73.6079 97.4767C73.2368 97.0967 72.7773 96.9067 72.2294 96.9067C71.6816 96.9067 71.2221 97.0967 70.8509 97.4767C70.4798 97.8522 70.2942 98.3118 70.2942 98.8552C70.2942 99.3987 70.4798 99.8604 70.8509 100.24Z" fill="#665F5F"/>
<path d="M79.0976 101.254C78.6735 101.254 78.309 101.155 78.0041 100.956C77.7037 100.753 77.4938 100.475 77.3745 100.121L77.7721 99.8891C77.8561 100.176 78.0107 100.402 78.2361 100.565C78.4614 100.724 78.7508 100.804 79.1043 100.804C79.4489 100.804 79.7162 100.729 79.9062 100.578C80.1006 100.424 80.1978 100.22 80.1978 99.9686C80.1978 99.7256 80.1094 99.5423 79.9327 99.4185C79.756 99.2948 79.4644 99.1667 79.0579 99.0341C78.5763 98.8751 78.2581 98.747 78.1035 98.6498C77.75 98.4377 77.5733 98.1306 77.5733 97.7285C77.5733 97.3353 77.7103 97.026 77.9842 96.8007C78.2581 96.5709 78.5962 96.4561 78.9982 96.4561C79.3605 96.4561 79.6742 96.551 79.9393 96.741C80.2044 96.9266 80.401 97.1652 80.5292 97.4568L80.1381 97.6755C79.9261 97.163 79.5461 96.9067 78.9982 96.9067C78.711 96.9067 78.4791 96.9774 78.3023 97.1188C78.1256 97.2602 78.0372 97.4568 78.0372 97.7086C78.0372 97.9384 78.1168 98.1107 78.2758 98.2256C78.4349 98.3405 78.6978 98.4576 79.0645 98.5769C79.2324 98.6343 79.3517 98.6763 79.4224 98.7028C79.4975 98.7249 79.6035 98.7646 79.7405 98.8221C79.8819 98.8751 79.9857 98.9237 80.052 98.9679C80.1183 99.0076 80.1978 99.0651 80.2906 99.1402C80.3878 99.2109 80.4563 99.2838 80.496 99.3589C80.5402 99.4296 80.5778 99.518 80.6087 99.624C80.6441 99.7256 80.6617 99.8361 80.6617 99.9554C80.6617 100.349 80.5181 100.665 80.2309 100.903C79.9437 101.137 79.566 101.254 79.0976 101.254Z" fill="#665F5F"/>
<path d="M90.9752 101.175L90.5444 100.035H88.3441L87.9133 101.175H87.4229L89.2057 96.5356H89.6829L91.4657 101.175H90.9752ZM88.5098 99.5975H90.3788L89.4443 97.1122L88.5098 99.5975Z" fill="#665F5F"/>
<path d="M97.4296 96.5356H97.8935V101.175H97.4959L94.9112 97.3972V101.175H94.4473V96.5356H94.8449L97.4296 100.313V96.5356Z" fill="#665F5F"/>
<path d="M105.772 98.9679V99.2065C105.772 99.7808 105.566 100.267 105.155 100.665C104.744 101.058 104.194 101.254 103.505 101.254C102.802 101.254 102.221 101.022 101.762 100.558C101.302 100.095 101.073 99.5268 101.073 98.8552C101.073 98.1836 101.302 97.6159 101.762 97.1519C102.221 96.688 102.802 96.4561 103.505 96.4561C103.934 96.4561 104.327 96.5599 104.685 96.7675C105.043 96.9752 105.319 97.2514 105.513 97.596L105.102 97.8346C104.956 97.5518 104.74 97.3265 104.453 97.1586C104.165 96.9907 103.85 96.9067 103.505 96.9067C102.926 96.9067 102.453 97.0945 102.087 97.4701C101.72 97.8456 101.537 98.3073 101.537 98.8552C101.537 99.4031 101.72 99.8648 102.087 100.24C102.453 100.616 102.926 100.804 103.505 100.804C104.026 100.804 104.444 100.673 104.758 100.413C105.071 100.148 105.25 99.8118 105.294 99.4053H103.452V98.9679H105.772Z" fill="#665F5F"/>
<path d="M109.417 100.737H111.67V101.175H108.953V96.5356H111.637V96.973H109.417V98.6166H111.472V99.054H109.417V100.737Z" fill="#665F5F"/>
<path d="M115.317 100.737H117.438V101.175H114.853V96.5356H115.317V100.737Z" fill="#665F5F"/>
<path d="M120.952 100.737H123.206V101.175H120.488V96.5356H123.173V96.973H120.952V98.6166H123.007V99.054H120.952V100.737Z" fill="#665F5F"/>
<path d="M127.847 101.254C127.423 101.254 127.058 101.155 126.753 100.956C126.453 100.753 126.243 100.475 126.124 100.121L126.521 99.8891C126.605 100.176 126.76 100.402 126.985 100.565C127.21 100.724 127.5 100.804 127.853 100.804C128.198 100.804 128.465 100.729 128.655 100.578C128.85 100.424 128.947 100.22 128.947 99.9686C128.947 99.7256 128.858 99.5423 128.682 99.4185C128.505 99.2948 128.213 99.1667 127.807 99.0341C127.325 98.8751 127.007 98.747 126.853 98.6498C126.499 98.4377 126.322 98.1306 126.322 97.7285C126.322 97.3353 126.459 97.026 126.733 96.8007C127.007 96.5709 127.345 96.4561 127.747 96.4561C128.11 96.4561 128.423 96.551 128.688 96.741C128.953 96.9266 129.15 97.1652 129.278 97.4568L128.887 97.6755C128.675 97.163 128.295 96.9067 127.747 96.9067C127.46 96.9067 127.228 96.9774 127.051 97.1188C126.875 97.2602 126.786 97.4568 126.786 97.7086C126.786 97.9384 126.866 98.1107 127.025 98.2256C127.184 98.3405 127.447 98.4576 127.814 98.5769C127.981 98.6343 128.101 98.6763 128.171 98.7028C128.247 98.7249 128.353 98.7646 128.49 98.8221C128.631 98.8751 128.735 98.9237 128.801 98.9679C128.867 99.0076 128.947 99.0651 129.04 99.1402C129.137 99.2109 129.205 99.2838 129.245 99.3589C129.289 99.4296 129.327 99.518 129.358 99.624C129.393 99.7256 129.411 99.8361 129.411 99.9554C129.411 100.349 129.267 100.665 128.98 100.903C128.693 101.137 128.315 101.254 127.847 101.254Z" fill="#665F5F"/>
</g>
<g id="image 24 (Traced)">
<mask id="path-29-inside-1_378_29" fill="white">
<path fill-rule="evenodd" clip-rule="evenodd" d="M111.65 33.0944C111.507 33.2211 111.156 33.6284 110.871 33.9996C109.991 35.1469 108.154 37.3437 106.979 38.6547C106.362 39.3429 105.783 40.0259 105.691 40.1726C105.419 40.6063 104.956 40.2736 104.89 39.5972C104.808 38.7576 103.667 36.7137 103.28 36.7137C103.071 36.7137 103.039 36.997 103.165 37.7239C103.355 38.8211 103.244 41.0465 102.937 42.28C102.756 43.0057 102.616 43.1748 100.707 44.9709C99.2445 46.3473 98.629 46.8492 98.523 46.7516C98.4421 46.6769 98.2394 46.2051 98.0727 45.7033L97.7694 44.7908L98.5616 43.9571C100.189 42.2446 100.648 39.8369 99.7798 37.5667C99.3416 36.4208 99.1926 36.2023 98.5577 35.774C97.6463 35.1592 96.9275 35.0548 95.7833 35.3712C94.9972 35.5886 94.7651 35.7402 93.9885 36.5435C93.498 37.0512 93.0594 37.4333 93.0138 37.3929C92.9681 37.3526 92.9389 37.0343 92.9488 36.686L92.9668 36.0524L92.5529 36.3433C91.3572 37.1837 90.8653 39.5907 91.5325 41.3371C92.2091 43.1079 93.7484 44.6656 95.3086 45.1577C95.9686 45.366 95.998 45.3993 96.3157 46.2987C96.4957 46.8082 96.6595 47.5491 96.6798 47.9454L96.7168 48.6658L95.1234 49.9299C94.2471 50.625 93.4787 51.1968 93.4161 51.2005C93.3534 51.204 93.1877 50.9669 93.0479 50.6736C92.565 49.6609 91.3257 47.7174 91.1376 47.6782C90.8484 47.6177 90.6924 48.2758 90.9085 48.6449C91.0141 48.8253 91.1571 49.5839 91.2263 50.331C91.3521 51.6877 91.3536 51.6907 92.3565 52.6656L93.3606 53.6418L93.9897 53.254C94.3358 53.0408 95.0307 52.5081 95.5337 52.0701C96.6354 51.1114 97.0956 50.9683 99.0218 50.9854C99.832 50.9927 100.57 50.9325 100.661 50.8517C100.752 50.7709 100.64 50.4183 100.412 50.0683C99.539 48.7284 99.5081 48.8791 100.957 47.4092C102.064 46.2859 102.356 46.0614 102.864 45.9458C103.69 45.7577 104.88 46.0077 105.416 46.4817C105.968 46.9705 108.142 48.0054 108.646 48.0196C108.964 48.0284 108.974 47.935 108.713 47.37C108.545 47.0072 108.213 46.4839 107.975 46.2074L107.543 45.7046L108.397 44.9487C109.232 44.2094 109.824 43.2753 109.716 42.8688C109.631 42.5509 107.678 43.1987 106.786 43.8404C105.943 44.4463 105.317 44.5045 104.777 44.0265C104.534 43.812 104.644 43.6195 105.825 42.1794C107.348 40.3228 108.853 38.2686 110.485 35.8206C111.854 33.7662 112.44 32.395 111.65 33.0944ZM111.379 42.7224C110.387 42.5659 110.128 42.7223 109.818 43.6652C109.672 44.1088 109.291 44.7736 108.971 45.1428L108.388 45.814L108.942 47.1069C109.56 48.5476 109.628 48.5908 111.065 48.4569C112.281 48.3434 113.227 47.6341 113.622 46.54C113.781 46.098 113.843 45.5245 113.758 45.2656C113.617 44.8386 113.498 44.7604 112.469 44.4216C111.845 44.2164 111.335 43.9903 111.335 43.9196C111.335 43.8488 111.605 43.7293 111.936 43.6542C112.92 43.4299 112.614 42.9173 111.379 42.7224ZM75.0116 36.9492C73.4299 35.9786 72.1978 35.5268 70.4799 35.2874C69.1107 35.0966 67.7194 35.3133 66.2305 35.9494L65.0199 36.4666L64.2592 35.7932C63.2048 34.8598 60.9717 33.8698 59.2719 33.5824C56.9104 33.1828 54.19 33.8842 52.5936 35.3044C51.2333 36.5145 50.3297 38.4846 50.5302 39.8032C50.7594 41.3103 51.2219 42.0159 53.1345 43.7752C54.3277 44.873 55.0618 45.6686 55.365 46.1923C55.988 47.2683 56.611 47.8054 56.9193 47.5325C57.2227 47.2639 57.1961 44.9972 56.8837 44.4937C56.5027 43.8794 56.5343 43.5763 57.0056 43.3265C57.2409 43.2018 57.5338 43.1207 57.6561 43.1463C58.0343 43.2253 58.2647 43.7453 58.1145 44.1798C57.8519 44.9384 57.8818 48.3334 58.1531 48.5736C58.2975 48.7014 58.4497 48.7757 58.4913 48.7388C58.5331 48.7019 58.7977 47.8035 59.0794 46.7422C59.4065 45.5101 59.5284 44.5911 59.417 44.1997C59.2153 43.4918 59.5788 43.0446 60.3288 43.0777C60.9643 43.1058 61.1743 43.6504 60.7625 44.203C60.4075 44.6794 59.2704 48.6127 59.3467 49.0997C59.4538 49.7817 59.8599 49.417 60.5833 47.9895C60.9885 47.1896 61.5602 46.1495 61.8539 45.678C62.2106 45.105 62.3493 44.6582 62.2723 44.3307C62.1356 43.7499 62.4615 43.4026 63.1157 43.4314C63.4875 43.4478 63.6352 43.5443 63.8067 43.8825C63.9839 44.2315 63.9391 44.3888 63.5697 44.7158C63.1708 45.0689 61.3497 47.9539 60.8495 49.0252C60.6088 49.5403 60.997 49.5939 61.5183 49.1178C62.3708 48.3389 64.5795 45.5779 64.6142 45.2477C64.634 45.0599 64.8382 44.774 65.0681 44.6124C65.4184 44.366 65.5623 44.3744 65.9603 44.6646C66.3457 44.9457 66.401 45.0899 66.2556 45.4343C66.1388 45.7106 65.9084 45.9325 65.5931 46.0719C65.1397 46.2726 62.8936 48.638 62.4711 49.3599C62.28 49.6864 62.4156 49.8797 62.7819 49.8032C63.2689 49.7014 66.5698 47.2128 66.7343 46.8234C66.948 46.3176 67.6694 46.1333 68.0652 46.4837C68.6579 47.0084 68.3272 47.6686 67.3847 47.8423C67.1137 47.8924 66.2895 48.3548 65.5535 48.87C62.442 51.0478 62.4975 51.0022 62.7211 51.2001C62.9451 51.3984 63.4415 51.2214 66.1758 49.9688C67.2132 49.4937 67.9697 49.05 68.1189 48.8296C68.3515 48.4858 69.0803 48.3269 69.3461 48.5623C69.5022 48.7004 69.62 49.7518 69.492 49.8651C69.4315 49.9186 69.0472 49.9818 68.6378 50.0056C67.826 50.0524 63.2418 51.9829 63.0535 52.3572C62.8566 52.7485 63.1299 52.7674 64.2978 52.4433C64.928 52.2682 66.0973 52.0015 66.8961 51.8506C67.6948 51.6995 68.4716 51.4724 68.6222 51.346C68.9758 51.0492 69.662 50.9675 69.9155 51.1919C70.1923 51.4369 70.1215 52.142 69.7908 52.4347C69.621 52.5851 69.2473 52.6199 68.8219 52.5248C68.3894 52.4282 67.3762 52.5271 66.1233 52.7881C64.0677 53.2161 63.6114 53.4053 63.938 53.6944C64.1776 53.9065 67.879 53.8588 68.8211 53.6313C69.6303 53.436 69.9917 53.6421 69.9558 54.2784C69.9174 54.9624 69.3292 55.2315 68.691 54.8574C68.128 54.5275 65.4476 54.3899 65.1261 54.6745C64.8331 54.9338 65.4141 55.5395 66.3178 55.9167C66.9171 56.1667 67.8686 56.8339 69.4107 58.0851C71.7717 60.0008 72.1177 60.18 73.6888 60.2996C75.4324 60.4326 77.5751 59.7146 78.8787 58.5607C79.6019 57.9205 80.5357 56.4239 80.7874 55.5017C81.4507 53.0712 80.4978 50.1676 78.4386 48.3448C77.4928 47.5075 77.3578 47.1535 77.8261 46.7389C77.9805 46.6023 78.2577 46.0912 78.4425 45.6031C79.4051 43.0581 78.6741 40.3721 76.4221 38.1805C75.863 37.6362 75.2283 37.0821 75.0116 36.9492ZM96.2209 55.9059C95.3232 55.5423 94.4747 55.3922 94.1161 55.5335C93.926 55.6085 93.8446 55.9934 93.8769 56.6661C93.9306 57.78 93.7527 58.4314 93.136 59.3793C92.7496 59.973 92.7998 60.3351 93.3355 60.8197C93.5961 61.0555 94.1686 60.4263 94.2771 59.7845C94.4002 59.0579 94.9752 58.7318 95.4274 59.1321C95.8902 59.5417 95.7601 59.8952 94.8785 60.6232C94.2275 61.1607 94.0927 61.3558 94.1492 61.6797C94.2908 62.4926 94.8477 62.4818 96.0748 61.642C96.8136 61.1364 97.1031 61.1692 97.2457 61.7747C97.403 62.4436 97.1214 62.6443 95.9508 62.6968C94.7956 62.7487 94.6869 62.8163 94.8051 63.4094C94.9412 64.0938 95.1845 64.2029 96.4817 64.162C97.59 64.1271 97.6949 64.1576 97.8662 64.5628C98.1226 65.17 97.4153 65.6995 96.8626 65.3142C95.8487 64.6069 94.9869 64.5684 94.9869 65.2302C94.9869 65.6723 95.157 65.824 95.835 65.9877C96.5271 66.1547 97.9079 67.377 98.3696 68.2313C98.964 69.3312 99.0531 69.3577 99.6744 68.6188C100.788 67.2942 101.158 65.6668 100.699 64.1103C100.516 63.4878 100.212 63.0281 99.495 62.2859L98.5362 61.2936L98.6792 60.3597C98.9415 58.6486 97.7749 56.5352 96.2209 55.9059ZM90.7819 52.6293C88.8447 51.6277 86.7265 51.8651 85.1374 53.2618C83.3933 54.7948 82.887 56.9217 83.8303 58.7548C84.4825 60.0227 84.8686 60.3437 85.2911 59.9697C86.4457 58.9476 89.4886 58.5024 90.9051 59.1482C91.2863 59.322 91.6994 59.4682 91.8229 59.4727C92.229 59.4878 92.9425 57.8252 93.0106 56.7057C93.0469 56.1035 92.9596 55.2906 92.8161 54.8992C92.5272 54.1108 91.5601 53.0317 90.7819 52.6293ZM90.7251 60.0011C88.6062 59.3396 86.3104 59.8697 85.1442 61.2896C84.5271 62.0408 84.0363 63.1805 84.0939 63.7282C84.1501 64.2635 83.8756 64.3809 82.0391 64.6064L80.318 64.8178L78.8828 63.6931C78.0935 63.0747 77.4477 62.5229 77.4475 62.4668C77.4477 62.4107 78.7083 61.794 80.249 61.0962C81.7897 60.3985 83.1113 59.7737 83.1859 59.7077C83.335 59.5756 82.8091 58.2136 82.609 58.2136C82.5405 58.2136 81.7927 58.5515 80.9475 58.9643C75.9176 61.4216 75.4911 61.579 73.8029 61.6001C72.9347 61.611 71.2064 61.7927 69.9623 62.0041C68.032 62.3319 67.5814 62.4739 66.8897 62.9716C65.7982 63.7571 64.4327 64.1553 62.6163 64.1553C61.4098 64.1553 60.5712 63.8802 59.6086 63.4537C58.7587 63.0771 58.1332 63.0943 57.1921 63.0524C55.4342 62.9741 54.1088 62.74 52.1628 62.1644C50.5787 61.6957 50.0317 61.4231 50.2634 61.218C50.3288 61.1602 50.7626 60.9863 51.2277 60.8316C52.4564 60.4229 54.715 58.4239 55.0831 57.4192C55.2254 57.0307 55.3924 56.5731 55.3244 56.5128C55.2562 56.4525 54.4893 56.4591 54.0388 56.5128C53.2474 56.6071 53.4018 56.7569 52.7286 57.6042C52.1645 58.3141 51.8765 58.5391 51.0847 58.9502C49.3886 59.8312 47.3374 59.878 46.1148 59.0635C45.2063 58.4584 42.4384 57.0007 41.4982 56.6321C41.1147 56.4817 40.7422 56.3067 40.6703 56.2431C40.4513 56.0492 40.8986 55.7798 41.9403 55.4779C42.8645 55.2101 43.5766 54.8008 43.3963 54.6411C43.3533 54.6031 42.266 54.5824 40.9801 54.5953C38.3562 54.6214 36.7209 54.2881 34.2537 53.2245C32.8241 52.6083 27.8752 51.6137 25.8034 49.8587C24.5553 48.8013 22.03 47.2144 21.9365 47.2558C21.8437 47.2968 20.7199 48.5306 20.0225 49.3242C18.8186 50.623 17.001 53.0693 17.001 53.0693C16.0705 54.3927 22.7918 55.603 22.8847 55.6826C22.9776 55.7621 30.4889 55.9562 31.3232 56.114C35.7507 56.9518 43.5912 59.7464 47.2196 61.78C48.5712 62.5374 51.253 64.43 52.3361 65.3906C55.4092 68.1159 57.5329 71.9306 58.1509 75.8343C58.3049 76.808 58.4505 77.6774 58.4742 77.7665C58.5239 77.9526 61.3381 78.9665 61.7968 78.9634C62.4755 78.9589 61.781 77.5317 60.5829 76.4691C59.9671 75.9228 59.8776 75.7413 59.8321 74.949C59.775 73.9514 59.8834 73.7894 60.776 73.538C61.5562 73.3182 62.4687 73.6496 63.4325 74.5028C64.343 75.3087 65.5286 75.7103 67.0679 75.7343L68.1303 75.7508L67.7176 75.0534C67.3178 74.3781 66.5646 73.73 64.8686 72.6024L64.1745 72.141L64.7451 71.2467C65.5933 69.918 66.1649 66.9423 65.5951 66.8232C65.2986 66.7612 63.9951 67.4837 63.3285 68.0795C63.0141 68.3607 62.4851 69.0941 62.1531 69.7095C61.4424 71.0265 61.2058 71.261 60.2046 71.6407C59.344 71.9672 59.2178 71.9015 58.9709 71.0002C58.7074 70.0388 57.8456 68.6359 56.569 67.0909C55.9492 66.3405 55.3818 65.6272 55.3082 65.5053C55.2176 65.3552 55.7463 65.2802 56.9513 65.2723C61.0636 65.2454 65.2311 64.8368 70.4243 63.9515C74.2077 63.3066 75.0721 63.3665 76.9672 64.4045C78.0136 64.9777 78.5564 65.4081 80.0949 66.885C82.0315 68.7441 82.5123 69.0424 82.9491 68.6558C83.1416 68.4854 83.0727 68.2988 82.6277 67.7842C81.7965 66.8235 81.8884 66.6248 83.3654 66.1886C84.3398 65.9009 84.6358 65.8816 84.7321 66.0996C84.7999 66.2527 85.1045 66.7525 85.4092 67.2105C86.5788 68.9691 88.6638 69.6248 90.9225 68.9446C92.0371 68.6089 92.2895 68.4662 92.8531 67.8523C93.21 67.4639 93.6494 66.8078 93.8301 66.3943C94.8613 64.0335 93.2921 60.8024 90.7251 60.0011ZM95.6633 66.659C94.9068 66.2458 94.818 66.2736 94.5247 67.0155C93.8541 68.7123 91.8217 69.9672 89.5357 70.0962L88.3537 70.1628L88.4293 70.6399C88.6958 72.3252 90.5559 74.2359 92.4074 74.7261C94.302 75.2277 96.3524 74.7145 97.4178 73.4719C99.1983 71.3951 98.3576 68.1307 95.6633 66.659ZM52.4775 44.6572C52.1838 44.6324 51.4573 44.8193 50.8627 45.0723C48.0047 46.2893 46.7591 49.513 48.101 52.2204C48.8066 53.6435 50.318 54.9385 51.8569 55.4382C53.0702 55.8323 55.464 55.9059 55.8534 55.5612C56.2288 55.2289 56.6573 52.9161 56.5758 51.6616C56.4334 49.47 55.4673 47.3419 53.8025 45.5526C53.1423 44.843 52.923 44.6949 52.4775 44.6572ZM67.0603 57.3316C65.4036 56.2085 63.0213 55.4716 60.755 55.3814C59.1152 55.3162 56.7867 55.6798 56.3459 56.07C55.8905 56.4731 56.0651 58.6274 56.6451 59.7617C57.3392 61.1194 59.1805 62.6047 60.7653 63.0858C62.0367 63.4718 63.6933 63.4416 65.0534 63.0076C66.7736 62.4586 68.6809 60.4416 68.7569 59.0906C68.7793 58.6934 68.2318 58.1256 67.0603 57.3316ZM58.8443 51.6166C58.3857 51.5042 57.8858 51.4869 57.7335 51.5783C57.5756 51.6729 57.4272 52.2348 57.3879 52.8857C57.3502 53.5136 57.3469 53.6929 57.267 53.9923C57.2006 54.2412 57.1438 54.5099 57.2082 54.6978C57.3591 54.892 57.4602 54.8897 58.1566 54.7699C58.614 54.6914 59.4301 54.619 59.9696 54.6093C60.5093 54.5997 61.0082 54.5409 61.0783 54.4789C61.1484 54.4167 61.098 54.0004 60.9662 53.5535C60.6662 52.536 59.9581 51.8895 58.8443 51.6166ZM69.2398 66.492C68.3202 66.3104 66.5227 66.3116 66.3177 66.4938C66.2654 66.5403 66.2281 67.108 66.2351 67.7551C66.2428 68.4851 66.0435 69.4747 65.7104 70.361L65.1732 71.7902L66.5256 72.9977C67.4853 73.8546 67.9593 74.3908 68.1581 74.8448C68.431 75.468 68.4506 75.4821 68.9242 75.3944C69.1915 75.3451 69.8626 75.0695 70.4155 74.7822C72.2949 73.8056 73.4348 71.7632 72.9735 70.1991C72.5294 68.6926 71.1694 67.9677 69.2262 68.2012C67.318 68.4306 67.3327 67.9448 69.2494 67.429C70.7946 67.0129 70.7925 66.7985 69.2398 66.492Z"/>
</mask>
<path fill-rule="evenodd" clip-rule="evenodd" d="M111.65 33.0944C111.507 33.2211 111.156 33.6284 110.871 33.9996C109.991 35.1469 108.154 37.3437 106.979 38.6547C106.362 39.3429 105.783 40.0259 105.691 40.1726C105.419 40.6063 104.956 40.2736 104.89 39.5972C104.808 38.7576 103.667 36.7137 103.28 36.7137C103.071 36.7137 103.039 36.997 103.165 37.7239C103.355 38.8211 103.244 41.0465 102.937 42.28C102.756 43.0057 102.616 43.1748 100.707 44.9709C99.2445 46.3473 98.629 46.8492 98.523 46.7516C98.4421 46.6769 98.2394 46.2051 98.0727 45.7033L97.7694 44.7908L98.5616 43.9571C100.189 42.2446 100.648 39.8369 99.7798 37.5667C99.3416 36.4208 99.1926 36.2023 98.5577 35.774C97.6463 35.1592 96.9275 35.0548 95.7833 35.3712C94.9972 35.5886 94.7651 35.7402 93.9885 36.5435C93.498 37.0512 93.0594 37.4333 93.0138 37.3929C92.9681 37.3526 92.9389 37.0343 92.9488 36.686L92.9668 36.0524L92.5529 36.3433C91.3572 37.1837 90.8653 39.5907 91.5325 41.3371C92.2091 43.1079 93.7484 44.6656 95.3086 45.1577C95.9686 45.366 95.998 45.3993 96.3157 46.2987C96.4957 46.8082 96.6595 47.5491 96.6798 47.9454L96.7168 48.6658L95.1234 49.9299C94.2471 50.625 93.4787 51.1968 93.4161 51.2005C93.3534 51.204 93.1877 50.9669 93.0479 50.6736C92.565 49.6609 91.3257 47.7174 91.1376 47.6782C90.8484 47.6177 90.6924 48.2758 90.9085 48.6449C91.0141 48.8253 91.1571 49.5839 91.2263 50.331C91.3521 51.6877 91.3536 51.6907 92.3565 52.6656L93.3606 53.6418L93.9897 53.254C94.3358 53.0408 95.0307 52.5081 95.5337 52.0701C96.6354 51.1114 97.0956 50.9683 99.0218 50.9854C99.832 50.9927 100.57 50.9325 100.661 50.8517C100.752 50.7709 100.64 50.4183 100.412 50.0683C99.539 48.7284 99.5081 48.8791 100.957 47.4092C102.064 46.2859 102.356 46.0614 102.864 45.9458C103.69 45.7577 104.88 46.0077 105.416 46.4817C105.968 46.9705 108.142 48.0054 108.646 48.0196C108.964 48.0284 108.974 47.935 108.713 47.37C108.545 47.0072 108.213 46.4839 107.975 46.2074L107.543 45.7046L108.397 44.9487C109.232 44.2094 109.824 43.2753 109.716 42.8688C109.631 42.5509 107.678 43.1987 106.786 43.8404C105.943 44.4463 105.317 44.5045 104.777 44.0265C104.534 43.812 104.644 43.6195 105.825 42.1794C107.348 40.3228 108.853 38.2686 110.485 35.8206C111.854 33.7662 112.44 32.395 111.65 33.0944ZM111.379 42.7224C110.387 42.5659 110.128 42.7223 109.818 43.6652C109.672 44.1088 109.291 44.7736 108.971 45.1428L108.388 45.814L108.942 47.1069C109.56 48.5476 109.628 48.5908 111.065 48.4569C112.281 48.3434 113.227 47.6341 113.622 46.54C113.781 46.098 113.843 45.5245 113.758 45.2656C113.617 44.8386 113.498 44.7604 112.469 44.4216C111.845 44.2164 111.335 43.9903 111.335 43.9196C111.335 43.8488 111.605 43.7293 111.936 43.6542C112.92 43.4299 112.614 42.9173 111.379 42.7224ZM75.0116 36.9492C73.4299 35.9786 72.1978 35.5268 70.4799 35.2874C69.1107 35.0966 67.7194 35.3133 66.2305 35.9494L65.0199 36.4666L64.2592 35.7932C63.2048 34.8598 60.9717 33.8698 59.2719 33.5824C56.9104 33.1828 54.19 33.8842 52.5936 35.3044C51.2333 36.5145 50.3297 38.4846 50.5302 39.8032C50.7594 41.3103 51.2219 42.0159 53.1345 43.7752C54.3277 44.873 55.0618 45.6686 55.365 46.1923C55.988 47.2683 56.611 47.8054 56.9193 47.5325C57.2227 47.2639 57.1961 44.9972 56.8837 44.4937C56.5027 43.8794 56.5343 43.5763 57.0056 43.3265C57.2409 43.2018 57.5338 43.1207 57.6561 43.1463C58.0343 43.2253 58.2647 43.7453 58.1145 44.1798C57.8519 44.9384 57.8818 48.3334 58.1531 48.5736C58.2975 48.7014 58.4497 48.7757 58.4913 48.7388C58.5331 48.7019 58.7977 47.8035 59.0794 46.7422C59.4065 45.5101 59.5284 44.5911 59.417 44.1997C59.2153 43.4918 59.5788 43.0446 60.3288 43.0777C60.9643 43.1058 61.1743 43.6504 60.7625 44.203C60.4075 44.6794 59.2704 48.6127 59.3467 49.0997C59.4538 49.7817 59.8599 49.417 60.5833 47.9895C60.9885 47.1896 61.5602 46.1495 61.8539 45.678C62.2106 45.105 62.3493 44.6582 62.2723 44.3307C62.1356 43.7499 62.4615 43.4026 63.1157 43.4314C63.4875 43.4478 63.6352 43.5443 63.8067 43.8825C63.9839 44.2315 63.9391 44.3888 63.5697 44.7158C63.1708 45.0689 61.3497 47.9539 60.8495 49.0252C60.6088 49.5403 60.997 49.5939 61.5183 49.1178C62.3708 48.3389 64.5795 45.5779 64.6142 45.2477C64.634 45.0599 64.8382 44.774 65.0681 44.6124C65.4184 44.366 65.5623 44.3744 65.9603 44.6646C66.3457 44.9457 66.401 45.0899 66.2556 45.4343C66.1388 45.7106 65.9084 45.9325 65.5931 46.0719C65.1397 46.2726 62.8936 48.638 62.4711 49.3599C62.28 49.6864 62.4156 49.8797 62.7819 49.8032C63.2689 49.7014 66.5698 47.2128 66.7343 46.8234C66.948 46.3176 67.6694 46.1333 68.0652 46.4837C68.6579 47.0084 68.3272 47.6686 67.3847 47.8423C67.1137 47.8924 66.2895 48.3548 65.5535 48.87C62.442 51.0478 62.4975 51.0022 62.7211 51.2001C62.9451 51.3984 63.4415 51.2214 66.1758 49.9688C67.2132 49.4937 67.9697 49.05 68.1189 48.8296C68.3515 48.4858 69.0803 48.3269 69.3461 48.5623C69.5022 48.7004 69.62 49.7518 69.492 49.8651C69.4315 49.9186 69.0472 49.9818 68.6378 50.0056C67.826 50.0524 63.2418 51.9829 63.0535 52.3572C62.8566 52.7485 63.1299 52.7674 64.2978 52.4433C64.928 52.2682 66.0973 52.0015 66.8961 51.8506C67.6948 51.6995 68.4716 51.4724 68.6222 51.346C68.9758 51.0492 69.662 50.9675 69.9155 51.1919C70.1923 51.4369 70.1215 52.142 69.7908 52.4347C69.621 52.5851 69.2473 52.6199 68.8219 52.5248C68.3894 52.4282 67.3762 52.5271 66.1233 52.7881C64.0677 53.2161 63.6114 53.4053 63.938 53.6944C64.1776 53.9065 67.879 53.8588 68.8211 53.6313C69.6303 53.436 69.9917 53.6421 69.9558 54.2784C69.9174 54.9624 69.3292 55.2315 68.691 54.8574C68.128 54.5275 65.4476 54.3899 65.1261 54.6745C64.8331 54.9338 65.4141 55.5395 66.3178 55.9167C66.9171 56.1667 67.8686 56.8339 69.4107 58.0851C71.7717 60.0008 72.1177 60.18 73.6888 60.2996C75.4324 60.4326 77.5751 59.7146 78.8787 58.5607C79.6019 57.9205 80.5357 56.4239 80.7874 55.5017C81.4507 53.0712 80.4978 50.1676 78.4386 48.3448C77.4928 47.5075 77.3578 47.1535 77.8261 46.7389C77.9805 46.6023 78.2577 46.0912 78.4425 45.6031C79.4051 43.0581 78.6741 40.3721 76.4221 38.1805C75.863 37.6362 75.2283 37.0821 75.0116 36.9492ZM96.2209 55.9059C95.3232 55.5423 94.4747 55.3922 94.1161 55.5335C93.926 55.6085 93.8446 55.9934 93.8769 56.6661C93.9306 57.78 93.7527 58.4314 93.136 59.3793C92.7496 59.973 92.7998 60.3351 93.3355 60.8197C93.5961 61.0555 94.1686 60.4263 94.2771 59.7845C94.4002 59.0579 94.9752 58.7318 95.4274 59.1321C95.8902 59.5417 95.7601 59.8952 94.8785 60.6232C94.2275 61.1607 94.0927 61.3558 94.1492 61.6797C94.2908 62.4926 94.8477 62.4818 96.0748 61.642C96.8136 61.1364 97.1031 61.1692 97.2457 61.7747C97.403 62.4436 97.1214 62.6443 95.9508 62.6968C94.7956 62.7487 94.6869 62.8163 94.8051 63.4094C94.9412 64.0938 95.1845 64.2029 96.4817 64.162C97.59 64.1271 97.6949 64.1576 97.8662 64.5628C98.1226 65.17 97.4153 65.6995 96.8626 65.3142C95.8487 64.6069 94.9869 64.5684 94.9869 65.2302C94.9869 65.6723 95.157 65.824 95.835 65.9877C96.5271 66.1547 97.9079 67.377 98.3696 68.2313C98.964 69.3312 99.0531 69.3577 99.6744 68.6188C100.788 67.2942 101.158 65.6668 100.699 64.1103C100.516 63.4878 100.212 63.0281 99.495 62.2859L98.5362 61.2936L98.6792 60.3597C98.9415 58.6486 97.7749 56.5352 96.2209 55.9059ZM90.7819 52.6293C88.8447 51.6277 86.7265 51.8651 85.1374 53.2618C83.3933 54.7948 82.887 56.9217 83.8303 58.7548C84.4825 60.0227 84.8686 60.3437 85.2911 59.9697C86.4457 58.9476 89.4886 58.5024 90.9051 59.1482C91.2863 59.322 91.6994 59.4682 91.8229 59.4727C92.229 59.4878 92.9425 57.8252 93.0106 56.7057C93.0469 56.1035 92.9596 55.2906 92.8161 54.8992C92.5272 54.1108 91.5601 53.0317 90.7819 52.6293ZM90.7251 60.0011C88.6062 59.3396 86.3104 59.8697 85.1442 61.2896C84.5271 62.0408 84.0363 63.1805 84.0939 63.7282C84.1501 64.2635 83.8756 64.3809 82.0391 64.6064L80.318 64.8178L78.8828 63.6931C78.0935 63.0747 77.4477 62.5229 77.4475 62.4668C77.4477 62.4107 78.7083 61.794 80.249 61.0962C81.7897 60.3985 83.1113 59.7737 83.1859 59.7077C83.335 59.5756 82.8091 58.2136 82.609 58.2136C82.5405 58.2136 81.7927 58.5515 80.9475 58.9643C75.9176 61.4216 75.4911 61.579 73.8029 61.6001C72.9347 61.611 71.2064 61.7927 69.9623 62.0041C68.032 62.3319 67.5814 62.4739 66.8897 62.9716C65.7982 63.7571 64.4327 64.1553 62.6163 64.1553C61.4098 64.1553 60.5712 63.8802 59.6086 63.4537C58.7587 63.0771 58.1332 63.0943 57.1921 63.0524C55.4342 62.9741 54.1088 62.74 52.1628 62.1644C50.5787 61.6957 50.0317 61.4231 50.2634 61.218C50.3288 61.1602 50.7626 60.9863 51.2277 60.8316C52.4564 60.4229 54.715 58.4239 55.0831 57.4192C55.2254 57.0307 55.3924 56.5731 55.3244 56.5128C55.2562 56.4525 54.4893 56.4591 54.0388 56.5128C53.2474 56.6071 53.4018 56.7569 52.7286 57.6042C52.1645 58.3141 51.8765 58.5391 51.0847 58.9502C49.3886 59.8312 47.3374 59.878 46.1148 59.0635C45.2063 58.4584 42.4384 57.0007 41.4982 56.6321C41.1147 56.4817 40.7422 56.3067 40.6703 56.2431C40.4513 56.0492 40.8986 55.7798 41.9403 55.4779C42.8645 55.2101 43.5766 54.8008 43.3963 54.6411C43.3533 54.6031 42.266 54.5824 40.9801 54.5953C38.3562 54.6214 36.7209 54.2881 34.2537 53.2245C32.8241 52.6083 27.8752 51.6137 25.8034 49.8587C24.5553 48.8013 22.03 47.2144 21.9365 47.2558C21.8437 47.2968 20.7199 48.5306 20.0225 49.3242C18.8186 50.623 17.001 53.0693 17.001 53.0693C16.0705 54.3927 22.7918 55.603 22.8847 55.6826C22.9776 55.7621 30.4889 55.9562 31.3232 56.114C35.7507 56.9518 43.5912 59.7464 47.2196 61.78C48.5712 62.5374 51.253 64.43 52.3361 65.3906C55.4092 68.1159 57.5329 71.9306 58.1509 75.8343C58.3049 76.808 58.4505 77.6774 58.4742 77.7665C58.5239 77.9526 61.3381 78.9665 61.7968 78.9634C62.4755 78.9589 61.781 77.5317 60.5829 76.4691C59.9671 75.9228 59.8776 75.7413 59.8321 74.949C59.775 73.9514 59.8834 73.7894 60.776 73.538C61.5562 73.3182 62.4687 73.6496 63.4325 74.5028C64.343 75.3087 65.5286 75.7103 67.0679 75.7343L68.1303 75.7508L67.7176 75.0534C67.3178 74.3781 66.5646 73.73 64.8686 72.6024L64.1745 72.141L64.7451 71.2467C65.5933 69.918 66.1649 66.9423 65.5951 66.8232C65.2986 66.7612 63.9951 67.4837 63.3285 68.0795C63.0141 68.3607 62.4851 69.0941 62.1531 69.7095C61.4424 71.0265 61.2058 71.261 60.2046 71.6407C59.344 71.9672 59.2178 71.9015 58.9709 71.0002C58.7074 70.0388 57.8456 68.6359 56.569 67.0909C55.9492 66.3405 55.3818 65.6272 55.3082 65.5053C55.2176 65.3552 55.7463 65.2802 56.9513 65.2723C61.0636 65.2454 65.2311 64.8368 70.4243 63.9515C74.2077 63.3066 75.0721 63.3665 76.9672 64.4045C78.0136 64.9777 78.5564 65.4081 80.0949 66.885C82.0315 68.7441 82.5123 69.0424 82.9491 68.6558C83.1416 68.4854 83.0727 68.2988 82.6277 67.7842C81.7965 66.8235 81.8884 66.6248 83.3654 66.1886C84.3398 65.9009 84.6358 65.8816 84.7321 66.0996C84.7999 66.2527 85.1045 66.7525 85.4092 67.2105C86.5788 68.9691 88.6638 69.6248 90.9225 68.9446C92.0371 68.6089 92.2895 68.4662 92.8531 67.8523C93.21 67.4639 93.6494 66.8078 93.8301 66.3943C94.8613 64.0335 93.2921 60.8024 90.7251 60.0011ZM95.6633 66.659C94.9068 66.2458 94.818 66.2736 94.5247 67.0155C93.8541 68.7123 91.8217 69.9672 89.5357 70.0962L88.3537 70.1628L88.4293 70.6399C88.6958 72.3252 90.5559 74.2359 92.4074 74.7261C94.302 75.2277 96.3524 74.7145 97.4178 73.4719C99.1983 71.3951 98.3576 68.1307 95.6633 66.659ZM52.4775 44.6572C52.1838 44.6324 51.4573 44.8193 50.8627 45.0723C48.0047 46.2893 46.7591 49.513 48.101 52.2204C48.8066 53.6435 50.318 54.9385 51.8569 55.4382C53.0702 55.8323 55.464 55.9059 55.8534 55.5612C56.2288 55.2289 56.6573 52.9161 56.5758 51.6616C56.4334 49.47 55.4673 47.3419 53.8025 45.5526C53.1423 44.843 52.923 44.6949 52.4775 44.6572ZM67.0603 57.3316C65.4036 56.2085 63.0213 55.4716 60.755 55.3814C59.1152 55.3162 56.7867 55.6798 56.3459 56.07C55.8905 56.4731 56.0651 58.6274 56.6451 59.7617C57.3392 61.1194 59.1805 62.6047 60.7653 63.0858C62.0367 63.4718 63.6933 63.4416 65.0534 63.0076C66.7736 62.4586 68.6809 60.4416 68.7569 59.0906C68.7793 58.6934 68.2318 58.1256 67.0603 57.3316ZM58.8443 51.6166C58.3857 51.5042 57.8858 51.4869 57.7335 51.5783C57.5756 51.6729 57.4272 52.2348 57.3879 52.8857C57.3502 53.5136 57.3469 53.6929 57.267 53.9923C57.2006 54.2412 57.1438 54.5099 57.2082 54.6978C57.3591 54.892 57.4602 54.8897 58.1566 54.7699C58.614 54.6914 59.4301 54.619 59.9696 54.6093C60.5093 54.5997 61.0082 54.5409 61.0783 54.4789C61.1484 54.4167 61.098 54.0004 60.9662 53.5535C60.6662 52.536 59.9581 51.8895 58.8443 51.6166ZM69.2398 66.492C68.3202 66.3104 66.5227 66.3116 66.3177 66.4938C66.2654 66.5403 66.2281 67.108 66.2351 67.7551C66.2428 68.4851 66.0435 69.4747 65.7104 70.361L65.1732 71.7902L66.5256 72.9977C67.4853 73.8546 67.9593 74.3908 68.1581 74.8448C68.431 75.468 68.4506 75.4821 68.9242 75.3944C69.1915 75.3451 69.8626 75.0695 70.4155 74.7822C72.2949 73.8056 73.4348 71.7632 72.9735 70.1991C72.5294 68.6926 71.1694 67.9677 69.2262 68.2012C67.318 68.4306 67.3327 67.9448 69.2494 67.429C70.7946 67.0129 70.7925 66.7985 69.2398 66.492Z" stroke="#665F5F" stroke-width="1.4" mask="url(#path-29-inside-1_378_29)"/>
</g>
<g id="Group 509">
<path id="Vector 44" d="M34.2489 128.502C31.0117 126.828 23.645 123.298 20.0753 122.577" stroke="#665F5F" stroke-width="0.7"/>
<path id="Vector 45" d="M40.4081 124.249C37.8271 123.09 29.4194 120.465 17.9755 119.744" stroke="#665F5F" stroke-width="0.7"/>
<path id="Vector 46" d="M47.3726 120.001C41.5982 118.541 27.2933 115.905 16.2695 117.039" stroke="#665F5F" stroke-width="0.7"/>
<path id="Vector 47" d="M56.2362 115.682C51.7304 114.179 36.9163 111.544 14.2386 113.914" stroke="#665F5F" stroke-width="0.7"/>
<path id="Vector 39" d="M73.5772 145.655C82.2893 134.281 104.74 111.501 123.922 111.407" stroke="#665F5F" stroke-width="0.7"/>
<path id="Vector 40" d="M93.0024 140.865C96.5192 133.962 107.482 118.639 122.733 113.65" stroke="#665F5F" stroke-width="0.7"/>
<path id="Vector 41" d="M55.8252 144.725C65.896 132.566 93.9348 108.402 124.531 110.002" stroke="#665F5F" stroke-width="0.7"/>
<path id="Vector 42" d="M41.4157 139.84C52.0593 127.223 83.7303 103.205 125.266 108.075" stroke="#665F5F" stroke-width="0.7"/>
<path id="Vector 43" d="M29.5616 132.381C43.0061 120.171 81.4777 97.9043 126.162 106.281" stroke="#665F5F" stroke-width="0.7"/>
<path id="Vector 48" d="M64.7938 112.052C54.703 109.878 34.7185 106.144 13.0294 111.161" stroke="#665F5F" stroke-width="0.7"/>
</g>
</g>
<defs>
<linearGradient id="paint0_linear_378_29" x1="14.8219" y1="114.51" x2="55.092" y2="117.631" gradientUnits="userSpaceOnUse">
<stop stop-color="#D0989F"/>
<stop offset="1" stop-color="white" stop-opacity="0"/>
</linearGradient>
<linearGradient id="paint1_linear_378_29" x1="20.1915" y1="124.876" x2="33.8074" y2="125.128" gradientUnits="userSpaceOnUse">
<stop stop-color="#D0989F"/>
<stop offset="1" stop-color="white" stop-opacity="0"/>
</linearGradient>
<linearGradient id="paint2_linear_378_29" x1="16.3656" y1="118.561" x2="46.8072" y2="120.219" gradientUnits="userSpaceOnUse">
<stop stop-color="#D0989F"/>
<stop offset="1" stop-color="white" stop-opacity="0"/>
</linearGradient>
<linearGradient id="paint3_linear_378_29" x1="13.5596" y1="110.313" x2="63.4179" y2="115.123" gradientUnits="userSpaceOnUse">
<stop stop-color="#D0989F"/>
<stop offset="1" stop-color="white" stop-opacity="0"/>
</linearGradient>
<linearGradient id="paint4_linear_378_29" x1="42.2733" y1="116.383" x2="124.135" y2="118.842" gradientUnits="userSpaceOnUse">
<stop stop-color="#D0989F"/>
<stop offset="1" stop-color="white" stop-opacity="0"/>
</linearGradient>
<linearGradient id="paint5_linear_378_29" x1="30.8184" y1="112.945" x2="124.732" y2="116.339" gradientUnits="userSpaceOnUse">
<stop stop-color="#D0989F"/>
<stop offset="1" stop-color="white" stop-opacity="0"/>
</linearGradient>
<linearGradient id="paint6_linear_378_29" x1="98.3808" y1="62.2417" x2="94.0206" y2="64.3644" gradientUnits="userSpaceOnUse">
<stop stop-color="#665F5F"/>
<stop offset="1" stop-color="#D9D9D9" stop-opacity="0"/>
</linearGradient>
<linearGradient id="paint7_linear_378_29" x1="56.8003" y1="118.527" x2="123.483" y2="120.209" gradientUnits="userSpaceOnUse">
<stop stop-color="#D0989F"/>
<stop offset="1" stop-color="white" stop-opacity="0"/>
</linearGradient>
<linearGradient id="paint8_linear_378_29" x1="93.4894" y1="120.346" x2="122.233" y2="120.767" gradientUnits="userSpaceOnUse">
<stop stop-color="#D0989F"/>
<stop offset="1" stop-color="white" stop-opacity="0"/>
</linearGradient>
<linearGradient id="paint9_linear_378_29" x1="18.0707" y1="121.788" x2="39.8291" y2="122.524" gradientUnits="userSpaceOnUse">
<stop stop-color="#D0989F"/>
<stop offset="1" stop-color="white" stop-opacity="0"/>
</linearGradient>
<linearGradient id="paint10_linear_378_29" x1="74.2132" y1="119.623" x2="123.159" y2="120.576" gradientUnits="userSpaceOnUse">
<stop stop-color="#D0989F"/>
<stop offset="1" stop-color="white" stop-opacity="0"/>
</linearGradient>
<linearGradient id="paint11_linear_378_29" x1="17.8166" y1="55.0143" x2="92.6866" y2="57.2078" gradientUnits="userSpaceOnUse">
<stop stop-color="#665F5F"/>
<stop offset="1" stop-color="#665F5F" stop-opacity="0"/>
</linearGradient>
<linearGradient id="paint12_linear_378_29" x1="73.1585" y1="72.6287" x2="65.1207" y2="75.6328" gradientUnits="userSpaceOnUse">
<stop stop-color="#FFD1D7"/>
<stop offset="0.461804" stop-color="#E6B9BF"/>
<stop offset="1" stop-color="#B46E77"/>
</linearGradient>
<linearGradient id="paint13_linear_378_29" x1="68.9146" y1="59.8438" x2="58.8752" y2="66.7469" gradientUnits="userSpaceOnUse">
<stop stop-color="#FFD1D7"/>
<stop offset="0.461804" stop-color="#E6B9BF"/>
<stop offset="1" stop-color="#B46E77"/>
</linearGradient>
<linearGradient id="paint14_linear_378_29" x1="61.0295" y1="53.002" x2="57.6282" y2="54.737" gradientUnits="userSpaceOnUse">
<stop stop-color="#FFD1D7"/>
<stop offset="0.461804" stop-color="#E6B9BF"/>
<stop offset="1" stop-color="#B46E77"/>
</linearGradient>
<linearGradient id="paint15_linear_378_29" x1="56.7977" y1="49.7" x2="47.3851" y2="52.9321" gradientUnits="userSpaceOnUse">
<stop stop-color="#FFD1D7"/>
<stop offset="0.461804" stop-color="#E6B9BF"/>
<stop offset="1" stop-color="#B46E77"/>
</linearGradient>
<linearGradient id="paint16_linear_378_29" x1="93.1657" y1="56.2317" x2="84.1843" y2="60.8123" gradientUnits="userSpaceOnUse">
<stop stop-color="#FFD1D7"/>
<stop offset="0.461804" stop-color="#E6B9BF"/>
<stop offset="1" stop-color="#B46E77"/>
</linearGradient>
<linearGradient id="paint17_linear_378_29" x1="98.5494" y1="72.4063" x2="89.2861" y2="77.1206" gradientUnits="userSpaceOnUse">
<stop stop-color="#FFD1D7"/>
<stop offset="0.461804" stop-color="#E6B9BF"/>
<stop offset="1" stop-color="#B46E77"/>
</linearGradient>
<linearGradient id="paint18_linear_378_29" x1="100.875" y1="63.1173" x2="94.0493" y2="64.9674" gradientUnits="userSpaceOnUse">
<stop stop-color="#FFD1D7"/>
<stop offset="0.461804" stop-color="#E6B9BF"/>
<stop offset="1" stop-color="#B46E77"/>
</linearGradient>
<linearGradient id="paint19_linear_378_29" x1="68.921" y1="44.2147" x2="60.5086" y2="51.4557" gradientUnits="userSpaceOnUse">
<stop stop-color="#665F5F"/>
<stop offset="1" stop-color="#D9D9D9" stop-opacity="0"/>
</linearGradient>
<linearGradient id="paint20_linear_378_29" x1="81.9878" y1="45.9701" x2="65.1832" y2="60.101" gradientUnits="userSpaceOnUse">
<stop stop-color="#FFD1D7"/>
<stop offset="0.461804" stop-color="#E6B9BF"/>
<stop offset="1" stop-color="#B46E77"/>
</linearGradient>
<linearGradient id="paint21_linear_378_29" x1="84.2788" y1="66.0754" x2="94.5555" y2="61.6152" gradientUnits="userSpaceOnUse">
<stop stop-color="#C9C9C9"/>
<stop offset="0.761209" stop-color="#E9BCC2"/>
</linearGradient>
<linearGradient id="paint22_linear_378_29" x1="91.0325" y1="53.2461" x2="97.4789" y2="40.8385" gradientUnits="userSpaceOnUse">
<stop stop-color="#665F5F"/>
<stop offset="1" stop-color="#665F5F" stop-opacity="0"/>
</linearGradient>
<linearGradient id="paint23_linear_378_29" x1="95.6766" y1="33.2261" x2="96.8967" y2="43.8833" gradientUnits="userSpaceOnUse">
<stop stop-color="#FFD1D7"/>
<stop offset="0.617708" stop-color="#D9ADB2"/>
<stop offset="1" stop-color="#BAB8B8"/>
</linearGradient>
<linearGradient id="paint24_linear_378_29" x1="113.796" y1="44.6371" x2="108.575" y2="47.0295" gradientUnits="userSpaceOnUse">
<stop stop-color="#FFD1D7"/>
<stop offset="0.461804" stop-color="#E6B9BF"/>
<stop offset="1" stop-color="#B46E77"/>
</linearGradient>
</defs>
</svg>
