<svg width="81" height="113" viewBox="0 0 81 113" fill="none" xmlns="http://www.w3.org/2000/svg">
<path d="M81 9.89489H57.3361V19.4891H73.9639V29.0957H57.3361V40.316H81V50.1854H47.0014V0.113098H81V9.89489Z" fill="black"/>
<path d="M27.0188 28.558C38.4004 28.558 39.2898 13.2224 36.2164 5.95482C33.143 -1.31273 23.1798 0.113263 19.0595 0.113263H0V50.148H10.5035V32.4232C12.7657 32.1785 15.0488 32.3561 17.2582 32.9486C19.8475 33.9493 28.5161 50.173 28.5161 50.173H41.0235C37.4773 40.6664 27.0188 28.558 27.0188 28.558ZM23.0673 22.9916H10.5035V10.0702C10.5035 10.0702 22.2117 9.89506 23.7427 10.0702C25.2738 10.2453 26.1632 13.1223 26.1632 15.9117C26.1632 18.7012 25.5215 22.9916 23.0222 22.9916H23.0673Z" fill="black"/>
<path d="M0 102.347H23.6639V92.7399H7.02488V83.1458H23.6639V71.9255H0V62.0561H33.9986V112.128H0V102.347Z" fill="black"/>
<path d="M70.4964 62.0561V79.8184C68.2337 80.0631 65.95 79.8812 63.7418 79.2806C61.1525 78.3049 52.4839 62.0561 52.4839 62.0561H39.9765C43.5227 71.5627 54.0375 83.6836 54.0375 83.6836C42.6446 83.6836 41.744 99.0193 44.8174 106.324C47.8908 113.629 57.8201 112.128 61.918 112.128H80.9887V62.0936L70.4964 62.0561ZM70.4964 102.171C70.4964 102.171 58.7883 102.347 57.2573 102.171C55.7262 101.996 54.8256 99.1193 54.8256 96.3174C54.8256 93.5155 55.4785 89.225 57.9778 89.225H70.4964V102.171Z" fill="black"/>
</svg>
