<svg width="142" height="45" viewBox="0 0 142 45" fill="none" xmlns="http://www.w3.org/2000/svg">
<path d="M8.56585 41.0154C4.85432 31.9053 -0.341827 13.7175 8.56585 13.8468C12.11 13.3653 17.0718 18.1248 8.56585 41.0154Z" fill="#665F5F"/>
<path d="M4.01356 13.8253L2.78417 12.8923C0.0351735 17.998 0.719013 22.7737 1.37181 26.6644C2.41369 32.874 4.42021 38.2198 7.13473 44.8404L8.06307 42.8269C5.09238 36.6858 3.87499 31.5015 3.54492 29.8656C1.67128 21.9477 1.97105 18.1361 4.01356 13.8253Z" fill="#665F5F"/>
<path d="M8.8164 0.43125C5.44962 0.330576 4.6327 0.780416 3.90003 2.6765C2.99015 5.46365 4.66487 8.11333 8.12933 10.9982C10.5631 12.7978 11.3411 12.6116 12.8868 14.57C14.1077 16.117 14.6215 21.8489 13.5794 27.7969C13.2756 29.531 13.9896 29.8575 14.7822 28.2855C16.2487 25.377 17.9669 21.5072 18.5631 18.7822C19.6064 12.5045 16.9828 10.8487 15.3926 9.60793C13.4823 8.28469 12.6692 7.84669 12.1648 7.55767C11.2674 7.04351 10.6438 6.12347 10.4661 5.10461C10.1715 3.41584 10.9724 2.35563 11.5153 2.02693C12.3966 1.40058 16.9497 1.05025 19.9565 0.997547C17.6459 0.850729 12.1832 0.531924 8.8164 0.43125Z" fill="#665F5F"/>
<path d="M29.3764 23.3568C28.7444 23.3568 28.1604 23.2528 27.6244 23.0448C27.0884 22.8288 26.6244 22.5288 26.2324 22.1448C25.8404 21.7608 25.5324 21.3088 25.3084 20.7888C25.0924 20.2688 24.9844 19.7008 24.9844 19.0848C24.9844 18.4688 25.0924 17.9008 25.3084 17.3808C25.5324 16.8608 25.8404 16.4088 26.2324 16.0248C26.6324 15.6408 27.1004 15.3448 27.6364 15.1368C28.1724 14.9208 28.7564 14.8128 29.3884 14.8128C29.9964 14.8128 30.5684 14.9168 31.1044 15.1248C31.6404 15.3248 32.0924 15.6288 32.4604 16.0368L31.8964 16.6008C31.5524 16.2488 31.1724 15.9968 30.7564 15.8448C30.3404 15.6848 29.8924 15.6048 29.4124 15.6048C28.9084 15.6048 28.4404 15.6928 28.0084 15.8688C27.5764 16.0368 27.2004 16.2808 26.8804 16.6008C26.5604 16.9128 26.3084 17.2808 26.1244 17.7048C25.9484 18.1208 25.8604 18.5808 25.8604 19.0848C25.8604 19.5888 25.9484 20.0528 26.1244 20.4768C26.3084 20.8928 26.5604 21.2608 26.8804 21.5808C27.2004 21.8928 27.5764 22.1368 28.0084 22.3128C28.4404 22.4808 28.9084 22.5648 29.4124 22.5648C29.8924 22.5648 30.3404 22.4848 30.7564 22.3248C31.1724 22.1648 31.5524 21.9088 31.8964 21.5568L32.4604 22.1208C32.0924 22.5288 31.6404 22.8368 31.1044 23.0448C30.5684 23.2528 29.9924 23.3568 29.3764 23.3568ZM40.4974 14.8848H41.3734V23.2848H40.4974V14.8848ZM35.2414 23.2848H34.3534V14.8848H35.2414V23.2848ZM40.5814 19.4088H35.1454V18.6288H40.5814V19.4088ZM44.9071 18.6408H49.3471V19.3968H44.9071V18.6408ZM45.0031 22.5168H50.0551V23.2848H44.1151V14.8848H49.8751V15.6528H45.0031V22.5168ZM52.1424 23.2848V14.8848H55.2864C55.9984 14.8848 56.6104 15.0008 57.1224 15.2328C57.6344 15.4568 58.0264 15.7848 58.2984 16.2168C58.5784 16.6408 58.7184 17.1568 58.7184 17.7648C58.7184 18.3568 58.5784 18.8688 58.2984 19.3008C58.0264 19.7248 57.6344 20.0528 57.1224 20.2848C56.6104 20.5088 55.9984 20.6208 55.2864 20.6208H52.6344L53.0304 20.2128V23.2848H52.1424ZM57.8784 23.2848L55.7184 20.2368H56.6784L58.8504 23.2848H57.8784ZM53.0304 20.2848L52.6344 19.8648H55.2624C56.1024 19.8648 56.7384 19.6808 57.1704 19.3128C57.6104 18.9448 57.8304 18.4288 57.8304 17.7648C57.8304 17.0928 57.6104 16.5728 57.1704 16.2048C56.7384 15.8368 56.1024 15.6528 55.2624 15.6528H52.6344L53.0304 15.2328V20.2848ZM60.8143 23.2848V14.8848H63.9583C64.6703 14.8848 65.2823 15.0008 65.7943 15.2328C66.3063 15.4568 66.6983 15.7848 66.9703 16.2168C67.2503 16.6408 67.3903 17.1568 67.3903 17.7648C67.3903 18.3568 67.2503 18.8688 66.9703 19.3008C66.6983 19.7248 66.3063 20.0528 65.7943 20.2848C65.2823 20.5088 64.6703 20.6208 63.9583 20.6208H61.3063L61.7023 20.2128V23.2848H60.8143ZM66.5503 23.2848L64.3903 20.2368H65.3503L67.5223 23.2848H66.5503ZM61.7023 20.2848L61.3063 19.8648H63.9343C64.7743 19.8648 65.4103 19.6808 65.8423 19.3128C66.2823 18.9448 66.5023 18.4288 66.5023 17.7648C66.5023 17.0928 66.2823 16.5728 65.8423 16.2048C65.4103 15.8368 64.7743 15.6528 63.9343 15.6528H61.3063L61.7023 15.2328V20.2848ZM71.373 23.2848V20.1648L71.577 20.7168L68.013 14.8848H68.961L72.093 20.0088H71.589L74.721 14.8848H75.609L72.045 20.7168L72.249 20.1648V23.2848H71.373ZM80.1268 23.2848V14.8848H83.7508C84.6868 14.8848 85.4108 15.0728 85.9228 15.4488C86.4428 15.8248 86.7028 16.3568 86.7028 17.0448C86.7028 17.5008 86.5948 17.8848 86.3788 18.1968C86.1708 18.5088 85.8828 18.7448 85.5148 18.9048C85.1548 19.0648 84.7588 19.1448 84.3268 19.1448L84.5308 18.8568C85.0668 18.8568 85.5268 18.9408 85.9108 19.1088C86.3028 19.2688 86.6068 19.5128 86.8228 19.8408C87.0388 20.1608 87.1468 20.5608 87.1468 21.0408C87.1468 21.7528 86.8828 22.3048 86.3548 22.6968C85.8348 23.0888 85.0468 23.2848 83.9908 23.2848H80.1268ZM81.0148 22.5528H83.9788C84.7148 22.5528 85.2788 22.4288 85.6708 22.1808C86.0628 21.9248 86.2588 21.5208 86.2588 20.9688C86.2588 20.4248 86.0628 20.0288 85.6708 19.7808C85.2788 19.5248 84.7148 19.3968 83.9788 19.3968H80.9188V18.6648H83.6908C84.3628 18.6648 84.8828 18.5368 85.2508 18.2808C85.6268 18.0248 85.8148 17.6448 85.8148 17.1408C85.8148 16.6288 85.6268 16.2488 85.2508 16.0008C84.8828 15.7448 84.3628 15.6168 83.6908 15.6168H81.0148V22.5528ZM89.1737 23.2848V14.8848H90.0617V22.5168H94.7657V23.2848H89.1737ZM99.748 23.3568C99.116 23.3568 98.528 23.2528 97.984 23.0448C97.448 22.8288 96.98 22.5288 96.58 22.1448C96.188 21.7528 95.88 21.3008 95.656 20.7888C95.44 20.2688 95.332 19.7008 95.332 19.0848C95.332 18.4688 95.44 17.9048 95.656 17.3928C95.88 16.8728 96.188 16.4208 96.58 16.0368C96.98 15.6448 97.448 15.3448 97.984 15.1368C98.52 14.9208 99.108 14.8128 99.748 14.8128C100.38 14.8128 100.964 14.9208 101.5 15.1368C102.036 15.3448 102.5 15.6408 102.892 16.0248C103.292 16.4088 103.6 16.8608 103.816 17.3808C104.04 17.9008 104.152 18.4688 104.152 19.0848C104.152 19.7008 104.04 20.2688 103.816 20.7888C103.6 21.3088 103.292 21.7608 102.892 22.1448C102.5 22.5288 102.036 22.8288 101.5 23.0448C100.964 23.2528 100.38 23.3568 99.748 23.3568ZM99.748 22.5648C100.252 22.5648 100.716 22.4808 101.14 22.3128C101.572 22.1368 101.944 21.8928 102.256 21.5808C102.576 21.2608 102.824 20.8928 103 20.4768C103.176 20.0528 103.264 19.5888 103.264 19.0848C103.264 18.5808 103.176 18.1208 103 17.7048C102.824 17.2808 102.576 16.9128 102.256 16.6008C101.944 16.2808 101.572 16.0368 101.14 15.8688C100.716 15.6928 100.252 15.6048 99.748 15.6048C99.244 15.6048 98.776 15.6928 98.344 15.8688C97.912 16.0368 97.536 16.2808 97.216 16.6008C96.904 16.9128 96.656 17.2808 96.472 17.7048C96.296 18.1208 96.208 18.5808 96.208 19.0848C96.208 19.5808 96.296 20.0408 96.472 20.4648C96.656 20.8888 96.904 21.2608 97.216 21.5808C97.536 21.8928 97.912 22.1368 98.344 22.3128C98.776 22.4808 99.244 22.5648 99.748 22.5648ZM108.458 23.3568C107.834 23.3568 107.234 23.2568 106.658 23.0568C106.09 22.8488 105.65 22.5848 105.338 22.2648L105.686 21.5808C105.982 21.8688 106.378 22.1128 106.874 22.3128C107.378 22.5048 107.906 22.6008 108.458 22.6008C108.986 22.6008 109.414 22.5368 109.742 22.4088C110.078 22.2728 110.322 22.0928 110.474 21.8688C110.634 21.6448 110.714 21.3968 110.714 21.1248C110.714 20.7968 110.618 20.5328 110.426 20.3328C110.242 20.1328 109.998 19.9768 109.694 19.8648C109.39 19.7448 109.054 19.6408 108.686 19.5528C108.318 19.4648 107.95 19.3728 107.582 19.2768C107.214 19.1728 106.874 19.0368 106.562 18.8688C106.258 18.7008 106.01 18.4808 105.818 18.2088C105.634 17.9288 105.542 17.5648 105.542 17.1168C105.542 16.7008 105.65 16.3208 105.866 15.9768C106.09 15.6248 106.43 15.3448 106.886 15.1368C107.342 14.9208 107.926 14.8128 108.638 14.8128C109.11 14.8128 109.578 14.8808 110.042 15.0168C110.506 15.1448 110.906 15.3248 111.242 15.5568L110.942 16.2648C110.582 16.0248 110.198 15.8488 109.79 15.7368C109.39 15.6248 109.002 15.5688 108.626 15.5688C108.122 15.5688 107.706 15.6368 107.378 15.7728C107.05 15.9088 106.806 16.0928 106.646 16.3248C106.494 16.5488 106.418 16.8048 106.418 17.0928C106.418 17.4208 106.51 17.6848 106.694 17.8848C106.886 18.0848 107.134 18.2408 107.438 18.3528C107.75 18.4648 108.09 18.5648 108.458 18.6528C108.826 18.7408 109.19 18.8368 109.55 18.9408C109.918 19.0448 110.254 19.1808 110.558 19.3488C110.87 19.5088 111.118 19.7248 111.302 19.9968C111.494 20.2688 111.59 20.6248 111.59 21.0648C111.59 21.4728 111.478 21.8528 111.254 22.2048C111.03 22.5488 110.686 22.8288 110.222 23.0448C109.766 23.2528 109.178 23.3568 108.458 23.3568ZM115.841 23.3568C115.217 23.3568 114.617 23.2568 114.041 23.0568C113.473 22.8488 113.033 22.5848 112.721 22.2648L113.069 21.5808C113.365 21.8688 113.761 22.1128 114.257 22.3128C114.761 22.5048 115.289 22.6008 115.841 22.6008C116.369 22.6008 116.797 22.5368 117.125 22.4088C117.461 22.2728 117.705 22.0928 117.857 21.8688C118.017 21.6448 118.097 21.3968 118.097 21.1248C118.097 20.7968 118.001 20.5328 117.809 20.3328C117.625 20.1328 117.381 19.9768 117.077 19.8648C116.773 19.7448 116.437 19.6408 116.069 19.5528C115.701 19.4648 115.333 19.3728 114.965 19.2768C114.597 19.1728 114.257 19.0368 113.945 18.8688C113.641 18.7008 113.393 18.4808 113.201 18.2088C113.017 17.9288 112.925 17.5648 112.925 17.1168C112.925 16.7008 113.033 16.3208 113.249 15.9768C113.473 15.6248 113.813 15.3448 114.269 15.1368C114.725 14.9208 115.309 14.8128 116.021 14.8128C116.493 14.8128 116.961 14.8808 117.425 15.0168C117.889 15.1448 118.289 15.3248 118.625 15.5568L118.325 16.2648C117.965 16.0248 117.581 15.8488 117.173 15.7368C116.773 15.6248 116.385 15.5688 116.009 15.5688C115.505 15.5688 115.089 15.6368 114.761 15.7728C114.433 15.9088 114.189 16.0928 114.029 16.3248C113.877 16.5488 113.801 16.8048 113.801 17.0928C113.801 17.4208 113.893 17.6848 114.077 17.8848C114.269 18.0848 114.517 18.2408 114.821 18.3528C115.133 18.4648 115.473 18.5648 115.841 18.6528C116.209 18.7408 116.573 18.8368 116.933 18.9408C117.301 19.0448 117.637 19.1808 117.941 19.3488C118.253 19.5088 118.501 19.7248 118.685 19.9968C118.877 20.2688 118.973 20.6248 118.973 21.0648C118.973 21.4728 118.861 21.8528 118.637 22.2048C118.413 22.5488 118.069 22.8288 117.605 23.0448C117.149 23.2528 116.561 23.3568 115.841 23.3568ZM124.58 23.3568C123.948 23.3568 123.36 23.2528 122.816 23.0448C122.28 22.8288 121.812 22.5288 121.412 22.1448C121.02 21.7528 120.712 21.3008 120.488 20.7888C120.272 20.2688 120.164 19.7008 120.164 19.0848C120.164 18.4688 120.272 17.9048 120.488 17.3928C120.712 16.8728 121.02 16.4208 121.412 16.0368C121.812 15.6448 122.28 15.3448 122.816 15.1368C123.352 14.9208 123.94 14.8128 124.58 14.8128C125.212 14.8128 125.796 14.9208 126.332 15.1368C126.868 15.3448 127.332 15.6408 127.724 16.0248C128.124 16.4088 128.432 16.8608 128.648 17.3808C128.872 17.9008 128.984 18.4688 128.984 19.0848C128.984 19.7008 128.872 20.2688 128.648 20.7888C128.432 21.3088 128.124 21.7608 127.724 22.1448C127.332 22.5288 126.868 22.8288 126.332 23.0448C125.796 23.2528 125.212 23.3568 124.58 23.3568ZM124.58 22.5648C125.084 22.5648 125.548 22.4808 125.972 22.3128C126.404 22.1368 126.776 21.8928 127.088 21.5808C127.408 21.2608 127.656 20.8928 127.832 20.4768C128.008 20.0528 128.096 19.5888 128.096 19.0848C128.096 18.5808 128.008 18.1208 127.832 17.7048C127.656 17.2808 127.408 16.9128 127.088 16.6008C126.776 16.2808 126.404 16.0368 125.972 15.8688C125.548 15.6928 125.084 15.6048 124.58 15.6048C124.076 15.6048 123.608 15.6928 123.176 15.8688C122.744 16.0368 122.368 16.2808 122.048 16.6008C121.736 16.9128 121.488 17.2808 121.304 17.7048C121.128 18.1208 121.04 18.5808 121.04 19.0848C121.04 19.5808 121.128 20.0408 121.304 20.4648C121.488 20.8888 121.736 21.2608 122.048 21.5808C122.368 21.8928 122.744 22.1368 123.176 22.3128C123.608 22.4808 124.076 22.5648 124.58 22.5648ZM130.974 23.2848V14.8848H131.706L135.546 21.4368H135.162L138.966 14.8848H139.698V23.2848H138.846V16.2168H139.05L135.546 22.2168H135.126L131.598 16.2168H131.826V23.2848H130.974Z" fill="#665F5F"/>
</svg>
