<svg width="471" height="504" viewBox="0 0 471 504" fill="none" xmlns="http://www.w3.org/2000/svg">
<path d="M445.404 30.0278H26.5957V448.292H445.404V30.0278Z" fill="white"/>
<path d="M166.634 90.1893C166.634 90.1893 103.171 122.483 71.5156 172.253C39.8603 222.022 42.3656 285.981 80.8315 333.52C119.297 381.059 192.815 374.794 254.367 404.892C315.92 434.989 383.839 428.796 412.946 365.02C442.052 301.245 398.163 277.423 390.624 203.625C383.086 129.827 316.467 21.7605 166.634 90.1893Z" fill="#2F80ED"/>
<path opacity="0.9" d="M166.634 90.1893C166.634 90.1893 103.171 122.483 71.5156 172.253C39.8603 222.022 42.3656 285.981 80.8315 333.52C119.297 381.059 192.815 374.794 254.367 404.892C315.92 434.989 383.839 428.796 412.946 365.02C442.052 301.245 398.163 277.423 390.624 203.625C383.086 129.827 316.467 21.7605 166.634 90.1893Z" fill="white"/>
<path d="M130.042 346.636C132.596 345.805 137.007 341.708 137.011 341.706C137.057 341.663 133.424 339.622 133.18 339.518C130.356 338.333 124.201 337.698 121.964 340.297C121.605 340.739 121.343 341.251 121.195 341.801C121.047 342.351 121.017 342.925 121.106 343.488C121.195 344.05 121.402 344.587 121.713 345.064C122.024 345.541 122.432 345.948 122.91 346.257C124.899 347.641 127.864 347.344 130.042 346.636Z" fill="#9C9C9C"/>
<path d="M176.451 307.209C176.513 307.199 174.609 303.494 174.465 303.277C172.764 300.731 167.981 296.811 164.679 297.747C164.136 297.918 163.634 298.201 163.207 298.578C162.78 298.955 162.437 299.418 162.201 299.936C161.965 300.454 161.841 301.016 161.836 301.585C161.832 302.154 161.948 302.718 162.176 303.239C163.07 305.488 165.71 306.875 167.915 307.485C170.504 308.196 176.445 307.209 176.451 307.209Z" fill="#9C9C9C"/>
<path d="M143.187 358.278C145.343 356.861 148.325 352.132 148.56 351.753C151.265 353.463 154.081 354.989 156.989 356.323C158.679 357.111 160.405 357.851 162.146 358.571C161.302 358.36 160.546 358.178 160.438 358.164C157.4 357.765 151.296 358.777 149.826 361.873C149.596 362.394 149.479 362.957 149.482 363.527C149.484 364.096 149.607 364.658 149.842 365.177C150.076 365.696 150.418 366.159 150.844 366.537C151.27 366.916 151.77 367.2 152.314 367.372C154.596 368.183 157.381 367.113 159.293 365.856C161.233 364.582 163.855 360.601 164.535 359.538C165.206 359.808 165.876 360.084 166.546 360.35C169.768 361.631 172.989 362.895 176.11 364.231C177.21 364.702 178.276 365.206 179.344 365.705C178.596 365.519 177.962 365.37 177.864 365.355C174.826 364.956 168.722 365.967 167.253 369.064C167.023 369.585 166.906 370.148 166.908 370.717C166.911 371.287 167.034 371.849 167.268 372.368C167.503 372.886 167.844 373.35 168.27 373.728C168.696 374.106 169.197 374.391 169.74 374.563C172.022 375.374 174.807 374.304 176.719 373.047C178.57 371.831 181.024 368.179 181.838 366.919C182.916 367.464 183.998 368.006 185.021 368.585C185.71 368.994 186.401 369.338 187.068 369.791L189.062 371.072C190.298 371.933 191.58 372.814 192.765 373.684C193.594 374.283 194.373 374.869 195.16 375.457C194.071 374.975 191.917 374.08 191.725 374.024C188.784 373.17 182.595 373.246 180.674 376.085C180.368 376.565 180.166 377.104 180.083 377.667C179.999 378.23 180.035 378.805 180.188 379.353C180.341 379.901 180.609 380.411 180.972 380.849C181.336 381.288 181.788 381.645 182.299 381.897C184.431 383.044 187.346 382.407 189.426 381.455C191.717 380.406 195.257 376.364 195.696 375.856C196.993 376.834 198.246 377.797 199.414 378.725C202.815 381.413 205.644 383.828 207.798 385.721L209.513 384.197C207.268 382.303 204.272 379.847 200.659 377.12C199.346 376.122 197.921 375.083 196.449 374.025C197.222 372.48 197.904 370.89 198.491 369.265C201.066 369.516 205.908 368.195 206.532 368.02C207.074 369.551 207.587 371.045 208.049 372.462C209.375 376.5 210.387 380.013 211.134 382.757L213.004 381.096C212.227 378.512 211.227 375.363 209.974 371.81C209.429 370.253 208.817 368.6 208.171 366.91C208.743 366.583 213.403 363.88 214.872 361.832C216.206 359.974 217.385 357.239 216.668 354.928C216.517 354.379 216.253 353.868 215.891 353.428C215.529 352.988 215.079 352.628 214.57 352.374C214.06 352.119 213.502 351.974 212.933 351.948C212.363 351.923 211.795 352.018 211.264 352.226C208.108 353.569 206.852 359.619 207.13 362.667C207.146 362.847 207.542 364.777 207.813 365.991C207.545 365.302 207.293 364.629 207.009 363.923C206.457 362.523 205.865 361.141 205.234 359.652L204.228 357.507C203.91 356.784 203.481 356.06 203.107 355.327C202.203 353.648 201.206 351.989 200.164 350.341C201.391 349.855 205.723 348.068 207.33 346.426C208.938 344.784 210.513 342.266 210.152 339.874C210.086 339.308 209.902 338.763 209.612 338.273C209.321 337.784 208.931 337.361 208.465 337.031C208 336.702 207.471 336.475 206.912 336.364C206.353 336.252 205.777 336.26 205.221 336.386C201.897 337.235 199.737 343.026 199.55 346.08C199.539 346.271 199.651 348.477 199.735 349.688C199.102 348.702 198.474 347.715 197.801 346.738C195.856 343.919 193.8 341.125 191.761 338.33C191.136 337.473 190.523 336.613 189.907 335.754C190.346 335.587 195.54 333.572 197.34 331.733C198.94 330.099 200.523 327.573 200.162 325.181C200.096 324.616 199.912 324.07 199.622 323.581C199.331 323.091 198.941 322.668 198.476 322.339C198.011 322.01 197.481 321.782 196.923 321.671C196.364 321.56 195.787 321.567 195.232 321.693C191.907 322.542 189.748 328.333 189.56 331.387C189.546 331.617 189.713 334.792 189.794 335.598C188.438 333.705 187.103 331.806 185.864 329.882C184.177 327.291 182.66 324.593 181.322 321.806C181.526 321.728 186.958 319.651 188.8 317.768C190.4 316.133 191.983 313.608 191.622 311.215C191.557 310.65 191.373 310.104 191.083 309.615C190.792 309.125 190.402 308.702 189.937 308.373C189.471 308.044 188.942 307.816 188.383 307.705C187.824 307.593 187.248 307.601 186.692 307.727C183.368 308.576 181.208 314.367 181.021 317.422C181.009 317.621 181.133 320.04 181.219 321.186L181.029 321.234C179.76 318.393 178.747 315.445 178.003 312.424C177.571 310.767 177.249 309.162 176.977 307.586C178.029 307.304 182.818 305.955 184.664 304.444C186.434 302.995 188.285 300.658 188.191 298.241C188.187 297.672 188.064 297.109 187.829 296.591C187.594 296.072 187.253 295.609 186.827 295.231C186.4 294.852 185.899 294.568 185.356 294.396C184.812 294.225 184.239 294.169 183.672 294.233C180.276 294.712 177.493 300.232 176.972 303.247C176.943 303.414 176.839 305.11 176.781 306.348C176.667 305.637 176.538 304.905 176.445 304.22C176.082 301.656 175.908 299.285 175.77 297.182C175.702 295.986 175.663 294.903 175.639 293.89C176.525 293.074 180.056 289.743 180.98 287.591C181.882 285.49 182.446 282.565 181.247 280.464C180.981 279.96 180.613 279.517 180.165 279.165C179.717 278.813 179.2 278.559 178.647 278.419C178.095 278.28 177.519 278.258 176.957 278.355C176.396 278.453 175.861 278.667 175.388 278.985C172.594 280.974 172.671 287.153 173.598 290.07C173.682 290.321 175.386 294.119 175.433 294.077L175.487 294.028C175.487 295.003 175.507 296.049 175.548 297.192C175.64 299.301 175.763 301.683 176.072 304.266C176.373 307.054 176.838 309.821 177.463 312.555C178.148 315.62 179.105 318.618 180.323 321.513C180.337 321.546 180.357 321.58 180.371 321.614C179.717 320.852 177.816 318.783 177.652 318.641C175.339 316.634 169.689 314.115 166.753 315.887C166.273 316.195 165.864 316.601 165.552 317.077C165.24 317.553 165.032 318.09 164.941 318.652C164.85 319.214 164.879 319.788 165.025 320.339C165.171 320.889 165.431 321.402 165.789 321.845C167.246 323.778 170.159 324.421 172.448 324.426C175.028 324.432 180.128 322.13 180.533 321.945C181.845 324.861 183.35 327.685 185.039 330.4C186.013 331.99 187.044 333.556 188.098 335.116C187.511 334.476 186.981 333.908 186.898 333.836C184.585 331.828 178.935 329.309 175.999 331.083C175.52 331.391 175.111 331.796 174.799 332.272C174.487 332.748 174.278 333.285 174.187 333.847C174.097 334.409 174.125 334.983 174.271 335.533C174.418 336.084 174.678 336.597 175.036 337.04C176.492 338.974 179.406 339.615 181.694 339.621C184.016 339.626 188.403 337.751 189.557 337.24C189.968 337.834 190.371 338.431 190.784 339.023C192.764 341.867 194.752 344.696 196.617 347.53C197.275 348.528 197.886 349.537 198.501 350.541C197.979 349.973 197.534 349.498 197.46 349.433C195.146 347.425 189.496 344.907 186.56 346.681C186.08 346.989 185.671 347.394 185.359 347.87C185.047 348.346 184.839 348.883 184.748 349.445C184.657 350.007 184.686 350.581 184.832 351.132C184.978 351.682 185.239 352.195 185.597 352.638C187.053 354.571 189.967 355.213 192.256 355.218C194.471 355.224 198.538 353.529 199.911 352.927C200.509 353.976 201.11 355.026 201.643 356.069C201.99 356.79 202.376 357.459 202.685 358.203C203.005 358.933 203.323 359.655 203.639 360.37C204.195 361.769 204.777 363.21 205.285 364.588C205.646 365.544 205.971 366.463 206.302 367.386C205.66 366.383 204.359 364.45 204.233 364.301C202.414 362.314 200.115 360.826 197.557 359.979C197.365 359.749 197.151 359.537 196.919 359.347C196.49 358.972 195.987 358.691 195.442 358.523C194.897 358.355 194.324 358.304 193.758 358.372C193.192 358.44 192.647 358.626 192.158 358.919C191.669 359.211 191.247 359.603 190.92 360.069C189.027 362.928 191.322 368.667 193.238 371.056C193.35 371.197 194.746 372.588 195.644 373.452C195.04 373.024 194.458 372.602 193.831 372.17C192.597 371.306 191.34 370.48 189.991 369.587L187.97 368.349C187.305 367.92 186.546 367.554 185.831 367.148C184.15 366.245 182.402 365.411 180.623 364.611C181.377 363.53 184.002 359.653 184.436 357.398C184.87 355.142 184.792 352.174 183.171 350.378C182.804 349.943 182.349 349.589 181.836 349.341C181.323 349.092 180.764 348.954 180.194 348.936C179.624 348.918 179.057 349.02 178.529 349.235C178.001 349.45 177.525 349.774 177.131 350.185C174.828 352.725 176.225 358.745 177.756 361.394C177.852 361.562 179.164 363.339 179.904 364.301C178.83 363.828 177.762 363.351 176.661 362.908C173.478 361.627 170.223 360.43 166.978 359.221C165.984 358.852 164.999 358.468 164.009 358.094C164.282 357.713 167.502 353.171 167.987 350.649C168.419 348.405 168.344 345.426 166.722 343.63C166.355 343.194 165.901 342.841 165.388 342.592C164.875 342.344 164.315 342.206 163.746 342.188C163.176 342.17 162.609 342.271 162.081 342.487C161.553 342.702 161.077 343.026 160.682 343.437C158.38 345.976 159.778 351.997 161.308 354.646C161.424 354.846 163.318 357.407 163.828 358.029C161.651 357.198 159.49 356.349 157.393 355.427C154.555 354.195 151.799 352.782 149.144 351.194C149.272 351.016 152.654 346.291 153.151 343.704C153.583 341.461 153.507 338.481 151.886 336.685C151.519 336.25 151.064 335.896 150.551 335.648C150.038 335.399 149.479 335.261 148.909 335.243C148.34 335.225 147.772 335.327 147.245 335.542C146.717 335.757 146.241 336.081 145.847 336.492C143.543 339.032 144.941 345.052 146.471 347.701C146.572 347.875 148.013 349.826 148.719 350.736L148.587 350.881C145.959 349.211 143.485 347.309 141.195 345.199C139.92 344.054 138.766 342.889 137.668 341.729C138.388 340.915 141.638 337.151 142.344 334.87C143.019 332.686 143.273 329.718 141.858 327.754C141.541 327.281 141.128 326.88 140.645 326.577C140.163 326.274 139.622 326.075 139.057 325.995C138.493 325.914 137.918 325.953 137.37 326.109C136.822 326.265 136.313 326.535 135.876 326.9C133.307 329.171 134.033 335.308 135.265 338.11C135.331 338.262 136.186 339.736 136.819 340.802C136.331 340.27 135.819 339.732 135.361 339.212C133.641 337.272 132.186 335.39 130.91 333.713C130.192 332.753 129.562 331.873 128.984 331.036C129.272 329.865 130.377 325.144 129.959 322.838C129.552 320.589 128.406 317.837 126.245 316.746C125.745 316.472 125.193 316.306 124.625 316.259C124.057 316.212 123.486 316.285 122.948 316.473C122.41 316.661 121.917 316.961 121.503 317.351C121.088 317.742 120.761 318.215 120.541 318.741C119.31 321.939 122.787 327.051 125.172 328.972C125.378 329.14 128.9 331.365 128.916 331.304L128.933 331.233C129.476 332.044 130.067 332.906 130.732 333.838C131.974 335.547 133.392 337.466 135.077 339.451C136.869 341.609 138.785 343.661 140.816 345.597C143.08 347.775 145.534 349.748 148.148 351.492C148.18 351.513 148.214 351.53 148.245 351.55C147.279 351.275 144.55 350.597 144.335 350.569C141.297 350.17 135.193 351.181 133.724 354.277C133.494 354.798 133.377 355.362 133.379 355.931C133.382 356.5 133.505 357.063 133.739 357.581C133.974 358.1 134.315 358.564 134.741 358.942C135.167 359.321 135.668 359.605 136.211 359.777C138.491 360.604 141.276 359.537 143.187 358.278Z" fill="#9C9C9C"/>
<path d="M299.895 146.068C301.683 149.057 308.146 153.452 308.151 153.455C308.218 153.5 309.758 148.322 309.818 147.984C310.508 144.072 309.538 136.111 305.6 134.033C304.937 133.706 304.212 133.523 303.473 133.494C302.734 133.466 301.997 133.593 301.31 133.868C300.623 134.142 300.002 134.558 299.487 135.088C298.972 135.619 298.575 136.251 298.32 136.945C297.139 139.855 298.371 143.521 299.895 146.068Z" fill="#9C9C9C"/>
<path d="M363.228 193.359C363.259 193.433 367.404 189.963 367.641 189.713C370.377 186.832 373.966 179.656 371.829 175.754C371.456 175.116 370.953 174.564 370.352 174.132C369.752 173.701 369.067 173.401 368.342 173.252C367.618 173.103 366.87 173.108 366.148 173.266C365.425 173.424 364.744 173.733 364.149 174.172C361.552 175.948 360.559 179.685 360.423 182.648C360.263 186.125 363.226 193.353 363.228 193.359Z" fill="#9C9C9C"/>
<path d="M288.93 166.032C291.346 168.349 298.199 170.755 298.745 170.944C297.359 174.854 296.235 178.853 295.383 182.913C294.872 185.275 294.431 187.671 294.02 190.078C294.044 188.951 294.058 187.943 294.044 187.802C293.675 183.847 290.634 176.425 286.287 175.459C285.561 175.319 284.813 175.333 284.093 175.501C283.372 175.668 282.695 175.985 282.105 176.431C281.516 176.877 281.026 177.442 280.67 178.09C280.313 178.737 280.097 179.452 280.035 180.188C279.666 183.306 281.824 186.517 283.967 188.572C286.145 190.656 291.941 192.824 293.484 193.377C293.336 194.302 293.177 195.224 293.033 196.149C292.339 200.59 291.666 205.025 290.872 209.355C290.593 210.881 290.261 212.374 289.936 213.873C289.956 212.869 289.964 212.028 289.953 211.9C289.583 207.946 286.543 200.523 282.195 199.557C281.469 199.417 280.721 199.431 280.001 199.598C279.28 199.766 278.603 200.083 278.013 200.529C277.424 200.975 276.935 201.54 276.578 202.187C276.221 202.835 276.005 203.55 275.944 204.286C275.575 207.404 277.733 210.615 279.875 212.669C281.95 214.658 287.286 216.708 289.116 217.373C288.736 218.893 288.362 220.418 287.921 221.873C287.601 222.861 287.361 223.835 286.983 224.809L285.934 227.696C285.199 229.507 284.453 231.377 283.691 233.134C283.172 234.354 282.654 235.508 282.134 236.67C282.431 235.156 282.946 232.176 282.961 231.922C283.196 227.957 281.317 220.16 277.166 218.548C276.47 218.3 275.729 218.2 274.991 218.257C274.253 218.313 273.536 218.524 272.885 218.876C272.235 219.228 271.666 219.712 271.215 220.298C270.764 220.884 270.442 221.558 270.269 222.276C269.432 225.302 271.077 228.801 272.884 231.158C274.872 233.751 281.014 237.059 281.784 237.467C280.919 239.391 280.06 241.25 279.22 242.994C276.791 248.067 274.551 252.338 272.771 255.604L275.195 257.334C276.949 253.951 279.192 249.458 281.612 244.106C282.498 242.157 283.406 240.058 284.318 237.893C286.498 238.425 288.708 238.828 290.935 239.101C291.354 242.43 294.428 248.169 294.83 248.906C293.048 250.032 291.302 251.111 289.637 252.103C284.901 254.942 280.742 257.234 277.481 258.968L280.124 260.854C283.174 259.127 286.877 256.955 291.018 254.348C292.833 253.212 294.751 251.961 296.706 250.658C297.286 251.286 302.055 256.397 305.073 257.665C307.811 258.814 311.618 259.519 314.337 257.945C314.99 257.597 315.561 257.115 316.015 256.531C316.469 255.948 316.794 255.275 316.97 254.557C317.146 253.84 317.169 253.093 317.038 252.366C316.906 251.639 316.622 250.948 316.205 250.338C313.594 246.735 305.568 246.89 301.784 248.12C301.56 248.193 299.229 249.249 297.768 249.941C298.565 249.405 299.344 248.892 300.157 248.33C301.773 247.229 303.353 246.082 305.057 244.855L307.487 242.971C308.312 242.361 309.105 241.609 309.925 240.926C311.793 239.3 313.61 237.562 315.395 235.77C316.364 237.181 319.878 242.14 322.421 243.698C324.964 245.257 328.61 246.521 331.536 245.376C332.234 245.131 332.872 244.741 333.409 244.233C333.946 243.724 334.37 243.109 334.653 242.426C334.936 241.744 335.072 241.009 335.052 240.27C335.032 239.532 334.856 238.806 334.537 238.139C332.502 234.183 324.542 233.12 320.618 233.766C320.373 233.805 317.61 234.583 316.1 235.04C317.167 233.953 318.236 232.877 319.283 231.744C322.298 228.474 325.242 225.07 328.197 221.688C329.102 220.651 330.016 219.63 330.927 218.603C331.262 219.105 335.315 225.094 338.163 226.839C340.695 228.39 344.352 229.662 347.279 228.517C347.977 228.271 348.615 227.881 349.151 227.373C349.688 226.865 350.112 226.25 350.395 225.567C350.678 224.884 350.814 224.15 350.794 223.412C350.774 222.673 350.598 221.947 350.279 221.281C348.244 217.324 340.283 216.262 336.36 216.907C336.064 216.955 332.088 218.078 331.092 218.412C333.103 216.154 335.121 213.919 337.203 211.798C340 208.919 342.981 206.225 346.127 203.731C346.285 203.967 350.483 210.233 353.4 212.02C355.931 213.571 359.588 214.844 362.515 213.699C363.213 213.453 363.851 213.063 364.388 212.555C364.925 212.046 365.348 211.431 365.631 210.748C365.914 210.066 366.05 209.331 366.03 208.593C366.01 207.854 365.834 207.128 365.515 206.462C363.481 202.505 355.52 201.443 351.597 202.088C351.339 202.13 348.311 202.984 346.879 203.427L346.763 203.201C349.997 200.778 353.441 198.648 357.054 196.838C359.031 195.815 360.976 194.948 362.889 194.147C363.551 195.395 366.639 201.06 369.087 202.958C371.433 204.777 374.928 206.443 377.966 205.626C378.687 205.459 379.365 205.141 379.956 204.695C380.546 204.248 381.035 203.682 381.392 203.034C381.748 202.386 381.964 201.67 382.025 200.933C382.086 200.196 381.991 199.454 381.745 198.757C380.159 194.601 372.364 192.673 368.393 192.882C368.177 192.894 365.994 193.252 364.408 193.535C365.277 193.188 366.167 192.812 367.005 192.494C370.151 191.296 373.106 190.392 375.73 189.612C377.226 189.182 378.586 188.822 379.863 188.498C381.152 189.383 386.39 192.886 389.384 193.434C392.304 193.968 396.175 193.839 398.492 191.717C399.054 191.237 399.508 190.644 399.826 189.976C400.143 189.309 400.316 188.582 400.334 187.844C400.351 187.105 400.213 186.371 399.928 185.689C399.642 185.008 399.216 184.394 398.678 183.887C395.352 180.929 387.544 182.806 384.116 184.819C383.82 184.993 379.5 188.249 379.567 188.292L379.645 188.347C378.409 188.633 377.089 188.955 375.653 189.336C373.007 190.059 370.024 190.901 366.839 192.036C363.394 193.22 360.021 194.605 356.738 196.183C353.051 197.93 349.528 200.001 346.21 202.373C346.172 202.401 346.135 202.436 346.096 202.464C346.873 201.418 348.944 198.419 349.08 198.17C350.956 194.669 352.521 186.802 349.429 183.602C348.9 183.085 348.268 182.685 347.575 182.428C346.881 182.17 346.141 182.062 345.403 182.109C344.665 182.157 343.945 182.359 343.29 182.702C342.635 183.046 342.06 183.524 341.602 184.104C339.572 186.501 339.597 190.368 340.25 193.262C340.985 196.525 345.372 202.307 345.723 202.766C342.407 205.264 339.261 207.98 336.307 210.896C334.577 212.585 332.886 214.341 331.213 216.122C331.856 215.195 332.423 214.365 332.49 214.236C334.366 210.735 335.931 202.868 332.839 199.668C332.31 199.151 331.679 198.751 330.985 198.494C330.291 198.237 329.551 198.129 328.813 198.176C328.075 198.223 327.355 198.425 326.7 198.769C326.045 199.113 325.47 199.59 325.012 200.17C322.982 202.568 323.008 206.435 323.66 209.329C324.322 212.265 327.962 217.269 328.943 218.581C328.309 219.271 327.667 219.952 327.036 220.645C324.003 223.966 320.992 227.295 317.938 230.468C316.863 231.587 315.76 232.649 314.665 233.717C315.234 232.893 315.708 232.194 315.769 232.081C317.645 228.58 319.21 220.713 316.116 217.513C315.588 216.996 314.957 216.596 314.263 216.338C313.569 216.081 312.829 215.973 312.091 216.02C311.353 216.067 310.633 216.269 309.978 216.613C309.323 216.957 308.748 217.435 308.29 218.015C306.26 220.412 306.286 224.28 306.939 227.173C307.57 229.975 310.889 234.624 312.048 236.188C310.891 237.246 309.735 238.309 308.566 239.283C307.753 239.93 307.015 240.61 306.162 241.214L303.692 243.045C302.079 244.151 300.425 245.303 298.821 246.341C297.712 247.073 296.643 247.749 295.568 248.432C296.652 247.331 298.728 245.13 298.881 244.927C300.875 242.056 302.098 238.722 302.434 235.244C302.671 234.935 302.878 234.603 303.052 234.255C303.404 233.605 303.614 232.888 303.67 232.151C303.726 231.415 303.625 230.674 303.376 229.979C303.126 229.283 302.733 228.648 302.222 228.115C301.71 227.581 301.092 227.161 300.407 226.881C296.24 225.315 289.629 229.869 287.154 232.977C287.008 233.16 285.646 235.327 284.809 236.708C285.177 235.821 285.543 234.966 285.911 234.048C286.65 232.239 287.335 230.413 288.078 228.45C288.404 227.49 288.732 226.52 289.064 225.54C289.415 224.576 289.662 223.513 289.969 222.491C290.629 220.106 291.181 217.656 291.683 215.177C293.275 215.819 298.94 218.021 301.922 217.918C304.891 217.817 308.643 216.863 310.452 214.296C310.899 213.707 311.215 213.03 311.382 212.31C311.549 211.591 311.563 210.844 311.422 210.119C311.281 209.393 310.988 208.706 310.564 208.101C310.139 207.496 309.592 206.987 308.957 206.607C305.075 204.432 297.85 207.929 294.932 210.628C294.75 210.795 292.874 212.97 291.867 214.18C292.158 212.686 292.454 211.198 292.699 209.678C293.406 205.291 293.984 200.829 294.581 196.377C294.762 195.015 294.96 193.66 295.153 192.301C295.715 192.536 302.398 195.297 305.738 195.183C308.705 195.082 312.459 194.128 314.268 191.561C314.714 190.971 315.031 190.295 315.198 189.575C315.365 188.855 315.378 188.109 315.237 187.383C315.096 186.658 314.804 185.971 314.379 185.366C313.955 184.761 313.407 184.252 312.773 183.872C308.89 181.697 301.664 185.195 298.747 187.893C298.527 188.096 295.834 191.224 295.187 192.053C295.613 189.062 296.065 186.086 296.63 183.17C297.373 179.227 298.371 175.337 299.618 171.524C299.879 171.634 306.841 174.547 310.262 174.431C313.23 174.33 316.983 173.376 318.792 170.809C319.238 170.22 319.555 169.543 319.722 168.823C319.889 168.104 319.902 167.357 319.761 166.632C319.62 165.907 319.328 165.219 318.903 164.614C318.479 164.009 317.931 163.5 317.297 163.12C313.414 160.94 306.189 164.442 303.272 167.136C303.08 167.313 301.023 169.696 300.074 170.851L299.852 170.726C301.211 166.923 302.907 163.248 304.922 159.747C306.005 157.806 307.149 156.01 308.301 154.288C309.543 154.964 315.248 157.988 318.338 158.22C321.3 158.445 325.134 157.91 327.217 155.556C327.725 155.019 328.114 154.381 328.36 153.684C328.605 152.987 328.7 152.246 328.64 151.51C328.579 150.774 328.364 150.058 328.009 149.411C327.653 148.763 327.165 148.197 326.576 147.75C322.957 145.157 315.39 147.845 312.194 150.207C312.02 150.336 310.397 151.837 309.231 152.947C309.763 152.178 310.298 151.375 310.823 150.648C312.784 147.915 314.75 145.532 316.508 143.437C317.514 142.253 318.453 141.203 319.34 140.23C320.903 140.258 327.207 140.293 330.007 139.101C332.739 137.938 335.895 135.698 336.656 132.652C336.859 131.941 336.91 131.196 336.806 130.465C336.702 129.733 336.445 129.032 336.052 128.406C335.658 127.78 335.138 127.245 334.523 126.833C333.909 126.422 333.214 126.144 332.485 126.019C328.078 125.384 322.601 131.251 320.855 134.819C320.704 135.127 318.897 140.22 318.979 140.222H319.073C318.202 141.142 317.278 142.138 316.291 143.246C314.484 145.307 312.46 147.653 310.427 150.357C308.208 153.243 306.16 156.256 304.293 159.38C302.183 162.87 300.389 166.54 298.932 170.347C298.915 170.392 298.903 170.441 298.887 170.486C298.957 169.185 299.03 165.541 299.004 165.26C298.635 161.306 295.594 153.884 291.248 152.917C290.521 152.777 289.773 152.791 289.053 152.958C288.332 153.126 287.655 153.443 287.065 153.889C286.475 154.335 285.986 154.9 285.629 155.547C285.273 156.195 285.056 156.91 284.995 157.646C284.63 160.766 286.788 163.978 288.93 166.032Z" fill="#9C9C9C"/>
<path d="M339.588 313.287V310.485C339.588 296.056 357.881 295.433 357.881 285.157C357.881 280.693 354.243 277.787 348.835 277.787C342.909 277.787 339.168 281.004 339.168 285.572V286.713C339.168 287.855 338.544 288.375 337.4 288.375L326.279 287.956C325.24 287.956 324.512 287.438 324.512 286.711V285.57C324.512 273.009 334.49 264.393 349.146 264.393C363.489 264.393 372.74 272.49 372.74 284.637C372.74 301.87 354.135 301.972 354.135 311.418V313.287C354.163 313.526 354.137 313.767 354.058 313.994C353.979 314.221 353.85 314.427 353.68 314.597C353.51 314.767 353.303 314.896 353.076 314.975C352.849 315.053 352.607 315.08 352.368 315.052H341.355C341.116 315.08 340.874 315.053 340.647 314.975C340.42 314.896 340.213 314.767 340.043 314.597C339.873 314.427 339.744 314.221 339.665 313.994C339.586 313.767 339.56 313.526 339.588 313.287ZM338.652 330C338.652 325.433 342.706 321.695 347.591 321.695C352.268 321.695 356.426 325.433 356.426 330C356.426 334.568 352.268 338.304 347.487 338.304C342.602 338.304 338.652 334.567 338.652 330Z" fill="#545454"/>
<path d="M120.457 194.471L120.461 194.441V194.411V191.98C120.461 185.985 124.23 182.849 128.194 180.036C128.523 179.803 128.855 179.571 129.186 179.34C130.824 178.193 132.45 177.056 133.722 175.773C135.27 174.212 136.349 172.385 136.349 169.98C136.349 167.893 135.493 166.149 133.998 164.937C132.511 163.733 130.428 163.079 127.995 163.079C125.335 163.079 123.116 163.801 121.551 165.086C119.978 166.376 119.1 168.21 119.1 170.341V171.332C119.1 171.74 118.991 171.945 118.868 172.057C118.737 172.176 118.499 172.274 118.074 172.275L108.424 171.914L108.415 171.914H108.406C108.032 171.914 107.756 171.82 107.588 171.702C107.429 171.589 107.37 171.461 107.37 171.332V170.34C107.37 165.027 109.476 160.568 113.121 157.431C116.772 154.289 121.997 152.447 128.266 152.447C134.404 152.447 139.402 154.179 142.858 157.16C146.306 160.136 148.259 164.39 148.259 169.528C148.259 173.171 147.278 175.885 145.82 178.043C144.354 180.211 142.391 181.84 140.386 183.289C139.805 183.709 139.216 184.117 138.633 184.52C137.233 185.487 135.875 186.426 134.786 187.43C133.216 188.876 132.099 190.544 132.099 192.789V194.411V194.441L132.103 194.471C132.119 194.603 132.104 194.737 132.061 194.862L132.533 195.026L132.061 194.862C132.017 194.988 131.946 195.102 131.852 195.196C131.757 195.29 131.643 195.362 131.517 195.405L131.68 195.878L131.517 195.405C131.391 195.449 131.257 195.463 131.124 195.447L131.095 195.444H131.065H121.498H121.468L121.438 195.448C121.305 195.464 121.171 195.449 121.045 195.406C120.918 195.362 120.804 195.291 120.709 195.197C120.615 195.102 120.543 194.988 120.5 194.862C120.456 194.737 120.441 194.603 120.457 194.471ZM119.649 208.82C119.713 205.212 122.946 202.214 126.912 202.214C130.735 202.214 134.085 205.272 134.085 208.928C134.085 212.58 130.739 215.64 126.822 215.64V215.64L126.808 215.64C124.966 215.692 123.18 215.012 121.839 213.751C120.498 212.49 119.712 210.75 119.652 208.912L119.649 208.82Z" fill="#5896C8" stroke="#5896C8"/>
<path d="M322.626 98.4798L322.63 98.4502V98.4205V97.1908C322.63 94.2949 324.434 92.7746 326.433 91.3562C326.596 91.2403 326.762 91.1245 326.928 91.0083C327.755 90.4296 328.598 89.8399 329.258 89.1749C330.07 88.3567 330.657 87.375 330.657 86.075C330.657 84.9474 330.192 83.9953 329.377 83.3351C328.572 82.6828 327.46 82.341 326.189 82.341C324.803 82.341 323.622 82.7178 322.777 83.4109C321.924 84.1106 321.447 85.1072 321.447 86.2573V86.7593C321.447 86.8406 321.436 86.8887 321.427 86.9137C321.419 86.9352 321.412 86.9411 321.411 86.9426L321.41 86.9427C321.407 86.9456 321.358 86.9874 321.18 86.9887L316.309 86.8067L316.3 86.8063H316.291C316.14 86.8063 316.054 86.7681 316.021 86.7443C316.018 86.7428 316.017 86.7414 316.015 86.7401V86.2573C316.015 83.6432 317.049 81.4597 318.835 79.9229C320.626 78.3809 323.206 77.4644 326.326 77.4644C329.382 77.4644 331.846 78.3263 333.537 79.7856C335.222 81.239 336.181 83.318 336.181 85.8474C336.181 87.6393 335.7 88.9623 334.991 90.0112C334.275 91.0702 333.311 91.8731 332.305 92.5999C332.022 92.8042 331.731 93.0058 331.44 93.2069C330.726 93.7004 330.016 94.191 329.452 94.7109C328.632 95.4664 328.015 96.37 328.015 97.6007V98.4205V98.4502L328.018 98.4798C328.022 98.5093 328.019 98.5392 328.009 98.5672C327.999 98.5953 327.983 98.6208 327.962 98.642L328.316 98.9955L327.962 98.642C327.941 98.6631 327.915 98.6791 327.887 98.689C327.859 98.6988 327.828 98.7021 327.799 98.6985L327.769 98.6951H327.74H322.904H322.875L322.846 98.6985C322.816 98.7021 322.786 98.6988 322.757 98.689C322.729 98.6791 322.703 98.6631 322.682 98.642C322.661 98.6208 322.645 98.5953 322.635 98.5672C322.626 98.5392 322.623 98.5093 322.626 98.4798ZM322.218 105.739L322.218 105.731L322.217 105.722C322.172 105.04 322.333 104.36 322.68 103.77C323.027 103.181 323.544 102.71 324.163 102.418C324.783 102.126 325.476 102.027 326.152 102.134C326.829 102.241 327.457 102.549 327.956 103.017C328.454 103.486 328.8 104.094 328.948 104.761C329.095 105.429 329.039 106.125 328.784 106.76C328.53 107.395 328.09 107.938 327.522 108.32C326.954 108.702 326.284 108.904 325.599 108.9L325.59 108.9L325.581 108.9C324.715 108.925 323.875 108.607 323.245 108.014C322.614 107.421 322.245 106.603 322.218 105.739Z" fill="#5896C8" stroke="#5896C8"/>
<path d="M86.8891 267.602V266.055C86.8891 258.075 97.0058 257.73 97.0058 252.046C97.0058 249.577 94.9955 247.971 92.0052 247.971C88.7285 247.971 86.6596 249.75 86.6596 252.276V252.908C86.6596 253.539 86.3145 253.828 85.6821 253.828L79.5315 253.598C78.956 253.598 78.554 253.311 78.554 252.909V252.278C78.554 245.335 84.0722 240.566 92.1778 240.566C100.11 240.566 105.226 245.044 105.226 251.761C105.226 261.291 94.9369 261.348 94.9369 266.572V267.602C94.9525 267.734 94.938 267.868 94.8944 267.993C94.8508 268.119 94.7792 268.233 94.6851 268.327C94.591 268.421 94.4768 268.492 94.3511 268.535C94.2254 268.579 94.0915 268.593 93.9594 268.578H87.8657C87.7337 268.593 87.5999 268.579 87.4743 268.535C87.3487 268.492 87.2346 268.42 87.1406 268.326C87.0466 268.232 86.9751 268.119 86.9316 267.993C86.888 267.868 86.8735 267.734 86.8891 267.602ZM86.3714 276.845C86.3057 275.859 86.5388 274.876 87.0403 274.024C87.5419 273.172 88.2887 272.491 89.1835 272.069C90.0783 271.647 91.0795 271.504 92.0568 271.659C93.0341 271.813 93.9422 272.258 94.6627 272.936C95.3833 273.613 95.8829 274.491 96.0965 275.456C96.31 276.421 96.2277 277.428 95.8602 278.345C95.4927 279.263 94.8571 280.048 94.036 280.6C93.215 281.152 92.2467 281.443 91.2573 281.437C90.0006 281.473 88.7811 281.01 87.8654 280.15C86.9497 279.29 86.4126 278.102 86.3714 276.847V276.845Z" stroke="#545454" stroke-miterlimit="10"/>
<path d="M163.94 123.202V122.136C163.94 116.648 170.899 116.41 170.899 112.501C170.899 110.803 169.515 109.698 167.459 109.698C165.206 109.698 163.782 110.922 163.782 112.659V113.096C163.782 113.53 163.545 113.727 163.112 113.727L158.882 113.57C158.486 113.57 158.211 113.372 158.211 113.096V112.662C158.211 107.883 162.007 104.606 167.582 104.606C173.038 104.606 176.557 107.686 176.557 112.302C176.557 118.857 169.48 118.896 169.48 122.49V123.2C169.49 123.291 169.48 123.382 169.45 123.468C169.42 123.554 169.371 123.632 169.306 123.696C169.242 123.761 169.164 123.81 169.078 123.84C168.992 123.87 168.9 123.88 168.81 123.87H164.622C164.53 123.882 164.438 123.873 164.35 123.844C164.263 123.815 164.183 123.766 164.118 123.702C164.052 123.638 164.002 123.559 163.971 123.472C163.94 123.386 163.93 123.293 163.94 123.202ZM163.584 129.56C163.539 128.881 163.699 128.205 164.044 127.619C164.389 127.034 164.902 126.565 165.518 126.275C166.133 125.985 166.822 125.886 167.494 125.992C168.166 126.099 168.791 126.405 169.286 126.87C169.782 127.336 170.126 127.94 170.273 128.604C170.42 129.267 170.363 129.96 170.111 130.591C169.858 131.222 169.421 131.762 168.856 132.142C168.292 132.521 167.626 132.722 166.945 132.718C166.08 132.744 165.241 132.425 164.61 131.833C163.98 131.241 163.611 130.423 163.584 129.56Z" fill="#545454"/>
<path d="M287.941 352.538V351.472C287.941 345.984 294.9 345.746 294.9 341.837C294.9 340.14 293.516 339.034 291.46 339.034C289.206 339.034 287.783 340.258 287.783 341.995V342.429C287.783 342.864 287.545 343.062 287.113 343.062L282.882 342.904C282.487 342.904 282.212 342.706 282.212 342.429V341.995C282.212 337.217 286.007 333.939 291.583 333.939C297.039 333.939 300.558 337.02 300.558 341.64C300.558 348.195 293.481 348.234 293.481 351.828V352.538C293.491 352.628 293.481 352.72 293.451 352.806C293.421 352.892 293.372 352.97 293.307 353.034C293.243 353.099 293.165 353.148 293.079 353.178C292.993 353.208 292.901 353.218 292.811 353.207H288.622C288.531 353.219 288.438 353.211 288.351 353.182C288.263 353.152 288.183 353.104 288.118 353.039C288.052 352.975 288.002 352.896 287.971 352.809C287.94 352.722 287.93 352.629 287.941 352.538V352.538ZM287.585 358.896C287.54 358.218 287.701 357.542 288.046 356.956C288.391 356.371 288.904 355.902 289.519 355.612C290.135 355.322 290.823 355.224 291.495 355.33C292.167 355.436 292.791 355.742 293.287 356.208C293.782 356.674 294.126 357.278 294.273 357.941C294.42 358.604 294.363 359.297 294.11 359.928C293.858 360.558 293.421 361.099 292.856 361.478C292.292 361.857 291.626 362.058 290.946 362.054C290.081 362.08 289.242 361.761 288.612 361.169C287.982 360.577 287.613 359.759 287.585 358.896V358.896Z" stroke="#545454" stroke-miterlimit="10"/>
<path d="M255.141 371.574C255.083 371.397 255.021 371.22 254.957 371.044C254.893 370.867 254.835 370.689 254.772 370.512C254.708 370.336 254.651 370.157 254.587 369.98C254.522 369.804 254.466 369.626 254.402 369.45C254.339 369.274 254.282 369.095 254.218 368.919C254.154 368.742 254.097 368.564 254.033 368.388C253.969 368.211 253.912 368.033 253.849 367.856C253.785 367.68 253.727 367.501 253.664 367.324C253.6 367.148 253.543 366.971 253.479 366.794C253.416 366.618 253.358 366.439 253.294 366.262C253.231 366.086 253.174 365.908 253.11 365.733C253.046 365.557 252.988 365.377 252.925 365.2C252.861 365.022 252.804 364.846 252.741 364.669C252.677 364.493 252.619 364.315 252.555 364.138C252.492 363.962 252.435 363.783 252.371 363.607C252.307 363.43 252.251 363.252 252.186 363.077C252.122 362.901 252.065 362.721 252.002 362.545C251.938 362.37 251.88 362.19 251.817 362.013C251.753 361.837 251.696 361.659 251.632 361.483C248.897 353.187 240.456 347.095 231.163 347.095C222.162 347.095 214.327 352.336 211.098 359.713C211.014 359.88 210.941 360.053 210.866 360.225C210.79 360.396 210.709 360.565 210.634 360.738C210.558 360.91 210.477 361.077 210.401 361.249C210.326 361.42 210.245 361.589 210.169 361.761C210.094 361.932 210.013 362.102 209.937 362.274C209.862 362.445 209.781 362.614 209.705 362.785C209.63 362.957 209.55 363.126 209.474 363.297C209.399 363.469 209.318 363.638 209.241 363.809C209.165 363.981 209.086 364.15 209.01 364.321C208.935 364.493 208.854 364.662 208.778 364.834C208.703 365.006 208.622 365.174 208.546 365.345C208.471 365.517 208.39 365.687 208.313 365.859C208.237 366.031 208.158 366.198 208.082 366.369C208.007 366.54 207.925 366.71 207.85 366.882C207.775 367.053 207.694 367.222 207.619 367.394C207.544 367.565 207.462 367.734 207.386 367.906C207.31 368.077 207.23 368.246 207.155 368.418C207.079 368.589 206.998 368.759 206.922 368.931C206.846 369.102 206.766 369.271 206.691 369.443C206.615 369.614 206.534 369.783 206.459 369.955C205.02 372.988 204.272 376.302 204.269 379.658C204.269 393.121 215.912 404.135 230.31 404.135C244.403 404.135 256.657 393.121 256.657 379.658C256.654 377.083 256.204 374.528 255.326 372.107C255.265 371.927 255.205 371.749 255.141 371.574Z" fill="#545454"/>
<path d="M235.212 186.292C192.015 186.292 162.604 211.687 162.604 248.709V252.074C162.613 252.626 162.765 253.167 163.043 253.644C163.322 254.122 163.719 254.52 164.195 254.8C164.378 254.975 164.576 255.131 164.788 255.269C165.183 255.582 165.578 255.895 165.973 256.206C166.155 256.382 166.354 256.539 166.566 256.676C166.961 256.988 167.356 257.301 167.751 257.614C167.933 257.789 168.131 257.946 168.343 258.083C168.525 258.258 168.723 258.415 168.936 258.551C169.345 258.877 169.757 259.201 170.171 259.521C170.339 259.682 170.523 259.826 170.719 259.952C171.113 260.264 171.507 260.576 171.901 260.888C172.08 261.064 172.277 261.221 172.488 261.356C172.668 261.532 172.866 261.689 173.079 261.824C173.473 262.136 173.867 262.448 174.261 262.76C174.44 262.937 174.639 263.093 174.852 263.227C175.031 263.405 175.23 263.562 175.444 263.696C175.622 263.873 175.82 264.03 176.034 264.164C176.999 265.02 178.263 265.461 179.552 265.39L206.489 266.394C209.258 266.394 210.768 265.139 210.768 262.371V259.605C210.768 248.544 219.831 240.75 234.181 240.75C247.271 240.75 256.082 247.788 256.082 258.6C256.083 259.835 255.966 261.067 255.733 262.281C242.211 279.981 207.023 287.782 207.023 322.141V330.402C207.023 333.768 208.861 335.603 212.232 335.603H244.711C248.081 335.603 249.919 333.768 249.919 330.402V324.895C249.919 297.052 304.758 296.745 304.758 245.956C304.757 210.154 277.49 186.292 235.212 186.292Z" fill="#545454"/>
<path d="M207.027 330.397V322.136C207.027 279.606 260.947 277.771 260.947 247.48C260.947 234.324 250.225 225.757 234.293 225.757C216.83 225.757 205.801 235.242 205.801 248.704V252.07C205.801 255.436 203.964 256.965 200.593 256.965L167.812 255.741C164.749 255.741 162.604 254.212 162.604 252.07V248.704C162.604 211.683 192.015 186.288 235.212 186.288C277.49 186.288 304.757 210.153 304.757 245.95C304.757 296.74 249.918 297.046 249.918 324.889V330.397C249.918 333.762 248.075 335.598 244.709 335.598H212.235C208.861 335.598 207.027 333.762 207.027 330.397ZM204.269 379.657C204.269 366.195 216.218 355.179 230.617 355.179C244.403 355.179 256.657 366.195 256.657 379.657C256.657 393.119 244.403 404.134 230.31 404.134C215.911 404.134 204.269 393.12 204.269 379.657Z" fill="#5896C8" stroke="#5896C8" stroke-miterlimit="10"/>
<path d="M228.976 431.562C254.24 431.562 274.721 426.988 274.721 421.345C274.721 415.702 254.24 411.127 228.976 411.127C203.711 411.127 183.23 415.702 183.23 421.345C183.23 426.988 203.711 431.562 228.976 431.562Z" fill="#545454"/>
<path d="M194.009 189.676L192.26 193.498C192.26 193.498 182.094 194.585 182.094 195.353C182.094 196.121 182.204 201.358 182.75 201.576C183.172 201.74 183.64 201.74 184.062 201.576C184.499 201.466 199.038 197.755 199.038 197.755L200.462 190.986L194.009 189.676Z" fill="white" stroke="#545454" stroke-linecap="round" stroke-linejoin="round"/>
<path d="M191.16 196.503C189.302 198.024 187.298 199.359 185.177 200.486C182.748 201.574 182.684 203.225 183.432 203.225C184.18 203.225 191.035 200.362 191.035 200.362C191.035 200.362 197.242 198.737 198.14 198.246C199.038 197.755 199.137 195.009 199.137 195.009" fill="white"/>
<path d="M191.16 196.503C189.302 198.024 187.298 199.359 185.177 200.486C182.748 201.574 182.684 203.225 183.432 203.225C184.18 203.225 191.035 200.362 191.035 200.362C191.035 200.362 197.242 198.737 198.14 198.246C199.038 197.755 199.137 195.009 199.137 195.009" stroke="#545454" stroke-linecap="round" stroke-linejoin="round"/>
<path d="M202.958 116.386L196.712 164.218L192.356 190.119L202.01 192.388L209.204 161.76L212.611 142.476L202.958 116.386Z" fill="#7D7D7D" stroke="#545454" stroke-linecap="round" stroke-linejoin="round"/>
<path d="M253.384 81.7496L249.568 81.1481L241.765 78.1943L241.481 87.458L253.585 88.5698L253.384 81.7496Z" fill="white" stroke="#545454" stroke-linecap="round" stroke-linejoin="round"/>
<path d="M208.827 251.372C205.986 254.689 203.332 258.16 200.876 261.77C197.658 266.686 198.794 271.976 202.769 273.303C206.745 274.63 211.856 271.034 213.181 268.2C214.506 265.366 214.127 263.85 216.21 261.016C218.292 258.182 219.996 255.344 219.238 251.563C218.481 247.782 210.909 248.725 208.827 251.372Z" fill="#7D7D7D" stroke="#545454" stroke-linecap="round" stroke-linejoin="round"/>
<path d="M212.794 268.878C212.528 268.308 212.222 267.707 211.856 267.064C208.815 261.719 203.511 262.151 200.105 263.142C197.904 267.632 199.162 272.102 202.769 273.303C206.432 274.523 211.053 271.568 212.794 268.878Z" fill="white" stroke="#545454" stroke-linecap="round" stroke-linejoin="round"/>
<path d="M211.856 267.065C210.72 268.766 209.206 273.303 203.337 271.415C201.686 271.003 200.208 270.082 199.112 268.782C199.236 269.802 199.645 270.768 200.291 271.567C200.938 272.367 201.797 272.969 202.769 273.305C206.745 274.629 211.856 271.036 213.181 268.202C214.506 265.368 214.127 263.852 216.21 261.018C218.292 258.184 219.996 255.347 219.239 251.565C219.239 256.103 217.535 256.859 215.452 259.317C213.37 261.774 212.992 265.363 211.856 267.065Z" fill="white" stroke="#545454" stroke-linecap="round" stroke-linejoin="round"/>
<path d="M264.689 251.372C267.53 254.689 270.184 258.16 272.64 261.77C275.859 266.686 274.723 271.976 270.747 273.303C266.771 274.63 261.66 271.034 260.335 268.2C259.01 265.366 259.389 263.85 257.306 261.016C255.224 258.182 253.52 255.344 254.278 251.563C255.035 247.782 262.607 248.725 264.689 251.372Z" fill="#7D7D7D" stroke="#545454" stroke-linecap="round" stroke-linejoin="round"/>
<path d="M260.722 268.878C260.988 268.308 261.294 267.707 261.66 267.064C264.702 261.719 270.005 262.151 273.411 263.142C275.612 267.632 274.354 272.102 270.747 273.303C267.084 274.523 262.463 271.568 260.722 268.878Z" fill="white" stroke="#545454" stroke-linecap="round" stroke-linejoin="round"/>
<path d="M261.66 267.065C262.796 268.766 264.311 273.303 270.179 271.415C271.83 271.003 273.308 270.082 274.404 268.782C274.28 269.802 273.871 270.768 273.225 271.567C272.578 272.367 271.72 272.969 270.747 273.305C266.771 274.629 261.66 271.036 260.335 268.202C259.01 265.368 259.389 263.852 257.306 261.018C255.224 258.184 253.52 255.347 254.278 251.565C254.278 256.103 255.981 256.859 258.064 259.317C260.146 261.774 260.525 265.363 261.66 267.065Z" fill="white" stroke="#545454" stroke-linecap="round" stroke-linejoin="round"/>
<path d="M273.569 186.146C273.569 182.743 267.7 178.962 267.7 178.962C258.863 169.985 242.921 171.172 237.033 171.977C231.145 171.172 215.203 169.985 206.366 178.962C206.366 178.962 200.498 182.743 200.498 186.146C200.498 189.549 207.88 250.993 207.88 250.993C207.88 250.993 207.691 254.208 212.99 254.586C218.289 254.964 220.562 251.939 220.562 251.939L222.644 199.948C222.644 199.948 231.163 193.898 232.677 193.709C233.237 193.639 233.955 193.518 234.759 193.421V193.52C236.257 193.203 237.805 193.203 239.303 193.52V193.421C240.108 193.518 240.825 193.639 241.385 193.709C242.899 193.898 251.419 199.948 251.419 199.948L253.501 251.939C253.501 251.939 255.773 254.964 261.073 254.586C266.374 254.208 266.183 250.993 266.183 250.993C266.183 250.993 273.569 189.553 273.569 186.146Z" fill="#545454" stroke="#545454" stroke-linecap="round" stroke-linejoin="round"/>
<path d="M251.421 199.948C251.421 199.948 250.285 187.469 255.776 182.743" stroke="#707070" stroke-linecap="round" stroke-linejoin="round"/>
<path d="M222.646 199.948C222.646 199.948 223.214 189.549 222.078 185.768C220.942 181.987 219.049 180.475 219.049 180.475" stroke="#707070" stroke-linecap="round" stroke-linejoin="round"/>
<path d="M229.65 175.181C229.65 175.181 235.708 182.176 236.843 188.037" stroke="#707070" stroke-linecap="round" stroke-linejoin="round"/>
<path d="M242.901 175.559C242.901 175.559 239.494 179.34 239.115 182.176" stroke="#707070" stroke-linecap="round" stroke-linejoin="round"/>
<path d="M234.382 102.016C234.382 102.016 228.893 101.264 227 103.151C225.107 105.038 218.67 112.036 218.67 112.036L222.078 172.157C222.078 172.157 229.839 175.182 236.465 175.182C243.09 175.182 250.663 172.724 252.367 171.401C254.071 170.077 252.556 105.608 252.556 105.608C252.556 105.608 238.547 101.449 234.382 102.016Z" fill="#2F80ED" stroke="#545454" stroke-linecap="round" stroke-linejoin="round"/>
<path d="M244.416 103.34C247.301 102.907 250.21 102.655 253.127 102.587C256.913 102.587 260.699 102.776 260.699 102.776L270.164 93.7011L251.044 89.3512L252.559 80.6513C252.559 80.6513 266.567 79.706 273.571 81.0294C280.575 82.3528 291.555 85.7558 292.123 85.7558C292.691 85.7558 293.448 87.8354 292.877 89.3478C292.305 90.8603 274.515 110.523 269.214 115.627C265.732 119.032 262.446 122.63 259.37 126.404L256.909 168.565C256.909 168.565 263.156 171.968 264.291 173.103C265.427 174.237 266.752 178.774 266.752 178.774C266.752 178.774 255.205 174.048 252.178 173.672C249.151 173.295 247.255 173.104 246.687 171.97C246.119 170.836 241.387 120.356 241.387 120.356L241.576 104.287C241.576 104.287 241.576 103.34 244.416 103.34Z" fill="#7D7D7D" stroke="#545454" stroke-linecap="round" stroke-linejoin="round"/>
<path d="M255.775 129.24L245.556 130.563L246.502 134.344L251.612 135.668L256.533 133.399L255.775 129.24Z" stroke="#545454" stroke-linecap="round" stroke-linejoin="round"/>
<path d="M261.643 106.554L259.371 126.405L265.24 109.582" stroke="#545454" stroke-linecap="round" stroke-linejoin="round"/>
<path d="M270.161 93.698C270.161 93.698 274.894 94.6433 282.087 91.8066" stroke="#545454" stroke-linecap="round" stroke-linejoin="round"/>
<path d="M275.083 95.0224C278.193 95.1078 281.304 94.8553 284.359 94.2695" stroke="#545454" stroke-linecap="round" stroke-linejoin="round"/>
<path d="M227.946 101.827L228.893 115.63C229.757 116.763 230.875 117.678 232.157 118.302C233.439 118.926 234.849 119.241 236.276 119.222C241.008 119.033 241.576 115.63 241.576 115.63V104.285L227.946 101.827Z" fill="white" stroke="#545454" stroke-linecap="round" stroke-linejoin="round"/>
<path d="M241.765 109.011L241.387 120.355L245.362 114.116C245.362 114.116 249.718 119.598 250.853 119.409C251.988 119.22 250.099 116.952 249.717 114.872C249.335 112.792 246.115 105.419 245.741 103.34C245.366 101.26 241.765 100.882 241.576 101.827C241.473 102.643 241.473 103.469 241.576 104.285L241.765 109.011Z" fill="#7D7D7D" stroke="#545454" stroke-linecap="round" stroke-linejoin="round"/>
<path d="M228.704 119.221C228.704 119.221 229.457 172.157 227.568 172.725C225.678 173.292 218.103 173.477 213.37 175.749C208.638 178.021 206.366 178.963 206.366 178.963C206.366 178.963 208.638 173.481 211.288 171.023C213.054 169.44 215.027 168.104 217.154 167.051L212.232 141.717C212.232 141.717 203.145 117.709 202.956 116.384C202.767 115.058 220.183 105.229 223.779 103.528C227.376 101.826 228.322 103.339 228.322 103.339L228.704 119.221Z" fill="#7D7D7D" stroke="#545454" stroke-linecap="round" stroke-linejoin="round"/>
<path d="M223.971 100.882C223.971 100.882 219.428 115.25 219.049 117.141C218.671 119.031 219.049 119.031 220.374 117.708C221.699 116.385 225.107 113.171 225.107 113.171L228.704 119.22L228.514 108.066V101.639C228.514 101.639 228.325 98.9922 223.971 100.882Z" fill="#7D7D7D" stroke="#545454" stroke-linecap="round" stroke-linejoin="round"/>
<path d="M215.074 131.888H226.243L226.053 136.426L221.131 138.127L214.884 136.426L215.074 131.888Z" stroke="#545454" stroke-linecap="round" stroke-linejoin="round"/>
<path d="M245.741 82.1642C245.741 82.1642 248.392 93.6974 248.96 95.588C249.527 97.4785 245.93 104.852 244.794 106.553C244.354 107.288 243.749 107.909 243.026 108.369C242.303 108.828 241.482 109.113 240.629 109.2C239.304 109.2 232.111 106.742 230.411 105.608C228.71 104.474 227.003 103.15 227.003 103.15C226.199 103.518 225.304 103.643 224.429 103.509C223.555 103.375 222.739 102.989 222.081 102.397C219.81 100.318 216.781 97.86 217.538 96.1585C217.904 95.3238 218.518 94.6219 219.297 94.1483C220.077 93.6748 220.983 93.4525 221.894 93.5117C223.976 93.5117 223.219 93.3226 223.219 93.3226C223.219 93.3226 219.433 87.8392 219.433 83.4909C219.433 79.1426 227.573 75.9287 232.305 75.9287C235.578 76.0651 238.792 76.8356 241.77 78.1974L245.741 82.1642Z" fill="white" stroke="#545454" stroke-linecap="round" stroke-linejoin="round"/>
<path d="M239.115 86.5132L242.522 92.9411L239.115 95.2097L237.601 93.3192" stroke="#545454" stroke-linecap="round" stroke-linejoin="round"/>
<path d="M245.362 92.373C245.362 92.373 245.551 93.8863 243.28 96.344" stroke="#545454" stroke-linecap="round" stroke-linejoin="round"/>
<path d="M235.518 88.8768C235.518 89.7636 235.137 90.483 234.666 90.483C234.196 90.483 233.815 89.7636 233.815 88.8768C233.815 87.9901 234.197 87.269 234.666 87.269C235.136 87.269 235.518 87.9885 235.518 88.8768Z" fill="#545454"/>
<path d="M241.481 87.4581C241.952 87.4581 242.333 86.7386 242.333 85.8511C242.333 84.9636 241.952 84.2441 241.481 84.2441C241.011 84.2441 240.629 84.9636 240.629 85.8511C240.629 86.7386 241.011 87.4581 241.481 87.4581Z" fill="#545454"/>
<path d="M225.296 72.334C225.296 72.334 213.37 76.6839 212.991 82.1649C212.613 87.6458 223.592 95.2105 224.16 96.1558C224.728 97.1011 226.432 95.0215 226.432 95.0215C226.054 94.5125 225.791 93.9278 225.66 93.3076C225.53 92.6873 225.536 92.0463 225.678 91.4286C226.246 89.5389 228.707 87.2694 228.707 86.3258C228.707 85.3822 225.867 87.0786 225.867 84.2461C225.867 81.4137 232.871 79.7088 237.036 79.8962C241.201 80.0836 244.797 87.0803 247.826 83.6773C250.855 80.2743 246.501 79.3274 246.501 79.3274C246.501 79.3274 252.37 78.5745 252.37 75.5463C252.37 72.518 249.342 70.4434 248.015 70.4434C246.688 70.4434 243.092 72.7121 243.092 70.2544C243.092 67.7967 246.689 66.6623 243.281 62.6922C239.874 58.722 235.52 62.6922 235.52 64.2046C235.52 65.7171 234.384 68.5546 233.627 68.5546C232.87 68.5546 230.598 65.1516 227.948 67.0421C227.147 67.6785 226.495 68.4817 226.037 69.3957C225.579 70.3096 225.326 71.3124 225.296 72.334Z" fill="#545454" stroke="#545454" stroke-linecap="round" stroke-linejoin="round"/>
<path d="M230.218 86.8907L236.276 84.6221" stroke="#545454" stroke-linecap="round" stroke-linejoin="round"/>
<path d="M237.222 81.9754C237.108 81.3827 237.204 80.769 237.493 80.2388" stroke="#545454" stroke-linecap="round" stroke-linejoin="round"/>
<path d="M237.493 80.2392C237.918 79.3725 238.884 78.3227 241.011 77.4385" stroke="white" stroke-linecap="round" stroke-linejoin="round"/>
</svg>
