<svg width="52" height="52" viewBox="0 0 52 52" fill="none" xmlns="http://www.w3.org/2000/svg">
<g id="fi_263151">
<g id="Group">
<g id="Group_2">
<path id="Vector" d="M45.5526 3.84961H35.3763C34.8922 3.84961 34.5 4.24195 34.5 4.72589C34.5 5.20984 34.8922 5.60217 35.3763 5.60217H45.5526C46.0367 5.60217 46.4289 5.20984 46.4289 4.72589C46.4289 4.24195 46.0367 3.84961 45.5526 3.84961Z" fill="#FF5C00"/>
</g>
</g>
<g id="Group_3">
<g id="Group_4">
<path id="Vector_2" d="M45.5506 11.8584H39.7474C39.2633 11.8584 38.8711 12.2507 38.8711 12.7347C38.8711 13.2186 39.2633 13.611 39.7474 13.611H45.5506C46.0346 13.611 46.4268 13.2186 46.4268 12.7347C46.4268 12.2507 46.0346 11.8584 45.5506 11.8584Z" fill="#FF5C00"/>
</g>
</g>
<g id="Group_5">
<g id="Group_6">
<path id="Vector_3" d="M36.7568 11.8584H35.3763C34.8922 11.8584 34.5 12.2507 34.5 12.7347C34.5 13.2186 34.8922 13.611 35.3763 13.611H36.7568C37.2409 13.611 37.6331 13.2186 37.6331 12.7347C37.6331 12.2507 37.2409 11.8584 36.7568 11.8584Z" fill="#FF5C00"/>
</g>
</g>
<g id="Group_7">
<g id="Group_8">
<path id="Vector_4" d="M45.5502 7.854H44.6419C44.1579 7.854 43.7656 8.24634 43.7656 8.73028C43.7656 9.21423 44.1579 9.60657 44.6419 9.60657H45.5502C46.0342 9.60657 46.4265 9.21423 46.4265 8.73028C46.4265 8.24634 46.0342 7.854 45.5502 7.854Z" fill="#FF5C00"/>
</g>
</g>
<g id="Group_9">
<g id="Group_10">
<path id="Vector_5" d="M41.3731 7.854H35.3763C34.8922 7.854 34.5 8.24634 34.5 8.73028C34.5 9.21423 34.8922 9.60657 35.3763 9.60657H41.3731C41.8572 9.60657 42.2494 9.21423 42.2494 8.73028C42.2494 8.24634 41.8572 7.854 41.3731 7.854Z" fill="#FF5C00"/>
</g>
</g>
<g id="Group_11">
<g id="Group_12">
<path id="Vector_6" d="M47.0148 0H33.9149C31.8769 0 30.2188 1.65811 30.2188 3.69616V13.516C30.2188 15.5541 31.8768 17.2122 33.9149 17.2122H35.6542L35.5571 19.4701C35.5431 19.7976 35.7128 20.1055 35.9975 20.2683C36.1324 20.3457 36.2825 20.384 36.4326 20.384C36.5985 20.384 36.7642 20.3369 36.9087 20.2434L41.5935 17.2122H47.015C49.053 17.2122 50.7111 15.5541 50.7111 13.516V3.69616C50.7109 1.65811 49.0528 0 47.0148 0ZM48.9585 13.516C48.9585 14.5877 48.0865 15.4596 47.0149 15.4596H41.3347C41.1659 15.4596 41.0005 15.5085 40.8586 15.6002L37.3809 17.8504L37.4445 16.3735C37.4548 16.1348 37.3671 15.9024 37.2019 15.7298C37.0365 15.5572 36.808 15.4596 36.5691 15.4596H33.915C32.8433 15.4596 31.9714 14.5877 31.9714 13.516V3.69616C31.9714 2.62448 32.8433 1.75256 33.915 1.75256H47.0149C48.0865 1.75256 48.9585 2.62448 48.9585 3.69616V13.516Z" fill="#FF5C00"/>
</g>
</g>
<g id="Group_13">
<g id="Group_14">
<path id="Vector_7" d="M29.1267 39.75C28.0661 38.6075 26.7399 37.7808 25.2805 37.3299C25.792 36.7958 26.2346 36.1973 26.595 35.5476H27.0097C29.2013 35.5476 30.9843 33.7646 30.9843 31.573V21.5554C30.9843 14.7556 25.453 9.22363 18.6541 9.22363H14.1107C7.31111 9.22363 1.779 14.7555 1.779 21.5554V29.6994C1.779 31.0929 2.91264 32.2265 4.30608 32.2265C4.58527 32.2265 4.85685 32.1791 5.11441 32.0926C5.28362 34.072 6.12395 35.9156 7.48133 37.3316C6.02269 37.7824 4.69709 38.6091 3.63709 39.7514C2.12289 41.383 1.28906 43.5083 1.28906 45.7357V51.1237C1.28906 51.6076 1.6813 51.9998 2.16534 51.9998H30.5993C31.0833 51.9998 31.4756 51.6075 31.4756 51.1235V45.7355C31.4756 43.5074 30.6413 41.3816 29.1267 39.75ZM25.9301 24.2916L22.3581 19.292C22.171 19.0302 21.856 18.8917 21.5361 18.932C21.2167 18.9721 20.9449 19.184 20.8284 19.484C20.0989 21.3607 18.835 22.9537 17.1732 24.0909C15.5113 25.228 13.5685 25.829 11.555 25.829H6.83458V21.9088C6.83458 17.5882 10.3496 14.073 14.6702 14.073H18.0944C22.415 14.073 25.9302 17.5882 25.9302 21.9088L25.9301 24.2916ZM27.3376 33.7679C27.4971 33.2223 27.5996 32.6627 27.648 32.0927C27.9022 32.1789 28.1742 32.2263 28.4571 32.2263C28.6979 32.2263 28.9334 32.1914 29.1589 32.1264C28.9387 32.9807 28.2235 33.6359 27.3376 33.7679ZM29.2316 29.6992C29.2316 29.7411 29.2285 29.7814 29.2216 29.8236C29.196 29.9842 29.1206 30.1314 29.0067 30.2461C28.8591 30.3929 28.6639 30.4739 28.4571 30.4739C28.0301 30.4739 27.6825 30.1264 27.6825 29.6992V25.3746C27.6825 24.9474 28.0301 24.6 28.4571 24.6C28.8842 24.6 29.2316 24.9474 29.2316 25.3746V29.6992ZM5.08212 29.6992C5.08212 29.906 5.00127 30.1012 4.85695 30.2462C4.70948 30.393 4.51377 30.4739 4.30608 30.4739C3.87901 30.4739 3.53146 30.1264 3.53146 29.6992V25.3746C3.53146 24.9474 3.87901 24.6 4.30608 24.6C4.73396 24.6 5.08212 24.9474 5.08212 25.3746V29.6992ZM5.08212 21.9088V22.9699C4.83745 22.8908 4.57684 22.8477 4.30608 22.8477C4.03592 22.8477 3.77582 22.8908 3.53146 22.9697V21.5555C3.53146 15.7221 8.27717 10.9763 14.1106 10.9763H18.6539C24.4864 10.9763 29.2315 15.722 29.2315 21.5555V22.9697C28.9874 22.8909 28.7272 22.8478 28.457 22.8478C28.1869 22.8478 27.9268 22.8909 27.6824 22.9698V21.9091C27.6824 16.6222 23.3812 12.3209 18.0942 12.3209H14.67C9.38329 12.3206 5.08212 16.6219 5.08212 21.9088ZM6.83458 31.3501V29.6993V27.5817H11.5551C13.9234 27.5817 16.2083 26.8747 18.163 25.5373C19.686 24.4953 20.9247 23.1276 21.8034 21.5303L25.9302 27.3063V31.3501C25.9302 32.1953 25.7773 33.0148 25.4796 33.795H19.5671C19.083 33.795 18.6908 34.1873 18.6908 34.6712C18.6908 35.1552 19.083 35.5475 19.5671 35.5475H24.5043C24.0473 36.1433 23.4941 36.6633 22.8631 37.084C22.3698 37.4151 21.8305 37.6817 21.2595 37.8763C21.2512 37.8789 21.2428 37.8816 21.2345 37.8843L17.4243 39.1678C16.7574 39.393 16.0083 39.3931 15.3384 39.1676L11.5288 37.8842C10.9506 37.6894 10.402 37.4201 9.89841 37.084C7.9799 35.8026 6.83458 33.6591 6.83458 31.3501ZM21.5448 44.0168L17.2586 41.7099V41.0128C17.5048 40.9693 17.7474 40.9084 17.9844 40.8285L20.8267 39.871L21.5448 44.0168ZM15.5062 41.0128V41.7099L11.2199 44.0167L11.938 39.8713L14.7791 40.8285C15.0169 40.9084 15.2598 40.9693 15.5062 41.0128ZM15.5063 50.2475H3.04163V45.7355C3.04163 42.1782 5.74288 39.16 9.2413 38.7417C9.56935 38.9406 9.9107 39.1175 10.2632 39.2715L9.18575 45.4927C9.12847 45.8231 9.26487 46.1572 9.53695 46.3534C9.6892 46.4629 9.86876 46.5186 10.0492 46.5186C10.1915 46.5186 10.3343 46.4841 10.4645 46.4139L12.5383 45.2978L15.5062 48.2647V50.2475H15.5063ZM14.1495 44.4303L16.3824 43.2285L18.6151 44.4303L16.3824 46.6622L14.1495 44.4303ZM29.7231 50.2474H17.2586V48.2644L20.2264 45.2976L22.3001 46.4138C22.4304 46.4839 22.5731 46.5185 22.7155 46.5185C22.896 46.5185 23.0755 46.4628 23.2278 46.3533C23.4999 46.1573 23.6363 45.8232 23.579 45.4928L22.5014 39.2715C22.8548 39.117 23.1963 38.9396 23.5231 38.7406C27.022 39.1601 29.7231 42.1783 29.7231 45.7356V50.2474Z" fill="#FF5C00"/>
</g>
</g>
</g>
</svg>
