<svg width="52" height="52" viewBox="0 0 52 52" fill="none" xmlns="http://www.w3.org/2000/svg">
<g id="fi_9767246">
<path id="Vector" d="M9.22292 15.2225C9.22292 14.7738 9.58672 14.41 10.0354 14.41H32.0387C32.4874 14.41 32.8512 14.7738 32.8512 15.2225C32.8512 15.6712 32.4874 16.035 32.0387 16.035H10.0354C9.58672 16.035 9.22292 15.6712 9.22292 15.2225ZM19.6567 7.78324H32.0387C32.4874 7.78324 32.8512 7.41945 32.8512 6.97074C32.8512 6.52204 32.4874 6.15824 32.0387 6.15824H19.6567C19.208 6.15824 18.8442 6.52204 18.8442 6.97074C18.8442 7.41945 19.2079 7.78324 19.6567 7.78324ZM10.0354 20.1609H32.0387C32.4874 20.1609 32.8512 19.7971 32.8512 19.3484C32.8512 18.8997 32.4874 18.5359 32.0387 18.5359H10.0354C9.58672 18.5359 9.22292 18.8997 9.22292 19.3484C9.22292 19.7971 9.58672 20.1609 10.0354 20.1609ZM19.6567 11.9091H32.0387C32.4874 11.9091 32.8512 11.5453 32.8512 11.0966C32.8512 10.6479 32.4874 10.2841 32.0387 10.2841H19.6567C19.208 10.2841 18.8442 10.6479 18.8442 11.0966C18.8442 11.5453 19.2079 11.9091 19.6567 11.9091ZM47.355 48.889C47.355 49.6953 47.0426 50.4518 46.4754 51.0189C45.9083 51.586 45.1519 51.8984 44.3456 51.8984C43.5393 51.8984 42.7828 51.586 42.2157 51.0189L37.7877 46.5909H11.2839C9.77055 46.5909 8.53941 45.3596 8.53941 43.8464V42.6922H7.38515C5.87187 42.6922 4.64062 41.461 4.64062 39.9477V11.7318C4.64062 10.988 4.9186 10.317 5.44449 9.79113L14.3301 0.90543C14.856 0.379641 15.527 0.101562 16.2706 0.101562H34.7109C36.2243 0.101562 37.4555 1.3328 37.4555 2.84609V4.00024H38.6098C40.1231 4.00024 41.3544 5.23148 41.3544 6.74477V41.6381L46.4754 46.7592C47.0427 47.3264 47.3551 48.0827 47.355 48.889ZM37.4789 43.984L39.4406 42.0223L38.5864 41.1681L36.6247 43.1297L37.4789 43.984ZM27.6577 41.8047C32.9533 41.8047 37.2616 37.4966 37.2616 32.201C37.2616 26.9054 32.9534 22.5972 27.6578 22.5972C22.3623 22.5972 18.0541 26.9054 18.0541 32.201C18.0541 37.4966 22.3623 41.8047 27.6577 41.8047ZM35.2826 40.4358L36.1515 41.3047L36.7612 40.695L35.8923 39.8261C35.697 40.0371 35.4936 40.2404 35.2826 40.4358ZM37.4556 5.62524V26.7214C38.3662 28.3433 38.8865 30.2123 38.8865 32.201C38.8865 34.5555 38.1575 36.7427 36.914 38.5498L37.9102 39.5459L38.0117 39.4443C38.1641 39.292 38.3708 39.2064 38.5863 39.2064C38.8018 39.2064 39.0085 39.292 39.1608 39.4443L39.7295 40.013V6.74477C39.7295 6.12747 39.2272 5.62524 38.6099 5.62524H37.4556ZM7.4146 10.1191H13.726C14.2399 10.1191 14.6579 9.70105 14.6579 9.18714V2.87574L7.4146 10.1191ZM7.38515 41.0672H20.7757C19.2964 39.9164 18.112 38.4042 17.3553 36.6644H10.0354C9.58672 36.6644 9.22292 36.3006 9.22292 35.8519C9.22292 35.4032 9.58672 35.0394 10.0354 35.0394H16.7927C16.5829 34.2369 16.4601 33.3997 16.4345 32.5385H10.0354C9.58672 32.5385 9.22292 32.1747 9.22292 31.726C9.22292 31.2773 9.58672 30.9135 10.0354 30.9135H16.5032C16.6027 30.0462 16.8011 29.2088 17.0873 28.4126H10.0354C9.58672 28.4126 9.22292 28.0488 9.22292 27.6001C9.22292 27.1514 9.58672 26.7876 10.0354 26.7876H17.8229C18.3313 25.8679 18.9645 25.0264 19.7001 24.2867H10.0354C9.58672 24.2867 9.22292 23.9229 9.22292 23.4742C9.22292 23.0255 9.58672 22.6617 10.0354 22.6617H21.7412C23.4604 21.5916 25.488 20.9722 27.6578 20.9722C30.8757 20.9722 33.7815 22.3333 35.8307 24.5095V2.84619C35.8307 2.22879 35.3284 1.72666 34.7112 1.72666H16.2828V9.18724C16.2828 10.5971 15.1358 11.7442 13.7259 11.7442H6.26563V39.9476C6.26563 40.565 6.76775 41.0672 7.38515 41.0672ZM36.1628 44.9658L34.9012 43.7042C34.5839 43.3869 34.5839 42.8725 34.9012 42.5552L35.0026 42.4537L34.0064 41.4576C32.1993 42.7008 30.0123 43.4299 27.6577 43.4299C26.2487 43.4299 24.8998 43.1682 23.6561 42.6922H10.1644V43.8464C10.1644 44.4637 10.6666 44.9659 11.2839 44.9659H36.1628V44.9658ZM45.7301 48.889C45.7301 48.5168 45.5868 48.1685 45.3265 47.9082L40.5896 43.1713L38.6279 45.1329L43.3648 49.8698C43.625 50.13 43.9733 50.2734 44.3456 50.2734C44.7178 50.2734 45.0662 50.1301 45.3264 49.8698C45.5866 49.6095 45.7301 49.2613 45.7301 48.889ZM27.6577 40.7617C22.9374 40.7617 19.097 36.9214 19.097 32.2011C19.097 27.4807 22.9374 23.6404 27.6577 23.6404C32.3782 23.6404 36.2184 27.4807 36.2184 32.201C36.2184 36.9214 32.3782 40.7617 27.6577 40.7617ZM27.6577 39.1367C31.4821 39.1367 34.5933 36.0253 34.5934 32.201C34.5934 28.3767 31.4821 25.2654 27.6577 25.2654C23.8334 25.2654 20.722 28.3768 20.722 32.2011C20.7221 36.0254 23.8335 39.1367 27.6577 39.1367ZM32.5811 30.8499L27.385 36.046C27.0413 36.3897 26.5895 36.5616 26.1381 36.5617C25.6864 36.5617 25.2349 36.3898 24.8911 36.046C24.8245 35.9794 24.7631 35.9073 24.7081 35.8312L22.6004 33.179C22.3077 32.8108 22.1758 32.3504 22.2292 31.8829C22.2826 31.4153 22.5149 30.9966 22.8833 30.7038C23.6437 30.0993 24.7542 30.2261 25.3588 30.9864L26.2877 32.1554L30.0871 28.3559C30.7748 27.6683 31.8935 27.6684 32.5811 28.3559C33.2687 29.0435 33.2687 30.1623 32.5811 30.8499ZM31.432 29.5048C31.378 29.4508 31.2901 29.4509 31.2361 29.5048L26.7926 33.9483C26.6288 34.112 26.4026 34.1979 26.1719 34.1849C25.9407 34.1717 25.7261 34.0605 25.582 33.8792L24.0866 31.9974C24.0597 31.9635 24.0198 31.9459 23.9795 31.9459C23.9497 31.9459 23.9196 31.9556 23.8944 31.9755C23.8579 32.0047 23.8466 32.0413 23.8437 32.067C23.8407 32.0927 23.8434 32.1311 23.8725 32.1678L25.9934 34.8368C26.0039 34.8498 26.0139 34.8634 26.0236 34.8772C26.0285 34.8842 26.0339 34.8906 26.04 34.8968C26.0942 34.9508 26.182 34.9507 26.2361 34.8968L31.432 29.7007C31.486 29.6468 31.486 29.5589 31.432 29.5048Z" fill="#FF5C00"/>
</g>
</svg>
