<svg width="52" height="52" viewBox="0 0 52 52" fill="none" xmlns="http://www.w3.org/2000/svg">
<g id="fi_1876510" clip-path="url(#clip0_393_3018)">
<path id="Vector" d="M51.1875 39.8125V9.41363L42.5864 0.8125H18.6875V15.4375H4.875C2.63494 15.4375 0.8125 17.2599 0.8125 19.5V47.125C0.8125 49.3651 2.63494 51.1875 4.875 51.1875H27.625C29.7367 51.1875 31.4576 49.5617 31.6493 47.4996L39.3364 39.8125H51.1875ZM43.0625 3.58637L48.4136 8.9375H43.0625V3.58637ZM41.4375 2.4375V10.5625H49.5625V38.1875H40.9614L42.5864 36.5625H47.9375V12.1875H28.4375V17.5386L22.75 11.8511L20.3125 14.2886V2.4375H41.4375ZM28.4375 27.9614L30.0625 26.3364L37.8511 34.125L31.6875 40.2886V32.9062L28.4375 30.4688V27.9614ZM31.6875 42.5864L40.1489 34.125L30.0625 24.0386L28.4066 25.6945C28.2474 23.5991 26.5103 21.9375 24.375 21.9375H19.0239L23.3244 17.6369L22.1756 16.4881L16.7261 21.9375H14.9614L22.75 14.1489L42.7261 34.125L31.6875 45.1636V42.5864ZM30.0625 19.1636V13.8125H46.3125V34.9375H44.2114L45.0239 34.125L30.0625 19.1636ZM4.875 17.0625H17.5386L12.6636 21.9375H4.875C3.53113 21.9375 2.4375 20.8439 2.4375 19.5C2.4375 18.1561 3.53113 17.0625 4.875 17.0625ZM2.4375 47.125V22.7484C3.11675 23.2586 3.96094 23.5625 4.875 23.5625H5.6875V49.5625H4.875C3.53113 49.5625 2.4375 48.4689 2.4375 47.125ZM30.0625 47.125C30.0625 48.4689 28.9689 49.5625 27.625 49.5625H7.3125V23.5625H24.375C25.7189 23.5625 26.8125 24.6561 26.8125 26V31.2812L30.0625 33.7188V47.125Z" fill="#FF5C00"/>
<path id="Vector_2" d="M26.8125 46.3125H28.4375V47.9375H26.8125V46.3125Z" fill="#FF5C00"/>
<path id="Vector_3" d="M23.5625 46.3125H25.1875V47.9375H23.5625V46.3125Z" fill="#FF5C00"/>
<path id="Vector_4" d="M20.3125 46.3125H21.9375V47.9375H20.3125V46.3125Z" fill="#FF5C00"/>
<path id="Vector_5" d="M18.6875 43.0625H28.4375V44.6875H18.6875V43.0625Z" fill="#FF5C00"/>
<path id="Vector_6" d="M8.9375 25.1875H10.5625V26.8125H8.9375V25.1875Z" fill="#FF5C00"/>
<path id="Vector_7" d="M8.9375 28.4375H10.5625V30.0625H8.9375V28.4375Z" fill="#FF5C00"/>
<path id="Vector_8" d="M8.9375 31.6875H10.5625V33.3125H8.9375V31.6875Z" fill="#FF5C00"/>
<path id="Vector_9" d="M21.9375 4.0625H23.5625V5.6875H21.9375V4.0625Z" fill="#FF5C00"/>
<path id="Vector_10" d="M25.1875 4.0625H39.8125V5.6875H25.1875V4.0625Z" fill="#FF5C00"/>
<path id="Vector_11" d="M21.9375 7.3125H39.8125V8.9375H21.9375V7.3125Z" fill="#FF5C00"/>
<path id="Vector_12" d="M39.8125 15.4375H44.6875V17.0625H39.8125V15.4375Z" fill="#FF5C00"/>
<path id="Vector_13" d="M39.8125 18.6875H44.6875V20.3125H39.8125V18.6875Z" fill="#FF5C00"/>
<path id="Vector_14" d="M39.8125 21.9375H44.6875V23.5625H39.8125V21.9375Z" fill="#FF5C00"/>
<path id="Vector_15" d="M39.8125 25.1875H44.6875V26.8125H39.8125V25.1875Z" fill="#FF5C00"/>
</g>
<defs>
<clipPath id="clip0_393_3018">
<rect width="52" height="52" fill="white"/>
</clipPath>
</defs>
</svg>
