<svg width="52" height="52" viewBox="0 0 52 52" fill="none" xmlns="http://www.w3.org/2000/svg">
<g id="fi_8007473">
<g id="Outline">
<path id="Vector" d="M34.125 38.1876H3.25C3.03451 38.1876 2.82785 38.102 2.67548 37.9496C2.5231 37.7972 2.4375 37.5906 2.4375 37.3751V34.1251C2.44166 33.9109 2.5286 33.7066 2.68008 33.5552C2.83156 33.4037 3.03581 33.3167 3.25 33.3126C3.46549 33.3126 3.67215 33.3982 3.82452 33.5506C3.9769 33.7029 4.0625 33.9096 4.0625 34.1251V36.5626H33.3125V18.6876H14.625C14.413 18.6889 14.2089 18.6072 14.0563 18.4601L11.05 15.4376H4.0625L4.0625 35.6876C4.0625 35.9031 3.9769 36.1097 3.82452 36.2621C3.67215 36.4145 3.46549 36.5001 3.25 36.5001C3.03451 36.5001 2.82785 36.4145 2.67548 36.2621C2.5231 36.1097 2.4375 35.9031 2.4375 35.6876V14.6251C2.44166 14.4109 2.5286 14.2066 2.68008 14.0552C2.83156 13.9037 3.03581 13.8167 3.25 13.8126H11.375C11.484 13.811 11.5922 13.8318 11.6928 13.8737C11.7934 13.9157 11.8844 13.9778 11.96 14.0563L14.9663 17.0626H34.125C34.3405 17.0626 34.5472 17.1482 34.6995 17.3006C34.8519 17.4529 34.9375 17.6596 34.9375 17.8751V37.3751C34.9375 37.5906 34.8519 37.7972 34.6995 37.9496C34.5472 38.102 34.3405 38.1876 34.125 38.1876Z" fill="#FF5C00"/>
<path id="Vector_2" d="M29.25 33.3125H8.125C7.90951 33.3125 7.70285 33.2269 7.55048 33.0745C7.3981 32.9222 7.3125 32.7155 7.3125 32.5V29.25C7.31666 29.0358 7.4036 28.8316 7.55508 28.6801C7.70656 28.5286 7.91081 28.4417 8.125 28.4375H29.25C29.4655 28.4375 29.6722 28.5231 29.8245 28.6755C29.9769 28.8278 30.0625 29.0345 30.0625 29.25V32.5C30.0625 32.7155 29.9769 32.9222 29.8245 33.0745C29.6722 33.2269 29.4655 33.3125 29.25 33.3125ZM8.9375 31.6875H28.4375V30.0625H8.9375V31.6875Z" fill="#FF5C00"/>
<path id="Vector_3" d="M43.875 8.9375H21.125C20.9095 8.9375 20.7028 8.8519 20.5505 8.69952C20.3981 8.54715 20.3125 8.34049 20.3125 8.125C20.3167 7.91081 20.4036 7.70656 20.5551 7.55508C20.7066 7.4036 20.9108 7.31666 21.125 7.3125H43.875C44.0905 7.3125 44.2972 7.3981 44.4495 7.55048C44.6019 7.70285 44.6875 7.90951 44.6875 8.125C44.6875 8.34049 44.6019 8.54715 44.4495 8.69952C44.2972 8.8519 44.0905 8.9375 43.875 8.9375Z" fill="#FF5C00"/>
<path id="Vector_4" d="M43.875 13.8125H21.125C20.9095 13.8125 20.7028 13.7269 20.5505 13.5745C20.3981 13.4222 20.3125 13.2155 20.3125 13C20.3167 12.7858 20.4036 12.5816 20.5551 12.4301C20.7066 12.2786 20.9108 12.1917 21.125 12.1875H43.875C44.0905 12.1875 44.2972 12.2731 44.4495 12.4255C44.6019 12.5778 44.6875 12.7845 44.6875 13C44.6875 13.2155 44.6019 13.4222 44.4495 13.5745C44.2972 13.7269 44.0905 13.8125 43.875 13.8125Z" fill="#FF5C00"/>
<path id="Vector_5" d="M10.5625 43.0625V43.875C10.5668 44.9511 10.9962 45.982 11.7571 46.7429C12.518 47.5038 13.5489 47.9332 14.625 47.9375H39.91C39.3653 47.4104 38.9321 46.7791 38.6362 46.0812C38.3403 45.3833 38.1877 44.633 38.1875 43.875V43.0625H10.5625ZM14.625 49.5625C13.1166 49.5625 11.6699 48.9633 10.6033 47.8967C9.53672 46.8301 8.9375 45.3834 8.9375 43.875V42.25C8.94166 42.0358 9.0286 41.8316 9.18008 41.6801C9.33156 41.5286 9.53581 41.4417 9.75 41.4375H15.4375V37.8125C15.4417 37.5983 15.5286 37.3941 15.6801 37.2426C15.8316 37.0911 16.0358 37.0042 16.25 37C16.4655 37 16.6722 37.0856 16.8245 37.238C16.9769 37.3904 17.0625 37.597 17.0625 37.8125V41.4375H39C39.2155 41.4375 39.4222 41.5231 39.5745 41.6755C39.7269 41.8279 39.8125 42.0345 39.8125 42.25V43.875C39.8125 44.9524 40.2405 45.9858 41.0024 46.7476C41.7642 47.5095 42.7976 47.9375 43.875 47.9375C44.9524 47.9375 45.9858 47.5095 46.7476 46.7476C47.5095 45.9858 47.9375 44.9524 47.9375 43.875V4.0625H17.0625V17.6875C17.0625 17.903 16.9769 18.1097 16.8245 18.262C16.6722 18.4144 16.4655 18.5 16.25 18.5C16.0345 18.5 15.8278 18.4144 15.6755 18.262C15.5231 18.1097 15.4375 17.903 15.4375 17.6875V3.25C15.4417 3.03581 15.5286 2.83156 15.6801 2.68008C15.8316 2.5286 16.0358 2.44166 16.25 2.4375H48.75C48.9655 2.4375 49.1721 2.5231 49.3245 2.67548C49.4769 2.82785 49.5625 3.03451 49.5625 3.25V43.875C49.5625 45.3834 48.9633 46.8301 47.8967 47.8967C46.8301 48.9633 45.3834 49.5625 43.875 49.5625H14.625Z" fill="#FF5C00"/>
<path id="Vector_6" d="M43.875 18.6875H39C38.7845 18.6875 38.5778 18.6019 38.4255 18.4495C38.2731 18.2972 38.1875 18.0905 38.1875 17.875C38.1917 17.6608 38.2786 17.4566 38.4301 17.3051C38.5816 17.1536 38.7858 17.0667 39 17.0625H43.875C44.0905 17.0625 44.2972 17.1481 44.4495 17.3005C44.6019 17.4528 44.6875 17.6595 44.6875 17.875C44.6875 18.0905 44.6019 18.2972 44.4495 18.4495C44.2972 18.6019 44.0905 18.6875 43.875 18.6875Z" fill="#FF5C00"/>
<path id="Vector_7" d="M43.875 23.5625H39C38.7845 23.5625 38.5778 23.4769 38.4255 23.3245C38.2731 23.1722 38.1875 22.9655 38.1875 22.75C38.1917 22.5358 38.2786 22.3316 38.4301 22.1801C38.5816 22.0286 38.7858 21.9417 39 21.9375H43.875C44.0905 21.9375 44.2972 22.0231 44.4495 22.1755C44.6019 22.3278 44.6875 22.5345 44.6875 22.75C44.6875 22.9655 44.6019 23.1722 44.4495 23.3245C44.2972 23.4769 44.0905 23.5625 43.875 23.5625Z" fill="#FF5C00"/>
<path id="Vector_8" d="M43.875 28.4375H39C38.7845 28.4375 38.5778 28.3519 38.4255 28.1995C38.2731 28.0472 38.1875 27.8405 38.1875 27.625C38.1917 27.4108 38.2786 27.2066 38.4301 27.0551C38.5816 26.9036 38.7858 26.8167 39 26.8125H43.875C44.0905 26.8125 44.2972 26.8981 44.4495 27.0505C44.6019 27.2028 44.6875 27.4095 44.6875 27.625C44.6875 27.8405 44.6019 28.0472 44.4495 28.1995C44.2972 28.3519 44.0905 28.4375 43.875 28.4375Z" fill="#FF5C00"/>
<path id="Vector_9" d="M43.875 33.3125H39C38.7845 33.3125 38.5778 33.2269 38.4255 33.0745C38.2731 32.9222 38.1875 32.7155 38.1875 32.5C38.1917 32.2858 38.2786 32.0816 38.4301 31.9301C38.5816 31.7786 38.7858 31.6917 39 31.6875H43.875C44.0905 31.6875 44.2972 31.7731 44.4495 31.9255C44.6019 32.0778 44.6875 32.2845 44.6875 32.5C44.6875 32.7155 44.6019 32.9222 44.4495 33.0745C44.2972 33.2269 44.0905 33.3125 43.875 33.3125Z" fill="#FF5C00"/>
<path id="Vector_10" d="M43.875 38.1875H39C38.7845 38.1875 38.5778 38.1019 38.4255 37.9495C38.2731 37.7972 38.1875 37.5905 38.1875 37.375C38.1917 37.1608 38.2786 36.9566 38.4301 36.8051C38.5816 36.6536 38.7858 36.5667 39 36.5625H43.875C44.0905 36.5625 44.2972 36.6481 44.4495 36.8005C44.6019 36.9528 44.6875 37.1595 44.6875 37.375C44.6875 37.5905 44.6019 37.7972 44.4495 37.9495C44.2972 38.1019 44.0905 38.1875 43.875 38.1875Z" fill="#FF5C00"/>
</g>
</g>
</svg>
