<svg width="52" height="52" viewBox="0 0 52 52" fill="none" xmlns="http://www.w3.org/2000/svg">
<g id="fi_554724" clip-path="url(#clip0_393_3046)">
<g id="Group">
<g id="Group_2">
<path id="Vector" d="M34.9609 28.1078L30.5346 26.1406C30.2218 26.0016 30.0199 25.6907 30.0199 25.3487V24.1332C31.5068 22.9484 32.4625 21.1241 32.4625 19.0796V17.3686C32.9524 17.0979 33.2767 16.5749 33.2767 15.9891V15.823C33.2767 12.2606 30.3784 9.3623 26.8159 9.3623H25.1877C21.6253 9.3623 18.727 12.2606 18.727 15.823V17.3297C18.727 17.8446 18.9486 18.3111 19.3348 18.6096C19.4003 18.6602 19.4693 18.7047 19.5411 18.7431V19.0795C19.5411 21.124 20.4967 22.9483 21.9835 24.133V25.3486C21.9835 25.6906 21.7815 26.0015 21.4689 26.1405L17.0426 28.1077C15.593 28.7519 14.6562 30.1933 14.6562 31.7796V41.8754C14.6562 42.296 14.9973 42.6371 15.418 42.6371C15.8386 42.6371 16.1797 42.296 16.1797 41.8754V31.7797C16.1797 31.6915 16.186 31.6042 16.1951 31.5177L18.2347 33.5573C18.5521 33.8748 18.727 34.2968 18.727 34.7458V41.8755C18.727 42.2961 19.068 42.6372 19.4887 42.6372C19.9094 42.6372 20.2504 42.2961 20.2504 41.8755V34.7458C20.2504 33.8899 19.9172 33.0853 19.312 32.4801L16.8805 30.0485C17.0995 29.8212 17.3624 29.6328 17.6614 29.4999L22.013 27.5658L25.2402 30.7929V41.8754C25.2402 42.296 25.5812 42.6371 26.0019 42.6371C26.4226 42.6371 26.7636 42.296 26.7636 41.8754V30.7931L29.9908 27.5659L34.3423 29.4999C34.6413 29.6328 34.9042 29.8212 35.1233 30.0486L32.6918 32.4801C32.0865 33.0853 31.7533 33.8899 31.7533 34.7458V41.8755C31.7533 42.2961 32.0944 42.6372 32.515 42.6372C32.9357 42.6372 33.2768 42.2961 33.2768 41.8755V34.7458C33.2768 34.2969 33.4515 33.8748 33.769 33.5573L35.8085 31.5178C35.8176 31.6043 35.8239 31.6914 35.8239 31.7796V41.8754C35.8239 42.296 36.165 42.6371 36.5857 42.6371C37.0063 42.6371 37.3474 42.296 37.3474 41.8754V31.7797C37.3471 30.1934 36.4105 28.752 34.9609 28.1078ZM26.0016 29.4003L23.1699 26.5686C23.3853 26.2063 23.5068 25.7871 23.5068 25.3487V25.0387C24.2749 25.3615 25.1178 25.5403 26.0017 25.5403C26.8856 25.5403 27.7284 25.3616 28.4964 25.0388V25.3487C28.4964 25.7872 28.618 26.2063 28.8334 26.5687L26.0016 29.4003ZM26.0017 24.0168C23.2793 24.0169 21.0644 21.802 21.0644 19.0796V18.7371C21.5398 18.5487 23.7665 16.486 24.2107 16.0762C24.5197 15.7909 24.5391 15.309 24.2537 14.9998C23.9684 14.6908 23.4866 14.6714 23.1774 14.9567C22.7964 15.3084 20.6529 17.2984 20.2834 17.3949C20.2745 17.3972 20.2679 17.3983 20.2632 17.3987C20.2577 17.388 20.2503 17.3656 20.2503 17.3298V15.8231C20.2503 13.1007 22.4652 10.8858 25.1876 10.8858H26.8158C29.5383 10.8858 31.7531 13.1007 31.7531 15.8231V15.9892C31.7531 16.0138 31.7383 16.0353 31.7188 16.0391C27.1575 16.94 24.8697 15.2422 24.0978 14.4703C23.8003 14.1728 23.318 14.1728 23.0206 14.4703C22.7232 14.7678 22.7232 15.2501 23.0206 15.5475C25.386 17.9129 28.8377 17.9555 30.939 17.703V19.0795C30.939 21.8019 28.7241 24.0168 26.0017 24.0168Z" fill="#FF5C00"/>
</g>
</g>
<g id="Group_3">
<g id="Group_4">
<path id="Vector_2" d="M13.7355 23.9648V22.3362C13.7355 20.349 12.7029 18.5997 11.1468 17.593C11.2429 17.2848 11.2931 16.9619 11.2931 16.6372C11.2931 14.8704 9.85575 13.4331 8.08896 13.4331C6.32218 13.4331 4.88486 14.8705 4.88486 16.6372C4.88486 16.966 4.93463 17.2857 5.03091 17.5932C3.47497 18.5998 2.44238 20.3491 2.44238 22.3362V23.9644C2.44238 25.8888 3.41058 27.5903 4.88476 28.6102V30.2853C4.88476 30.6157 4.70124 30.9127 4.40579 31.0604L1.77115 32.3777C0.678642 32.9241 0 34.0222 0 35.2437V41.8756C0 42.2963 0.341048 42.6374 0.76172 42.6374C1.18239 42.6374 1.52344 42.2963 1.52344 41.8756V35.5732L2.76433 36.8141C3.08172 37.1315 3.25661 37.5535 3.25661 38.0025V41.8756C3.25661 42.2963 3.59766 42.6374 4.01833 42.6374C4.439 42.6374 4.78005 42.2963 4.78005 41.8756V38.0025C4.78005 37.1467 4.44672 36.3421 3.84161 35.7369L2.11454 34.0098C2.10621 34.0015 2.09727 33.9943 2.08874 33.9865C2.19711 33.8908 2.31868 33.8075 2.45254 33.7405L5.08717 32.4232C5.22215 32.3557 5.34778 32.2759 5.46489 32.1874L7.32724 34.0498V41.8757C7.32724 42.2964 7.66829 42.6375 8.08896 42.6375C8.50963 42.6375 8.85068 42.2964 8.85068 41.8757V34.0497L10.7131 32.1873C10.8303 32.2759 10.9559 32.3557 11.0909 32.4231L11.8173 32.7864C11.9267 32.8411 15.2035 35.4211 15.3181 35.4211C15.5975 35.4211 15.8665 35.2667 16 34.9999C16.1882 34.6236 16.0356 34.1661 15.6594 33.978L11.7722 31.0606C11.4767 30.9129 11.2932 30.6159 11.2932 30.2856V28.6105C12.7673 27.5906 13.7355 25.889 13.7355 23.9648ZM8.08896 14.9565C9.01572 14.9565 9.76962 15.7105 9.76962 16.6372C9.76962 16.7393 9.76048 16.8393 9.74301 16.9373C9.21956 16.7767 8.66431 16.6896 8.08896 16.6896C7.51442 16.6896 6.95989 16.7763 6.43725 16.9366C6.41968 16.8386 6.4083 16.7391 6.4083 16.6372C6.4083 15.7104 7.1622 14.9565 8.08896 14.9565ZM8.08896 18.2132C10.3624 18.2132 12.2121 20.0628 12.2121 22.3363V22.6123C9.04081 23.5833 7.15083 21.1709 7.07008 21.0651C6.93754 20.8885 6.73493 20.778 6.51474 20.7624C6.29455 20.7469 6.07822 20.8275 5.92212 20.9836C5.19503 21.7107 4.48288 22.0614 3.96856 22.2307C4.02493 20.0058 5.85092 18.2132 8.08896 18.2132ZM8.08896 32.6569L6.32878 30.8967C6.38017 30.7003 6.4083 30.4955 6.4083 30.2854V29.3556C6.93937 29.5216 7.50396 29.611 8.08896 29.611C8.67396 29.611 9.23855 29.5216 9.76962 29.3556V30.2854C9.76962 30.4955 9.79775 30.7004 9.84914 30.8967L8.08896 32.6569ZM8.08896 28.0876C5.81548 28.0876 3.96582 26.2379 3.96582 23.9644V23.8066C4.57327 23.6671 5.47392 23.3428 6.41348 22.5872C6.7459 22.9008 7.22101 23.2855 7.82602 23.6155C8.54163 24.0058 9.52993 24.3668 10.7371 24.3668C11.1959 24.3668 11.6867 24.3135 12.2056 24.191C12.0875 26.3596 10.2864 28.0876 8.08896 28.0876Z" fill="#FF5C00"/>
</g>
</g>
<g id="Group_5">
<g id="Group_6">
<path id="Vector_3" d="M50.2318 30.7496L45.9689 28.6181C45.6735 28.4703 45.49 28.1734 45.49 27.8431V26.7636C46.4878 25.8776 47.1182 24.5866 47.1182 23.1505V22.2834C47.1358 22.2834 47.153 22.284 47.1706 22.284C47.5913 22.284 47.9323 21.9429 47.9323 21.5222V19.894C47.9323 17.2294 45.7645 15.0615 43.0999 15.0615H41.4716C38.807 15.0615 36.6392 17.2294 36.6392 19.894V21.5222C36.6392 21.9429 36.9802 22.284 37.4009 22.284C37.4072 22.284 37.4255 22.2837 37.4533 22.2826V23.1505C37.4533 24.5867 38.0838 25.8777 39.0817 26.7637V27.8432C39.0817 28.1736 36.1387 29.8304 35.8431 29.9781C35.4668 30.1661 35.3143 30.6237 35.5025 31C35.6359 31.2669 35.905 31.4213 36.1844 31.4213C36.2988 31.4213 39.1745 30.0355 39.2839 29.9809C39.4188 29.9133 39.5445 29.8336 39.6616 29.7451L41.524 31.6075V41.8758C41.524 42.2965 41.8651 42.6375 42.2858 42.6375C42.7064 42.6375 43.0475 42.2965 43.0475 41.8758V31.6073L44.9098 29.7449C45.027 29.8335 45.1526 29.9132 45.2875 29.9807L49.4125 32.0432L48.1614 33.2944C47.5563 33.8996 47.2229 34.7042 47.2229 35.56V41.8756C47.2229 42.2963 47.564 42.6373 47.9846 42.6373C48.4053 42.6373 48.7464 42.2963 48.7464 41.8756V35.56C48.7464 35.1111 48.9212 34.689 49.2386 34.3715L50.4238 33.1864C50.4597 33.3242 50.4794 33.4679 50.4794 33.6154V41.8756C50.4794 42.2963 50.8205 42.6373 51.2411 42.6373C51.6618 42.6373 52.0029 42.2963 52.0029 41.8756V33.6154C52.003 32.394 51.3243 31.2959 50.2318 30.7496ZM38.1625 20.6038V19.8939C38.1625 18.0693 39.6471 16.5849 41.4716 16.5849H43.0999C44.9245 16.5849 46.4089 18.0693 46.4089 19.8939V20.74C43.0977 20.5613 41.0994 19.2728 41.08 19.2601C40.9511 19.1742 40.8041 19.1322 40.6577 19.1322C40.4611 19.1322 40.2661 19.2081 40.1188 19.3553C39.39 20.0841 38.6759 20.4349 38.1625 20.6038ZM42.2858 30.2146L40.5256 28.4544C40.577 28.258 40.6051 28.0532 40.6051 27.8431V27.6809C41.1288 27.8758 41.695 27.9828 42.2858 27.9828C42.8766 27.9828 43.4428 27.8758 43.9664 27.6809V27.8431C43.9664 28.0532 43.9944 28.258 44.0459 28.4544L42.2858 30.2146ZM42.2858 26.4595C40.4612 26.4595 38.9767 24.9752 38.9767 23.1505V21.9225C39.5103 21.7093 40.1318 21.3704 40.7644 20.8315C41.5643 21.2477 43.2378 21.9671 45.5948 22.2047V23.1505C45.5948 24.9751 44.1103 26.4595 42.2858 26.4595Z" fill="#FF5C00"/>
</g>
</g>
</g>
<defs>
<clipPath id="clip0_393_3046">
<rect width="52" height="52" fill="white"/>
</clipPath>
</defs>
</svg>
