<svg width="52" height="52" viewBox="0 0 52 52" fill="none" xmlns="http://www.w3.org/2000/svg">
<g id="fi_1572155" clip-path="url(#clip0_393_3056)">
<path id="Vector" d="M47.7724 27.1244L36.7418 16.0935C36.3978 15.768 35.8599 15.768 35.5163 16.0935L30.6134 20.996C30.2753 21.3345 30.2753 21.8829 30.6134 22.2215L31.2261 22.8342L29.5707 24.4897L28.2432 24.7538L25.7109 22.2215C25.5484 22.059 25.3279 21.9676 25.0981 21.9676H21.7804L20.1952 20.3832C20.5337 20.0451 20.5337 19.4962 20.1952 19.1577L15.2935 14.2543C15.1306 14.0914 14.9101 14 14.6803 14C14.4501 14 14.2297 14.0914 14.0672 14.2543L4.26172 24.0598C3.92318 24.3983 3.92318 24.9467 4.26172 25.2853L9.16423 30.1878C9.50277 30.5263 10.0512 30.5263 10.3897 30.1878L16.0172 35.8152C15.6388 36.5964 15.679 37.5151 16.1234 38.2603C16.5673 39.0055 17.3565 39.4778 18.2236 39.5167C18.279 40.848 19.3467 41.9136 20.678 41.9669C20.7347 43.2944 21.7982 44.3575 23.1253 44.4142C23.1798 45.4357 23.8294 46.3295 24.7841 46.6972C25.7384 47.0645 26.82 46.8373 27.5453 46.1162L28.4666 47.0374C29.1898 47.77 30.2778 48.0048 31.2388 47.6362C32.1994 47.2672 32.8507 46.3646 32.8981 45.3363C34.2277 45.2817 35.2929 44.2161 35.347 42.8865C36.6775 42.8302 37.7435 41.7647 37.7998 40.4346C38.8243 40.3855 39.7231 39.7364 40.0917 38.7796C40.4603 37.8223 40.2292 36.7382 39.5026 36.0145L38.586 35.0975L41.035 32.6431L41.6477 33.2567C41.9863 33.5952 42.5347 33.5952 42.8732 33.2567L47.7762 28.3542C48.1143 28.0156 48.1143 27.4672 47.7762 27.1286L47.7724 27.1244ZM31.5329 30.4946C31.8715 30.8331 31.8715 31.3816 31.5329 31.7201C31.1906 32.0489 30.6498 32.0489 30.3074 31.7201L26.6304 28.044C26.2919 27.7054 25.743 27.7054 25.4049 28.044C24.3893 29.06 22.7423 29.06 21.7267 28.044L20.5045 29.2691C20.8194 29.578 21.1795 29.837 21.5722 30.0371L17.1343 34.478L14.0672 31.4142L21.7804 23.7009H24.7393L31.5329 30.4946ZM9.77952 28.3495L6.09958 24.6725L14.6799 16.0926L18.3569 19.7696L9.77952 28.3495ZM18.9722 21.6087L20.196 22.8342L12.8408 30.1878L11.6153 28.9623L18.9722 21.6087ZM25.7045 45.1425C25.4773 45.1433 25.2589 45.054 25.0981 44.8936C24.7651 44.5593 24.7608 44.0198 25.0884 43.6804L25.0981 43.6706L26.8788 41.8895L27.547 41.223L26.3236 39.9941L25.6533 40.6644L23.8654 42.4451L23.8578 42.4549C23.5125 42.7625 22.9869 42.7452 22.6627 42.4151C22.3386 42.0854 22.3305 41.5594 22.6445 41.2196L25.0981 38.7677L23.8726 37.5426L21.4215 39.9941C21.083 40.333 20.5341 40.333 20.1956 39.9945C19.8571 39.6564 19.8566 39.1075 20.1952 38.769L22.6471 36.3179L21.4215 35.0924L18.9688 37.5435C18.6265 37.871 18.0869 37.871 17.7441 37.5435C17.406 37.2049 17.406 36.6565 17.7441 36.3179L23.5379 30.5217C24.3969 30.5344 25.2403 30.2902 25.9593 29.8205L29.0844 32.9456C30.1136 33.9278 31.7327 33.9278 32.7618 32.9456C33.7771 31.9304 33.7771 30.2847 32.7618 29.2691L29.7201 26.2273L37.3605 33.8669L37.1003 34.1267C36.3453 33.9177 35.5362 34.0645 34.9027 34.5249C34.2688 34.9858 33.8799 35.7103 33.846 36.4927C32.5075 36.5494 31.4386 37.6281 31.3941 38.9674C30.0641 39.0005 28.9905 40.0643 28.9452 41.3939C28.1636 41.4274 27.44 41.815 26.9787 42.4468C26.5179 43.0786 26.3698 43.886 26.5767 44.6406L26.3164 44.9004C26.1527 45.0591 25.9326 45.1463 25.7045 45.1425ZM30.9202 45.8157C30.5778 46.1437 30.0374 46.1437 29.6947 45.8157L28.4683 44.5877C28.1653 44.2445 28.1814 43.7248 28.5047 43.4011C28.8284 43.0773 29.3481 43.0608 29.6913 43.3638L30.9202 44.5877C31.0835 44.7493 31.1749 44.9698 31.1741 45.1996C31.1749 45.4306 31.0835 45.6524 30.9202 45.8157ZM33.3712 43.3638C33.0327 43.7024 32.4842 43.7024 32.1457 43.3638L30.9202 42.1383C30.7577 41.9758 30.6659 41.7553 30.6659 41.5251C30.6659 41.2953 30.7577 41.0744 30.9202 40.9119C31.0818 40.7486 31.3023 40.6572 31.5321 40.658C31.7619 40.658 31.9824 40.7494 32.1449 40.9119L33.3704 42.1375C33.5333 42.3 33.6247 42.5204 33.6247 42.7507C33.6251 42.9804 33.5337 43.2013 33.3712 43.3638ZM35.8214 40.9119C35.4786 41.2395 34.9391 41.2395 34.5967 40.9119L33.3712 39.6864C33.0428 39.3466 33.0475 38.8058 33.3818 38.4715C33.7161 38.1372 34.2565 38.1325 34.5967 38.4609L35.8223 39.6864C35.9848 39.8489 36.0762 40.0694 36.0762 40.2992C36.077 40.5294 35.9852 40.7503 35.8214 40.9119ZM38.2737 38.4609C38.1112 38.6238 37.8908 38.7152 37.6605 38.7152C37.4308 38.7152 37.2103 38.6238 37.0474 38.4609L35.8223 37.2358C35.4829 36.8968 35.4825 36.3476 35.8214 36.0086C36.16 35.6692 36.7092 35.6688 37.0486 36.0077L38.2712 37.2358C38.6097 37.5739 38.6097 38.1228 38.2712 38.4609H38.2737ZM38.5805 32.6388L31.227 25.2853L32.4517 24.0598L39.8061 31.4142L38.5805 32.6388ZM42.2579 31.4142L32.4517 21.6087L36.1291 17.9313L45.9345 27.7372L42.2579 31.4142Z" fill="#FF5C00"/>
<path id="Vector_2" d="M9.49896 49.4V28.5H7.76562V49.4C7.76562 50.8358 8.92936 52 10.3656 52H35.5V50.2667H10.3656C9.88701 50.2667 9.49896 49.8786 9.49896 49.4Z" fill="#FF5C00"/>
<path id="Vector_3" d="M42.4328 49.4C42.4328 49.8786 42.0448 50.2667 41.5661 50.2667H34.6328V52H41.5661C43.002 52 44.1661 50.8358 44.1661 49.4V31.5H42.4328V49.4Z" fill="#FF5C00"/>
<path id="Vector_4" d="M9.49896 2.6C9.49896 2.12139 9.88701 1.73333 10.3656 1.73333H34.6323V7.8C34.6323 9.23584 35.796 10.4 37.2323 10.4H42.4323V24.2667H44.1656V9.55915C44.1656 9.34544 44.0865 9.13936 43.9435 8.98024L36.1435 0.28776C35.9793 0.104525 35.7448 0 35.499 0H10.3656C8.92936 0 7.76562 1.16416 7.76562 2.6V21H9.49896V2.6ZM36.3656 7.8V3.1332L41.3333 8.66667H37.2323C36.7537 8.66667 36.3656 8.27861 36.3656 7.8Z" fill="#FF5C00"/>
<path id="Vector_5" d="M12.9648 5.2002H14.6982V6.93353H12.9648V5.2002Z" fill="#FF5C00"/>
<path id="Vector_6" d="M16.4297 5.2002H23.363V6.93353H16.4297V5.2002Z" fill="#FF5C00"/>
<path id="Vector_7" d="M12.9648 8.6665H23.3648V10.3998H12.9648V8.6665Z" fill="#FF5C00"/>
<path id="Vector_8" d="M18.1641 13.8667H38.9641V15.6H18.1641V13.8667Z" fill="#FF5C00"/>
<path id="Vector_9" d="M19.8984 19.0669H32.8984V20.8002H19.8984V19.0669Z" fill="#FF5C00"/>
</g>
<defs>
<clipPath id="clip0_393_3056">
<rect width="52" height="52" fill="white"/>
</clipPath>
</defs>
</svg>
