<svg width="52" height="52" viewBox="0 0 52 52" fill="none" xmlns="http://www.w3.org/2000/svg">
<g id="fi_6903359">
<g id="Group">
<path id="Vector" d="M43.1348 30.9911C42.6984 30.9911 42.3449 30.6376 42.3449 30.2012V23.3026C42.3449 22.6494 41.8134 22.1178 41.1601 22.1178H37.5399C37.1035 22.1178 36.75 21.7644 36.75 21.328C36.75 20.8916 37.1035 20.5381 37.5399 20.5381H41.1601C42.6846 20.5381 43.9247 21.7782 43.9247 23.3026V30.2015C43.9247 30.6376 43.5709 30.9911 43.1348 30.9911Z" fill="#FF5C00"/>
<path id="Vector_2" d="M41.1607 51.2758H7.67862C6.15416 51.2758 4.91406 50.0357 4.91406 48.5112V18.5306C4.91406 18.0942 5.26753 17.7407 5.70394 17.7407C6.14034 17.7407 6.49381 18.0942 6.49381 18.5306V48.5112C6.49381 49.1645 7.02533 49.696 7.67862 49.696H41.1607C41.814 49.696 42.3455 49.1645 42.3455 48.5112V38.8155C42.3455 38.3791 42.699 38.0257 43.1354 38.0257C43.5718 38.0257 43.9253 38.3791 43.9253 38.8155V48.5112C43.9253 50.0357 42.6852 51.2758 41.1607 51.2758Z" fill="#FF5C00"/>
<path id="Vector_3" d="M37.5408 22.117H8.50075C8.48923 22.117 8.47804 22.117 8.46652 22.1167C7.5213 22.1082 6.63335 21.7356 5.96459 21.0665C5.29715 20.3997 4.92427 19.5131 4.91439 18.5699C4.91406 18.5567 4.91406 18.5435 4.91406 18.5307C4.91406 16.553 6.5231 14.9443 8.50075 14.9443H10.9928C11.4292 14.9443 11.7827 15.2978 11.7827 15.7342C11.7827 16.1706 11.4292 16.5241 10.9928 16.5241H8.50075C7.39394 16.5241 6.49381 17.4242 6.49381 18.5307V18.5323C6.49381 18.5376 6.49414 18.5429 6.49414 18.5481C6.49842 19.0773 6.70708 19.5753 7.08194 19.9495C7.45778 20.3257 7.95705 20.5343 8.48791 20.5373C8.49384 20.5373 8.50009 20.5373 8.50601 20.5376H36.7512V18.5307C36.7512 17.5101 35.9883 16.6534 34.9766 16.5372C34.5432 16.4876 34.2322 16.0959 34.2819 15.6625C34.3316 15.229 34.7232 14.918 35.1567 14.9677C36.9665 15.175 38.3313 16.7067 38.3313 18.5304V21.3272C38.3306 21.7632 37.9772 22.117 37.5408 22.117ZM8.52181 20.538H8.52247C8.52214 20.538 8.52214 20.538 8.52181 20.538ZM6.49348 18.5221C6.49348 18.5234 6.49348 18.5248 6.49381 18.5264C6.49381 18.5251 6.49348 18.5234 6.49348 18.5221Z" fill="#FF5C00"/>
<g id="Group_2">
<g id="Group_3">
<path id="Vector_4" d="M12.1568 22.1176C12.0488 22.1176 11.9389 22.0952 11.8339 22.0482C11.436 21.8694 11.2579 21.4021 11.4367 21.0042L20.3263 1.19023C20.4119 0.999019 20.5702 0.84993 20.766 0.775221C20.9619 0.700842 21.1791 0.707095 21.3703 0.792664L38.3598 8.41527C38.7577 8.59398 38.9358 9.06132 38.7571 9.45922L33.2872 21.6503C33.1085 22.0482 32.6411 22.2262 32.2432 22.0475C31.8453 21.8688 31.6673 21.4015 31.846 21.0036L36.9923 9.53327L21.4443 2.5577L12.8778 21.6509C12.7465 21.9438 12.4585 22.1176 12.1568 22.1176Z" fill="#FF5C00"/>
<path id="Vector_5" d="M29.2605 22.1177C29.1526 22.1177 29.0427 22.0953 28.9377 22.0483C28.5398 21.8696 28.3617 21.4022 28.5404 21.0043L31.8365 13.6575C31.2777 13.2445 30.8472 12.6797 30.5941 12.0146C30.341 11.3491 30.2867 10.6415 30.4295 9.96122L25.4872 7.74398C25.0742 8.30282 24.5094 8.73297 23.844 8.98606C23.1788 9.23915 22.4709 9.29345 21.7906 9.15028L18.692 16.0574L16.1825 21.651C16.0041 22.0489 15.5365 22.227 15.1386 22.0483C14.7407 21.8696 14.5626 21.4022 14.7413 21.0043L17.2508 15.4107L20.6384 7.86016C20.7243 7.66894 20.8823 7.51985 21.0781 7.44515C21.2739 7.37077 21.4911 7.37702 21.6824 7.46259C22.1921 7.69132 22.7605 7.70778 23.2825 7.50932C23.8045 7.31054 24.2182 6.92054 24.4466 6.41107C24.5321 6.21985 24.6905 6.07077 24.8863 5.99606C25.0821 5.92135 25.2993 5.92793 25.4905 6.0135L31.7193 8.80801C31.9106 8.8939 32.0596 9.05188 32.1343 9.2477C32.2087 9.44352 32.2025 9.66074 32.1169 9.85196C31.8882 10.3614 31.8717 10.9298 32.0705 11.4521C32.2693 11.9744 32.6596 12.3878 33.1691 12.6165C33.3603 12.7021 33.5094 12.8604 33.5841 13.0562C33.6588 13.252 33.6522 13.4692 33.5667 13.6605L32.4911 16.0571L29.9816 21.6507C29.85 21.9439 29.562 22.1177 29.2605 22.1177Z" fill="#FF5C00"/>
<path id="Vector_6" d="M19.6024 22.1174C19.1663 22.1174 18.8128 21.7643 18.8125 21.3282C18.8122 20.8253 18.9168 20.3366 19.1242 19.8755C19.5119 19.0112 20.2132 18.3497 21.0985 18.0127C21.9842 17.6757 22.9478 17.7036 23.8121 18.0917C25.0844 18.6624 25.9072 19.9327 25.9079 21.3275C25.9082 21.7636 25.5547 22.1177 25.1183 22.1177H25.118C24.6819 22.1177 24.3284 21.7643 24.3281 21.3282C24.3278 20.5544 23.8713 19.8498 23.1654 19.5329C22.6858 19.3176 22.1514 19.3022 21.6603 19.4891C21.1693 19.676 20.7803 20.043 20.565 20.5225C20.4498 20.7786 20.3919 21.0494 20.3919 21.3272C20.3922 21.7636 20.0388 22.1174 19.6027 22.1177C19.6027 22.1174 19.6027 22.1174 19.6024 22.1174Z" fill="#FF5C00"/>
</g>
<path id="Vector_7" d="M8.48488 22.1171C8.37693 22.1171 8.267 22.0947 8.16202 22.0476C7.76412 21.8689 7.58607 21.4016 7.76478 21.0037L16.1654 2.28008C16.2513 2.08886 16.4093 1.93977 16.6051 1.86507C16.8009 1.79069 17.0181 1.79694 17.2094 1.88251L20.2662 3.25458C20.6641 3.43329 20.8421 3.90063 20.6634 4.29853C20.4847 4.69643 20.0174 4.87448 19.6195 4.69577L17.2834 3.64755L9.20597 21.6501C9.07432 21.9433 8.78634 22.1171 8.48488 22.1171Z" fill="#FF5C00"/>
</g>
<path id="Vector_8" d="M46.299 39.6054H38.3548C35.5442 39.6054 33.2578 37.3188 33.2578 34.5081C33.2578 31.6975 35.5445 29.4111 38.3548 29.4111H46.299C46.7354 29.4111 47.0888 29.7646 47.0888 30.201V38.8156C47.0888 39.252 46.735 39.6054 46.299 39.6054ZM38.3548 30.9909C36.4153 30.9909 34.8376 32.5687 34.8376 34.5081C34.8376 36.4476 36.4153 38.0257 38.3548 38.0257H45.5091V30.9909H38.3548Z" fill="#FF5C00"/>
<path id="Vector_9" d="M38.2696 36.7193C37.0502 36.7193 36.0586 35.7274 36.0586 34.5084C36.0586 33.2893 37.0505 32.2974 38.2696 32.2974C39.4886 32.2974 40.4806 33.2893 40.4806 34.5084C40.4806 35.7274 39.4886 36.7193 38.2696 36.7193ZM38.2696 33.8771C37.9214 33.8771 37.6383 34.1601 37.6383 34.5084C37.6383 34.8566 37.9214 35.1396 38.2696 35.1396C38.6178 35.1396 38.9008 34.8566 38.9008 34.5084C38.9008 34.1601 38.6175 33.8771 38.2696 33.8771Z" fill="#FF5C00"/>
</g>
</g>
</svg>
