<svg width="52" height="52" viewBox="0 0 52 52" fill="none" xmlns="http://www.w3.org/2000/svg">
<g id="fi_5673947">
<g id="Group 3820">
<path id="Vector" d="M45.1875 1H14.3125C14.097 1 13.8903 1.0856 13.738 1.23798C13.5856 1.39035 13.5 1.59701 13.5 1.8125V5.0625H7.8125C7.59701 5.0625 7.39035 5.1481 7.23798 5.30048C7.0856 5.45285 7 5.65951 7 5.875V50.5625C7 50.778 7.0856 50.9847 7.23798 51.137C7.39035 51.2894 7.59701 51.375 7.8125 51.375H38.6875C38.903 51.375 39.1097 51.2894 39.262 51.137C39.4144 50.9847 39.5 50.778 39.5 50.5625V46.5H45.1875C45.403 46.5 45.6097 46.4144 45.762 46.262C45.9144 46.1097 46 45.903 46 45.6875V1.8125C46 1.59701 45.9144 1.39035 45.762 1.23798C45.6097 1.0856 45.403 1 45.1875 1ZM11.875 6.6875H15.125V13.1875H11.875V6.6875ZM8.625 49.75V6.6875H10.25V14C10.25 14.2155 10.3356 14.4222 10.488 14.5745C10.6403 14.7269 10.847 14.8125 11.0625 14.8125H15.9375C16.153 14.8125 16.3597 14.7269 16.512 14.5745C16.6644 14.4222 16.75 14.2155 16.75 14V6.6875H31.375V12.375C31.375 12.5905 31.4606 12.7972 31.613 12.9495C31.7653 13.1019 31.972 13.1875 32.1875 13.1875H37.875V49.75H8.625ZM33 7.83637L36.7261 11.5625H33V7.83637ZM44.375 44.875H39.5V12.375C39.5 12.1595 39.4143 11.9529 39.2619 11.8006L32.7619 5.30056C32.6096 5.14818 32.403 5.06255 32.1875 5.0625H15.125V2.625H44.375V44.875Z" fill="#FF5C00"/>
<path id="Vector_2" d="M33.8125 27.8125H12.6875C12.472 27.8125 12.2653 27.8981 12.113 28.0505C11.9606 28.2028 11.875 28.4095 11.875 28.625V31.875C11.875 32.0905 11.9606 32.2972 12.113 32.4495C12.2653 32.6019 12.472 32.6875 12.6875 32.6875H33.8125C34.028 32.6875 34.2347 32.6019 34.387 32.4495C34.5394 32.2972 34.625 32.0905 34.625 31.875V28.625C34.625 28.4095 34.5394 28.2028 34.387 28.0505C34.2347 27.8981 34.028 27.8125 33.8125 27.8125ZM33 31.0625H13.5V29.4375H33V31.0625Z" fill="#FF5C00"/>
<path id="Vector_3" d="M11.875 34.3125H29.75V35.9375H11.875V34.3125Z" fill="#FF5C00"/>
<path id="Vector_4" d="M11.875 37.5625H29.75V39.1875H11.875V37.5625Z" fill="#FF5C00"/>
<path id="Vector_5" d="M31.375 34.3125H34.625V35.9375H31.375V34.3125Z" fill="#FF5C00"/>
<path id="Vector_6" d="M31.375 37.5625H34.625V39.1875H31.375V37.5625Z" fill="#FF5C00"/>
<path id="Vector_7" d="M11.875 40.8125H29.75V42.4375H11.875V40.8125Z" fill="#FF5C00"/>
<path id="Vector_8" d="M11.875 44.0625H29.75V45.6875H11.875V44.0625Z" fill="#FF5C00"/>
<path id="Vector_9" d="M31.375 40.8125H34.625V42.4375H31.375V40.8125Z" fill="#FF5C00"/>
<path id="Vector_10" d="M31.375 44.0625H34.625V45.6875H31.375V44.0625Z" fill="#FF5C00"/>
<path id="Vector_11" d="M17.5625 26.1872H28.9375C29.153 26.1872 29.3597 26.1016 29.512 25.9492C29.6644 25.7968 29.75 25.5902 29.75 25.3747V22.9372C29.7484 21.7252 29.408 20.5379 28.7672 19.5092C28.1265 18.4805 27.2109 17.6514 26.1238 17.1156C26.9547 16.5092 27.5725 15.6556 27.8888 14.6768C28.2051 13.698 28.2037 12.6443 27.8848 11.6664C27.5659 10.6884 26.9458 9.83642 26.1134 9.23226C25.2809 8.62809 24.2786 8.30273 23.25 8.30273C22.2214 8.30273 21.2191 8.62809 20.3866 9.23226C19.5542 9.83642 18.9341 10.6884 18.6152 11.6664C18.2963 12.6443 18.2949 13.698 18.6112 14.6768C18.9275 15.6556 19.5453 16.5092 20.3762 17.1156C19.2891 17.6514 18.3735 18.4805 17.7328 19.5092C17.092 20.5379 16.7516 21.7252 16.75 22.9372V25.3747C16.75 25.5902 16.8356 25.7968 16.988 25.9492C17.1403 26.1016 17.347 26.1872 17.5625 26.1872ZM20 13.1872C20 12.5444 20.1906 11.916 20.5477 11.3816C20.9048 10.8471 21.4124 10.4305 22.0063 10.1846C22.6001 9.93857 23.2536 9.87421 23.884 9.99962C24.5145 10.125 25.0936 10.4345 25.5481 10.8891C26.0026 11.3436 26.3122 11.9227 26.4376 12.5531C26.563 13.1836 26.4986 13.837 26.2526 14.4309C26.0066 15.0247 25.5901 15.5323 25.0556 15.8894C24.5211 16.2466 23.8928 16.4372 23.25 16.4372C22.388 16.4372 21.5614 16.0948 20.9519 15.4853C20.3424 14.8758 20 14.0491 20 13.1872ZM18.375 22.9372C18.375 21.6442 18.8886 20.4043 19.8029 19.49C20.7171 18.5758 21.9571 18.0622 23.25 18.0622C24.5429 18.0622 25.7829 18.5758 26.6971 19.49C27.6114 20.4043 28.125 21.6442 28.125 22.9372V24.5622H18.375V22.9372Z" fill="#FF5C00"/>
</g>
</g>
</svg>
