<svg width="100" height="100" viewBox="0 0 100 100" fill="none" xmlns="http://www.w3.org/2000/svg">
<path d="M74 24H26C23.5232 24 21.5195 25.2632 20 26.9873L19 31.966V62.8345C19 67.4209 21.4201 70.8005 26 70.8005H37C37.8247 70.8005 38.4168 72.208 39 72.792L49 82.7496H51C51.1193 82.6661 51.8936 82.8562 52 82.7496L61 72.792C61.5832 72.208 63.1753 71.7963 64 71.7963H74C78.5799 71.7963 82 68.4167 82 63.8302V31.966C81.9999 27.3795 78.5799 24 74 24Z" fill="#DFEEFA"/>
<path d="M38 72.7921L48 81.7539C48.8587 82.6155 50.038 83.424 51 82.7496L40 70.8006C39.0517 69.849 37.3414 69.8048 36 69.8048H26C22.6285 69.8048 20 66.2175 20 62.8345V26.9873C18.7352 28.4284 18 29.8948 18 31.9661V62.8345C18 67.3522 21.4977 71.7963 26 71.7963H36C36.8107 71.7962 37.4268 72.2168 38 72.7921Z" fill="#C9DFF7"/>
<path d="M65.9999 42.9193C65.5084 38.4253 61.3988 35.2461 56.9999 34.9533C54.3353 34.7759 51.7888 36.2466 49.9999 37.9405C49.615 38.3051 49.385 38.3051 48.9999 37.9405C47.211 36.2466 44.6645 34.7759 41.9999 34.9533C40.9374 35.0241 39.9457 35.5293 38.9999 35.949C36.0297 37.2667 33.9999 42.9193 33.9999 42.9193C32.9579 52.4461 45.2683 60.5589 48.9999 62.8344H51.9999C56.6509 59.8128 66.9489 51.5973 65.9999 42.9193Z" fill="#FF2334"/>
<path d="M34.9999 41.9236C35.2802 39.4669 37.1282 37.4467 38.9999 35.9491C35.9563 37.2476 33.3823 40.564 32.9999 43.9151C31.9307 53.2908 45.1702 61.5909 48.9999 63.8303C49.6609 64.2167 50.339 64.2167 50.9999 63.8303C51.3404 63.6312 51.5343 63.1246 51.9999 62.8345C49.5585 61.4809 33.8429 52.0692 34.9999 41.9236Z" fill="#FF5F7A"/>
<circle cx="50" cy="50" r="49.5" stroke="#119FC3"/>
</svg>
