<svg width="101" height="100" viewBox="0 0 101 100" fill="none" xmlns="http://www.w3.org/2000/svg">
<path d="M67.9126 82H30.9954C27.7276 82 24.6667 79.1728 24.6667 76.0923V26.8616C24.6667 25.8331 25.6853 24.8923 26.7762 24.8923H72.1317C73.2227 24.8923 74.2413 25.8331 74.2413 26.8616V76.0923C74.2412 79.1728 71.1804 82 67.9126 82Z" fill="#DFEEFA"/>
<path d="M72.1318 24.8923H48.9266V82H67.9127C71.25 82 74.2413 79.1728 74.2413 76.0923V26.8616C74.2412 25.8331 73.2461 24.8923 72.1318 24.8923Z" fill="#C9DFF7"/>
<path d="M33.1049 31.7846C31.9399 31.7846 30.9954 30.8285 30.9954 29.8154V19.9692C30.9954 18.9561 31.9399 18 33.1049 18C34.27 18 35.2145 18.9561 35.2145 19.9692V29.8154C35.2145 30.8285 34.27 31.7846 33.1049 31.7846Z" fill="#606A70"/>
<path d="M41.5432 31.7846C40.3781 31.7846 39.4336 30.8285 39.4336 29.8154V19.9692C39.4336 18.9561 40.3781 18 41.5432 18C42.7082 18 43.6527 18.9561 43.6527 19.9692V29.8154C43.6527 30.8285 42.7082 31.7846 41.5432 31.7846Z" fill="#606A70"/>
<path d="M48.9266 31.7846C47.7616 31.7846 46.8171 30.8285 46.8171 29.8154V19.9692C46.8171 18.9561 47.7616 18 48.9266 18C50.0917 18 51.0362 18.9561 51.0362 19.9692V29.8154C51.0362 30.8285 50.0917 31.7846 48.9266 31.7846Z" fill="#606A70"/>
<path d="M57.3649 31.7846C56.1998 31.7846 55.2553 30.8285 55.2553 29.8154V19.9692C55.2553 18.9561 56.1998 18 57.3649 18C58.5299 18 59.4744 18.9561 59.4744 19.9692V29.8154C59.4744 30.8285 58.53 31.7846 57.3649 31.7846Z" fill="#414952"/>
<path d="M64.7483 31.7846C63.5833 31.7846 62.6387 30.8285 62.6387 29.8154V19.9692C62.6387 18.9561 63.5833 18 64.7483 18C65.9133 18 66.8578 18.9561 66.8578 19.9692V29.8154C66.8578 30.8285 65.9133 31.7846 64.7483 31.7846Z" fill="#414952"/>
<path d="M51.0362 29.8154V19.9692C51.0362 18.9561 50.0917 18 48.9266 18V31.7846C50.0917 31.7846 51.0362 30.8285 51.0362 29.8154Z" fill="#414952"/>
<path d="M49.9814 42.6153H35.2145C34.119 42.6153 33.1049 41.7337 33.1049 40.6461C33.1049 39.5586 34.119 38.6769 35.2145 38.6769H49.9814C51.0769 38.6769 52.0909 39.5586 52.0909 40.6461C52.0909 41.7338 51.0769 42.6153 49.9814 42.6153Z" fill="#82A0D2"/>
<path d="M64.7483 50.4923H35.2145C34.1241 50.4923 33.1049 49.6106 33.1049 48.5231C33.1049 47.4355 34.1241 46.5538 35.2145 46.5538H64.7483C65.8387 46.5538 66.8578 47.4355 66.8578 48.5231C66.8578 49.6106 65.8387 50.4923 64.7483 50.4923Z" fill="#82A0D2"/>
<path d="M60.5292 57.3846H35.2145C34.1064 57.3846 33.1049 56.5029 33.1049 55.4154C33.1049 54.3279 34.1064 53.4462 35.2145 53.4462H60.5292C61.6373 53.4462 62.6387 54.3279 62.6387 55.4154C62.6387 56.5029 61.6373 57.3846 60.5292 57.3846Z" fill="#82A0D2"/>
<path d="M53.1457 65.2616H35.2145C34.1382 65.2616 33.1049 64.3799 33.1049 63.2924C33.1049 62.2048 34.1382 61.3231 35.2145 61.3231H53.1457C54.222 61.3231 55.2553 62.2048 55.2553 63.2924C55.2553 64.3799 54.222 65.2616 53.1457 65.2616Z" fill="#82A0D2"/>
<path d="M49.9814 72.1538H35.2145C34.1163 72.1538 33.1049 71.2721 33.1049 70.1846C33.1049 69.097 34.1163 68.2153 35.2145 68.2153H49.9814C51.0796 68.2153 52.0909 69.097 52.0909 70.1846C52.0909 71.2721 51.0796 72.1538 49.9814 72.1538Z" fill="#82A0D2"/>
<path d="M52.0909 70.1846C52.0909 69.097 51.1464 68.2153 49.9813 68.2153V72.1538C51.1464 72.1538 52.0909 71.2721 52.0909 70.1846Z" fill="#9EBBDB"/>
<path d="M53.1457 61.3231H49.9813V65.2616H53.1457C54.1792 65.2616 55.2552 64.3799 55.2552 63.2924C55.2552 62.2047 54.1792 61.3231 53.1457 61.3231Z" fill="#5877A6"/>
<path d="M60.5291 53.4462H49.9813V57.3846H60.5291C61.6618 57.3846 62.6387 56.5029 62.6387 55.4154C62.6387 54.3279 61.6618 53.4462 60.5291 53.4462Z" fill="#5877A6"/>
<path d="M64.7482 46.5538H49.9813V50.4923H64.7482C65.8386 50.4923 66.8578 49.6106 66.8578 48.5231C66.8578 47.4355 65.8386 46.5538 64.7482 46.5538Z" fill="#5877A6"/>
<path d="M49.9813 38.6769V42.6153C51.1193 42.6153 52.0909 41.7337 52.0909 40.6461C52.0909 39.5586 51.1193 38.6769 49.9813 38.6769Z" fill="#5877A6"/>
<path d="M49.9814 72.1539C49.4521 72.1539 49.3169 71.5343 48.9266 71.1693C48.3263 70.6079 47.5206 69.9229 47.8719 69.2L53.1458 59.3539C52.9729 59.5144 53.2492 59.1409 53.1458 59.3539C53.4343 59.086 55.2553 57.3846 55.2553 57.3846L63.6935 65.2616C63.6935 65.2616 61.8734 66.9602 61.584 67.2308C61.4136 67.3901 61.8094 67.1349 61.584 67.2308L51.0362 72.1539C50.7658 72.2688 50.2662 72.1539 49.9814 72.1539Z" fill="#FFEDD6"/>
<path d="M49.9814 72.1539C50.2591 72.1539 50.7724 72.2699 51.0361 72.1539L61.5839 67.2308C61.4178 67.3917 61.8038 67.1341 61.5839 67.2308C61.8662 66.9576 63.6935 65.2616 63.6935 65.2616L59.4744 61.3231L48.9266 71.1693C49.3074 71.5377 49.4652 72.1539 49.9814 72.1539Z" fill="#FFDAAB"/>
<path d="M53.1457 59.3539L78.4604 35.7231C79.594 34.6761 81.0765 33.7539 82.6795 33.7539C84.2825 33.7539 85.7652 34.6761 86.8986 35.7231C89.2384 37.8844 89.2383 41.4386 86.8986 43.6001L61.5839 67.2308L53.1457 59.3539Z" fill="#FFE645"/>
<path d="M61.5839 67.2307L86.8986 43.5999C89.2403 41.4621 89.2403 37.8609 86.8986 35.723L57.3648 63.2923L61.5839 67.2307Z" fill="#FFB500"/>
<path d="M76.3644 37.7496L69.5014 44.1025L77.9564 51.9291L84.8194 45.5762L76.3644 37.7496Z" fill="#606A70"/>
<path d="M80.982 41.2988L74.2413 47.5385L78.4434 51.4282L85.1841 45.1885L80.982 41.2988Z" fill="#414952"/>
<path d="M86.8986 35.7231C85.7643 34.6987 84.2838 33.7539 82.6795 33.7539C81.0752 33.7539 79.8012 34.4755 78.6667 35.5L76.3508 37.6924L84.7891 45.5693L86.8986 42.6154C89.2403 40.5007 89.2403 37.8377 86.8986 35.7231Z" fill="#FF826E"/>
<path d="M84.7891 45.5692L86.8987 43.5999C89.2561 41.564 89.2561 37.7589 86.8987 35.723L80.57 41.6307L84.7891 45.5692Z" fill="#FE5857"/>
<path d="M48.9268 67.2307L47.872 69.1999C47.5444 69.876 48.3667 70.6439 48.9268 71.1692C49.2907 71.5107 49.4879 72.1538 49.9815 72.1538C50.2471 72.1538 50.7842 72.2613 51.0363 72.1538L53.1459 71.1692L48.9268 67.2307Z" fill="#416191"/>
<path d="M49.9814 72.1538C50.2228 72.1538 50.8069 72.2562 51.0361 72.1538L53.1457 71.1692L51.0361 69.2L48.9266 71.1692C49.2574 71.4943 49.5327 72.1538 49.9814 72.1538Z" fill="#28415E"/>
<circle cx="50.6667" cy="50" r="49.5" stroke="#119FC3"/>
</svg>
