<svg width="101" height="100" viewBox="0 0 101 100" fill="none" xmlns="http://www.w3.org/2000/svg">
<g clip-path="url(#clip0_110_1081)">
<path d="M79.3333 21H21.3333C19.5058 21 18.3333 22.1589 18.3333 24V69C18.3333 70.8411 19.5058 72 21.3333 72H42.3333L40.3333 79C39.9375 80.4187 40.8713 82 42.3333 82H58.3333C59.7954 82 60.7292 80.4187 60.3333 79L58.3333 72H79.3333C81.1609 72 82.3333 70.8411 82.3333 69V24C82.3333 22.1589 81.1609 21 79.3333 21Z" fill="#CBE3FA"/>
<path d="M79.3333 21C81.1616 21 82.3333 22.1717 82.3333 24V25C82.3333 25.9141 81.2474 27 80.3333 27H63.3333C42.6143 27 26.17 42.4863 25.3333 63C25.2971 63.8901 24.2242 65 23.3333 65H18.3333V24C18.3333 22.1717 19.5051 21 21.3333 21H79.3333Z" fill="#EEF7FF"/>
<path d="M18.3333 65V69C18.3333 70.8771 19.5058 72 21.3333 72H42.3333L40.3333 79C39.9375 80.4464 40.8713 82 42.3333 82H58.3333C59.7954 82 60.7292 80.4464 60.3333 79L58.3333 72H79.3333C81.1609 72 82.3333 70.8771 82.3333 69V65H18.3333Z" fill="#B5D5F5"/>
<path d="M43.3333 82H42.3333C40.8004 82 39.9183 80.4586 40.3333 79L42.3333 72H48.3333L46.3333 79C45.7604 81.0134 44.869 82 43.3333 82Z" fill="#CBE3FA"/>
<path d="M25.3333 67V70C25.3333 70.9278 24.2611 72 23.3333 72H21.3333C19.4776 72 18.3333 70.8557 18.3333 69V65H23.3333C24.2611 65 25.3333 66.0722 25.3333 67Z" fill="#CBE3FA"/>
<path d="M58.3333 74H43.3333C42.5855 74 42.1304 73.638 42.3333 73V72H59.3333V73C59.5363 73.638 59.0812 74 58.3333 74Z" fill="#9EC7F0"/>
<path d="M63.3333 58C63.3512 58 58.3514 56.0063 58.3333 56C55.8899 55.159 54.3333 52.4854 54.3333 50C58.3297 48.3674 61.3333 44.5686 61.3333 40C63.0795 40 64.3333 38.437 64.3333 37V27C64.3375 22.1418 60.2442 18.0041 55.3333 18H47.3333C43.6975 17.9986 40.6865 20.661 39.3333 24C37.6662 23.9986 36.3333 25.351 36.3333 27V37C36.332 38.4987 37.802 39.9986 39.3333 40C39.3333 44.9664 42.4562 48.3987 46.3333 50C46.3231 52.5016 44.7797 55.1579 42.3333 56C42.3177 56.0053 37.2929 58 37.3333 58C34.9204 58.8334 33.3333 60.4561 33.3333 63V65H67.3333V63C67.3333 60.4561 65.7462 58.8334 63.3333 58Z" fill="#FFEBD2"/>
<path d="M52.3333 49.0001C53.6522 49.1569 53.6497 50.8262 52.3333 51.0001C45.3183 51.9263 39.3333 46.529 39.3333 40.0001V34.0001C39.3333 33.6581 39.993 33.1177 40.3333 33.0001C40.0783 33.1216 40.6025 32.9056 40.3333 33.0001C41.0902 32.6394 42.3333 33.1989 42.3333 34.0001V38.0001C42.3335 43.4851 46.6101 48.3194 52.3333 49.0001Z" fill="#FFF3E4"/>
<path d="M54.3333 53C52.0228 53.8799 49.8204 53.9476 47.3333 53C46.7891 52.7926 46.2203 52.6231 46.3333 52C46.4119 51.5672 46.3309 51.4523 46.3333 51C49.0835 52.2611 52.5631 52.2563 55.3333 51C55.3435 51.1181 55.2016 51.2839 55.3333 52C55.4478 52.6219 54.8767 52.7931 54.3333 53Z" fill="#FFD9AD"/>
<path d="M64.3333 27V37C64.3333 38.4328 63.1031 40 61.3333 40V35C61.3333 34.5182 60.8195 33.9552 60.3333 34C54.594 34.5297 49.6806 33.0065 45.3333 30C44.9224 29.7158 43.5669 29.5617 43.3333 30C42.4602 31.6387 41.0466 33.3757 39.3333 34C39.0046 34.1198 39.3333 33.6542 39.3333 34V40C37.7866 39.9986 36.332 38.4988 36.3333 37V27C36.3333 25.3509 37.6496 23.9986 39.3333 24C40.7 20.6608 43.6611 17.9986 47.3333 18H55.3333C60.2933 18.0041 64.3375 22.1415 64.3333 27Z" fill="#585966"/>
<path d="M56.3333 18.0001C58.1366 18.0588 58.1376 20.9891 56.3333 21.0001C55.3116 21.0063 53.8075 21.0118 52.3333 21.0001C48.8548 20.9726 45.8142 22.9505 44.3333 26.0001C44.1907 26.2938 43.6585 25.9453 43.3333 26.0001C41.8987 26.2415 40.3333 27.5254 40.3333 29.0001V33.0001C40.3333 33.4099 40.7554 33.8438 40.3333 34.0001C40.0041 34.1189 39.3333 33.6543 39.3333 34.0001V40.0001C37.788 39.9987 36.332 38.4988 36.3333 37.0001V27.0001C36.3333 25.351 37.651 23.9987 39.3333 24.0001C40.6989 20.661 44.6643 17.9987 48.3333 18.0001C48.3333 18.0001 56.2357 17.9969 56.3333 18.0001Z" fill="#6E6F80"/>
<path d="M67.3333 63V65H33.3333V63C33.3333 60.5244 34.9204 58.811 37.3333 58C37.2996 58 42.3139 56.0065 42.3333 56C43.1628 55.7221 43.726 55.5597 44.3333 55C45.9113 61.0361 54.754 61.0428 56.3333 55C56.9407 55.5584 57.5039 55.7221 58.3333 56C58.3471 56.0045 63.3471 58 63.3333 58C65.7462 58.8112 67.3333 60.5244 67.3333 63Z" fill="#FF6D7A"/>
<path d="M45.3333 56C45.6553 56.5802 44.9868 57.7863 44.3333 58C44.3188 58.0048 41.3479 59 41.3333 59C38.1022 60.0622 37.4798 62.5755 37.3333 64C37.2771 64.5469 36.9125 65 36.3333 65H33.3333V63C33.3333 60.5243 34.8663 58.811 37.3333 58C37.299 58 42.3134 56.0065 42.3333 56C43.1814 55.7221 43.7124 55.5598 44.3333 55C44.4703 55.5135 45.097 55.574 45.3333 56Z" fill="#FF8C95"/>
<path d="M59.3333 52C58.3704 52 57.6566 50.7117 58.3333 50C60.4719 47.7507 62.7157 45.0481 63.3333 42C63.4558 41.3961 63.7363 40.876 64.3333 41C64.9301 41.1239 65.4558 41.3961 65.3333 42C64.6315 45.4625 62.7618 49.4458 60.3333 52C60.117 52.2277 59.6227 52 59.3333 52Z" fill="#585966"/>
<path d="M67.3333 36V41C67.3333 42.3054 65.733 42.9461 64.3333 43C64.2316 43.0039 64.7144 43 62.3333 43C61.6706 43 61.3333 42.6116 61.3333 42V35C61.3333 34.3884 61.6706 34 62.3333 34H64.3333C65.788 34 67.3333 34.6575 67.3333 36Z" fill="#80AAFF"/>
<path d="M64.3333 36C63.5195 36 63.3333 36.4494 63.3333 37V42C63.3333 42.4125 62.7714 43 62.3333 43C61.6858 43 61.3333 42.6098 61.3333 42V35C61.3333 34.3902 61.6858 34 62.3333 34C64.4849 34 63.9984 33.9409 64.3333 34C65.2668 34.1645 65.2829 36 64.3333 36Z" fill="#9CBCFF"/>
<path d="M39.3333 35V42C39.3333 42.6117 38.996 43 38.3333 43H36.3333C34.8786 43 33.3333 42.3428 33.3333 41V36C33.3333 34.6572 34.8786 34 36.3333 34H38.3333C38.996 34 39.3333 34.3883 39.3333 35Z" fill="#80AAFF"/>
<path d="M39.3333 35C39.3333 35.3006 38.6647 36 38.3333 36C36.7219 36 36.321 36.7399 36.3333 38C36.3335 38.0083 36.3404 39.7665 36.3333 41C36.3243 42.58 33.3333 42.7378 33.3333 41V36C33.3333 34.6803 34.8786 34 36.3333 34H38.3333C38.996 34.0001 39.3333 34.3988 39.3333 35Z" fill="#9CBCFF"/>
</g>
<circle cx="50.3333" cy="50" r="49.5" stroke="#119FC3"/>
<defs>
<clipPath id="clip0_110_1081">
<rect width="64" height="64.0014" fill="white" transform="translate(18.3333 17.9987)"/>
</clipPath>
</defs>
</svg>
