<svg width="100" height="100" viewBox="0 0 100 100" fill="none" xmlns="http://www.w3.org/2000/svg">
<path d="M19 74.97H31V68.9733H19C18.2491 68.9733 18 69.2136 18 69.9727V73.9705C18 74.7295 18.2491 74.97 19 74.97Z" fill="#B5ADB6"/>
<path d="M81 74.97H69V68.9733H81C81.7508 68.9733 82 69.2136 82 69.9727V73.9705C82 74.7295 81.7509 74.97 81 74.97Z" fill="#B5ADB6"/>
<path d="M81 68.9733H77C77.8148 68.9733 78 69.2136 78 69.9727V73.9705C78 74.7295 77.815 74.97 77 74.97H81C81.8148 74.97 82 74.7296 82 73.9705V69.9727C82 69.2136 81.815 68.9733 81 68.9733Z" fill="#A79BA7"/>
<path d="M43 76.9689H32C30.8033 76.9689 30 76.1505 30 74.97V66.9744C30 65.7941 30.8032 64.9755 32 64.9755H43V76.9689Z" fill="#A79BA7"/>
<path d="M57 76.9689H68C69.1967 76.9689 70 76.1505 70 74.97V66.9744C70 65.7941 69.1968 64.9755 68 64.9755H57V76.9689Z" fill="#A79BA7"/>
<path d="M68 64.9755H65C66.1154 64.9755 67 65.7939 67 66.9744V74.97C67 76.1503 66.1155 76.9689 65 76.9689H68C69.1154 76.9689 70 76.1505 70 74.97V66.9744C70 65.7939 69.1154 64.9755 68 64.9755Z" fill="#918291"/>
<path d="M64 57.9793C56.5611 57.1428 44.439 57.1428 37 57.9793C29.7474 58.7945 28.9928 51.1176 30 48.9842C31.007 46.8509 32.8996 44.0248 33 41.988C33.0533 40.9157 33.6704 39.1855 34 37.9902C34.1615 37.4057 34.7068 37.4534 35 37.9902C35.6539 39.1892 36.4931 40.4291 37 40.9886C37.1199 41.1203 37.0156 40.1634 37 39.9891C36.7238 36.9101 38.7025 33.3054 40 30.994C40.3113 30.4409 41.8826 30.3757 42 30.994C42.3452 32.8288 42.6274 34.2017 43 34.9918C42.9479 35.1499 43.0703 35.1423 43 34.9918C43.6032 33.1282 45.9773 31.4255 47 29.9946C47.4573 29.3549 47.3955 28.3219 48 26.9962C48.3622 26.1973 48.7199 24.6576 49 23.9978C49.2332 23.4472 51.7668 23.4472 52 23.9978C52.7438 25.7537 53.2677 28.9686 54 29.9946C55.0227 31.4255 57.3967 33.1282 58 34.9918C57.9297 35.1423 58.0521 35.1499 58 34.9918C58.2007 34.5654 58.7029 33.8382 59 32.9929C59.254 32.2743 58.8411 31.8368 59 30.994C59.1172 30.3757 60.6885 30.4409 61 30.994C62.2976 33.3054 64.2762 36.9101 64 39.9891C63.9843 40.1634 63.8801 41.1203 64 40.9886C64.5067 40.4291 65.3459 39.1892 66 37.9902C66.2931 37.4534 66.8385 37.4058 67 37.9902C67.3295 39.1855 67.9466 40.9157 68 41.988C68.1003 44.0248 69.9928 46.8508 71 48.9842C72.0069 51.1176 71.2527 58.7945 64 57.9793Z" fill="#FE646F"/>
<path d="M56 35.9913H54C53.3358 35.9913 53.2476 35.6182 53 34.9918C52.3105 33.2405 50.9016 32.3239 50 30.994C49.5555 30.3368 48.5878 29.3578 48 27.9957C48.353 27.1748 48.727 24.6757 49 23.9978C49.2273 23.432 49.7727 23.432 50 23.9978C50.725 25.8021 52.2863 29.9398 53 30.994C53.9968 32.4644 55.412 34.0762 56 35.9913Z" fill="#FD4755"/>
<path d="M63 39.9892H61C60.1036 39.9892 60.0381 38.849 60 37.9903C59.9146 36.0764 58.8425 34.8389 58 32.993C58.2559 32.2715 58.84 31.8402 59 30.9941C59.1181 30.3733 59.6862 29.4394 60 29.9946C61.3071 32.3153 63.2782 36.898 63 39.9892Z" fill="#FD4755"/>
<path d="M70 49.9837C69.095 47.7071 67.0905 43.1617 67 40.9886C66.9524 39.8444 66.2958 39.2656 66 37.9903C65.8551 37.3656 65.2628 36.4186 65 36.9908C64.5926 37.8779 64.4232 39.376 64 39.9892C64.1152 40.6611 63.9773 40.4434 64 40.9886C64.0905 43.1617 65.095 47.7071 66 49.9837C66.7817 51.9502 67.1672 57.9719 63 58.9788C63.21 59.0042 63.7975 58.9518 64 58.9788C70.5157 59.8491 70.905 52.2603 70 49.9837Z" fill="#FD4755"/>
<path d="M34 58.9793C34.7088 59.1666 35.0427 59.1191 36 58.9793C39.2028 58.5117 43.7964 58.0316 48 57.9793C43.0318 57.9183 37.9258 58.4603 34 58.9793Z" fill="#FD4755"/>
<path d="M49.0001 37.9902H48.0001C47.4997 38.9655 46.819 39.8943 46.0001 40.9886C44.7205 42.6986 43.5329 44.3075 44.0001 46.9853C44.6459 50.6873 50.0001 49.9837 50.0001 49.9837C50.0001 49.9837 53.3542 50.6873 54.0001 46.9853C54.4673 44.3075 49.0001 37.9902 49.0001 37.9902Z" fill="#FEE97D"/>
<path d="M53 40.9886C51.8452 39.3017 50.5714 38.4019 50 36.9908C49.6905 36.2263 49.297 36.2207 49 36.9908C48.8075 37.4898 48.284 37.3961 48 37.9902C48.498 39.0367 49.2633 39.9124 50 40.9886C51.2028 42.7458 52.4462 44.2575 52 46.9853C51.6172 49.3254 49.4146 49.824 48 49.9837C48.865 50.0813 50 49.9837 50 49.9837C50 49.9837 54.3831 50.7565 55 46.9853C55.4462 44.2573 54.2028 42.7457 53 40.9886Z" fill="#FCDD5B"/>
<path d="M65 63.976C65 63.976 62.6296 79.9673 51 79.9673C41.8742 79.9673 34 72.8078 34 63.976C34 55.1443 41.8742 47.9847 51 47.9847C63.6098 47.9847 65 63.976 65 63.976Z" fill="#99E6FC"/>
<path d="M50 47.9848C49.3537 47.9848 48.6263 47.9114 48 47.9848C55.9862 48.9215 62 55.8033 62 63.976C62 72.1488 55.9862 79.0304 48 79.9673C48.6264 80.0408 49.3538 79.9673 50 79.9673C58.8865 79.9673 66 72.7898 66 63.976C66 55.1623 58.8865 47.9848 50 47.9848Z" fill="#62DBFB"/>
<path d="M51 75.9695C50.3389 75.9695 49.6337 76.0692 49 75.9695C43.0275 75.0299 38 70.2274 38 63.9761C38 57.0615 43.1075 50.9832 50 50.9832C56.8925 50.9832 63 57.0615 63 63.9761C63 70.8906 55.546 74.4278 51 75.9695Z" fill="#F2FBFF"/>
<path d="M50 50.9831C49.352 50.9831 48.6207 50.8816 48 50.9831C53.7678 51.9259 58 56.7795 58 62.9765C58 69.1736 53.7678 75.0266 48 75.9694C48.6206 76.0709 49.352 75.9694 50 75.9694C56.6695 75.9694 62 69.8404 62 62.9765C62 56.1126 56.6695 50.9831 50 50.9831Z" fill="#DFF6FD"/>
<path d="M50 64.9755C49.4477 64.9755 49 64.4844 49 63.976V57.9793C49 57.4709 49.4477 56.9799 50 56.9799C50.5523 56.9799 51 57.4709 51 57.9793V63.976C51 64.4844 50.5523 64.9755 50 64.9755Z" fill="#FE646F"/>
<path d="M50 71.9716C51.933 71.9716 54 69.9058 54 67.9738C54 66.0419 51.933 64.9755 50 64.9755C48.067 64.9755 47 66.0419 47 67.9738C47 69.9058 48.067 71.9716 50 71.9716Z" fill="#6C7FD8"/>
<path d="M39.9999 60.9775C39.9048 60.9775 40.0954 61.0136 39.9999 60.9775L37.9999 59.9781C37.5117 59.794 36.8413 59.5455 36.9999 58.9786C37.1585 58.4118 37.5115 57.7948 37.9999 57.9792L39.9999 58.9786C40.4882 59.1627 41.1586 59.4112 40.9999 59.9781C40.8722 60.434 40.3918 60.9775 39.9999 60.9775Z" fill="#918291"/>
<path d="M45 55.9803C44.6887 55.9803 43.197 56.2292 43 55.9803L42 53.9814C41.6731 53.5685 41.5502 52.2825 42 51.9825C42.4497 51.6825 44.6733 51.5696 45 51.9825L46 53.9814C46.3269 54.3944 46.4497 55.6803 46 55.9803C45.8213 56.0996 45.2052 55.9803 45 55.9803Z" fill="#918291"/>
<path d="M50 53.9815C49.4477 53.9815 49 53.4876 49 52.982V50.9831C49 50.4775 49.4477 49.9836 50 49.9836C50.5522 49.9836 51 50.4775 51 50.9831V52.982C51 53.4876 50.5522 53.9815 50 53.9815Z" fill="#918291"/>
<path d="M56 55.9803C55.7949 55.9803 55.1787 56.0994 55 55.9803C54.5502 55.6803 54.6731 54.3943 55 53.9814L56 51.9825C56.3266 51.5695 58.5501 51.6822 59 51.9825C59.4497 52.2825 59.3269 53.5684 59 53.9814L58 55.9803C57.803 56.2291 56.3112 55.9803 56 55.9803Z" fill="#918291"/>
<path d="M60 60.9776C59.6081 60.9776 59.1276 60.4343 59 59.9781C58.8413 59.4113 59.5116 59.1628 60 58.9787L62 57.9792C62.4878 57.7947 62.8414 58.4117 63 58.9787C63.1586 59.5455 62.4883 59.794 62 59.9781L60 60.9776C60.0952 60.9776 59.9047 61.0136 60 60.9776Z" fill="#918291"/>
<path d="M51 49.9836C43.5445 49.9836 37 56.5235 37 63.976C37 71.4271 43.5444 76.9689 51 76.9689C58.4556 76.9689 64 71.4272 64 63.976C64 56.5235 58.4555 49.9836 51 49.9836ZM51 74.97C44.6194 74.97 39 70.3516 39 63.976C39 57.5992 44.6193 51.9826 51 51.9826C57.3806 51.9826 62 57.5992 62 63.976C62 70.3516 57.3806 74.97 51 74.97Z" fill="#B5ADB6"/>
<path d="M55 24.9973C54.4477 24.9973 54 24.5185 54 23.9978V20.9995C54 20.4788 54.4477 20 55 20C55.5523 20 56 20.4788 56 20.9995V23.9978C56 24.5183 55.5523 24.9973 55 24.9973Z" fill="#FE646F"/>
<path d="M42 26.9962C42.5523 26.9962 43 26.5488 43 25.9968C43 25.4448 42.5523 24.9973 42 24.9973C41.4477 24.9973 41 25.4448 41 25.9968C41 26.5488 41.4477 26.9962 42 26.9962Z" fill="#FD4755"/>
<circle cx="50" cy="50" r="49.5" stroke="#119FC3"/>
</svg>
