<svg width="300" height="282" viewBox="0 0 300 282" fill="none" xmlns="http://www.w3.org/2000/svg">
<path d="M5 257H61V229H5C1.47645 229 0 230.456 0 234V252C0 255.544 1.47645 257 5 257Z" fill="#B5ADB6"/>
<path d="M295 257H239V229H295C298.523 229 300 230.456 300 234V252C300 255.544 298.524 257 295 257Z" fill="#B5ADB6"/>
<path d="M295 229H277C280.748 229 282 230.456 282 234V252C282 255.544 280.749 257 277 257H295C298.748 257 300 255.544 300 252V234C300 230.456 298.749 229 295 229Z" fill="#A79BA7"/>
<path d="M117 267H65C59.3849 267 56 263.512 56 258V220C56 214.489 59.3843 211 65 211H117V267Z" fill="#A79BA7"/>
<path d="M183 267H235C240.615 267 244 263.512 244 258V220C244 214.489 240.616 211 235 211H183V267Z" fill="#A79BA7"/>
<path d="M234 211H220C225.131 211 229 214.488 229 220V258C229 263.511 225.132 267 220 267H234C239.131 267 243 263.512 243 258V220C243 214.488 239.131 211 234 211Z" fill="#918291"/>
<path d="M215 178C180.111 174.096 124.89 174.096 90 178C55.9843 181.804 52.2763 145.956 57 136C61.723 126.045 70.5291 112.505 71 103C71.2503 97.9959 73.4543 89.578 75 84C75.7574 81.2724 78.6251 81.4951 80 84C83.067 89.5956 87.6227 95.3894 90 98C90.5623 98.6147 90.0735 94.8136 90 94C88.7046 79.6313 97.9145 62.7867 104 52C105.46 49.419 112.45 49.1144 113 52C114.619 60.5624 116.253 66.3128 118 70C117.756 70.7375 118.33 70.7022 118 70C120.829 61.303 132.203 53.6779 137 47C139.145 44.015 138.165 39.1865 141 33C142.699 29.2719 144.686 22.0787 146 19C147.094 16.4303 157.906 16.4303 159 19C162.489 27.1942 164.566 42.2123 168 47C172.797 53.6779 184.171 61.303 187 70C186.67 70.7022 187.244 70.7375 187 70C187.941 68.0098 190.607 64.9446 192 61C193.192 57.6463 191.255 55.9332 192 52C192.55 49.1144 199.539 49.419 201 52C207.086 62.7867 216.295 79.6313 215 94C214.926 94.8136 214.438 98.6147 215 98C217.377 95.3894 221.932 89.5956 225 84C226.375 81.4951 229.243 81.273 230 84C231.546 89.578 233.75 97.9959 234 103C234.47 112.505 243.276 126.044 248 136C252.722 145.956 249.016 181.804 215 178Z" fill="#FE646F"/>
<path d="M177 75.0002H168C164.928 75.0002 164.145 72.9266 163 70.0002C159.811 61.8177 153.17 58.2137 149 52.0002C146.944 48.9294 142.719 44.3645 140 38.0002C141.633 34.165 143.737 22.1674 145 19.0002C146.051 16.3567 147.949 16.3567 149 19.0002C152.353 27.43 159.699 47.0749 163 52.0002C167.61 58.87 174.281 66.0527 177 75.0002Z" fill="#FD4755"/>
<path d="M211 93.0003H201C196.743 93.0003 197.181 87.9827 197 84.0003C196.595 75.1246 191.001 69.5609 187 61.0003C188.215 57.6544 191.24 54.9243 192 51.0003C192.561 48.1215 195.51 44.4253 197 47.0003C203.207 57.7624 212.321 78.6651 211 93.0003Z" fill="#FD4755"/>
<path d="M243 141C238.792 130.363 229.421 109.154 229 99.0001C228.779 93.6538 226.375 90.9588 225 85.0001C224.327 82.0811 221.222 77.3263 220 80.0001C218.106 84.1451 217.968 91.1351 216 94.0001C216.536 97.1394 215.894 96.4526 216 99.0001C216.421 109.154 220.792 130.363 225 141C228.635 150.189 230.375 178.295 211 183C211.976 183.118 215.059 182.874 216 183C246.294 187.066 247.208 151.637 243 141Z" fill="#FD4755"/>
<path d="M75 182C78.2908 182.908 79.5553 182.678 84 182C98.87 179.733 120.483 178.254 140 178C116.933 177.705 93.2269 179.484 75 182Z" fill="#FD4755"/>
<path d="M146 84H141C138.658 88.5144 135.833 92.9344 132 98C126.011 105.916 118.814 113.605 121 126C124.023 143.136 150 140 150 140C150 140 165.977 143.136 169 126C171.187 113.605 146 84 146 84Z" fill="#FEE97D"/>
<path d="M164 97.9998C158.691 90.0838 152.627 86.6216 150 79.9998C148.577 76.4123 147.365 76.3861 146 79.9998C145.115 82.3415 142.306 81.2118 141 83.9998C143.289 88.9105 146.613 92.95 150 97.9998C155.53 106.246 162.051 114.199 160 127C158.24 137.981 147.503 140.25 141 141C144.977 141.458 150 141 150 141C150 141 171.164 144.696 174 127C176.051 114.199 169.53 106.245 164 97.9998Z" fill="#FCDD5B"/>
<path d="M220 206C220 206 209.397 281 155 281C112.315 281 75 247.421 75 206C75 164.579 112.315 131 155 131C213.982 131 220 206 220 206Z" fill="#99E6FC"/>
<path d="M150 131C146.984 131 143.923 130.657 141 131C178.269 135.376 206 167.825 206 206C206 244.175 178.269 276.624 141 281C143.923 281.343 146.984 281 150 281C191.47 281 225 247.169 225 206C225 164.831 191.47 131 150 131Z" fill="#62DBFB"/>
<path d="M155 262C151.906 262 147.966 262.465 145 262C117.049 257.616 94 235.169 94 206C94 173.737 117.743 145 150 145C182.257 145 211 173.737 211 206C211 238.263 176.275 254.806 155 262Z" fill="#F2FBFF"/>
<path d="M150 145C146.945 145 143.926 144.529 141 145C168.191 149.383 188 172.19 188 201C188 229.81 168.191 257.617 141 262C143.926 262.472 146.945 262 150 262C181.442 262 207 232.91 207 201C207 169.09 181.442 145 150 145Z" fill="#DFF6FD"/>
<path d="M150 210C147.515 210 145 207.353 145 205V178C145 175.647 147.515 173 150 173C152.485 173 154 175.647 154 178V205C154 207.353 152.485 210 150 210Z" fill="#FE646F"/>
<path d="M150 244C159.113 244 169 234.113 169 225C169 215.887 159.113 211 150 211C140.887 211 136 215.887 136 225C136 234.113 140.887 244 150 244Z" fill="#6C7FD8"/>
<path d="M103 192C102.558 192 103.443 192.163 103 192L94 187C91.7328 186.167 88.2631 185.565 89 183C89.7364 180.435 91.7317 177.166 94 178L103 183C105.267 183.833 108.737 184.435 108 187C107.407 189.063 104.82 192 103 192Z" fill="#918291"/>
<path d="M127 168C125.554 168 117.915 169.204 117 168L112 159C110.481 157.002 109.91 150.452 112 149C114.09 147.548 125.482 147.002 127 149L132 159C133.519 160.998 134.09 166.548 132 168C131.17 168.577 127.953 168 127 168Z" fill="#918291"/>
<path d="M150 159C147.515 159 145 156.403 145 154V145C145 142.597 147.515 140 150 140C152.485 140 154 142.597 154 145V154C154 156.403 152.485 159 150 159Z" fill="#918291"/>
<path d="M178 168C177.047 168 173.83 168.577 173 168C170.91 166.549 171.481 160.998 173 159L178 149C179.518 147.002 190.91 147.547 193 149C195.09 150.452 194.519 157.002 193 159L188 168C187.085 169.204 179.446 168 178 168Z" fill="#918291"/>
<path d="M197 192C195.18 192 192.593 189.065 192 187C191.263 184.435 194.732 183.833 197 183L206 178C208.265 177.165 210.264 180.434 211 183C211.737 185.565 208.268 186.167 206 187L197 192C197.442 192 196.558 192.163 197 192Z" fill="#918291"/>
<path d="M155 140C119.932 140 89 170.203 89 205C89 239.791 119.931 266 155 266C190.069 266 216 239.791 216 205C216 170.203 190.068 140 155 140ZM155 257C124.988 257 98 234.769 98 205C98 175.225 124.987 149 155 149C185.012 149 207 175.225 207 205C207 234.769 185.012 257 155 257Z" fill="#B5ADB6"/>
<path d="M174 23C171.515 23 169 20.3963 169 18V5C169 2.60375 171.515 0 174 0C176.485 0 178 2.60375 178 5V18C178 20.3957 176.485 23 174 23Z" fill="#FE646F"/>
<path d="M113 32C115.485 32 117 30.4853 117 28C117 25.5147 115.485 23 113 23C110.515 23 108 25.5147 108 28C108 30.4853 110.515 32 113 32Z" fill="#FD4755"/>
</svg>
