<svg width="15" height="16" viewBox="0 0 15 16" fill="none" xmlns="http://www.w3.org/2000/svg">
<g id="icon" clip-path="url(#clip0_904_7)">
<path id="Vector" d="M4.38307 3.75551C4.38311 3.49034 4.48847 3.23605 4.67597 3.04855C4.86346 2.86105 5.11776 2.7557 5.38292 2.75566L11.7469 2.75566C12.012 2.7557 12.2663 2.86105 12.4538 3.04855C12.6413 3.23605 12.7467 3.49034 12.7467 3.75551V10.1195C12.7422 10.3816 12.6348 10.6315 12.4478 10.8153C12.2608 10.9991 12.0091 11.1021 11.7469 11.1021C11.4847 11.1021 11.233 10.9991 11.0459 10.8153C10.8589 10.6315 10.7516 10.3816 10.747 10.1195L10.6862 6.23038L3.96871 12.9479C3.78117 13.1354 3.52682 13.2408 3.2616 13.2408C2.99638 13.2408 2.74203 13.1354 2.55449 12.9479C2.36696 12.7604 2.2616 12.506 2.2616 12.2408C2.2616 11.9756 2.36696 11.7212 2.55449 11.5337L9.27201 4.81617L5.38292 4.75536C5.11776 4.75532 4.86346 4.64996 4.67597 4.46246C4.48847 4.27496 4.38311 4.02067 4.38307 3.75551Z" fill="#F428B4" style="fill:#F428B4;fill:color(display-p3 0.9569 0.1569 0.7059);fill-opacity:1;"/>
</g>
<defs>
<clipPath id="clip0_904_7">
<rect width="15" height="15" fill="white" style="fill:white;fill:white;fill-opacity:1;" transform="translate(0 0.5)"/>
</clipPath>
</defs>
</svg>
