<svg width="165" height="57" viewBox="0 0 165 57" fill="none" xmlns="http://www.w3.org/2000/svg">
<path d="M106.349 8.5386L106.207 9.0744C104.156 9.1219 102.851 10.2429 102.479 13.1651L98.7495 39.1761C98.423 41.6613 99.0758 42.9761 100.753 43.073L100.613 43.6088H91.8954L92.035 43.073C93.7593 43.0255 95.1121 41.7088 95.4309 39.3718L99.6342 11.6071L92.3614 25.3916C91.6633 26.8052 90.8691 28.2663 90.0767 29.7768L88.1656 33.3868L85.6488 38.3059C84.4829 40.5859 84.0169 41.9159 84.0169 43.0787C82.9446 43.4184 81.9127 43.8759 80.9398 44.4429L77.6269 11.2651L70.6352 38.5928C69.7032 41.515 70.8692 42.9267 73.5254 43.073L73.3859 43.6088H64.5283L64.6678 43.073C67.1393 43.0255 68.8184 41.515 69.7504 38.6403L76.2743 13.2639C77.1591 10.5355 76.3686 9.1219 73.8047 9.0744L73.8971 8.5386H80.6569L83.9697 39.957L88.1656 32.0644L91.8407 25.0515C96.0912 16.9651 98.5155 12.1429 99.1211 10.64C99.397 9.96301 99.6159 9.26389 99.7757 8.55L106.349 8.5386Z" fill="#040506"/>
<path d="M132.663 18.5535H132.097C131.909 16.3609 131.369 12.7756 130.856 11.8503C130.343 10.8756 129.458 10.1935 128.15 9.7603C126.902 9.31 124.857 9.12 122.006 9.12H116.556L113.334 23.199H119.627C122.798 23.199 124.196 21.983 124.896 19.399H125.462L123.497 27.778H122.983C123.549 24.7095 122.751 23.788 119.44 23.788H113.193L108.998 42.0546C110.443 42.6873 112.394 43.0293 114.872 43.0293C118.229 43.0293 121.082 42.4441 122.985 41.3193C124.888 40.1945 127.766 36.3793 129.589 32.9783H130.194L124.345 44.1883C122.993 43.7995 121.128 43.6043 118.75 43.6031H102.749L102.891 43.0673C104.802 42.921 105.874 41.9482 106.434 39.4155L112.594 12.6293C113.16 10.0966 112.547 9.2188 110.683 9.0744L110.822 8.5386H125.46C128.305 8.5386 130.496 8.1966 131.941 7.5639L132.663 18.5535Z" fill="#040506"/>
<path d="M165 8.53859L164.905 9.07439C162.294 9.12189 160.944 10.3892 160.012 14.2861L154.417 37.8613C154.002 39.4301 154.034 41.0846 154.508 42.636C153.434 43.172 152.432 43.8431 151.526 44.6329L139.668 12.7756L134.601 37.6656C133.808 41.1236 134.789 42.9248 137.539 43.1205L137.446 43.6069H127.981L128.073 43.1205C130.965 42.9742 132.832 41.1236 133.669 37.6656L138.594 14.82C139.482 11.0694 138.503 9.16939 135.75 9.07249L135.891 8.53669H141.719L153.39 39.52L159.217 14.288C160.012 10.6343 159.173 9.22069 156.327 9.07629L156.421 8.54049L165 8.53859Z" fill="#040506"/>
<path d="M42.6115 8.5386L42.47 9.0744C40.4192 9.1219 39.1137 10.2429 38.742 13.1651L35.0103 39.1761C34.6858 41.6613 35.3385 42.9761 37.0158 43.073L36.8762 43.6088H28.1581L28.2977 43.073C30.0221 43.0255 31.3749 41.7088 31.6936 39.3718L35.897 11.6071L28.6242 25.3916C27.9242 26.8052 27.1318 28.2663 26.3395 29.7768L24.4284 33.3868L21.9116 38.3059C20.7456 40.5859 20.2796 41.9159 20.2796 43.0787C19.2073 43.4184 18.1755 43.8759 17.2026 44.4429L13.8897 11.2651L6.89793 38.5928C5.96595 41.515 7.13186 42.9267 9.78822 43.073L9.6486 43.6088H0.79097L0.930577 43.073C3.40204 43.0255 5.08112 41.515 6.01122 38.6403L12.537 13.2639C13.4219 10.5355 12.6313 9.1219 10.0656 9.0744L10.1599 8.5386H16.9196L20.2325 39.957L24.4284 32.0644L28.111 25.0515C32.3539 16.9651 34.7782 12.1429 35.3839 10.64C35.6602 9.96332 35.8786 9.26412 36.0367 8.55L42.6115 8.5386Z" fill="#040506"/>
<path d="M68.9262 18.5535H68.3603C68.1715 16.3609 67.6321 12.7756 67.1189 11.8503C66.6057 10.8756 65.719 10.1935 64.4134 9.76029C63.1646 9.30999 61.1119 9.11999 58.2688 9.11999H52.8127L49.6055 23.1971H55.8992C59.0706 23.1971 60.4686 21.9811 61.1685 19.3971H61.7344L59.7686 27.778H59.2555C59.8214 24.7095 59.0234 23.788 55.7124 23.788H49.4564L45.2606 42.0508C46.7057 42.6835 48.6565 43.0255 51.1355 43.0255C54.4918 43.0255 57.3443 42.4403 59.2479 41.3155C61.1516 40.1907 64.0286 36.3755 65.8511 32.9745H66.4567L60.6082 44.1845C59.2574 43.7957 57.3928 43.6005 55.0143 43.5993H39.0159L39.1574 43.0635C41.0685 42.9172 42.1401 41.9444 42.7004 39.4117L48.8546 12.6217C49.4206 10.089 48.8075 9.2112 46.9416 9.0668L47.0831 8.531H61.7213C64.5663 8.531 66.7567 8.18899 68.2018 7.55629L68.9262 18.5535Z" fill="#040506"/>
</svg>
