<svg width="66" height="57" viewBox="0 0 66 57" fill="none" xmlns="http://www.w3.org/2000/svg">
<g clip-path="url(#clip0_1_496)">
<path d="M15.2423 43.073C17.1145 42.9267 18.3298 41.7088 18.8391 39.3224L25.0197 12.6787C25.5876 10.2923 24.9724 9.2188 23.0548 9.0687L23.1949 8.5329H31.9917L31.8516 9.0687C29.9339 9.1162 28.8568 9.94461 28.2548 12.6787L22.0723 39.3718C21.5044 41.7088 22.3997 42.9267 24.0372 43.073L23.8971 43.6088H15.1023L15.2423 43.073Z" fill="#040506"/>
<path d="M48.173 43.073C50.0451 42.9267 51.2604 41.7088 51.7696 39.3224L57.9503 12.6787C58.5183 10.2923 57.903 9.2188 55.9853 9.0687L56.1274 8.5329H64.9298L64.7897 9.0687C62.8722 9.1162 61.7969 9.94461 61.1931 12.6787L55.0029 39.3718C54.435 41.7088 55.3304 42.9267 56.9678 43.073L56.8278 43.6088H48.0329L48.173 43.073Z" fill="#040506"/>
<path d="M54.1094 1.87557C53.5623 2.98517 52.913 3.40507 52.2392 3.40507C51.1033 3.40507 50.95 2.84647 49.3996 1.91167C47.5425 0.802074 45.4603 -0.0510252 43.272 0.00027481C41.7793 0.0310109 40.3209 0.454936 39.043 1.22957C37.6347 2.07599 36.5133 3.32872 35.8249 4.82437C35.0317 6.57047 34.9541 8.40967 35.274 10.2774C35.664 12.5573 36.4874 14.6929 37.3336 16.8247C38.5754 19.9445 39.8835 23.0396 41.0477 26.1898C42.2252 29.3742 42.8914 32.6669 42.6549 36.1021C42.5034 38.2966 42.1911 40.4607 41.5077 42.5621C39.5333 48.625 35.6072 52.7043 29.6063 54.9368C24.8265 56.7133 20.3894 56.8938 15.5149 55.4099C9.68057 53.6353 5.89267 50.0082 4.05456 44.1581C3.10805 41.1637 3.10805 38.1104 3.68732 35.0533C4.41802 31.1602 5.99678 27.6851 8.84576 24.875C10.5097 23.2315 12.4425 22.0801 14.6951 21.5538L14.8182 21.1339C14.574 21.1795 14.3317 21.2327 14.0932 21.2973C9.79982 22.4696 6.22962 24.78 3.53397 28.3273C-0.0986998 33.1001 -0.888083 38.4182 0.970848 44.0802C2.31109 48.169 5.0446 51.1938 8.66024 53.432C11.5869 55.2408 14.7879 56.2706 18.1859 56.7247C21.0045 57.1047 23.3576 57.1275 26.1459 56.5461C33.6915 54.9691 39.522 50.9297 43.4006 44.1961C45.0916 41.2487 46.0288 37.9268 46.1285 34.527C46.2194 32.1463 45.765 29.8511 45.1215 27.5825C44.1977 24.3335 42.8857 21.227 41.6175 18.1053C40.5214 15.413 39.4405 12.7112 38.4277 9.98477C37.8599 8.43437 37.4509 6.82507 37.6384 5.13407C37.7766 3.90287 38.2499 2.83697 39.1925 2.01617C40.6766 0.724174 42.8876 0.484774 44.7693 0.762174C46.5702 1.03812 48.1966 1.99786 49.3126 3.44307C49.5713 3.77592 49.8048 4.12778 50.0111 4.49567C51.2321 6.66547 51.6163 9.36537 51.0712 12.5858L51.6069 12.6542L54.4634 1.92117L54.1094 1.87557Z" fill="#040506"/>
</g>
<defs>
<clipPath id="clip0_1_496">
<rect width="66" height="57" fill="white"/>
</clipPath>
</defs>
</svg>
