<svg width="72" height="72" viewBox="0 0 72 72" fill="none" xmlns="http://www.w3.org/2000/svg">
<path d="M7.48828 17.6716C13.5192 8.30939 24.0356 2.10954 35.9999 2.10954C54.7172 2.10954 69.8904 17.2828 69.8904 36.0001C69.8904 38.7197 69.5702 41.3645 68.9651 43.8988" stroke="#FF321F" stroke-width="2" stroke-miterlimit="10"/>
<path d="M64.971 53.5951C59.0244 63.3655 48.2742 69.8906 35.9999 69.8906C17.2828 69.8906 2.10938 54.7172 2.10938 36.0001C2.10938 32.9952 2.50045 30.0818 3.23451 27.3075" stroke="#FF321F" stroke-width="2" stroke-miterlimit="10"/>
<path d="M6.42212 10.1716L7.47498 17.6631L14.9697 16.6098" stroke="#FF321F" stroke-width="2" stroke-miterlimit="10"/>
<path d="M57.4188 54.5787L65.0481 53.642L66.0211 61.566" stroke="#FF321F" stroke-width="2" stroke-miterlimit="10"/>
<path d="M52.1615 25.899L35.9999 16.4715L19.8384 25.899V46.1008L35.9999 55.5283L52.1615 46.1008V25.899Z" stroke="#FF321F" stroke-width="2" stroke-miterlimit="10"/>
<path d="M19.8384 25.8991L35.9999 35.3265L52.1615 25.8991" stroke="#FF321F" stroke-width="2" stroke-miterlimit="10"/>
<path d="M35.9999 35.3265V55.5283" stroke="#FF321F" stroke-width="2" stroke-miterlimit="10"/>
</svg>
