<svg width="72" height="72" viewBox="0 0 72 72" fill="none" xmlns="http://www.w3.org/2000/svg">
<path d="M57.0936 36.0002C57.0936 47.6499 47.6497 57.0939 35.9999 57.0939C24.3502 57.0939 14.9062 47.6499 14.9062 36.0002C14.9062 24.3504 24.3502 14.9065 35.9999 14.9065C47.6497 14.9065 57.0936 24.3504 57.0936 36.0002Z" stroke="#FF321F" stroke-width="2" stroke-miterlimit="10" stroke-linecap="round" stroke-linejoin="round"/>
<path d="M46.5467 29.672L33.8905 42.3282L25.453 33.8908" stroke="#FF321F" stroke-width="2" stroke-miterlimit="10" stroke-linecap="round" stroke-linejoin="round"/>
<path d="M33.2642 3.11693C34.8409 1.77397 37.1589 1.77397 38.7356 3.11693L44.2176 7.95512L53.4944 7.23723C55.5594 7.07748 57.4349 8.43999 57.9209 10.4532L59.7808 18.156L67.8862 23.0079C69.6506 24.0924 70.367 26.2971 69.577 28.2114L66.3748 35.9706L69.577 43.7299C70.367 45.6443 69.6506 47.849 67.8862 48.9335L59.7808 53.7854L57.9209 61.4882C57.4349 63.5013 55.5594 64.8639 53.4944 64.7042L44.3083 63.9932L38.7356 68.8835C37.1589 70.2265 34.8409 70.2265 33.2642 68.8835L27.6915 63.9932L18.5054 64.7042C16.4404 64.8639 14.5649 63.5013 14.0789 61.4882L12.2116 53.7549L4.11974 48.9335C2.35519 47.849 1.63884 45.6443 2.42901 43.7299L5.63103 35.9706L2.42901 28.2114C1.63884 26.2971 2.35519 24.0924 4.11974 23.0079L11.518 18.6126L14.0789 10.4532C14.5649 8.43999 16.4404 7.07748 18.5054 7.23723L27.7824 7.95512L33.2642 3.11693Z" stroke="#FF321F" stroke-width="2" stroke-miterlimit="10" stroke-linecap="round" stroke-linejoin="round"/>
</svg>
