<svg width="72" height="72" viewBox="0 0 72 72" fill="none" xmlns="http://www.w3.org/2000/svg">
<path d="M12.3518 23.2706L30.3726 5.24988L35.0638 9.941" stroke="#FF321F" stroke-width="2" stroke-miterlimit="10" stroke-linecap="round" stroke-linejoin="round"/>
<path d="M21.8464 23.159L39.7554 5.25002L58.4898 23.9845L58.4751 23.9993" stroke="#FF321F" stroke-width="2" stroke-miterlimit="10" stroke-linecap="round" stroke-linejoin="round"/>
<path d="M6.12488 50.6354V61.75C6.12488 64.5114 8.3635 66.75 11.1249 66.75H55.8749C58.6363 66.75 60.8749 64.5114 60.8749 61.75V53.0104" stroke="#FF321F" stroke-width="2" stroke-miterlimit="10" stroke-linecap="round" stroke-linejoin="round"/>
<path d="M60.8749 37.0102V28.2707C60.8749 25.5092 58.6363 23.2707 55.8749 23.2707H11.1249C8.3635 23.2707 6.12488 25.5092 6.12488 28.2707V54.6665" stroke="#FF321F" stroke-width="2" stroke-miterlimit="10" stroke-linecap="round" stroke-linejoin="round"/>
<path d="M65.8749 37.0103H40.6249C36.2066 37.0103 32.6249 40.592 32.6249 45.0103C32.6249 49.4285 36.2066 53.0103 40.6249 53.0103H65.8749V37.0103Z" stroke="#FF321F" stroke-width="2" stroke-miterlimit="10" stroke-linecap="round" stroke-linejoin="round"/>
<path d="M43.1249 45.0103C43.1249 43.6295 42.0056 42.5103 40.6249 42.5103C39.2441 42.5103 38.1249 43.6295 38.1249 45.0103C38.1249 46.391 39.2441 47.5103 40.6249 47.5103C42.0056 47.5103 43.1249 46.391 43.1249 45.0103Z" stroke="#FF321F" stroke-width="2" stroke-miterlimit="10" stroke-linecap="round" stroke-linejoin="round"/>
</svg>
