<svg width="72" height="72" viewBox="0 0 72 72" fill="none" xmlns="http://www.w3.org/2000/svg">
<path d="M47.7137 53.8652H25.2538" stroke="#FF321F" stroke-width="2" stroke-miterlimit="10" stroke-linecap="round" stroke-linejoin="round"/>
<path d="M62.9406 53.4905H67.9999V38.0147L55.3295 24.8255H44.9619V53.35" stroke="#FF321F" stroke-width="2" stroke-miterlimit="10" stroke-linecap="round" stroke-linejoin="round"/>
<path d="M68 38.0148H44.9612" stroke="#FF321F" stroke-width="2" stroke-miterlimit="10" stroke-linecap="round" stroke-linejoin="round"/>
<path d="M12.55 48.1083C15.2502 45.3878 19.6279 45.3878 22.3281 48.1083C25.0282 50.8286 25.0282 55.2393 22.3281 57.9596C19.6279 60.6801 15.2502 60.6801 12.55 57.9596C9.84972 55.2393 9.84972 50.8286 12.55 48.1083Z" stroke="#FF321F" stroke-width="2" stroke-miterlimit="10" stroke-linecap="round" stroke-linejoin="round"/>
<path d="M51.0888 48.1083C53.789 45.3878 58.1667 45.3878 60.8669 48.1083C63.5672 50.8286 63.5672 55.2393 60.8669 57.9596C58.1667 60.6801 53.789 60.6801 51.0888 57.9596C48.3887 55.2393 48.3887 50.8286 51.0888 48.1083Z" stroke="#FF321F" stroke-width="2" stroke-miterlimit="10" stroke-linecap="round" stroke-linejoin="round"/>
<path d="M4.00024 13.0001V53.4659H10.239" stroke="#FF321F" stroke-width="2" stroke-miterlimit="10" stroke-linecap="round" stroke-linejoin="round"/>
<path d="M45.0241 24.8442V13H4.00024" stroke="#FF321F" stroke-width="2" stroke-miterlimit="10" stroke-linecap="round" stroke-linejoin="round"/>
<path d="M19.325 13.0002H4" stroke="#FF321F" stroke-width="2" stroke-miterlimit="10" stroke-linecap="round" stroke-linejoin="round"/>
</svg>
