<svg width="72" height="72" viewBox="0 0 72 72" fill="none" xmlns="http://www.w3.org/2000/svg">
<path d="M20.7361 8.69921V15.2599C20.7361 28.6642 35.9998 36 35.9998 36C35.9998 36 51.2635 28.6642 51.2635 15.2599V8.69921H20.7361Z" stroke="#FF321F" stroke-width="2" stroke-miterlimit="10" stroke-linecap="round" stroke-linejoin="round"/>
<path d="M35.9998 36C35.9998 36 20.7361 43.3357 20.7361 56.7401V63.3008H51.2636V56.7401C51.2636 43.3357 35.9998 36 35.9998 36Z" stroke="#FF321F" stroke-width="2" stroke-miterlimit="10" stroke-linecap="round" stroke-linejoin="round"/>
<path d="M20.7362 8.69922H16.6274" stroke="#FF321F" stroke-width="2" stroke-miterlimit="10" stroke-linecap="round" stroke-linejoin="round"/>
<path d="M51.2637 8.69922H55.3724" stroke="#FF321F" stroke-width="2" stroke-miterlimit="10" stroke-linecap="round" stroke-linejoin="round"/>
<path d="M20.7362 63.3008H16.6274" stroke="#FF321F" stroke-width="2" stroke-miterlimit="10" stroke-linecap="round" stroke-linejoin="round"/>
<path d="M51.2637 63.3008H55.3724" stroke="#FF321F" stroke-width="2" stroke-miterlimit="10" stroke-linecap="round" stroke-linejoin="round"/>
<path d="M22.4122 22.7585H49.4109" stroke="#FF321F" stroke-width="2" stroke-miterlimit="10" stroke-linecap="round" stroke-linejoin="round"/>
<path d="M27.6145 55.9708L20.7361 63.3008H51.087L44.2084 55.9708C39.714 51.1814 32.1091 51.1814 27.6145 55.9708Z" stroke="#FF321F" stroke-width="2" stroke-miterlimit="10" stroke-linecap="round" stroke-linejoin="round"/>
</svg>
