<svg width="72" height="72" viewBox="0 0 72 72" fill="none" xmlns="http://www.w3.org/2000/svg">
<path d="M61.453 13.0695L64.0603 18.3525L69.8905 19.1997L65.6717 23.3119L66.6676 29.1185L61.453 26.3771L56.2383 29.1185L57.2342 23.3119L53.0155 19.1997L58.8457 18.3525L61.453 13.0695Z" stroke="#FF321F" stroke-width="2" stroke-miterlimit="10" stroke-linecap="round" stroke-linejoin="round"/>
<path d="M35.9998 2.10955L39.2591 8.71328L46.5467 9.77219L41.2733 14.9126L42.5182 22.1708L35.9998 18.7439L29.4815 22.1708L30.7264 14.9126L25.453 9.77219L32.7407 8.71328L35.9998 2.10955Z" stroke="#FF321F" stroke-width="2" stroke-miterlimit="10" stroke-linecap="round" stroke-linejoin="round"/>
<path d="M10.5468 13.0695L13.1542 18.3525L18.9843 19.1997L14.7656 23.3119L15.7615 29.1185L10.5468 26.3771L5.33221 29.1185L6.32811 23.3119L2.10938 19.1997L7.93953 18.3525L10.5468 13.0695Z" stroke="#FF321F" stroke-width="2" stroke-miterlimit="10" stroke-linecap="round" stroke-linejoin="round"/>
<path d="M51.0468 44.5782H41.2031V36.1407C41.2031 33.034 38.6848 30.5157 35.5781 30.5157C34.0247 30.5157 32.7656 31.7749 32.7656 33.3282V37.547C32.7656 38.655 32.5474 39.7522 32.1234 40.7759C31.6994 41.7996 31.0779 42.7298 30.2944 43.5133C29.5109 44.2968 28.5808 44.9183 27.5571 45.3423C26.5334 45.7663 25.4362 45.9845 24.3281 45.9844H20.1094V65.6719H28.5468C29.8844 67.0094 31.4722 68.0704 33.2198 68.7943C34.9673 69.5181 36.8403 69.8907 38.7319 69.8906H49.6405C52.7472 69.8906 55.2655 67.3723 55.2655 64.2656V48.7969C55.2655 46.4671 53.3766 44.5782 51.0468 44.5782Z" stroke="#FF321F" stroke-width="2" stroke-miterlimit="10" stroke-linecap="round" stroke-linejoin="round"/>
<path d="M2.10938 69.8906H20.1093V41.7657H2.10938V69.8906Z" stroke="#FF321F" stroke-width="2" stroke-miterlimit="10" stroke-linecap="round" stroke-linejoin="round"/>
<path d="M48.2343 53.0156H55.2655" stroke="#FF321F" stroke-width="2" stroke-miterlimit="10" stroke-linecap="round" stroke-linejoin="round"/>
<path d="M48.2343 61.4531H55.2655" stroke="#FF321F" stroke-width="2" stroke-miterlimit="10" stroke-linecap="round" stroke-linejoin="round"/>
</svg>
