<svg width="128" height="128" viewBox="0 0 128 128" fill="none" xmlns="http://www.w3.org/2000/svg">
<path d="M70 4H118V116H70V4Z" fill="#4D5D79"/>
<path d="M70 4V110H91C97.2133 109.999 102.607 107.393 107 103C111.393 98.6065 113.999 93.2133 114 87V4H70Z" fill="#717D94"/>
<path d="M4 116H124V124H4V116Z" fill="#4D5D79"/>
<path d="M78 92H110V116H78V92Z" fill="#C7E2FB"/>
<path d="M78 12H90V20H78V12Z" fill="#C7E2FB"/>
<path d="M98 12H110V20H98V12Z" fill="#C7E2FB"/>
<path d="M78 32H90V40H78V32Z" fill="#C7E2FB"/>
<path d="M98 32H110V40H98V32Z" fill="#C7E2FB"/>
<path d="M78 52H90V60H78V52Z" fill="#C7E2FB"/>
<path d="M98 52H110V60H98V52Z" fill="#C7E2FB"/>
<path d="M78 72H90V80H78V72Z" fill="#C7E2FB"/>
<path d="M98 72H110V80H98V72Z" fill="#C7E2FB"/>
<path d="M58 24H70V48H58V24Z" fill="#4D5D79"/>
<path d="M58 24H64V48H58V24Z" fill="#717D94"/>
<path d="M58 72H70V96H58V72Z" fill="#4D5D79"/>
<path d="M58 72H64V96H58V72Z" fill="#717D94"/>
<path d="M4 120H116C117.061 120 118.25 119.75 119 119C119.75 118.25 120 117.061 120 116H4V120Z" fill="#717D94"/>
<path d="M78 12V18H83C84.3924 18 85.0154 16.9846 86 16C86.9846 15.0154 88 14.3924 88 13V12H78Z" fill="#EBF7FE"/>
<path d="M98 12V18H103C104.392 18 105.015 16.9846 106 16C106.985 15.0154 108 14.3924 108 13V12H98Z" fill="#EBF7FE"/>
<path d="M98 32V38H103C104.392 38 105.015 36.9846 106 36C106.985 35.0154 108 34.3924 108 33V32H98Z" fill="#EBF7FE"/>
<path d="M78 32V38H83C84.3924 38 85.0154 36.9846 86 36C86.9846 35.0154 88 34.3924 88 33V32H78Z" fill="#EBF7FE"/>
<path d="M78 52V58H83C84.3924 58 85.0154 56.9846 86 56C86.9846 55.0154 88 54.3924 88 53V52H78Z" fill="#EBF7FE"/>
<path d="M98 52V58H103C104.392 58 105.015 56.9846 106 56C106.985 55.0154 108 54.3924 108 53V52H98Z" fill="#EBF7FE"/>
<path d="M98 72V78H103C104.392 78 105.015 76.9846 106 76C106.985 75.0154 108 74.3924 108 73V72H98Z" fill="#EBF7FE"/>
<path d="M78 72V78H83C84.3924 78 85.0154 76.9846 86 76C86.9846 75.0154 88 74.3924 88 73V72H78Z" fill="#EBF7FE"/>
<path d="M78 110H90C93.9541 110.002 97.5162 108.87 101 107C104.484 105.13 107.817 102.297 110 99V92H78V110Z" fill="#EBF7FE"/>
<path d="M92 92H96V116H92V92Z" fill="white"/>
<path d="M102 98C102 96.8954 101.105 96 100 96C98.8954 96 98 96.8954 98 98V102C98 103.105 98.8954 104 100 104C101.105 104 102 103.105 102 102V98Z" fill="white"/>
<path d="M90 106C90 104.895 89.1046 104 88 104C86.8954 104 86 104.895 86 106V110C86 111.105 86.8954 112 88 112C89.1046 112 90 111.105 90 110V106Z" fill="white"/>
<path d="M10 4H58V116H10V4Z" fill="#4D5D79"/>
<path d="M10 4V110H31C37.2133 109.999 42.6065 107.393 47 103C51.3935 98.6065 53.9995 93.2133 54 87V4H10Z" fill="#717D94"/>
<path d="M18 92H50V116H18V92Z" fill="#C7E2FB"/>
<path d="M18 12H30V20H18V12Z" fill="#C7E2FB"/>
<path d="M38 12H50V20H38V12Z" fill="#C7E2FB"/>
<path d="M18 32H30V40H18V32Z" fill="#C7E2FB"/>
<path d="M38 32H50V40H38V32Z" fill="#C7E2FB"/>
<path d="M18 52H30V60H18V52Z" fill="#C7E2FB"/>
<path d="M38 52H50V60H38V52Z" fill="#C7E2FB"/>
<path d="M18 72H30V80H18V72Z" fill="#C7E2FB"/>
<path d="M38 72H50V80H38V72Z" fill="#C7E2FB"/>
<path d="M18 12V18H23C24.3924 18 25.0154 16.9846 26 16C26.9846 15.0154 28 14.3924 28 13V12H18Z" fill="#EBF7FE"/>
<path d="M38 12V18H43C44.3924 18 45.0154 16.9846 46 16C46.9846 15.0154 48 14.3924 48 13V12H38Z" fill="#EBF7FE"/>
<path d="M38 32V38H43C44.3924 38 45.0154 36.9846 46 36C46.9846 35.0154 48 34.3924 48 33V32H38Z" fill="#EBF7FE"/>
<path d="M18 32V38H23C24.3924 38 25.0154 36.9846 26 36C26.9846 35.0154 28 34.3924 28 33V32H18Z" fill="#EBF7FE"/>
<path d="M18 52V58H23C24.3924 58 25.0154 56.9846 26 56C26.9846 55.0154 28 54.3924 28 53V52H18Z" fill="#EBF7FE"/>
<path d="M38 52V58H43C44.3924 58 45.0154 56.9846 46 56C46.9846 55.0154 48 54.3924 48 53V52H38Z" fill="#EBF7FE"/>
<path d="M38 72V78H43C44.3924 78 45.0154 76.9846 46 76C46.9846 75.0154 48 74.3924 48 73V72H38Z" fill="#EBF7FE"/>
<path d="M18 72V78H23C24.3924 78 25.0154 76.9846 26 76C26.9846 75.0154 28 74.3924 28 73V72H18Z" fill="#EBF7FE"/>
<path d="M18 110H30C33.9541 110.002 37.5162 108.87 41 107C44.4838 105.13 47.8166 102.297 50 99V92H18V110Z" fill="#EBF7FE"/>
<path d="M32 92H36V116H32V92Z" fill="white"/>
<path d="M42 98C42 96.8954 41.1046 96 40 96C38.8954 96 38 96.8954 38 98V102C38 103.105 38.8954 104 40 104C41.1046 104 42 103.105 42 102V98Z" fill="white"/>
<path d="M30 106C30 104.895 29.1046 104 28 104C26.8954 104 26 104.895 26 106V110C26 111.105 26.8954 112 28 112C29.1046 112 30 111.105 30 110V106Z" fill="white"/>
</svg>
