<svg width="128" height="128" viewBox="0 0 128 128" fill="none" xmlns="http://www.w3.org/2000/svg">
<path d="M122 30H6C2.58477 30 0 32.5642 0 36V105C0 108.436 2.58477 111 6 111H122C125.415 111 128 108.436 128 105V36C128 32.5642 125.415 30 122 30Z" fill="#717D94"/>
<path d="M70 101H58V111H70V101Z" fill="#717D94"/>
<path d="M119 94V100C119 101.104 118.135 102 117 102H10C8.86482 102 8 101.104 8 100V94L20 88L70 90L111 88L119 94Z" fill="#E6BE8A"/>
<path d="M11 98C28.0434 90.9557 47.228 91.0986 64 99V24C46.675 15.838 26.4481 16.2146 9 24C8.24919 24.3351 8 25.1769 8 26V96C8 97.5 9.6153 98.5723 11 98Z" fill="#FFEBB7"/>
<path d="M64 99C80.772 91.0984 99.9566 90.9557 117 98C118.385 98.5723 120 97.5 120 96V26C120 25.1769 119.751 24.3351 119 24C101.552 16.2146 81.3247 15.838 64 24V99Z" fill="#FFD788"/>
<path d="M72 85C71.1619 85 70.2633 83.9108 70 83C69.6752 81.8765 69.9639 81.3529 71 81C72.9915 80.3222 75.9489 79.4654 78 79C79.0612 78.7585 79.7771 79.845 80 81C80.2229 82.1526 79.0652 82.7585 78 83C76.0739 83.4374 74.8685 84.364 73 85C72.8039 85.0664 72.1941 85 72 85Z" fill="#717D94"/>
<path d="M112 85C111.797 85 111.205 85.0613 111 85C103.224 82.6739 95.1125 81.3846 87 82C85.8487 82.0785 85.0904 81.0804 85 80C84.9114 78.9189 85.865 78.0861 87 78C95.6579 77.352 104.72 78.5232 113 81C114.085 81.3249 114.34 82.9657 114 84C113.724 84.8387 112.877 85 112 85Z" fill="#717D94"/>
<path d="M111 77C110.799 77 110.202 77.0615 110 77C97.7534 73.2792 85.2466 73.2792 73 77C71.9233 77.3258 70.3337 77.036 70 76C69.6643 74.9631 69.9291 73.3258 71 73C84.0454 69.0371 98.9547 69.0371 112 73C113.071 73.3258 113.336 74.9631 113 76C112.728 76.8409 111.866 77 111 77Z" fill="#717D94"/>
<path d="M72 68C71.1205 68 70.2763 67.8526 70 67C69.6591 65.9483 69.9126 64.3303 71 64C78.6033 61.6939 87.0517 60.6392 95 61C96.1377 61.0526 97.0545 61.8986 97 63C96.9476 64.1034 96.1578 65.0459 95 65C87.5418 64.6599 80.1375 65.8342 73 68C72.7944 68.0621 72.2037 68 72 68Z" fill="#717D94"/>
<path d="M111 68C110.805 68 110.196 68.0624 110 68C107.505 67.2066 105.582 66.4604 103 66C101.926 65.8076 100.809 65.0871 101 64C101.189 62.9138 101.928 61.8076 103 62C105.75 62.4908 109.341 63.1549 112 64C113.039 64.3307 113.326 65.947 113 67C112.735 67.8538 111.841 68 111 68Z" fill="#717D94"/>
<path d="M111 60C110.799 60 110.202 60.0615 110 60C97.7534 56.2786 85.2466 56.2786 73 60C71.9233 60.3238 70.3337 60.0351 70 59C69.6643 57.9629 69.9291 56.3257 71 56C84.0454 52.0365 98.9547 52.0365 112 56C113.071 56.3257 113.336 57.9629 113 59C112.728 59.841 111.866 60 111 60Z" fill="#717D94"/>
<path d="M72 52C71.104 52 70.2815 50.9101 70 50C69.6528 48.8772 69.8922 48.3526 71 48C75.2339 46.6535 80.5875 45.4954 85 45C86.1715 44.8575 86.8727 45.8327 87 47C87.1273 48.1696 86.1549 48.871 85 49C80.8587 49.4661 76.9727 50.7358 73 52C72.7903 52.0663 72.2076 52 72 52Z" fill="#717D94"/>
<path d="M112 52C111.795 52 111.207 52.063 111 52C105.134 50.2105 99.1505 49.0935 93 49C91.8515 48.9823 90.9818 48.1138 91 47C91.0182 45.8871 91.9104 44.9349 93 45C99.5502 45.1003 106.752 46.0945 113 48C114.094 48.3338 114.343 49.9373 114 51C113.72 51.8617 112.885 52 112 52Z" fill="#717D94"/>
<path d="M72 44C71.1244 44 70.2751 43.8194 70 43C69.6607 41.9893 69.9175 40.3175 71 40C79.9611 37.3745 89.6572 36.0305 99 37C100.129 37.1161 101.125 38.9471 101 40C100.876 41.052 100.151 41.1369 99 41C90.2356 40.0933 81.413 41.5337 73 44C72.7954 44.0599 72.2028 44 72 44Z" fill="#717D94"/>
<path d="M111 44C110.807 44 110.195 44.0596 110 44C108.757 43.619 108.276 43.3025 107 43C105.95 42.7504 104.744 41.0233 105 40C105.256 38.9766 105.94 38.7523 107 39C108.356 39.3223 110.674 39.5947 112 40C113.031 40.3156 113.323 41.9952 113 43C112.738 43.8148 111.834 44 111 44Z" fill="#717D94"/>
<path d="M72 35C71.1659 35 70.262 34.8146 70 34C69.6768 32.9945 69.9668 31.3146 71 31C72.3469 30.5884 74.6666 30.3156 76 30C77.0447 29.7495 77.7436 29.9769 78 31C78.2564 32.0232 77.0503 33.7514 76 34C74.7489 34.296 74.2666 34.6137 73 35C72.8048 35.0594 72.1932 35 72 35Z" fill="#717D94"/>
<path d="M112 35C111.797 35 111.205 35.0599 111 35C102.585 32.5337 93.7664 31.0943 85 32C83.8633 32.1292 83.1244 32.0508 83 31C82.8756 29.9471 83.8715 28.1161 85 28C94.3387 27.0305 104.037 28.3745 113 31C114.083 31.3175 114.34 32.9893 114 34C113.725 34.8194 112.876 35 112 35Z" fill="#717D94"/>
<path d="M17 85C16.1619 85 15.2635 83.9108 15 83C14.6752 81.8765 14.9639 81.3529 16 81C17.9915 80.3222 20.9489 79.4654 23 79C24.0629 78.7585 24.7771 79.845 25 81C25.2229 82.1526 24.0652 82.7585 23 83C21.0739 83.4374 19.8685 84.364 18 85C17.8039 85.0664 17.1941 85 17 85Z" fill="#B4B6BC"/>
<path d="M56 85C55.7968 85 55.2051 85.0613 55 85C47.2254 82.6739 39.1126 81.3846 31 82C29.8328 82.0785 29.0904 81.0804 29 80C28.9114 78.9189 29.865 78.0861 31 78C39.6579 77.352 48.7185 78.5232 57 81C58.0848 81.3249 58.3403 82.9657 58 84C57.7241 84.8387 56.8774 85 56 85Z" fill="#B4B6BC"/>
<path d="M56 77C55.7994 77 55.2024 77.0615 55 77C42.7534 73.2792 30.2466 73.2792 18 77C16.9192 77.3258 15.3337 77.036 15 76C14.6643 74.9631 14.9291 73.3258 16 73C29.0454 69.0371 43.9547 69.0371 57 73C58.0709 73.3258 58.336 74.9631 58 76C57.7276 76.8409 56.8662 77 56 77Z" fill="#B4B6BC"/>
<path d="M17 68C16.1205 68 15.2766 67.8526 15 67C14.6592 65.9483 14.9126 64.3303 16 64C23.6033 61.6939 32.0577 60.6392 40 61C41.1377 61.0526 42.0545 61.8986 42 63C41.9455 64.1034 41.1457 65.0459 40 65C32.5398 64.6599 25.1375 65.8342 18 68C17.7945 68.0621 17.2037 68 17 68Z" fill="#B4B6BC"/>
<path d="M55 68C54.8053 68 54.1964 68.0624 54 68C51.5052 67.2066 49.5817 66.4604 47 66C45.9259 65.8076 44.809 65.0871 45 64C45.1871 62.9138 45.9299 61.8076 47 62C49.7495 62.4908 53.341 63.1549 56 64C57.0392 64.3307 57.326 65.947 57 67C56.7354 67.8538 55.8406 68 55 68Z" fill="#B4B6BC"/>
<path d="M17 60.0001C16.1301 60.0001 15.2735 59.868 15 59.0001C14.6629 57.9294 14.9245 56.3364 16 56.0001C27.615 52.3736 40.1776 52.1366 52 55.0001C53.0975 55.266 54.2674 55.9096 54 57.0001C53.7326 58.0895 52.0895 59.2599 51 59.0001C39.8978 56.3081 28.9045 56.5945 18 60.0001C17.7964 60.0633 17.2015 60.0001 17 60.0001Z" fill="#B4B6BC"/>
<path d="M17 52C16.104 52 15.2818 50.9101 15 50C14.6528 48.8772 14.8922 48.3526 16 48C20.2339 46.6535 25.5875 45.4954 30 45C31.1612 44.8575 31.8727 45.8327 32 47C32.1273 48.1696 31.1549 48.871 30 49C25.8587 49.4661 21.9727 50.7358 18 52C17.7903 52.0663 17.2076 52 17 52Z" fill="#B4B6BC"/>
<path d="M52 50.9999C51.8354 50.9999 51.1664 51.0394 51 50.9999C46.3303 49.8859 41.8037 49.0734 37 48.9999C35.8356 48.9819 34.9816 48.1393 35 46.9999C35.0184 45.8616 35.7882 44.9334 37 44.9999C42.1181 45.0796 47.0256 45.8134 52 46.9999C53.1315 47.27 54.2757 47.8928 54 48.9999C53.7651 49.9431 52.9482 50.9999 52 50.9999Z" fill="#B4B6BC"/>
<path d="M17 44C16.1244 44 15.2753 43.8194 15 43C14.6607 41.9893 14.9175 40.3175 16 40C24.9631 37.3745 34.6593 36.0305 44 37C45.1288 37.1161 46.1247 38.9471 46 40C45.8756 41.052 45.1427 41.1369 44 41C35.2356 40.0933 26.413 41.5337 18 44C17.7954 44.0599 17.2028 44 17 44Z" fill="#B4B6BC"/>
<path d="M17 35C16.1659 35 15.2623 34.8146 15 34C14.6768 32.9945 14.9668 31.3146 16 31C17.3469 30.5884 19.6666 30.3156 21 30C22.0427 29.7495 22.7436 29.9769 23 31C23.2564 32.0232 22.0503 33.7514 21 34C19.7489 34.296 19.2666 34.6137 18 35C17.8048 35.0594 17.1932 35 17 35Z" fill="#B4B6BC"/>
<path d="M52 34C51.8381 34 51.1638 34.0374 51 34C43.7549 32.3337 36.4091 32.2247 29 33C27.8622 33.1319 27.1254 32.0743 27 31C26.8746 29.9254 27.8625 28.1184 29 28C36.8888 27.1702 44.2854 28.2268 52 30C53.1134 30.2562 54.2713 30.9494 54 32C53.7691 32.8947 52.9331 34 52 34Z" fill="#B4B6BC"/>
<path d="M52 56C52.0003 56.8147 53.3358 57.452 54 57L58 54L62 57C62.6642 57.452 64 56.815 64 56V24C64 23.1939 63.7217 22.3275 63 22C59.8872 20.5869 56.2493 19.8762 53 19C52.366 18.8291 51.9998 19.3307 52 20V56Z" fill="#717D94"/>
</svg>
