<svg width="128" height="128" viewBox="0 0 128 128" fill="none" xmlns="http://www.w3.org/2000/svg">
<path d="M107 11H21C18.1774 11 16 13.1688 16 16V123C16 125.831 18.1774 128 21 128H107C109.823 128 112 125.831 112 123V16C112 13.1691 109.823 11 107 11Z" fill="#64798A"/>
<path d="M107 18H22V123H107V18Z" fill="#EBF0F3"/>
<path d="M107 15H22V120H107V15Z" fill="white"/>
<path d="M91 11H38V15H91V11Z" fill="#3A556A"/>
<path d="M91 15H38V24H91V15Z" fill="#E1E6E9"/>
<path d="M84 8H71C70.8766 3.68621 68.2017 0 64 0C59.797 0 56.1234 3.68621 56 8H43C41.8395 8 41 8.80046 41 10V21H86V10C85.9997 8.80046 85.1605 8 84 8Z" fill="#DC8744"/>
<path d="M35 56H27V67H35V56Z" fill="#E56353"/>
<path d="M46 43H38V67H46V43Z" fill="#27A2DB"/>
<path d="M57 30H49V67H57V30Z" fill="#44C4A1"/>
<path d="M68 47H60V66H68V47Z" fill="#FCD462"/>
<path d="M35 63H27V67H35V63Z" fill="#D15241"/>
<path d="M46 63H38V67H46V63Z" fill="#2D93BA"/>
<path d="M57 63H49V67H57V63Z" fill="#3EA69B"/>
<path d="M68 63H60V67H68V63Z" fill="#F6C358"/>
<path d="M101 73H27V76H101V73Z" fill="#D5D6DB"/>
<path d="M101 33H76V36H101V33Z" fill="#D5D6DB"/>
<path d="M101 43H76V46H101V43Z" fill="#D5D6DB"/>
<path d="M101 53H76V56H101V53Z" fill="#D5D6DB"/>
<path d="M101 63H76V66H101V63Z" fill="#D5D6DB"/>
<path d="M101 83H27V86H101V83Z" fill="#D5D6DB"/>
<path d="M101 92H27V117H101V92Z" fill="#D5D6DB"/>
<path d="M101 91H27V116H101V91Z" fill="#EBF0F3"/>
<path d="M29 116C28.8402 116 28.1301 116.114 28 116C27.7103 115.747 27.7509 115.294 28 115L38 104C37.7103 103.835 38.2166 103.744 38 104L49 110L58 100C58.2194 99.7691 58.7186 99.8336 59 100L70 106L78 97C78.2112 96.7607 78.7266 95.853 79 96L89 102L98 94C98.2951 93.7484 98.7537 93.7059 99 94C99.2491 94.2957 99.2897 94.7471 99 95L90 103C89.7834 103.187 89.252 103.129 89 103L79 98L71 108C70.7806 108.247 70.2868 108.166 70 108L59 101L49 111C48.7834 111.228 49.2788 111.157 49 111L38 105L29 116C29.1949 116 28.8619 116.162 29 116Z" fill="#44C4A1"/>
<path d="M29 116C28.7374 116 28.1164 116.26 28 116C27.8402 115.645 27.6507 115.161 28 115L40 109C39.8185 108.923 40.176 108.916 40 109L49 113L57 108C56.8268 107.953 57.1569 107.915 57 108L68 111L79 105C78.8293 104.96 79.1569 104.905 79 105L91 108L95 106C95.3141 105.783 95.7834 105.681 96 106C96.2166 106.32 96.3167 106.779 96 107L92 109C91.8376 109.113 91.1843 109.044 91 109L79 106L69 113C68.8376 113.097 68.184 113.05 68 113L57 110L49 114C48.8185 114.102 48.1923 114.081 48 114L40 111L29 116C29.0973 116 28.9078 116.042 29 116Z" fill="#E56353"/>
</svg>
