<?xml version="1.0" encoding="UTF-8"?>
<svg xmlns="http://www.w3.org/2000/svg" xmlns:xlink="http://www.w3.org/1999/xlink" width="56px" height="56px" viewBox="0 0 56 56" version="1.1">
<g id="surface1">
<path style=" stroke:none;fill-rule:nonzero;fill:rgb(0.392157%,0%,0%);fill-opacity:1;" d="M 27.667969 55.96875 C 26.738281 55.941406 26.261719 55.898438 25.457031 55.773438 C 21.011719 55.101562 17.105469 53.351562 13.621094 50.46875 C 12.941406 49.910156 11.257812 48.214844 10.667969 47.5 C 7.632812 43.828125 5.847656 39.617188 5.3125 34.851562 C 5.191406 33.78125 5.191406 31.015625 5.308594 29.949219 C 5.59375 27.421875 6.207031 25.050781 7.109375 22.988281 L 7.320312 22.511719 L 7.074219 22.261719 C 6.378906 21.539062 5.070312 19.550781 4.664062 18.59375 C 4.335938 17.816406 3.863281 16.132812 3.640625 14.933594 C 3.511719 14.214844 3.503906 10.933594 3.636719 10.09375 C 3.980469 7.890625 4.414062 6.234375 4.867188 5.355469 C 5.078125 4.953125 5.507812 4.445312 5.648438 4.445312 C 5.800781 4.445312 5.890625 4.652344 6.320312 5.929688 C 7.144531 8.378906 7.785156 9.835938 8.570312 11.027344 C 9.3125 12.152344 9.953125 12.859375 10.660156 13.320312 C 11.203125 13.675781 13.019531 14.464844 13.296875 14.464844 C 13.324219 14.464844 13.632812 14.234375 13.976562 13.960938 C 19.046875 9.894531 25.4375 8.089844 31.902344 8.914062 C 34.40625 9.234375 36.824219 9.960938 39.199219 11.113281 L 40.164062 11.578125 L 41.296875 10.707031 C 42.367188 9.886719 42.441406 9.820312 42.714844 9.417969 C 43.59375 8.113281 43.804688 7.585938 44.417969 5.066406 C 44.691406 3.972656 44.789062 3.332031 44.886719 2.0625 C 45.019531 0.363281 45.0625 0.09375 45.253906 0.0429688 C 45.425781 0 45.613281 0.128906 46.015625 0.550781 C 47.636719 2.246094 49.035156 5.738281 49.511719 9.257812 C 49.550781 9.554688 49.578125 10.300781 49.578125 11.273438 C 49.578125 12.972656 49.574219 13.039062 49.222656 14.394531 C 48.949219 15.480469 48.703125 16.140625 48.195312 17.148438 L 47.730469 18.085938 L 48.433594 19.136719 C 50.695312 22.527344 51.953125 26.023438 52.382812 30.113281 C 52.480469 31.074219 52.496094 33.355469 52.40625 34.3125 C 51.941406 39.386719 50.136719 43.742188 46.90625 47.625 C 46.265625 48.390625 44.757812 49.890625 43.960938 50.546875 C 40.425781 53.464844 36.320312 55.25 31.773438 55.832031 C 31.078125 55.921875 30.566406 55.949219 29.167969 55.988281 C 28.882812 56 28.207031 55.988281 27.667969 55.96875 Z M 27.667969 55.96875 "/>
<path style=" stroke:none;fill-rule:nonzero;fill:#5D71DD;fill-opacity:1;" d="M 26.929688 55.652344 C 26.046875 55.558594 25.011719 55.402344 24.207031 55.238281 C 18.585938 54.097656 13.660156 50.996094 10.171875 46.390625 C 7.769531 43.222656 6.222656 39.402344 5.660156 35.269531 C 5.484375 33.964844 5.484375 30.746094 5.65625 29.472656 C 6.167969 25.789062 7.359375 22.550781 9.300781 19.589844 C 10.269531 18.113281 11.050781 17.167969 12.46875 15.757812 C 13.492188 14.742188 13.851562 14.433594 14.847656 13.679688 C 21.316406 8.816406 29.859375 7.671875 37.445312 10.660156 C 38.164062 10.945312 39.714844 11.691406 40.441406 12.105469 C 44.96875 14.691406 48.605469 18.882812 50.523438 23.726562 C 51.253906 25.546875 51.722656 27.394531 52.015625 29.523438 C 52.140625 30.460938 52.199219 33.144531 52.113281 34.25 C 51.835938 37.707031 50.6875 41.316406 48.902344 44.300781 C 46.734375 47.933594 43.496094 51.023438 39.875 52.925781 C 37.140625 54.359375 34.78125 55.121094 31.746094 55.542969 C 31.121094 55.625 30.714844 55.644531 29.070312 55.65625 C 28.003906 55.660156 27.039062 55.660156 26.929688 55.652344 Z M 31.160156 50.074219 C 31.539062 50.007812 32.035156 49.742188 32.394531 49.421875 C 32.683594 49.15625 32.9375 48.785156 32.859375 48.734375 C 32.835938 48.71875 32.675781 48.777344 32.503906 48.859375 C 32.332031 48.941406 31.992188 49.074219 31.746094 49.15625 C 30.886719 49.445312 29.875 49.382812 28.960938 48.976562 C 28.507812 48.773438 28.332031 48.71875 28.332031 48.785156 C 28.332031 48.867188 28.683594 49.269531 28.960938 49.511719 C 29.554688 50.015625 30.355469 50.222656 31.160156 50.074219 Z M 31.402344 47.5 C 33.066406 47.28125 34.425781 46.878906 35.871094 46.179688 C 39.484375 44.429688 42.21875 41.277344 43.480469 37.417969 C 43.949219 35.996094 44.183594 34.730469 44.234375 33.417969 C 44.246094 32.964844 44.277344 32.574219 44.300781 32.539062 C 44.351562 32.449219 44.738281 32.65625 45.421875 33.136719 L 45.980469 33.53125 L 45.953125 33.34375 C 45.902344 33.042969 45.578125 32.445312 45.332031 32.199219 C 44.597656 31.464844 43.394531 31.433594 42.539062 32.136719 C 42.347656 32.292969 42.203125 32.480469 42.242188 32.519531 C 42.253906 32.527344 42.59375 32.496094 42.996094 32.445312 C 43.402344 32.390625 43.785156 32.347656 43.847656 32.347656 L 43.96875 32.347656 L 43.9375 33.050781 C 43.863281 34.746094 43.34375 36.773438 42.574219 38.390625 C 41.023438 41.605469 38.714844 44.046875 35.851562 45.488281 C 32.8125 47.015625 29.511719 47.378906 26.292969 46.539062 C 23.75 45.878906 21.226562 44.34375 19.507812 42.414062 C 17.386719 40.023438 16.148438 37.273438 15.78125 34.128906 C 15.695312 33.433594 15.722656 33.320312 15.941406 33.355469 C 16.015625 33.367188 16.285156 33.398438 16.542969 33.429688 C 16.796875 33.457031 17.09375 33.492188 17.195312 33.507812 C 17.445312 33.546875 17.4375 33.4375 17.171875 33.175781 C 16.722656 32.746094 15.996094 32.519531 15.40625 32.632812 C 14.746094 32.753906 14.183594 33.183594 13.902344 33.773438 C 13.71875 34.164062 13.660156 34.410156 13.746094 34.410156 C 13.78125 34.410156 14.074219 34.230469 14.394531 34.011719 C 14.722656 33.785156 14.996094 33.628906 15.019531 33.652344 C 15.042969 33.679688 15.097656 34.007812 15.140625 34.386719 C 15.347656 36.1875 16.070312 38.417969 16.96875 40.035156 C 18.738281 43.214844 21.695312 45.707031 25.03125 46.832031 C 26.089844 47.191406 27.386719 47.46875 28.503906 47.570312 C 29.167969 47.632812 30.679688 47.601562 31.402344 47.5 Z M 24.34375 31.433594 C 25.117188 31.277344 26.027344 30.894531 26.578125 30.492188 C 26.746094 30.367188 27.089844 30.066406 27.339844 29.824219 C 28.507812 28.6875 28.871094 27.957031 29.023438 26.453125 C 29.09375 25.769531 29.054688 25.214844 28.890625 24.363281 C 28.734375 23.574219 28.671875 23.40625 28.511719 23.40625 C 28.449219 23.40625 28.359375 23.4375 28.308594 23.472656 C 28.222656 23.535156 28.222656 23.558594 28.300781 24.070312 C 28.347656 24.363281 28.367188 24.621094 28.347656 24.640625 C 28.328125 24.660156 27.800781 24.597656 27.175781 24.488281 C 25.074219 24.132812 22.519531 23.695312 20.535156 23.359375 C 19.449219 23.167969 18.460938 23.015625 18.34375 23.015625 C 18.046875 23.015625 17.523438 23.285156 16.527344 23.949219 C 15.707031 24.492188 14.445312 25.476562 14.394531 25.601562 C 14.378906 25.636719 14.378906 25.679688 14.394531 25.695312 C 14.40625 25.710938 14.703125 25.613281 15.054688 25.476562 C 15.804688 25.183594 16.546875 24.988281 17.058594 24.945312 L 17.425781 24.914062 L 17.425781 25.476562 C 17.425781 26.429688 17.5 27.066406 17.667969 27.578125 C 18.363281 29.691406 20.359375 31.285156 22.59375 31.511719 C 23.101562 31.5625 23.867188 31.527344 24.34375 31.433594 Z M 36.941406 29.207031 C 37.96875 28.9375 38.496094 28.660156 39.296875 27.960938 C 40.738281 26.703125 41.457031 24.875 41.253906 22.988281 C 41.152344 22.035156 41.0625 21.636719 40.867188 21.253906 L 40.6875 20.898438 L 40.792969 20.804688 C 40.996094 20.640625 41.53125 20.59375 42.738281 20.621094 C 43.523438 20.640625 43.847656 20.636719 43.824219 20.597656 C 43.636719 20.296875 39.878906 19.257812 39.351562 19.355469 C 39.113281 19.398438 38.558594 19.691406 35.507812 21.402344 C 31.945312 23.402344 30.316406 24.277344 30.261719 24.222656 C 30.246094 24.207031 30.1875 23.972656 30.128906 23.691406 L 30.027344 23.1875 L 29.84375 23.171875 L 29.65625 23.15625 L 29.65625 23.570312 C 29.65625 24.726562 30.140625 26.277344 30.734375 27.027344 C 31.386719 27.859375 32.039062 28.40625 32.820312 28.785156 C 33.785156 29.257812 34.492188 29.40625 35.652344 29.375 C 36.253906 29.367188 36.453125 29.339844 36.941406 29.207031 Z M 36.941406 29.207031 "/>
<path style=" stroke:none;fill-rule:nonzero;fill:rgb(100%,0%,0%);fill-opacity:1;" d="M 22.585938 30.96875 C 21.328125 30.820312 20.03125 30.082031 19.199219 29.035156 C 18.414062 28.050781 18.015625 26.9375 18.015625 25.726562 C 18.015625 25.425781 18.035156 25.171875 18.058594 25.15625 C 18.148438 25.101562 22.675781 25.601562 22.765625 25.675781 C 22.800781 25.707031 22.855469 25.820312 22.882812 25.933594 C 22.992188 26.347656 22.96875 26.328125 23.140625 26.167969 C 23.351562 25.972656 23.476562 25.914062 23.695312 25.914062 C 23.851562 25.914062 23.910156 25.945312 24.085938 26.132812 C 24.199219 26.257812 24.328125 26.355469 24.367188 26.355469 C 24.410156 26.355469 24.519531 26.257812 24.609375 26.136719 C 24.695312 26.015625 24.800781 25.90625 24.828125 25.894531 C 24.863281 25.878906 25.25 25.914062 25.6875 25.964844 C 26.132812 26.015625 26.929688 26.109375 27.472656 26.171875 L 28.453125 26.28125 L 28.445312 26.527344 C 28.425781 27.023438 28.035156 28.039062 27.644531 28.613281 C 27.167969 29.316406 26.324219 30.058594 25.582031 30.429688 C 25.074219 30.6875 24.367188 30.902344 23.835938 30.96875 C 23.339844 31.027344 23.113281 31.027344 22.585938 30.96875 Z M 34.554688 28.78125 C 33.222656 28.539062 31.976562 27.765625 31.171875 26.679688 C 30.886719 26.300781 30.691406 25.964844 30.691406 25.867188 C 30.691406 25.824219 32.453125 24.929688 32.542969 24.929688 C 32.570312 24.929688 32.625 24.980469 32.667969 25.042969 L 32.742188 25.152344 L 32.855469 25.046875 C 33.03125 24.890625 33.171875 24.832031 33.371094 24.832031 C 33.515625 24.832031 33.585938 24.871094 33.746094 25.027344 C 33.851562 25.136719 33.972656 25.222656 34.003906 25.222656 C 34.128906 25.222656 34.226562 24.90625 34.226562 24.503906 L 34.226562 24.109375 L 34.386719 24.03125 C 34.472656 23.988281 34.777344 23.84375 35.0625 23.710938 C 35.347656 23.578125 36.53125 23.003906 37.691406 22.4375 C 40.164062 21.234375 40.097656 21.265625 40.191406 21.339844 C 40.230469 21.367188 40.335938 21.636719 40.433594 21.929688 C 40.9375 23.445312 40.679688 25.175781 39.746094 26.585938 C 38.78125 28.042969 37.160156 28.875 35.332031 28.855469 C 35.117188 28.855469 34.765625 28.820312 34.554688 28.78125 Z M 34.554688 28.78125 "/>
<path style=" stroke:none;fill-rule:nonzero;fill:rgb(94.509804%,98.823529%,0.784314%);fill-opacity:1;" d="M 22.585938 30.96875 C 21.328125 30.820312 20.03125 30.082031 19.199219 29.035156 C 18.414062 28.050781 18.015625 26.9375 18.015625 25.726562 C 18.015625 25.425781 18.035156 25.171875 18.058594 25.15625 C 18.085938 25.140625 18.433594 25.160156 18.832031 25.199219 C 20.25 25.347656 22.261719 25.574219 22.292969 25.59375 C 22.308594 25.609375 22.351562 25.746094 22.386719 25.90625 C 22.484375 26.375 22.71875 26.738281 23.066406 26.976562 C 23.4375 27.230469 23.789062 27.316406 24.175781 27.242188 C 24.8125 27.125 25.210938 26.753906 25.449219 26.050781 C 25.488281 25.9375 25.46875 25.9375 27.101562 26.125 L 28.453125 26.28125 L 28.445312 26.527344 C 28.425781 27.023438 28.035156 28.039062 27.644531 28.613281 C 27.167969 29.316406 26.324219 30.058594 25.582031 30.429688 C 25.074219 30.6875 24.367188 30.902344 23.835938 30.96875 C 23.339844 31.027344 23.113281 31.027344 22.585938 30.96875 Z M 34.554688 28.78125 C 33.222656 28.539062 31.976562 27.765625 31.171875 26.679688 C 30.886719 26.300781 30.691406 25.964844 30.691406 25.867188 C 30.691406 25.828125 31.953125 25.175781 32.03125 25.175781 C 32.050781 25.175781 32.105469 25.257812 32.160156 25.367188 C 32.296875 25.632812 32.667969 26 32.914062 26.109375 C 33.21875 26.25 33.734375 26.242188 34.058594 26.089844 C 34.375 25.941406 34.648438 25.667969 34.78125 25.375 C 34.910156 25.09375 34.917969 24.46875 34.800781 24.144531 C 34.757812 24.019531 34.738281 23.90625 34.761719 23.882812 C 34.804688 23.839844 39.707031 21.445312 39.964844 21.347656 C 40.082031 21.300781 40.136719 21.292969 40.191406 21.339844 C 40.230469 21.367188 40.335938 21.636719 40.433594 21.929688 C 40.9375 23.445312 40.679688 25.175781 39.746094 26.585938 C 38.78125 28.042969 37.160156 28.875 35.332031 28.855469 C 35.117188 28.855469 34.765625 28.820312 34.554688 28.78125 Z M 34.554688 28.78125 "/>
<path style=" stroke:none;fill-rule:nonzero;fill:rgb(94.509804%,98.823529%,0.784314%);fill-opacity:1;" d="M 23.277344 26.816406 C 23.140625 26.660156 23.121094 26.609375 23.132812 26.390625 C 23.148438 26.164062 23.167969 26.125 23.316406 26.023438 C 23.570312 25.851562 23.832031 25.871094 24.039062 26.078125 C 24.179688 26.222656 24.207031 26.28125 24.207031 26.46875 C 24.207031 26.660156 24.179688 26.707031 24.035156 26.839844 C 23.894531 26.964844 23.8125 26.992188 23.644531 26.992188 C 23.457031 26.992188 23.410156 26.96875 23.277344 26.816406 Z M 33.039062 25.933594 C 32.761719 25.785156 32.644531 25.277344 32.832031 25.074219 C 33.085938 24.792969 33.445312 24.753906 33.707031 24.984375 C 34.003906 25.246094 33.992188 25.621094 33.675781 25.886719 C 33.507812 26.03125 33.25 26.050781 33.039062 25.933594 Z M 33.039062 25.933594 "/>
<path style=" stroke:none;fill-rule:nonzero;fill:rgb(100%,100%,100%);fill-opacity:1;" d="M 22.585938 30.96875 C 21.328125 30.820312 20.03125 30.082031 19.199219 29.035156 C 18.414062 28.050781 18.015625 26.9375 18.015625 25.726562 C 18.015625 25.425781 18.035156 25.171875 18.058594 25.15625 C 18.085938 25.140625 18.433594 25.160156 18.832031 25.199219 C 20.25 25.347656 22.261719 25.574219 22.292969 25.59375 C 22.308594 25.609375 22.351562 25.746094 22.386719 25.90625 C 22.484375 26.375 22.71875 26.738281 23.066406 26.976562 C 23.4375 27.230469 23.789062 27.316406 24.175781 27.242188 C 24.8125 27.125 25.210938 26.753906 25.449219 26.050781 C 25.488281 25.9375 25.46875 25.9375 27.101562 26.125 L 28.453125 26.28125 L 28.445312 26.527344 C 28.425781 27.023438 28.035156 28.039062 27.644531 28.613281 C 27.167969 29.316406 26.324219 30.058594 25.582031 30.429688 C 25.074219 30.6875 24.367188 30.902344 23.835938 30.96875 C 23.339844 31.027344 23.113281 31.027344 22.585938 30.96875 Z M 34.554688 28.78125 C 33.222656 28.539062 31.976562 27.765625 31.171875 26.679688 C 30.886719 26.300781 30.691406 25.964844 30.691406 25.867188 C 30.691406 25.828125 31.953125 25.175781 32.03125 25.175781 C 32.050781 25.175781 32.105469 25.257812 32.160156 25.367188 C 32.296875 25.632812 32.667969 26 32.914062 26.109375 C 33.21875 26.25 33.734375 26.242188 34.058594 26.089844 C 34.375 25.941406 34.648438 25.667969 34.78125 25.375 C 34.910156 25.09375 34.917969 24.46875 34.800781 24.144531 C 34.757812 24.019531 34.738281 23.90625 34.761719 23.882812 C 34.804688 23.839844 39.707031 21.445312 39.964844 21.347656 C 40.082031 21.300781 40.136719 21.292969 40.191406 21.339844 C 40.230469 21.367188 40.335938 21.636719 40.433594 21.929688 C 40.9375 23.445312 40.679688 25.175781 39.746094 26.585938 C 38.78125 28.042969 37.160156 28.875 35.332031 28.855469 C 35.117188 28.855469 34.765625 28.820312 34.554688 28.78125 Z M 34.554688 28.78125 "/>
</g>
</svg>
