<svg width="31" height="30" viewBox="0 0 31 30" fill="none" xmlns="http://www.w3.org/2000/svg">
<path d="M25.9083 4.25024C23.2031 1.54644 19.6072 0.0576172 15.7813 0.0576172H15.7799C13.8877 0.0578424 12.0436 0.424024 10.2994 1.14625C8.55499 1.86848 6.99216 2.91275 5.65398 4.25024C2.949 6.95382 1.4594 10.5485 1.4594 14.372C1.4594 16.6522 2.00986 18.9182 3.05287 20.9372L0.645536 27.8109C0.475869 28.2957 0.595965 28.8227 0.959633 29.186C1.21402 29.4404 1.54885 29.5756 1.89314 29.5756C2.04073 29.5756 2.18989 29.5508 2.33545 29.4999L9.2127 27.094C11.2327 28.1365 13.4999 28.6867 15.7813 28.6867C19.6068 28.6867 23.2031 27.1976 25.9083 24.4941C28.6133 21.7905 30.1031 18.1958 30.1031 14.3723C30.1031 10.5485 28.6135 6.95382 25.9083 4.25024ZM24.6835 23.2698C22.3057 25.6467 19.144 26.9553 15.7813 26.9553C13.7241 26.9553 11.6804 26.4468 9.87109 25.4843C9.54302 25.31 9.15525 25.28 8.80712 25.4019L2.55896 27.5875L4.74593 21.3426C4.86783 20.9942 4.83764 20.6066 4.66324 20.2789C3.70044 18.471 3.19144 16.4284 3.19144 14.372C3.19144 11.0111 4.50101 7.85103 6.87882 5.47445C9.25642 3.0981 12.4177 1.78921 15.7801 1.78876H15.7813C19.1442 1.78876 22.3057 3.09765 24.6835 5.47445C27.0615 7.85103 28.3711 11.0109 28.3711 14.372C28.3711 17.7332 27.0615 20.8933 24.6835 23.2698Z" fill="white"/>
</svg>
