<svg width="416" height="341" viewBox="0 0 416 341" fill="none" xmlns="http://www.w3.org/2000/svg">
<g clip-path="url(#clip0_283_4443)">
<path d="M156.934 44.7247V232.128" stroke="#111111" stroke-width="0.7016" stroke-miterlimit="10" stroke-linecap="round"/>
<path d="M172.188 46.0896V232.128" stroke="#111111" stroke-width="0.7016" stroke-miterlimit="10" stroke-linecap="round"/>
<path d="M30.8203 250.711C31.9773 250.606 163.877 230.973 163.877 230.973L381.291 260.999V262.259L163.772 234.437L30.8203 252.285V250.711Z" stroke="#111111" stroke-width="0.7016" stroke-miterlimit="10" stroke-linecap="round"/>
<path d="M31.8708 252.18C33.0278 252.075 163.771 234.542 163.771 234.542L380.238 262.259V263.519L163.665 238.007L31.7656 253.755V252.18H31.8708Z" stroke="#111111" stroke-width="0.5896" stroke-miterlimit="10" stroke-linecap="round"/>
<path d="M33.9766 253.44C35.1336 253.335 163.668 238.007 163.668 238.007L378.136 263.204V264.464L163.562 241.472L33.9766 255.015V253.44Z" stroke="#111111" stroke-width="0.5823" stroke-miterlimit="10" stroke-linecap="round"/>
<path d="M39.1289 254.49V262.259L163.035 248.191L378.135 270.028V264.464L163.561 241.472L39.1289 254.49Z" stroke="#111111" stroke-width="0.5823" stroke-miterlimit="10" stroke-linecap="round"/>
<path d="M39.1289 262.259H45.0192L163.035 249.661L378.135 270.028L163.035 248.191L39.1289 262.259Z" stroke="#111111" stroke-width="0.3742" stroke-miterlimit="10" stroke-linecap="round"/>
<path d="M154.832 250.501V253.86H156.305V318.323L162.616 318.743L170.61 318.218V254.49H172.187V250.501L163.036 249.661L154.832 250.501Z" stroke="#111111" stroke-width="0.3742" stroke-miterlimit="10" stroke-linecap="round"/>
<path d="M41.1289 266.984L163.036 256.8L170.61 257.43" stroke="#111111" stroke-width="0.3742" stroke-miterlimit="10" stroke-linecap="round"/>
<path d="M41.1289 268.139L163.036 258.48L170.61 259.11" stroke="#111111" stroke-width="0.3742" stroke-miterlimit="10" stroke-linecap="round"/>
<path d="M156.305 312.548H162.931H170.61" stroke="#111111" stroke-width="0.3742" stroke-miterlimit="10" stroke-linecap="round"/>
<path d="M163.035 258.48V312.548" stroke="#111111" stroke-width="0.3742" stroke-miterlimit="10" stroke-linecap="round"/>
<path d="M156.304 317.273L40.707 313.913V262.259" stroke="#111111" stroke-width="0.3742" stroke-miterlimit="10" stroke-linecap="round"/>
<path d="M127.379 253.44V316.433L124.855 317.168V257.85C124.855 257.85 122.856 255.225 123.593 252.705L127.379 253.44Z" stroke="#111111" stroke-width="0.3742" stroke-miterlimit="10" stroke-linecap="round"/>
<path d="M118.018 253.335C117.282 255.855 119.281 258.48 119.281 258.48V316.853L124.855 317.168" stroke="#111111" stroke-width="0.3742" stroke-miterlimit="10" stroke-linecap="round"/>
<path d="M94.77 256.905V315.488L92.456 316.118V260.894C92.456 260.894 90.5627 258.48 91.2989 256.065L94.77 256.905Z" stroke="#111111" stroke-width="0.5533" stroke-miterlimit="10" stroke-linecap="round"/>
<path d="M87.3029 256.905C86.6718 259.215 88.4599 261.734 88.4599 261.734V316.013L92.3517 316.118" stroke="#111111" stroke-width="0.5533" stroke-miterlimit="10" stroke-linecap="round"/>
<path d="M94.77 256.905V315.488L92.456 316.118V260.894C92.456 260.894 90.5627 258.48 91.2989 256.065L94.77 256.905Z" stroke="#111111" stroke-width="0.5533" stroke-miterlimit="10" stroke-linecap="round"/>
<path d="M87.3029 256.905C86.6718 259.215 88.4599 261.734 88.4599 261.734V316.013L92.3517 316.118" stroke="#111111" stroke-width="0.5533" stroke-miterlimit="10" stroke-linecap="round"/>
<path d="M66.8991 259.949V314.753L65.0058 315.383V263.834C65.0058 263.834 63.4281 261.734 64.0592 259.425L66.8991 259.949Z" stroke="#111111" stroke-width="0.5024" stroke-miterlimit="10" stroke-linecap="round"/>
<path d="M60.7971 259.844C60.2712 262.154 61.7437 264.674 61.7437 264.674V315.278L65.0044 315.383" stroke="#111111" stroke-width="0.5024" stroke-miterlimit="10" stroke-linecap="round"/>
<path d="M45.3365 262.259V314.018L43.5484 314.648V266.039C43.5484 266.039 42.0759 264.044 42.6018 261.839L45.3365 262.259Z" stroke="#111111" stroke-width="0.2339" stroke-miterlimit="10"/>
<path d="M39.4455 262.259C38.9196 264.464 40.3922 266.879 40.3922 266.879V314.543L43.4425 314.648" stroke="#111111" stroke-width="0.2339" stroke-miterlimit="10"/>
<path d="M127.377 312.128L40.3906 310.974" stroke="#111111" stroke-width="0.2339" stroke-miterlimit="10"/>
<path d="M320.285 270.133L170.609 257.43" stroke="#111111" stroke-width="0.3742" stroke-miterlimit="10" stroke-linecap="round"/>
<path d="M378.134 275.068L345.633 272.338" stroke="#111111" stroke-width="0.3742" stroke-miterlimit="10" stroke-linecap="round"/>
<path d="M320.285 271.393L170.609 259.11" stroke="#111111" stroke-width="0.3742" stroke-miterlimit="10" stroke-linecap="round"/>
<path d="M378.134 276.223L345.633 273.493" stroke="#111111" stroke-width="0.3742" stroke-miterlimit="10" stroke-linecap="round"/>
<path d="M170.715 317.273L378.136 310.029V270.028" stroke="#111111" stroke-width="0.3742" stroke-miterlimit="10" stroke-linecap="round"/>
<path d="M217.309 254.805V316.013L219.833 316.643V259.11C219.833 259.11 221.831 256.485 221.095 254.07L217.309 254.805Z" stroke="#111111" stroke-width="0.5866" stroke-miterlimit="10" stroke-linecap="round"/>
<path d="M226.673 254.07C227.409 256.485 225.411 259.845 225.411 259.845V316.433L219.836 316.748" stroke="#111111" stroke-width="0.5866" stroke-miterlimit="10" stroke-linecap="round"/>
<path d="M260.016 258.9V314.333L262.33 314.963V262.889C262.33 262.889 264.118 260.684 263.487 258.48L260.016 258.9Z" stroke="#111111" stroke-width="0.54" stroke-miterlimit="10" stroke-linecap="round"/>
<path d="M267.377 258.795C268.008 260.999 266.22 263.309 266.22 263.309V314.858L262.328 314.963" stroke="#111111" stroke-width="0.54" stroke-miterlimit="10" stroke-linecap="round"/>
<path d="M291.043 261.734V313.283L292.936 313.913V265.514C292.936 265.514 294.514 263.939 293.883 261.629L291.043 261.734Z" stroke="#111111" stroke-width="0.4913" stroke-miterlimit="10" stroke-linecap="round"/>
<path d="M297.145 261.629C297.671 263.834 296.198 265.724 296.198 265.724V313.703L292.938 313.808" stroke="#111111" stroke-width="0.4913" stroke-miterlimit="10" stroke-linecap="round"/>
<path d="M345.633 308.769L378.134 308.034" stroke="#111111" stroke-width="0.2339" stroke-miterlimit="10"/>
<path d="M170.609 312.548L320.285 309.294" stroke="#111111" stroke-width="0.2339" stroke-miterlimit="10"/>
<path d="M34.7109 119.161L163.035 31.3913L372.139 170.605V173.335L163.035 35.3808L34.7109 121.996V119.161Z" stroke="#111111" stroke-width="0.7016" stroke-miterlimit="10" stroke-linecap="round" stroke-linejoin="round"/>
<path d="M34.7109 121.996H39.1286L163.035 40.6302L368.352 173.335H372.139" stroke="#111111" stroke-width="0.3742" stroke-miterlimit="10" stroke-linecap="round"/>
<path d="M163.035 40.6302V230.973" stroke="#111111" stroke-width="0.7016" stroke-miterlimit="10" stroke-linecap="round"/>
<path d="M39.1289 121.996V249.661" stroke="#111111" stroke-width="0.3742" stroke-miterlimit="10" stroke-linecap="round"/>
<path d="M368.355 173.335V259.215" stroke="#111111" stroke-width="0.3742" stroke-miterlimit="10" stroke-linecap="round"/>
<path d="M63.1133 102.888V246.091" stroke="#111111" stroke-width="0.3742" stroke-miterlimit="10" stroke-linecap="round"/>
<path d="M66.2695 245.671V100.683L69.1095 102.363V245.251" stroke="#111111" stroke-width="0.3742" stroke-miterlimit="10" stroke-linecap="round"/>
<path d="M34.7109 122.101V250.186" stroke="#111111" stroke-width="0.7016" stroke-miterlimit="10" stroke-linecap="round"/>
<path d="M37.9727 249.766V120.001L40.7074 120.946V249.136" stroke="#111111" stroke-width="0.3742" stroke-miterlimit="10" stroke-linecap="round"/>
<path d="M88.8828 85.355V242.312" stroke="#111111" stroke-width="0.6766" stroke-miterlimit="10" stroke-linecap="round"/>
<path d="M93.0898 241.682V82.6253L96.6661 84.2001V241.157" stroke="#111111" stroke-width="0.6766" stroke-miterlimit="10" stroke-linecap="round"/>
<path d="M120.648 63.9375V237.167" stroke="#111111" stroke-width="0.6766" stroke-miterlimit="10" stroke-linecap="round"/>
<path d="M124.75 236.957V61.2078L128.326 63.4126V236.432" stroke="#111111" stroke-width="0.6766" stroke-miterlimit="10" stroke-linecap="round"/>
<path d="M296.934 123.57V249.346" stroke="#111111" stroke-width="0.3742" stroke-miterlimit="10" stroke-linecap="round"/>
<path d="M293.672 248.926V121.471L290.938 123.36V248.611" stroke="#111111" stroke-width="0.3742" stroke-miterlimit="10" stroke-linecap="round"/>
<path d="M325.23 142.153V253.23" stroke="#111111" stroke-width="0.3742" stroke-miterlimit="10" stroke-linecap="round"/>
<path d="M322.074 252.81V140.264L319.234 141.523V252.39" stroke="#111111" stroke-width="0.3742" stroke-miterlimit="10" stroke-linecap="round"/>
<path d="M345.633 155.487V256.065" stroke="#111111" stroke-width="0.3742" stroke-miterlimit="10" stroke-linecap="round"/>
<path d="M342.477 255.645V153.597L339.742 154.857V255.225" stroke="#111111" stroke-width="0.3742" stroke-miterlimit="10" stroke-linecap="round"/>
<path d="M372.141 173.02V259.844" stroke="#111111" stroke-width="0.7016" stroke-miterlimit="10" stroke-linecap="round"/>
<path d="M368.985 259.32V171.13L366.25 172.39V259.11" stroke="#111111" stroke-width="0.3742" stroke-miterlimit="10" stroke-linecap="round"/>
<path d="M265.066 102.678V244.936" stroke="#111111" stroke-width="0.6766" stroke-miterlimit="10" stroke-linecap="round"/>
<path d="M260.963 244.411V99.9482L257.281 101.523V243.886" stroke="#111111" stroke-width="0.6766" stroke-miterlimit="10" stroke-linecap="round"/>
<path d="M225.094 76.326V239.477" stroke="#111111" stroke-width="0.6766" stroke-miterlimit="10" stroke-linecap="round"/>
<path d="M220.885 238.847V73.5963L217.309 75.8011V238.427" stroke="#111111" stroke-width="0.6766" stroke-miterlimit="10" stroke-linecap="round"/>
<path d="M360.465 268.349V310.764L362.253 311.393V272.443C362.253 272.443 363.726 270.868 363.2 268.663L360.465 268.349Z" stroke="#111111" stroke-width="0.2339" stroke-miterlimit="10"/>
<path d="M366.251 268.768C366.882 271.183 365.304 272.548 365.304 272.548V311.183L362.254 311.288" stroke="#111111" stroke-width="0.2339" stroke-miterlimit="10"/>
<path d="M61.7445 278.322L45.3359 279.162" stroke="#111111" stroke-width="0.2339" stroke-miterlimit="10"/>
<path d="M61.7445 303.099L45.3359 302.679" stroke="#111111" stroke-width="0.2339" stroke-miterlimit="10"/>
<path d="M61.7445 304.464H45.3359" stroke="#111111" stroke-width="0.2339" stroke-miterlimit="10"/>
<path d="M47.2305 279.162V302.784" stroke="#111111" stroke-width="0.2339" stroke-miterlimit="10"/>
<path d="M66.8984 302.889L88.5662 302.784" stroke="#111111" stroke-width="0.2339" stroke-miterlimit="10"/>
<path d="M66.8984 304.149H88.5662" stroke="#111111" stroke-width="0.2339" stroke-miterlimit="10"/>
<path d="M66.8984 277.902L88.5662 277.062" stroke="#111111" stroke-width="0.2339" stroke-miterlimit="10"/>
<path d="M69.3164 277.797L69.4216 302.889" stroke="#111111" stroke-width="0.2339" stroke-miterlimit="10"/>
<path d="M94.7734 276.853L119.597 276.223" stroke="#111111" stroke-width="0.2339" stroke-miterlimit="10"/>
<path d="M94.7734 302.469L118.966 302.365" stroke="#111111" stroke-width="0.2339" stroke-miterlimit="10"/>
<path d="M94.7734 303.834L119.281 303.729" stroke="#111111" stroke-width="0.2339" stroke-miterlimit="10"/>
<path d="M97.1914 276.748V302.155" stroke="#111111" stroke-width="0.2339" stroke-miterlimit="10"/>
<path d="M127.379 275.488L156.304 275.068" stroke="#111111" stroke-width="0.2339" stroke-miterlimit="10"/>
<path d="M140.527 275.278V316.853" stroke="#111111" stroke-width="0.2339" stroke-miterlimit="10"/>
<path d="M129.48 277.482H138.526V305.514H130.006L129.48 277.482Z" stroke="#111111" stroke-width="0.2339" stroke-miterlimit="10"/>
<path d="M142.211 277.482V305.514H154.307V277.167L142.211 277.482Z" stroke="#111111" stroke-width="0.2339" stroke-miterlimit="10"/>
<path d="M217.311 307.089L170.609 308.034" stroke="#111111" stroke-width="0.2339" stroke-miterlimit="10"/>
<path d="M170.715 305.514L217.311 304.779" stroke="#111111" stroke-width="0.2339" stroke-miterlimit="10"/>
<path d="M170.715 274.333L217.311 275.068" stroke="#111111" stroke-width="0.2339" stroke-miterlimit="10"/>
<path d="M215.312 274.648V304.779" stroke="#111111" stroke-width="0.2339" stroke-miterlimit="10"/>
<path d="M225.41 275.068L259.7 276.223" stroke="#111111" stroke-width="0.2339" stroke-miterlimit="10"/>
<path d="M225.41 304.464L260.015 304.254" stroke="#111111" stroke-width="0.2339" stroke-miterlimit="10"/>
<path d="M225.41 306.354L260.015 306.144" stroke="#111111" stroke-width="0.2339" stroke-miterlimit="10"/>
<path d="M257.805 276.223V304.254" stroke="#111111" stroke-width="0.2339" stroke-miterlimit="10"/>
<path d="M266.219 304.254H291.042" stroke="#111111" stroke-width="0.2339" stroke-miterlimit="10"/>
<path d="M266.219 306.354L291.042 306.144" stroke="#111111" stroke-width="0.2339" stroke-miterlimit="10"/>
<path d="M266.219 276.223L291.042 276.853" stroke="#111111" stroke-width="0.2339" stroke-miterlimit="10"/>
<path d="M289.465 276.853V304.254" stroke="#111111" stroke-width="0.2339" stroke-miterlimit="10"/>
<path d="M320.285 264.464V312.023" stroke="#111111" stroke-width="0.3742" stroke-miterlimit="10" stroke-linecap="round"/>
<path d="M345.633 266.669V311.183" stroke="#111111" stroke-width="0.3742" stroke-miterlimit="10" stroke-linecap="round"/>
<path d="M324.703 311.918V269.503L341.953 270.868V311.184" stroke="#111111" stroke-width="0.2339" stroke-miterlimit="10"/>
<path d="M296.199 304.254H320.286" stroke="#111111" stroke-width="0.2339" stroke-miterlimit="10"/>
<path d="M296.199 306.144L320.286 305.829" stroke="#111111" stroke-width="0.2339" stroke-miterlimit="10"/>
<path d="M296.199 276.853L320.286 278.007" stroke="#111111" stroke-width="0.2339" stroke-miterlimit="10"/>
<path d="M318.602 277.902V304.254" stroke="#111111" stroke-width="0.2339" stroke-miterlimit="10"/>
<path d="M345.633 279.267L360.464 279.897" stroke="#111111" stroke-width="0.2339" stroke-miterlimit="10"/>
<path d="M345.633 303.414H360.464" stroke="#111111" stroke-width="0.2339" stroke-miterlimit="10"/>
<path d="M345.633 304.674L360.464 304.464" stroke="#111111" stroke-width="0.2339" stroke-miterlimit="10"/>
<path d="M358.887 279.897V303.204" stroke="#111111" stroke-width="0.2339" stroke-miterlimit="10"/>
<path d="M57.2227 125.775V146.458" stroke="#111111" stroke-width="0.3742" stroke-miterlimit="10" stroke-linecap="round"/>
<path d="M57.2227 155.697V176.379" stroke="#111111" stroke-width="0.3742" stroke-miterlimit="10" stroke-linecap="round"/>
<path d="M57.2227 188.243V208.925" stroke="#111111" stroke-width="0.3742" stroke-miterlimit="10" stroke-linecap="round"/>
<path d="M57.2227 218.374V239.057" stroke="#111111" stroke-width="0.3742" stroke-miterlimit="10" stroke-linecap="round"/>
<path d="M339.742 311.393V270.658" stroke="#111111" stroke-width="0.2339" stroke-miterlimit="10"/>
<path d="M174.499 263.309L174.078 271.393L212.996 272.128V264.989L174.499 263.309Z" stroke="#111111" stroke-width="0.2339" stroke-miterlimit="10"/>
<path d="M152.936 263.309V271.393C152.936 271.393 130.427 272.338 130.743 272.023C131.058 271.708 130.532 265.514 130.743 265.199C130.953 264.989 152.936 263.309 152.936 263.309Z" stroke="#111111" stroke-width="0.2339" stroke-miterlimit="10"/>
<path d="M116.017 273.598L97.8203 274.648V266.984L116.017 264.464V273.598Z" stroke="#111111" stroke-width="0.2339" stroke-miterlimit="10"/>
<path d="M85.5141 274.648L69.3158 275.278L69.1055 268.664L85.5141 267.719V274.648Z" stroke="#111111" stroke-width="0.2339" stroke-miterlimit="10"/>
<path d="M59.4309 276.748L47.2296 277.168L46.9141 270.868L59.4309 269.608V276.748Z" stroke="#111111" stroke-width="0.2339" stroke-miterlimit="10"/>
<path d="M227.617 272.128L257.279 273.493V268.663L227.617 266.249V272.128Z" stroke="#111111" stroke-width="0.2339" stroke-miterlimit="10"/>
<path d="M269.375 273.703L288.624 274.648V270.658L269.375 269.503V273.703Z" stroke="#111111" stroke-width="0.2339" stroke-miterlimit="10"/>
<path d="M298.301 275.068L317.655 276.223V272.863L298.301 271.393V275.068Z" stroke="#111111" stroke-width="0.2339" stroke-miterlimit="10"/>
<path d="M347.316 277.902L358.466 278.637V276.223L347.316 275.593V277.902Z" stroke="#111111" stroke-width="0.2339" stroke-miterlimit="10"/>
<path d="M305.982 126.51V116.326L297.777 108.557V121.051" stroke="#111111" stroke-width="0.3742" stroke-miterlimit="10" stroke-linecap="round"/>
<path d="M297.774 108.557L289.465 115.066" stroke="#111111" stroke-width="0.3742" stroke-miterlimit="10" stroke-linecap="round"/>
<path d="M63.1125 122.101L55.6445 126.615V147.193L63.1125 143.728" stroke="#111111" stroke-width="0.2339" stroke-miterlimit="10" stroke-linecap="round"/>
<path d="M51.0168 149.397V128.925L42.8125 133.229V153.072L51.0168 149.397Z" stroke="#111111" stroke-width="0.2339" stroke-miterlimit="10" stroke-linecap="round"/>
<path d="M44.2852 132.494V152.442" stroke="#111111" stroke-width="0.2339" stroke-miterlimit="10" stroke-linecap="round"/>
<path d="M88.8821 106.982L81.4141 111.707V134.069L88.8821 130.29" stroke="#111111" stroke-width="0.2339" stroke-miterlimit="10" stroke-linecap="round"/>
<path d="M79.6273 112.652V134.909L71.8438 138.374V117.376L79.6273 112.652Z" stroke="#111111" stroke-width="0.2339" stroke-miterlimit="10" stroke-linecap="round"/>
<path d="M73.1055 116.641V137.849" stroke="#111111" stroke-width="0.2339" stroke-miterlimit="10" stroke-linecap="round"/>
<path d="M82.8867 110.762V133.334" stroke="#111111" stroke-width="0.2339" stroke-miterlimit="10" stroke-linecap="round"/>
<path d="M107.501 96.0637L97.8242 102.048V125.46L107.922 120.001L107.501 96.0637Z" stroke="#111111" stroke-width="0.2339" stroke-miterlimit="10" stroke-linecap="round"/>
<path d="M120.651 113.597L109.922 118.951V94.4889L120.651 87.8747" stroke="#111111" stroke-width="0.2339" stroke-miterlimit="10" stroke-linecap="round"/>
<path d="M98.9805 101.313V124.725" stroke="#111111" stroke-width="0.2339" stroke-miterlimit="10" stroke-linecap="round"/>
<path d="M111.289 93.649V118.216" stroke="#111111" stroke-width="0.2339" stroke-miterlimit="10" stroke-linecap="round"/>
<path d="M130.746 81.7854V108.242L140.528 102.888V75.5911L130.746 81.7854Z" stroke="#111111" stroke-width="0.2339" stroke-miterlimit="10" stroke-linecap="round"/>
<path d="M155.464 94.384L143.578 101.103V73.4914L155.464 65.4073V94.384Z" stroke="#111111" stroke-width="0.2339" stroke-miterlimit="10" stroke-linecap="round"/>
<path d="M132.008 81.0505V107.717" stroke="#111111" stroke-width="0.2339" stroke-miterlimit="10" stroke-linecap="round"/>
<path d="M144.629 72.7565V100.473" stroke="#111111" stroke-width="0.2339" stroke-miterlimit="10" stroke-linecap="round"/>
<path d="M63.1125 152.862L55.6445 156.432V177.009L63.1125 174.385" stroke="#111111" stroke-width="0.2339" stroke-miterlimit="10" stroke-linecap="round"/>
<path d="M51.0168 178.584V158.216L42.8125 161.471V181.314L51.0168 178.584Z" stroke="#111111" stroke-width="0.2339" stroke-miterlimit="10" stroke-linecap="round"/>
<path d="M44.2852 160.946V180.894" stroke="#111111" stroke-width="0.2339" stroke-miterlimit="10" stroke-linecap="round"/>
<path d="M88.8821 140.683L81.4141 144.568V166.93L88.8821 163.991" stroke="#111111" stroke-width="0.2339" stroke-miterlimit="10" stroke-linecap="round"/>
<path d="M79.6273 145.303V167.56L71.8438 170.08V149.187L79.6273 145.303Z" stroke="#111111" stroke-width="0.2339" stroke-miterlimit="10" stroke-linecap="round"/>
<path d="M73.1055 148.558V169.66" stroke="#111111" stroke-width="0.2339" stroke-miterlimit="10" stroke-linecap="round"/>
<path d="M82.8867 143.833V166.405" stroke="#111111" stroke-width="0.2339" stroke-miterlimit="10" stroke-linecap="round"/>
<path d="M107.501 132.075L97.8242 136.799V160.316L107.922 156.012L107.501 132.075Z" stroke="#111111" stroke-width="0.2339" stroke-miterlimit="10" stroke-linecap="round"/>
<path d="M120.651 151.077L109.922 155.277V130.815L120.651 125.46" stroke="#111111" stroke-width="0.2339" stroke-miterlimit="10" stroke-linecap="round"/>
<path d="M98.9805 136.274V159.686" stroke="#111111" stroke-width="0.2339" stroke-miterlimit="10" stroke-linecap="round"/>
<path d="M111.289 130.185V154.647" stroke="#111111" stroke-width="0.2339" stroke-miterlimit="10" stroke-linecap="round"/>
<path d="M130.746 120.526V146.983L140.528 142.783V115.486L130.746 120.526Z" stroke="#111111" stroke-width="0.2339" stroke-miterlimit="10" stroke-linecap="round"/>
<path d="M155.464 136.064L143.578 141.418V113.807L155.464 107.192V136.064Z" stroke="#111111" stroke-width="0.2339" stroke-miterlimit="10" stroke-linecap="round"/>
<path d="M132.008 119.896V146.668" stroke="#111111" stroke-width="0.2339" stroke-miterlimit="10" stroke-linecap="round"/>
<path d="M144.629 113.177V140.789" stroke="#111111" stroke-width="0.2339" stroke-miterlimit="10" stroke-linecap="round"/>
<path d="M63.1125 186.248L55.6445 188.768V209.345L63.1125 207.876" stroke="#111111" stroke-width="0.2339" stroke-miterlimit="10" stroke-linecap="round"/>
<path d="M51.0168 210.185V189.713L42.8125 191.813V211.655L51.0168 210.185Z" stroke="#111111" stroke-width="0.2339" stroke-miterlimit="10" stroke-linecap="round"/>
<path d="M44.2852 191.393V211.445" stroke="#111111" stroke-width="0.2339" stroke-miterlimit="10" stroke-linecap="round"/>
<path d="M88.8821 178.164L81.4141 180.894V203.256L88.8821 201.471" stroke="#111111" stroke-width="0.2339" stroke-miterlimit="10" stroke-linecap="round"/>
<path d="M79.6273 181.314V203.571L71.8438 204.936V183.938L79.6273 181.314Z" stroke="#111111" stroke-width="0.2339" stroke-miterlimit="10" stroke-linecap="round"/>
<path d="M73.1055 183.518V204.726" stroke="#111111" stroke-width="0.2339" stroke-miterlimit="10" stroke-linecap="round"/>
<path d="M82.8867 180.369V202.941" stroke="#111111" stroke-width="0.2339" stroke-miterlimit="10" stroke-linecap="round"/>
<path d="M107.501 172.39L97.8242 175.749V199.162L107.922 196.432L107.501 172.39Z" stroke="#111111" stroke-width="0.2339" stroke-miterlimit="10" stroke-linecap="round"/>
<path d="M120.651 193.597L109.922 196.012V171.55L120.651 167.875" stroke="#111111" stroke-width="0.2339" stroke-miterlimit="10" stroke-linecap="round"/>
<path d="M98.9805 175.329V198.742" stroke="#111111" stroke-width="0.2339" stroke-miterlimit="10" stroke-linecap="round"/>
<path d="M111.289 171.13V195.592" stroke="#111111" stroke-width="0.2339" stroke-miterlimit="10" stroke-linecap="round"/>
<path d="M130.746 164.621V190.973L140.528 188.348V161.051L130.746 164.621Z" stroke="#111111" stroke-width="0.2339" stroke-miterlimit="10" stroke-linecap="round"/>
<path d="M155.464 183.938L143.578 187.403V159.791L155.464 155.067V183.938Z" stroke="#111111" stroke-width="0.2339" stroke-miterlimit="10" stroke-linecap="round"/>
<path d="M132.008 164.096V190.868" stroke="#111111" stroke-width="0.2339" stroke-miterlimit="10" stroke-linecap="round"/>
<path d="M144.629 159.371V186.983" stroke="#111111" stroke-width="0.2339" stroke-miterlimit="10" stroke-linecap="round"/>
<path d="M63.1125 216.485L55.6445 218.899V239.477L63.1125 238.112" stroke="#111111" stroke-width="0.2339" stroke-miterlimit="10" stroke-linecap="round"/>
<path d="M51.0168 240.212V219.739L42.8125 221.629V241.472L51.0168 240.212Z" stroke="#111111" stroke-width="0.2339" stroke-miterlimit="10" stroke-linecap="round"/>
<path d="M44.2852 221.314V241.367" stroke="#111111" stroke-width="0.2339" stroke-miterlimit="10" stroke-linecap="round"/>
<path d="M88.8821 211.445L81.4141 213.755V236.117L88.8821 234.752" stroke="#111111" stroke-width="0.2339" stroke-miterlimit="10" stroke-linecap="round"/>
<path d="M79.6273 214.175V236.432L71.8438 237.377V216.38L79.6273 214.175Z" stroke="#111111" stroke-width="0.2339" stroke-miterlimit="10" stroke-linecap="round"/>
<path d="M73.1055 216.065V237.167" stroke="#111111" stroke-width="0.2339" stroke-miterlimit="10" stroke-linecap="round"/>
<path d="M82.8867 213.335V235.907" stroke="#111111" stroke-width="0.2339" stroke-miterlimit="10" stroke-linecap="round"/>
<path d="M107.501 207.981L97.8242 210.29V233.808L107.922 232.128L107.501 207.981Z" stroke="#111111" stroke-width="0.2339" stroke-miterlimit="10" stroke-linecap="round"/>
<path d="M120.651 230.448L109.922 231.813V207.351L120.651 204.831" stroke="#111111" stroke-width="0.2339" stroke-miterlimit="10" stroke-linecap="round"/>
<path d="M98.9805 210.08V233.493" stroke="#111111" stroke-width="0.2339" stroke-miterlimit="10" stroke-linecap="round"/>
<path d="M111.289 207.036V231.603" stroke="#111111" stroke-width="0.2339" stroke-miterlimit="10" stroke-linecap="round"/>
<path d="M130.746 202.521V228.873L140.528 227.298V200.002L130.746 202.521Z" stroke="#111111" stroke-width="0.2339" stroke-miterlimit="10" stroke-linecap="round"/>
<path d="M155.464 224.359L143.578 226.668V199.057L155.464 195.487V224.359Z" stroke="#111111" stroke-width="0.2339" stroke-miterlimit="10" stroke-linecap="round"/>
<path d="M132.008 202.206V228.873" stroke="#111111" stroke-width="0.2339" stroke-miterlimit="10" stroke-linecap="round"/>
<path d="M144.629 198.742V226.353" stroke="#111111" stroke-width="0.2339" stroke-miterlimit="10" stroke-linecap="round"/>
<path d="M241.819 103.623L254.546 111.917L254.757 134.279L241.398 126.51L241.819 103.623Z" stroke="#111111" stroke-width="0.2339" stroke-miterlimit="10" stroke-linecap="round"/>
<path d="M224.781 117.061L238.771 125.145L238.56 101.313L225.097 92.0742" stroke="#111111" stroke-width="0.2339" stroke-miterlimit="10" stroke-linecap="round"/>
<path d="M252.969 110.972L253.179 133.229" stroke="#111111" stroke-width="0.2339" stroke-miterlimit="10" stroke-linecap="round"/>
<path d="M236.773 100.158L236.984 123.99" stroke="#111111" stroke-width="0.2339" stroke-miterlimit="10" stroke-linecap="round"/>
<path d="M242.135 138.374L254.862 144.988L255.073 167.245L241.609 161.471L242.135 138.374Z" stroke="#111111" stroke-width="0.2339" stroke-miterlimit="10" stroke-linecap="round"/>
<path d="M224.992 154.332L239.086 160.316L238.876 136.589L224.781 128.82" stroke="#111111" stroke-width="0.2339" stroke-miterlimit="10" stroke-linecap="round"/>
<path d="M253.285 144.148L253.496 166.51" stroke="#111111" stroke-width="0.2339" stroke-miterlimit="10" stroke-linecap="round"/>
<path d="M237.086 135.644L237.296 159.581" stroke="#111111" stroke-width="0.2339" stroke-miterlimit="10" stroke-linecap="round"/>
<path d="M242.448 177.429L255.175 181.839L255.28 204.201L241.922 200.631L242.448 177.429Z" stroke="#111111" stroke-width="0.2339" stroke-miterlimit="10" stroke-linecap="round"/>
<path d="M225.41 196.432L239.399 200.002L239.189 176.274L225.199 171.025" stroke="#111111" stroke-width="0.2339" stroke-miterlimit="10" stroke-linecap="round"/>
<path d="M253.598 181.314L253.808 203.571" stroke="#111111" stroke-width="0.2339" stroke-miterlimit="10" stroke-linecap="round"/>
<path d="M237.402 175.644L237.613 199.477" stroke="#111111" stroke-width="0.2339" stroke-miterlimit="10" stroke-linecap="round"/>
<path d="M296.934 137.009L304.191 141.838V160.211L296.934 156.327" stroke="#111111" stroke-width="0.2339" stroke-miterlimit="10" stroke-linecap="round"/>
<path d="M308.715 162.626V144.358L316.814 149.082V166.72L308.715 162.626Z" stroke="#111111" stroke-width="0.2339" stroke-miterlimit="10" stroke-linecap="round"/>
<path d="M315.34 148.243V165.986" stroke="#111111" stroke-width="0.2339" stroke-miterlimit="10" stroke-linecap="round"/>
<path d="M302.719 140.893V159.371" stroke="#111111" stroke-width="0.2339" stroke-miterlimit="10" stroke-linecap="round"/>
<path d="M296.934 164.516L304.191 168.505V186.878L296.934 183.938" stroke="#111111" stroke-width="0.2339" stroke-miterlimit="10" stroke-linecap="round"/>
<path d="M308.715 188.768V170.5L316.814 174.175V191.813L308.715 188.768Z" stroke="#111111" stroke-width="0.2339" stroke-miterlimit="10" stroke-linecap="round"/>
<path d="M315.34 173.545V191.288" stroke="#111111" stroke-width="0.2339" stroke-miterlimit="10" stroke-linecap="round"/>
<path d="M302.719 167.665V186.248" stroke="#111111" stroke-width="0.2339" stroke-miterlimit="10" stroke-linecap="round"/>
<path d="M296.934 194.647L304.191 197.377V215.855L296.934 213.965" stroke="#111111" stroke-width="0.2339" stroke-miterlimit="10" stroke-linecap="round"/>
<path d="M308.715 216.904V198.637L316.814 201.051V218.689L308.715 216.904Z" stroke="#111111" stroke-width="0.2339" stroke-miterlimit="10" stroke-linecap="round"/>
<path d="M315.34 200.631V218.479" stroke="#111111" stroke-width="0.2339" stroke-miterlimit="10" stroke-linecap="round"/>
<path d="M302.719 196.852V215.435" stroke="#111111" stroke-width="0.2339" stroke-miterlimit="10" stroke-linecap="round"/>
<path d="M296.934 221.839L304.191 224.359V242.837L296.934 241.157" stroke="#111111" stroke-width="0.2339" stroke-miterlimit="10" stroke-linecap="round"/>
<path d="M308.715 243.676V225.514L316.814 227.613V245.251L308.715 243.676Z" stroke="#111111" stroke-width="0.2339" stroke-miterlimit="10" stroke-linecap="round"/>
<path d="M315.34 227.193V245.041" stroke="#111111" stroke-width="0.2339" stroke-miterlimit="10" stroke-linecap="round"/>
<path d="M302.719 223.834V242.417" stroke="#111111" stroke-width="0.2339" stroke-miterlimit="10" stroke-linecap="round"/>
<path d="M325.23 155.277L329.964 158.426V174.7L325.23 172.285" stroke="#111111" stroke-width="0.2339" stroke-miterlimit="10" stroke-linecap="round"/>
<path d="M332.91 176.274V160.001L338.275 163.151V179.004L332.91 176.274Z" stroke="#111111" stroke-width="0.2339" stroke-miterlimit="10" stroke-linecap="round"/>
<path d="M337.328 162.521V178.584" stroke="#111111" stroke-width="0.2339" stroke-miterlimit="10" stroke-linecap="round"/>
<path d="M329.016 157.692V174.175" stroke="#111111" stroke-width="0.2339" stroke-miterlimit="10" stroke-linecap="round"/>
<path d="M325.23 179.529L329.964 182.049V198.427L325.23 196.642" stroke="#111111" stroke-width="0.2339" stroke-miterlimit="10" stroke-linecap="round"/>
<path d="M332.91 199.582V183.308L338.275 185.723V201.576L332.91 199.582Z" stroke="#111111" stroke-width="0.2339" stroke-miterlimit="10" stroke-linecap="round"/>
<path d="M337.328 185.303V201.261" stroke="#111111" stroke-width="0.2339" stroke-miterlimit="10" stroke-linecap="round"/>
<path d="M329.016 181.524V198.007" stroke="#111111" stroke-width="0.2339" stroke-miterlimit="10" stroke-linecap="round"/>
<path d="M325.23 205.986L329.964 207.771V224.149L325.23 223.099" stroke="#111111" stroke-width="0.2339" stroke-miterlimit="10" stroke-linecap="round"/>
<path d="M332.91 224.674V208.401L338.275 209.87V225.828L332.91 224.674Z" stroke="#111111" stroke-width="0.2339" stroke-miterlimit="10" stroke-linecap="round"/>
<path d="M337.328 209.66V225.619" stroke="#111111" stroke-width="0.2339" stroke-miterlimit="10" stroke-linecap="round"/>
<path d="M329.016 207.351V223.834" stroke="#111111" stroke-width="0.2339" stroke-miterlimit="10" stroke-linecap="round"/>
<path d="M325.23 229.923L329.964 231.708V248.086L325.23 247.036" stroke="#111111" stroke-width="0.2339" stroke-miterlimit="10" stroke-linecap="round"/>
<path d="M332.91 248.611V232.338L338.275 233.808V249.661L332.91 248.611Z" stroke="#111111" stroke-width="0.2339" stroke-miterlimit="10" stroke-linecap="round"/>
<path d="M337.328 233.493V249.556" stroke="#111111" stroke-width="0.2339" stroke-miterlimit="10" stroke-linecap="round"/>
<path d="M329.016 231.288V247.771" stroke="#111111" stroke-width="0.2339" stroke-miterlimit="10" stroke-linecap="round"/>
<path d="M345.742 165.041L352.579 169.975V184.988L345.742 180.999" stroke="#111111" stroke-width="0.2339" stroke-miterlimit="10" stroke-linecap="round"/>
<path d="M356.785 187.403V172.6L364.358 177.324V191.498L356.785 187.403Z" stroke="#111111" stroke-width="0.2339" stroke-miterlimit="10" stroke-linecap="round"/>
<path d="M362.992 176.484V190.763" stroke="#111111" stroke-width="0.2339" stroke-miterlimit="10" stroke-linecap="round"/>
<path d="M351.105 168.925V184.148" stroke="#111111" stroke-width="0.2339" stroke-miterlimit="10" stroke-linecap="round"/>
<path d="M345.742 187.718L352.579 191.708V206.721L345.742 203.676" stroke="#111111" stroke-width="0.2339" stroke-miterlimit="10" stroke-linecap="round"/>
<path d="M356.785 208.506V193.702L364.358 197.377V211.55L356.785 208.506Z" stroke="#111111" stroke-width="0.2339" stroke-miterlimit="10" stroke-linecap="round"/>
<path d="M362.992 196.747V211.025" stroke="#111111" stroke-width="0.2339" stroke-miterlimit="10" stroke-linecap="round"/>
<path d="M351.105 190.868V206.091" stroke="#111111" stroke-width="0.2339" stroke-miterlimit="10" stroke-linecap="round"/>
<path d="M345.742 212.495L352.579 215.225V230.238L345.742 228.453" stroke="#111111" stroke-width="0.2339" stroke-miterlimit="10" stroke-linecap="round"/>
<path d="M356.785 231.288V216.485L364.358 218.899V233.073L356.785 231.288Z" stroke="#111111" stroke-width="0.2339" stroke-miterlimit="10" stroke-linecap="round"/>
<path d="M362.992 218.479V232.758" stroke="#111111" stroke-width="0.2339" stroke-miterlimit="10" stroke-linecap="round"/>
<path d="M351.105 214.7V229.818" stroke="#111111" stroke-width="0.2339" stroke-miterlimit="10" stroke-linecap="round"/>
<path d="M345.742 234.857L352.579 237.167V252.18L345.742 250.921" stroke="#111111" stroke-width="0.2339" stroke-miterlimit="10" stroke-linecap="round"/>
<path d="M356.785 253.02V238.217L364.358 240.107V254.175L356.785 253.02Z" stroke="#111111" stroke-width="0.2339" stroke-miterlimit="10" stroke-linecap="round"/>
<path d="M362.992 239.792V254.07" stroke="#111111" stroke-width="0.2339" stroke-miterlimit="10" stroke-linecap="round"/>
<path d="M351.105 236.747V251.865" stroke="#111111" stroke-width="0.2339" stroke-miterlimit="10" stroke-linecap="round"/>
<path d="M264.75 120.001L275.584 126.825L275.689 147.088L264.855 141.418" stroke="#111111" stroke-width="0.2339" stroke-miterlimit="10" stroke-linecap="round"/>
<path d="M278.215 128.19V148.348L289.469 153.597V134.909L278.215 128.19Z" stroke="#111111" stroke-width="0.2339" stroke-miterlimit="10" stroke-linecap="round"/>
<path d="M287.68 133.859L287.785 152.757" stroke="#111111" stroke-width="0.2339" stroke-miterlimit="10" stroke-linecap="round"/>
<path d="M273.586 125.46L273.691 146.038" stroke="#111111" stroke-width="0.2339" stroke-miterlimit="10" stroke-linecap="round"/>
<path d="M264.855 151.077L275.689 156.642L275.795 176.904L264.961 172.495" stroke="#111111" stroke-width="0.2339" stroke-miterlimit="10" stroke-linecap="round"/>
<path d="M278.32 157.691V177.849L289.575 181.734V163.151L278.32 157.691Z" stroke="#111111" stroke-width="0.2339" stroke-miterlimit="10" stroke-linecap="round"/>
<path d="M287.785 162.311V181.104" stroke="#111111" stroke-width="0.2339" stroke-miterlimit="10" stroke-linecap="round"/>
<path d="M273.691 155.592L273.797 176.064" stroke="#111111" stroke-width="0.2339" stroke-miterlimit="10" stroke-linecap="round"/>
<path d="M265.066 185.513L275.9 189.503V209.765L265.066 206.931" stroke="#111111" stroke-width="0.2339" stroke-miterlimit="10" stroke-linecap="round"/>
<path d="M278.426 190.238V210.395L289.68 212.705V194.122L278.426 190.238Z" stroke="#111111" stroke-width="0.2339" stroke-miterlimit="10" stroke-linecap="round"/>
<path d="M287.891 193.492L287.996 212.39" stroke="#111111" stroke-width="0.2339" stroke-miterlimit="10" stroke-linecap="round"/>
<path d="M273.797 188.768L273.902 209.24" stroke="#111111" stroke-width="0.2339" stroke-miterlimit="10" stroke-linecap="round"/>
<path d="M265.172 216.17L276.006 219.319V239.582L265.172 237.587" stroke="#111111" stroke-width="0.2339" stroke-miterlimit="10" stroke-linecap="round"/>
<path d="M278.531 219.844V240.002L289.786 241.472V222.889L278.531 219.844Z" stroke="#111111" stroke-width="0.2339" stroke-miterlimit="10" stroke-linecap="round"/>
<path d="M287.996 222.469L288.101 241.262" stroke="#111111" stroke-width="0.2339" stroke-miterlimit="10" stroke-linecap="round"/>
<path d="M273.902 218.689L274.008 239.267" stroke="#111111" stroke-width="0.2339" stroke-miterlimit="10" stroke-linecap="round"/>
<path d="M242.764 211.865L255.386 214.7L255.597 236.957L242.238 235.172L242.764 211.865Z" stroke="#111111" stroke-width="0.2339" stroke-miterlimit="10" stroke-linecap="round"/>
<path d="M225.726 233.178L239.715 234.857L239.505 211.025L225.516 207.666" stroke="#111111" stroke-width="0.2339" stroke-miterlimit="10" stroke-linecap="round"/>
<path d="M253.914 214.385L254.019 236.642" stroke="#111111" stroke-width="0.2339" stroke-miterlimit="10" stroke-linecap="round"/>
<path d="M237.719 210.605L237.929 234.543" stroke="#111111" stroke-width="0.2339" stroke-miterlimit="10" stroke-linecap="round"/>
<path d="M214.683 89.5545L214.788 115.067L198.801 106.772L198.695 79.8956L214.683 89.5545Z" stroke="#111111" stroke-width="0.2339" stroke-miterlimit="10" stroke-linecap="round"/>
<path d="M174.293 93.2291L193.857 104.043V76.746L174.293 63.9375V93.2291Z" stroke="#111111" stroke-width="0.2339" stroke-miterlimit="10" stroke-linecap="round"/>
<path d="M212.789 88.3997L212.894 114.227" stroke="#111111" stroke-width="0.2339" stroke-miterlimit="10" stroke-linecap="round"/>
<path d="M192.07 75.6961L192.175 102.993" stroke="#111111" stroke-width="0.2339" stroke-miterlimit="10" stroke-linecap="round"/>
<path d="M214.789 126.93L214.894 152.442L198.906 146.038L198.801 119.161L214.789 126.93Z" stroke="#111111" stroke-width="0.2339" stroke-miterlimit="10" stroke-linecap="round"/>
<path d="M174.398 135.434L193.962 143.938L193.857 116.641L174.293 106.143L174.398 135.434Z" stroke="#111111" stroke-width="0.2339" stroke-miterlimit="10" stroke-linecap="round"/>
<path d="M212.895 125.985V151.812" stroke="#111111" stroke-width="0.2339" stroke-miterlimit="10" stroke-linecap="round"/>
<path d="M192.176 115.696L192.281 143.098" stroke="#111111" stroke-width="0.2339" stroke-miterlimit="10" stroke-linecap="round"/>
<path d="M214.894 169.45L214.999 194.857L199.011 190.868L198.906 163.991L214.894 169.45Z" stroke="#111111" stroke-width="0.2339" stroke-miterlimit="10" stroke-linecap="round"/>
<path d="M174.504 183.833L194.068 189.398L193.963 162.101L174.398 154.647L174.504 183.833Z" stroke="#111111" stroke-width="0.2339" stroke-miterlimit="10" stroke-linecap="round"/>
<path d="M213 168.82V194.647" stroke="#111111" stroke-width="0.2339" stroke-miterlimit="10" stroke-linecap="round"/>
<path d="M192.281 161.471L192.386 188.873" stroke="#111111" stroke-width="0.2339" stroke-miterlimit="10" stroke-linecap="round"/>
<path d="M215 205.986V231.498L199.012 229.083V202.311L215 205.986Z" stroke="#111111" stroke-width="0.2339" stroke-miterlimit="10" stroke-linecap="round"/>
<path d="M174.609 224.779L194.173 228.243L194.068 200.946L174.504 195.487L174.609 224.779Z" stroke="#111111" stroke-width="0.2339" stroke-miterlimit="10" stroke-linecap="round"/>
<path d="M213 205.566L213.105 231.393" stroke="#111111" stroke-width="0.2339" stroke-miterlimit="10" stroke-linecap="round"/>
<path d="M192.387 200.422V227.823" stroke="#111111" stroke-width="0.2339" stroke-miterlimit="10" stroke-linecap="round"/>
<g opacity="0.5">
<path d="M7.36328 125.775C7.36328 125.775 17.7764 117.901 33.3436 105.933C48.8055 94.069 69.6318 78.3208 90.4581 62.5727C111.284 46.9295 132.216 31.2863 147.888 19.5277C163.561 7.76909 174.079 0 174.079 0C174.079 0 163.666 7.87408 148.099 19.8427C132.531 31.6013 111.705 47.3494 90.8788 63.2026C70.0525 78.8458 49.1211 94.4889 33.4487 106.248C17.7764 117.901 7.36328 125.775 7.36328 125.775Z" fill="#111111"/>
</g>
<g opacity="0.5">
<path d="M120.645 3.14966C120.645 3.14966 138 14.5933 164.085 31.8113C190.171 49.0293 224.881 72.1266 259.592 95.1189C294.302 118.216 328.907 141.313 354.888 158.741C380.868 176.169 398.118 187.718 398.118 187.718C398.118 187.718 380.763 176.274 354.677 159.056C328.592 141.838 293.881 118.741 259.171 95.7488C224.46 72.6515 189.855 49.5542 163.875 32.1263C137.895 14.8033 120.645 3.14966 120.645 3.14966Z" fill="#111111"/>
</g>
<g opacity="0.5">
<path d="M19.0391 252.495C19.0391 252.495 41.8638 249.031 76.1536 243.781C110.443 238.637 156.093 231.708 201.742 224.779C247.392 217.954 293.147 211.235 327.437 206.091C361.726 201.051 384.551 197.692 384.551 197.692C384.551 197.692 361.726 201.156 327.437 206.406C293.147 211.55 247.497 218.479 201.848 225.409C156.198 232.233 110.443 238.952 76.1536 244.096C41.969 249.136 19.0391 252.495 19.0391 252.495Z" fill="#111111"/>
</g>
<g opacity="0.5">
<path d="M415.683 308.349L116.121 340.475L415.578 307.614C415.788 307.614 415.999 307.719 415.999 307.929C415.999 308.139 415.894 308.349 415.683 308.349Z" fill="#111111"/>
</g>
<g opacity="0.5">
<path d="M0.420733 314.963L212.786 340.895L0.31555 315.698C0.105183 315.698 0 315.488 0 315.278C0 315.173 0.210367 314.963 0.420733 314.963Z" fill="#111111"/>
</g>
<g opacity="0.5">
<path d="M374.77 260.16L375.19 28.2417L375.611 260.16C375.611 260.369 375.401 260.579 375.19 260.579C374.98 260.579 374.77 260.369 374.77 260.16Z" fill="#111111"/>
</g>
<g opacity="0.5">
<path d="M21.2486 44.7247C21.2486 44.7247 21.3538 62.4677 21.5641 89.0295C21.6693 115.591 21.6693 151.077 21.7745 186.458C21.6693 221.944 21.5641 257.325 21.5641 283.887C21.3538 310.449 21.2486 328.191 21.2486 328.191C21.2486 328.191 21.1434 310.449 20.933 283.887C20.8278 257.325 20.8278 221.839 20.7227 186.458C20.8278 150.972 20.933 115.591 20.933 89.0295C21.1434 62.3627 21.2486 44.7247 21.2486 44.7247Z" fill="#111111"/>
</g>
</g>
<defs>
<clipPath id="clip0_283_4443">
<rect width="416" height="341" fill="white"/>
</clipPath>
</defs>
</svg>
