<svg width="14" height="14" viewBox="0 0 14 14" fill="none" xmlns="http://www.w3.org/2000/svg">
<path fill-rule="evenodd" clip-rule="evenodd" d="M8.41425 7.00025L13.7073 1.70725C14.0983 1.31625 14.0983 0.68425 13.7073 0.29325C13.3163 -0.09775 12.6842 -0.09775 12.2932 0.29325L7.00025 5.58625L1.70725 0.29325C1.31625 -0.09775 0.68425 -0.09775 0.29325 0.29325C-0.09775 0.68425 -0.09775 1.31625 0.29325 1.70725L5.58625 7.00025L0.29325 12.2932C-0.09775 12.6842 -0.09775 13.3163 0.29325 13.7073C0.48825 13.9023 0.74425 14.0002 1.00025 14.0002C1.25625 14.0002 1.51225 13.9023 1.70725 13.7073L7.00025 8.41425L12.2932 13.7073C12.4882 13.9023 12.7443 14.0002 13.0002 14.0002C13.2562 14.0002 13.5123 13.9023 13.7073 13.7073C14.0983 13.3163 14.0983 12.6842 13.7073 12.2932L8.41425 7.00025Z" fill="#111111"/>
</svg>
