<svg width="20" height="20" viewBox="0 0 20 20" fill="none" xmlns="http://www.w3.org/2000/svg">
<g id="ic24-email">
<path id="Vector" fill-rule="evenodd" clip-rule="evenodd" d="M15.8346 3.33325C17.2153 3.33325 18.3346 4.45254 18.3346 5.83325V14.1666C18.3346 15.5473 17.2153 16.6666 15.8346 16.6666H4.16797C2.78726 16.6666 1.66797 15.5473 1.66797 14.1666V5.83325C1.66797 4.45254 2.78726 3.33325 4.16797 3.33325H15.8346ZM16.668 6.10659L10.5501 11.4604C10.262 11.7124 9.84385 11.7334 9.53414 11.5234L9.45255 11.4604L3.33464 6.10742V14.1666C3.33464 14.6268 3.70773 14.9999 4.16797 14.9999H15.8346C16.2949 14.9999 16.668 14.6268 16.668 14.1666V6.10659ZM15.4013 4.99992H4.59964L10.0013 9.72595L15.4013 4.99992Z" fill="#A6A6A6"/>
</g>
</svg>
