<svg width="32" height="32" viewBox="0 0 32 32" fill="none" xmlns="http://www.w3.org/2000/svg">
<g id="ic24-search">
<path id="Vector" fill-rule="evenodd" clip-rule="evenodd" d="M14.666 2.66666C21.2934 2.66666 26.666 8.03924 26.666 14.6667C26.666 17.4997 25.6843 20.1034 24.0424 22.1562L28.9422 27.0572C29.4629 27.5779 29.4629 28.4221 28.9422 28.9428C28.4615 29.4234 27.7052 29.4604 27.1821 29.0537L27.0565 28.9428L22.1556 24.0431C20.1028 25.6849 17.4991 26.6667 14.666 26.6667C8.0386 26.6667 2.66602 21.2941 2.66602 14.6667C2.66602 8.03924 8.0386 2.66666 14.666 2.66666ZM14.666 5.33332C9.51136 5.33332 5.33268 9.512 5.33268 14.6667C5.33268 19.8213 9.51136 24 14.666 24C19.8207 24 23.9993 19.8213 23.9993 14.6667C23.9993 9.512 19.8207 5.33332 14.666 5.33332Z" fill="#FF5C00"/>
<path id="Vector_2" d="M15.7778 9.11111C15.7778 8.49746 15.2803 8 14.6667 8C14.053 8 13.5556 8.49746 13.5556 9.11111V13.5556H9.11111C8.49746 13.5556 8 14.053 8 14.6667C8 15.2803 8.49746 15.7778 9.11111 15.7778H13.5556V20.2222C13.5556 20.8359 14.053 21.3333 14.6667 21.3333C15.2803 21.3333 15.7778 20.8359 15.7778 20.2222V15.7778H20.2222C20.8359 15.7778 21.3333 15.2803 21.3333 14.6667C21.3333 14.053 20.8359 13.5556 20.2222 13.5556H15.7778V9.11111Z" fill="#FF5C00"/>
</g>
</svg>
