<svg width="28" height="28" viewBox="0 0 28 28" fill="none" xmlns="http://www.w3.org/2000/svg">
<rect width="28" height="28" rx="2" fill="#A6A6A6"/>
<path fill-rule="evenodd" clip-rule="evenodd" d="M18.0846 9.33325C19.0511 9.33325 19.8346 10.1168 19.8346 11.0833V16.9166C19.8346 17.8831 19.0511 18.6666 18.0846 18.6666H9.91797C8.95147 18.6666 8.16797 17.8831 8.16797 16.9166V11.0833C8.16797 10.1168 8.95147 9.33325 9.91797 9.33325H18.0846ZM18.668 11.2746L14.3854 15.0223C14.1838 15.1987 13.8911 15.2134 13.6743 15.0664L13.6172 15.0223L9.33464 11.2752V16.9166C9.33464 17.2388 9.5958 17.4999 9.91797 17.4999H18.0846C18.4068 17.4999 18.668 17.2388 18.668 16.9166V11.2746ZM17.7813 10.4999H10.2201L14.0013 13.8081L17.7813 10.4999Z" fill="white"/>
</svg>
