<svg width="16" height="16" viewBox="0 0 16 16" fill="none" xmlns="http://www.w3.org/2000/svg">
<g id="ic24-map">
<path id="Vector" fill-rule="evenodd" clip-rule="evenodd" d="M8 1.33325C11.3137 1.33325 14 3.9904 14 7.26816C14 9.43716 12.1851 11.7304 8.63217 14.2287L8 14.6666L7.61853 14.4033C3.90028 11.8372 2 9.4876 2 7.26816C2 3.9904 4.68629 1.33325 8 1.33325ZM8 2.65212C5.42267 2.65212 3.33333 4.71879 3.33333 7.26816C3.33333 8.86982 4.86448 10.8242 8 13.0545C11.1355 10.8242 12.6667 8.86982 12.6667 7.26816C12.6667 4.71879 10.5773 2.65212 8 2.65212ZM8 3.99992C9.47276 3.99992 10.6667 5.19383 10.6667 6.66658C10.6667 8.13934 9.47276 9.33325 8 9.33325C6.52724 9.33325 5.33333 8.13934 5.33333 6.66658C5.33333 5.19383 6.52724 3.99992 8 3.99992ZM8 5.33325C7.26362 5.33325 6.66667 5.93021 6.66667 6.66658C6.66667 7.40296 7.26362 7.99992 8 7.99992C8.73638 7.99992 9.33333 7.40296 9.33333 6.66658C9.33333 5.93021 8.73638 5.33325 8 5.33325Z" fill="white"/>
</g>
</svg>
