<svg width="20" height="20" viewBox="0 0 20 20" fill="none" xmlns="http://www.w3.org/2000/svg">
<g id="ic24-phone">
<path id="Vector" fill-rule="evenodd" clip-rule="evenodd" d="M7.96355 8.19346C8.19538 8.0389 8.33464 7.77871 8.33464 7.50008V4.16675C8.33464 2.78604 7.21535 1.66675 5.83464 1.66675H2.5013C2.04106 1.66675 1.66797 2.03984 1.66797 2.50008C1.66797 10.7844 9.21703 18.3334 17.5013 18.3334C17.9615 18.3334 18.3346 17.9603 18.3346 17.5001V14.1667C18.3346 12.786 17.2153 11.6667 15.8346 11.6667H12.5013C12.2227 11.6667 11.9625 11.806 11.8079 12.0378L10.2201 14.4195C8.49079 13.3013 6.97568 11.8244 5.81025 10.1242L5.58187 9.78124L7.96355 8.19346ZM12.9473 13.3334H15.8346C16.2949 13.3334 16.668 13.7065 16.668 14.1667V16.6379C15.0536 16.5261 13.4781 16.0944 12.0086 15.4097L11.6714 15.2473L12.9473 13.3334ZM3.36353 3.33341H5.83464C6.29487 3.33341 6.66797 3.70651 6.66797 4.16675V7.05409L4.75412 8.32999C3.97532 6.76545 3.48383 5.07197 3.36353 3.33341Z" fill="#383838"/>
</g>
</svg>
