<svg width="28" height="28" viewBox="0 0 28 28" fill="none" xmlns="http://www.w3.org/2000/svg">
<rect width="28" height="28" rx="2" fill="#A6A6A6"/>
<path fill-rule="evenodd" clip-rule="evenodd" d="M12.5749 12.7354C12.7372 12.6273 12.8346 12.4451 12.8346 12.2501V9.91675C12.8346 8.95025 12.0511 8.16675 11.0846 8.16675H8.7513C8.42914 8.16675 8.16797 8.42792 8.16797 8.75008C8.16797 14.5491 13.4523 19.8334 19.2513 19.8334C19.5735 19.8334 19.8346 19.5722 19.8346 19.2501V16.9167C19.8346 15.9502 19.0511 15.1667 18.0846 15.1667H15.7513C15.5563 15.1667 15.3741 15.2642 15.2659 15.4265L14.1545 17.0937C12.9439 16.3109 11.8834 15.2771 11.0676 14.087L10.9077 13.8469L12.5749 12.7354ZM16.0635 16.3334H18.0846C18.4068 16.3334 18.668 16.5946 18.668 16.9167V18.6465C17.5379 18.5683 16.4351 18.2661 15.4064 17.7868L15.1704 17.6731L16.0635 16.3334ZM9.35486 9.33341H11.0846C11.4068 9.33341 11.668 9.59458 11.668 9.91675V11.9379L10.3283 12.831C9.78312 11.7358 9.43907 10.5504 9.35486 9.33341Z" fill="white"/>
</svg>
