<svg width="106" height="18" viewBox="0 0 106 18" fill="none" xmlns="http://www.w3.org/2000/svg">
<path d="M8.07668 2.21993C8.41827 1.39863 9.58173 1.39864 9.92332 2.21993L11.146 5.15952C11.29 5.50576 11.6156 5.74233 11.9894 5.77229L15.1629 6.02671C16.0496 6.0978 16.4091 7.2043 15.7336 7.78297L13.3157 9.85416C13.0309 10.0981 12.9065 10.4809 12.9935 10.8456L13.7322 13.9425C13.9386 14.8077 12.9973 15.4916 12.2382 15.0279L9.52125 13.3684C9.20124 13.1729 8.79876 13.1729 8.47875 13.3684L5.76175 15.0279C5.00266 15.4916 4.0614 14.8077 4.26779 13.9425L5.0065 10.8456C5.09351 10.4809 4.96914 10.0981 4.68435 9.85416L2.26645 7.78297C1.59091 7.2043 1.95044 6.0978 2.83709 6.02671L6.01063 5.77229C6.38442 5.74233 6.71003 5.50576 6.85403 5.15952L8.07668 2.21993Z" fill="#FFC93F"/>
<path d="M30.0767 2.21993C30.4183 1.39863 31.5817 1.39864 31.9233 2.21993L33.146 5.15952C33.29 5.50576 33.6156 5.74233 33.9894 5.77229L37.1629 6.02671C38.0496 6.0978 38.4091 7.2043 37.7336 7.78297L35.3157 9.85416C35.0309 10.0981 34.9065 10.4809 34.9935 10.8456L35.7322 13.9425C35.9386 14.8077 34.9973 15.4916 34.2382 15.0279L31.5213 13.3684C31.2012 13.1729 30.7988 13.1729 30.4787 13.3684L27.7618 15.0279C27.0027 15.4916 26.0614 14.8077 26.2678 13.9425L27.0065 10.8456C27.0935 10.4809 26.9691 10.0981 26.6843 9.85416L24.2664 7.78297C23.5909 7.2043 23.9504 6.0978 24.8371 6.02671L28.0106 5.77229C28.3844 5.74233 28.71 5.50576 28.854 5.15952L30.0767 2.21993Z" fill="#FFC93F"/>
<path d="M74.0767 2.21993C74.4183 1.39863 75.5817 1.39864 75.9233 2.21993L77.146 5.15952C77.29 5.50576 77.6156 5.74233 77.9894 5.77229L81.1629 6.02671C82.0496 6.0978 82.4091 7.2043 81.7336 7.78297L79.3157 9.85416C79.0309 10.0981 78.9065 10.4809 78.9935 10.8456L79.7322 13.9425C79.9386 14.8077 78.9973 15.4916 78.2382 15.0279L75.5213 13.3684C75.2012 13.1729 74.7988 13.1729 74.4787 13.3684L71.7618 15.0279C71.0027 15.4916 70.0614 14.8077 70.2678 13.9425L71.0065 10.8456C71.0935 10.4809 70.9691 10.0981 70.6843 9.85416L68.2664 7.78297C67.5909 7.2043 67.9504 6.0978 68.8371 6.02671L72.0106 5.77229C72.3844 5.74233 72.71 5.50576 72.854 5.15952L74.0767 2.21993Z" fill="#FFC93F"/>
<path d="M52.0767 2.21993C52.4183 1.39863 53.5817 1.39864 53.9233 2.21993L55.146 5.15952C55.29 5.50576 55.6156 5.74233 55.9894 5.77229L59.1629 6.02671C60.0496 6.0978 60.4091 7.2043 59.7336 7.78297L57.3157 9.85416C57.0309 10.0981 56.9065 10.4809 56.9935 10.8456L57.7322 13.9425C57.9386 14.8077 56.9973 15.4916 56.2382 15.0279L53.5213 13.3684C53.2012 13.1729 52.7988 13.1729 52.4787 13.3684L49.7618 15.0279C49.0027 15.4916 48.0614 14.8077 48.2678 13.9425L49.0065 10.8456C49.0935 10.4809 48.9691 10.0981 48.6843 9.85416L46.2664 7.78297C45.5909 7.2043 45.9504 6.0978 46.8371 6.02671L50.0106 5.77229C50.3844 5.74233 50.71 5.50576 50.854 5.15952L52.0767 2.21993Z" fill="#FFC93F"/>
<path d="M96.0767 2.21993C96.4183 1.39863 97.5817 1.39864 97.9233 2.21993L99.146 5.15952C99.29 5.50576 99.6156 5.74233 99.9894 5.77229L103.163 6.02671C104.05 6.0978 104.409 7.2043 103.734 7.78297L101.316 9.85416C101.031 10.0981 100.906 10.4809 100.993 10.8456L101.732 13.9425C101.939 14.8077 100.997 15.4916 100.238 15.0279L97.5213 13.3684C97.2012 13.1729 96.7988 13.1729 96.4787 13.3684L93.7618 15.0279C93.0027 15.4916 92.0614 14.8077 92.2678 13.9425L93.0065 10.8456C93.0935 10.4809 92.9691 10.0981 92.6843 9.85416L90.2664 7.78297C89.5909 7.2043 89.9504 6.0978 90.8371 6.02671L94.0106 5.77229C94.3844 5.74233 94.71 5.50576 94.854 5.15952L96.0767 2.21993Z" fill="#FFC93F"/>
</svg>
