<svg width="16" height="16" viewBox="0 0 16 16" fill="none" xmlns="http://www.w3.org/2000/svg">
<g id="ic24-email">
<path id="Vector" fill-rule="evenodd" clip-rule="evenodd" d="M12.6673 2.66699C13.7719 2.66699 14.6673 3.56242 14.6673 4.66699V11.3337C14.6673 12.4382 13.7719 13.3337 12.6673 13.3337H3.33398C2.22941 13.3337 1.33398 12.4382 1.33398 11.3337V4.66699C1.33398 3.56242 2.22941 2.66699 3.33398 2.66699H12.6673ZM13.334 4.88566L8.43965 9.16871C8.20925 9.37031 7.87469 9.38711 7.62692 9.21911L7.56165 9.16871L2.66732 4.88633V11.3337C2.66732 11.7018 2.96579 12.0003 3.33398 12.0003H12.6673C13.0355 12.0003 13.334 11.7018 13.334 11.3337V4.88566ZM12.3207 4.00033H3.67932L8.00065 7.78115L12.3207 4.00033Z" fill="white"/>
</g>
</svg>
