<svg width="16" height="16" viewBox="0 0 16 16" fill="none" xmlns="http://www.w3.org/2000/svg">
<g id="ic24-phone">
<path id="Vector" fill-rule="evenodd" clip-rule="evenodd" d="M6.37045 6.55437C6.55592 6.43073 6.66732 6.22258 6.66732 5.99967V3.33301C6.66732 2.22844 5.77189 1.33301 4.66732 1.33301H2.00065C1.63246 1.33301 1.33398 1.63148 1.33398 1.99967C1.33398 8.62709 7.37323 14.6663 14.0007 14.6663C14.3688 14.6663 14.6673 14.3679 14.6673 13.9997V11.333C14.6673 10.2284 13.7719 9.33301 12.6673 9.33301H10.0007C9.77775 9.33301 9.56959 9.44441 9.44595 9.62987L8.17572 11.5352C6.79224 10.6407 5.58015 9.45913 4.64781 8.09898L4.46511 7.8246L6.37045 6.55437ZM10.3574 10.6663H12.6673C13.0355 10.6663 13.334 10.9648 13.334 11.333V13.3099C12.0425 13.2205 10.7821 12.8751 9.60648 12.3274L9.33672 12.1974L10.3574 10.6663ZM2.69043 2.66634H4.66732C5.03551 2.66634 5.33398 2.96482 5.33398 3.33301V5.64288L3.8029 6.66361C3.17987 5.41197 2.78667 4.05718 2.69043 2.66634Z" fill="white"/>
</g>
</svg>
