<svg width="16" height="16" viewBox="0 0 16 16" fill="none" xmlns="http://www.w3.org/2000/svg">
<g id="ic24-time">
<path id="Vector" fill-rule="evenodd" clip-rule="evenodd" d="M8.00065 1.3335C11.6825 1.3335 14.6673 4.31826 14.6673 8.00016C14.6673 11.6821 11.6825 14.6668 8.00065 14.6668C4.31875 14.6668 1.33398 11.6821 1.33398 8.00016C1.33398 4.31826 4.31875 1.3335 8.00065 1.3335ZM8.00065 2.66683C5.05513 2.66683 2.66732 5.05464 2.66732 8.00016C2.66732 10.9457 5.05513 13.3335 8.00065 13.3335C10.9462 13.3335 13.334 10.9457 13.334 8.00016C13.334 5.05464 10.9462 2.66683 8.00065 2.66683ZM8.00065 4.00016C8.34254 4.00016 8.62432 4.25752 8.66283 4.58908L8.66732 4.66683V7.72402L9.80539 8.86209C10.0657 9.12244 10.0657 9.54455 9.80539 9.8049C9.56507 10.0452 9.18691 10.0637 8.92538 9.86036L8.86258 9.8049L7.52925 8.47157C7.42506 8.36738 7.35892 8.23226 7.33977 8.08779L7.33398 8.00016V4.66683C7.33398 4.29864 7.63246 4.00016 8.00065 4.00016Z" fill="white"/>
</g>
</svg>
