<svg width="48" height="48" viewBox="0 0 48 48" fill="none" xmlns="http://www.w3.org/2000/svg">
<circle cx="24" cy="24" r="24" fill="#F2F2F2"/>
<path fill-rule="evenodd" clip-rule="evenodd" d="M19.7796 26.4347H27.1709C29.212 26.4347 30.8666 28.0893 30.8666 30.1304C30.8666 30.5386 30.5357 30.8695 30.1275 30.8695C29.7484 30.8695 29.436 30.5842 29.3933 30.2166L29.3846 30.0001C29.3196 28.8792 28.4221 27.9817 27.3012 27.9168L27.1709 27.913H19.7796C18.555 27.913 17.5622 28.9058 17.5622 30.1304C17.5622 30.5386 17.2313 30.8695 16.8231 30.8695C16.4149 30.8695 16.084 30.5386 16.084 30.1304C16.084 28.1431 17.6526 26.5221 19.6193 26.4382L19.7796 26.4347H27.1709H19.7796ZM23.4753 16.0869C25.9246 16.0869 27.9101 18.0724 27.9101 20.5217C27.9101 22.971 25.9246 24.9565 23.4753 24.9565C21.026 24.9565 19.0405 22.971 19.0405 20.5217C19.0405 18.0724 21.026 16.0869 23.4753 16.0869ZM23.4753 17.5652C21.8424 17.5652 20.5188 18.8889 20.5188 20.5217C20.5188 22.1545 21.8424 23.4782 23.4753 23.4782C25.1081 23.4782 26.4318 22.1545 26.4318 20.5217C26.4318 18.8889 25.1081 17.5652 23.4753 17.5652Z" fill="#FF5C00"/>
<path d="M30.1325 30.8695H16.8281V29.3912L17.9368 27.5434L24.589 27.1738L29.0238 27.913L30.1325 30.8695Z" fill="#FF5C00"/>
<path d="M20.5243 18.3049L23.1112 16.8266L24.2199 16.457L26.4373 18.6744L26.8069 21.2614L26.4373 23.1092L24.2199 23.8483H21.633L20.1547 22.3701L19.7852 20.1527L20.5243 18.3049Z" fill="#FF5C00"/>
</svg>
